<?xml version="1.0"?>
<svg version="1.1" xmlns="http://www.w3.org/2000/svg" xmlns:xlink="http://www.w3.org/1999/xlink" width="1024" height="512" viewBox="0 0 1024 512">
<g transform="translate(0,192) scale(0.625,0.625)">
    <title>sign forbidden icon</title>
    <desc>sign forbidden icon from the IconExperience.com G-Collection. Copyright by INCORS GmbH (www.incors.com).</desc>
    <defs>
        <linearGradient x1="64" y1="64" x2="329.837" y2="407.0155" gradientUnits="userSpaceOnUse" id="color-1">
            <stop offset="0" stop-color="#ffffff"/>
            <stop offset="1" stop-color="#e8ecf1"/>
        </linearGradient>
        <linearGradient x1="16" y1="16" x2="496.0002" y2="419.6363" gradientUnits="userSpaceOnUse" id="color-2">
            <stop offset="0" stop-color="#ed5a4f"/>
            <stop offset="1" stop-color="#c12e23"/>
        </linearGradient>
    </defs>
    <g fill="none" fill-rule="none" stroke="none" stroke-width="1" stroke-linecap="butt" stroke-linejoin="miter" stroke-miterlimit="10" stroke-dasharray="" stroke-dashoffset="0" font-family="none" font-weight="none" text-anchor="none" style="mix-blend-mode: normal">
        <path d="M256,64c106,0 192,86 192,192c0,106 -86,192 -192,192c-106,0 -192,-86 -192,-192c0,-106 86,-192 192,-192z" id="curve1" fill="url(#color-1)" fill-rule="evenodd"/>
        <path d="M256,16c132.5,0 240,107.5 240,240c0,132.5 -107.5,240 -240,240c-132.5,0 -240,-107.5 -240,-240c0,-132.5 107.5,-240 240,-240z M111,355.5l244.5,-244.5c-28,-19.5 -62.5,-31 -99.5,-31c-97,0 -176,79 -176,176c0,37 11.5,71.5 31,99.5z M401,156.5l-244.5,244.5c28,19.5 62.5,31 99.5,31c97,0 176,-79 176,-176c0,-37 -11.5,-71.5 -31,-99.5z" id="curve0" fill="url(#color-2)" fill-rule="nonzero"/>
    </g>
</g>
</svg>
