<?xml version="1.0"?>
<svg version="1.1" xmlns="http://www.w3.org/2000/svg" xmlns:xlink="http://www.w3.org/1999/xlink" width="2048" height="1024" viewBox="0 0 20480 10240">
<g transform="translate(6400,0) scale(1,1)">
	<title>drop_down_list icon</title>
	<desc>drop_down_list icon from the IconExperience.com O-Collection. Copyright by INCORS GmbH (www.incors.com).</desc>
	<rect fill="white" x="1280" y="2560" height="2560" width="8000"/>
	<rect fill="white" x="1280" y="5120" height="3840" width="5120"/>
	<path id="curve2" fill="#808080" d="M1920 5760l0 640 3840 0 0 -640 -3840 0zm0 1280l0 640 3840 0 0 -640 -3840 0z"/>
	<path id="curve1" fill="#4D82B8" d="M640 5110l6400 0 0 3850 -6400 0 0 -3850zm640 10l0 3200 5120 0 0 -3200 -5120 0z"/>
	<path id="curve0" fill="#4D82B8" d="M640 1920l8640 0c176,0 320,144 320,320l0 2560c0,176 -144,320 -320,320l-8640 0 0 -3200zm640 640l0 1920 5120 0 0 -1920 -5120 0zm5773 320c-63,0 -117,34 -144,91 -28,56 -20,120 19,169l947 1184c31,39 75,60 125,60 50,0 94,-21 125,-60l947 -1184c39,-49 47,-113 19,-169 -27,-57 -81,-91 -144,-91l-1894 0z"/>
</g>
</svg>
