<?xml version="1.0"?>
<svg version="1.1" xmlns="http://www.w3.org/2000/svg" xmlns:xlink="http://www.w3.org/1999/xlink" width="1024" height="512" viewBox="0 0 1024 512">
<g transform="translate(320,0) scale(1,1)">
    <title>data icon</title>
    <desc>data icon from the IconExperience.com G-Collection. Copyright by INCORS GmbH (www.incors.com).</desc>
    <defs>
        <linearGradient x1="64" y1="16" x2="448" y2="16" gradientUnits="userSpaceOnUse" id="color-1">
            <stop offset="0" stop-color="#ff8dfc"/>
            <stop offset="0.32941" stop-color="#ffdffe"/>
            <stop offset="1" stop-color="#ff00fb"/>
        </linearGradient>
        <linearGradient x1="448" y1="112" x2="64" y2="112" gradientUnits="userSpaceOnUse" id="color-2">
            <stop offset="0" stop-color="#108ed6"/>
            <stop offset="0.23922" stop-color="#129eee"/>
            <stop offset="1" stop-color="#36acf0"/>
        </linearGradient>
        <linearGradient x1="80" y1="128" x2="432" y2="128" gradientUnits="userSpaceOnUse" id="color-3">
            <stop offset="0" stop-color="#7d8b99"/>
            <stop offset="0.65882" stop-color="#5e6b76"/>
            <stop offset="1" stop-color="#3f4a53"/>
        </linearGradient>
    </defs>
    <g fill="none" fill-rule="evenodd" stroke="none" stroke-width="1" stroke-linecap="butt" stroke-linejoin="miter" stroke-miterlimit="10" stroke-dasharray="" stroke-dashoffset="0" font-family="none" font-weight="none" text-anchor="none" style="mix-blend-mode: normal">
        <path d="M64,416l16,-16l352,0l16,16l0,80l-16,16l-352,0l-16,-16z M64,32l16,-16l352,0l16,16l0,80l-16,16l-352,0l-16,-16z M64,160l16,-16l352,0l16,16l0,80l-16,16l-352,0l-16,-16z M64,288l16,-16l352,0l16,16l0,80l-16,16l-352,0l-16,-16z" id="curve2" fill="url(#color-1)"/>
        <path d="M448,496l-16,16l-352,0l-16,-16z M432,384l-352,0l-16,-16l384,0z M80,128l-16,-16l384,0l-16,16z M80,256l-16,-16l384,0l-16,16z" id="curve1" fill="url(#color-2)"/>
        <path d="M80,384l352,0l0,16l-352,0z M80,256l352,0l0,16l-352,0z M80,128l352,0l0,16l-352,0z" id="curve0" fill="url(#color-3)"/>
    </g>
</g>
</svg>
