<?xml version="1.0"?>
<svg version="1.1" xmlns="http://www.w3.org/2000/svg" xmlns:xlink="http://www.w3.org/1999/xlink" width="2048" height="1024" viewBox="0 0 20480 10240">
<g transform="translate(6400,0) scale(1,1)">
	<title>guard icon</title>
	<desc>guard icon from the IconExperience.com O-Collection. Copyright by INCORS GmbH (www.incors.com).</desc>
	<path id="curve2" fill="#E68497" d="M8000 9199c0,-804 -239,-1543 -639,-2123 -229,1371 -1172,2579 -2418,3162 60,1 119,2 177,2 1152,0 2880,-295 2880,-1041zm-1224 -2767c-447,379 -1025,608 -1656,608 -631,0 -1209,-229 -1656,-608 -740,612 -1224,1623 -1224,2768 0,346 374,595 889,763 59,3 119,5 179,5 1855,0 3468,-1680 3468,-3536z"/>
	<path id="curve1" fill="#EFC1B4" d="M7348 4722c-117,1122 -1070,1998 -2228,1998 -1159,0 -2112,-876 -2228,-1999 76,24 156,36 237,36 108,0 214,-17 318,-48 262,-81 482,-250 723,-374 307,-158 605,-218 950,-218 241,0 493,25 716,123 158,71 288,176 433,269 269,174 519,248 842,248 86,0 165,-12 237,-35z"/>
	<path id="curve0" fill="#808080" d="M5120 0c641,0 2240,0 2560,960 180,540 395,3477 -569,3477 -853,0 -750,-640 -1991,-640 -1166,0 -1422,640 -1991,640 -993,0 -761,-2900 -569,-3477 320,-960 1920,-960 2560,-960z"/>
</g>
</svg>
