<?xml version="1.0"?>
<svg version="1.1" xmlns="http://www.w3.org/2000/svg" xmlns:xlink="http://www.w3.org/1999/xlink" width="1024" height="512" viewBox="0 0 1024 512">
<g transform="translate(320,0) scale(1,1)">
    <title>form icon</title>
    <desc>form icon from the IconExperience.com G-Collection. Copyright by INCORS GmbH (www.incors.com).</desc>
    <defs>
        <linearGradient x1="64" y1="0" x2="362.6665" y2="512.00059" gradientUnits="userSpaceOnUse" id="color-1">
            <stop offset="0" stop-color="#98e957"/>
            <stop offset="1" stop-color="#5ea821"/>
        </linearGradient>
        <linearGradient x1="96" y1="32" x2="348.903" y2="480.00035" gradientUnits="userSpaceOnUse" id="color-2">
            <stop offset="0" stop-color="#fafdff"/>
            <stop offset="1" stop-color="#e0f2fd"/>
        </linearGradient>
    </defs>
    <g fill="none" fill-rule="evenodd" stroke="none" stroke-width="1" stroke-linecap="butt" stroke-linejoin="miter" stroke-miterlimit="10" stroke-dasharray="" stroke-dashoffset="0" font-family="none" font-weight="none" text-anchor="none" style="mix-blend-mode: normal">
        <path d="M64,0l384,0l0,512l-384,0z" id="curve1" fill="url(#color-1)"/>
        <path d="M96,32l320,0l0,32l-320,0z M96,144l160,0l0,32l-160,0z M96,80l320,0l0,32l-320,0z M96,368l320,0l0,112l-320,0z M96,320l160,0l0,32l-160,0z M96,192l320,0l0,96l-320,0z" id="curve0" fill="url(#color-2)"/>
    </g>
</g>
</svg>
