<?xml version="1.0"?>
<svg version="1.1" xmlns="http://www.w3.org/2000/svg" xmlns:xlink="http://www.w3.org/1999/xlink" width="1024" height="512" viewBox="0 0 1024 512">
<g transform="translate(320,0) scale(1,1)">
    <title>shape square icon</title>
    <desc>shape square icon from the IconExperience.com G-Collection. Copyright by INCORS GmbH (www.incors.com).</desc>
    <defs>
        <linearGradient x1="32" y1="32" x2="476.2878" y2="480.00035" gradientUnits="userSpaceOnUse" id="color-1">
            <stop offset="0" stop-color="#a050a0"/>
            <stop offset="1" stop-color="#a040a0"/>
        </linearGradient>
    </defs>
    <g fill="url(#color-1)" fill-rule="evenodd" stroke="#252525" stroke-width="10" stroke-linecap="butt" stroke-linejoin="round" stroke-miterlimit="10" stroke-dasharray="" stroke-dashoffset="0" font-family="none" font-weight="none" text-anchor="none" style="mix-blend-mode: normal" transform="translate(64,64) scale(0.75,0.75)">
        <path d="M32,32l448,0l0,448l-448,0z" id="curve0"/>
    </g>

    <g transform="translate(208,208) scale(0.033,0.033)">
	<title>arrow_down_right icon</title>
	<desc>arrow_down_right icon from the IconExperience.com O-Collection. Copyright by INCORS GmbH (www.incors.com).</desc>
	<path id="curve0" fill="#4D82B8" d="M2713 6400l2330 0 -3621 -3620c-124,-125 -124,-328 0,-453l905 -905c125,-124 328,-124 453,0l3620 3621 0 -2329c0,-67 38,-123 99,-148 61,-26 128,-12 174,34l1460 1460c124,124 187,276 187,452l0 3488c0,176 -144,320 -320,320l-3488 0c-176,0 -328,-63 -452,-187l-1460 -1460c-46,-46 -60,-113 -34,-174 25,-61 81,-99 147,-99z" stroke="#252525" stroke-width="160" stroke-linejoin="round"/>
    </g>

</g>
</svg>
