<?xml version="1.0"?>
<svg version="1.1" xmlns="http://www.w3.org/2000/svg" xmlns:xlink="http://www.w3.org/1999/xlink" width="2048" height="1024" viewBox="0 0 20480 10240">
<g transform="translate(6400,0) scale(1,1)">
	<title>minus icon</title>
	<desc>minus icon from the IconExperience.com O-Collection. Copyright by INCORS GmbH (www.incors.com).</desc>
	<path id="curve0" fill="#4D82B8" d="M960 3840l8320 0c176,0 320,144 320,320l0 1920c0,176 -144,320 -320,320l-8320 0c-176,0 -320,-144 -320,-320l0 -1920c0,-176 144,-320 320,-320z"/>


<g comp-op="clear">
<g transform="translate(5120,5120) scale(0.5,0.5)"  stroke="#808080" stroke-width="512" stroke-linejoin="round">
	<title>delete icon</title>
	<desc>delete icon from the IconExperience.com O-Collection. Copyright by INCORS GmbH (www.incors.com).</desc>
	<path id="curve0" fill="#E68497" d="M1273 7156l2037 -2036 -2037 -2036c-124,-125 -124,-328 0,-453l1358 -1358c125,-124 328,-124 453,0l2036 2037 2036 -2037c125,-124 328,-124 453,0l1358 1358c124,125 124,328 0,453l-2037 2036 2037 2036c124,125 124,328 0,453l-1358 1358c-125,124 -328,124 -453,0l-2036 -2037 -2036 2037c-125,124 -328,124 -453,0l-1358 -1358c-124,-125 -124,-328 0,-453z"/>
</g>
</g>



<g transform="translate(5120,5120) scale(0.5,0.5)">
	<title>delete icon</title>
	<desc>delete icon from the IconExperience.com O-Collection. Copyright by INCORS GmbH (www.incors.com).</desc>
	<path id="curve0" fill="#E68497" d="M1273 7156l2037 -2036 -2037 -2036c-124,-125 -124,-328 0,-453l1358 -1358c125,-124 328,-124 453,0l2036 2037 2036 -2037c125,-124 328,-124 453,0l1358 1358c124,125 124,328 0,453l-2037 2036 2037 2036c124,125 124,328 0,453l-1358 1358c-125,124 -328,124 -453,0l-2036 -2037 -2036 2037c-125,124 -328,124 -453,0l-1358 -1358c-124,-125 -124,-328 0,-453z"/>
</g>

</g>
</svg>
