<?xml version="1.0"?>
<svg version="1.1" xmlns="http://www.w3.org/2000/svg" xmlns:xlink="http://www.w3.org/1999/xlink" width="1024" height="512" viewBox="0 0 1024 512">
<g transform="translate(320,0) scale(1,1)">
    <title>table icon</title>
    <desc>table icon from the IconExperience.com G-Collection. Copyright by INCORS GmbH (www.incors.com).</desc>
    <defs>
        <linearGradient x1="48" y1="32" x2="464.00045" y2="253.00085" gradientUnits="userSpaceOnUse" id="color-1">
            <stop offset="0" stop-color="#91a0af"/>
            <stop offset="1" stop-color="#51616f"/>
        </linearGradient>
        <linearGradient x1="64" y1="80" x2="448" y2="449.6005" gradientUnits="userSpaceOnUse" id="color-2">
            <stop offset="0" stop-color="#fefefe"/>
            <stop offset="1" stop-color="#f4f6f8"/>
        </linearGradient>
    </defs>
    <g fill="none" fill-rule="evenodd" stroke="none" stroke-width="1" stroke-linecap="butt" stroke-linejoin="miter" stroke-miterlimit="10" stroke-dasharray="" stroke-dashoffset="0" font-family="none" font-weight="none" text-anchor="none" style="mix-blend-mode: normal">
        <path d="M464,32l0,448l-416,0l0,-448z" id="curve1" fill="url(#color-1)"/>
        <path d="M64,80l64,0l0,64l-64,0z M64,400l64,0l0,64l-64,0z M144,400l64,0l0,64l-64,0z M224,400l64,0l0,64l-64,0z M304,400l64,0l0,64l-64,0z M384,400l64,0l0,64l-64,0z M64,320l64,0l0,64l-64,0z M144,320l64,0l0,64l-64,0z M224,320l64,0l0,64l-64,0z M304,320l64,0l0,64l-64,0z M384,320l64,0l0,64l-64,0z M64,240l64,0l0,64l-64,0z M144,240l64,0l0,64l-64,0z M224,240l64,0l0,64l-64,0z M304,240l64,0l0,64l-64,0z M384,240l64,0l0,64l-64,0z M64,160l64,0l0,64l-64,0z M144,160l64,0l0,64l-64,0z M224,160l64,0l0,64l-64,0z M304,160l64,0l0,64l-64,0z M144,80l64,0l0,64l-64,0z M224,80l64,0l0,64l-64,0z M304,80l64,0l0,64l-64,0z M384,80l64,0l0,64l-64,0z M384,160l64,0l0,64l-64,0z" id="curve0" fill="url(#color-2)"/>
    </g>


<g transform="translate(0,0) scale(0.5,0.5)">
    <title>information icon</title>
    <desc>information icon from the IconExperience.com G-Collection. Copyright by INCORS GmbH (www.incors.com).</desc>
    <defs>
        <linearGradient x1="16" y1="16" x2="16" y2="496.0003" gradientUnits="userSpaceOnUse" id="i-color-1">
            <stop offset="0" stop-color="#4eb6f2"/>
            <stop offset="1" stop-color="#129eee"/>
        </linearGradient>
        <radialGradient cx="259.07508" cy="373.95001" r="276.24253" fx="259.07508" fy="373.95001" gradientUnits="userSpaceOnUse" id="i-color-2">
            <stop offset="0" stop-color="#ffffff"/>
            <stop offset="0.45882" stop-color="#ffffff"/>
            <stop offset="1" stop-color="#d8e0e8"/>
        </radialGradient>
    </defs>
    <g fill="none" fill-rule="evenodd" stroke="none" stroke-width="1" stroke-linecap="butt" stroke-linejoin="miter" stroke-miterlimit="10" stroke-dasharray="" stroke-dashoffset="0" font-family="none" font-weight="none" text-anchor="none" style="mix-blend-mode: normal">
        <path d="M256,16c132.5,0 240,107.5 240,240c0,132.5 -107.5,240 -240,240c-132.5,0 -240,-107.5 -240,-240c0,-132.5 107.5,-240 240,-240z" id="curve1" fill="url(#i-color-1)"/>
        <path d="M291,411l-69,0l0,-220l69,0z M218,134.5c0,-10 3.5,-18 10.5,-24.5c7,-6 16,-9 27.5,-9c11.5,0 20.5,3 27.5,9c7,6.5 10.5,14.5 10.5,24.5c0,9.5 -3.5,17.5 -10.5,24c-7,6 -16,9.5 -27.5,9.5c-11.5,0 -20.5,-3.5 -27.5,-9.5c-7,-6.5 -10.5,-14.5 -10.5,-24z" id="curve0" fill="url(#i-color-2)"/>
    </g>
</g>

</g>
</svg>
