<?xml version="1.0"?>
<svg version="1.1" xmlns="http://www.w3.org/2000/svg" xmlns:xlink="http://www.w3.org/1999/xlink" width="1024" height="512" viewBox="0 0 1024 512">
<g transform="translate(320,0) scale(1,1)">
<title>preprocessing region icon</title>
<desc>based on icon from the IconExperience.com V-Collection. Copyright by INCORS GmbH (www.incors.com).</desc>
<desc>Hand-traced with iVinci Express.</desc>

    <g transform="translate(0,0) scale(1,1)">
        <g id="Layer1" name="Layer 1" opacity="1">
            <g id="Shape1">
                <path id="shapePath1" d="M451.995,69.9937 C473.141,100.194 485.174,152.071 490.986,186.937 C498.338,231.039 498.338,276.484 490.986,320.586 C485.174,355.452 473.141,407.329 451.995,437.529 C447.267,444.282 432.5,445.405 432.5,437.529 C432.5,409.134 449.454,348.897 451.995,320.586 C455.983,276.168 455.983,231.355 451.995,186.937 C449.454,158.625 432.5,98.3887 432.5,69.9937 C432.5,62.1183 447.267,63.2406 451.995,69.9937 Z" style="stroke:#808080;stroke-opacity:1;stroke-width:4;stroke-linejoin:miter;stroke-miterlimit:2;stroke-linecap:round;fill-rule:evenodd;fill:#4040a0;fill-opacity:1;"/>
            </g>
            <g id="Shape2">
                <path id="shapePath2" d="M59.6262,70.0732 C36.9853,100.711 24.1019,153.338 17.8785,188.708 C10.0065,233.449 10.0065,279.551 17.8785,324.292 C24.1019,359.662 36.9853,412.289 59.6262,442.927 C64.6888,449.778 80.5,450.916 80.5,442.927 C80.5,414.121 62.3473,353.013 59.6262,324.292 C55.357,279.23 55.357,233.77 59.6262,188.708 C62.3473,159.987 80.5,98.8791 80.5,70.0732 C80.5,62.0839 64.6888,63.2224 59.6262,70.0732 Z" style="stroke:#808080;stroke-opacity:1;stroke-width:4;stroke-linejoin:miter;stroke-miterlimit:2;stroke-linecap:round;fill-rule:evenodd;fill:#4040a0;fill-opacity:1;"/>
            </g>
        </g>
    </g>

    <g transform="translate(64,64) scale(.75,.75)">
        <desc iVinci="yes" version="4.6" gridStep="16" showGrid="no" snapToGrid="no" codePlatform="0"/>
        <g id="Layer1" name="Layer 1" opacity="1">
            <g id="Shape1">
                <path id="shapePath1" d="M415.678,360.096 L342.688,360.096 L329.146,448.5 L270.157,448.5 L283.929,360.096 L196.708,360.096 L183.166,448.5 L124.177,448.5 L137.719,360.096 L64.5,360.096 L73.4516,306.504 L146.441,306.504 L162.279,205.652 L89.289,205.652 L97.3225,152.271 L170.542,152.271 L184.084,64.5 L242.843,64.5 L228.842,152.271 L316.751,152.271 L330.064,64.5 L388.823,64.5 L375.051,152.271 L448.5,152.271 L440.696,205.652 L367.018,205.652 L350.951,306.504 L424.629,306.504 L415.678,360.096 M204.971,306.504 L292.421,306.504 L308.259,205.652 L220.808,205.652 L204.971,306.504 Z" style="stroke:#808080;stroke-opacity:1;stroke-width:4;stroke-linejoin:miter;stroke-miterlimit:2;stroke-linecap:round;fill-rule:evenodd;fill:#ed9a56;fill-opacity:1;"/>
            </g>
        </g>
    </g>

</g>
</svg>
