<?xml version="1.0"?>
<svg version="1.1" xmlns="http://www.w3.org/2000/svg" xmlns:xlink="http://www.w3.org/1999/xlink" width="1024" height="512" viewBox="0 0 1024 512">
<g transform="translate(320,0) scale(1,1)">
    <title>shape square icon</title>
    <desc>shape square icon from the IconExperience.com G-Collection. Copyright by INCORS GmbH (www.incors.com).</desc>
    <defs>
        <linearGradient x1="32" y1="32" x2="476.2878" y2="480.00035" gradientUnits="userSpaceOnUse" id="color-1">
            <stop offset="0" stop-color="#ED9A56"/>
            <stop offset="1" stop-color="#E08A06"/>
        </linearGradient>
    </defs>
    <g fill="url(#color-1)" fill-rule="evenodd" stroke="#252525" stroke-width="10" stroke-linecap="butt" stroke-linejoin="round" stroke-miterlimit="10" stroke-dasharray="" stroke-dashoffset="0" font-family="none" font-weight="none" text-anchor="none" style="mix-blend-mode: normal" transform="translate(64,64) scale(0.75,0.75)">
        <path d="M32,32l448,0l0,448l-448,0z" id="curve0"/>
    </g>

    <g transform="translate(208,0) scale(0.033,0.033)">
	<desc>arrow_up_right icon from the IconExperience.com O-Collection. Copyright by INCORS GmbH (www.incors.com).</desc>
	<path id="curve0" fill="#4D82B8" d="M6400 7527l0 -2330 -3620 3621c-125,124 -328,124 -453,0l-905 -905c-124,-125 -124,-328 0,-453l3621 -3620 -2329 0c-67,0 -123,-38 -148,-99 -26,-61 -12,-128 34,-174l1460 -1460c124,-124 276,-187 452,-187l3488 0c176,0 320,144 320,320l0 3488c0,176 -63,328 -187,452l-1460 1460c-46,46 -113,60 -174,34 -61,-25 -99,-81 -99,-147z" stroke="#252525" stroke-width="160"/>
    </g>

</g>
</svg>
