<?xml version="1.0"?>
<svg version="1.1" xmlns="http://www.w3.org/2000/svg" xmlns:xlink="http://www.w3.org/1999/xlink" width="1024" height="512" viewBox="0 0 1024 512">
<g transform="translate(0,96) scale(0.625,0.625)">
    <title>lock icon</title>
    <desc>lock icon from the IconExperience.com G-Collection. Copyright by INCORS GmbH (www.incors.com).</desc>
    <defs>
        <linearGradient x1="96" y1="0" x2="416" y2="257.21109" gradientUnits="userSpaceOnUse" id="lock-color-1">
            <stop offset="0" stop-color="#909fae"/>
            <stop offset="1" stop-color="#717f8f"/>
        </linearGradient>
        <linearGradient x1="64" y1="240" x2="384.0005" y2="480.0005" gradientUnits="userSpaceOnUse" id="lock-color-2">
            <stop offset="0" stop-color="#a0a0a0"/>
            <stop offset="1" stop-color="#808080"/>
        </linearGradient>
        <linearGradient x1="64" y1="480" x2="255.997" y2="511.9995" gradientUnits="userSpaceOnUse" id="lock-color-3">
            <stop offset="0" stop-color="#808080"/>
            <stop offset="1" stop-color="#a0a0a0"/>
        </linearGradient>
        <linearGradient x1="64" y1="240" x2="431.163" y2="260.3975" gradientUnits="userSpaceOnUse" id="lock-color-4">
            <stop offset="0" stop-color="#808080"/>
            <stop offset="1" stop-color="#a0a0a0"/>
        </linearGradient>
    </defs>
    <g fill="none" fill-rule="evenodd" stroke="#252525" stroke-width="10" stroke-linecap="butt" stroke-linejoin="round" stroke-miterlimit="10" stroke-dasharray="" stroke-dashoffset="0" font-family="none" font-weight="none" text-anchor="none" style="mix-blend-mode: normal">
        <path d="M160,274l-64,0l0,-114c0,-88.5 71.5,-160 160,-160c88.5,0 160,71.5 160,160l0,114l-64,0l0,-114c0,-53 -43,-96 -96,-96c-53,0 -96,43 -96,96z" id="curve4" fill="url(#lock-color-1)"/>
        <path d="M80,240l352,0c9,0 16,7 16,16l0,240c0,9 -7,16 -16,16l-352,0c-9,0 -16,-7 -16,-16l0,-240c0,-9 7,-16 16,-16z" id="curve3" fill="url(#lock-color-2)"/>
        <path d="M448,480l0,16c0,9 -7,16 -16,16l-352,0c-9,0 -16,-7 -16,-16l0,-16c0,9 7,16 16,16l352,0c9,0 16,-7 16,-16z" id="curve2" fill="url(#lock-color-3)"/>
        <path d="M80,240l352,0c9,0 16,7 16,16l0,16c0,-9 -7,-16 -16,-16l-352,0c-9,0 -16,7 -16,16l0,-16c0,-9 7,-16 16,-16z" id="curve1" fill="url(#lock-color-4)"/>
        <path d="M256,304c22,0 40,22 40,40c0,15.5 -5.5,24 -14,30.5c-2.5,2 -3.5,5.5 -3,8.5l15,55c1,4 2,8 2,12.5l0,13.5l-80,0l0,-13.5c0,-4.5 1,-8.5 2,-12.5l15,-55c0.5,-3 -0.5,-6.5 -3,-8.5c-8.5,-6.5 -14,-15 -14,-30.5c0,-18 18,-40 40,-40z" id="curve0" fill="#252525" stroke="none"/>
    </g>
</g>
<g transform="translate(752,96) scale(0.625,0.625)">
    <title>letter T icon</title>
    <defs>
        <linearGradient x1="32" y1="208" x2="166.88235" y2="304" gradientUnits="userSpaceOnUse" id="letter-color-1">
            <stop offset="0" stop-color="#a0a0a0"/>
            <stop offset="1" stop-color="#808080"/>
        </linearGradient>
    </defs>
    <g fill="url(#letter-color-1)" fill-rule="evenodd" stroke="#252525" stroke-width="10" stroke-linecap="butt" stroke-linejoin="round" stroke-miterlimit="10" stroke-dasharray="" stroke-dashoffset="0" font-family="none" font-weight="none" text-anchor="none" style="mix-blend-mode: normal">
        <path d="M216,432l0,-224l-120,0l0,-72l320,0l0,72l-120,0l0,224z" id="curve0"/>
    </g>
</g>
</svg>
