<?xml version="1.0"?>
<svg version="1.1" xmlns="http://www.w3.org/2000/svg" xmlns:xlink="http://www.w3.org/1999/xlink" width="1024" height="512" viewBox="0 0 1024 512">
<g transform="translate(320,0) scale(1,1)">
<title>shape_rhomb_green icon</title>
<desc>based on icon from the IconExperience.com V-Collection. Copyright by INCORS GmbH (www.incors.com).</desc>
<desc>Hand-traced with iVinci Express.</desc>
    <desc iVinci="yes" version="4.6" gridStep="16" showGrid="no" snapToGrid="no" codePlatform="0"/>
    <g id="Layer1" name="Layer 1" opacity="1">
        <g id="Shape1">
            <path id="shapePath1" d="M256.5,64.5001 L448.5,256.501 L256.5,448.5 L64.5,256.499 L256.5,64.5001 Z" style="stroke:#808080;stroke-opacity:1;stroke-width:4;stroke-linejoin:miter;stroke-miterlimit:2;stroke-linecap:round;fill-rule:evenodd;fill:#3c7e40;fill-opacity:1;"/>
        </g>
    </g>


<g transform="translate(256,256) scale(0.025,0.025)">
	<title>delete icon</title>
	<desc>delete icon from the IconExperience.com O-Collection. Copyright by INCORS GmbH (www.incors.com).</desc>
	<path id="curve0" fill="#E68497" d="M1273 7156l2037 -2036 -2037 -2036c-124,-125 -124,-328 0,-453l1358 -1358c125,-124 328,-124 453,0l2036 2037 2036 -2037c125,-124 328,-124 453,0l1358 1358c124,125 124,328 0,453l-2037 2036 2037 2036c124,125 124,328 0,453l-1358 1358c-125,124 -328,124 -453,0l-2036 -2037 -2036 2037c-125,124 -328,124 -453,0l-1358 -1358c-124,-125 -124,-328 0,-453z"/>
</g>

</g>
</svg>
