<?xml version="1.0"?>
<svg version="1.1" xmlns="http://www.w3.org/2000/svg" xmlns:xlink="http://www.w3.org/1999/xlink" width="2048" height="1024" viewBox="0 0 20480 10240">
<g transform="translate(6400,0) scale(1,1)">
	<title>control_panel2 icon</title>
	<desc>control_panel2 icon from the IconExperience.com O-Collection. Copyright by INCORS GmbH (www.incors.com).</desc>
	<rect fill="white" x="2560" y="1280" width="5120" height="7680"/>
	<path id="curve1" fill="#808080" d="M5120 5440c-340,0 -656,106 -915,288l904 860 -441 463 -905 -860c-154,246 -243,537 -243,849 0,884 716,1600 1600,1600 884,0 1600,-716 1600,-1600 0,-884 -716,-1600 -1600,-1600z"/>
	<path id="curve0" fill="#4D82B8" d="M2240 640l5760 0c0,0 320,149 320,320l0 8320c0,177 -143,320 -320,320l-5760 0c-177,0 -320,-143 -320,-320l0 -8320c0,-177 143,-320 320,-320zm320 640l0 3200 5120 0 0 -3200 -5120 0zm2560 3840c-1060,0 -1920,860 -1920,1920 0,1060 860,1920 1920,1920 1060,0 1920,-860 1920,-1920 0,-1060 -860,-1920 -1920,-1920z"/>
</g>
</svg>
