<?xml version="1.0"?>
<svg version="1.1" xmlns="http://www.w3.org/2000/svg" xmlns:xlink="http://www.w3.org/1999/xlink" width="1024" height="512" viewBox="0 0 1024 512">
<g transform="translate(320,0) scale(1,1)">
<title>pound_orange icon</title>
<desc>based on icon from the IconExperience.com V-Collection. Copyright by INCORS GmbH (www.incors.com).</desc>
<desc>Hand-traced with iVinci Express.</desc>
    <desc iVinci="yes" version="4.6" gridStep="16" showGrid="no" snapToGrid="no" codePlatform="0"/>
    <g id="Layer1" name="Layer 1" opacity="1">
        <g id="Shape1">
            <path id="shapePath1" d="M415.678,360.096 L342.688,360.096 L329.146,448.5 L270.157,448.5 L283.929,360.096 L196.708,360.096 L183.166,448.5 L124.177,448.5 L137.719,360.096 L64.5,360.096 L73.4516,306.504 L146.441,306.504 L162.279,205.652 L89.289,205.652 L97.3225,152.271 L170.542,152.271 L184.084,64.5 L242.843,64.5 L228.842,152.271 L316.751,152.271 L330.064,64.5 L388.823,64.5 L375.051,152.271 L448.5,152.271 L440.696,205.652 L367.018,205.652 L350.951,306.504 L424.629,306.504 L415.678,360.096 M204.971,306.504 L292.421,306.504 L308.259,205.652 L220.808,205.652 L204.971,306.504 Z" style="stroke:#808080;stroke-opacity:1;stroke-width:4;stroke-linejoin:miter;stroke-miterlimit:2;stroke-linecap:round;fill-rule:evenodd;fill:#ed9a56;fill-opacity:1;"/>
        </g>
    </g>
</g>
</svg>
