<?xml version="1.0"?>
<svg version="1.1" xmlns="http://www.w3.org/2000/svg" xmlns:xlink="http://www.w3.org/1999/xlink" width="1024" height="512" viewBox="0 0 1024 512">
<g transform="translate(320,0) scale(1,1)">
<title>function_surround icon</title>
<desc>based on icon from the IconExperience.com V-Collection. Copyright by INCORS GmbH (www.incors.com).</desc>
<desc>Hand-traced with iVinci Express.</desc>
    <desc iVinci="yes" version="4.6" gridStep="20" showGrid="yes" snapToGrid="yes" codePlatform="0"/>
    <g id="Layer1" name="Layer 1" opacity="1">
        <g id="Shape1">
            <path id="shapePath1" d="M451.995,69.9937 C473.141,100.194 485.174,152.071 490.986,186.937 C498.338,231.039 498.338,276.484 490.986,320.586 C485.174,355.452 473.141,407.329 451.995,437.529 C447.267,444.282 432.5,445.405 432.5,437.529 C432.5,409.134 449.454,348.897 451.995,320.586 C455.983,276.168 455.983,231.355 451.995,186.937 C449.454,158.625 432.5,98.3887 432.5,69.9937 C432.5,62.1183 447.267,63.2406 451.995,69.9937 Z" style="stroke:#808080;stroke-opacity:1;stroke-width:4;stroke-linejoin:;stroke-miterlimit:2;stroke-linecap:round;fill-rule:evenodd;fill:#4040a0;fill-opacity:1;"/>
        </g>
        <g id="Shape2">
            <path id="shapePath2" d="M59.6262,70.0732 C36.9853,100.711 24.1019,153.338 17.8785,188.708 C10.0065,233.449 10.0065,279.551 17.8785,324.292 C24.1019,359.662 36.9853,412.289 59.6262,442.927 C64.6888,449.778 80.5,450.916 80.5,442.927 C80.5,414.121 62.3473,353.013 59.6262,324.292 C55.357,279.23 55.357,233.77 59.6262,188.708 C62.3473,159.987 80.5,98.8791 80.5,70.0732 C80.5,62.0839 64.6888,63.2224 59.6262,70.0732 Z" style="stroke:#808080;stroke-opacity:1;stroke-width:4;stroke-linejoin:;stroke-miterlimit:2;stroke-linecap:round;fill-rule:evenodd;fill:#4040a0;fill-opacity:1;"/>
        </g>
        <g id="Shape3">
            <path id="shapePath3" d="M123.496,386.214 C104.681,386.214 90.5696,440.5 109.385,440.5 L172.036,440.5 C200.259,440.5 208.166,426.929 222.277,386.214 L270.816,236.929 L335.169,236.929 C354.564,236.929 368.675,182.643 349.281,182.643 L289.785,182.643 L306.946,128.357 C311.387,114.786 321.692,114.786 377.504,114.786 C396.319,114.786 410.43,60.5 391.615,60.5 L355.485,60.5 C281.665,60.5 257.115,74.0714 243.444,114.786 L221.408,183.9 L151.719,182.643 C130.684,182.643 116.572,236.929 137.608,236.929 C151.719,236.929 203.636,236.929 203.636,236.929 C203.636,236.929 174.687,328.89 157.924,372.643 C152.148,387.721 151.719,386.214 123.496,386.214 Z" style="stroke:#808080;stroke-opacity:1;stroke-width:4;stroke-linejoin:miter;stroke-miterlimit:2;stroke-linecap:round;fill-rule:evenodd;fill:#a040a0;fill-opacity:1;"/>
        </g>
    </g>
</g>
</svg>
