<?xml version="1.0"?>
<svg version="1.1" xmlns="http://www.w3.org/2000/svg" xmlns:xlink="http://www.w3.org/1999/xlink" width="1024" height="512" viewBox="0 0 1024 512">
<g transform="translate(320,0) scale(1,1)">
<title>procedure icon</title>
<desc>based on icon from the IconExperience.com V-Collection. Copyright by INCORS GmbH (www.incors.com).</desc>
<desc>Hand-traced with iVinci Express.</desc>
    <desc iVinci="yes" version="4.6" gridStep="16" showGrid="no" snapToGrid="no" codePlatform="0"/>
    <g id="Layer1" name="Layer 1" opacity="1">
        <g id="Shape1">
            <path id="shapePath1" d="M381.907,272.293 C375.537,290.392 367.48,306.705 357.734,321.23 C347.989,335.756 336.872,348.114 324.382,358.304 C311.892,368.495 298.052,376.328 282.861,381.804 C267.67,387.279 251.534,390.017 234.455,390.017 C227.368,390.017 221.073,389.447 215.569,388.306 C210.066,387.165 204.958,385.416 200.245,383.058 C195.533,380.701 191.067,377.773 186.847,374.275 C182.628,370.776 178.44,366.67 174.285,361.955 L134.789,474.183 C134.254,475.704 133.227,477.073 131.708,478.289 C130.19,479.506 127.966,480.533 125.037,481.369 C122.108,482.206 118.383,482.852 113.861,483.309 C109.34,483.765 103.718,483.993 96.9951,483.993 C90.2722,483.993 84.8106,483.765 80.6104,483.309 C76.4102,482.852 73.1399,482.206 70.7997,481.369 C68.4594,480.533 66.9583,479.506 66.2963,478.289 C65.6344,477.073 65.571,475.704 66.1063,474.183 L171.923,173.504 C172.459,171.983 173.381,170.653 174.691,169.512 C176.001,168.371 177.926,167.42 180.464,166.66 C183.003,165.9 186.202,165.329 190.061,164.949 C193.92,164.569 198.665,164.379 204.298,164.379 C209.749,164.379 214.27,164.569 217.861,164.949 C221.452,165.329 224.249,165.9 226.253,166.66 C228.257,167.42 229.512,168.371 230.019,169.512 C230.526,170.653 230.512,171.983 229.977,173.504 L221.546,197.46 C230.773,191.376 239.61,186.015 248.057,181.376 C256.503,176.737 264.818,172.858 273.001,169.74 C281.185,166.622 289.315,164.302 297.391,162.781 C305.467,161.26 313.774,160.5 322.314,160.5 C340.121,160.5 354.262,163.428 364.739,169.284 C375.215,175.139 382.612,183.163 386.93,193.353 C391.248,203.544 392.841,215.408 391.711,228.944 C390.581,242.481 387.313,256.931 381.907,272.293 M309.054,276.399 C312.105,267.73 314.263,259.402 315.529,251.417 C316.795,243.432 316.662,236.321 315.132,230.085 C313.602,223.849 310.449,218.868 305.674,215.141 C300.898,211.415 293.968,209.552 284.883,209.552 C280.34,209.552 275.643,210.122 270.789,211.263 C265.936,212.404 260.738,214.267 255.195,216.853 C249.651,219.438 243.704,222.784 237.353,226.891 C231.002,230.998 224.03,236.093 216.438,242.177 L192.832,309.253 C198.876,319.443 205.282,327.314 212.05,332.866 C218.818,338.417 226.926,341.193 236.374,341.193 C245.277,341.193 253.533,339.292 261.139,335.49 C268.746,331.687 275.632,326.706 281.798,320.546 C287.963,314.386 293.364,307.427 298.002,299.67 C302.64,291.913 306.324,284.156 309.054,276.399 Z" style="stroke:#808080;stroke-opacity:1;stroke-width:4;stroke-linejoin:miter;stroke-miterlimit:2;stroke-linecap:round;fill-rule:evenodd;fill:#a040a0;fill-opacity:1;"/>
        </g>
    </g>


<g transform="translate(256,256) scale(0.025,0.025)">
	<title>delete icon</title>
	<desc>delete icon from the IconExperience.com O-Collection. Copyright by INCORS GmbH (www.incors.com).</desc>
	<path id="curve0" fill="#E68497" d="M1273 7156l2037 -2036 -2037 -2036c-124,-125 -124,-328 0,-453l1358 -1358c125,-124 328,-124 453,0l2036 2037 2036 -2037c125,-124 328,-124 453,0l1358 1358c124,125 124,328 0,453l-2037 2036 2037 2036c124,125 124,328 0,453l-1358 1358c-125,124 -328,124 -453,0l-2036 -2037 -2036 2037c-125,124 -328,124 -453,0l-1358 -1358c-124,-125 -124,-328 0,-453z"/>
</g>

</g>
</svg>
