<?xml version="1.0"?>
<svg version="1.1" xmlns="http://www.w3.org/2000/svg" xmlns:xlink="http://www.w3.org/1999/xlink" width="1024" height="512" viewBox="0 0 1024 512">
<g transform="translate(320,0) scale(1,1)">
    <title>arrow fork icon</title>
    <desc>arrow fork icon from the IconExperience.com G-Collection. Copyright by INCORS GmbH (www.incors.com).</desc>
    <defs>
        <linearGradient x1="0" y1="16" x2="496" y2="16" gradientUnits="userSpaceOnUse" id="color-1">
            <stop offset="0" stop-color="#b27931"/>
            <stop offset="1" stop-color="#d29931"/>
        </linearGradient>
    </defs>
    <g fill="url(#color-1)" fill-rule="evenodd" stroke="#4040a0" stroke-width="10" stroke-linecap="butt" stroke-linejoin="round" stroke-miterlimit="10" stroke-dasharray="" stroke-dashoffset="0" font-family="none" font-weight="none" text-anchor="none" style="mix-blend-mode: normal" transform="translate(512,0) rotate(90)">
        <path d="M128,272l0,32c0,25.5 27.5,38 56.5,51c13.5,6 27,12 39.5,19l0,-262l-80,0l112,-112l112,112l-80,0l0,198c12.5,-7 26,-13 39.5,-19c29,-13 56.5,-25.5 56.5,-51l0,-32l-64,0l96,-96l96,96l-64,0l0,32c0,67 -46.5,87.5 -94.5,109c-32,14.5 -65.5,29.5 -65.5,67l0,64l0,32l-64,0l0,-32c0,-37.5 -33.5,-52.5 -65.5,-67c-48,-21.5 -94.5,-42 -94.5,-109l0,-32l-64,0l96,-96l96,96z" id="curve0"/>
    </g>
</g>
</svg>
