<?xml version="1.0"?>
<svg version="1.1" xmlns="http://www.w3.org/2000/svg" xmlns:xlink="http://www.w3.org/1999/xlink" width="2048" height="1024" viewBox="0 0 20480 10240">
<g transform="translate(6400,0) scale(1,1)">
	<title>data icon</title>
	<desc>data icon from the IconExperience.com O-Collection. Copyright by INCORS GmbH (www.incors.com).</desc>
    <rect fill="white" x="2560" y="1800" height="7400" width="3000"/>
	<path id="curve0" fill="#ED9A56" d="M7680 7040c353,0 640,288 640,640l0 1280c0,352 -288,640 -640,640l-5120 0c-352,0 -640,-287 -640,-640l0 -1280c0,-353 288,-640 640,-640l0 -320c-352,0 -640,-287 -640,-640l0 -1280c0,-353 288,-640 640,-640l0 -320c-352,0 -640,-288 -640,-640l0 -1280c0,-353 288,-640 640,-640l5120 0c353,0 640,288 640,640l0 1280c0,352 -288,640 -640,640l0 320c353,0 640,288 640,640l0 1280c0,352 -288,640 -640,640l0 320zm-4992 640c-70,0 -128,72 -128,160l0 960c0,88 58,160 128,160l2432 0 0 -1280 -2432 0zm0 -5760c-70,0 -128,72 -128,160l0 960c0,88 58,160 128,160l2432 0 0 -1280 -2432 0zm0 2880c-70,0 -128,72 -128,160l0 960c0,88 58,160 128,160l2432 0 0 -1280 -2432 0z"/>
    <rect fill="#252525" x="6000" y="2000" height="7000" width="1000"/>
</g>
</svg>
