<?xml version="1.0"?>
<svg version="1.1" xmlns="http://www.w3.org/2000/svg" xmlns:xlink="http://www.w3.org/1999/xlink" width="2048" height="1024" viewBox="0 0 20480 10240">
<g transform="translate(6400,0) scale(1,1)">
	<title>blender icon</title>
	<desc>blender icon from the IconExperience.com O-Collection. Copyright by INCORS GmbH (www.incors.com).</desc>
        <rect fill="white" x="5120" y="1920" width="1600" height="4160"/>
	<path id="curve3" fill="#ED9A56" d="M6369 7536c625,350 1089,955 1249,1674 45,201 -106,390 -312,390l-4372 0c-206,0 -357,-189 -312,-390 160,-719 624,-1324 1249,-1674 -195,-316 -322,-708 -351,-1136l3200 0c-29,428 -156,820 -351,1136z"/>
	<path id="curve2" fill="#4D82B8" d="M7680 1920l1060 0c431,0 737,411 613,824l-713 2376c-128,513 -431,960 -960,960l-597 0c94,-317 176,-636 247,-958l30 0c326,0 512,-275 591,-591l344 -1144c77,-254 -112,-507 -377,-507l-269 0c21,-319 31,-639 31,-960z"/>
	<path id="curve1" fill="#a040a0" d="M1920 2240c0,-176 144,-320 320,-320l5120 0c0,1446 -213,2843 -610,4160l-3260 0c-259,-859 -439,-1753 -534,-2671l-942 -943c-63,-62 -94,-138 -94,-226zm4407 2955c91,-374 167,-754 226,-1137 61,-389 105,-775 132,-1156 12,-176 -120,-328 -296,-341 -176,-12 -329,120 -342,296 -26,376 -67,744 -124,1103 -56,363 -128,725 -216,1085 -42,171 63,344 235,385 171,41 343,-64 385,-235z"/>
	<path id="curve0" fill="#ED9A56" d="M6080 1073c447,106 876,285 1280,527 -1493,0 -2987,0 -4480,0 404,-242 833,-421 1280,-527l0 -113c0,-176 144,-320 320,-320l1280 0c176,0 320,144 320,320l0 113z"/>
</g>
</svg>
