<?xml version="1.0"?>
<svg version="1.1" xmlns="http://www.w3.org/2000/svg" xmlns:xlink="http://www.w3.org/1999/xlink" width="1024" height="512" viewBox="0 0 1024 512">
<g transform="translate(320,0) scale(1,1)">
    <title>note text icon</title>
    <desc>note text icon from the IconExperience.com G-Collection. Copyright by INCORS GmbH (www.incors.com).</desc>
    <defs>
        <linearGradient x1="32" y1="32" x2="468.34655" y2="476.00085" gradientUnits="userSpaceOnUse" id="color-1">
            <stop offset="0" stop-color="#ffe081"/>
            <stop offset="1" stop-color="#ffc105"/>
        </linearGradient>
        <linearGradient x1="358.5" y1="358.5" x2="470.3355" y2="470.477" gradientUnits="userSpaceOnUse" id="color-2">
            <stop offset="0" stop-color="#efb101"/>
            <stop offset="1" stop-color="#d39500"/>
        </linearGradient>
    </defs>
    <g fill="none" fill-rule="none" stroke="none" stroke-width="1" stroke-linecap="butt" stroke-linejoin="miter" stroke-miterlimit="10" stroke-dasharray="" stroke-dashoffset="0" font-family="none" font-weight="none" text-anchor="none" style="mix-blend-mode: normal">
        <path d="M336,480l-296,0c-4.5,0 -8,-3.5 -8,-8l0,-432c0,-4.5 3.5,-8 8,-8l432,0c4.5,0 8,3.5 8,8l0,296c0,9 -3.5,17 -9.5,22.5l-112,112c-5.5,6 -13.5,9.5 -22.5,9.5z" id="curve3" fill="url(#color-1)" fill-rule="evenodd"/>
        <path d="M470.5,358.5c-5.5,6 -13.5,9.5 -22.5,9.5l-72,0c-4.5,0 -8,3.5 -8,8l0,72c0,8.5 -3.5,16.5 -9.5,22.5z" id="curve2" fill="url(#color-2)" fill-rule="evenodd"/>
    </g>

<g transform="translate(0,172) scale(0.66,0.66)">
    <title>data icon</title>
    <desc>data icon from the IconExperience.com G-Collection. Copyright by INCORS GmbH (www.incors.com).</desc>
    <defs>
        <linearGradient x1="64" y1="16" x2="448" y2="16" gradientUnits="userSpaceOnUse" id="d-color-1">
            <stop offset="0" stop-color="#ff8dfc"/>
            <stop offset="0.32941" stop-color="#ffdffe"/>
            <stop offset="1" stop-color="#ff00fb"/>
        </linearGradient>
        <linearGradient x1="448" y1="112" x2="64" y2="112" gradientUnits="userSpaceOnUse" id="d-color-2">
            <stop offset="0" stop-color="#108ed6"/>
            <stop offset="0.23922" stop-color="#129eee"/>
            <stop offset="1" stop-color="#36acf0"/>
        </linearGradient>
        <linearGradient x1="80" y1="128" x2="432" y2="128" gradientUnits="userSpaceOnUse" id="d-color-3">
            <stop offset="0" stop-color="#7d8b99"/>
            <stop offset="0.65882" stop-color="#5e6b76"/>
            <stop offset="1" stop-color="#3f4a53"/>
        </linearGradient>
    </defs>
    <g fill="none" fill-rule="evenodd" stroke="none" stroke-width="1" stroke-linecap="butt" stroke-linejoin="miter" stroke-miterlimit="10" stroke-dasharray="" stroke-dashoffset="0" font-family="none" font-weight="none" text-anchor="none" style="mix-blend-mode: normal">
        <path d="M64,416l16,-16l352,0l16,16l0,80l-16,16l-352,0l-16,-16z M64,32l16,-16l352,0l16,16l0,80l-16,16l-352,0l-16,-16z M64,160l16,-16l352,0l16,16l0,80l-16,16l-352,0l-16,-16z M64,288l16,-16l352,0l16,16l0,80l-16,16l-352,0l-16,-16z" id="curve2" fill="url(#d-color-1)"/>
        <path d="M448,496l-16,16l-352,0l-16,-16z M432,384l-352,0l-16,-16l384,0z M80,128l-16,-16l384,0l-16,16z M80,256l-16,-16l384,0l-16,16z" id="curve1" fill="url(#d-color-2)"/>
        <path d="M80,384l352,0l0,16l-352,0z M80,256l352,0l0,16l-352,0z M80,128l352,0l0,16l-352,0z" id="curve0" fill="url(#d-color-3)"/>
    </g>
</g>

</g>
</svg>
