<?xml version="1.0"?>
<svg version="1.1" xmlns="http://www.w3.org/2000/svg" xmlns:xlink="http://www.w3.org/1999/xlink" width="1024" height="512" viewBox="0 0 1024 512">
<g transform="translate(320,0) scale(1,1)">
    <title>shape square icon</title>
    <desc>shape square icon from the IconExperience.com G-Collection. Copyright by INCORS GmbH (www.incors.com).</desc>
    <defs>
        <linearGradient x1="32" y1="32" x2="476.2878" y2="480.00035" gradientUnits="userSpaceOnUse" id="color-1">
            <stop offset="0" stop-color="#a05050"/>
            <stop offset="1" stop-color="#a04040"/>
        </linearGradient>
    </defs>
    <g fill="url(#color-1)" fill-rule="evenodd" stroke="#252525" stroke-width="10" stroke-linecap="butt" stroke-linejoin="round" stroke-miterlimit="10" stroke-dasharray="" stroke-dashoffset="0" font-family="none" font-weight="none" text-anchor="none" style="mix-blend-mode: normal" transform="translate(64,64) scale(0.75,0.75)">
        <path d="M32,32l448,0l0,448l-448,0z" id="curve0"/>
    </g>


<g transform="translate(205,205) scale(0.60,0.60)">
    <title>recycle icon</title>
    <desc>recycle icon from the IconExperience.com G-Collection. Copyright by INCORS GmbH (www.incors.com).</desc>
    <defs>
        <linearGradient x1="20.5" y1="0" x2="246.9905" y2="417.057" gradientUnits="userSpaceOnUse" id="r-color-1">
            <stop offset="0" stop-color="#77da26"/>
            <stop offset="1" stop-color="#5ba71e"/>
        </linearGradient>
    </defs>
    <g fill="url(#r-color-1)" fill-rule="evenodd" stroke="none" stroke-width="1" stroke-linecap="butt" stroke-linejoin="miter" stroke-miterlimit="10" stroke-dasharray="" stroke-dashoffset="0" font-family="none" font-weight="none" text-anchor="none" style="mix-blend-mode: normal">
        <path d="M456.5,277l35,131l-54,-31.5c-29,50 -75,83 -127,97c-42.5,11.5 -89,9 -131.5,-8l16.5,-62.5c32,15 67,17 99,8.5c35.5,-9 67.5,-32.5 87.5,-67l-56.5,-32.5z M160,96l96,-96l0,62.5c57.5,0 109.5,23.5 147,61.5c31.5,31 52.5,72.5 59,118l-62.5,17c-3,-35 -18.5,-66.5 -41.5,-90c-26,-26 -62,-42.5 -102,-42.5l0,65.5z M151.5,443l-131,-35l54,-31.5c-28.5,-49.5 -34,-106.5 -20.5,-158c11.5,-42.5 36.5,-81.5 73,-110l46,45.5c-29,20.5 -48.5,49.5 -57,81.5c-10,35.5 -6,74.5 14,109l56.5,-32.5z" id="curve0"/>
    </g>
</g>

</g>
</svg>
