<?xml version="1.0"?>
<svg version="1.1" xmlns="http://www.w3.org/2000/svg" xmlns:xlink="http://www.w3.org/1999/xlink" width="1024" height="512" viewBox="0 0 1024 512">
<g transform="translate(320,0) scale(1,1)">
<title>function icon</title>
<desc>based on icon from the IconExperience.com V-Collection. Copyright by INCORS GmbH (www.incors.com).</desc>
<desc>Hand-traced with iVinci Express.</desc>
    <desc iVinci="yes" version="4.6" gridStep="16" showGrid="yes" snapToGrid="yes" codePlatform="0"/>
    <g id="Layer1" name="Layer 1" opacity="1">
        <g id="Shape1">
            <path id="shapePath1" d="M96.5,416.5 C75.1667,416.5 59.1667,480.5 80.5,480.5 L151.535,480.5 C183.535,480.5 192.5,464.5 208.5,416.5 L263.535,240.5 L336.5,240.5 C358.49,240.5 374.49,176.5 352.5,176.5 L285.042,176.5 L304.5,112.5 C309.535,96.5 321.219,96.5 384.5,96.5 C405.833,96.5 421.833,32.5 400.5,32.5 L359.535,32.5 C275.836,32.5 248,48.5 232.5,96.5 L207.515,177.982 L128.5,176.5 C104.649,176.5 88.6486,240.5 112.5,240.5 C128.5,240.5 187.364,240.5 187.364,240.5 C187.364,240.5 154.541,348.918 135.535,400.5 C128.986,418.276 128.5,416.5 96.5,416.5 Z" style="stroke:#808080;stroke-opacity:1;stroke-width:4;stroke-linejoin:miter;stroke-miterlimit:2;stroke-linecap:round;fill-rule:evenodd;fill:#a040a0;fill-opacity:1;"/>
        </g>
    </g>


<g transform="translate(240,240) scale(0.55,0.55)">
<title>shape_rhomb_green icon</title>
<desc>based on icon from the IconExperience.com V-Collection. Copyright by INCORS GmbH (www.incors.com).</desc>
<desc>Hand-traced with iVinci Express.</desc>
    <desc iVinci="yes" version="4.6" gridStep="16" showGrid="no" snapToGrid="no" codePlatform="0"/>
    <g id="Layer1" name="Layer 1" opacity="1">
        <g id="Shape1">
            <path id="shapePath1" d="M256.5,64.5001 L448.5,256.501 L256.5,448.5 L64.5,256.499 L256.5,64.5001 Z" style="stroke:#808080;stroke-opacity:1;stroke-width:4;stroke-linejoin:miter;stroke-miterlimit:2;stroke-linecap:round;fill-rule:evenodd;fill:#3c7e40;fill-opacity:1;"/>
        </g>
    </g>
</g>

</g>
</svg>
