<?xml version="1.0"?>
<svg version="1.1" xmlns="http://www.w3.org/2000/svg" xmlns:xlink="http://www.w3.org/1999/xlink" width="1024" height="512" viewBox="0 0 1024 512">
<g transform="translate(320,0) scale(1,1)">
    <title>note icon</title>
    <desc>note icon from the IconExperience.com G-Collection. Copyright by INCORS GmbH (www.incors.com).</desc>
    <defs>
        <linearGradient x1="32" y1="32" x2="468.34655" y2="476.00085" gradientUnits="userSpaceOnUse" id="color-1">
            <stop offset="0" stop-color="#ffe081"/>
            <stop offset="1" stop-color="#ffc105"/>
        </linearGradient>
        <linearGradient x1="358.5" y1="358.5" x2="470.3355" y2="470.477" gradientUnits="userSpaceOnUse" id="color-2">
            <stop offset="0" stop-color="#efb101"/>
            <stop offset="1" stop-color="#d39500"/>
        </linearGradient>
    </defs>
    <g fill="none" fill-rule="evenodd" stroke="none" stroke-width="1" stroke-linecap="butt" stroke-linejoin="miter" stroke-miterlimit="10" stroke-dasharray="" stroke-dashoffset="0" font-family="none" font-weight="none" text-anchor="none" style="mix-blend-mode: normal">
        <path d="M336,480l-296,0c-4.5,0 -8,-3.5 -8,-8l0,-432c0,-4.5 3.5,-8 8,-8l432,0c4.5,0 8,3.5 8,8l0,296c0,9 -3.5,17 -9.5,22.5l-112,112c-5.5,6 -13.5,9.5 -22.5,9.5z" id="curve1" fill="url(#color-1)"/>
        <path d="M470.5,358.5c-5.5,6 -13.5,9.5 -22.5,9.5l-72,0c-4.5,0 -8,3.5 -8,8l0,72c0,8.5 -3.5,16.5 -9.5,22.5z" id="curve0" fill="url(#color-2)"/>
    </g>


<g transform="translate(0,172) scale(0.66,0.66)">
    <title>user icon</title>
    <desc>user icon from the IconExperience.com G-Collection. Copyright by INCORS GmbH (www.incors.com).</desc>
    <defs>
        <linearGradient x1="69" y1="507" x2="166.9775" y2="506.105" gradientUnits="userSpaceOnUse" id="u-color-1">
            <stop offset="0" stop-color="#f5a557"/>
            <stop offset="1" stop-color="#ec923a"/>
        </linearGradient>
        <linearGradient x1="64" y1="304.5" x2="411.805" y2="480.668" gradientUnits="userSpaceOnUse" id="u-color-2">
            <stop offset="0" stop-color="#68ba1c"/>
            <stop offset="1" stop-color="#53a616"/>
        </linearGradient>
        <linearGradient x1="167" y1="290.5" x2="266.345" y2="342.528" gradientUnits="userSpaceOnUse" id="u-color-3">
            <stop offset="0" stop-color="#ffffff"/>
            <stop offset="1" stop-color="#eff2f6"/>
        </linearGradient>
        <radialGradient cx="207.33228" cy="126.96153" r="244.55559" fx="207.33228" fy="126.96153" gradientUnits="userSpaceOnUse" id="u-color-4">
            <stop offset="0" stop-color="#f5b673"/>
            <stop offset="1" stop-color="#f5a557"/>
        </radialGradient>
    </defs>
    <g fill="none" fill-rule="evenodd" stroke="none" stroke-width="1" stroke-linecap="butt" stroke-linejoin="miter" stroke-miterlimit="10" stroke-dasharray="" stroke-dashoffset="0" font-family="none" font-weight="none" text-anchor="none" style="mix-blend-mode: normal">
        <path d="M184,297.5l-0.5,-55c49,0 96,0 145,0l-0.5,55c10,9 21.5,16.5 33,23c28.5,17.5 54.5,32.5 69.5,64c9.5,20 12.5,42.5 12.5,65c0,2 -0.5,4 -1,6.5c-7.5,25.5 -58,37.5 -82,42c-34,6.5 -69.5,9 -104,9c-34.5,0 -70,-2.5 -104,-9c-24,-4.5 -74.5,-16.5 -82,-42c-0.5,-2.5 -1,-4.5 -1,-6.5c0,-22.5 3,-45 12.5,-65c15,-31.5 41,-46.5 69.5,-64c11.5,-6.5 23,-14 33,-23z" id="curve3" fill="url(#u-color-1)"/>
        <path d="M256,512c-80,0 -192,-15.5 -192,-62.5c0,-99 61,-116 103,-145c6,12.5 19,21 31.5,26.5c17.5,8 38.5,11.5 57.5,11.5c19,0 40,-3.5 57.5,-11.5c12.5,-5.5 25.5,-14 31.5,-26.5c42,29 103,46 103,145c0,47 -112,62.5 -192,62.5z" id="curve2" fill="url(#u-color-2)"/>
        <path d="M256,342.5c-19,0 -40,-3.5 -57.5,-11.5c-12.5,-5.5 -25.5,-14 -31.5,-26.5c6,-4.5 11.5,-8.5 17,-14c0,16.5 36,32 72,32c36,0 72,-15.5 72,-32c5.5,5 11,9.5 17,14c-6,12.5 -19,21 -31.5,26.5c-17.5,8 -38.5,11.5 -57.5,11.5z" id="curve1" fill="url(#u-color-3)"/>
        <path d="M256,0c91.5,0 122.5,64 122.5,128c0,80 -61.5,160 -122.5,160c-61,0 -122.5,-80 -122.5,-160c0,-64 31,-128 122.5,-128z" id="curve0" fill="url(#u-color-4)"/>
    </g>
</g>

</g>
</svg>
