<?xml version="1.0"?>
<svg version="1.1" xmlns="http://www.w3.org/2000/svg" xmlns:xlink="http://www.w3.org/1999/xlink" width="2048" height="1024" viewBox="0 0 20480 10240">
<g transform="translate(6400,0) scale(1,1)">
	<title>tank icon</title>
	<desc>tank icon from the IconExperience.com O-Collection. Copyright by INCORS GmbH (www.incors.com).</desc>
	<path id="curve3" fill="#808080" d="M1015 6080l7943 0c246,0 457,129 569,347 113,219 95,465 -48,665l-494 692c-248,347 -615,536 -1042,536l-5703 0c-352,0 -656,-126 -905,-375l-773 -772c-187,-187 -240,-454 -138,-698 101,-244 327,-395 591,-395z"/>
	<path id="curve2" fill="#76A797" d="M1280 4160l4254 0c117,0 218,18 328,58l3070 1116c190,69 325,208 389,399l37 112c-122,-55 -258,-85 -400,-85l-7943 0c-364,0 -684,195 -849,512l96 -845c25,-211 89,-387 207,-564l278 -418c123,-184 312,-285 533,-285z"/>
	<path id="curve1" fill="#76A797" d="M9824 3190l-873 117c-44,5 -84,-5 -119,-32 -35,-27 -55,-62 -61,-105l-3155 420 -302 -603 3374 -450c-11,-87 51,-167 138,-179l873 -116c44,-6 84,4 119,31 35,27 55,63 61,106l82 632c12,87 -50,168 -137,179z"/>
	<path id="curve0" fill="#76A797" d="M1920 2560l2428 0c248,0 461,132 572,354l463 926 -4103 0 0 -640c0,-353 288,-640 640,-640z"/>
</g>
</svg>
