<?xml version="1.0"?>
<svg version="1.1" xmlns="http://www.w3.org/2000/svg" xmlns:xlink="http://www.w3.org/1999/xlink" width="2048" height="1024" viewBox="0 0 20480 10240">
<g transform="translate(6400,0) scale(1,1)">
<g transform="translate(-1536,1024) scale(0.8,0.8)">
	<title>navigate_left icon</title>
	<desc>navigate_left icon from the IconExperience.com O-Collection. Copyright by INCORS GmbH (www.incors.com).</desc>
	<path id="curve0" fill="#4D82B8" d="M6251 1273l-3620 3621c-125,124 -125,328 0,452l3620 3621c125,124 328,124 453,0l905 -905c125,-125 125,-328 0,-453l-2489 -2489 2489 -2489c125,-125 125,-328 0,-453l-905 -905c-125,-124 -328,-124 -453,0z"/>
</g>

<g transform="translate(3584,1024) scale(0.8,0.8)">
	<title>navigate_right icon</title>
	<desc>navigate_right icon from the IconExperience.com O-Collection. Copyright by INCORS GmbH (www.incors.com).</desc>
	<path id="curve0" fill="#4D82B8" d="M3989 1273l3620 3621c125,124 125,328 0,452l-3620 3621c-125,124 -328,124 -453,0l-905 -905c-125,-125 -125,-328 0,-453l2489 -2489 -2489 -2489c-125,-125 -125,-328 0,-453l905 -905c125,-124 328,-124 453,0z"/>
</g>
</g>
</svg>
