<?xml version="1.0"?>
<svg version="1.1" xmlns="http://www.w3.org/2000/svg" xmlns:xlink="http://www.w3.org/1999/xlink" width="2048" height="1024" viewBox="0 0 20480 10240">
<g transform="translate(6400,0) scale(1,1)">
	<title>target icon</title>
	<desc>target icon from the IconExperience.com O-Collection. Copyright by INCORS GmbH (www.incors.com).</desc>
        <circle fill="white" cx="5120" cy="5120" r="3600"/>
	<path id="curve2" fill="#808080" d="M5120 960c2298,0 4160,1862 4160,4160 0,2298 -1862,4160 -4160,4160 -2298,0 -4160,-1862 -4160,-4160 0,-2298 1862,-4160 4160,-4160zm0 960c-1767,0 -3200,1433 -3200,3200 0,1767 1433,3200 3200,3200 1767,0 3200,-1433 3200,-3200 0,-1767 -1433,-3200 -3200,-3200z"/>
	<path id="curve1" fill="#808080" d="M5120 2560c1414,0 2560,1146 2560,2560 0,1414 -1146,2560 -2560,2560 -1414,0 -2560,-1146 -2560,-2560 0,-1414 1146,-2560 2560,-2560zm0 960c-884,0 -1600,716 -1600,1600 0,884 716,1600 1600,1600 884,0 1600,-716 1600,-1600 0,-884 -716,-1600 -1600,-1600z"/>
	<path id="curve0" fill="#E68497" d="M5120 4160c530,0 960,430 960,960 0,530 -430,960 -960,960 -530,0 -960,-430 -960,-960 0,-530 430,-960 960,-960z"/>

</g>
</svg>
