<?xml version="1.0" encoding="UTF-8"?>
<!DOCTYPE svg PUBLIC "-//W3C//DTD SVG 1.1//EN" "http://www.w3.org/Graphics/SVG/1.1/DTD/svg11.dtd">
<svg xmlns="http://www.w3.org/2000/svg" xml:space="preserve" width="1024px" height="1024px" shape-rendering="geometricPrecision" text-rendering="geometricPrecision" image-rendering="optimizeQuality" fill-rule="nonzero" clip-rule="evenodd" viewBox="0 0 10240 10240" xmlns:xlink="http://www.w3.org/1999/xlink">
	<title>document_text icon</title>
	<desc>document_text icon from the IconExperience.com O-Collection. Copyright by INCORS GmbH (www.incors.com).</desc>
	<rect fill="#8080ff" x="1280" y="1280" width="6400" height="8000"/>
	<rect fill="#8080ff" x="7400" y="2000" width="950" height="7000"/>
	<path id="curve1" fill="#808080" d="M2560 7680l1920 0 0 640 -1920 0 0 -640zm0 -5760l1920 0 0 640 -1920 0 0 -640zm0 1280l1920 0 0 640 -1920 0 0 -640zm0 1920l5120 0 0 640 -5120 0 0 -640zm0 1280l4480 0 0 640 -4480 0 0 -640z"/>
	<path id="curve0" fill="#808080" d="M1280 640l5230 0c352,0 656,126 905,375l1170 1170c249,249 375,553 375,905l0 6510 -7680 0 0 -8960zm640 640l0 7680 6400 0 0 -5440c0,-176 -144,-320 -320,-320l-1600 0 0 -1600c0,-176 -144,-320 -320,-320l-4160 0zm5120 320l0 960 960 0 -960 -960z"/>
</svg>
