<?xml version="1.0"?>
<svg version="1.1" xmlns="http://www.w3.org/2000/svg" xmlns:xlink="http://www.w3.org/1999/xlink" width="512" height="512">
    <desc iVinci="yes" version="4.6" gridStep="32" showGrid="no" snapToGrid="no" codePlatform="0"/>
    <g id="Layer1" name="Layer 1" opacity="1">
        <g id="Shape1">
            <desc shapeID="1" type="0" basicInfo-basicType="0" basicInfo-roundedRectRadius="12" basicInfo-polygonSides="6" basicInfo-starPoints="5" bounding="rect(-199.892,-200.053,399.786,400.107)" text="" font-familyName="Helvetica" font-pixelSize="20" font-bold="0" font-underline="0" font-alignment="1" strokeStyle="0" markerStart="0" markerEnd="0" shadowEnabled="0" shadowOffsetX="0" shadowOffsetY="2" shadowBlur="4" shadowOpacity="160" blurEnabled="0" blurRadius="4" transform="matrix(1.1206,0,0,1.1197,256.499,256.499)" pers-center="0,0" pers-size="0,0" pers-start="0,0" pers-end="0,0" locked="0" mesh="" flag=""/>
            <path id="shapePath1" d="M32.5,160.5 L160.5,32.5 L448.5,32.5 L480.5,64.5 L480.5,352.5 L352.5,480.5 L64.5,480.5 L32.5,448.5 L32.5,160.5 Z" style="stroke:url(#linearGradientStroke1);stroke-width:4;stroke-linejoin:miter;stroke-miterlimit:2;stroke-linecap:round;fill-rule:evenodd;fill:url(#linearGradientFill1);fill-opacity:1;"/><defs><linearGradient id="linearGradientStroke1" gradientUnits="userSpaceOnUse" x1="34.4994" y1="33.4994" x2="478.499" y2="480.499"><stop offset="0" stop-color="#000000" stop-opacity="1"/><stop offset="0.860861" stop-color="#808080" stop-opacity="1"/></linearGradient><linearGradient id="linearGradientFill1" gradientUnits="userSpaceOnUse" x1="34.4994" y1="34.4994" x2="479.5" y2="480.499"><stop offset="0.153796" stop-color="#505050" stop-opacity="1"/><stop offset="0.49994" stop-color="#A0A0A0" stop-opacity="1"/><stop offset="0.835028" stop-color="#505050" stop-opacity="1"/></linearGradient></defs>
        </g>
        <g id="Shape2">
            <desc shapeID="2" type="0" basicInfo-basicType="0" basicInfo-roundedRectRadius="12" basicInfo-polygonSides="6" basicInfo-starPoints="5" bounding="rect(-133.015,-160.562,266.031,321.124)" text="" font-familyName="Symbol" font-pixelSize="360" font-bold="1" font-underline="0" font-alignment="1" strokeStyle="0" markerStart="0" markerEnd="0" shadowEnabled="0" shadowOffsetX="0" shadowOffsetY="2" shadowBlur="4" shadowOpacity="160" blurEnabled="0" blurRadius="4" transform="matrix(1,8.9407e-08,-8.9407e-08,1,261.515,257.062)" pers-center="0,0" pers-size="0,0" pers-start="0,0" pers-end="0,0" locked="0" mesh="" flag=""/>
            <path id="shapePath2" d="M159.64,250.625 C162.64,254.625 169.14,254.625 173.14,251.125 L223.64,208.625 L223.64,411.625 C223.64,415.125 228.14,417.625 233.14,417.625 L284.14,417.625 C289.14,417.625 293.64,415.125 293.64,411.625 L293.64,204.126 L349.64,251.126 C354.14,254.626 360.14,254.626 363.64,250.626 L392.64,216.125 C395.64,212.125 395.14,206.125 390.64,202.625 L271.14,101.626 L269.14,99.6255 C267.64,97.6255 264.64,96.6255 262.14,96.6255 C259.14,96.1255 255.64,97.1255 253.64,99.6254 L251.14,103.125 C251.14,103.125 132.14,202.626 132.14,202.626 C128.14,206.126 127.14,212.126 130.64,216.126 L159.64,250.625 M262.14,177.625 L260.641,177.625 C260.641,177.625 261.141,177.125 261.141,177.125 L262.14,177.625 Z" style="stroke:none;fill-rule:evenodd;fill:url(#linearGradientFill2);fill-opacity:1;"/><defs><linearGradient id="linearGradientFill2" gradientUnits="userSpaceOnUse" x1="161.516" y1="257.062" x2="361.515" y2="257.062"><stop offset="0" stop-color="#1e211d" stop-opacity="1"/><stop offset="1" stop-color="#161915" stop-opacity="1"/></linearGradient></defs>
        </g>
    </g>
</svg>
