<svg version="1.1"
    xmlns="http://www.w3.org/2000/svg"
    xmlns:xlink="http://www.w3.org/1999/xlink" width="512" height="512" viewBox="0 0 512 512">
    <title>note icon</title>
    <desc>note icon from the IconExperience.com G-Collection. Copyright by INCORS GmbH (www.incors.com).</desc>
    <defs>
        <linearGradient x1="32" y1="32" x2="468.34655" y2="476.00085" gradientUnits="userSpaceOnUse" id="color-1">
            <stop offset="0" stop-color="#ffe081"/>
            <stop offset="1" stop-color="#ffc105"/>
        </linearGradient>
        <linearGradient x1="358.5" y1="358.5" x2="470.3355" y2="470.477" gradientUnits="userSpaceOnUse" id="color-2">
            <stop offset="0" stop-color="#efb101"/>
            <stop offset="1" stop-color="#d39500"/>
        </linearGradient>
    </defs>
    <g fill="none" fill-rule="evenodd" stroke="none" stroke-width="1" stroke-linecap="butt" stroke-linejoin="miter" stroke-miterlimit="10" stroke-dasharray="" stroke-dashoffset="0" font-family="none" font-weight="none" text-anchor="none" style="mix-blend-mode: normal">
        <path d="M336,480l-296,0c-4.5,0 -8,-3.5 -8,-8l0,-432c0,-4.5 3.5,-8 8,-8l432,0c4.5,0 8,3.5 8,8l0,296c0,9 -3.5,17 -9.5,22.5l-112,112c-5.5,6 -13.5,9.5 -22.5,9.5z" id="curve1" fill="url(#color-1)"/>
        <path d="M470.5,358.5c-5.5,6 -13.5,9.5 -22.5,9.5l-72,0c-4.5,0 -8,3.5 -8,8l0,72c0,8.5 -3.5,16.5 -9.5,22.5z" id="curve0" fill="url(#color-2)"/>
    </g>
</svg>