<svg version="1.1"
    xmlns="http://www.w3.org/2000/svg"
    xmlns:xlink="http://www.w3.org/1999/xlink" width="512" height="512" viewBox="0 0 512 512">
    <title>bookmarks icon</title>
    <desc>bookmarks icon from the IconExperience.com G-Collection. Copyright by INCORS GmbH (www.incors.com).</desc>
    <defs>
        <linearGradient x1="187.22645" y1="76.00395" x2="190.62095" y2="485.29995" gradientUnits="userSpaceOnUse" id="color-1">
            <stop offset="0" stop-color="#77da26"/>
            <stop offset="1" stop-color="#5ead1f"/>
        </linearGradient>
        <linearGradient x1="187.22645" y1="84.5" x2="187.22645" y2="496.1455" gradientUnits="userSpaceOnUse" id="color-2">
            <stop offset="0" stop-color="#70ce24"/>
            <stop offset="0.85098" stop-color="#59a31d"/>
            <stop offset="1" stop-color="#51941a"/>
        </linearGradient>
        <linearGradient x1="425.55593" y1="16.75801" x2="237.07743" y2="232.57751" gradientUnits="userSpaceOnUse" id="color-3">
            <stop offset="0" stop-color="#91a0af"/>
            <stop offset="1" stop-color="#717f8f"/>
        </linearGradient>
        <linearGradient x1="425.55593" y1="15.69637" x2="273.94343" y2="286.58387" gradientUnits="userSpaceOnUse" id="color-4">
            <stop offset="0" stop-color="#b3c0cd"/>
            <stop offset="1" stop-color="#91a0af"/>
        </linearGradient>
        <linearGradient x1="160" y1="64" x2="315.501" y2="445.6835" gradientUnits="userSpaceOnUse" id="color-5">
            <stop offset="0" stop-color="#4ab5f2"/>
            <stop offset="1" stop-color="#129eee"/>
        </linearGradient>
        <linearGradient x1="256" y1="0" x2="160" y2="272.0003" gradientUnits="userSpaceOnUse" id="color-6">
            <stop offset="0" stop-color="#91a0af"/>
            <stop offset="1" stop-color="#717f8f"/>
        </linearGradient>
        <linearGradient x1="256" y1="0" x2="214.66" y2="312.15985" gradientUnits="userSpaceOnUse" id="color-7">
            <stop offset="0" stop-color="#b3c0cd"/>
            <stop offset="1" stop-color="#91a0af"/>
        </linearGradient>
    </defs>
    <g fill="none" fill-rule="none" stroke="none" stroke-width="1" stroke-linecap="butt" stroke-linejoin="miter" stroke-miterlimit="10" stroke-dasharray="" stroke-dashoffset="0" font-family="none" font-weight="none" text-anchor="none" style="mix-blend-mode: normal">
        <path d="M470,124.5l-119,-47.5c-8,-3 -17.5,1 -21,9l-141.5,357c-3.5,8 0.5,17.5 8.5,20.5l119,47.5c8.5,3 17.5,-1 21,-9l142,-357c3,-8 -1,-17.5 -9,-20.5z" id="curve8" fill="url(#color-1)" fill-rule="evenodd"/>
        <path d="M331,84.5c-0.5,0.5 -0.5,1 -1,1.5l-141.5,357c-3.5,8 0.5,17.5 8.5,20.5l82,32.5l41,0c9,0 16,-7 16,-16l0,-384c0,-4.5 -2,-8.5 -5,-11.5z" id="curve7" fill="url(#color-2)" fill-rule="evenodd"/>
        <path d="M404.5,115.5c16.5,6.5 24.5,25 18,41.5c-6.5,16.5 -25,24.5 -41.5,18c-16.5,-6.5 -24.5,-25 -18,-41.5c6.5,-16.5 25,-24.5 41.5,-18z" id="curve6" fill="#51616f" fill-rule="evenodd"/>
        <path d="M407.5,151c-3,8.5 -12.5,12.5 -20.5,9c-8.5,-3 -12.5,-12.5 -9,-20.5l11.5,-30c8.5,-21 3.5,-50 -19.5,-59.5c-10,-4 -29.5,-1 -49.5,7.5c-18,8 -35,20 -45.5,35.5c-22,34 -49,70.5 -73,94c-26.5,25.5 -53,43.5 -76,53.5l-13,-29c20,-9 43,-25 67,-47.5c22,-21.5 47.5,-56.5 68,-88c14,-21.5 36.5,-38 59.5,-48c27.5,-11.5 56.5,-14.5 74.5,-7.5c39.5,15.5 52.5,63 37.5,101z" id="curve5" fill="url(#color-3)" fill-rule="nonzero"/>
        <path d="M407.5,151c-3,8.5 -12.5,12.5 -20.5,9c-8.5,-3 -12.5,-12.5 -9,-20.5l11.5,-30c8.5,-21 3.5,-50 -19.5,-59.5c-9.5,-3.5 -21,-3 -31.5,3c-10,6 -19.5,17.5 -26.5,34.5l-38,96.5c-11.5,29 -25,53.5 -38.5,72c-15.5,21 -31,36 -44,42.5l-16,-28c9,-3.5 21,-15 34,-33c12,-17 24,-39 34.5,-65l38.5,-97c9.5,-24 24,-40.5 40,-50c19.5,-11.5 41,-12.5 59.5,-5c39.5,15.5 52.5,63 37.5,101z" id="curve4" fill="url(#color-4)" fill-rule="nonzero"/>
        <path d="M304,64l-128,0c-9,0 -16,7 -16,16l0,384c0,9 7,16 16,16l128,0c9,0 16,-7 16,-16l0,-384c0,-9 -7,-16 -16,-16z" id="curve3" fill="url(#color-5)" fill-rule="evenodd"/>
        <path d="M240,80c17.5,0 32,14.5 32,32c0,17.5 -14.5,32 -32,32c-17.5,0 -32,-14.5 -32,-32c0,-17.5 14.5,-32 32,-32z" id="curve2" fill="#51616f" fill-rule="evenodd"/>
        <path d="M256,112c0,9 -7,16 -16,16c-9,0 -16,-7 -16,-16l0,-32c0,-23 -15.5,-48 -40.5,-48c-10.5,0 -28,10 -43,25.5c-14,13.5 -25.5,31 -29,49.5c-8,40 -19.5,83.5 -33.5,114c-15,33.5 -33,60.5 -50.5,78.5l-23,-23c15.5,-15 31,-38.5 44.5,-68.5c13,-28 23.5,-70 31,-107c5,-25.5 20,-48.5 37.5,-66.5c21.5,-21 47,-34.5 66,-34.5c43,0 72.5,39.5 72.5,80z" id="curve1" fill="url(#color-6)" fill-rule="nonzero"/>
        <path d="M256,112c0,9 -7,16 -16,16c-9,0 -16,-7 -16,-16l0,-32c0,-23 -15.5,-48 -40.5,-48c-10,0 -20.5,5 -28,14.5c-7,9 -11.5,23 -11.5,41.5l0,104c0,31 -3.5,58.5 -9.5,81c-6,25.5 -15,44.5 -25,55.5l-25,-20c7,-6.5 14,-21.5 19,-43c5,-20 8.5,-45 8.5,-73.5l-0.5,-104c0,-26 7.5,-46.5 19,-61c14,-18 33.5,-27 53,-27c43,0 72.5,39.5 72.5,80z" id="curve0" fill="url(#color-7)" fill-rule="nonzero"/>
    </g>
</svg>