<svg version="1.1"
    xmlns="http://www.w3.org/2000/svg"
    xmlns:xlink="http://www.w3.org/1999/xlink" width="512" height="512" viewBox="0 0 512 512">
    <title>elements cascade icon</title>
    <desc>elements cascade icon from the IconExperience.com G-Collection. Copyright by INCORS GmbH (www.incors.com).</desc>
    <defs>
        <linearGradient x1="112" y1="112" x2="336.0005" y2="385.7785" gradientUnits="userSpaceOnUse" id="color-1">
            <stop offset="0" stop-color="#4c5c69"/>
            <stop offset="1" stop-color="#3f4c57"/>
        </linearGradient>
        <linearGradient x1="160" y1="176" x2="319.7335" y2="336" gradientUnits="userSpaceOnUse" id="color-2">
            <stop offset="0" stop-color="#4db6f2"/>
            <stop offset="1" stop-color="#18a0ee"/>
        </linearGradient>
        <linearGradient x1="32" y1="0" x2="191.7338" y2="160" gradientUnits="userSpaceOnUse" id="color-3">
            <stop offset="0" stop-color="#4db6f2"/>
            <stop offset="1" stop-color="#18a0ee"/>
        </linearGradient>
        <linearGradient x1="288" y1="352" x2="447.7325" y2="512" gradientUnits="userSpaceOnUse" id="color-4">
            <stop offset="0" stop-color="#4db6f2"/>
            <stop offset="1" stop-color="#18a0ee"/>
        </linearGradient>
    </defs>
    <g fill="none" fill-rule="none" stroke="none" stroke-width="1" stroke-linecap="butt" stroke-linejoin="miter" stroke-miterlimit="10" stroke-dasharray="" stroke-dashoffset="0" font-family="none" font-weight="none" text-anchor="none" style="mix-blend-mode: normal">
        <path d="M272,256l0,160l64,0l0,32l-80,0c-9,0 -16,-7 -16,-16l0,-176z M144,112l0,128l48,0l0,32l-64,0c-9,0 -16,-7 -16,-16l0,-144z" id="curve3" fill="url(#color-1)" fill-rule="nonzero"/>
        <path d="M176,176l160,0c9,0 16,7 16,16l0,128c0,9 -7,16 -16,16l-160,0c-9,0 -16,-7 -16,-16l0,-128c0,-9 7,-16 16,-16z" id="curve2" fill="url(#color-2)" fill-rule="evenodd"/>
        <path d="M48,0l160,0c9,0 16,7 16,16l0,128c0,9 -7,16 -16,16l-160,0c-9,0 -16,-7 -16,-16l0,-128c0,-9 7,-16 16,-16z" id="curve1" fill="url(#color-3)" fill-rule="evenodd"/>
        <path d="M304,352l160,0c9,0 16,7 16,16l0,128c0,9 -7,16 -16,16l-160,0c-9,0 -16,-7 -16,-16l0,-128c0,-9 7,-16 16,-16z" id="curve0" fill="url(#color-4)" fill-rule="evenodd"/>
    </g>
</svg>
