<svg version="1.1"
    xmlns="http://www.w3.org/2000/svg"
    xmlns:xlink="http://www.w3.org/1999/xlink" width="512" height="512" viewBox="0 0 512 512">
    <title>elements icon</title>
    <desc>elements icon from the IconExperience.com G-Collection. Copyright by INCORS GmbH (www.incors.com).</desc>
    <defs>
        <linearGradient x1="160" y1="64" x2="480.0005" y2="317.793" gradientUnits="userSpaceOnUse" id="color-1">
            <stop offset="0" stop-color="#129eee"/>
            <stop offset="1" stop-color="#0f82c5"/>
        </linearGradient>
        <linearGradient x1="160" y1="208" x2="291.765" y2="320" gradientUnits="userSpaceOnUse" id="color-2">
            <stop offset="0" stop-color="#108bd1"/>
            <stop offset="1" stop-color="#0e7ab8"/>
        </linearGradient>
        <linearGradient x1="32" y1="192" x2="287.5733" y2="448.0005" gradientUnits="userSpaceOnUse" id="color-3">
            <stop offset="0" stop-color="#4db6f2"/>
            <stop offset="1" stop-color="#19a1ee"/>
        </linearGradient>
    </defs>
    <g fill="none" fill-rule="evenodd" stroke="#252525" stroke-width="10" stroke-linecap="butt" stroke-linejoin="round" stroke-miterlimit="10" stroke-dasharray="" stroke-dashoffset="0" font-family="none" font-weight="none" text-anchor="none" style="mix-blend-mode: normal">
        <path d="M176,64l288,0c9,0 16,7 16,16l0,224c0,9 -7,16 -16,16l-288,0c-9,0 -16,-7 -16,-16l0,-224c0,-9 7,-16 16,-16z" id="curve2" fill="url(#color-1)"/>
        <path d="M368,320l-192,0c-9,0 -16,-7 -16,-16l0,-96l192,0c9,0 16,7 16,16z" id="curve1" fill="url(#color-2)" stroke="none"/>
        <path d="M48,192l288,0c9,0 16,7 16,16l0,224c0,9 -7,16 -16,16l-288,0c-9,0 -16,-7 -16,-16l0,-224c0,-9 7,-16 16,-16z" id="curve0" fill="url(#color-3)"/>
    </g>
</svg>
