<svg version="1.1"
    xmlns="http://www.w3.org/2000/svg"
    xmlns:xlink="http://www.w3.org/1999/xlink" width="512" height="512" viewBox="0 0 512 512">
    <title>elements tree icon</title>
    <desc>elements tree icon from the IconExperience.com G-Collection. Copyright by INCORS GmbH (www.incors.com).</desc>
    <defs>
        <linearGradient x1="144" y1="112" x2="336.001" y2="346.6675" gradientUnits="userSpaceOnUse" id="color-1">
            <stop offset="0" stop-color="#4d5c69"/>
            <stop offset="1" stop-color="#414e58"/>
        </linearGradient>
        <linearGradient x1="64" y1="0" x2="223.7325" y2="160.00009" gradientUnits="userSpaceOnUse" id="color-2">
            <stop offset="0" stop-color="#4cb5f2"/>
            <stop offset="1" stop-color="#18a0ee"/>
        </linearGradient>
        <linearGradient x1="288" y1="160" x2="447.733" y2="320" gradientUnits="userSpaceOnUse" id="color-3">
            <stop offset="0" stop-color="#4cb5f2"/>
            <stop offset="1" stop-color="#18a0ee"/>
        </linearGradient>
        <linearGradient x1="288" y1="352" x2="447.7325" y2="512" gradientUnits="userSpaceOnUse" id="color-4">
            <stop offset="0" stop-color="#4cb5f2"/>
            <stop offset="1" stop-color="#18a0ee"/>
        </linearGradient>
    </defs>
    <g fill="none" fill-rule="none" stroke="none" stroke-width="1" stroke-linecap="butt" stroke-linejoin="miter" stroke-miterlimit="10" stroke-dasharray="" stroke-dashoffset="0" font-family="none" font-weight="none" text-anchor="none" style="mix-blend-mode: normal">
        <path d="M176,112l0,112l160,0l0,32l-160,0l0,160l144,0l0,32l-160,0c-9,0 -16,-7 -16,-16l0,-320z" id="curve3" fill="url(#color-1)" fill-rule="nonzero"/>
        <path d="M80,0l160,0c9,0 16,7 16,16l0,128c0,9 -7,16 -16,16l-160,0c-9,0 -16,-7 -16,-16l0,-128c0,-9 7,-16 16,-16z" id="curve2" fill="url(#color-2)" fill-rule="evenodd"/>
        <path d="M304,160l160,0c9,0 16,7 16,16l0,128c0,9 -7,16 -16,16l-160,0c-9,0 -16,-7 -16,-16l0,-128c0,-9 7,-16 16,-16z" id="curve1" fill="url(#color-3)" fill-rule="evenodd"/>
        <path d="M304,352l160,0c9,0 16,7 16,16l0,128c0,9 -7,16 -16,16l-160,0c-9,0 -16,-7 -16,-16l0,-128c0,-9 7,-16 16,-16z" id="curve0" fill="url(#color-4)" fill-rule="evenodd"/>
    </g>
</svg>