<svg version="1.1"
    xmlns="http://www.w3.org/2000/svg"
    xmlns:xlink="http://www.w3.org/1999/xlink" width="512" height="512" viewBox="0 0 512 512">
    <title>eyeglasses icon</title>
    <desc>eyeglasses icon from the IconExperience.com G-Collection. Copyright by INCORS GmbH (www.incors.com).</desc>
    <defs>
        <linearGradient x1="0" y1="96" x2="59.7331" y2="237.9325" gradientUnits="userSpaceOnUse" id="color-1">
            <stop offset="0" stop-color="#129eee"/>
            <stop offset="1" stop-color="#0f81c2"/>
        </linearGradient>
        <linearGradient x1="322.97198" y1="96" x2="374.43148" y2="234.744" gradientUnits="userSpaceOnUse" id="color-2">
            <stop offset="0" stop-color="#129eee"/>
            <stop offset="1" stop-color="#0f81c2"/>
        </linearGradient>
        <linearGradient x1="0" y1="208" x2="2.29606" y2="400.0005" gradientUnits="userSpaceOnUse" id="color-3">
            <stop offset="0" stop-color="#3daff1"/>
            <stop offset="1" stop-color="#16a0ee"/>
        </linearGradient>
        <linearGradient x1="16" y1="224" x2="16" y2="384.001" gradientUnits="userSpaceOnUse" id="color-4">
            <stop offset="0" stop-color="#ffffff"/>
            <stop offset="0.45098" stop-color="#e7f5fe"/>
            <stop offset="1" stop-color="#cfebfc"/>
        </linearGradient>
        <linearGradient x1="496" y1="224" x2="495.9995" y2="384.0005" gradientUnits="userSpaceOnUse" id="color-5">
            <stop offset="0" stop-color="#ffffff"/>
            <stop offset="0.45098" stop-color="#e7f5fe"/>
            <stop offset="1" stop-color="#cfebfc"/>
        </linearGradient>
        <linearGradient x1="16" y1="276.5" x2="16" y2="244.34984" gradientUnits="userSpaceOnUse" id="color-6">
            <stop offset="0" stop-color="#c5e7fb"/>
            <stop offset="0.45098" stop-color="#a7dbf9"/>
            <stop offset="1" stop-color="#89cff7"/>
        </linearGradient>
        <linearGradient x1="288" y1="276.5" x2="288" y2="244.34984" gradientUnits="userSpaceOnUse" id="color-7">
            <stop offset="0" stop-color="#c5e7fb"/>
            <stop offset="0.45098" stop-color="#a7dbf9"/>
            <stop offset="1" stop-color="#89cff7"/>
        </linearGradient>
    </defs>
    <g fill="none" fill-rule="evenodd" stroke="none" stroke-width="1" stroke-linecap="butt" stroke-linejoin="miter" stroke-miterlimit="10" stroke-dasharray="" stroke-dashoffset="0" font-family="none" font-weight="none" text-anchor="none" style="mix-blend-mode: normal">
        <path d="M96,96c7.5,0 18.5,7 24.5,11l57,36c14,9 16.5,22 0.5,29c-11.5,5.5 -20,7 -30,-2l-39,-34c-9.5,-8 -16.5,-4 -22.5,6.5c-5.5,10.5 -19.5,47.5 -22.5,69.5l-32,76l-23,-11.5c-5.5,-3 -9,-8 -9,-14.5l0,-22c16,-64 64,-144 96,-144z" id="curve6" fill="url(#color-1)"/>
        <path d="M416,96c-7,0 -18.5,7 -24.5,11l-57,36c-14,9 -16.5,22 -0.5,29c11.5,5.5 20,7 30,-2l39,-34c9.5,-8 16.5,-4 22.5,6.5c5.5,10.5 19.5,47.5 22.5,69.5l32,76l23,-11.5c6,-3 9,-8 9,-14.5l0,-22c-16,-64 -64,-144 -96,-144z" id="curve5" fill="url(#color-2)"/>
        <path d="M238.5,240l35,0c4.5,0 8.5,-2 12,-5c10.5,-11.5 26,-18.5 44,-23c11,-2.5 23,-4 34.5,-4l99,0c26.5,0 49,21 49,48c0,16.5 -1.5,33 -3.5,49c-2,15.5 -4.5,33 -10,47.5c-11,28 -38.5,47.5 -68.5,47.5l-66,0c-25,0 -46.5,-14 -61,-33c-23.5,-30 -21,-63 -47,-63c-26,0 -23.5,33 -47,63c-14.5,19 -36,33 -61,33l-66,0c-30,0 -57.5,-19.5 -68.5,-47.5c-5.5,-14.5 -8,-32 -10,-47.5c-2,-16 -3.5,-32.5 -3.5,-49c0,-27 22.5,-48 49,-48l99,0c11.5,0 23.5,1.5 34.5,4c18,4.5 33.5,11.5 44,23c3.5,3 7.5,5 12,5z" id="curve4" fill="url(#color-3)"/>
        <path d="M179,228c-10,-2.5 -20.5,-4 -31,-4l-99,0c-18,0 -33,14.5 -33,32c0,15.5 1.5,32 3.5,47c2,13.5 4.5,31.5 9,44c8.5,21 30,37 53.5,37l66,0c19.5,0 36.5,-11.5 48.5,-27c14.5,-18.5 27.5,-62 27.5,-84.5c0,-21.5 -10.5,-36.5 -45,-44.5z" id="curve3" fill="url(#color-4)"/>
        <path d="M333,228c10,-2.5 20.5,-4 31,-4l99,0c18,0 33,14.5 33,32c0,15.5 -1.5,32 -3.5,47c-2,13.5 -4.5,31.5 -9,44c-8.5,21 -30,37 -53.5,37l-66,0c-19.5,0 -36.5,-11.5 -48.5,-27c-14.5,-18.5 -27.5,-62 -27.5,-84.5c0,-21.5 10.5,-36.5 45,-44.5z" id="curve2" fill="url(#color-5)"/>
        <path d="M179,228c-10,-2.5 -20.5,-4 -31,-4l-99,0c-18,0 -33,14.5 -33,32c0,2 0,4 0,6c1,-17 15.5,-30 33,-30l99,0c10.5,0 21,1.5 31,4c32,7.5 43.5,21 45,40.5c0,-1.5 0,-3 0,-4c0,-21.5 -10.5,-36.5 -45,-44.5z" id="curve1" fill="url(#color-6)"/>
        <path d="M333,228c10,-2.5 20.5,-4 31,-4l99,0c18,0 33,14.5 33,32c0,2 0,4 0,6c-1,-17 -15.5,-30 -33,-30l-99,0c-10.5,0 -21,1.5 -31,4c-32,7.5 -43.5,21 -45,40.5c0,-1.5 0,-3 0,-4c0,-21.5 10.5,-36.5 45,-44.5z" id="curve0" fill="url(#color-7)"/>
    </g>
</svg>