<svg version="1.1"
    xmlns="http://www.w3.org/2000/svg"
    xmlns:xlink="http://www.w3.org/1999/xlink" width="512" height="512" viewBox="0 0 512 512">
    <title>bomb icon</title>
    <desc>bomb icon from the IconExperience.com G-Collection. Copyright by INCORS GmbH (www.incors.com).</desc>
    <defs>
        <radialGradient cx="125.64081" cy="280.53134" r="319.39869" fx="125.64081" fy="280.53134" gradientUnits="userSpaceOnUse" id="color-1">
            <stop offset="0" stop-color="#91a0af"/>
            <stop offset="0.41961" stop-color="#717f8f"/>
            <stop offset="1" stop-color="#36414a"/>
        </radialGradient>
        <linearGradient x1="379" y1="19.5" x2="496.945" y2="74.67705" gradientUnits="userSpaceOnUse" id="color-2">
            <stop offset="0" stop-color="#e42415"/>
            <stop offset="1" stop-color="#ba1e12"/>
        </linearGradient>
    </defs>
    <g fill="none" fill-rule="none" stroke="none" stroke-width="1" stroke-linecap="butt" stroke-linejoin="miter" stroke-miterlimit="10" stroke-dasharray="" stroke-dashoffset="0" font-family="none" font-weight="none" text-anchor="none" style="mix-blend-mode: normal">
        <path d="M347.5,187.5c-6.5,6 -16.5,6 -23,0c-6,-6.5 -6,-16.5 0,-23l16,-16c5,-4.5 7,-11.5 9,-18c7,-23 14.5,-46.5 80.5,-59.5c8.5,-2 17,4 18.5,12.5c2,8.5 -4,17 -12.5,18.5c-47.5,9.5 -51.5,24 -56,38c-3,10.5 -6.5,21 -16.5,31.5z" id="curve4" fill="#b3c0cd" fill-rule="nonzero"/>
        <path d="M361.5,236.5c35.5,71 23.5,160 -36,219.5c-74.5,74.5 -195,74.5 -269.5,0c-74.5,-74.5 -74.5,-195 0,-269.5c57,-57 141.5,-70.5 211.5,-40l33.5,-33.5l92,92z" id="curve3" fill="url(#color-1)" fill-rule="evenodd"/>
        <path d="M404,29.5c24.5,15.5 35.5,13.5 52.5,-10c3,28.5 12,36 40.5,35c-20,20.5 -20.5,32 -2,53.5c-28.5,-3.5 -37.5,3.5 -43,31.5c-15,-24 -26,-27 -51.5,-13.5c9.5,-27 5,-37.5 -21.5,-49c27.5,-9.5 32.5,-19.5 25,-47.5z" id="curve2" fill="url(#color-2)" fill-rule="evenodd"/>
        <path d="M419.5,104c10.5,-1.5 19,0.5 27.5,7c5,-9 12.5,-14 22.5,-16.5c-3.5,-10 -3.5,-19 1,-28.5c-10,-3 -17,-9 -21.5,-18c-8.5,5.5 -17.5,7.5 -27.5,5c-1,10.5 -5,18.5 -13,25c7.5,7 11,15.5 11,26z" id="curve1" fill="#ff7901" fill-rule="evenodd"/>
        <path d="M452.5,85.5c0,-4 0,-8 0.5,-11.5c-3,-2.5 -6,-5 -9,-8c-3.5,1.5 -7.5,2 -11.5,2.5c-1,3.5 -3,7 -5,10c2,3.5 3.5,7 4.5,11c4,0.5 7.5,1.5 11,3c3,-3 6,-5 9.5,-7z" id="curve0" fill="#ffc001" fill-rule="evenodd"/>
    </g>
</svg>