<svg version="1.1"
    xmlns="http://www.w3.org/2000/svg"
    xmlns:xlink="http://www.w3.org/1999/xlink" width="512" height="512" viewBox="0 0 512 512">
    <title>crash test dummy icon</title>
    <desc>crash test dummy icon from the IconExperience.com G-Collection. Copyright by INCORS GmbH (www.incors.com).</desc>
    <defs>
        <linearGradient x1="192" y1="259.5" x2="296.0605" y2="262.887" gradientUnits="userSpaceOnUse" id="color-1">
            <stop offset="0" stop-color="#717f8f"/>
            <stop offset="1" stop-color="#51616f"/>
        </linearGradient>
        <linearGradient x1="192" y1="259.5" x2="320.0005" y2="259.5" gradientUnits="userSpaceOnUse" id="color-2">
            <stop offset="0" stop-color="#6c7989"/>
            <stop offset="1" stop-color="#414c57"/>
        </linearGradient>
        <radialGradient cx="211.21096" cy="131.45013" r="237.67002" fx="211.21096" fy="131.45013" gradientUnits="userSpaceOnUse" id="color-3">
            <stop offset="0" stop-color="#ffd24b"/>
            <stop offset="1" stop-color="#ffc001"/>
        </radialGradient>
        <linearGradient x1="448" y1="512" x2="113.012" y2="349.9085" gradientUnits="userSpaceOnUse" id="color-4">
            <stop offset="0" stop-color="#e5a701"/>
            <stop offset="0.32941" stop-color="#ffc001"/>
            <stop offset="1" stop-color="#ffd24b"/>
        </linearGradient>
        <linearGradient x1="224" y1="64" x2="275.199" y2="127.999" gradientUnits="userSpaceOnUse" id="color-5">
            <stop offset="0" stop-color="#4e5d6a"/>
            <stop offset="1" stop-color="#38434d"/>
        </linearGradient>
        <linearGradient x1="304" y1="416" x2="355.199" y2="479.9995" gradientUnits="userSpaceOnUse" id="color-6">
            <stop offset="0" stop-color="#4e5d6a"/>
            <stop offset="1" stop-color="#38434d"/>
        </linearGradient>
    </defs>
    <g fill="none" fill-rule="evenodd" stroke="none" stroke-width="1" stroke-linecap="butt" stroke-linejoin="miter" stroke-miterlimit="10" stroke-dasharray="" stroke-dashoffset="0" font-family="none" font-weight="none" text-anchor="none" style="mix-blend-mode: normal">
        <path d="M304,259.5l-96,0c-9,0 -16,7 -16,16l0,0c0,5 2.5,9.5 6.5,12.5c1,1 1.5,2 1.5,3.5c0,1 -0.5,2.5 -1.5,3c-4,3 -6.5,7.5 -6.5,13l0,0c0,5 2.5,9.5 6.5,12.5c1,1 1.5,2 1.5,3.5c0,1 -0.5,2.5 -1.5,3c-4,3 -6.5,7.5 -6.5,13l0,0c0,8.5 7,16 16,16l96,0c9,0 16,-7.5 16,-16l0,0c0,-5.5 -2.5,-10 -6.5,-13c-1,-0.5 -1.5,-2 -1.5,-3c0,-1.5 0.5,-2.5 1.5,-3.5c4,-3 6.5,-7.5 6.5,-12.5l0,0c0,-5.5 -2.5,-10 -6.5,-13c-1,-0.5 -1.5,-2 -1.5,-3c0,-1.5 0.5,-2.5 1.5,-3.5c4,-3 6.5,-7.5 6.5,-12.5l0,0c0,-9 -7,-16 -16,-16z" id="curve7" fill="url(#color-1)"/>
        <path d="M304,259.5l-96,0c-9,0 -16,7 -16,16l0,0c0,5 2.5,9.5 6.5,12.5c1,1 1.5,2 1.5,3.5c0,1 -0.5,2.5 -1.5,3c-1.5,1 -2.5,2 -3.5,3c18,13.5 38.5,22.5 61,22.5c22.5,0 43,-9 61,-22.5c-1,-1 -2,-2 -3.5,-3c-1,-0.5 -1.5,-2 -1.5,-3c0,-1.5 0.5,-2.5 1.5,-3.5c4,-3 6.5,-7.5 6.5,-12.5l0,0c0,-9 -7,-16 -16,-16z" id="curve6" fill="url(#color-2)"/>
        <path d="M256,16c88.5,0 118,64 118,128c0,80 -59,160 -118,160c-59,0 -118,-80 -118,-160c0,-64 29.5,-128 118,-128z" id="curve5" fill="url(#color-3)"/>
        <path d="M256,512c-80,0 -192,-16 -192,-64c0,-86 59.5,-96 103,-120c5.5,-3 11,-2.5 16,1c13,8.5 40.5,18 73,18l0,0c32.5,0 60,-9.5 73,-18c5,-3.5 10.5,-4 16,-1c43.5,24 103,34 103,120c0,48 -112,64 -192,64z" id="curve4" fill="url(#color-4)"/>
        <path d="M288,96c0,17.5 -14.5,32 -32,32l0,-32z M224,96c0,-17.5 14.5,-32 32,-32l0,32z" id="curve3" fill="url(#color-5)"/>
        <path d="M256,64c17.5,0 32,14.5 32,32l-32,0l0,32c-17.5,0 -32,-14.5 -32,-32l32,0z" id="curve2" fill="#ffffff"/>
        <path d="M368,448c0,17.5 -14.5,32 -32,32l0,-32z M304,448c0,-17.5 14.5,-32 32,-32l0,32z" id="curve1" fill="url(#color-6)"/>
        <path d="M336,416c17.5,0 32,14.5 32,32l-32,0l0,32c-17.5,0 -32,-14.5 -32,-32l32,0z" id="curve0" fill="#ffffff"/>
    </g>
</svg>