<?xml version="1.0" encoding="UTF-8"?>
<!DOCTYPE svg PUBLIC "-//W3C//DTD SVG 1.1//EN" "http://www.w3.org/Graphics/SVG/1.1/DTD/svg11.dtd">
<svg xmlns="http://www.w3.org/2000/svg" xml:space="preserve" width="1024px" height="1024px" shape-rendering="geometricPrecision" text-rendering="geometricPrecision" image-rendering="optimizeQuality" fill-rule="nonzero" clip-rule="evenodd" viewBox="0 0 10240 10240" xmlns:xlink="http://www.w3.org/1999/xlink">
	<title>cloud_network icon</title>
	<desc>cloud_network icon from the IconExperience.com O-Collection. Copyright by INCORS GmbH (www.incors.com).</desc>
	<path id="curve1" fill="#235DB8" d="M5440 8640c176,0 320,144 320,320l1280 0 0 640 -1280 0c0,176 -144,320 -320,320l-640 0c-176,0 -320,-144 -320,-320l-1280 0 0 -640 1280 0c0,-176 144,-320 320,-320l0 -640 640 0 0 640z"/>
	<path id="curve0" fill="#252525" d="M1920 3679c0,-1325 1075,-2399 2400,-2399 777,0 1492,375 1937,982 100,-15 201,-22 303,-22 1149,0 2080,931 2080,2080 0,11 0,21 0,32 572,292 960,888 960,1568 0,972 -788,1760 -1760,1760 -1707,0 -3413,0 -5120,0 -1149,0 -2080,-931 -2080,-2080 0,-861 525,-1606 1280,-1921zm5997 1124c54,-151 83,-314 83,-483 0,-795 -645,-1440 -1440,-1440 -218,0 -425,49 -610,135 -262,-642 -893,-1095 -1630,-1095 -972,0 -1760,788 -1760,1760 0,168 23,330 67,483 -752,48 -1347,673 -1347,1437 0,795 645,1440 1440,1440 1701,0 3439,0 5120,0 619,0 1120,-501 1120,-1120 0,-593 -460,-1078 -1043,-1117z"/>
</svg>
