<svg version="1.1"
    xmlns="http://www.w3.org/2000/svg"
    xmlns:xlink="http://www.w3.org/1999/xlink" width="512" height="512" viewBox="0 0 512 512">
    <title>workstation icon</title>
    <desc>workstation icon from the IconExperience.com G-Collection. Copyright by INCORS GmbH (www.incors.com).</desc>
    <defs>
        <linearGradient x1="336" y1="64" x2="494.476" y2="480" gradientUnits="userSpaceOnUse" id="color-1">
            <stop offset="0" stop-color="#687685"/>
            <stop offset="1" stop-color="#444f5a"/>
        </linearGradient>
        <linearGradient x1="352" y1="128" x2="466.185" y2="448.0005" gradientUnits="userSpaceOnUse" id="color-2">
            <stop offset="0" stop-color="#aebbc8"/>
            <stop offset="1" stop-color="#99a7b6"/>
        </linearGradient>
        <linearGradient x1="352" y1="160" x2="416.0005" y2="337.8615" gradientUnits="userSpaceOnUse" id="color-3">
            <stop offset="0" stop-color="#9daab8"/>
            <stop offset="1" stop-color="#8a98a7"/>
        </linearGradient>
        <linearGradient x1="136" y1="420" x2="136" y2="464.0005" gradientUnits="userSpaceOnUse" id="color-4">
            <stop offset="0" stop-color="#3c4851"/>
            <stop offset="1" stop-color="#62707e"/>
        </linearGradient>
        <linearGradient x1="16" y1="144" x2="367.9987" y2="432.0005" gradientUnits="userSpaceOnUse" id="color-5">
            <stop offset="0" stop-color="#8897a6"/>
            <stop offset="1" stop-color="#576775"/>
        </linearGradient>
        <linearGradient x1="32" y1="416" x2="32" y2="159.999" gradientUnits="userSpaceOnUse" id="color-6">
            <stop offset="0" stop-color="#4eb6f2"/>
            <stop offset="1" stop-color="#129eee"/>
        </linearGradient>
        <linearGradient x1="32" y1="176" x2="160.9243" y2="160.0005" gradientUnits="userSpaceOnUse" id="color-7">
            <stop offset="0" stop-color="#1194e0"/>
            <stop offset="1" stop-color="#108ed7"/>
        </linearGradient>
    </defs>
    <g fill="none" fill-rule="evenodd" stroke="none" stroke-width="1" stroke-linecap="butt" stroke-linejoin="miter" stroke-miterlimit="10" stroke-dasharray="" stroke-dashoffset="0" font-family="none" font-weight="none" text-anchor="none" style="mix-blend-mode: normal">
        <path d="M352,64l128,0c9,0 16,7 16,16l0,400l-160,0l0,-400c0,-9 7,-16 16,-16z" id="curve8" fill="url(#color-1)"/>
        <path d="M352,128l128,0l0,320l-128,0z" id="curve7" fill="url(#color-2)"/>
        <path d="M400,448l-48,0l0,-288l48,0c9,0 16,7 16,16l0,256c0,9 -7,16 -16,16z" id="curve6" fill="url(#color-3)"/>
        <path d="M464,80c9,0 16,7 16,16c0,9 -7,16 -16,16c-9,0 -16,-7 -16,-16c0,-9 7,-16 16,-16z" id="curve5" fill="#77da26"/>
        <path d="M160,420l96,0l0,20c0,12 12,24 24,24l24,0l0,16l-192,0l0,-16l24,0c12,0 24,-12 24,-24z" id="curve4" fill="#717f8f"/>
        <path d="M256,420l0,20c0,12 12,24 24,24l-144,0c12,0 24,-12 24,-24l0,-20z" id="curve3" fill="url(#color-4)"/>
        <path d="M32,144l352,0c9,0 16,7 16,16l0,256c0,9 -7,16 -16,16l-352,0c-9,0 -16,-7 -16,-16l0,-256c0,-9 7,-16 16,-16z" id="curve2" fill="url(#color-5)"/>
        <path d="M32,160l352,0l0,256l-352,0z" id="curve1" fill="url(#color-6)"/>
        <path d="M384,176l-352,0l0,-16l352,0z" id="curve0" fill="url(#color-7)"/>
    </g>
</svg>