<svg version="1.1"
    xmlns="http://www.w3.org/2000/svg"
    xmlns:xlink="http://www.w3.org/1999/xlink" width="512" height="512" viewBox="0 0 512 512">
    <title>hard drive network icon</title>
    <desc>hard drive network icon from the IconExperience.com G-Collection. Copyright by INCORS GmbH (www.incors.com).</desc>
    <defs>
        <linearGradient x1="192" y1="448" x2="192.5905" y2="485.0905" gradientUnits="userSpaceOnUse" id="color-1">
            <stop offset="0" stop-color="#ffd041"/>
            <stop offset="1" stop-color="#ffc001"/>
        </linearGradient>
        <linearGradient x1="80" y1="0" x2="289.992" y2="426.0928" gradientUnits="userSpaceOnUse" id="color-2">
            <stop offset="0" stop-color="#717f8f"/>
            <stop offset="1" stop-color="#526270"/>
        </linearGradient>
        <linearGradient x1="256" y1="256" x2="386.259" y2="399.7165" gradientUnits="userSpaceOnUse" id="color-3">
            <stop offset="0" stop-color="#91a0af"/>
            <stop offset="1" stop-color="#738191"/>
        </linearGradient>
        <linearGradient x1="96" y1="16" x2="304" y2="320.00015" gradientUnits="userSpaceOnUse" id="color-4">
            <stop offset="0" stop-color="#89cff7"/>
            <stop offset="0.43137" stop-color="#4eb6f2"/>
            <stop offset="1" stop-color="#129eee"/>
        </linearGradient>
        <linearGradient x1="198.81085" y1="263.19587" x2="252.65585" y2="334.44937" gradientUnits="userSpaceOnUse" id="color-5">
            <stop offset="0" stop-color="#359dd9"/>
            <stop offset="1" stop-color="#238bc7"/>
        </linearGradient>
        <linearGradient x1="208" y1="128" x2="254.223" y2="224.0015" gradientUnits="userSpaceOnUse" id="color-6">
            <stop offset="0" stop-color="#677685"/>
            <stop offset="1" stop-color="#606f7e"/>
        </linearGradient>
        <linearGradient x1="198.81085" y1="247.19587" x2="280.31685" y2="368.16137" gradientUnits="userSpaceOnUse" id="color-7">
            <stop offset="0" stop-color="#eef8fe"/>
            <stop offset="1" stop-color="#d6eefc"/>
        </linearGradient>
        <linearGradient x1="336" y1="304" x2="359.111" y2="352" gradientUnits="userSpaceOnUse" id="color-8">
            <stop offset="0" stop-color="#677685"/>
            <stop offset="1" stop-color="#606f7e"/>
        </linearGradient>
    </defs>
    <g fill="none" fill-rule="none" stroke="none" stroke-width="1" stroke-linecap="butt" stroke-linejoin="miter" stroke-miterlimit="10" stroke-dasharray="" stroke-dashoffset="0" font-family="none" font-weight="none" text-anchor="none" style="mix-blend-mode: normal">
        <path d="M144,464l96,0l0,-80l32,0l0,80l96,0l0,32l-224,0z" id="curve9" fill="#717f8f" fill-rule="evenodd"/>
        <path d="M208,448l96,0c9,0 16,7 16,16l0,32c0,9 -7,16 -16,16l-96,0c-9,0 -16,-7 -16,-16l0,-32c0,-9 7,-16 16,-16z" id="curve8" fill="url(#color-1)" fill-rule="evenodd"/>
        <path d="M432,16l0,400c0,9 -7,16 -16,16l-320,0c-9,0 -16,-7 -16,-16l0,-400c0,-9 7,-16 16,-16l320,0c9,0 16,7 16,16z" id="curve7" fill="url(#color-2)" fill-rule="nonzero"/>
        <path d="M413,256l19,0l0,160c0,9 -7,16 -16,16l-160,0l0,-80l0,0c12.5,0 25,-1.5 36.5,-4l34.5,25c2.5,2 5,3.5 8,5c27.5,14 61.5,2.5 75,-25c12,-23.5 5.5,-52.5 -15,-69c6.5,-8.5 12.5,-18 18,-28z" id="curve6" fill="url(#color-3)" fill-rule="evenodd"/>
        <path d="M256,16c88.5,0 160,71.5 160,160c0,88.5 -71.5,160 -160,160c-88.5,0 -160,-71.5 -160,-160c0,-88.5 71.5,-160 160,-160z" id="curve5" fill="url(#color-4)" fill-rule="evenodd"/>
        <path d="M355,301.5c-21.5,17 -47.5,28.5 -75.5,33l-77.5,-57c-3,-2.5 -4,-6.5 -2.5,-10c1.5,-3.5 5.5,-5 9,-4z" id="curve4" fill="url(#color-5)" fill-rule="evenodd"/>
        <path d="M256,128c26.5,0 48,21.5 48,48c0,26.5 -21.5,48 -48,48c-26.5,0 -48,-21.5 -48,-48c0,-26.5 21.5,-48 48,-48z" id="curve3" fill="url(#color-6)" fill-rule="nonzero"/>
        <path d="M328,354l-126,-92.5c-3,-2.5 -4,-6.5 -2.5,-10c1.5,-3.5 5.5,-5 9,-4l158.5,41c1.5,0.5 2.5,0.5 4,1l0,0l0.5,0l0,0l0.5,0.5l0,0l0.5,0l0.5,0l0,0l0,0l0.5,0.5l0,0l0,0l0,0l0.5,0l0,0l0.5,0l0,0.5l0.5,0l0.5,0c0,0 0.5,0.5 1,0.5l0,0c0.5,0 0.5,0.5 0.5,0.5c20,9.5 28.5,33 19,53c-8.5,18.5 -29.5,27 -48.5,21c-8,-2.5 -13,-7.5 -19.5,-12z" id="curve2" fill="url(#color-7)" fill-rule="evenodd"/>
        <path d="M360,352c-13.5,0 -24,-11 -24,-24c0,-13.5 10.5,-24 24,-24c13,0 24,10.5 24,24c0,13 -11,24 -24,24z" id="curve1" fill="url(#color-8)" fill-rule="nonzero"/>
        <path d="M112,16.5c9,0 16,7.5 16,16c0,9 -7,16 -16,16c-9,0 -16,-7 -16,-16c0,-8.5 7,-16 16,-16z M400,16c9,0 16,7 16,16c0,9 -7,16 -16,16c-9,0 -16,-7 -16,-16c0,-9 7,-16 16,-16z M400,384c9,0 16,7 16,16c0,9 -7,16 -16,16c-9,0 -16,-7 -16,-16c0,-9 7,-16 16,-16z M112,384.5c9,0 16,7.5 16,16c0,9 -7,16 -16,16c-9,0 -16,-7 -16,-16c0,-8.5 7,-16 16,-16z" id="curve0" fill="#ffffff" fill-rule="nonzero"/>
    </g>
</svg>