<svg version="1.1"
    xmlns="http://www.w3.org/2000/svg"
    xmlns:xlink="http://www.w3.org/1999/xlink" width="512" height="512" viewBox="0 0 512 512">
    <title>document text icon</title>
    <desc>document text icon from the IconExperience.com G-Collection. Copyright by INCORS GmbH (www.incors.com).</desc>
    <defs>
        <linearGradient x1="64" y1="0" x2="359.822" y2="512.00059" gradientUnits="userSpaceOnUse" id="color-1">
            <stop offset="0" stop-color="#f3fafe"/>
            <stop offset="1" stop-color="#cae9fb"/>
        </linearGradient>
        <linearGradient x1="310.5" y1="9.5" x2="396.703" y2="127.03825" gradientUnits="userSpaceOnUse" id="color-2">
            <stop offset="0" stop-color="#c5e7fb"/>
            <stop offset="1" stop-color="#94d3f8"/>
        </linearGradient>
    </defs>
    <g fill="none" fill-rule="evenodd" stroke="#252525" stroke-width="10" stroke-linecap="butt" stroke-linejoin="round" stroke-miterlimit="10" stroke-dasharray="" stroke-dashoffset="0" font-family="none" font-weight="none" text-anchor="none" style="mix-blend-mode: normal">
        <path d="M288,0l-216,0c-4.5,0 -8,3.5 -8,8l0,496c0,4.5 3.5,8 8,8l368,0c4.5,0 8,-3.5 8,-8l0,-344c0,-9 -3.5,-17 -9.5,-22.5l-128,-128c-5.5,-6 -13.5,-9.5 -22.5,-9.5z" id="curve2" fill="url(#color-1)"/>
        <path d="M438.5,137.5c-5.5,-6 -13.5,-9.5 -22.5,-9.5l-88,0c-4.5,0 -8,-3.5 -8,-8l0,-88c0,-8.5 -3.5,-16.5 -9.5,-22.5z" id="curve0" fill="url(#color-2)"/>
    </g>
    <g fill="none" fill-rule="evenodd" stroke="none" stroke-width="1" stroke-linecap="butt" stroke-linejoin="miter" stroke-miterlimit="10" stroke-dasharray="" stroke-dashoffset="0" font-family="none" font-weight="none" text-anchor="none" style="mix-blend-mode: normal">
        <path d="M112,48l128,0l0,16l-128,0z M112,144l128,0l0,16l-128,0z M112,352l288,0l0,16l-288,0z M112,208l288,0l0,16l-288,0z M112,96l128,0l0,16l-128,0z M112,256l288,0l0,16l-288,0z M112,304l288,0l0,16l-288,0z M112,432l112,0l0,16l-112,0z" id="curve1" fill="#717f8f"/>
    </g>


<g transform="translate(256,256) scale(0.5,0.5)">
    <title>lock icon</title>
    <desc>lock icon from the IconExperience.com G-Collection. Copyright by INCORS GmbH (www.incors.com).</desc>
    <defs>
        <linearGradient x1="96" y1="0" x2="416" y2="257.21109" gradientUnits="userSpaceOnUse" id="badge-color-1">
            <stop offset="0" stop-color="#909fae"/>
            <stop offset="1" stop-color="#717f8f"/>
        </linearGradient>
        <linearGradient x1="64" y1="240" x2="384.0005" y2="480.0005" gradientUnits="userSpaceOnUse" id="badge-color-2">
            <stop offset="0" stop-color="#ffd041"/>
            <stop offset="1" stop-color="#ffc001"/>
        </linearGradient>
        <linearGradient x1="64" y1="480" x2="255.997" y2="511.9995" gradientUnits="userSpaceOnUse" id="badge-color-3">
            <stop offset="0" stop-color="#febf01"/>
            <stop offset="1" stop-color="#f1b301"/>
        </linearGradient>
        <linearGradient x1="64" y1="240" x2="431.163" y2="260.3975" gradientUnits="userSpaceOnUse" id="badge-color-4">
            <stop offset="0" stop-color="#ffe081"/>
            <stop offset="1" stop-color="#ffd556"/>
        </linearGradient>
    </defs>
    <g fill="none" fill-rule="evenodd" stroke="none" stroke-width="1" stroke-linecap="butt" stroke-linejoin="miter" stroke-miterlimit="10" stroke-dasharray="" stroke-dashoffset="0" font-family="none" font-weight="none" text-anchor="none" style="mix-blend-mode: normal">
        <path d="M160,274l-64,0l0,-114c0,-88.5 71.5,-160 160,-160c88.5,0 160,71.5 160,160l0,114l-64,0l0,-114c0,-53 -43,-96 -96,-96c-53,0 -96,43 -96,96z" id="curve4" fill="url(#badge-color-1)"/>
        <path d="M80,240l352,0c9,0 16,7 16,16l0,240c0,9 -7,16 -16,16l-352,0c-9,0 -16,-7 -16,-16l0,-240c0,-9 7,-16 16,-16z" id="curve3" fill="url(#badge-color-2)"/>
        <path d="M448,480l0,16c0,9 -7,16 -16,16l-352,0c-9,0 -16,-7 -16,-16l0,-16c0,9 7,16 16,16l352,0c9,0 16,-7 16,-16z" id="curve2" fill="url(#badge-color-3)"/>
        <path d="M80,240l352,0c9,0 16,7 16,16l0,16c0,-9 -7,-16 -16,-16l-352,0c-9,0 -16,7 -16,16l0,-16c0,-9 7,-16 16,-16z" id="curve1" fill="url(#badge-color-4)"/>
        <path d="M256,304c22,0 40,22 40,40c0,15.5 -5.5,24 -14,30.5c-2.5,2 -3.5,5.5 -3,8.5l15,55c1,4 2,8 2,12.5l0,13.5l-80,0l0,-13.5c0,-4.5 1,-8.5 2,-12.5l15,-55c0.5,-3 -0.5,-6.5 -3,-8.5c-8.5,-6.5 -14,-15 -14,-30.5c0,-18 18,-40 40,-40z" id="curve0" fill="#51616f"/>
    </g>
</g>

</svg>
