<svg version="1.1"
    xmlns="http://www.w3.org/2000/svg"
    xmlns:xlink="http://www.w3.org/1999/xlink" width="512" height="512" viewBox="0 0 512 512">
    <title>document text icon</title>
    <desc>document text icon from the IconExperience.com G-Collection. Copyright by INCORS GmbH (www.incors.com).</desc>
    <defs>
        <linearGradient x1="64" y1="0" x2="359.822" y2="512.00059" gradientUnits="userSpaceOnUse" id="color-1">
            <stop offset="0" stop-color="#f3fafe"/>
            <stop offset="1" stop-color="#cae9fb"/>
        </linearGradient>
        <linearGradient x1="310.5" y1="9.5" x2="396.703" y2="127.03825" gradientUnits="userSpaceOnUse" id="color-2">
            <stop offset="0" stop-color="#c5e7fb"/>
            <stop offset="1" stop-color="#94d3f8"/>
        </linearGradient>
    </defs>
    <g fill="none" fill-rule="evenodd" stroke="#252525" stroke-width="10" stroke-linecap="butt" stroke-linejoin="round" stroke-miterlimit="10" stroke-dasharray="" stroke-dashoffset="0" font-family="none" font-weight="none" text-anchor="none" style="mix-blend-mode: normal">
        <path d="M288,0l-216,0c-4.5,0 -8,3.5 -8,8l0,496c0,4.5 3.5,8 8,8l368,0c4.5,0 8,-3.5 8,-8l0,-344c0,-9 -3.5,-17 -9.5,-22.5l-128,-128c-5.5,-6 -13.5,-9.5 -22.5,-9.5z" id="curve2" fill="url(#color-1)"/>
        <path d="M438.5,137.5c-5.5,-6 -13.5,-9.5 -22.5,-9.5l-88,0c-4.5,0 -8,-3.5 -8,-8l0,-88c0,-8.5 -3.5,-16.5 -9.5,-22.5z" id="curve0" fill="url(#color-2)"/>
    </g>
    <g fill="none" fill-rule="evenodd" stroke="none" stroke-width="1" stroke-linecap="butt" stroke-linejoin="miter" stroke-miterlimit="10" stroke-dasharray="" stroke-dashoffset="0" font-family="none" font-weight="none" text-anchor="none" style="mix-blend-mode: normal">
        <path d="M112,48l128,0l0,16l-128,0z M112,144l128,0l0,16l-128,0z M112,352l288,0l0,16l-288,0z M112,208l288,0l0,16l-288,0z M112,96l128,0l0,16l-128,0z M112,256l288,0l0,16l-288,0z M112,304l288,0l0,16l-288,0z M112,432l112,0l0,16l-112,0z" id="curve1" fill="#717f8f"/>
    </g>

<g transform="translate(0,0) scale(0.5,0.5)">
    <circle fill="red" cx="256" cy="256" r="224" stroke="#252525" stroke-width="10"/>
</g>



<g transform="translate(256,256) scale(0.5,0.5)">
    <title>projector icon</title>
    <desc>projector icon from the IconExperience.com G-Collection. Copyright by INCORS GmbH (www.incors.com).</desc>
    <defs>
        <linearGradient x1="32" y1="432" x2="32" y2="480.0005" gradientUnits="userSpaceOnUse" id="projector-color-1">
            <stop offset="0" stop-color="#36414a"/>
            <stop offset="1" stop-color="#51616f"/>
        </linearGradient>
        <linearGradient x1="0" y1="192" x2="236.77825" y2="412.6075" gradientUnits="userSpaceOnUse" id="projector-color-2">
            <stop offset="0" stop-color="#91a0af"/>
            <stop offset="1" stop-color="#7a8898"/>
        </linearGradient>
        <linearGradient x1="32" y1="160" x2="232.6415" y2="417.968" gradientUnits="userSpaceOnUse" id="projector-color-3">
            <stop offset="0" stop-color="#51616f"/>
            <stop offset="1" stop-color="#3f4c56"/>
        </linearGradient>
        <linearGradient x1="256" y1="192" x2="255.997" y2="364.7995" gradientUnits="userSpaceOnUse" id="projector-color-4">
            <stop offset="0" stop-color="#0e76b2"/>
            <stop offset="1" stop-color="#129eee"/>
        </linearGradient>
        <radialGradient cx="159.97091" cy="228.76186" r="147.70768" fx="159.97091" fy="228.76186" gradientUnits="userSpaceOnUse" id="projector-color-5">
            <stop offset="0" stop-color="#89cff7"/>
            <stop offset="1" stop-color="#129eee"/>
        </radialGradient>
    </defs>
    <g fill="none" fill-rule="evenodd" stroke="none" stroke-width="1" stroke-linecap="butt" stroke-linejoin="miter" stroke-miterlimit="10" stroke-dasharray="" stroke-dashoffset="0" font-family="none" font-weight="none" text-anchor="none" style="mix-blend-mode: normal">
        <path d="M464,480l-32,0c-9,0 -16,-7 -16,-16l0,-32l64,0l0,32c0,9 -7,16 -16,16z M32,432l64,0l0,32c0,9 -7,16 -16,16l-32,0c-9,0 -16,-7 -16,-16z" id="curve5" fill="url(#projector-color-1)"/>
        <path d="M32,192l448,0c17.5,0 32,14.5 32,32l0,192c0,17.5 -14.5,32 -32,32l-448,0c-17.5,0 -32,-14.5 -32,-32l0,-192c0,-17.5 14.5,-32 32,-32z" id="curve4" fill="url(#projector-color-2)"/>
        <path d="M160,160c70.5,0 128,57.5 128,128c0,70.5 -57.5,128 -128,128c-70.5,0 -128,-57.5 -128,-128c0,-70.5 57.5,-128 128,-128z" id="curve3" fill="url(#projector-color-3)"/>
        <path d="M160,192c53,0 96,43 96,96c0,53 -43,96 -96,96c-53,0 -96,-43 -96,-96c0,-53 43,-96 96,-96z" id="curve2" fill="url(#projector-color-4)"/>
        <path d="M480,224l-128,0l0,16l128,0z M480,256l-128,0l0,16l128,0z M480,288l-128,0l0,16l128,0z" id="curve1" fill="#51616f"/>
        <path d="M160,208c44,0 80,36 80,80c0,44 -36,80 -80,80c-44,0 -80,-36 -80,-80c0,-44 36,-80 80,-80z" id="curve0" fill="url(#projector-color-5)"/>
    </g>
</g>

</svg>
