<svg version="1.1"
    xmlns="http://www.w3.org/2000/svg"
    xmlns:xlink="http://www.w3.org/1999/xlink" width="512" height="512" viewBox="0 0 512 512">
    <title>cd drive icon</title>
    <desc>cd drive icon from the IconExperience.com G-Collection. Copyright by INCORS GmbH (www.incors.com).</desc>
    <defs>
        <linearGradient x1="64" y1="0" x2="293.6275" y2="474.5639" gradientUnits="userSpaceOnUse" id="color-1">
            <stop offset="0" stop-color="#717f8f"/>
            <stop offset="1" stop-color="#526270"/>
        </linearGradient>
        <linearGradient x1="192" y1="192" x2="469.8955" y2="512.0005" gradientUnits="userSpaceOnUse" id="color-2">
            <stop offset="0" stop-color="#d7dfe7"/>
            <stop offset="1" stop-color="#9fadba"/>
        </linearGradient>
        <linearGradient x1="208" y1="208" x2="433.729" y2="495.9995" gradientUnits="userSpaceOnUse" id="color-3">
            <stop offset="0" stop-color="#fefefe"/>
            <stop offset="1" stop-color="#e0e6ed"/>
        </linearGradient>
        <linearGradient x1="304" y1="304" x2="379.243" y2="399.998" gradientUnits="userSpaceOnUse" id="color-4">
            <stop offset="0" stop-color="#f3f6f8"/>
            <stop offset="1" stop-color="#e8edf2"/>
        </linearGradient>
        <linearGradient x1="320" y1="320" x2="371.8085" y2="384.0005" gradientUnits="userSpaceOnUse" id="color-5">
            <stop offset="0" stop-color="#afbcc9"/>
            <stop offset="1" stop-color="#97a5b4"/>
        </linearGradient>
    </defs>
    <g fill="none" fill-rule="nonzero" stroke="none" stroke-width="1" stroke-linecap="butt" stroke-linejoin="miter" stroke-miterlimit="10" stroke-dasharray="" stroke-dashoffset="0" font-family="none" font-weight="none" text-anchor="none" style="mix-blend-mode: normal">
        <path d="M448,16l0,448c0,9 -7,16 -16,16l-352,0c-9,0 -16,-7 -16,-16l0,-448c0,-9 7,-16 16,-16l352,0c9,0 16,7 16,16z" id="curve10" fill="url(#color-1)"/>
        <path d="M96,432c9,0 16,7 16,16c0,9 -7,16 -16,16c-9,0 -16,-7 -16,-16c0,-9 7,-16 16,-16z M96,16c9,0 16,7 16,16c0,9 -7,16 -16,16c-9,0 -16,-7 -16,-16c0,-9 7,-16 16,-16z M416,16c9,0 16,7 16,16c0,9 -7,16 -16,16c-9,0 -16,-7 -16,-16c0,-9 7,-16 16,-16z" id="curve9" fill="#ffffff"/>
        <path d="M352,192c88.5,0 160,71.5 160,160c0,88.5 -71.5,160 -160,160c-88.5,0 -160,-71.5 -160,-160c0,-88.5 71.5,-160 160,-160z M352,320c-17.5,0 -32,14.5 -32,32c0,17.5 14.5,32 32,32c17.5,0 32,-14.5 32,-32c0,-17.5 -14.5,-32 -32,-32z" id="curve8" fill="url(#color-2)"/>
        <path d="M352,208c79.5,0 144,64.5 144,144c0,79.5 -64.5,144 -144,144c-79.5,0 -144,-64.5 -144,-144c0,-79.5 64.5,-144 144,-144z M352,224c-70.5,0 -128,57.5 -128,128c0,70.5 57.5,128 128,128c70.5,0 128,-57.5 128,-128c0,-70.5 -57.5,-128 -128,-128z" id="curve7" fill="url(#color-3)"/>
        <path d="M233,399.5l89.5,-35.5c3,8 9.5,14.5 17.5,17.5l-35.5,89.5l0,0c-32.5,-13 -58.5,-39 -71.5,-71.5z M471,304.5l-89.5,35.5c-3,-8 -9.5,-14.5 -17.5,-17.5l35.5,-89.5l0,0c32.5,13 58.5,39 71.5,71.5z" id="curve6" fill="#c5e7fb"/>
        <path d="M340,381.5l-35.5,89.5l0,0c-15.5,-6.5 -29.5,-15.5 -41.5,-27l67,-69c2.5,3 6,5 10,6.5z M364,322.5l35.5,-89.5l0,0c16.5,7 31.5,17 44,29.5l-68.5,67c-3.5,-3 -7,-5.5 -11,-7z" id="curve5" fill="#fac8c6"/>
        <path d="M241,416l79,-45.5c2,3.5 5,7 8.5,10l-59,69.5c-11,-9.5 -21,-21 -28.5,-34z M384,333.5c-2,-3.5 -5,-7 -8.5,-10l59,-69.5c11,9.5 21,21 28.5,34z" id="curve4" fill="#ddfec2"/>
        <path d="M380.5,328.5c-3,-3.5 -6.5,-6.5 -10,-8.5l45.5,-79c13,7.5 24.5,17.5 34,28.5z M323.5,375.5c3,3.5 6.5,6.5 10,8.5l-45.5,79c-13,-7.5 -24.5,-17.5 -34,-28.5z" id="curve3" fill="#fff0c1"/>
        <path d="M254,434.5l69.5,-59c1.5,2 3,3.5 5,5l-59,69.5c-5.5,-4.5 -11,-10 -15.5,-15.5z M380.5,328.5c-1.5,-2 -3,-3.5 -5,-5l59,-69.5c5.5,4.5 11,10 15.5,15.5z" id="curve2" fill="#ffffff"/>
        <path d="M352,304c26.5,0 48,21.5 48,48c0,26.5 -21.5,48 -48,48c-26.5,0 -48,-21.5 -48,-48c0,-26.5 21.5,-48 48,-48z M352,328c-13.5,0 -24,10.5 -24,24c0,13.5 10.5,24 24,24c13.5,0 24,-10.5 24,-24c0,-13.5 -10.5,-24 -24,-24z" id="curve1" fill="url(#color-4)"/>
        <path d="M352,320c17.5,0 32,14.5 32,32c0,17.5 -14.5,32 -32,32c-17.5,0 -32,-14.5 -32,-32c0,-17.5 14.5,-32 32,-32z M352,336c-9,0 -16,7 -16,16c0,9 7,16 16,16c9,0 16,-7 16,-16c0,-9 -7,-16 -16,-16z" id="curve0" fill="url(#color-5)"/>
    </g>
</svg>