<svg version="1.1"
    xmlns="http://www.w3.org/2000/svg"
    xmlns:xlink="http://www.w3.org/1999/xlink" width="512" height="512" viewBox="0 0 512 512">
    <title>floppy drive icon</title>
    <desc>floppy drive icon from the IconExperience.com G-Collection. Copyright by INCORS GmbH (www.incors.com).</desc>
    <defs>
        <linearGradient x1="64" y1="0" x2="293.6275" y2="474.5639" gradientUnits="userSpaceOnUse" id="color-1">
            <stop offset="0" stop-color="#717f8f"/>
            <stop offset="1" stop-color="#5a6a78"/>
        </linearGradient>
        <linearGradient x1="192" y1="224" x2="457.8245" y2="501.905" gradientUnits="userSpaceOnUse" id="color-2">
            <stop offset="0" stop-color="#51616f"/>
            <stop offset="1" stop-color="#444850"/>
        </linearGradient>
        <linearGradient x1="240" y1="224" x2="299.786" y2="384.0005" gradientUnits="userSpaceOnUse" id="color-3">
            <stop offset="0" stop-color="#eaf6fe"/>
            <stop offset="1" stop-color="#cae9fb"/>
        </linearGradient>
        <linearGradient x1="432" y1="384" x2="431.2885" y2="382.5435" gradientUnits="userSpaceOnUse" id="color-4">
            <stop offset="0" stop-color="#ff7901"/>
            <stop offset="1" stop-color="#f87501"/>
        </linearGradient>
        <linearGradient x1="256" y1="416" x2="352.0545" y2="512.053" gradientUnits="userSpaceOnUse" id="color-5">
            <stop offset="0" stop-color="#ffffff"/>
            <stop offset="1" stop-color="#e2e8ee"/>
        </linearGradient>
    </defs>
    <g fill="none" fill-rule="nonzero" stroke="none" stroke-width="1" stroke-linecap="butt" stroke-linejoin="miter" stroke-miterlimit="10" stroke-dasharray="" stroke-dashoffset="0" font-family="none" font-weight="none" text-anchor="none" style="mix-blend-mode: normal">
        <path d="M448,16l0,448c0,9 -7,16 -16,16l-352,0c-9,0 -16,-7 -16,-16l0,-448c0,-9 7,-16 16,-16l352,0c9,0 16,7 16,16z" id="curve5" fill="url(#color-1)"/>
        <path d="M96,432c9,0 16,7 16,16c0,9 -7,16 -16,16c-9,0 -16,-7 -16,-16c0,-9 7,-16 16,-16z M416,16c9,0 16,7 16,16c0,9 -7,16 -16,16c-9,0 -16,-7 -16,-16c0,-9 7,-16 16,-16z M96,16c9,0 16,7 16,16c0,9 -7,16 -16,16c-9,0 -16,-7 -16,-16c0,-9 7,-16 16,-16z" id="curve4" fill="#ffffff"/>
        <path d="M480,234.5l0,267c0,6 -4.5,10.5 -10.5,10.5l-257,0l-20.5,-20.5l0,-257c0,-6 4.5,-10.5 10.5,-10.5l267,0c6,0 10.5,4.5 10.5,10.5z" id="curve3" fill="url(#color-2)"/>
        <path d="M240,224l192,0l0,149.5c0,5.5 -4.5,10.5 -9.5,10.5l-173,0c-5,0 -9.5,-5 -9.5,-10.5z" id="curve2" fill="url(#color-3)"/>
        <path d="M432,352l0,24c0,4.5 -4.5,8 -9.5,8l-173,0c-5,0 -9.5,-3.5 -9.5,-8l0,-24z" id="curve1" fill="url(#color-4)"/>
        <path d="M416,425.5l0,86.5l-160,0l0,-86.5c0,-5 4.5,-9.5 10,-9.5l140,0c5.5,0 10,4.5 10,9.5z M281,432l0,64l39,0l0,-64z" id="curve0" fill="url(#color-5)"/>
    </g>
</svg>
