<svg version="1.1"
    xmlns="http://www.w3.org/2000/svg"
    xmlns:xlink="http://www.w3.org/1999/xlink" width="512" height="512" viewBox="0 0 512 512">
    <title>document text icon</title>
    <desc>document text icon from the IconExperience.com G-Collection. Copyright by INCORS GmbH (www.incors.com).</desc>
    <defs>
        <linearGradient x1="64" y1="0" x2="359.822" y2="512.00059" gradientUnits="userSpaceOnUse" id="color-1">
            <stop offset="0" stop-color="#f3fafe"/>
            <stop offset="1" stop-color="#cae9fb"/>
        </linearGradient>
        <linearGradient x1="310.5" y1="9.5" x2="396.703" y2="127.03825" gradientUnits="userSpaceOnUse" id="color-2">
            <stop offset="0" stop-color="#c5e7fb"/>
            <stop offset="1" stop-color="#94d3f8"/>
        </linearGradient>
    </defs>
    <g fill="none" fill-rule="evenodd" stroke="#252525" stroke-width="10" stroke-linecap="butt" stroke-linejoin="round" stroke-miterlimit="10" stroke-dasharray="" stroke-dashoffset="0" font-family="none" font-weight="none" text-anchor="none" style="mix-blend-mode: normal">
        <path d="M288,0l-216,0c-4.5,0 -8,3.5 -8,8l0,496c0,4.5 3.5,8 8,8l368,0c4.5,0 8,-3.5 8,-8l0,-344c0,-9 -3.5,-17 -9.5,-22.5l-128,-128c-5.5,-6 -13.5,-9.5 -22.5,-9.5z" id="curve2" fill="url(#color-1)"/>
        <path d="M438.5,137.5c-5.5,-6 -13.5,-9.5 -22.5,-9.5l-88,0c-4.5,0 -8,-3.5 -8,-8l0,-88c0,-8.5 -3.5,-16.5 -9.5,-22.5z" id="curve0" fill="url(#color-2)"/>
    </g>
    <g fill="none" fill-rule="evenodd" stroke="none" stroke-width="1" stroke-linecap="butt" stroke-linejoin="miter" stroke-miterlimit="10" stroke-dasharray="" stroke-dashoffset="0" font-family="none" font-weight="none" text-anchor="none" style="mix-blend-mode: normal">
        <path d="M112,48l128,0l0,16l-128,0z M112,144l128,0l0,16l-128,0z M112,352l288,0l0,16l-288,0z M112,208l288,0l0,16l-288,0z M112,96l128,0l0,16l-128,0z M112,256l288,0l0,16l-288,0z M112,304l288,0l0,16l-288,0z M112,432l112,0l0,16l-112,0z" id="curve1" fill="#717f8f"/>
    </g>


<g transform="translate(256,256) scale(0.5,0.5)">
    <title>clipboard empty icon</title>
    <desc>clipboard empty icon from the IconExperience.com G-Collection. Copyright by INCORS GmbH (www.incors.com).</desc>
    <defs>
        <linearGradient x1="64" y1="64" x2="397.1275" y2="512" gradientUnits="userSpaceOnUse" id="clip-color-1">
            <stop offset="0" stop-color="#d99b57"/>
            <stop offset="0.5098" stop-color="#d08730"/>
            <stop offset="1" stop-color="#d08730"/>
        </linearGradient>
        <linearGradient x1="128" y1="80" x2="376.7015" y2="140.031" gradientUnits="userSpaceOnUse" id="clip-color-2">
            <stop offset="0" stop-color="#d08730"/>
            <stop offset="1" stop-color="#b37129"/>
        </linearGradient>
        <linearGradient x1="128" y1="0" x2="128" y2="128.00009" gradientUnits="userSpaceOnUse" id="clip-color-3">
            <stop offset="0" stop-color="#b3c0cd"/>
            <stop offset="0.36863" stop-color="#b3c0cd"/>
            <stop offset="0.58039" stop-color="#91a0af"/>
            <stop offset="1" stop-color="#717f8f"/>
        </linearGradient>
    </defs>
    <g fill="none" fill-rule="evenodd" stroke="none" stroke-width="1" stroke-linecap="butt" stroke-linejoin="miter" stroke-miterlimit="10" stroke-dasharray="" stroke-dashoffset="0" font-family="none" font-weight="none" text-anchor="none" style="mix-blend-mode: normal">
        <path d="M80,64l352,0c9,0 16,7 16,16l0,416c0,9 -7,16 -16,16l-352,0c-9,0 -16,-7 -16,-16l0,-416c0,-9 7,-16 16,-16z" id="curve2" fill="url(#clip-color-1)"/>
        <path d="M128,144l0,-64l256,0l0,64z" id="curve1" fill="url(#clip-color-2)"/>
        <path d="M256,0c28.5,0 54,12.5 71.5,32l40.5,0c9,0 16,7 16,16l0,80l-256,0l0,-80c0,-9 7,-16 16,-16l40.5,0c17.5,-19.5 43,-32 71.5,-32z M256,16c9,0 16,7 16,16c0,9 -7,16 -16,16c-9,0 -16,-7 -16,-16c0,-9 7,-16 16,-16z" id="curve0" fill="url(#clip-color-3)"/>
    </g>
</g>

</svg>
