<svg version="1.1"
    xmlns="http://www.w3.org/2000/svg"
    xmlns:xlink="http://www.w3.org/1999/xlink" width="512" height="512" viewBox="0 0 512 512">
    <title>document text icon</title>
    <desc>document text icon from the IconExperience.com G-Collection. Copyright by INCORS GmbH (www.incors.com).</desc>
    <defs>
        <linearGradient x1="64" y1="0" x2="359.822" y2="512.00059" gradientUnits="userSpaceOnUse" id="color-1">
            <stop offset="0" stop-color="#f3fafe"/>
            <stop offset="1" stop-color="#cae9fb"/>
        </linearGradient>
        <linearGradient x1="310.5" y1="9.5" x2="396.703" y2="127.03825" gradientUnits="userSpaceOnUse" id="color-2">
            <stop offset="0" stop-color="#c5e7fb"/>
            <stop offset="1" stop-color="#94d3f8"/>
        </linearGradient>
    </defs>
    <g fill="none" fill-rule="evenodd" stroke="#252525" stroke-width="10" stroke-linecap="butt" stroke-linejoin="round" stroke-miterlimit="10" stroke-dasharray="" stroke-dashoffset="0" font-family="none" font-weight="none" text-anchor="none" style="mix-blend-mode: normal">
        <path d="M288,0l-216,0c-4.5,0 -8,3.5 -8,8l0,496c0,4.5 3.5,8 8,8l368,0c4.5,0 8,-3.5 8,-8l0,-344c0,-9 -3.5,-17 -9.5,-22.5l-128,-128c-5.5,-6 -13.5,-9.5 -22.5,-9.5z" id="curve2" fill="url(#color-1)"/>
        <path d="M438.5,137.5c-5.5,-6 -13.5,-9.5 -22.5,-9.5l-88,0c-4.5,0 -8,-3.5 -8,-8l0,-88c0,-8.5 -3.5,-16.5 -9.5,-22.5z" id="curve0" fill="url(#color-2)"/>
    </g>
    <g fill="none" fill-rule="evenodd" stroke="none" stroke-width="1" stroke-linecap="butt" stroke-linejoin="miter" stroke-miterlimit="10" stroke-dasharray="" stroke-dashoffset="0" font-family="none" font-weight="none" text-anchor="none" style="mix-blend-mode: normal">
        <path d="M112,48l128,0l0,16l-128,0z M112,144l128,0l0,16l-128,0z M112,352l288,0l0,16l-288,0z M112,208l288,0l0,16l-288,0z M112,96l128,0l0,16l-128,0z M112,256l288,0l0,16l-288,0z M112,304l288,0l0,16l-288,0z M112,432l112,0l0,16l-112,0z" id="curve1" fill="#717f8f"/>
    </g>


<g transform="translate(256,256) scale(0.5,0.5)">
    <title>question icon</title>
    <desc>question icon from the IconExperience.com G-Collection. Copyright by INCORS GmbH (www.incors.com).</desc>
    <defs>
        <linearGradient x1="16" y1="16" x2="388.8732" y2="485.5433" gradientUnits="userSpaceOnUse" id="question-color-1">
            <stop offset="0" stop-color="#8d9bab"/>
            <stop offset="1" stop-color="#717f8f"/>
        </linearGradient>
        <radialGradient cx="256.01543" cy="319.79265" r="235.45638" fx="256.01543" fy="319.79265" gradientUnits="userSpaceOnUse" id="question-color-2">
            <stop offset="0" stop-color="#ffffff"/>
            <stop offset="0.34118" stop-color="#ffffff"/>
            <stop offset="1" stop-color="#d8e0e8"/>
        </radialGradient>
    </defs>
    <g fill="none" fill-rule="evenodd" stroke="none" stroke-width="1" stroke-linecap="butt" stroke-linejoin="miter" stroke-miterlimit="10" stroke-dasharray="" stroke-dashoffset="0" font-family="none" font-weight="none" text-anchor="none" style="mix-blend-mode: normal">
        <path d="M256,16c132.5,0 240,107.5 240,240c0,132.5 -107.5,240 -240,240c-132.5,0 -240,-107.5 -240,-240c0,-132.5 107.5,-240 240,-240z" id="curve1" fill="url(#question-color-1)"/>
        <path d="M224,311c0,-19.5 2,-35.5 6.5,-46.5c4.5,-11.5 12,-21.5 22,-30c10,-8.5 17.5,-16 22.5,-23c5.5,-7 8,-15 8,-23.5c0,-20.5 -8.5,-30.5 -26.5,-30.5c-8,0 -14.5,3 -19.5,9c-5,6 -8,14 -8,24l-69,0c0.5,-27 9,-48 26,-63.5c16.5,-15 40,-22.5 70.5,-22.5c30.5,0 54,7 70.5,21c16.5,14 25,34 25,59.5c0,11.5 -2.5,21.5 -7,31c-4.5,9 -11.5,18.5 -21.5,28l-23.5,22c-6.5,6.5 -11,13 -13.5,19.5c-3,7 -4,15.5 -4.5,25.5z M215.5,373c0,-10 3.5,-18 11,-24.5c7,-6.5 16,-10 27,-10c11,0 20,3.5 27,10c7.5,6.5 11,14.5 11,24.5c0,10 -3.5,18.5 -11,25c-7,6.5 -16,9.5 -27,9.5c-11,0 -20,-3 -27,-9.5c-7.5,-6.5 -11,-15 -11,-25z" id="curve0" fill="url(#question-color-2)"/>
    </g>
</g>

</svg>
