<svg version="1.1"
    xmlns="http://www.w3.org/2000/svg"
    xmlns:xlink="http://www.w3.org/1999/xlink" width="512" height="512" viewBox="0 0 512 512">
    <title>folder icon</title>
    <desc>folder icon from the IconExperience.com G-Collection. Copyright by INCORS GmbH (www.incors.com).</desc>
    <defs>
        <linearGradient x1="16" y1="64" x2="16" y2="480" gradientUnits="userSpaceOnUse" id="color-1">
            <stop offset="0" stop-color="#f0ca62"/>
            <stop offset="0.47843" stop-color="#deaf3d"/>
            <stop offset="1" stop-color="#cc9418"/>
        </linearGradient>
        <linearGradient x1="16" y1="480" x2="16" y2="143.9995" gradientUnits="userSpaceOnUse" id="color-2">
            <stop offset="0" stop-color="#ffd34d"/>
            <stop offset="0.58823" stop-color="#fff863"/>
            <stop offset="1" stop-color="#fffe79"/>
        </linearGradient>
    </defs>
    <g fill="none" fill-rule="evenodd" stroke="#252525" stroke-width="10" stroke-linecap="butt" stroke-linejoin="round" stroke-miterlimit="10" stroke-dasharray="" stroke-dashoffset="0" font-family="none" font-weight="none" text-anchor="none" style="mix-blend-mode: normal">
        <path d="M186.5,78l14,20c6,9 15.5,14 26,14l261.5,0c4.5,0 8,3.5 8,8l0,352c0,4.5 -3.5,8 -8,8l-464,0c-4.5,0 -8,-3.5 -8,-8l0,-400c0,-4.5 3.5,-8 8,-8l136,0c11,0 20,5 26.5,14z" id="curve1" fill="url(#color-1)"/>
        <path d="M165.5,176l-141.5,0c-4.5,0 -8,3.5 -8,8l0,288c0,4.5 3.5,8 8,8l464,0c4.5,0 8,-3.5 8,-8l0,-320c0,-4.5 -3.5,-8 -8,-8l-265,0c-9.5,0 -17.5,3.5 -23.5,10.5l-10.5,11c-6,7 -14,10.5 -23.5,10.5z" id="curve0" fill="url(#color-2)"/>
    </g>


<g transform="translate(256,256) scale(0.5,0.5)">
    <title>checkbox icon</title>
    <desc>checkbox icon from the IconExperience.com G-Collection. Copyright by INCORS GmbH (www.incors.com).</desc>
    <defs>
        <linearGradient x1="32" y1="32" x2="441.67465" y2="472.02085" gradientUnits="userSpaceOnUse" id="checkbox-color-1">
            <stop offset="0" stop-color="#77da26"/>
            <stop offset="1" stop-color="#5aa51d"/>
        </linearGradient>
        <linearGradient x1="86.5" y1="116.5" x2="301.736" y2="340.014" gradientUnits="userSpaceOnUse" id="checkbox-color-2">
            <stop offset="0" stop-color="#ffffff"/>
            <stop offset="1" stop-color="#e5ebf0"/>
        </linearGradient>
    </defs>
    <g fill="none" fill-rule="evenodd" stroke="none" stroke-width="1" stroke-linecap="butt" stroke-linejoin="miter" stroke-miterlimit="10" stroke-dasharray="" stroke-dashoffset="0" font-family="none" font-weight="none" text-anchor="none" style="mix-blend-mode: normal">
        <path d="M48,32l416,0c9,0 16,7 16,16l0,416c0,9 -7,16 -16,16l-416,0c-9,0 -16,-7 -16,-16l0,-416c0,-9 7,-16 16,-16z" id="curve1" fill="url(#checkbox-color-1)"/>
        <path d="M378,116.5l54,54.5l-229,229l-116.5,-116l54.5,-54.5l62,62z" id="curve0" fill="url(#checkbox-color-2)"/>
    </g>
</g>

</svg>
