<svg version="1.1"
    xmlns="http://www.w3.org/2000/svg"
    xmlns:xlink="http://www.w3.org/1999/xlink" width="512" height="512" viewBox="0 0 512 512">
    <title>folder icon</title>
    <desc>folder icon from the IconExperience.com G-Collection. Copyright by INCORS GmbH (www.incors.com).</desc>
    <defs>
        <linearGradient x1="16" y1="64" x2="16" y2="480" gradientUnits="userSpaceOnUse" id="color-1">
            <stop offset="0" stop-color="#f0ca62"/>
            <stop offset="0.47843" stop-color="#deaf3d"/>
            <stop offset="1" stop-color="#cc9418"/>
        </linearGradient>
        <linearGradient x1="16" y1="480" x2="16" y2="143.9995" gradientUnits="userSpaceOnUse" id="color-2">
            <stop offset="0" stop-color="#ffd34d"/>
            <stop offset="0.58823" stop-color="#fff863"/>
            <stop offset="1" stop-color="#fffe79"/>
        </linearGradient>
    </defs>
    <g fill="none" fill-rule="evenodd" stroke="#252525" stroke-width="10" stroke-linecap="butt" stroke-linejoin="round" stroke-miterlimit="10" stroke-dasharray="" stroke-dashoffset="0" font-family="none" font-weight="none" text-anchor="none" style="mix-blend-mode: normal">
        <path d="M186.5,78l14,20c6,9 15.5,14 26,14l261.5,0c4.5,0 8,3.5 8,8l0,352c0,4.5 -3.5,8 -8,8l-464,0c-4.5,0 -8,-3.5 -8,-8l0,-400c0,-4.5 3.5,-8 8,-8l136,0c11,0 20,5 26.5,14z" id="curve1" fill="url(#color-1)"/>
        <path d="M165.5,176l-141.5,0c-4.5,0 -8,3.5 -8,8l0,288c0,4.5 3.5,8 8,8l464,0c4.5,0 8,-3.5 8,-8l0,-320c0,-4.5 -3.5,-8 -8,-8l-265,0c-9.5,0 -17.5,3.5 -23.5,10.5l-10.5,11c-6,7 -14,10.5 -23.5,10.5z" id="curve0" fill="url(#color-2)"/>
    </g>


<g transform="translate(256,256) scale(0.5,0.5)">
    <title>link icon</title>
    <desc>link icon from the IconExperience.com G-Collection. Copyright by INCORS GmbH (www.incors.com).</desc>
    <defs>
        <linearGradient x1="235.125" y1="16" x2="445.037" y2="238.50045" gradientUnits="userSpaceOnUse" id="badge-color-1">
            <stop offset="0" stop-color="#129eee"/>
            <stop offset="0.12941" stop-color="#129eee"/>
            <stop offset="0.32157" stop-color="#4eb6f2"/>
            <stop offset="1" stop-color="#129eee"/>
        </linearGradient>
        <linearGradient x1="16" y1="235.125" x2="225.9124" y2="457.625" gradientUnits="userSpaceOnUse" id="badge-color-2">
            <stop offset="0" stop-color="#129eee"/>
            <stop offset="0.12941" stop-color="#129eee"/>
            <stop offset="0.32157" stop-color="#4eb6f2"/>
            <stop offset="1" stop-color="#129eee"/>
        </linearGradient>
        <linearGradient x1="267" y1="201" x2="328.9265" y2="262.927" gradientUnits="userSpaceOnUse" id="badge-color-3">
            <stop offset="0" stop-color="#0e77b4"/>
            <stop offset="1" stop-color="#129eee"/>
        </linearGradient>
        <linearGradient x1="201" y1="267" x2="262.9265" y2="328.927" gradientUnits="userSpaceOnUse" id="badge-color-4">
            <stop offset="0" stop-color="#0e77b4"/>
            <stop offset="1" stop-color="#129eee"/>
        </linearGradient>
        <linearGradient x1="148.5" y1="148.5" x2="217.5215" y2="222.2105" gradientUnits="userSpaceOnUse" id="badge-color-5">
            <stop offset="0" stop-color="#129eee"/>
            <stop offset="0.15686" stop-color="#129eee"/>
            <stop offset="0.38824" stop-color="#4eb6f2"/>
            <stop offset="1" stop-color="#129eee"/>
        </linearGradient>
    </defs>
    <g fill="none" fill-rule="evenodd" stroke="none" stroke-width="1" stroke-linecap="butt" stroke-linejoin="miter" stroke-miterlimit="10" stroke-dasharray="" stroke-dashoffset="0" font-family="none" font-weight="none" text-anchor="none" style="mix-blend-mode: normal">
        <path d="M420.5,157.5c18,-18 18,-48 0,-66c-18,-18 -48,-18 -66,0l-43.5,44c-18,18 -18,47.5 0,65.5c18,18 47.5,18 65.5,0z M464.5,201l-44,44c-42.5,42.5 -111.5,42.5 -153.5,0l0,0c-42.5,-42 -42.5,-111 0,-153.5l44,-44c42,-42 111,-42 153.5,0l0,0c42,42.5 42,111.5 0,153.5z" id="curve4" fill="url(#badge-color-1)"/>
        <path d="M47.5,311l44,-44c42.5,-42.5 111.5,-42.5 153.5,0l0,0c42.5,42 42.5,111 0,153.5l-44,44c-42,42 -111,42 -153.5,0l0,0c-42,-42.5 -42,-111.5 0,-153.5z M91.5,354.5c-18,18 -18,48 0,66c18,18 48,18 66,0l43.5,-44c18,-18 18,-47.5 0,-65.5c-18,-18 -47.5,-18 -65.5,0z" id="curve3" fill="url(#badge-color-2)"/>
        <path d="M311,201l0,0c16.5,17 42.5,18 61,4.5c-2,2.5 -4,5 -6,7l-58,58c-15,-5 -29,-13.5 -41,-25.5l0,0z" id="curve2" fill="url(#badge-color-3)"/>
        <path d="M245,267l0,0c12,12 20.5,26 25.5,41l-58,58c-2,2 -4.5,4 -7,6c13.5,-18.5 12.5,-44.5 -4.5,-61z" id="curve1" fill="url(#badge-color-4)"/>
        <path d="M157.5,311l153.5,-153.5c12,-12 31.5,-12 43.5,0l0,0c12,12 12,31.5 0,43.5l-153.5,153.5c-12,12 -31.5,12 -43.5,0l0,0c-12,-12 -12,-31.5 0,-43.5z" id="curve0" fill="url(#badge-color-5)"/>
    </g>
</g>

</svg>
