<svg version="1.1"
    xmlns="http://www.w3.org/2000/svg"
    xmlns:xlink="http://www.w3.org/1999/xlink" width="512" height="512" viewBox="0 0 512 512">
    <title>folder icon</title>
    <desc>folder icon from the IconExperience.com G-Collection. Copyright by INCORS GmbH (www.incors.com).</desc>
    <defs>
        <linearGradient x1="16" y1="64" x2="16" y2="480" gradientUnits="userSpaceOnUse" id="color-1">
            <stop offset="0" stop-color="#f0ca62"/>
            <stop offset="0.47843" stop-color="#deaf3d"/>
            <stop offset="1" stop-color="#cc9418"/>
        </linearGradient>
        <linearGradient x1="16" y1="480" x2="16" y2="143.9995" gradientUnits="userSpaceOnUse" id="color-2">
            <stop offset="0" stop-color="#ffd34d"/>
            <stop offset="0.58823" stop-color="#fff863"/>
            <stop offset="1" stop-color="#fffe79"/>
        </linearGradient>
    </defs>
    <g fill="none" fill-rule="evenodd" stroke="#252525" stroke-width="10" stroke-linecap="butt" stroke-linejoin="round" stroke-miterlimit="10" stroke-dasharray="" stroke-dashoffset="0" font-family="none" font-weight="none" text-anchor="none" style="mix-blend-mode: normal">
        <path d="M186.5,78l14,20c6,9 15.5,14 26,14l261.5,0c4.5,0 8,3.5 8,8l0,352c0,4.5 -3.5,8 -8,8l-464,0c-4.5,0 -8,-3.5 -8,-8l0,-400c0,-4.5 3.5,-8 8,-8l136,0c11,0 20,5 26.5,14z" id="curve1" fill="url(#color-1)"/>
        <path d="M165.5,176l-141.5,0c-4.5,0 -8,3.5 -8,8l0,288c0,4.5 3.5,8 8,8l464,0c4.5,0 8,-3.5 8,-8l0,-320c0,-4.5 -3.5,-8 -8,-8l-265,0c-9.5,0 -17.5,3.5 -23.5,10.5l-10.5,11c-6,7 -14,10.5 -23.5,10.5z" id="curve0" fill="url(#color-2)"/>
    </g>


<g transform="translate(256,256) scale(0.5,0.5)">
    <title>earth icon</title>
    <desc>earth icon from the IconExperience.com G-Collection. Copyright by INCORS GmbH (www.incors.com).</desc>
    <defs>
        <radialGradient cx="174.52715" cy="207.86086" r="431.70758" fx="174.52715" fy="207.86086" gradientUnits="userSpaceOnUse" id="badge-1">
            <stop offset="0" stop-color="#98e957"/>
            <stop offset="0.41177" stop-color="#77da26"/>
            <stop offset="1" stop-color="#3b6d13"/>
        </radialGradient>
        <radialGradient cx="166.44422" cy="202.66315" r="358.93492" fx="166.44422" fy="202.66315" gradientUnits="userSpaceOnUse" id="badge-2">
            <stop offset="0" stop-color="#4eb6f2"/>
            <stop offset="0.2" stop-color="#43abe7"/>
            <stop offset="1" stop-color="#0e76b2"/>
        </radialGradient>
    </defs>
    <g fill="none" fill-rule="evenodd" stroke="none" stroke-width="1" stroke-linecap="butt" stroke-linejoin="miter" stroke-miterlimit="10" stroke-dasharray="" stroke-dashoffset="0" font-family="none" font-weight="none" text-anchor="none" style="mix-blend-mode: normal">
        <path d="M256,16c132.5,0 240,107.5 240,240c0,132.5 -107.5,240 -240,240c-132.5,0 -240,-107.5 -240,-240c0,-132.5 107.5,-240 240,-240z" id="curve1" fill="url(#badge-1)"/>
        <path d="M313,161.5c6.5,-2 15.5,-2.5 19,-1.5c17,6 16,23.5 33.5,26c2,0.5 11,-5 13,-4.5c10.5,2 20.5,11.5 30,7c5.5,-3 8,-13.5 3,-17c-4.5,-3.5 -12,-1 -17,-4.5c-8,-5.5 -14.5,2 -20.5,-5.5c-3,-3 -8,-13.5 -12,-19c-4,-6 -16.5,-3.5 -14.5,-1c6.5,8.5 15.5,10 17,14.5c1,5 -12,12 -8.5,2.5c2,-4.5 -7.5,-7.5 -18.5,-13.5c-6,-3 -11.5,-10.5 -20,-6.5c-4.5,2 -12.5,12 -15.5,17c-5.5,8 -18.5,6 -26.5,2c-8.5,-4 -8.5,-24.5 2,-33c10.5,-8.5 19,-3.5 29,-6c4,-1.5 6,-6 12.5,-10c7,-5 -4.5,-12.5 -0.5,-20.5c3,-6.5 13.5,-7.5 19.5,-10.5c5,-2.5 11,-7 17,-3.5c8,4.5 16.5,5 24.5,10c11,7 19.5,11 30.5,9.5c-37,-35 -86,-58 -140.5,-61c7.5,5.5 21,21 17.5,29c-4,8.5 -9,18.5 -25,24c-11.5,4.5 -27,4.5 -38.5,10c-12,5 -24,4.5 -31,6c-11,3 0.5,-35.5 -2.5,-40c-5,-6.5 -34,-1 -36.5,5.5c-6,15.5 8,28.5 7.5,31.5c-1.5,6 -1.5,29 -7,35c-8,9 -29.5,17.5 -32.5,18c-14,2 -17,16 -27.5,24.5c-4.5,3 -26.5,26.5 -30,33.5c-9.5,19.5 0,32 4,36c7.5,6.5 11,7.5 19,10c3.5,1 35,17 43.5,26c8.5,9 13,18 21.5,23.5c11,6.5 30,13.5 32.5,18.5c12,22.5 8,54 -25.5,76.5c-8.5,6 -26,15.5 -21.5,31.5c1.5,6.5 1.5,12 3.5,17c33.5,20 73,31.5 115,31.5c123.5,0 224,-100.5 224,-224c0,-10.5 -1,-21 -2,-31.5c-3.5,-4.5 -7,-8.5 -9.5,-7.5c-4,1 -4,13 -8.5,20c-3,5.5 -10.5,6 -12,8c-8,10.5 19,19.5 7.5,34.5c-5,6.5 -20.5,21 -24.5,40c-8.5,40.5 -3,16 -16,48.5c-1.5,4.5 -5,23 -8,27.5c-12.5,18.5 -47,40 -55.5,29c-5,-6 -8,-15.5 -9.5,-24.5c-2,-9 -11,-20.5 -10,-28c1,-11 2,-14.5 2.5,-27.5c0,-0.5 -8,-31.5 -9,-34c-6,-12 -15,-17.5 -28.5,-13c-10,3.5 -19,-1.5 -27,-5c-16,-6.5 -24,-28 -27,-45c0,-0.5 2.5,-27.5 2.5,-29c0.5,-7 3.5,-14 7.5,-19.5c29.5,-42 22.5,-24 60,-37.5z M127,439c-12.5,-14.5 -26.5,-32.5 -30.5,-42.5c-4.5,-11.5 -6,-32.5 -11.5,-39c-11.5,-13 -22,-23.5 -24,-37c-2,-12.5 -9,-30.5 -10.5,-40c-1.5,-14 -8,-28.5 -18,-39.5c-0.5,5 -0.5,10 -0.5,15c0,75.5 37.5,142.5 95,183z" id="curve0" fill="url(#badge-2)"/>
    </g>
</g>

</svg>
