<svg version="1.1"
    xmlns="http://www.w3.org/2000/svg"
    xmlns:xlink="http://www.w3.org/1999/xlink" width="512" height="512" viewBox="0 0 512 512">
    <title>tag icon</title>
    <desc>tag icon from the IconExperience.com G-Collection. Copyright by INCORS GmbH (www.incors.com).</desc>
    <defs>
        <linearGradient x1="0.125" y1="48" x2="107.19095" y2="416.781" gradientUnits="userSpaceOnUse" id="color-1">
            <stop offset="0" stop-color="#129eee"/>
            <stop offset="1" stop-color="#0e7ab8"/>
        </linearGradient>
        <linearGradient x1="352" y1="80" x2="388.511" y2="143.999" gradientUnits="userSpaceOnUse" id="color-2">
            <stop offset="0" stop-color="#c2e6fb"/>
            <stop offset="1" stop-color="#a2d9f9"/>
        </linearGradient>
        <linearGradient x1="39.5" y1="456.5" x2="80.6627" y2="113.4765" gradientUnits="userSpaceOnUse" id="color-3">
            <stop offset="0" stop-color="#ffffff"/>
            <stop offset="1" stop-color="#e4f4fd"/>
        </linearGradient>
        <linearGradient x1="371" y1="15.9111" x2="400.8515" y2="99.4964" gradientUnits="userSpaceOnUse" id="color-4">
            <stop offset="0" stop-color="#717f8f"/>
            <stop offset="1" stop-color="#61707f"/>
        </linearGradient>
    </defs>
    <g fill="none" fill-rule="none" stroke="none" stroke-width="1" stroke-linecap="butt" stroke-linejoin="miter" stroke-miterlimit="10" stroke-dasharray="" stroke-dashoffset="0" font-family="none" font-weight="none" text-anchor="none" style="mix-blend-mode: normal">
        <path d="M448,240l0,-160c0,-17.5 -14.5,-32 -32,-32l-160,0c-9,0 -16.5,3.5 -23,9.5l-228,230c-6.5,6 -6.5,16.5 0,22.5l182.5,181c6.5,6.5 16.5,6.5 22.5,0l228.5,-228c6,-6.5 9.5,-14 9.5,-23z M400.5,95.5c9.5,9 9.5,24.5 0,33.5c-9,9.5 -24.5,9.5 -33.5,0c-9.5,-9 -9.5,-24.5 0,-33.5c9,-9.5 24.5,-9.5 33.5,0z" id="curve3" fill="url(#color-1)" fill-rule="nonzero"/>
        <path d="M384,80c17.5,0 32,14.5 32,32c0,17.5 -14.5,32 -32,32c-17.5,0 -32,-14.5 -32,-32c0,-17.5 14.5,-32 32,-32z M384,96c9,0 16,7 16,16c0,9 -7,16 -16,16c-9,0 -16,-7 -16,-16c0,-9 7,-16 16,-16z" id="curve2" fill="url(#color-2)" fill-rule="evenodd"/>
        <path d="M413,241.5l-158.5,-158l-215,214.5l158.5,158.5z" id="curve1" fill="url(#color-3)" fill-rule="nonzero"/>
        <path d="M472,39c-7.5,-6 -18,-7.5 -27.5,-7c-13,1 -26,6.5 -36.5,14.5c-1,0.5 -1.5,1 -2,1.5l-23,0c4.5,-5 9.5,-10 15.5,-14.5c30,-22.5 69.5,-23.5 88,-2.5c18.5,21.5 9,56.5 -21,79.5c-30,22.5 -69.5,23.5 -88,2.5c-2.5,-3.5 -5,-7 -6.5,-10.5c3,-4 7.5,-6.5 13,-6.5c0.5,0 1,0 1.5,0c1.5,3.5 4,6.5 6.5,9c7.5,6 18,7.5 27.5,7c13,-1 26,-6.5 36.5,-14.5c13.5,-10 29,-31 22.5,-49c-1.5,-3.5 -3.5,-6.5 -6.5,-9.5z" id="curve0" fill="url(#color-4)" fill-rule="nonzero"/>
    </g>
</svg>