<svg version="1.1"
    xmlns="http://www.w3.org/2000/svg"
    xmlns:xlink="http://www.w3.org/1999/xlink" width="512" height="512" viewBox="0 0 512 512">
    <title>client network icon</title>
    <desc>client network icon from the IconExperience.com G-Collection. Copyright by INCORS GmbH (www.incors.com).</desc>
    <defs>
        <linearGradient x1="96" y1="199" x2="96" y2="240.1115" gradientUnits="userSpaceOnUse" id="color-1">
            <stop offset="0" stop-color="#3c4851"/>
            <stop offset="1" stop-color="#62707e"/>
        </linearGradient>
        <linearGradient x1="0" y1="0" x2="273.7775" y2="224.00059" gradientUnits="userSpaceOnUse" id="color-2">
            <stop offset="0" stop-color="#8797a5"/>
            <stop offset="1" stop-color="#566674"/>
        </linearGradient>
        <linearGradient x1="16" y1="208" x2="16" y2="31.99965" gradientUnits="userSpaceOnUse" id="color-3">
            <stop offset="0" stop-color="#4eb6f2"/>
            <stop offset="1" stop-color="#129eee"/>
        </linearGradient>
        <linearGradient x1="16" y1="32" x2="155.9976" y2="16.00015" gradientUnits="userSpaceOnUse" id="color-4">
            <stop offset="0" stop-color="#1198e5"/>
            <stop offset="1" stop-color="#108ed6"/>
        </linearGradient>
        <linearGradient x1="320" y1="455" x2="320" y2="496.1115" gradientUnits="userSpaceOnUse" id="color-5">
            <stop offset="0" stop-color="#3c4851"/>
            <stop offset="1" stop-color="#62707e"/>
        </linearGradient>
        <linearGradient x1="224" y1="256" x2="497.778" y2="480.0005" gradientUnits="userSpaceOnUse" id="color-6">
            <stop offset="0" stop-color="#8797a5"/>
            <stop offset="1" stop-color="#566674"/>
        </linearGradient>
        <linearGradient x1="240" y1="464" x2="240" y2="287.9995" gradientUnits="userSpaceOnUse" id="color-7">
            <stop offset="0" stop-color="#4eb6f2"/>
            <stop offset="1" stop-color="#129eee"/>
        </linearGradient>
        <linearGradient x1="240" y1="288" x2="379.9975" y2="272.0005" gradientUnits="userSpaceOnUse" id="color-8">
            <stop offset="0" stop-color="#1198e5"/>
            <stop offset="1" stop-color="#108ed6"/>
        </linearGradient>
    </defs>
    <g fill="none" fill-rule="none" stroke="none" stroke-width="1" stroke-linecap="butt" stroke-linejoin="miter" stroke-miterlimit="10" stroke-dasharray="" stroke-dashoffset="0" font-family="none" font-weight="none" text-anchor="none" style="mix-blend-mode: normal">
        <path d="M160,240l0,128c0,13.5 5.5,25.5 14,34c8.5,8.5 20.5,14 34,14l48,0l0,32l-48,0c-22,0 -42,-9 -56.5,-23.5c-14.5,-14.5 -23.5,-34.5 -23.5,-56.5l0,-128z" id="curve10" fill="#ffc001" fill-rule="nonzero"/>
        <path d="M115.5,199l57,0l0,20.5c0,10 10,20.5 19.5,20.5l16,0l0,16l-128,0l0,-16l16,0c9.5,0 19.5,-10.5 19.5,-20.5z" id="curve9" fill="#717f8f" fill-rule="evenodd"/>
        <path d="M115.5,199l57,0l0,20.5c0,10 10,20.5 19.5,20.5l-96,0c9.5,0 19.5,-10.5 19.5,-20.5z" id="curve8" fill="url(#color-1)" fill-rule="evenodd"/>
        <path d="M16,0l256,0c9,0 16,7 16,16l0,192c0,9 -7,16 -16,16l-256,0c-9,0 -16,-7 -16,-16l0,-192c0,-9 7,-16 16,-16z" id="curve7" fill="url(#color-2)" fill-rule="evenodd"/>
        <path d="M16,16l256,0l0,192l-256,0z" id="curve6" fill="url(#color-3)" fill-rule="evenodd"/>
        <path d="M272,32l-256,0l0,-16l256,0z" id="curve5" fill="url(#color-4)" fill-rule="evenodd"/>
        <path d="M339.5,455l57,0l0,20.5c0,10 10,20.5 19.5,20.5l16,0l0,16l-128,0l0,-16l16,0c9.5,0 19.5,-10.5 19.5,-20.5z" id="curve4" fill="#717f8f" fill-rule="evenodd"/>
        <path d="M339.5,455l57,0l0,20.5c0,10 10,20.5 19.5,20.5l-96,0c9.5,0 19.5,-10.5 19.5,-20.5z" id="curve3" fill="url(#color-5)" fill-rule="evenodd"/>
        <path d="M240,256l256,0c9,0 16,7 16,16l0,192c0,9 -7,16 -16,16l-256,0c-9,0 -16,-7 -16,-16l0,-192c0,-9 7,-16 16,-16z" id="curve2" fill="url(#color-6)" fill-rule="evenodd"/>
        <path d="M240,272l256,0l0,192l-256,0z" id="curve1" fill="url(#color-7)" fill-rule="evenodd"/>
        <path d="M496,288l-256,0l0,-16l256,0z" id="curve0" fill="url(#color-8)" fill-rule="evenodd"/>
    </g>
</svg>