<svg version="1.1"
    xmlns="http://www.w3.org/2000/svg"
    xmlns:xlink="http://www.w3.org/1999/xlink" width="512" height="512" viewBox="0 0 512 512">
    <title>plug icon</title>
    <desc>plug icon from the IconExperience.com G-Collection. Copyright by INCORS GmbH (www.incors.com).</desc>
    <defs>
        <linearGradient x1="0" y1="224" x2="0.65433" y2="288.195" gradientUnits="userSpaceOnUse" id="color-1">
            <stop offset="0" stop-color="#91a0af"/>
            <stop offset="1" stop-color="#728090"/>
        </linearGradient>
        <linearGradient x1="336" y1="144" x2="336.203" y2="182.4895" gradientUnits="userSpaceOnUse" id="color-2">
            <stop offset="0" stop-color="#ffd041"/>
            <stop offset="1" stop-color="#cf950f"/>
        </linearGradient>
        <linearGradient x1="336" y1="320" x2="336.203" y2="358.4905" gradientUnits="userSpaceOnUse" id="color-3">
            <stop offset="0" stop-color="#ffd041"/>
            <stop offset="1" stop-color="#cf950f"/>
        </linearGradient>
        <linearGradient x1="240" y1="96" x2="240" y2="416" gradientUnits="userSpaceOnUse" id="color-4">
            <stop offset="0" stop-color="#8c9baa"/>
            <stop offset="0.34902" stop-color="#6e7d8c"/>
            <stop offset="1" stop-color="#536371"/>
        </linearGradient>
        <linearGradient x1="32" y1="112" x2="32" y2="400" gradientUnits="userSpaceOnUse" id="color-5">
            <stop offset="0" stop-color="#4cb5f2"/>
            <stop offset="1" stop-color="#19a1ee"/>
        </linearGradient>
        <linearGradient x1="208" y1="80" x2="256" y2="80" gradientUnits="userSpaceOnUse" id="color-6">
            <stop offset="0" stop-color="#b3c0cd"/>
            <stop offset="1" stop-color="#91a0af"/>
        </linearGradient>
    </defs>
    <g fill="none" fill-rule="evenodd" stroke="none" stroke-width="1" stroke-linecap="butt" stroke-linejoin="miter" stroke-miterlimit="10" stroke-dasharray="" stroke-dashoffset="0" font-family="none" font-weight="none" text-anchor="none" style="mix-blend-mode: normal">
        <path d="M0,224l112,0l0,64l-112,0z" id="curve6" fill="url(#color-1)"/>
        <path d="M336,144l152,0c13,0 24,11 24,24l0,0c0,13 -11,24 -24,24l-152,0z" id="curve5" fill="url(#color-2)"/>
        <path d="M336,320l152,0c13,0 24,11 24,24l0,0c0,13 -11,24 -24,24l-152,0z" id="curve4" fill="url(#color-3)"/>
        <path d="M368,96l-128,0l0,320l128,0z" id="curve3" fill="url(#color-4)"/>
        <path d="M32,208l16,0c0,-55.5 79.5,-96 128,-96l48,0l0,288l-48,0c-53,0 -128,-43 -128,-96l-16,0z" id="curve2" fill="url(#color-5)"/>
        <path d="M272,240l96,0l0,32l-96,0z" id="curve1" fill="#b3c0cd"/>
        <path d="M224,80l16,0c9,0 16,7 16,16l0,320c0,9 -7,16 -16,16l-16,0c-9,0 -16,-7 -16,-16l0,-320c0,-9 7,-16 16,-16z" id="curve0" fill="url(#color-6)"/>
    </g>
</svg>
