<svg version="1.1"
    xmlns="http://www.w3.org/2000/svg"
    xmlns:xlink="http://www.w3.org/1999/xlink" width="512" height="512" viewBox="0 0 512 512">
    <title>server network icon</title>
    <desc>server network icon from the IconExperience.com G-Collection. Copyright by INCORS GmbH (www.incors.com).</desc>
    <defs>
        <linearGradient x1="240" y1="384" x2="272.0005" y2="384.1575" gradientUnits="userSpaceOnUse" id="color-1">
            <stop offset="0" stop-color="#6e7c8c"/>
            <stop offset="1" stop-color="#5e6d7c"/>
        </linearGradient>
        <linearGradient x1="192" y1="448" x2="192.5905" y2="485.0905" gradientUnits="userSpaceOnUse" id="color-2">
            <stop offset="0" stop-color="#ffd041"/>
            <stop offset="1" stop-color="#ffc001"/>
        </linearGradient>
        <linearGradient x1="112" y1="0" x2="399.999" y2="0" gradientUnits="userSpaceOnUse" id="color-3">
            <stop offset="0" stop-color="#717f8f"/>
            <stop offset="1" stop-color="#546472"/>
        </linearGradient>
        <linearGradient x1="144" y1="80" x2="368" y2="80" gradientUnits="userSpaceOnUse" id="color-4">
            <stop offset="0" stop-color="#6ac2f5"/>
            <stop offset="0.6" stop-color="#41b1f2"/>
            <stop offset="1" stop-color="#17a0ee"/>
        </linearGradient>
    </defs>
    <g fill="none" fill-rule="evenodd" stroke="none" stroke-width="1" stroke-linecap="butt" stroke-linejoin="miter" stroke-miterlimit="10" stroke-dasharray="" stroke-dashoffset="0" font-family="none" font-weight="none" text-anchor="none" style="mix-blend-mode: normal">
        <path d="M240,384l32,0l0,80l96,0l0,32l-224,0l0,-32l96,0z" id="curve6" fill="#717f8f"/>
        <path d="M272,384l0,48l-32,0l0,-48z" id="curve5" fill="url(#color-1)"/>
        <path d="M208,448l96,0c9,0 16,7 16,16l0,32c0,9 -7,16 -16,16l-96,0c-9,0 -16,-7 -16,-16l0,-32c0,-9 7,-16 16,-16z" id="curve4" fill="url(#color-2)"/>
        <path d="M128,0l256,0c9,0 16,7 16,16l0,400l-288,0l0,-400c0,-9 7,-16 16,-16z" id="curve3" fill="url(#color-3)"/>
        <path d="M144,320l224,0l0,64l-224,0z M144,240l224,0l0,64l-224,0z M144,160l224,0l0,64l-224,0z M144,80l224,0l0,64l-224,0z" id="curve2" fill="url(#color-4)"/>
        <path d="M192,320l128,0l0,16l-128,0z M192,240l128,0l0,16l-128,0z M192,160l128,0l0,16l-128,0z M192,80l128,0l0,16l-128,0z" id="curve1" fill="#98e957"/>
        <path d="M352,32c9,0 16,7 16,16c0,9 -7,16 -16,16c-9,0 -16,-7 -16,-16c0,-9 7,-16 16,-16z" id="curve0" fill="#98e957"/>
    </g>
</svg>