<svg version="1.1"
    xmlns="http://www.w3.org/2000/svg"
    xmlns:xlink="http://www.w3.org/1999/xlink" width="512" height="512" viewBox="0 0 512 512">
    <title>element icon</title>
    <desc>element icon from the IconExperience.com G-Collection. Copyright by INCORS GmbH (www.incors.com).</desc>
    <defs>
        <linearGradient x1="96" y1="128" x2="351.5735" y2="384.001" gradientUnits="userSpaceOnUse" id="color-1">
            <stop offset="0" stop-color="#4cb5f2"/>
            <stop offset="1" stop-color="#19a1ee"/>
        </linearGradient>
    </defs>
    <g fill="url(#color-1)" fill-rule="evenodd" stroke="#252525" stroke-width="10" stroke-linecap="butt" stroke-linejoin="round" stroke-miterlimit="10" stroke-dasharray="" stroke-dashoffset="0" font-family="none" font-weight="none" text-anchor="none" style="mix-blend-mode: normal">
        <path d="M112,128l288,0c9,0 16,7 16,16l0,224c0,9 -7,16 -16,16l-288,0c-9,0 -16,-7 -16,-16l0,-224c0,-9 7,-16 16,-16z" id="curve0"/>
    </g>
    <g transform="translate(0,0) scale(0.5,0.5)">
        <circle fill="red" cx="256" cy="256" r="224" stroke="#252525" stroke-width="10"/>
    </g>


<g transform="translate(256,256) scale(0.5,0.5)">
    <title>projector icon</title>
    <desc>projector icon from the IconExperience.com G-Collection. Copyright by INCORS GmbH (www.incors.com).</desc>
    <defs>
        <linearGradient x1="32" y1="432" x2="32" y2="480.0005" gradientUnits="userSpaceOnUse" id="projector-color-1">
            <stop offset="0" stop-color="#36414a"/>
            <stop offset="1" stop-color="#51616f"/>
        </linearGradient>
        <linearGradient x1="0" y1="192" x2="236.77825" y2="412.6075" gradientUnits="userSpaceOnUse" id="projector-color-2">
            <stop offset="0" stop-color="#91a0af"/>
            <stop offset="1" stop-color="#7a8898"/>
        </linearGradient>
        <linearGradient x1="32" y1="160" x2="232.6415" y2="417.968" gradientUnits="userSpaceOnUse" id="projector-color-3">
            <stop offset="0" stop-color="#51616f"/>
            <stop offset="1" stop-color="#3f4c56"/>
        </linearGradient>
        <linearGradient x1="256" y1="192" x2="255.997" y2="364.7995" gradientUnits="userSpaceOnUse" id="projector-color-4">
            <stop offset="0" stop-color="#0e76b2"/>
            <stop offset="1" stop-color="#129eee"/>
        </linearGradient>
        <radialGradient cx="159.97091" cy="228.76186" r="147.70768" fx="159.97091" fy="228.76186" gradientUnits="userSpaceOnUse" id="projector-color-5">
            <stop offset="0" stop-color="#89cff7"/>
            <stop offset="1" stop-color="#129eee"/>
        </radialGradient>
    </defs>
    <g fill="none" fill-rule="evenodd" stroke="none" stroke-width="1" stroke-linecap="butt" stroke-linejoin="miter" stroke-miterlimit="10" stroke-dasharray="" stroke-dashoffset="0" font-family="none" font-weight="none" text-anchor="none" style="mix-blend-mode: normal">
        <path d="M464,480l-32,0c-9,0 -16,-7 -16,-16l0,-32l64,0l0,32c0,9 -7,16 -16,16z M32,432l64,0l0,32c0,9 -7,16 -16,16l-32,0c-9,0 -16,-7 -16,-16z" id="curve5" fill="url(#projector-color-1)"/>
        <path d="M32,192l448,0c17.5,0 32,14.5 32,32l0,192c0,17.5 -14.5,32 -32,32l-448,0c-17.5,0 -32,-14.5 -32,-32l0,-192c0,-17.5 14.5,-32 32,-32z" id="curve4" fill="url(#projector-color-2)"/>
        <path d="M160,160c70.5,0 128,57.5 128,128c0,70.5 -57.5,128 -128,128c-70.5,0 -128,-57.5 -128,-128c0,-70.5 57.5,-128 128,-128z" id="curve3" fill="url(#projector-color-3)"/>
        <path d="M160,192c53,0 96,43 96,96c0,53 -43,96 -96,96c-53,0 -96,-43 -96,-96c0,-53 43,-96 96,-96z" id="curve2" fill="url(#projector-color-4)"/>
        <path d="M480,224l-128,0l0,16l128,0z M480,256l-128,0l0,16l128,0z M480,288l-128,0l0,16l128,0z" id="curve1" fill="#51616f"/>
        <path d="M160,208c44,0 80,36 80,80c0,44 -36,80 -80,80c-44,0 -80,-36 -80,-80c0,-44 36,-80 80,-80z" id="curve0" fill="url(#projector-color-5)"/>
    </g>
</g>

</svg>
