<svg version="1.1"
    xmlns="http://www.w3.org/2000/svg"
    xmlns:xlink="http://www.w3.org/1999/xlink" width="512" height="512" viewBox="0 0 512 512">
    <title>element icon</title>
    <desc>element icon from the IconExperience.com G-Collection. Copyright by INCORS GmbH (www.incors.com).</desc>
    <defs>
        <linearGradient x1="96" y1="128" x2="351.5735" y2="384.001" gradientUnits="userSpaceOnUse" id="color-1">
            <stop offset="0" stop-color="#4cb5f2"/>
            <stop offset="1" stop-color="#19a1ee"/>
        </linearGradient>
    </defs>
    <g fill="url(#color-1)" fill-rule="evenodd" stroke="#252525" stroke-width="10" stroke-linecap="butt" stroke-linejoin="round" stroke-miterlimit="10" stroke-dasharray="" stroke-dashoffset="0" font-family="none" font-weight="none" text-anchor="none" style="mix-blend-mode: normal">
        <path d="M112,128l288,0c9,0 16,7 16,16l0,224c0,9 -7,16 -16,16l-288,0c-9,0 -16,-7 -16,-16l0,-224c0,-9 7,-16 16,-16z" id="curve0"/>
    </g>


<g transform="translate(256,256) scale(0.5,0.5)">
    <title>checkbox icon</title>
    <desc>checkbox icon from the IconExperience.com G-Collection. Copyright by INCORS GmbH (www.incors.com).</desc>
    <defs>
        <linearGradient x1="32" y1="32" x2="441.67465" y2="472.02085" gradientUnits="userSpaceOnUse" id="check-1">
            <stop offset="0" stop-color="#77da26"/>
            <stop offset="1" stop-color="#5aa51d"/>
        </linearGradient>
        <linearGradient x1="86.5" y1="116.5" x2="301.736" y2="340.014" gradientUnits="userSpaceOnUse" id="check-2">
            <stop offset="0" stop-color="#ffffff"/>
            <stop offset="1" stop-color="#e5ebf0"/>
        </linearGradient>
    </defs>
    <g fill="none" fill-rule="evenodd" stroke="none" stroke-width="1" stroke-linecap="butt" stroke-linejoin="miter" stroke-miterlimit="10" stroke-dasharray="" stroke-dashoffset="0" font-family="none" font-weight="none" text-anchor="none" style="mix-blend-mode: normal">
        <path d="M48,32l416,0c9,0 16,7 16,16l0,416c0,9 -7,16 -16,16l-416,0c-9,0 -16,-7 -16,-16l0,-416c0,-9 7,-16 16,-16z" id="curve1" fill="url(#check-1)"/>
        <path d="M378,116.5l54,54.5l-229,229l-116.5,-116l54.5,-54.5l62,62z" id="curve0" fill="url(#check-2)"/>
    </g>
</g>

</svg>
