<?xml version="1.0" encoding="UTF-8"?>
<!DOCTYPE svg PUBLIC "-//W3C//DTD SVG 1.1//EN" "http://www.w3.org/Graphics/SVG/1.1/DTD/svg11.dtd">
<svg xmlns="http://www.w3.org/2000/svg" xml:space="preserve" width="1024px" height="1024px" shape-rendering="geometricPrecision" text-rendering="geometricPrecision" image-rendering="optimizeQuality" fill-rule="nonzero" clip-rule="evenodd" viewBox="0 0 10240 10240" xmlns:xlink="http://www.w3.org/1999/xlink">
	<title>elements icon</title>
	<desc>elements icon from the IconExperience.com O-Collection. Copyright by INCORS GmbH (www.incors.com).</desc>
    <g transform="translate(10240,0) scale(-1,1)">
	<path id="curve1" fill="#252525" d="M4480 1920l3840 0c353,0 640,287 640,640l0 2560c0,352 -288,640 -640,640l-1600 0 0 -640 1600 0 0 -2560 -3840 0 0 1600 -640 0 0 -1600c0,-353 287,-640 640,-640z"/>
	<path id="curve0" fill="#252525" d="M1920 4480l3840 0c353,0 640,287 640,640l0 2560c0,352 -288,640 -640,640l-3840 0c-352,0 -640,-287 -640,-640l0 -2560c0,-353 287,-640 640,-640zm0 640l0 2560 3840 0 0 -2560 -3840 0z"/>
    </g>
</svg>
