<?xml version="1.0" encoding="UTF-8"?>
<!DOCTYPE svg PUBLIC "-//W3C//DTD SVG 1.1//EN" "http://www.w3.org/Graphics/SVG/1.1/DTD/svg11.dtd">
<svg xmlns="http://www.w3.org/2000/svg" xml:space="preserve" width="1024px" height="1024px" shape-rendering="geometricPrecision" text-rendering="geometricPrecision" image-rendering="optimizeQuality" fill-rule="nonzero" clip-rule="evenodd" viewBox="0 0 10240 10240" xmlns:xlink="http://www.w3.org/1999/xlink">
	<title>cpu icon</title>
	<desc>cpu icon from the IconExperience.com O-Collection. Copyright by INCORS GmbH (www.incors.com).</desc>
	<path id="curve2" fill="#252525" d="M5120 7680c530,0 960,430 960,960l0 640 -1920 0 0 -640c0,-530 430,-960 960,-960z"/>
	<path id="curve1" fill="#252525" d="M3200 640l3840 0c176,0 320,144 320,320l0 8000c0,176 -144,320 -320,320l-640 0 0 -640c0,-707 -573,-1280 -1280,-1280 -707,0 -1280,573 -1280,1280l0 640 -640 0c-176,0 -320,-144 -320,-320l0 -8000c0,-176 144,-320 320,-320z"/>
	<path id="curve0" fill="#252525" d="M7680 2240l640 0c176,0 320,144 320,320l640 0 0 -320c0,-265 -108,-505 -282,-678 -173,-174 -413,-282 -678,-282l-640 0 0 960zm-5120 0l-640 0c-176,0 -320,144 -320,320l-640 0 0 -320c0,-265 108,-505 282,-678 173,-174 413,-282 678,-282l640 0 0 960zm0 1600l-640 0c-176,0 -320,144 -320,320l-640 0 0 -320c0,-265 108,-505 282,-678 173,-174 413,-282 678,-282l640 0 0 960zm0 1600l-640 0c-176,0 -320,144 -320,320l-640 0 0 -320c0,-265 108,-505 282,-678 173,-174 413,-282 678,-282l640 0 0 960zm0 1600l-640 0c-176,0 -320,144 -320,320l-640 0 0 -320c0,-265 108,-505 282,-678 173,-174 413,-282 678,-282l640 0 0 960zm0 1600l-640 0c-176,0 -320,144 -320,320l-640 0 0 -320c0,-265 108,-505 282,-678 173,-174 413,-282 678,-282l640 0 0 960zm5120 0l640 0c176,0 320,144 320,320l640 0 0 -320c0,-265 -108,-505 -282,-678 -173,-174 -413,-282 -678,-282l-640 0 0 960zm0 -1600l640 0c176,0 320,144 320,320l640 0 0 -320c0,-265 -108,-505 -282,-678 -173,-174 -413,-282 -678,-282l-640 0 0 960zm0 -1600l640 0c176,0 320,144 320,320l640 0 0 -320c0,-265 -108,-505 -282,-678 -173,-174 -413,-282 -678,-282l-640 0 0 960zm0 -1600l640 0c176,0 320,144 320,320l640 0 0 -320c0,-265 -108,-505 -282,-678 -173,-174 -413,-282 -678,-282l-640 0 0 960z"/>
</svg>
