<?xml version="1.0" encoding="UTF-8"?>
<!DOCTYPE svg PUBLIC "-//W3C//DTD SVG 1.1//EN" "http://www.w3.org/Graphics/SVG/1.1/DTD/svg11.dtd">
<svg xmlns="http://www.w3.org/2000/svg" xml:space="preserve" width="1024px" height="1024px" shape-rendering="geometricPrecision" text-rendering="geometricPrecision" image-rendering="optimizeQuality" fill-rule="nonzero" clip-rule="evenodd" viewBox="0 0 10240 10240" xmlns:xlink="http://www.w3.org/1999/xlink">
	<title>bug icon</title>
	<desc>bug icon from the IconExperience.com O-Collection. Copyright by INCORS GmbH (www.incors.com).</desc>
	<path id="curve2" fill="#252525" d="M8190 6777l356 357c44,44 73,97 86,153l311 933c55,167 -36,347 -203,403 -167,55 -347,-36 -402,-203l-296 -885 -105 -105c5,-9 10,-19 14,-28l7 -13c5,-10 9,-19 14,-29l7 -14c4,-9 9,-18 13,-28l7 -15c4,-9 8,-18 12,-27l7 -16c5,-10 9,-19 13,-29l5 -12c5,-11 9,-21 13,-31l5 -12c5,-11 9,-22 13,-32l5 -12c4,-11 9,-23 13,-35l2 -5c5,-13 10,-26 15,-39l2 -6c5,-13 10,-27 14,-40l2 -4c4,-13 9,-27 13,-40l2 -5c4,-13 9,-26 13,-39l1 -5c5,-14 9,-28 13,-42l1 -2 0 0c4,-14 8,-28 12,-42l2 -6c4,-14 8,-27 11,-40l1 -5 1 0zm-5744 -3239l-432 -432c-44,-44 -73,-97 -86,-153l-311 -933c-55,-167 36,-347 203,-403 167,-55 347,36 403,203l295 885 272 272c-130,164 -245,357 -344,561zm5004 -561l272 -272 295 -885c56,-167 236,-258 403,-203 167,56 258,236 203,403l-311 933c-13,56 -42,109 -86,153l-432 432c-99,-204 -214,-397 -344,-561zm-5509 2365l-166 56 -589 588c-125,125 -327,125 -452,0 -125,-125 -125,-327 0,-452l640 -640 1 1c34,-34 76,-61 125,-78l561 -187c-20,85 -38,166 -52,240 -29,156 -53,314 -68,472zm6238 -712l561 187c49,17 91,44 125,78l1 -1 640 640c125,125 125,327 0,452 -125,125 -327,125 -452,0l-589 -588 -166 -56c-15,-158 -39,-316 -68,-472 -14,-74 -32,-155 -52,-240zm-5876 2800l-105 105 -295 885c-56,167 -236,258 -403,203 -167,-56 -258,-236 -202,-403l310 -933c13,-56 42,-109 86,-153l356 -357c62,227 146,445 253,653z"/>
	<path id="curve1" fill="#EDCA36" d="M7197 3176c439,553 803,1644 803,2592 0,2281 -1853,2852 -2829,3175l255 -4835c215,-56 432,-114 643,-182 189,-61 369,-132 538,-238 216,-137 408,-329 590,-512zm-2128 5767c-976,-323 -2829,-894 -2829,-3175 0,-948 364,-2039 803,-2592 179,180 369,369 582,504 175,111 362,183 559,244 206,64 418,119 629,172l256 4847z"/>
	<path id="curve0" fill="#252525" d="M5120 1280c221,0 423,19 605,56 -36,-8 -144,114 -163,149 -133,229 8,559 314,735 306,177 662,134 794,-95 42,-74 57,-157 47,-243 215,264 323,604 323,998 -640,640 -640,640 -1892,970 -1308,-330 -1308,-330 -1948,-970 0,-394 108,-734 323,-998 -10,86 5,169 47,243 132,229 488,272 794,95 306,-176 447,-506 314,-735 -37,-66 -93,-116 -160,-150l-4 1c183,-37 385,-56 606,-56z"/>
</svg>
