<?xml version="1.0" encoding="UTF-8"?>
<!DOCTYPE svg PUBLIC "-//W3C//DTD SVG 1.1//EN" "http://www.w3.org/Graphics/SVG/1.1/DTD/svg11.dtd">
<svg xmlns="http://www.w3.org/2000/svg" xml:space="preserve" width="1024px" height="1024px" shape-rendering="geometricPrecision" text-rendering="geometricPrecision" image-rendering="optimizeQuality" fill-rule="nonzero" clip-rule="evenodd" viewBox="0 0 10240 10240" xmlns:xlink="http://www.w3.org/1999/xlink">
	<title>eyeglasses icon</title>
	<desc>eyeglasses icon from the IconExperience.com O-Collection. Copyright by INCORS GmbH (www.incors.com).</desc>
	<path id="curve1" fill="#252525" d="M8289 4141c-572,0 -1781,-82 -2262,182 -197,108 -390,157 -615,157l-584 0c-225,0 -418,-49 -615,-157 -481,-264 -1690,-182 -2262,-182 -386,0 -737,156 -990,442 -56,62 -104,129 -146,198l-495 19 0 640c0,109 55,206 139,264 152,104 244,233 270,415l65 443c93,633 643,1088 1298,1099l1132 19c445,7 843,-208 1090,-570l351 -514c264,-386 644,-390 910,0l351 514c247,362 645,577 1090,570l1132 -19c655,-11 1205,-466 1298,-1099l62 -422c26,-183 119,-331 272,-436 84,-57 140,-154 140,-264l0 -640 -484 0c-44,-76 -96,-149 -157,-217 -253,-286 -604,-442 -990,-442zm-6338 640l1623 19c361,4 656,288 656,640l0 446c0,132 -35,246 -110,355l-351 514c-125,183 -320,289 -545,285l-1132 -19c-329,-5 -603,-232 -649,-549l-140 -960c-28,-191 24,-365 153,-510 129,-145 299,-223 495,-221zm6338 0c196,-2 366,76 495,221 129,145 181,319 153,510l-140 960c-46,317 -320,544 -649,549l-1132 19c-226,4 -420,-102 -545,-285l-351 -514c-75,-109 -110,-223 -110,-355l0 -446c0,-352 295,-636 656,-640l1623 -19z"/>
	<path id="curve0" fill="#252525" d="M2125 2240c130,0 241,28 357,90l1248 668c98,52 138,181 89,286l-62 133c-59,127 -162,208 -293,231 -130,22 -252,-20 -346,-120l-523 -560c-155,-166 -408,-166 -563,0 -139,148 -268,505 -363,877 -365,61 -695,241 -947,525 -28,32 -55,64 -80,98l-278 10c197,-840 1028,-2238 1761,-2238zm5990 0c-130,0 -241,28 -357,90l-1248 668c-98,52 -138,181 -89,286l62 133c59,127 162,208 293,231 130,22 252,-20 346,-120l523 -560c155,-166 408,-166 563,0 139,148 268,505 363,877 365,61 695,241 947,525 32,35 61,72 90,110l269 0c-197,-840 -1028,-2240 -1762,-2240z"/>


<g comp-op="clear">
<g transform="translate(5120,0) scale(0.5,0.5)"  stroke="#252525" stroke-width="512" stroke-linejoin="round">
	<title>star icon</title>
	<desc>star icon from the IconExperience.com O-Collection. Copyright by INCORS GmbH (www.incors.com).</desc>
	<path id="curve0" fill="#EDCA36" d="M5725 1082l687 2148c43,135 163,223 305,222l2246 -4c279,-1 518,172 604,439 87,267 -3,548 -229,713l-1825 1332c-114,83 -159,223 -116,357l698 2155c87,268 -4,548 -231,713 -228,165 -522,164 -748,-2l-1806 -1330c-115,-84 -265,-84 -380,0l-1806 1330c-226,166 -520,167 -748,2 -227,-165 -318,-445 -231,-713l698 -2155c43,-134 -2,-274 -116,-357l-1824 -1332c-227,-165 -317,-446 -230,-713 86,-267 325,-440 604,-439l2246 4c142,1 262,-87 305,-222l687 -2148c86,-268 324,-442 605,-442 281,0 519,174 605,442z"/>
</g>
</g>



<g transform="translate(5120,0) scale(0.5,0.5)">
	<title>star icon</title>
	<desc>star icon from the IconExperience.com O-Collection. Copyright by INCORS GmbH (www.incors.com).</desc>
	<path id="curve0" fill="#EDCA36" d="M5725 1082l687 2148c43,135 163,223 305,222l2246 -4c279,-1 518,172 604,439 87,267 -3,548 -229,713l-1825 1332c-114,83 -159,223 -116,357l698 2155c87,268 -4,548 -231,713 -228,165 -522,164 -748,-2l-1806 -1330c-115,-84 -265,-84 -380,0l-1806 1330c-226,166 -520,167 -748,2 -227,-165 -318,-445 -231,-713l698 -2155c43,-134 -2,-274 -116,-357l-1824 -1332c-227,-165 -317,-446 -230,-713 86,-267 325,-440 604,-439l2246 4c142,1 262,-87 305,-222l687 -2148c86,-268 324,-442 605,-442 281,0 519,174 605,442z"/>
</g>

</svg>
