<?xml version="1.0" encoding="UTF-8"?>
<!DOCTYPE svg PUBLIC "-//W3C//DTD SVG 1.1//EN" "http://www.w3.org/Graphics/SVG/1.1/DTD/svg11.dtd">
<svg xmlns="http://www.w3.org/2000/svg" xml:space="preserve" width="1024px" height="1024px" shape-rendering="geometricPrecision" text-rendering="geometricPrecision" image-rendering="optimizeQuality" fill-rule="nonzero" clip-rule="evenodd" viewBox="0 0 10240 10240" xmlns:xlink="http://www.w3.org/1999/xlink">
	<title>phone_pick_up icon</title>
	<desc>phone_pick_up icon from the IconExperience.com O-Collection. Copyright by INCORS GmbH (www.incors.com).</desc>
	<path id="curve1" fill="#252525" d="M6810 7761l-71 341c-84,407 122,821 459,922l1834 553c337,102 680,-147 764,-553l77 -368c211,-1018 -309,-2021 -1146,-2304 -2334,-789 -4880,-789 -7213,0 -838,283 -1357,1286 -1146,2304l76 368c84,406 428,655 765,553l1834 -553c337,-101 543,-515 459,-922l-71 -341c-39,-185 40,-374 187,-447 945,-473 2060,-473 3005,0 147,73 226,262 187,447z"/>
	<path id="curve0" fill="#235DB8" d="M6853 2107l-1507 -1506c-124,-124 -328,-124 -452,0l-1507 1506c-124,125 -187,277 -187,453l0 1159c0,66 38,122 99,147 61,26 127,13 174,-34l1007 -1007 0 2135c0,88 72,160 160,160l960 0c88,0 160,-72 160,-160l0 -2135 1007 1007c47,47 113,60 174,34 61,-25 99,-81 99,-147l0 -1159c0,-176 -63,-328 -187,-453z"/>
</svg>
