<?xml version="1.0" encoding="UTF-8"?>
<!DOCTYPE svg PUBLIC "-//W3C//DTD SVG 1.1//EN" "http://www.w3.org/Graphics/SVG/1.1/DTD/svg11.dtd">
<svg xmlns="http://www.w3.org/2000/svg" xml:space="preserve" width="1024px" height="1024px" shape-rendering="geometricPrecision" text-rendering="geometricPrecision" image-rendering="optimizeQuality" fill-rule="nonzero" clip-rule="evenodd" viewBox="0 0 10240 10240" xmlns:xlink="http://www.w3.org/1999/xlink">
	<title>note_text icon</title>
	<desc>note_text icon from the IconExperience.com O-Collection. Copyright by INCORS GmbH (www.incors.com).</desc>
	<path id="curve1" fill="#252525" d="M1920 8320l4160 0c176,0 320,-144 320,-320l0 -1600 1600 0c176,0 320,-144 320,-320l0 -4160 -6400 0 0 6400zm5118 -263l1019 -1019c-19,1 -38,2 -57,2l-960 0 0 960c0,19 -1,38 -2,57zm-5758 903l0 -7680 7680 0 0 5230c0,352 -126,656 -375,905l-1170 1170c-249,249 -553,375 -905,375l-5230 0z"/>
	<path id="curve0" fill="#3E9BD5" d="M2720 2560c88,0 160,72 160,160 0,88 72,160 160,160l320 0c88,0 160,-72 160,-160 0,-88 72,-160 160,-160 88,0 160,72 160,160 0,88 72,160 160,160 88,0 160,-72 160,-160 0,-88 72,-160 160,-160 88,0 160,72 160,160 0,88 72,160 160,160 88,0 160,-72 160,-160 0,-88 72,-160 160,-160 88,0 160,72 160,160 0,88 72,160 160,160 88,0 160,72 160,160 0,88 -72,160 -160,160l-640 0c-88,0 -160,72 -160,160 0,88 -72,160 -160,160 -88,0 -160,-72 -160,-160 0,-88 -72,-160 -160,-160l-320 0c-88,0 -160,72 -160,160 0,88 -72,160 -160,160 -88,0 -160,-72 -160,-160 0,-88 -72,-160 -160,-160 -88,0 -160,72 -160,160 0,88 -72,160 -160,160 -88,0 -160,-72 -160,-160l0 -640c0,-88 72,-160 160,-160zm0 2880l320 0c88,0 160,-72 160,-160 0,-88 72,-160 160,-160 88,0 160,72 160,160l0 320c0,88 72,160 160,160 88,0 160,72 160,160 0,88 -72,160 -160,160l-320 0c-88,0 -160,-72 -160,-160 0,-88 -72,-160 -160,-160l-320 0c-88,0 -160,-72 -160,-160 0,-88 72,-160 160,-160zm3040 1760c0,88 -72,160 -160,160 -88,0 -160,-72 -160,-160 0,-88 -72,-160 -160,-160 -88,0 -160,72 -160,160 0,88 -72,160 -160,160 -88,0 -160,-72 -160,-160 0,-88 -72,-160 -160,-160 -213,0 -427,0 -640,0 -88,0 -160,72 -160,160 0,88 -72,160 -160,160 -88,0 -160,-72 -160,-160l0 -640c0,-88 72,-160 160,-160 88,0 160,72 160,160 0,88 72,160 160,160 88,0 160,-72 160,-160 0,-88 72,-160 160,-160 88,0 160,72 160,160 0,88 72,160 160,160 320,0 640,0 960,0 88,0 160,72 160,160l0 320zm-2560 -320c0,88 -72,160 -160,160 -88,0 -160,72 -160,160 0,88 -72,160 -160,160 -88,0 -160,-72 -160,-160l0 -320c0,-88 72,-160 160,-160l320 0c88,0 160,72 160,160zm4320 -1440l320 0c88,0 160,72 160,160 0,88 -72,160 -160,160l-320 0c-88,0 -160,-72 -160,-160 0,-88 72,-160 160,-160zm-640 0c88,0 160,72 160,160 0,88 -72,160 -160,160 -88,0 -160,72 -160,160 0,88 -72,160 -160,160 -88,0 -160,-72 -160,-160 0,-88 -72,-160 -160,-160l-960 0c-88,0 -160,72 -160,160 0,88 -72,160 -160,160 -88,0 -160,-72 -160,-160l0 -320c0,-88 72,-160 160,-160l160 0 160 0c88,0 160,-72 160,-160 0,-88 72,-160 160,-160 88,0 160,72 160,160 0,88 72,160 160,160l320 0c88,0 160,-72 160,-160 0,-88 72,-160 160,-160 88,0 160,72 160,160 0,88 72,160 160,160zm-2560 0c88,0 160,72 160,160 0,88 -72,160 -160,160 -88,0 -160,-72 -160,-160 0,-88 72,-160 160,-160zm-1600 -1600c88,0 160,72 160,160 0,88 72,160 160,160l320 0c88,0 160,-72 160,-160 0,-88 72,-160 160,-160 88,0 160,72 160,160 0,88 72,160 160,160l640 0c88,0 160,72 160,160 0,88 -72,160 -160,160l-960 0c-88,0 -160,72 -160,160 0,88 -72,160 -160,160 -88,0 -160,-72 -160,-160 0,-88 -72,-160 -160,-160 -88,0 -160,72 -160,160 0,88 -72,160 -160,160 -88,0 -160,-72 -160,-160 0,-213 0,-427 0,-640 0,-88 72,-160 160,-160zm4480 0c88,0 160,72 160,160 0,88 72,160 160,160 88,0 160,72 160,160 0,88 -72,160 -160,160l-640 0c-88,0 -160,72 -160,160 0,88 -72,160 -160,160 -88,0 -160,-72 -160,-160l0 -640c0,-88 72,-160 160,-160 88,0 160,72 160,160 0,88 72,160 160,160 88,0 160,-72 160,-160 0,-88 72,-160 160,-160zm-1280 0c88,0 160,72 160,160l0 320c0,88 -72,160 -160,160l-640 0c-88,0 -160,-72 -160,-160 0,-88 72,-160 160,-160l320 0c88,0 160,-72 160,-160 0,-88 72,-160 160,-160zm0 -1280c88,0 160,72 160,160 0,88 72,160 160,160l1600 0c88,0 160,72 160,160 0,88 -72,160 -160,160 -88,0 -160,72 -160,160 0,88 -72,160 -160,160 -88,0 -160,-72 -160,-160 0,-88 -72,-160 -160,-160 -88,0 -160,72 -160,160 0,88 -72,160 -160,160 -88,0 -160,-72 -160,-160 0,-88 -72,-160 -160,-160 -88,0 -160,72 -160,160 0,88 -72,160 -160,160 -88,0 -160,-72 -160,-160 0,-88 -72,-160 -160,-160 -88,0 -160,-72 -160,-160l0 -320c0,-88 72,-160 160,-160z"/>
</svg>
