<?xml version="1.0" encoding="UTF-8"?>
<!DOCTYPE svg PUBLIC "-//W3C//DTD SVG 1.1//EN" "http://www.w3.org/Graphics/SVG/1.1/DTD/svg11.dtd">
<svg xmlns="http://www.w3.org/2000/svg" xml:space="preserve" width="1024px" height="1024px" shape-rendering="geometricPrecision" text-rendering="geometricPrecision" image-rendering="optimizeQuality" fill-rule="nonzero" clip-rule="evenodd" viewBox="0 0 10240 10240" xmlns:xlink="http://www.w3.org/1999/xlink">
	<title>elements_tree icon</title>
	<desc>elements_tree icon from the IconExperience.com O-Collection. Copyright by INCORS GmbH (www.incors.com).</desc>
    <g transform="translate(0,0) scale(1.0,-1.0) rotate(270)">
	<path id="curve3" fill="#252525" d="M4490 4800l0 640 -1290 0 0 2560 1290 0 0 640 -1610 0c-177,0 -320,-143 -320,-320l0 -3200 0 -1930 640 0 0 1610 1290 0z"/>
	<path id="curve2" fill="#252525" d="M5120 7040l1920 0c353,0 640,288 640,640l0 1280c0,352 -288,640 -640,640l-1920 0c-352,0 -640,-287 -640,-640l0 -1280c0,-353 287,-640 640,-640zm0 640l0 1280 1920 0 0 -1280 -1920 0z"/>
	<path id="curve1" fill="#252525" d="M5120 3840l1920 0c353,0 640,288 640,640l0 1280c0,352 -288,640 -640,640l-1920 0c-352,0 -640,-288 -640,-640l0 -1280c0,-353 287,-640 640,-640zm0 640l0 1280 1920 0 0 -1280 -1920 0z"/>
	<path id="curve0" fill="#252525" d="M1920 640l1920 0c353,0 640,288 640,640l0 1280c0,352 -288,640 -640,640l-1920 0c-352,0 -640,-288 -640,-640l0 -1280c0,-353 287,-640 640,-640zm0 640l0 1280 1920 0 0 -1280 -1920 0z"/>
    </g>
</svg>
