<?xml version="1.0" encoding="UTF-8"?>
<!DOCTYPE svg PUBLIC "-//W3C//DTD SVG 1.1//EN" "http://www.w3.org/Graphics/SVG/1.1/DTD/svg11.dtd">
<svg xmlns="http://www.w3.org/2000/svg" xml:space="preserve" width="1024px" height="1024px" shape-rendering="geometricPrecision" text-rendering="geometricPrecision" image-rendering="optimizeQuality" fill-rule="nonzero" clip-rule="evenodd" viewBox="0 0 10240 10240" xmlns:xlink="http://www.w3.org/1999/xlink">
	<title>thread icon</title>
	<desc>thread icon from the IconExperience.com O-Collection. Copyright by INCORS GmbH (www.incors.com).</desc>
	<path id="curve2" fill="#252525" d="M8228 8893c-97,-82 -169,-179 -203,-301 3,-2 6,-4 9,-5 172,-58 286,-156 286,-267 0,-177 -287,-320 -640,-320 -353,0 -640,143 -640,320 0,123 140,231 345,284l10 2c18,119 53,234 105,343l2 3c-4,0 -7,1 -11,1 -930,-57 -3797,-436 -5571,-633 1920,-213 5120,-640 5760,-640 640,0 1280,287 1280,640 0,247 -314,462 -722,569 -3,1 -7,2 -10,4z"/>
	<path id="curve1" fill="#3E9BD5" d="M6720 4524c692,118 1316,345 1726,674 364,291 593,688 534,1166 -35,274 -165,567 -411,875 -62,77 -118,152 -169,225 -225,-67 -464,-101 -691,-104 98,-166 219,-339 362,-519 167,-208 253,-393 274,-555 31,-251 -108,-440 -296,-591 -304,-242 -781,-418 -1329,-522l0 -649zm-5440 -2604l5120 640 0 640 -5120 -640 0 -640zm5120 0l0 320 -2560 -320 2560 0zm0 2240l-5120 -640 0 -640 5120 640 0 640zm-5120 -320l5120 640 0 640 -5120 -640 0 -640zm2560 1920l-2560 -320 0 -640 5120 640 0 320 -2560 0zm4177 2560c-17,147 5,274 62,379 81,150 239,274 467,369 331,139 794,212 1374,212l0 640c-664,0 -1209,-90 -1619,-262 -367,-153 -632,-374 -784,-656 -111,-204 -159,-432 -142,-682l642 0z"/>
	<path id="curve0" fill="#252525" d="M960 640l5760 0c176,0 320,144 320,320l0 0c0,352 -288,640 -640,640l-5120 0c-352,0 -640,-287 -640,-640l0 0c0,-176 144,-320 320,-320zm320 5440l5120 0c353,0 640,287 640,640l0 0c0,176 -144,320 -320,320l-5760 0c-176,0 -320,-144 -320,-320l0 0c0,-353 287,-640 640,-640z"/>
</svg>
