<?xml version="1.0" encoding="UTF-8"?>
<!DOCTYPE svg PUBLIC "-//W3C//DTD SVG 1.1//EN" "http://www.w3.org/Graphics/SVG/1.1/DTD/svg11.dtd">
<svg xmlns="http://www.w3.org/2000/svg" xml:space="preserve" width="1024px" height="1024px" shape-rendering="geometricPrecision" text-rendering="geometricPrecision" image-rendering="optimizeQuality" fill-rule="nonzero" clip-rule="evenodd" viewBox="0 0 10240 10240" xmlns:xlink="http://www.w3.org/1999/xlink">
	<title>binocular icon</title>
	<desc>binocular icon from the IconExperience.com O-Collection. Copyright by INCORS GmbH (www.incors.com).</desc>
	<path id="curve1" fill="#3E9BD5" d="M2720 5440c619,0 1120,501 1120,1120 0,619 -501,1120 -1120,1120 -619,0 -1120,-501 -1120,-1120 0,-135 24,-264 70,-390 84,138 236,230 410,230 265,0 480,-215 480,-480 0,-174 -92,-326 -230,-410 126,-46 256,-70 390,-70zm4800 0c619,0 1120,501 1120,1120 0,619 -501,1120 -1120,1120 -619,0 -1120,-501 -1120,-1120 0,-135 24,-264 70,-390 84,138 236,230 410,230 265,0 480,-215 480,-480 0,-174 -92,-326 -230,-410 127,-47 254,-70 390,-70z"/>
	<path id="curve0" fill="#252525" d="M3360 1920c424,0 793,236 983,583 215,-165 485,-263 777,-263 292,0 562,98 777,263 190,-347 559,-583 983,-583 420,0 806,221 978,574 510,1050 1060,2119 1543,3177 127,270 199,571 199,889 0,1149 -931,2080 -2080,2080 -1114,0 -2023,-875 -2077,-1976 -101,36 -210,56 -323,56 -113,0 -222,-20 -323,-56 -54,1101 -963,1976 -2077,1976 -1149,0 -2080,-931 -2080,-2080 0,-318 72,-619 199,-889 483,-1059 1033,-2127 1543,-3177 172,-353 558,-574 978,-574zm-640 3200c-795,0 -1440,645 -1440,1440 0,795 645,1440 1440,1440 795,0 1440,-645 1440,-1440 0,-795 -645,-1440 -1440,-1440zm4800 0c-795,0 -1440,645 -1440,1440 0,795 645,1440 1440,1440 795,0 1440,-645 1440,-1440 0,-795 -645,-1440 -1440,-1440z"/>


<g comp-op="clear">
<g transform="translate(5120,5120) scale(0.5,0.5)"  stroke="#808080" stroke-width="512" stroke-linejoin="round">
	<title>scroll icon</title>
	<desc>scroll icon from the IconExperience.com O-Collection. Copyright by INCORS GmbH (www.incors.com).</desc>
	<rect fill="white" x="2560" y="1800" height="6600" width="5400"/>
	<rect fill="white" x="1200" y="7600" height="900" width="1600"/>
	<rect fill="white" x="8200" y="1800" height="750" width="750"/>
	<path id="curve0" fill="#252525" d="M8320 8000c0,530 -430,960 -960,960l-5760 0c-530,0 -960,-430 -960,-960 0,-530 430,-960 960,-960l5440 0c176,0 320,144 320,320l0 86c0,117 -58,218 -160,277 -96,55 -160,159 -160,277 0,177 143,320 320,320 177,0 320,-143 320,-320l0 -5760c0,-112 19,-220 55,-320l-4855 0c-177,0 -320,143 -320,320l0 4480 -640 0 0 -4480c0,-530 430,-960 960,-960l5760 0c530,0 960,430 960,960 0,530 -430,960 -960,960l0 -640c177,0 320,-143 320,-320 0,-177 -143,-320 -320,-320 -177,0 -320,143 -320,320l0 5760zm-1865 320c-73,-205 -73,-435 0,-640l-4855 0c-177,0 -320,143 -320,320 0,177 143,320 320,320l4855 0z"/>
</g>
</g>



<g transform="translate(5120,5120) scale(0.5,0.5)">
	<title>scroll icon</title>
	<desc>scroll icon from the IconExperience.com O-Collection. Copyright by INCORS GmbH (www.incors.com).</desc>
	<rect fill="white" x="2560" y="1800" height="6600" width="5400"/>
	<rect fill="white" x="1200" y="7600" height="900" width="1600"/>
	<rect fill="white" x="8200" y="1800" height="750" width="750"/>
	<path id="curve0" fill="#252525" d="M8320 8000c0,530 -430,960 -960,960l-5760 0c-530,0 -960,-430 -960,-960 0,-530 430,-960 960,-960l5440 0c176,0 320,144 320,320l0 86c0,117 -58,218 -160,277 -96,55 -160,159 -160,277 0,177 143,320 320,320 177,0 320,-143 320,-320l0 -5760c0,-112 19,-220 55,-320l-4855 0c-177,0 -320,143 -320,320l0 4480 -640 0 0 -4480c0,-530 430,-960 960,-960l5760 0c530,0 960,430 960,960 0,530 -430,960 -960,960l0 -640c177,0 320,-143 320,-320 0,-177 -143,-320 -320,-320 -177,0 -320,143 -320,320l0 5760zm-1865 320c-73,-205 -73,-435 0,-640l-4855 0c-177,0 -320,143 -320,320 0,177 143,320 320,320l4855 0z"/>
</g>

</svg>
