<?xml version="1.0" encoding="UTF-8"?>
<!DOCTYPE svg PUBLIC "-//W3C//DTD SVG 1.1//EN" "http://www.w3.org/Graphics/SVG/1.1/DTD/svg11.dtd">
<svg xmlns="http://www.w3.org/2000/svg" xml:space="preserve" width="1024px" height="1024px" shape-rendering="geometricPrecision" text-rendering="geometricPrecision" image-rendering="optimizeQuality" fill-rule="nonzero" clip-rule="evenodd" viewBox="0 0 10240 10240" xmlns:xlink="http://www.w3.org/1999/xlink">
	<title>crash_test_dummy icon</title>
	<desc>crash_test_dummy icon from the IconExperience.com O-Collection. Copyright by INCORS GmbH (www.incors.com).</desc>
	<path id="curve4" fill="#252525" d="M3840 7040c353,0 640,287 640,640l-640 0 0 -640 0 0zm0 1280c-353,0 -640,-287 -640,-640l0 0 640 0 0 640z"/>
	<path id="curve3" fill="#252525" d="M6400 7040c353,0 640,287 640,640l-640 0 0 -640 0 0zm0 1280c-353,0 -640,-287 -640,-640l0 0 640 0 0 640z"/>
	<path id="curve2" fill="#3E9BD5" d="M8320 8470c0,810 -1920,1130 -3200,1130 -1280,0 -3200,-320 -3200,-1129 0,-1760 582,-2029 1663,-2835 445,281 972,444 1537,444 565,0 1092,-163 1537,-444 1082,807 1663,1074 1663,2834zm-1920 -1750c-530,0 -960,430 -960,960 0,530 430,960 960,960 530,0 960,-430 960,-960 0,-530 -430,-960 -960,-960zm-2560 0c-530,0 -960,430 -960,960 0,530 430,960 960,960 530,0 960,-430 960,-960 0,-530 -430,-960 -960,-960z"/>
	<path id="curve1" fill="#252525" d="M5120 1280c353,0 640,287 640,640l-640 0 0 -640 0 0zm0 1280c-353,0 -640,-287 -640,-640l0 0 640 0 0 640z"/>
	<path id="curve0" fill="#252525" d="M5120 640c1414,0 2560,1146 2560,2560 0,1414 -1146,2560 -2560,2560 -1414,0 -2560,-1146 -2560,-2560 0,-1414 1146,-2560 2560,-2560zm0 320c-530,0 -960,430 -960,960 0,530 430,960 960,960 530,0 960,-430 960,-960 0,-530 -430,-960 -960,-960z"/>
</svg>
