/* XPM */ 
static char * vs_xpm[] = {
"32 32 160 2",
"  	c None",
"! 	c black",
"# 	c #279127",
"$ 	c #2C962C",
"% 	c #309C30",
"& 	c #35A135",
"' 	c #39A739",
"( 	c #3EAD3E",
") 	c #42B242",
"* 	c #46B746",
"+ 	c #4BBD4B",
", 	c #4FC34F",
"- 	c #54C854",
". 	c #58CE58",
"0 	c #5CD35C",
"1 	c #61D861",
"2 	c #65DE65",
"3 	c #6AE46A",
"4 	c #6EE96E",
"5 	c #73EF73",
"6 	c #77F477",
"7 	c #7BF97B",
"8 	c #80FF80",
"9 	c #48B648",
": 	c #4CBC4C",
"; 	c #47B147",
"< 	c #4CB54C",
"= 	c #50BB50",
"> 	c #53BF53",
"? 	c #359035",
"@ 	c #225B22",
"A 	c #1B461B",
"B 	c #1D481D",
"C 	c #296329",
"D 	c #47A747",
"E 	c #59C459",
"F 	c #E8F6E7",
"G 	c #F3F9F3",
"H 	c #F5F8F4",
"I 	c #F6F8F4",
"J 	c #DCFADC",
"K 	c #9BF79B",
"L 	c #184218",
"M 	c #091609",
"N 	c #276127",
"O 	c #1F4A1F",
"P 	c #48A148",
"Q 	c #76CE76",
"R 	c #F7F8F6",
"S 	c #C1F4C1",
"T 	c #A0F4A0",
"U 	c #B6F7B6",
"V 	c #F2F9F1",
"W 	c #FBFAFA",
"X 	c #F9F9F8",
"Y 	c #B6F3B6",
"Z 	c #296E29",
"[ 	c #398339",
"] 	c #4BA64B",
"^ 	c #81D380",
"_ 	c #9DF19D",
"` 	c #8DF78D",
"a 	c #8DE88D",
"b 	c #153815",
"c 	c #225422",
"d 	c #132913",
"e 	c #4FAA4F",
"f 	c #87D787",
"g 	c #D8F5D6",
"h 	c #CFF0CE",
"i 	c #122E12",
"j 	c #040B04",
"k 	c #419A41",
"l 	c #448F44",
"m 	c #60CB60",
"n 	c #88DB88",
"o 	c #C5F3C5",
"p 	c #E9F5E8",
"q 	c #2C6D2C",
"r 	c #173517",
"s 	c #3E8A3E",
"t 	c #63D563",
"u 	c #71E871",
"v 	c #8DDE8D",
"w 	c #DFFADF",
"x 	c #DEF9DE",
"y 	c #DEF7DE",
"z 	c #DCF6DC",
"{ 	c #DBF5DB",
"| 	c #F4F7F3",
"} 	c #EDF6EC",
"~ 	c #204C20",
" !	c #060D06",
"!!	c #3F7B3F",
"#!	c #8DE18D",
"$!	c #E9F8E8",
"%!	c #E9F7E7",
"&!	c #E8F6E6",
"'!	c #E5F4E3",
"(!	c #E1F4E1",
")!	c #E1F2DF",
"*!	c #A8E2A8",
"+!	c #1F441F",
",!	c #080808",
"-!	c #356C35",
".!	c #8CE78C",
"0!	c #449E44",
"1!	c #67DA67",
"2!	c #397739",
"3!	c #7CD37C",
"4!	c #72CD72",
"5!	c #0B1A0B",
"6!	c #459845",
"7!	c #448B44",
"8!	c #7DB87D",
"9!	c #81E981",
":!	c #66CC66",
";!	c #F3F6F2",
"<!	c #CAE8C8",
"=!	c #183618",
">!	c #1A381A",
"?!	c #5FBF5F",
"@!	c #020202",
"A!	c #8AD289",
"B!	c #E3F5E1",
"C!	c #6EDE6E",
"D!	c #6DCE6D",
"E!	c #ECF4EA",
"F!	c #F5F7F4",
"G!	c #6BC46B",
"H!	c #264D26",
"I!	c #1C3B1C",
"J!	c #84D784",
"K!	c #D8F0D8",
"L!	c #CAEBC9",
"M!	c #DFF0DE",
"N!	c #F8F8F7",
"O!	c #8FD08D",
"P!	c #449144",
"Q!	c #060E06",
"R!	c #0E1E0E",
"S!	c #1F3F1F",
"T!	c #7FD37E",
"U!	c #F0F7EE",
"V!	c #FAF9F9",
"W!	c #D3ECD3",
"X!	c #6CC46C",
"Y!	c #5CBA5C",
"Z!	c #3F7F3F",
"[!	c #3D7C3D",
"]!	c #428842",
"^!	c #5DC25D",
"_!	c #62CA62",
"`!	c #69D269",
"a!	c #6FD06F",
"b!	c #6CCC6C",
"c!	c #60C460",
"d!	c #58C458",
"e!	c #49B449",
"f!	c #45AE45",
"                                                                ",
"                    # # # # # # # # # # # # # # # # # # #       ",
"                  # $ % & ' ( ) * + , - . 0 1 2 3 4 5 6 7 #     ",
"                # $ % & ' ( ) * + , - . 0 1 2 3 4 5 6 7 8 7 #   ",
"              # $ % & ' ( ) * 9 : - . 0 1 2 3 4 5 6 7 8 7 6 #   ",
"            # $ % & ' ( ) * + ; ! . 0 1 2 3 4 5 6 7 8 7 6 5 #   ",
"          # $ % & ' ( ) * + , < ! 0 1 2 3 4 5 6 7 8 7 6 5 4 #   ",
"        # $ % & ' ( ) * + , - = ! 1 2 3 4 5 6 7 8 7 6 5 4 3 #   ",
"      # $ % & ' ( ) * + , - . > ! 2 3 4 5 6 7 8 7 6 5 4 3 2 #   ",
"    # $ % & ' ( ? @ A B C D 0 E ! F G H I G J K 6 5 4 3 2 1 #   ",
"  # $ % & ' ( L ! M N O ! ! P Q ! R S T U V W X Y 4 3 2 1 0 #   ",
"  # % & ' ( Z ! M , - . [ ! ] ^ ! _ 6 7 8 ` H W R a 2 1 0 . #   ",
"  # & ' ( ) b ! c - . 0 1 d e f ! 6 7 8 7 6 g W W h 1 0 . - #   ",
"  # ' ( ) * i ! j k 0 1 2 l m n ! 7 8 7 6 5 o W W p 0 . - , #   ",
"  # ( ) * + q ! ! ! r s t u 5 v ! w x y z { | W W } . - , + #   ",
"  # ) * + , - ~ ! ! ! !  !!!6 #!! $!$!%!F &!'!(!)!*!- , + * #   ",
"  # * + , - . 0 P +!! ! ! ,!-!.!! 6 5 4 3 2 1 0 . - , + * ) #   ",
"  # + , - . 0!1 2 3 1!2!! ,!! #!! 5 4 3 2 1 0 . 3!4!+ * ) ( #   ",
"  # , - . 0 5!6!3 4 5 6 7!,!! 8!! 9!3 2 1 0 . :!;!<!* ) ( ' #   ",
"  # - . 0 1 =!>!4 5 6 7 ?!@!! A!! B!C!1 0 . D!E!F!G!) ( ' & #   ",
"  # . 0 1 2 >!! 2!6 7 8 H!! I!J!! W F!K!L!M!X N!O!) ( ' & % #   ",
"  # 0 1 2 3 P!Q!! R!S!R!! I!1!T!! U!N!V!X | W!X!) ( ' & % $ #   ",
"  # 1 2 3 4 5 6 Y!Z![!]!^!4 3 _!! 0 `!a!b!c!* ) ( ' & % $ #     ",
"  # 2 3 4 5 6 7 8 7 6 5 4 3 2 d!! . - , + * ) ( ' & % $ #       ",
"  # 3 4 5 6 7 8 7 6 5 4 3 2 1 > ! - , + * ) ( ' & % $ #         ",
"  # 4 5 6 7 8 7 6 5 4 3 2 1 0 = ! , + * ) ( ' & % $ #           ",
"  # 5 6 7 8 7 6 5 4 3 2 1 0 . < ! + * ) ( ' & % $ #             ",
"  # 6 7 8 7 6 5 4 3 2 1 0 . - e!f!* ) ( ' & % $ #               ",
"  # 7 8 7 6 5 4 3 2 1 0 . - , + * ) ( ' & % $ #                 ",
"    # 7 6 5 4 3 2 1 0 . - , + * ) ( ' & % $ #                   ",
"      # # # # # # # # # # # # # # # # # # #                     ",
"                                                                "};
