<svg version="1.1"
    xmlns="http://www.w3.org/2000/svg"
    xmlns:xlink="http://www.w3.org/1999/xlink" width="512" height="512" viewBox="0 0 512 512">
    <title>element icon</title>
    <desc>element icon from the IconExperience.com G-Collection. Copyright by INCORS GmbH (www.incors.com).</desc>
    <defs>
        <linearGradient x1="96" y1="128" x2="351.5735" y2="384.001" gradientUnits="userSpaceOnUse" id="color-1">
            <stop offset="0" stop-color="#4cb5f2"/>
            <stop offset="1" stop-color="#19a1ee"/>
        </linearGradient>
    </defs>
    <g fill="url(#color-1)" fill-rule="evenodd" stroke="#252525" stroke-width="10" stroke-linecap="butt" stroke-linejoin="round" stroke-miterlimit="10" stroke-dasharray="" stroke-dashoffset="0" font-family="none" font-weight="none" text-anchor="none" style="mix-blend-mode: normal" transform="translate(64,0)">
        <path d="M112,128l288,0c9,0 16,7 16,16l0,224c0,9 -7,16 -16,16l-288,0c-9,0 -16,-7 -16,-16l0,-224c0,-9 7,-16 16,-16z" id="curve0"/>
    </g>

<g transform="translate(0,64) scale(0.0375,0.0375)">
	<desc>arrow_left icon from the IconExperience.com O-Collection. Copyright by INCORS GmbH (www.incors.com).</desc>
	<path id="curve0" fill="#ED9A56" d="M5818 2502l-1647 1647 5120 0c176,0 320,144 320,320l0 1280c0,176 -144,320 -320,320l-5120 0 1647 1647c47,46 60,113 35,174 -26,61 -82,99 -148,99l-2064 0c-176,0 -328,-63 -452,-188l-2467 -2466c-124,-124 -124,-328 0,-452l2467 -2467c124,-124 276,-187 452,-187l2064 0c66,0 122,38 148,99 25,61 12,127 -35,174z"/>
</g>

</svg>
