<?xml version="1.0" encoding="UTF-8"?>
<!DOCTYPE svg PUBLIC "-//W3C//DTD SVG 1.1//EN" "http://www.w3.org/Graphics/SVG/1.1/DTD/svg11.dtd">
<svg xmlns="http://www.w3.org/2000/svg" xml:space="preserve" width="1024px" height="1024px" shape-rendering="geometricPrecision" text-rendering="geometricPrecision" image-rendering="optimizeQuality" fill-rule="nonzero" clip-rule="evenodd" viewBox="0 0 10240 10240" xmlns:xlink="http://www.w3.org/1999/xlink">
<g transform="translate(1280,0)">
	<title>breakpoint icon</title>
	<desc>breakpoint icon from the IconExperience.com O-Collection. Copyright by INCORS GmbH (www.incors.com).</desc>
	<path id="curve0" fill="#E63736" d="M2560 1920l5120 0c353,0 640,287 640,640l0 5120c0,352 -287,640 -640,640l-5120 0c-353,0 -640,-288 -640,-640l0 -5120c0,-353 287,-640 640,-640z"/>
</g>

<g comp-op="clear">
<g transform="translate(0,1280) scale(0.75,0.75)"  stroke="#252525" stroke-width="512" stroke-linejoin="round">
	<title>media_play icon</title>
	<desc>media_play icon from the IconExperience.com O-Collection. Copyright by INCORS GmbH (www.incors.com).</desc>
	<path id="curve0" fill="#2CA744" d="M2878 1364l5757 3209c207,115 325,314 325,547 0,233 -118,432 -325,547l-5757 3209c-204,113 -436,112 -639,-4 -203,-116 -319,-313 -319,-544l0 -6416c0,-231 116,-428 319,-544 203,-116 435,-117 639,-4z"/>
</g>
</g>



<g transform="translate(0,1280) scale(0.75,0.75)">
	<title>media_play icon</title>
	<desc>media_play icon from the IconExperience.com O-Collection. Copyright by INCORS GmbH (www.incors.com).</desc>
	<path id="curve0" fill="#2CA744" d="M2878 1364l5757 3209c207,115 325,314 325,547 0,233 -118,432 -325,547l-5757 3209c-204,113 -436,112 -639,-4 -203,-116 -319,-313 -319,-544l0 -6416c0,-231 116,-428 319,-544 203,-116 435,-117 639,-4z"/>
</g>

</svg>
