<?xml version="1.0" encoding="UTF-8"?>
<!DOCTYPE svg PUBLIC "-//W3C//DTD SVG 1.1//EN" "http://www.w3.org/Graphics/SVG/1.1/DTD/svg11.dtd">
<svg xmlns="http://www.w3.org/2000/svg" xml:space="preserve" width="1024px" height="1024px" shape-rendering="geometricPrecision" text-rendering="geometricPrecision" image-rendering="optimizeQuality" fill-rule="nonzero" clip-rule="evenodd" viewBox="0 0 10240 10240" xmlns:xlink="http://www.w3.org/1999/xlink">
	<title>sign_forbidden icon</title>
	<desc>sign_forbidden icon from the IconExperience.com O-Collection. Copyright by INCORS GmbH (www.incors.com).</desc>
    <circle fill="white" cx="5120" cy="5120" r="3600"/>
	<path id="curve0" fill="#E63736" d="M640 5120c0,-2474 2006,-4480 4480,-4480 2474,0 4480,2006 4480,4480 0,2474 -2006,4480 -4480,4480 -2474,0 -4480,-2006 -4480,-4480zm1789 1731l4422 -4422c-499,-322 -1093,-509 -1731,-509 -1767,0 -3200,1433 -3200,3200 0,638 187,1232 509,1731zm5382 -3462l-4422 4422c499,322 1093,509 1731,509 1767,0 3200,-1433 3200,-3200 0,-638 -187,-1232 -509,-1731z"/>
</svg>
