<?xml version="1.0" encoding="UTF-8"?>
<!DOCTYPE svg PUBLIC "-//W3C//DTD SVG 1.1//EN" "http://www.w3.org/Graphics/SVG/1.1/DTD/svg11.dtd">
<svg xmlns="http://www.w3.org/2000/svg" xml:space="preserve" width="1024px" height="1024px" shape-rendering="geometricPrecision" text-rendering="geometricPrecision" image-rendering="optimizeQuality" fill-rule="nonzero" clip-rule="evenodd" viewBox="0 0 10240 10240" xmlns:xlink="http://www.w3.org/1999/xlink">
	<title>breakpoint icon</title>
	<desc>breakpoint icon from the IconExperience.com O-Collection. Copyright by INCORS GmbH (www.incors.com).</desc>
	<path id="curve0" fill="#2CA744" d="M2560 1920l5120 0c353,0 640,287 640,640l0 5120c0,352 -287,640 -640,640l-5120 0c-353,0 -640,-288 -640,-640l0 -5120c0,-353 287,-640 640,-640z"/>


<g transform="translate(1706,1706) scale(0.66,0.66)">
	<title>breakpoint icon</title>
	<desc>breakpoint icon from the IconExperience.com O-Collection. Copyright by INCORS GmbH (www.incors.com).</desc>
	<path id="curve0" fill="white" d="M2560 1920l5120 0c353,0 640,287 640,640l0 5120c0,352 -287,640 -640,640l-5120 0c-353,0 -640,-288 -640,-640l0 -5120c0,-353 287,-640 640,-640z"/>
</g>
</svg>
