<?xml version="1.0" encoding="UTF-8"?>
<!DOCTYPE svg PUBLIC "-//W3C//DTD SVG 1.1//EN" "http://www.w3.org/Graphics/SVG/1.1/DTD/svg11.dtd">
<svg xmlns="http://www.w3.org/2000/svg" xml:space="preserve" width="1024px" height="1024px" shape-rendering="geometricPrecision" text-rendering="geometricPrecision" image-rendering="optimizeQuality" fill-rule="nonzero" clip-rule="evenodd" viewBox="0 0 10240 10240" xmlns:xlink="http://www.w3.org/1999/xlink">
	<title>sort_up_down icon</title>
	<desc>sort_up_down icon from the IconExperience.com O-Collection. Copyright by INCORS GmbH (www.incors.com).</desc>
	<path id="curve0" fill="#235DB8" d="M7173 2747l-1827 -1826c-124,-124 -328,-124 -452,0l-1827 1826c-124,125 -187,277 -187,453l0 1159c0,66 38,122 99,147 61,26 127,13 174,-34l1327 -1327 0 3950 -1327 -1327c-47,-46 -113,-60 -174,-34 -61,25 -99,81 -99,147l0 1159c0,176 63,328 187,453l1827 1826c124,124 328,124 452,0l1827 -1826c124,-125 187,-277 187,-453l0 -1159c0,-66 -38,-122 -99,-147 -61,-26 -127,-12 -174,34l-1327 1327 0 -3950 1327 1327c47,46 113,60 174,34 61,-25 99,-81 99,-147l0 -1159c0,-176 -63,-328 -187,-453z"/>
</svg>
