/* XPM */ 
static const unsigned char * vse32_community_xpm[] = {
"48 48 182 2",
"  	c None",
"! 	c black",
"# 	c #CE6734",
"$ 	c #D46A35",
"% 	c #E8743A",
"& 	c #D96D36",
"' 	c #E17138",
"( 	c #F0783C",
") 	c #F67C3E",
"* 	c #FE8040",
"+ 	c #FF8344",
", 	c #FF8648",
"- 	c #FF894D",
". 	c #FF8D53",
"0 	c #FF9058",
"1 	c #FF945E",
"2 	c #FF9763",
"3 	c #FF9B69",
"4 	c #FF9F6E",
"5 	c #FFA172",
"6 	c #FFA477",
"7 	c #FFA87D",
"8 	c #FFAC82",
"9 	c #FFB088",
": 	c #FFB28B",
"; 	c #FFB691",
"< 	c #FFB996",
"= 	c #FFBD9C",
"> 	c #FFC0A1",
"? 	c #FFC4A7",
"@ 	c #FFC8AC",
"A 	c #FFCCB2",
"B 	c #FFCEB5",
"C 	c #FFD2BB",
"D 	c #F67B3E",
"E 	c #FC7F3F",
"F 	c #FF8142",
"G 	c #FF8547",
"H 	c #FF874A",
"I 	c #FF8A4E",
"J 	c #FF8C51",
"K 	c #EE783C",
"L 	c #8B4623",
"M 	c #442211",
"N 	c #351A0D",
"O 	c #391C0E",
"P 	c #4C2613",
"Q 	c #9F5028",
"R 	c #FF9057",
"S 	c #FF9159",
"T 	c #FFB894",
"U 	c #FFE2D3",
"V 	c #FFEDE5",
"W 	c #FFF2EC",
"X 	c #FFF0E9",
"Y 	c #FFE8DD",
"Z 	c #FFE0D0",
"[ 	c #FFD4BF",
"] 	c #763B1E",
"^ 	c #100804",
"_ 	c #FFEDE4",
"` 	c #FFFAF8",
"a 	c #FFEFE7",
"b 	c #FFEEE6",
"c 	c #FFF4EE",
"d 	c #FFE1D3",
"e 	c #884422",
"f 	c #6D371B",
"g 	c #FF9863",
"h 	c #793D1E",
"i 	c #AE572C",
"j 	c #FFCDB4",
"k 	c #FFC7AB",
"l 	c #FFE0D1",
"m 	c #FFF5F1",
"n 	c #FFC4A6",
"o 	c #532A15",
"p 	c #B2592D",
"q 	c #FFF0E8",
"r 	c #FFDDCC",
"s 	c #FFDAC8",
"t 	c #BA5D2F",
"u 	c #FF9E6D",
"v 	c #FFD7C2",
"w 	c #FFC9AE",
"x 	c #FFF4EF",
"y 	c #FFF7F3",
"z 	c #FFC1A1",
"{ 	c #8F4824",
"| 	c #FF945D",
"} 	c #040201",
"~ 	c #BE5F30",
" !	c #FFA274",
"!!	c #FFCFB7",
"#!	c #FFE6D9",
"$!	c #FFD5C0",
"%!	c #A35229",
"&!	c #FFBA97",
"'!	c #FFA67A",
"(!	c #FFCBB1",
")!	c #7D3F1F",
"*!	c #FFBF9F",
"+!	c #FFC0A0",
",!	c #FFA97E",
"-!	c #FFE5D8",
".!	c #894522",
"0!	c #140A05",
"1!	c #A05028",
"2!	c #FFA577",
"3!	c #FFC3A5",
"4!	c #FFAA80",
"5!	c #FFE6DA",
"6!	c #FFE4D7",
"7!	c #FFE2D4",
"8!	c #FFE3D5",
"9!	c #FFE7DC",
":!	c #904824",
";!	c #D36A35",
"<!	c #FFAE85",
"=!	c #FFF7F4",
">!	c #FFF1EA",
"?!	c #FFD3BD",
"@!	c #FF8141",
"A!	c #6B361B",
"B!	c #180C06",
"C!	c #9A4D27",
"D!	c #FFB18A",
"E!	c #FFD0B8",
"F!	c #FFCBB0",
"G!	c #FFC5A8",
"H!	c #FFC1A2",
"I!	c #FFBC9A",
"J!	c #FFB48E",
"K!	c #FFAA7F",
"L!	c #E6743A",
"M!	c #5B2E17",
"N!	c #080402",
"O!	c #FFAD84",
"P!	c #FF9660",
"Q!	c #FF925B",
"R!	c #160B06",
"S!	c #CC6733",
"T!	c #FFCAAF",
"U!	c #FFA374",
"V!	c #542A15",
"W!	c #633219",
"X!	c #FFD2BC",
"Y!	c #FFEADF",
"Z!	c #4B2613",
"[!	c #0C0603",
"]!	c #FFA476",
"^!	c #FFE4D6",
"_!	c #FFD9C5",
"`!	c #FFB590",
"a!	c #844221",
"b!	c #DA6E37",
"c!	c #FFD1B9",
"d!	c #B45A2D",
"e!	c #FFA87C",
"f!	c #FFBB99",
"g!	c #FFA578",
"h!	c #FFF3ED",
"i!	c #FFA06F",
"j!	c #AC562B",
"k!	c #FF8D54",
"l!	c #FF9C6A",
"m!	c #FFF8F5",
"n!	c #FFD8C4",
"o!	c #2E170C",
"p!	c #FF9864",
"q!	c #FFE5D9",
"r!	c #FFECE3",
"s!	c #FFF3EE",
"t!	c #FFEAE0",
"u!	c #CF6834",
"v!	c #653319",
"w!	c #C86532",
"x!	c #FF925A",
"y!	c #FFB189",
"z!	c #FFC6A9",
"{!	c #FFC2A3",
"|!	c #FF8649",
"                                                                                                ",
"                                                                                                ",
"                            # # # # # # # # # # # # # # # # # # # # # # # # # # # # # #         ",
"                          # $ % % % % % % % % % % % % % % % % % % % % % % % % % % % % % #       ",
"                        # $ & ' % ( ) * + , - . 0 1 2 3 4 5 6 7 8 9 : ; < = > ? @ A B % % #     ",
"                      # $ & ' % ( ) * + , - . 0 1 2 3 4 5 6 7 8 9 : ; < = > ? @ A B C B % #     ",
"                    # $ & ' % ( ) * + , - . 0 1 D E 4 5 6 7 8 9 : ; < = > ? @ A B C B A % #     ",
"                  # $ & ' % ( ) * + , - . 0 1 2 E ! 5 6 7 8 9 : ; < = > ? @ A B C B A @ % #     ",
"                # $ & ' % ( ) * + , - . 0 1 2 3 F ! 6 7 8 9 : ; < = > ? @ A B C B A @ ? % #     ",
"              # $ & ' % ( ) * + , - . 0 1 2 3 4 G ! 7 8 9 : ; < = > ? @ A B C B A @ ? > % #     ",
"            # $ & ' % ( ) * + , - . 0 1 2 3 4 5 H ! 8 9 : ; < = > ? @ A B C B A @ ? > = % #     ",
"          # $ & ' % ( ) * + , - . 0 1 2 3 4 5 6 I ! 9 : ; < = > ? @ A B C B A @ ? > = < % #     ",
"        # $ & ' % ( ) * + , - . 0 1 2 3 4 5 6 7 J ! : ; < = > ? @ A B C B A @ ? > = < ; % #     ",
"      # $ & ' % ( ) * + , K L M N ! O P Q R 7 8 S ! T B U V W X Y Z [ B A @ ? > = < ; : % #     ",
"    # $ & ' % ( ) * + , ] ! ! ^ P P ^ ! ! ! $ 9 1 ! _ ` ` a b X ` ` c d A ? > = < ; : 9 % #     ",
"    # & ' % ( ) * + , e ! ! f . 3 4 g h ! ! i : 2 ! ` W j k A B l m ` ` X n = < ; : 9 8 % #     ",
"    # ' % ( ) * + , K ! ! ! . 3 4 5 6 7 o ! p ; 3 ! q A @ A B C B r ` ` ` s < ; : 9 8 7 % #     ",
"    # % ( ) * + , - i ! ! P 3 4 5 6 7 8 K ! t < u ! v @ A B C B A w x ` ` y z : 9 8 7 6 % #     ",
"    # % ) * + , - . { ! ! ^ | 5 6 7 8 9 : } ~ =  !! !!A B C B A @ ? #!` ` ` $!9 8 7 6 5 % #     ",
"    # % * + , - . 0 %!! ! ! O R 7 8 9 : ; &!= > '!! (!B C B A @ ? > s ` ` ` Z 8 7 6 5 4 % #     ",
"    # % + , - . 0 1 + ! ! ! ! ! )!K : ; < *!+!? ,!! B C B A @ ? > = r ` ` ` -!7 6 5 4 3 % #     ",
"    # % , - . 0 1 2 3 .!! ! ! ! ! ! 0!1!2!3!n @ 4!! Y Y 5!5!6!7!l 8!y ` ` ` 9!6 5 4 3 2 % #     ",
"    # % - . 0 1 2 3 4 5 :!! ! ! ! ! ! ! ! ;!k A <!! y y y y y y y =!x x x >!?!5 4 3 2 1 % #     ",
"    # % . 0 1 2 3 4 5 6 7 @!A!! ! ! ! ! ! B!C!B D!! E!B F!k G!H!*!I!< ; J!8 5 4 3 2 1 0 % #     ",
"    # % 0 1 2 3 4 5 6 7 8 9 : K!L!M!! ! ! B!N!,!O!! @ ? > = < ; : 9 8 7 6 5 4 3 2 1 0 . % #     ",
"    # % 1 2 3 4 5 6 I P!9 : ; < = > Q!R!! B!N!S!4!! T!> = < ; : 9 8 7 6 5 U!3 2 1 0 . - % #     ",
"    # % 2 3 4 5 6 7 o V!: ; < = > ? @ 2 ! B!N!W!'!! X!= < ; : 9 8 7 6 5 ,!Y!3!1 0 . - , % #     ",
"    # % 3 4 5 6 7 8 V!! 4 < = > ? @ A B Z![!N!h ]!! ^!< ; : 9 8 7 6 5 4 _!` `!0 . - , + % #     ",
"    # % 4 5 6 7 8 9 a!! e = > ? @ A B C Z!! } b! !! ` l J!9 8 7 6 5 u $!` c!0 . - , + * % #     ",
"    # % 5 6 7 8 9 : d!! ! K ? @ A B C e!! ! ! e!4 ! ` ` l f!K!g!2!D!l ` h!i!. - , + * ) % #     ",
"    # % 6 7 8 9 : ; t ! ! ! j!D!B C k!R!! ! K = l!! ` ` ` m!a Y!X ` ` n!]!. - , + * ) ( % #     ",
"    # % 7 8 9 : ; < = ~ R!! ! ! ! ! ! ! o!+ = < p!! C q!r!h!y s!t!r 3!| . - , + * ) ( % ' #     ",
"    # % 8 9 : ; < = > ? @ 2 S!u!v!w!w!Q!> = < ; x!! 8 7 y!@ z!n {!5 0 . - , + * ) ( % ' % #     ",
"    # % 9 : ; < = > ? @ A B C B A @ ? > = < ; : R ! 7 6 5 4 3 2 1 0 . - , + * ) ( % ' & $       ",
"    # % : ; < = > ? @ A B C B A @ ? > = < ; : 9 J ! 6 5 4 3 2 1 0 . - , + * ) ( % ' & $         ",
"    # % ; < = > ? @ A B C B A @ ? > = < ; : 9 8 I ! 5 4 3 2 1 0 . - , + * ) ( % ' & $           ",
"    # % < = > ? @ A B C B A @ ? > = < ; : 9 8 7 H ! 4 3 2 1 0 . - , + * ) ( % ' & $             ",
"    # % = > ? @ A B C B A @ ? > = < ; : 9 8 7 6 G ! 3 2 1 0 . - , + * ) ( % ' & $               ",
"    # % > ? @ A B C B A @ ? > = < ; : 9 8 7 6 5 F ! 2 1 0 . - , + * ) ( % ' & $                 ",
"    # % ? @ A B C B A @ ? > = < ; : 9 8 7 6 5 4 E ! 1 0 . - , + * ) ( % ' & $                   ",
"    # % @ A B C B A @ ? > = < ; : 9 8 7 6 5 4 3 |!+ 0 . - , + * ) ( % ' & $                     ",
"    # % A B C B A @ ? > = < ; : 9 8 7 6 5 4 3 2 1 0 . - , + * ) ( % ' & $                       ",
"    # % B C B A @ ? > = < ; : 9 8 7 6 5 4 3 2 1 0 . - , + * ) ( % ' & $                         ",
"    # % % B A @ ? > = < ; : 9 8 7 6 5 4 3 2 1 0 . - , + * ) ( % ' & $                           ",
"      # % % % % % % % % % % % % % % % % % % % % % % % % % % % % % $                             ",
"        # # # # # # # # # # # # # # # # # # # # # # # # # # # # #                               ",
"                                                                                                ",
"                                                                                                "};