/* XPM */ 
static const unsigned char * vse32_standard_xpm[] = {
"48 48 234 2",
"  	c None",
"! 	c black",
"# 	c #23858C",
"$ 	c #26888F",
"% 	c #2E939A",
"& 	c #288B92",
"' 	c #2C8F96",
"( 	c #32979E",
") 	c #349BA2",
"* 	c #389FA6",
"+ 	c #3AA3AA",
", 	c #3EA5AC",
"- 	c #40A9B0",
". 	c #44ADB4",
"0 	c #46B0B8",
"1 	c #4AB4BC",
"2 	c #4CB8C0",
"3 	c #50BCC4",
"4 	c #52C0C8",
"5 	c #56C2CA",
"6 	c #58C6CE",
"7 	c #5CCAD2",
"8 	c #5ECED6",
"9 	c #62D2DA",
": 	c #64D4DC",
"; 	c #68D8E0",
"< 	c #6ADCE4",
"= 	c #6EE0E8",
"> 	c #70E4EC",
"? 	c #74E8F0",
"@ 	c #76ECF4",
"A 	c #7AF0F8",
"B 	c #7CF2FA",
"C 	c #80F6FE",
"D 	c #3E969C",
"E 	c #409AA0",
"F 	c #449CA2",
"G 	c #46A0A6",
"H 	c #48A2A8",
"I 	c #4AA5AC",
"J 	c #4CA7AE",
"K 	c #38939A",
"L 	c #20565A",
"M 	c #102A2C",
"N 	c #0C2122",
"O 	c #0E2324",
"P 	c #142E30",
"Q 	c #2A6064",
"R 	c #4CADB4",
"S 	c #52ACB2",
"T 	c #6ED8E0",
"U 	c #9AE5EA",
"V 	c #C2F1F2",
"W 	c #DEF4F6",
"X 	c #E8F8F7",
"Y 	c #E2F7F8",
"Z 	c #CCF5F8",
"[ 	c #B2F5F8",
"] 	c #88F6FE",
"^ 	c #1C494C",
"_ 	c #040A0A",
"` 	c #3A7F84",
"a 	c #58AEB4",
"b 	c #E0F4F3",
"c 	c #FAFAFA",
"d 	c #E2F6F5",
"e 	c #DCF6F8",
"f 	c #ECF7F8",
"g 	c #B8F4F8",
"h 	c #82ECF4",
"i 	c #205458",
"j 	c #1A4346",
"k 	c #48ABB2",
"l 	c #50B7BE",
"m 	c #20494C",
"n 	c #30686C",
"o 	c #5AB2B8",
"p 	c #8EE9F0",
"q 	c #78EAF2",
"r 	c #AEF7FC",
"s 	c #F2F8F6",
"t 	c #E0F8F8",
"u 	c #7AE4EC",
"v 	c #163234",
"w 	c #326A6E",
"x 	c #5EB6BC",
"y 	c #E4F5F6",
"z 	c #8AE9F0",
"{ 	c #ACF3F8",
"| 	c #B2ECF0",
"} 	c #2A6B70",
"~ 	c #428F94",
" !	c #366E72",
"!!	c #62B8BE",
"#!	c #A4EDF2",
"$!	c #7EEAF2",
"%!	c #EEF8F7",
"&!	c #F4F8F8",
"'!	c #80DDE4",
"(!	c #22585C",
")!	c #4CB3BA",
"*!	c #020202",
"+!	c #387074",
",!	c #68BCC2",
"-!	c #8CEDF4",
".!	c #CCF1F4",
"0!	c #AEE6EA",
"1!	c #286468",
"2!	c #6CDCE4",
"3!	c #70BEC4",
"4!	c #7CEEF6",
"5!	c #C6EBEE",
"6!	c #429FA6",
"7!	c #224B4E",
"8!	c #74E0E8",
"9!	c #72E2EA",
":!	c #70C2C8",
";!	c #BAECF0",
"<!	c #D0EEF0",
"=!	c #245356",
">!	c #060C0C",
"?!	c #2E5F62",
"@!	c #60C3CA",
"A!	c #78E4EC",
"B!	c #76E6EE",
"C!	c #70C4CA",
"D!	c #C8F7FA",
"E!	c #C6F5F8",
"F!	c #C4F3F6",
"G!	c #C2F1F4",
"H!	c #C0EFF2",
"I!	c #C8EFF2",
"J!	c #F6F8F6",
"K!	c #D8EEF0",
"L!	c #26575A",
"M!	c #447A7E",
"N!	c #76C6CC",
"O!	c #F6F8F8",
"P!	c #F0F6F6",
"Q!	c #E8F6F5",
"R!	c #B0E2E6",
"S!	c #469AA0",
"T!	c #1E4042",
"U!	c #0C0C0C",
"V!	c #2E5B5E",
"W!	c #78CAD0",
"X!	c #8AEFF6",
"Y!	c #88EDF4",
"Z!	c #86E9F0",
"[!	c #84E5EC",
"]!	c #82E3EA",
"^!	c #7EDFE6",
"_!	c #7CDDE4",
"`!	c #7AD9E0",
"a!	c #76D7DE",
"b!	c #74D3DA",
"c!	c #72D1D8",
"d!	c #66CBD2",
"e!	c #60CAD2",
"f!	c #42898E",
"g!	c #1A3638",
"h!	c #040404",
"i!	c #66C7CE",
"j!	c #74C6CC",
"k!	c #52B3BA",
"l!	c #56ACB2",
"m!	c #060D0E",
"n!	c #3E787C",
"o!	c #84E9F0",
"p!	c #5AC3CA",
"q!	c #183234",
"r!	c #1E3A3C",
"s!	c #6CC0C6",
"t!	c #9CEAF0",
"u!	c #DEF0EF",
"v!	c #9AD6D8",
"w!	c #5ABDC4",
"x!	c #162C2E",
"y!	c #060606",
"z!	c #24474A",
"{!	c #68BEC4",
"|!	c #CAEFF2",
"}!	c #BEE5E6",
"~!	c #84CBD0",
" #	c #244F52",
"!#	c #265154",
"##	c #408186",
"$#	c #C4EDF0",
"%#	c #6AD4DC",
"&#	c #54BEC6",
"'#	c #BAE1E4",
"(#	c #B2DFE0",
")#	c #326C70",
"*#	c #468D92",
"+#	c #66C5CC",
",#	c #62C7CE",
"-#	c #64B8BE",
".#	c #C8EBEE",
"0#	c #7CD8DC",
"1#	c #5AC6CE",
"2#	c #5CC5CC",
"3#	c #74CCD2",
"4#	c #CCEAEA",
"5#	c #EEF5F6",
"6#	c #60BBC2",
"7#	c #32666A",
"8#	c #6AD1D8",
"9#	c #54A6AC",
":#	c #60B6BC",
";#	c #F8F8F8",
"<#	c #E6F3F4",
"=#	c #EAF4F3",
">#	c #C0E2E4",
"?#	c #0E1B1C",
"@#	c #4C9AA0",
"A#	c #5CB2B8",
"B#	c #A6E6E8",
"C#	c #D2EEF0",
"D#	c #E2F2F1",
"E#	c #F0F6F4",
"F#	c #E0F0EF",
"G#	c #C8E6E8",
"H#	c #3E7A7E",
"I#	c #1E3C3E",
"J#	c #3C767A",
"K#	c #52ADB4",
"L#	c #70CDD4",
"M#	c #9CDCDE",
"N#	c #9ADADC",
"O#	c #98D8DA",
"P#	c #98D4D8",
"Q#	c #62BDC4",
"R#	c #50ABB2",
"S#	c #44A3AA",
"                                                                                                ",
"                                                                                                ",
"                            # # # # # # # # # # # # # # # # # # # # # # # # # # # # # #         ",
"                          # $ % % % % % % % % % % % % % % % % % % % % % % % % % % % % % #       ",
"                        # $ & ' % ( ) * + , - . 0 1 2 3 4 5 6 7 8 9 : ; < = > ? @ A B % % #     ",
"                      # $ & ' % ( ) * + , - . 0 1 2 3 4 5 6 7 8 9 : ; < = > ? @ A B C B % #     ",
"                    # $ & ' % ( ) * + , - . 0 1 D E 4 5 6 7 8 9 : ; < = > ? @ A B C B A % #     ",
"                  # $ & ' % ( ) * + , - . 0 1 2 E ! 5 6 7 8 9 : ; < = > ? @ A B C B A @ % #     ",
"                # $ & ' % ( ) * + , - . 0 1 2 3 F ! 6 7 8 9 : ; < = > ? @ A B C B A @ ? % #     ",
"              # $ & ' % ( ) * + , - . 0 1 2 3 4 G ! 7 8 9 : ; < = > ? @ A B C B A @ ? > % #     ",
"            # $ & ' % ( ) * + , - . 0 1 2 3 4 5 H ! 8 9 : ; < = > ? @ A B C B A @ ? > = % #     ",
"          # $ & ' % ( ) * + , - . 0 1 2 3 4 5 6 I ! 9 : ; < = > ? @ A B C B A @ ? > = < % #     ",
"        # $ & ' % ( ) * + , - . 0 1 2 3 4 5 6 7 J ! : ; < = > ? @ A B C B A @ ? > = < ; % #     ",
"      # $ & ' % ( ) * + , K L M N ! O P Q R 7 8 S ! T U V W X Y Z [ ] B A @ ? > = < ; : % #     ",
"    # $ & ' % ( ) * + , ^ ! ! _ P P _ ! ! ! ` 9 a ! b c c d e Y c c f g h ? > = < ; : 9 % #     ",
"    # & ' % ( ) * + , i ! ! j k 3 4 l m ! ! n : o ! c X p q A B r s c c t u = < ; : 9 8 % #     ",
"    # ' % ( ) * + , K ! ! ! k 3 4 5 6 7 v ! w ; x ! y z @ A B C B { c c c | < ; : 9 8 7 % #     ",
"    # % ( ) * + , - } ! ! P 3 4 5 6 7 8 ~ !  !< !!! #!@ A B C B A $!%!c c &!'!: 9 8 7 6 % #     ",
"    # % ) * + , - . (!! ! _ )!5 6 7 8 9 : *!+!= ,!! -!A B C B A @ ? .!c c c 0!9 8 7 6 5 % #     ",
"    # % * + , - . 0 1!! ! ! O R 7 8 9 : ; 2!= > 3!! 4!B C B A @ ? > | c c c 5!8 7 6 5 4 % #     ",
"    # % + , - . 0 1 6!! ! ! ! ! 7!~ : ; < 8!9!? :!! B C B A @ ? > = ;!c c c <!7 6 5 4 3 % #     ",
"    # % , - . 0 1 2 3 =!! ! ! ! ! ! >!?!@!A!B!@ C!! D!D!E!E!F!G!H!I!J!c c c K!6 5 4 3 2 % #     ",
"    # % - . 0 1 2 3 4 5 L!! ! ! ! ! ! ! ! M!q A N!! J!J!J!J!J!J!J!O!P!%!%!Q!R!5 4 3 2 1 % #     ",
"    # % . 0 1 2 3 4 5 6 7 S!T!! ! ! ! ! ! U!V!B W!! X!Y!Z![!]!^!_!`!a!b!c!d!5 4 3 2 1 0 % #     ",
"    # % 0 1 2 3 4 5 6 7 8 9 : e!f!g!! ! ! U!h!i!j!! @ ? > = < ; : 9 8 7 6 5 4 3 2 1 0 . % #     ",
"    # % 1 2 3 4 5 6 I k!9 : ; < = > l!m!! U!h!n!C!! o!> = < ; : 9 8 7 6 5 p!3 2 1 0 . - % #     ",
"    # % 2 3 4 5 6 7 v q!: ; < = > ? @ o ! U!h!r!s!! t!= < ; : 9 8 7 6 5 i!u!v!1 0 . - , % #     ",
"    # % 3 4 5 6 7 8 q!! w!< = > ? @ A B x!y!h!z!{!! |!< ; : 9 8 7 6 5 4 }!c ~!0 . - , + % #     ",
"    # % 4 5 6 7 8 9  #! !#= > ? @ A B C x!! *!##,!! c $#%#9 8 7 6 5 &#'#c (#0 . - , + * % #     ",
"    # % 5 6 7 8 9 : )#! ! *#? @ A B C +#! ! ! ,#-#! c c .#0#e!1#2#3#4#c 5#6#. - , + * ) % #     ",
"    # % 6 7 8 9 : ;  !! ! ! 7#8#B C 9#m!! ! *#= :#! c c c ;#<#u!=#c c >#{!. - , + * ) ( % #     ",
"    # % 7 8 9 : ; < = +!m!! ! ! ! ! ! ! ?#@#= < A#! B#C#D#5#&!E#F#G#v!)!. - , + * ) ( % ' #     ",
"    # % 8 9 : ; < = > ? @ o n!H#I#J#J#l!> = < ; K#! 8 7 L#M#N#O#P#Q#0 . - , + * ) ( % ' % #     ",
"    # % 9 : ; < = > ? @ A B C B A @ ? > = < ; : R#! 7 6 5 4 3 2 1 0 . - , + * ) ( % ' & $       ",
"    # % : ; < = > ? @ A B C B A @ ? > = < ; : 9 J ! 6 5 4 3 2 1 0 . - , + * ) ( % ' & $         ",
"    # % ; < = > ? @ A B C B A @ ? > = < ; : 9 8 I ! 5 4 3 2 1 0 . - , + * ) ( % ' & $           ",
"    # % < = > ? @ A B C B A @ ? > = < ; : 9 8 7 H ! 4 3 2 1 0 . - , + * ) ( % ' & $             ",
"    # % = > ? @ A B C B A @ ? > = < ; : 9 8 7 6 G ! 3 2 1 0 . - , + * ) ( % ' & $               ",
"    # % > ? @ A B C B A @ ? > = < ; : 9 8 7 6 5 F ! 2 1 0 . - , + * ) ( % ' & $                 ",
"    # % ? @ A B C B A @ ? > = < ; : 9 8 7 6 5 4 E ! 1 0 . - , + * ) ( % ' & $                   ",
"    # % @ A B C B A @ ? > = < ; : 9 8 7 6 5 4 3 S#6!0 . - , + * ) ( % ' & $                     ",
"    # % A B C B A @ ? > = < ; : 9 8 7 6 5 4 3 2 1 0 . - , + * ) ( % ' & $                       ",
"    # % B C B A @ ? > = < ; : 9 8 7 6 5 4 3 2 1 0 . - , + * ) ( % ' & $                         ",
"    # % % B A @ ? > = < ; : 9 8 7 6 5 4 3 2 1 0 . - , + * ) ( % ' & $                           ",
"      # % % % % % % % % % % % % % % % % % % % % % % % % % % % % % $                             ",
"        # # # # # # # # # # # # # # # # # # # # # # # # # # # # #                               ",
"                                                                                                ",
"                                                                                                "};