<svg version="1.1"
    xmlns="http://www.w3.org/2000/svg"
    xmlns:xlink="http://www.w3.org/1999/xlink" width="512" height="512" viewBox="0 0 512 512">
    <title>keys icon</title>
    <desc>keys icon from the IconExperience.com G-Collection. Copyright by INCORS GmbH (www.incors.com).</desc>
    <defs>
        <linearGradient x1="256" y1="0" x2="417.842" y2="174.29059" gradientUnits="userSpaceOnUse" id="color-1">
            <stop offset="0" stop-color="#b8e2fa"/>
            <stop offset="1" stop-color="#89cff7"/>
        </linearGradient>
        <linearGradient x1="55" y1="199" x2="218.42" y2="268.6995" gradientUnits="userSpaceOnUse" id="color-2">
            <stop offset="0" stop-color="#d8e0e8"/>
            <stop offset="1" stop-color="#bdc9d4"/>
        </linearGradient>
        <linearGradient x1="236.5" y1="407.59475" x2="130.25" y2="331.34425" gradientUnits="userSpaceOnUse" id="color-3">
            <stop offset="0" stop-color="#b3c0cd"/>
            <stop offset="0.14118" stop-color="#92a0ae"/>
            <stop offset="1" stop-color="#717f8f"/>
        </linearGradient>
        <linearGradient x1="76" y1="224.5" x2="94.1255" y2="238.2495" gradientUnits="userSpaceOnUse" id="color-4">
            <stop offset="0" stop-color="#91a0af"/>
            <stop offset="1" stop-color="#717f8f"/>
        </linearGradient>
        <linearGradient x1="157.64838" y1="55.05714" x2="333.64838" y2="183.05714" gradientUnits="userSpaceOnUse" id="color-5">
            <stop offset="0" stop-color="#717f8f"/>
            <stop offset="1" stop-color="#51616f"/>
        </linearGradient>
        <linearGradient x1="256.64488" y1="111.84304" x2="339.83188" y2="126.97154" gradientUnits="userSpaceOnUse" id="color-6">
            <stop offset="0" stop-color="#ffc001"/>
            <stop offset="0.45098" stop-color="#ffe081"/>
            <stop offset="1" stop-color="#ffc001"/>
        </linearGradient>
        <linearGradient x1="318.5" y1="407.5" x2="372.7" y2="416.077" gradientUnits="userSpaceOnUse" id="color-7">
            <stop offset="0" stop-color="#ffc001"/>
            <stop offset="0.38824" stop-color="#f8b901"/>
            <stop offset="1" stop-color="#f0b201"/>
        </linearGradient>
        <linearGradient x1="274.92397" y1="360.42397" x2="349.17747" y2="373.07947" gradientUnits="userSpaceOnUse" id="color-8">
            <stop offset="0" stop-color="#ffc412"/>
            <stop offset="0.36078" stop-color="#ffd041"/>
            <stop offset="1" stop-color="#ffc104"/>
        </linearGradient>
        <linearGradient x1="256.64488" y1="111.84304" x2="419.25288" y2="214.19354" gradientUnits="userSpaceOnUse" id="color-9">
            <stop offset="0" stop-color="#ffe081"/>
            <stop offset="0.67059" stop-color="#ffd041"/>
            <stop offset="1" stop-color="#ffc820"/>
        </linearGradient>
        <linearGradient x1="393" y1="160" x2="429.8325" y2="192.2285" gradientUnits="userSpaceOnUse" id="color-10">
            <stop offset="0" stop-color="#febf01"/>
            <stop offset="1" stop-color="#f8b901"/>
        </linearGradient>
    </defs>
    <g fill="none" fill-rule="none" stroke="none" stroke-width="1" stroke-linecap="butt" stroke-linejoin="miter" stroke-miterlimit="10" stroke-dasharray="" stroke-dashoffset="0" font-family="none" font-weight="none" text-anchor="none" style="mix-blend-mode: normal">
        <path d="M352,32c35.5,0 64,28.5 64,64c0,35.5 -28.5,64 -64,64c-35.5,0 -64,-28.5 -64,-64c0,-35.5 28.5,-64 64,-64z M352,0c-53,0 -96,43 -96,96c0,53 43,96 96,96c53,0 96,-43 96,-96c0,-53 -43,-96 -96,-96z" id="curve9" fill="url(#color-1)" fill-rule="nonzero"/>
        <path d="M58,361l122,-162l56.5,42.5l-30.5,40.5l-25.5,3.5c-5.5,1 -9.5,6 -8.5,11.5l3.5,25.5l0,0l-25.5,3.5c-5.5,1 -9.5,6 -8.5,11.5l3.5,25.5l0,0l-25.5,3.5c-5.5,1 -9.5,6 -8.5,11.5l3.5,25.5c-2,3 -5.5,4.5 -9,4l-41.5,-4c-5,-0.5 -9,-4 -9,-9l1,-26c0,-3 0.5,-5.5 2,-7.5z" id="curve8" fill="url(#color-2)" fill-rule="nonzero"/>
        <path d="M208,220.5l28.5,21l-30.5,40.5l-25.5,3.5c-5.5,1 -9.5,6 -8.5,11.5l3.5,25.5l-25.5,3.5c-5.5,1 -9.5,6 -8.5,11.5l3.5,25.5l-25.5,3.5c-5.5,1 -9.5,6 -8.5,11.5l3.5,25.5c-2,3 -5.5,4.5 -9,4l-35.5,-3.5z" id="curve7" fill="url(#color-3)" fill-rule="nonzero"/>
        <path d="M76,362l103.5,-137.5l8,6.5l-109.5,145z" id="curve6" fill="url(#color-4)" fill-rule="nonzero"/>
        <path d="M254,60.5l95.5,72c8.5,6.5 12,17 10,27c-2.5,0.5 -5,0.5 -7.5,0.5c-11,0 -21,-2.5 -30.5,-7.5c-12,4 -21.5,11.5 -25,21.5c12,9 26.5,15 42,17l-32,42.5c-17.5,23.5 -51,28.5 -74.5,10.5l-53,-40c-23.5,-17.5 -28.5,-51 -10.5,-74.5l48,-64c9,-11.5 25.5,-14 37.5,-5z M274,106.5c-12,1.5 -20.5,13 -19,25.5c2,12 13,20.5 25.5,19c12.5,-2 21,-13 19,-25.5c-1.5,-12.5 -13,-21 -25.5,-19z" id="curve5" fill="url(#color-5)" fill-rule="nonzero"/>
        <path d="M257.5,173c6.5,-37.5 52,-67.5 100,-60c17.5,3 33,11 45.5,21.5c-8,10.5 -19,18.5 -32,22.5c-6,-3 -13,-5.5 -20,-6.5c-12,-2 -23,-0.5 -32.5,3l0,0c-0.5,0.5 -1,0.5 -1,0.5l0,0c-0.5,0 -1,0.5 -1,0.5l-0.5,0l-0.5,0.5l-0.5,0c0,0 -0.5,0.5 -1,0.5l0,0l-0.5,0.5l-0.5,0l0,0l-0.5,0.5l0,0c0,0 -0.5,0 -0.5,0.5l-0.5,0c0,0 -0.5,0 -0.5,0.5l-0.5,0l-0.5,0.5l-0.5,0l-0.5,0.5l0,0.5l-0.5,0l-0.5,0.5l-0.5,0c0,0.5 -0.5,0.5 -0.5,0.5l0,0.5l0,0l-0.5,0l0,0l-0.5,0.5c0,0 -0.5,0 -0.5,0.5l-0.5,0c0,0 0,0.5 -0.5,0.5l0,0.5c0,0 -0.5,0 -0.5,0.5l-0.5,0l0,0.5l-0.5,0l-0.5,0.5l0,0.5c0,0 -0.5,0 -0.5,0.5l0,0c-0.5,0 -0.5,0.5 -0.5,0.5l-0.5,0.5c0,0 0,0 0,0.5l-0.5,0c0,0.5 0,0.5 -0.5,0.5l0,0.5l-0.5,0.5l0,0c0,0.5 -0.5,0.5 -0.5,1l0,0l-0.5,0.5l0,0.5c0,0 -0.5,0 -0.5,0.5l0,0c0,0.5 -0.5,0.5 -0.5,1l0,0c0,0 0,0.5 -0.5,0.5l0,0.5l0,0.5l-0.5,0c0,0.5 0,0.5 0,1l0,0l0,0l0,0c-1,2 -1.5,3.5 -1.5,5.5c-3.5,20.5 15.5,41 43,45.5c27.5,4.5 52.5,-8.5 56,-29c1,-4.5 0.5,-9 -0.5,-13.5c11.5,-5.5 21.5,-13 30,-22.5c7,14 10,29 7.5,42.5c-5.5,34.5 -37.5,58.5 -75,61.5l-18.5,105.5l6.5,1c3,0.5 5.5,4 5,7.5l-2,11c-0.5,3.5 -4,6 -7.5,5.5l-6,-1l-2.5,14l47.5,8l-4.5,25l-31.5,-5l-2,10l19.5,3.5l-2,12l12,2.5l-4,24.5l-47.5,-8c-1.5,8.5 -9.5,14.5 -18.5,13l-15.5,-2.5c-9,-1.5 -14.5,-10 -13,-18.5l14.5,-87l-6,-1c-3.5,-0.5 -5.5,-3.5 -5,-7l2,-11.5c0.5,-3.5 3.5,-5.5 7,-5l6.5,1l18,-106c-35,-15 -56.5,-48.5 -51,-82.5z" id="curve4" fill="url(#color-6)" fill-rule="evenodd"/>
        <path d="M331,407.5l47.5,8l-4.5,25l-31.5,-5l-2,10l19.5,3.5l-2,12l12,2.5l-4,24.5l-47.5,-8z" id="curve3" fill="url(#color-7)" fill-rule="evenodd"/>
        <path d="M337.5,369.5l6.5,1c3,0.5 5.5,4 5,7.5l-2,11c-0.5,3.5 -4,6 -7.5,5.5l-6,-1l-47.5,-8.5l-6,-1c-3.5,-0.5 -5.5,-3.5 -5,-7l2,-11.5c0.5,-3.5 3.5,-5.5 7,-5l6.5,1z" id="curve2" fill="url(#color-8)" fill-rule="evenodd"/>
        <path d="M257.5,173c6.5,-37.5 52,-67.5 100,-60c17.5,3 33,11 45.5,21.5c-8,10.5 -19,18.5 -32,22.5c-6,-3 -13,-5.5 -20,-6.5c-11.5,-2 -22.5,-0.5 -31.5,2.5c-12,4.5 -22.5,13.5 -24.5,26.5c-3.5,20.5 15.5,41 43,45.5c27.5,4.5 52.5,-8.5 56,-29c1,-4.5 0.5,-9 -0.5,-13.5c11.5,-5.5 21.5,-13 30,-22.5c7,14 10,29 7.5,42.5c-5.5,34.5 -37.5,58.5 -75,61.5l-47.5,-8.5c-35,-15 -56.5,-48.5 -51,-82.5z" id="curve1" fill="url(#color-9)" fill-rule="evenodd"/>
        <path d="M393,200.5c0.5,-1.5 1,-3 1,-4.5c1,-4.5 0.5,-9 -0.5,-13.5c11.5,-5.5 21.5,-13 30,-22.5c2.5,5.5 5,11 6.5,16.5c-10.5,10 -23,18.5 -37,24z" id="curve0" fill="url(#color-10)" fill-rule="evenodd"/>
    </g>
</svg>