<svg version="1.1"
    xmlns="http://www.w3.org/2000/svg"
    xmlns:xlink="http://www.w3.org/1999/xlink" width="512" height="512" viewBox="0 0 512 512">
    <title>atom icon</title>
    <desc>atom icon from the IconExperience.com G-Collection. Copyright by INCORS GmbH (www.incors.com).</desc>
    <defs>
        <radialGradient cx="182.61907" cy="214.18032" r="308.56324" fx="182.61907" fy="214.18032" gradientUnits="userSpaceOnUse" id="color-1">
            <stop offset="0" stop-color="#4eb6f2"/>
            <stop offset="0.4902" stop-color="#129eee"/>
            <stop offset="1" stop-color="#0e76b2"/>
        </radialGradient>
        <radialGradient cx="161.47727" cy="240.63946" r="293.54367" fx="161.47727" fy="240.63946" gradientUnits="userSpaceOnUse" id="color-2">
            <stop offset="0" stop-color="#129eee"/>
            <stop offset="0.25882" stop-color="#108ad0"/>
            <stop offset="1" stop-color="#0e76b2"/>
        </radialGradient>
        <linearGradient x1="0.11538" y1="127.96256" x2="302.63263" y2="360.66756" gradientUnits="userSpaceOnUse" id="color-3">
            <stop offset="0" stop-color="#b3c0cd"/>
            <stop offset="1" stop-color="#7e8c9b"/>
        </linearGradient>
    </defs>
    <g fill="none" fill-rule="none" stroke="none" stroke-width="1" stroke-linecap="butt" stroke-linejoin="miter" stroke-miterlimit="10" stroke-dasharray="" stroke-dashoffset="0" font-family="none" font-weight="none" text-anchor="none" style="mix-blend-mode: normal">
        <path d="M256,96c88.5,0 160,71.5 160,160c0,88.5 -71.5,160 -160,160c-88.5,0 -160,-71.5 -160,-160c0,-88.5 71.5,-160 160,-160z" id="curve2" fill="url(#color-1)" fill-rule="evenodd"/>
        <path d="M94.5,262.5c28.5,19.5 76.5,40.5 120.5,57c19,7 38,13.5 57,18.5c19,-5 38,-11.5 57,-18.5c32,-12 61,-25.5 85,-40c-2,15.5 -6.5,30 -12.5,43c-19,9.5 -39.5,18.5 -61.5,27c-2.5,1 -5,1.5 -7.5,2.5c16,3 31.5,5 46.5,6.5c-9,10.5 -19.5,20.5 -31,28.5c-24,-3.5 -50,-9 -76,-16c-36,10 -71.5,16.5 -103,19c-13,-8 -24.5,-18.5 -34.5,-30c5.5,0 11,0 17,-0.5c18.5,-1 39,-3.5 60,-7.5c-2.5,-1 -5,-1.5 -7.5,-2.5c-39,-15 -73.5,-31.5 -102,-49c-3.5,-15.5 5,-28 -7.5,-38z" id="curve1" fill="url(#color-2)" fill-rule="evenodd"/>
        <path d="M384,160c45,-1.5 78.5,4.5 91.5,19.5c2,1.5 3,3.5 3.5,5.5c2,5 1,11.5 -3,19c-5,10 -14,20.5 -26.5,31.5c-11.5,-8.5 -25.5,-17 -40.5,-25.5c4,13 6.5,27 7,41c2.5,1.5 5,3.5 7.5,5c-29,19.5 -66.5,39 -110.5,55.5c-19,7 -38,13.5 -57,18.5c-19,-5 -38,-11.5 -57,-18.5c-44,-16.5 -81.5,-36 -110.5,-55.5c2.5,-1.5 5,-3.5 7.5,-5c0.5,-14 3,-28 7,-41c-15,8.5 -29,17 -40.5,25.5c-12.5,-11 -21.5,-21.5 -26.5,-31.5c-4,-7.5 -5,-14 -3,-19c0.5,-2 1.5,-4 3.5,-5.5c13,-15 46.5,-21 91.5,-19.5c8,-11 18,-21 29,-29.5c-6.5,-1 -13.5,-1.5 -20,-2c-58,-3 -104,6.5 -124.5,30c-4.5,4.5 -7.5,9.5 -9.5,15c-5,14 -3.5,29.5 4.5,45c6,12 16,25 30,37.5c-14,12.5 -24,25.5 -30,37.5c-8,15.5 -9.5,31 -4.5,45c2,5.5 5,10.5 9.5,15c20.5,23.5 66.5,33 124.5,30c36,-2 76.5,-9 119,-20.5c42.5,11.5 83,18.5 119,20.5c58,3 104,-6.5 124.5,-30c4.5,-4.5 7.5,-9.5 9.5,-15c5,-14 3.5,-29.5 -4.5,-45c-6,-12 -16,-25 -30,-37.5c14,-12.5 24,-25.5 30,-37.5c8,-15.5 9.5,-31 4.5,-45c-2,-5.5 -5,-10.5 -9.5,-15c-20.5,-23.5 -66.5,-33 -124.5,-30c-6.5,0.5 -13.5,1 -20,2c11,8.5 21,18.5 29,29.5z M195.5,344c-21,4 -41.5,6.5 -60,7.5c-48.5,2.5 -85.5,-3.5 -99,-19c-2,-1.5 -3,-3.5 -3.5,-5.5c-2,-5 -1,-11.5 3,-19c5,-10 14,-20.5 26.5,-31.5c31.5,23 74.5,45.5 125.5,65c2.5,1 5,1.5 7.5,2.5z M316.5,344c2.5,-1 5,-1.5 7.5,-2.5c51,-19.5 94,-42 125.5,-65c12.5,11 21.5,21.5 26.5,31.5c4,7.5 5,14 3,19c-0.5,2 -1.5,4 -3.5,5.5c-13.5,15.5 -50.5,21.5 -99,19c-18.5,-1 -39,-3.5 -60,-7.5z" id="curve0" fill="url(#color-3)" fill-rule="nonzero"/>
    </g>
</svg>