<svg version="1.1"
    xmlns="http://www.w3.org/2000/svg"
    xmlns:xlink="http://www.w3.org/1999/xlink" width="512" height="512" viewBox="0 0 512 512">
    <title>painters palette icon</title>
    <desc>painters palette icon from the IconExperience.com G-Collection. Copyright by INCORS GmbH (www.incors.com).</desc>
    <defs>
        <linearGradient x1="32" y1="0" x2="369.501" y2="443.7505" gradientUnits="userSpaceOnUse" id="color-1">
            <stop offset="0" stop-color="#dca264"/>
            <stop offset="1" stop-color="#d08730"/>
        </linearGradient>
        <linearGradient x1="37.5" y1="55" x2="339.182" y2="461.717" gradientUnits="userSpaceOnUse" id="color-2">
            <stop offset="0" stop-color="#dca264"/>
            <stop offset="1" stop-color="#a76a2f"/>
        </linearGradient>
        <radialGradient cx="160.58528" cy="95.86901" r="79.48887" fx="160.58528" fy="95.86901" gradientUnits="userSpaceOnUse" id="color-3">
            <stop offset="0" stop-color="#ffd041"/>
            <stop offset="0.6902" stop-color="#ffc821"/>
            <stop offset="1" stop-color="#ffc001"/>
        </radialGradient>
        <radialGradient cx="271.79929" cy="78.50461" r="80.3574" fx="271.79929" fy="78.50461" gradientUnits="userSpaceOnUse" id="color-4">
            <stop offset="0" stop-color="#ed4a3e"/>
            <stop offset="0.76863" stop-color="#eb372a"/>
            <stop offset="1" stop-color="#ea2516"/>
        </radialGradient>
        <radialGradient cx="369.01603" cy="271.97711" r="87.08976" fx="369.01603" fy="271.97711" gradientUnits="userSpaceOnUse" id="color-5">
            <stop offset="0" stop-color="#129eee"/>
            <stop offset="0.6902" stop-color="#108ad0"/>
            <stop offset="1" stop-color="#0e76b2"/>
        </radialGradient>
        <radialGradient cx="336.59606" cy="144.22546" r="102.29627" fx="336.59606" fy="144.22546" gradientUnits="userSpaceOnUse" id="color-6">
            <stop offset="0" stop-color="#77da26"/>
            <stop offset="0.6902" stop-color="#68be21"/>
            <stop offset="1" stop-color="#59a31d"/>
        </radialGradient>
        <radialGradient cx="312.73336" cy="357.26739" r="70.18476" fx="312.73336" fy="357.26739" gradientUnits="userSpaceOnUse" id="color-7">
            <stop offset="0" stop-color="#717f8f"/>
            <stop offset="0.6902" stop-color="#61707f"/>
            <stop offset="1" stop-color="#51616f"/>
        </radialGradient>
        <radialGradient cx="195.60469" cy="376.30038" r="97.3158" fx="195.60469" fy="376.30038" gradientUnits="userSpaceOnUse" id="color-8">
            <stop offset="0" stop-color="#59a31d"/>
            <stop offset="0.4" stop-color="#4a8818"/>
            <stop offset="1" stop-color="#3b6d13"/>
        </radialGradient>
    </defs>
    <g fill="none" fill-rule="nonzero" stroke="none" stroke-width="1" stroke-linecap="butt" stroke-linejoin="miter" stroke-miterlimit="10" stroke-dasharray="" stroke-dashoffset="0" font-family="none" font-weight="none" text-anchor="none" style="mix-blend-mode: normal">
        <path d="M480,240c0,-147.5 -80,-240 -224,-240c-98.5,0 -224,112 -224,208c0,48 80,32 80,80c0,64 -80,64 -80,128c0,64 96,96 160,96c157,0 288,-108 288,-272z M192,192c26.5,0 48,21.5 48,48c0,26.5 -21.5,48 -48,48c-26.5,0 -48,-21.5 -48,-48c0,-26.5 21.5,-48 48,-48z" id="curve7" fill="url(#color-1)"/>
        <path d="M480,240c0,-80 -23.5,-143.5 -67.5,-185c39,41.5 59.5,102 59.5,177c0,164 -131,272 -288,272c-43.5,0 -101.5,-14.5 -134.5,-44c31,34.5 95.5,52 142.5,52c157,0 288,-108 288,-272z M37.5,227c12.5,17.5 43,21 61,34c-12.5,-17.5 -43,-21 -61,-34z" id="curve6" fill="url(#color-2)"/>
        <path d="M160,80c8,0 14.5,6 15.5,14c4.5,-3.5 9.5,-5.5 15.5,-5.5c13,0 24,10.5 24,24c0,0.5 0,0.5 0,1c5,2.5 9,8 9,14.5c0,9 -7.5,16 -16,16c-6,0 -11,-3 -14,-8c-1,0.5 -2,0.5 -3,0.5c-0.5,0 -1,0 -1.5,0c-3,4.5 -8,7.5 -13.5,7.5c-7,0 -12.5,-4 -15,-10c-3,1.5 -6,2 -9,2c-13.5,0 -24,-10.5 -24,-24c0,-11 7.5,-20.5 17.5,-23c2.5,-5.5 8,-9 14.5,-9z" id="curve5" fill="url(#color-3)"/>
        <path d="M273,112c3.5,9 12.5,16 23,16c10.5,0 19.5,-7 22.5,-16.5c0.5,0 0.5,0 0.5,0c9,0 16,-7.5 16,-16c0,-6.5 -3.5,-12 -9,-14.5c1,-3 2,-6 2,-9c0,-13.5 -11,-24 -24,-24c-8,0 -15,4 -19.5,9.5c-3,-10 -12,-17.5 -23,-17.5c-13.5,0 -24,11 -24,24c0,12.5 9,22.5 20.5,24c-1.5,2 -2,5 -2,8c0,8.5 7,16 16,16c0.5,0 1,0 1,0z" id="curve4" fill="url(#color-4)"/>
        <path d="M368,311c-2.5,2 -5,2.5 -8.5,2.5c-9,0 -16,-7 -16,-16c0,-2.5 1,-5.5 2,-8c-7,-4 -12,-11.5 -12,-20.5c0,-13.5 11,-24 24,-24c11,0 20.5,7.5 23,17.5c4.5,-6 11.5,-10 19.5,-10c13.5,0 24,11 24,24c0,3.5 -0.5,6.5 -1.5,9c5,2.5 9,8 9,14.5c0,9 -7.5,16 -16,16c-0.5,0 -0.5,0 -0.5,0c-3,9.5 -12.5,16.5 -23,16.5c-12.5,0 -22.5,-9.5 -24,-21.5z" id="curve3" fill="url(#color-5)"/>
        <path d="M374.5,204.5c2.5,2.5 6,3.5 9.5,3.5c9,0 16,-7 16,-16c0,-0.5 0,-1 0,-1.5c9.5,-3 16,-12 16,-22.5c0,-13.5 -10.5,-24 -24,-24c-3,0 -6,0.5 -8.5,1.5c-3,-10 -12,-17.5 -23.5,-17.5c-13,0 -24,10.5 -24,24l0,0c-0.5,0 -1.5,0 -2,0c-13.5,0 -24,11 -24,24c0,13.5 10.5,24 24,24c1.5,0 3,0 4,-0.5c3,5 8,8.5 14,8.5c2,0 4,-0.5 6,-1c1.5,0.5 3.5,1 5.5,1c4,0 8,-1.5 11,-3.5z" id="curve2" fill="url(#color-6)"/>
        <path d="M301,383.5c-1.5,0 -2.5,-0.5 -4,-1l0,0c-3,-1.5 -5,-3.5 -6.5,-6c-1,-1.5 -1.5,-3 -2,-5c-0.5,-1 -0.5,-2 -0.5,-3.5c0,-1 0,-2 0.5,-3.5c0,-1.5 0.5,-2.5 1.5,-4c0.5,-1 1,-2 2,-3l0,0c0,-0.5 -0.5,-1 -0.5,-1c-2.5,-4 -3.5,-8 -3.5,-12.5c0,-13.5 10.5,-24 24,-24c4.5,0 9,1.5 13,3.5c2.5,2 5,4 7,7l0,0c1.5,2.5 3,5.5 3.5,9c0.5,0 0.5,0 1,0l0,0l0,0c13.5,0 24,10.5 24,24c0,3 -0.5,5.5 -1.5,8.5c-1,2.5 -2.5,5 -4.5,7.5l0,0c1,2 2,4.5 2,7c0,9 -7.5,16 -16,16c-4.5,0 -8.5,-1.5 -11,-4.5c-1,2.5 -2.5,4.5 -4.5,6.5c-3,2.5 -6.5,4 -10.5,4c-9,0 -16,-7.5 -16,-16c0,-1.5 0,-3 0.5,-4l0,0c0.5,-1.5 1,-3.5 2,-4.5l0,0z" id="curve1" fill="url(#color-7)"/>
        <path d="M245,419c9.5,-3.5 16,-12 16,-22.5c0,-13.5 -10.5,-24 -24,-24c-12.5,0 -22.5,9.5 -24,21.5c-2.5,-10 -12,-17.5 -23,-17.5c-13,0 -24,10.5 -24,24c0,8 4,15 10.5,19.5c-0.5,1.5 -0.5,2.5 -0.5,4c0,13.5 10.5,24 24,24c9.5,0 17.5,-5.5 21.5,-13.5c2.5,1 5,2 7.5,2c9,0 16,-7.5 16,-16c0,-0.5 0,-1 0,-1.5z" id="curve0" fill="url(#color-8)"/>
    </g>
</svg>