<svg version="1.1"
    xmlns="http://www.w3.org/2000/svg"
    xmlns:xlink="http://www.w3.org/1999/xlink" width="512" height="512" viewBox="0 0 512 512">
    <title>text speaker icon</title>
    <desc>text speaker icon from the IconExperience.com G-Collection. Copyright by INCORS GmbH (www.incors.com).</desc>
    <defs>
        <linearGradient x1="32" y1="0" x2="327.8223" y2="512.00059" gradientUnits="userSpaceOnUse" id="color-1">
            <stop offset="0" stop-color="#f3fafe"/>
            <stop offset="1" stop-color="#cae9fb"/>
        </linearGradient>
        <linearGradient x1="397" y1="237" x2="512.197" y2="237" gradientUnits="userSpaceOnUse" id="color-2">
            <stop offset="0" stop-color="#758393"/>
            <stop offset="1" stop-color="#91a0af"/>
        </linearGradient>
        <linearGradient x1="192" y1="288" x2="192" y2="416" gradientUnits="userSpaceOnUse" id="color-3">
            <stop offset="0" stop-color="#7f8d9d"/>
            <stop offset="0.21961" stop-color="#91a0af"/>
            <stop offset="1" stop-color="#717f8f"/>
        </linearGradient>
        <linearGradient x1="256" y1="192" x2="256" y2="494.7555" gradientUnits="userSpaceOnUse" id="color-4">
            <stop offset="0" stop-color="#ffd041"/>
            <stop offset="0.6" stop-color="#ffc001"/>
            <stop offset="1" stop-color="#d19300"/>
        </linearGradient>
        <linearGradient x1="352" y1="176" x2="352" y2="512.0005" gradientUnits="userSpaceOnUse" id="color-5">
            <stop offset="0" stop-color="#5f6e7d"/>
            <stop offset="0.21961" stop-color="#717f8f"/>
            <stop offset="1" stop-color="#51616f"/>
        </linearGradient>
    </defs>
    <g fill="none" fill-rule="none" stroke="none" stroke-width="1" stroke-linecap="butt" stroke-linejoin="miter" stroke-miterlimit="10" stroke-dasharray="" stroke-dashoffset="0" font-family="none" font-weight="none" text-anchor="none" style="mix-blend-mode: normal">
        <path d="M32,0l384,0l0,512l-384,0z" id="curve5" fill="url(#color-1)" fill-rule="evenodd"/>
        <path d="M80,64l288,0l0,16l-288,0z M80,352l288,0l0,16l-288,0z M80,448l208,0l0,16l-208,0z M80,400l288,0l0,16l-288,0z M80,208l288,0l0,16l-288,0z M80,304l288,0l0,16l-288,0z M80,256l288,0l0,16l-288,0z M80,160l288,0l0,16l-288,0z M80,112l288,0l0,16l-288,0z" id="curve4" fill="#717f8f" fill-rule="evenodd"/>
        <path d="M416,288c20,15 32,38.5 32,64c0,25.5 -12,49 -32,64l-19,-25.5c12,-9 19,-23.5 19,-38.5c0,-15 -7,-29.5 -19,-38.5z M435,441.5l19.5,25.5c36,-27 57.5,-69.5 57.5,-115c0,-45.5 -21.5,-88 -57.5,-115l-19.5,25.5c28.5,21 45,54 45,89.5c0,35.5 -16.5,68.5 -45,89.5z" id="curve3" fill="url(#color-2)" fill-rule="nonzero"/>
        <path d="M208,288l80,0l0,128l-80,0c-9,0 -16,-7 -16,-16l0,-96c0,-9 7,-16 16,-16z" id="curve2" fill="url(#color-3)" fill-rule="evenodd"/>
        <path d="M352,496l-85.5,-57c-6.5,-4.5 -10.5,-11.5 -10.5,-20l0,-136c0,-7 3,-13.5 8.5,-18l87.5,-73z" id="curve1" fill="url(#color-4)" fill-rule="evenodd"/>
        <path d="M368,176c9,0 16,7 16,16l0,304c0,9 -7,16 -16,16l-16,0l0,-336z" id="curve0" fill="url(#color-5)" fill-rule="evenodd"/>
    </g>
</svg>