<svg version="1.1"
    xmlns="http://www.w3.org/2000/svg"
    xmlns:xlink="http://www.w3.org/1999/xlink" width="512" height="512" viewBox="0 0 512 512">
    <title>compasses icon</title>
    <desc>compasses icon from the IconExperience.com G-Collection. Copyright by INCORS GmbH (www.incors.com).</desc>
    <defs>
        <linearGradient x1="166.93078" y1="206.73595" x2="285.70728" y2="336.11195" gradientUnits="userSpaceOnUse" id="color-1">
            <stop offset="0" stop-color="#3eaff1"/>
            <stop offset="1" stop-color="#1da2ef"/>
        </linearGradient>
        <linearGradient x1="67.87525" y1="173.5" x2="102.04725" y2="194.114" gradientUnits="userSpaceOnUse" id="color-2">
            <stop offset="0" stop-color="#b3c0cd"/>
            <stop offset="1" stop-color="#91a0af"/>
        </linearGradient>
        <linearGradient x1="258.5" y1="486.38202" x2="293.778" y2="467.87952" gradientUnits="userSpaceOnUse" id="color-3">
            <stop offset="0" stop-color="#b3c0cd"/>
            <stop offset="1" stop-color="#91a0af"/>
        </linearGradient>
        <linearGradient x1="240" y1="0" x2="272" y2="0" gradientUnits="userSpaceOnUse" id="color-4">
            <stop offset="0" stop-color="#b2bfcc"/>
            <stop offset="1" stop-color="#91a0af"/>
        </linearGradient>
        <linearGradient x1="176" y1="64" x2="314.9195" y2="215.317" gradientUnits="userSpaceOnUse" id="color-5">
            <stop offset="0" stop-color="#4eb6f2"/>
            <stop offset="1" stop-color="#25a6ef"/>
        </linearGradient>
    </defs>
    <g fill="none" fill-rule="nonzero" stroke="none" stroke-width="1" stroke-linecap="butt" stroke-linejoin="miter" stroke-miterlimit="10" stroke-dasharray="" stroke-dashoffset="0" font-family="none" font-weight="none" text-anchor="none" style="mix-blend-mode: normal">
        <path d="M399,215.5c4,-8 13.5,-11 21.5,-7c8,3.5 11,13.5 7,21c-16,32.5 -41,59.5 -71,77.5c-29.5,18.5 -64.5,29 -100.5,29c-14,0 -27.5,-1.5 -41,-4.5c-13,-2.5 -26,-7 -38.5,-12.5c-8,-4 -12,-13.5 -8,-21.5c3.5,-8 13,-11.5 21,-8c10.5,5 21,8.5 32.5,11c11,2.5 22.5,3.5 34,3.5c30,0 59,-8.5 84,-24c24.5,-15 45.5,-37.5 59,-64.5z" id="curve7" fill="url(#color-1)"/>
        <path d="M79,512l1,-48l32,-15z" id="curve6" fill="#717f8f"/>
        <path d="M411.5,432l35.5,68c2,4 0.5,9 -3.5,11c-3.5,2 -8.5,0.5 -10.5,-3.5l-39.5,-75.5z" id="curve5" fill="#717f8f"/>
        <path d="M253.5,192l-152,290c-2,4 -7,5.5 -11,3.5l-14,-7.5c-4,-2 -6.5,-5 -8,-9c-1,-4.5 -1,-8.5 1.5,-12.5l148,-283c8.5,10.5 21,17.5 35.5,18.5z" id="curve4" fill="url(#color-2)"/>
        <path d="M294,173.5l148,283c2.5,4 2.5,8 1.5,12.5c-1.5,4 -4,7 -8,9l-14,7.5c-4,2 -9,0.5 -11,-3.5l-152,-290c14.5,-1 27,-8 35.5,-18.5z" id="curve3" fill="url(#color-3)"/>
        <path d="M240,0l32,0l0,80l-32,0z" id="curve2" fill="url(#color-4)"/>
        <path d="M408,432c13.5,0 24,10.5 24,24c0,13.5 -10.5,24 -24,24c-13.5,0 -24,-10.5 -24,-24c0,-13.5 10.5,-24 24,-24z" id="curve1" fill="#d8e0e8"/>
        <path d="M256,64c44,0 80,36 80,80c0,44 -36,80 -80,80c-44,0 -80,-36 -80,-80c0,-44 36,-80 80,-80z M256,96c-26.5,0 -48,21.5 -48,48c0,26.5 21.5,48 48,48c26.5,0 48,-21.5 48,-48c0,-26.5 -21.5,-48 -48,-48z" id="curve0" fill="url(#color-5)"/>
    </g>
</svg>