<svg version="1.1"
    xmlns="http://www.w3.org/2000/svg"
    xmlns:xlink="http://www.w3.org/1999/xlink" width="512" height="512" viewBox="0 0 512 512">
    <title>console icon</title>
    <desc>console icon from the IconExperience.com G-Collection. Copyright by INCORS GmbH (www.incors.com).</desc>
    <defs>
        <linearGradient x1="0" y1="64" x2="479.99925" y2="171.84" gradientUnits="userSpaceOnUse" id="color-1">
            <stop offset="0" stop-color="#91a0af"/>
            <stop offset="1" stop-color="#717f8f"/>
        </linearGradient>
        <linearGradient x1="0" y1="128" x2="422.06676" y2="460.706" gradientUnits="userSpaceOnUse" id="color-2">
            <stop offset="0" stop-color="#51616f"/>
            <stop offset="1" stop-color="#38444d"/>
        </linearGradient>
        <linearGradient x1="32" y1="156.5" x2="54.27645" y2="268.2705" gradientUnits="userSpaceOnUse" id="color-3">
            <stop offset="0" stop-color="#98e957"/>
            <stop offset="1" stop-color="#7ddd2f"/>
        </linearGradient>
    </defs>
    <g fill="none" fill-rule="none" stroke="none" stroke-width="1" stroke-linecap="butt" stroke-linejoin="miter" stroke-miterlimit="10" stroke-dasharray="" stroke-dashoffset="0" font-family="none" font-weight="none" text-anchor="none" style="mix-blend-mode: normal">
        <path d="M512,95l0,369l-512,0l0,-369c0,-17 14.5,-31 32,-31l448,0c17.5,0 32,14 32,31z" id="curve2" fill="url(#color-1)" fill-rule="evenodd"/>
        <path d="M0,128l512,0l0,336l-512,0z" id="curve1" fill="url(#color-2)" fill-rule="evenodd"/>
        <path d="M78.5,198l-46.5,-15.5l0,-26l74.5,30.5l0,22.5l-74.5,30.5l0,-26z M192,272l-80,0l0,-21.5l80,0z" id="curve0" fill="url(#color-3)" fill-rule="nonzero"/>
    </g>
</svg>