<svg version="1.1"
    xmlns="http://www.w3.org/2000/svg"
    xmlns:xlink="http://www.w3.org/1999/xlink" width="512" height="512" viewBox="0 0 512 512">
    <title>gearwheel icon</title>
    <desc>gearwheel icon from the IconExperience.com G-Collection. Copyright by INCORS GmbH (www.incors.com).</desc>
    <defs>
        <linearGradient x1="23.15625" y1="19.55728" x2="359.15675" y2="451.55728" gradientUnits="userSpaceOnUse" id="color-1">
            <stop offset="0" stop-color="#4eb6f2"/>
            <stop offset="1" stop-color="#129eee"/>
        </linearGradient>
        <linearGradient x1="96" y1="96" x2="278.19" y2="332.2455" gradientUnits="userSpaceOnUse" id="color-2">
            <stop offset="0" stop-color="#c5e7fb"/>
            <stop offset="1" stop-color="#c5e7fb"/>
        </linearGradient>
    </defs>
    <g fill="none" fill-rule="nonzero" stroke="none" stroke-width="1" stroke-linecap="butt" stroke-linejoin="miter" stroke-miterlimit="10" stroke-dasharray="" stroke-dashoffset="0" font-family="none" font-weight="none" text-anchor="none" style="mix-blend-mode: normal">
        <path d="M255.5,67.5l22.5,-42.5c1,-2 3,-3 5,-3.5c9.5,-2.5 19,-2.5 28,-0.5c8.5,2 17,6.5 24.5,12.5c2,1.5 3,3.5 3,6l1.5,47.5c0,5.5 2.5,10 7.5,12.5c5,3 9.5,6.5 14.5,10c4,3 9.5,3.5 14.5,1.5l44.5,-17.5c2,-1 4,-1 6,0c9,4.5 16,10.5 21.5,17.5c5.5,7.5 9,16 11,25.5c0.5,2.5 0,4.5 -1.5,6.5l-29.5,37.5c-3.5,4 -4.5,9.5 -2.5,14.5c2,5 3.5,11 5,16.5c1.5,5 5,9 10,10.5l45.5,15c2,1 3.5,2.5 4.5,4.5c4,9 5.5,18 5,27c-0.5,9.5 -3,18 -8,26.5c-1,2 -3,3.5 -5,4l-47,9.5c-5,1.5 -9,4.5 -11,9.5c-2,5.5 -4.5,11 -7,16.5c-2,4.5 -2,10 1,14.5l25,40.5c1,2 1.5,4 1,6.5c-3,9 -7.5,17.5 -13.5,24c-6.5,6.5 -14.5,11.5 -23.5,15c-2,1 -4.5,0.5 -6.5,-0.5l-42,-22.5c-4.5,-2.5 -10,-2.5 -14.5,0c-5,3 -10.5,5.5 -15.5,8c-5,2.5 -8,6.5 -9,11.5l-7,47.5c0,2.5 -1,4 -3,5.5c-8.5,5.5 -17,8.5 -26,9.5c-9,1 -18.5,0 -27.5,-3c-2.5,-1 -4,-2.5 -4.5,-4.5l-18,-44.5c-2,-5 -6,-8.5 -11,-9.5c-6,-1 -11.5,-2 -17.5,-4c-5,-1 -10,0 -14,3.5l-35.5,32c-2,1.5 -4,2 -6,2c-10,-1.5 -18.5,-4.5 -26.5,-9.5c-7.5,-5 -14,-11.5 -19,-20c-1,-2 -1,-4.5 -0.5,-6.5l15,-45.5c1.5,-5 0.5,-10 -2.5,-14.5c-4,-4.5 -7.5,-9 -10.5,-14c-3,-4 -8,-6.5 -13,-6.5l-48,1.5c-2,0 -4,-0.5 -6,-2.5c-6.5,-7 -11.5,-15 -14,-23.5c-2.5,-9 -3,-18.5 -1.5,-28c0.5,-2 2,-4 3.5,-5l41,-25.5c4.5,-2.5 7,-7.5 7,-12.5c0,-6 0.5,-12 1,-17.5c0.5,-5.5 -1.5,-10 -5.5,-13.5l-38,-29.5c-1.5,-1.5 -2.5,-3.5 -2.5,-5.5c-1,-10 0.5,-19 4.5,-27.5c3.5,-8.5 9,-16 16.5,-22c1.5,-1.5 4,-2 6,-2l47.5,7c5.5,0.5 10,-1 13.5,-5c4,-4.5 8,-9 12,-13c4,-3.5 5.5,-8.5 4.5,-14l-10,-47c-0.5,-2 0,-4 1.5,-6c5.5,-8 13,-14 21,-18c8,-4 17,-6 27,-6c2.5,-0.5 4,0.5 6,2.5l31.5,35.5c3.5,4 8.5,5.5 14,5c5.5,-1 11.5,-2 17.5,-2c5,-0.5 9.5,-3.5 12,-8z M256,190c-36.5,0 -66,29.5 -66,66c0,36.5 29.5,66 66,66c36.5,0 66,-29.5 66,-66c0,-36.5 -29.5,-66 -66,-66z" id="curve1" fill="url(#color-1)"/>
        <path d="M256,96c88.5,0 160,71.5 160,160c0,88.5 -71.5,160 -160,160c-88.5,0 -160,-71.5 -160,-160c0,-88.5 71.5,-160 160,-160z M256,158c-54,0 -98,44 -98,98c0,54 44,98 98,98c54,0 98,-44 98,-98c0,-54 -44,-98 -98,-98z" id="curve0" fill="url(#color-2)"/>
    </g>


<g transform="translate(256,256) scale(0.5,0.5)">
    <title>error icon</title>
    <desc>error icon from the IconExperience.com G-Collection. Copyright by INCORS GmbH (www.incors.com).</desc>
    <defs>
        <linearGradient x1="16" y1="16" x2="451.1475" y2="378.254" gradientUnits="userSpaceOnUse" id="e-color-1">
            <stop offset="0" stop-color="#ef5c51"/>
            <stop offset="1" stop-color="#c22f24"/>
        </linearGradient>
        <radialGradient cx="256.00477" cy="325.60147" r="277.68899" fx="256.00477" fy="325.60147" gradientUnits="userSpaceOnUse" id="e-color-2">
            <stop offset="0" stop-color="#ffffff"/>
            <stop offset="0.34118" stop-color="#ffffff"/>
            <stop offset="1" stop-color="#d8e0e8"/>
        </radialGradient>
    </defs>
    <g fill="none" fill-rule="none" stroke="none" stroke-width="1" stroke-linecap="butt" stroke-linejoin="miter" stroke-miterlimit="10" stroke-dasharray="" stroke-dashoffset="0" font-family="none" font-weight="none" text-anchor="none" style="mix-blend-mode: normal">
        <path d="M256,16c132.5,0 240,107.5 240,240c0,132.5 -107.5,240 -240,240c-132.5,0 -240,-107.5 -240,-240c0,-132.5 107.5,-240 240,-240z" id="curve1" fill="url(#e-color-1)" fill-rule="nonzero"/>
        <path d="M165.5,414.5l-68,-68l90.5,-90.5l-90.5,-90.5l68,-68l90.5,90.5l90.5,-90.5l68,68l-90.5,90.5l90.5,90.5l-68,68l-90.5,-90.5z" id="curve0" fill="url(#e-color-2)" fill-rule="evenodd"/>
    </g>
</g>

</svg>
