<svg version="1.1"
    xmlns="http://www.w3.org/2000/svg"
    xmlns:xlink="http://www.w3.org/1999/xlink" width="512" height="512" viewBox="0 0 512 512">
    <title>scroll icon</title>
    <desc>scroll icon from the IconExperience.com G-Collection. Copyright by INCORS GmbH (www.incors.com).</desc>
    <defs>
        <linearGradient x1="400" y1="0" x2="440" y2="80.00009" gradientUnits="userSpaceOnUse" id="color-1">
            <stop offset="0" stop-color="#ffc61b"/>
            <stop offset="1" stop-color="#ffd65b"/>
        </linearGradient>
        <linearGradient x1="96" y1="0" x2="356.472" y2="487.9243" gradientUnits="userSpaceOnUse" id="color-2">
            <stop offset="0" stop-color="#fff0c1"/>
            <stop offset="1" stop-color="#ffe081"/>
        </linearGradient>
        <linearGradient x1="0" y1="512" x2="0" y2="431.9995" gradientUnits="userSpaceOnUse" id="color-3">
            <stop offset="0" stop-color="#ffc515"/>
            <stop offset="1" stop-color="#ffd146"/>
        </linearGradient>
    </defs>
    <g fill="none" fill-rule="evenodd" stroke="none" stroke-width="1" stroke-linecap="butt" stroke-linejoin="miter" stroke-miterlimit="10" stroke-dasharray="" stroke-dashoffset="0" font-family="none" font-weight="none" text-anchor="none" style="mix-blend-mode: normal">
        <path d="M464,0l-64,0l0,80l112,0l0,-32c0,-26.5 -21.5,-48 -48,-48z" id="curve2" fill="url(#color-1)"/>
        <path d="M160,0l304,0c-26.5,0 -48,21.5 -48,48l0,32l0,384c0,26.5 -21.5,48 -48,48l-272,0l0,-448c0,-35.5 28.5,-64 64,-64z" id="curve1" fill="url(#color-2)"/>
        <path d="M48,512l320,0c-26.5,0 -48,-21.5 -48,-48l0,-32l-320,0l0,32c0,26.5 21.5,48 48,48z" id="curve0" fill="url(#color-3)"/>
    </g>


<g transform="translate(172,172) scale(0.66,0.66)">
    <title>floppy disk icon</title>
    <desc>floppy disk icon from the IconExperience.com G-Collection. Copyright by INCORS GmbH (www.incors.com).</desc>
    <defs>
        <linearGradient x1="32" y1="32" x2="430.221" y2="430.2205" gradientUnits="userSpaceOnUse" id="f-color-1">
            <stop offset="0" stop-color="#51616f"/>
            <stop offset="1" stop-color="#444850"/>
        </linearGradient>
        <linearGradient x1="96" y1="32" x2="185.6805" y2="272.00195" gradientUnits="userSpaceOnUse" id="f-color-2">
            <stop offset="0" stop-color="#eaf6fe"/>
            <stop offset="1" stop-color="#cbe9fb"/>
        </linearGradient>
        <linearGradient x1="416" y1="272" x2="415.4505" y2="270.8765" gradientUnits="userSpaceOnUse" id="f-color-3">
            <stop offset="0" stop-color="#ff7901"/>
            <stop offset="1" stop-color="#f77501"/>
        </linearGradient>
        <linearGradient x1="128" y1="320" x2="288.5545" y2="480.5555" gradientUnits="userSpaceOnUse" id="f-color-4">
            <stop offset="0" stop-color="#ffffff"/>
            <stop offset="1" stop-color="#e1e7ed"/>
        </linearGradient>
    </defs>
    <g fill="none" fill-rule="nonzero" stroke="none" stroke-width="1" stroke-linecap="butt" stroke-linejoin="miter" stroke-miterlimit="10" stroke-dasharray="" stroke-dashoffset="0" font-family="none" font-weight="none" text-anchor="none" style="mix-blend-mode: normal">
        <path d="M480,48l0,416c0,9 -7,16 -16,16l-400,0l-32,-32l0,-400c0,-9 7,-16 16,-16l416,0c9,0 16,7 16,16z" id="curve3" fill="url(#f-color-1)"/>
        <path d="M96,32l320,0l0,224c0,9 -7,16 -16,16l-288,0c-9,0 -16,-7 -16,-16z" id="curve2" fill="url(#f-color-2)"/>
        <path d="M416,208l0,48c0,9 -7,16 -16,16l-288,0c-9,0 -16,-7 -16,-16l0,-48z" id="curve1" fill="url(#f-color-3)"/>
        <path d="M384,336l0,144l-256,0l0,-144c0,-9 7,-16 16,-16l224,0c9,0 16,7 16,16z M160,336l0,112l64,0l0,-112z" id="curve0" fill="url(#f-color-4)"/>
    </g>
</g>

</svg>
