<svg version="1.1"
    xmlns="http://www.w3.org/2000/svg"
    xmlns:xlink="http://www.w3.org/1999/xlink" width="512" height="512" viewBox="0 0 512 512">
    <title>magic wand icon</title>
    <desc>magic wand icon from the IconExperience.com G-Collection. Copyright by INCORS GmbH (www.incors.com).</desc>
    <defs>
        <linearGradient x1="143" y1="143" x2="227.313" y2="228.242" gradientUnits="userSpaceOnUse" id="color-1">
            <stop offset="0" stop-color="#36414a"/>
            <stop offset="0.50196" stop-color="#51616f"/>
            <stop offset="1" stop-color="#36414a"/>
        </linearGradient>
        <linearGradient x1="59" y1="59" x2="163.7525" y2="161.806" gradientUnits="userSpaceOnUse" id="color-2">
            <stop offset="0" stop-color="#c5e7fb"/>
            <stop offset="0.61177" stop-color="#f1f9fe"/>
            <stop offset="1" stop-color="#c5e7fb"/>
        </linearGradient>
        <linearGradient x1="0" y1="0" x2="161.1195" y2="228.25309" gradientUnits="userSpaceOnUse" id="color-3">
            <stop offset="0" stop-color="#ffdd75"/>
            <stop offset="1" stop-color="#ffc20a"/>
        </linearGradient>
        <linearGradient x1="234" y1="0" x2="324.9855" y2="128.89759" gradientUnits="userSpaceOnUse" id="color-4">
            <stop offset="0" stop-color="#ffdd75"/>
            <stop offset="1" stop-color="#ffc20a"/>
        </linearGradient>
    </defs>
    <g fill="none" fill-rule="evenodd" stroke="none" stroke-width="1" stroke-linecap="butt" stroke-linejoin="miter" stroke-miterlimit="10" stroke-dasharray="" stroke-dashoffset="0" font-family="none" font-weight="none" text-anchor="none" style="mix-blend-mode: normal">
        <path d="M199.5,425.5l-33.5,-23l-23,-33.5l226,-226l32.5,24l24,32.5z" id="curve3" fill="url(#color-1)"/>
        <path d="M471,63.5l34,34c6,6.5 6,16.5 0,22.5l-79.5,79.5l-56.5,-56.5l79.5,-79.5c6,-6 16,-6 22.5,0z M199.5,425.5l-79.5,79.5c-6,6 -16,6 -22.5,0l-34,-34c-6,-6.5 -6,-16.5 0,-22.5l79.5,-79.5z" id="curve2" fill="url(#color-2)"/>
        <path d="M120,0l28,87.5l92,-0.5l-74.5,54l28.5,87.5l-74,-54.5l-74,54.5l28.5,-87.5l-74.5,-54l92,0.5z" id="curve1" fill="url(#color-3)"/>
        <path d="M302,0l16,49.5l52,-0.5l-42,30.5l16,49.5l-42,-30.5l-42,30.5l16,-49.5l-42,-30.5l52,0.5z" id="curve0" fill="url(#color-4)"/>
    </g>
</svg>