<svg version="1.1"
    xmlns="http://www.w3.org/2000/svg"
    xmlns:xlink="http://www.w3.org/1999/xlink" width="512" height="512" viewBox="0 0 512 512">
    <title>function icon</title>
    <desc>function icon from the IconExperience.com G-Collection. Copyright by INCORS GmbH (www.incors.com).</desc>
    <defs>
        <linearGradient x1="16" y1="48.47321" x2="245.9231" y2="412.51671" gradientUnits="userSpaceOnUse" id="color-1">
            <stop offset="0" stop-color="#717f8f"/>
            <stop offset="1" stop-color="#5a6978"/>
        </linearGradient>
    </defs>
    <g fill="url(#color-1)" fill-rule="nonzero" stroke="none" stroke-width="1" stroke-linecap="butt" stroke-linejoin="miter" stroke-miterlimit="10" stroke-dasharray="" stroke-dashoffset="0" font-family="none" font-weight="none" text-anchor="none" style="mix-blend-mode: normal">
        <path d="M198.5,190.5l-40.5,0l-26.5,176.5c-3.5,25.5 -12,45.5 -26.5,60c-14.5,14 -33.5,21.5 -56.5,21c-10,-0.5 -21,-1.5 -32.5,-4l7.5,-51c6.5,2 12,3 16.5,3c7.5,0 13.5,-2 17.5,-6.5c4.5,-4.5 7.5,-12 9,-22.5l26.5,-176.5l-29.5,0l7,-47l29.5,0l2.5,-19c3,-24 12.5,-43 28.5,-56.5c16,-13.5 36.5,-20 61.5,-19.5c8,0 19,1 33.5,4l-8.5,50.5c-7,-2 -13.5,-2.5 -19.5,-2.5c-17,0 -27,8.5 -30.5,25.5l-2.5,17.5l41,0z M283.5,138l6.5,22.5c-16.5,13 -29.5,30.5 -39,53c-9.5,23 -17,52.5 -18.5,89l-1,13.5c-2,36 6.5,61 23,74l-9.5,22c-10.5,-5 -19.5,-13 -26.5,-24c-7,-10.5 -12.5,-23.5 -15.5,-38.5c-3.5,-15.5 -4.5,-31.5 -4,-48c0.5,-24.5 4.5,-48.5 12,-71.5c7,-23 17,-42.5 29,-58.5c12.5,-16 27,-27 43.5,-33.5z M349,247.5l26,-39.5l46.5,0l-48.5,72l26,72l-42.5,0l-15,-42l-27.5,42l-47.5,0l51,-76l-25,-68l43.5,0z M492.5,276.5c-2.5,21 -8.5,41.5 -16.5,60.5c-8.5,19 -18.5,35.5 -30,48c-12,13 -25,22 -39,27.5l-7,-22.5c17,-13.5 30,-31 39.5,-54c9.5,-22.5 16.5,-52 18.5,-88.5l1,-13c2,-36.5 -7,-61.5 -23,-74.5l9.5,-22c15,7.5 26.5,20.5 35,38c8.5,17.5 13.5,39 13.5,64l0.5,8.5c0,8.5 -1,16.5 -2,24z" id="curve0"/>
    </g>
</svg>