<svg version="1.1"
    xmlns="http://www.w3.org/2000/svg"
    xmlns:xlink="http://www.w3.org/1999/xlink" width="512" height="512" viewBox="0 0 512 512">
    <title>handshake icon</title>
    <desc>handshake icon from the IconExperience.com G-Collection. Copyright by INCORS GmbH (www.incors.com).</desc>
    <defs>
        <linearGradient x1="228" y1="187" x2="337.4775" y2="351.2165" gradientUnits="userSpaceOnUse" id="color-1">
            <stop offset="0" stop-color="#f5b36e"/>
            <stop offset="0.70196" stop-color="#f5a557"/>
            <stop offset="1" stop-color="#ec923a"/>
        </linearGradient>
        <linearGradient x1="80.5" y1="161.92343" x2="180.0655" y2="417.94943" gradientUnits="userSpaceOnUse" id="color-2">
            <stop offset="0" stop-color="#be7228"/>
            <stop offset="0.4902" stop-color="#ac6622"/>
            <stop offset="1" stop-color="#8c5520"/>
        </linearGradient>
        <linearGradient x1="162" y1="182.5" x2="157.4455" y2="327.749" gradientUnits="userSpaceOnUse" id="color-3">
            <stop offset="0" stop-color="#b36c26"/>
            <stop offset="0.43922" stop-color="#a66524"/>
            <stop offset="1" stop-color="#995d22"/>
        </linearGradient>
        <linearGradient x1="191.31942" y1="169.0533" x2="226.48842" y2="288.6278" gradientUnits="userSpaceOnUse" id="color-4">
            <stop offset="0" stop-color="#a76322"/>
            <stop offset="0.5098" stop-color="#9f5f22"/>
            <stop offset="1" stop-color="#975b21"/>
        </linearGradient>
        <linearGradient x1="104.73251" y1="153.14694" x2="232.73301" y2="345.14694" gradientUnits="userSpaceOnUse" id="color-5">
            <stop offset="0" stop-color="#f5b673"/>
            <stop offset="0.74118" stop-color="#f5a557"/>
            <stop offset="1" stop-color="#ec923a"/>
        </linearGradient>
        <linearGradient x1="145.93487" y1="154" x2="90.02437" y2="321.7315" gradientUnits="userSpaceOnUse" id="color-6">
            <stop offset="0" stop-color="#f8fcff"/>
            <stop offset="1" stop-color="#c5e7fb"/>
        </linearGradient>
        <linearGradient x1="366.06513" y1="154" x2="427.11463" y2="321.7315" gradientUnits="userSpaceOnUse" id="color-7">
            <stop offset="0" stop-color="#f7fcfe"/>
            <stop offset="1" stop-color="#c6e7fb"/>
        </linearGradient>
        <linearGradient x1="121.43487" y1="128" x2="50.79137" y2="325.8025" gradientUnits="userSpaceOnUse" id="color-8">
            <stop offset="0" stop-color="#4e5d6b"/>
            <stop offset="1" stop-color="#36414a"/>
        </linearGradient>
        <linearGradient x1="390.56983" y1="128" x2="461.98333" y2="325.8025" gradientUnits="userSpaceOnUse" id="color-9">
            <stop offset="0" stop-color="#4e5d6b"/>
            <stop offset="1" stop-color="#36414b"/>
        </linearGradient>
    </defs>
    <g fill="none" fill-rule="none" stroke="none" stroke-width="1" stroke-linecap="butt" stroke-linejoin="miter" stroke-miterlimit="10" stroke-dasharray="" stroke-dashoffset="0" font-family="none" font-weight="none" text-anchor="none" style="mix-blend-mode: normal">
        <path d="M285,187l73.5,16l25.5,-9l42,103.5l-8.5,3.5c-11.5,4 -20,11 -27,21l-17,26.5c-7,10 -16,16.5 -27,21.5l-118.5,-147.5z" id="curve8" fill="url(#color-1)" fill-rule="evenodd"/>
        <path d="M314,239.5l1.5,-4c4.5,-12.5 3.5,-25.5 -1.5,-36.5c-5.5,-11 -14.5,-20 -27,-24.5l-20,-7.5c-9.5,-3.5 -19,-5 -29,-5c-10,-0.5 -19.5,1.5 -29.5,4.5l-58.5,20l-36.5,-1l-33,126l8.5,3c11.5,4.5 20,11 27,21.5l17,26.5c7,10 15.5,16.5 27,21l102.5,45c19,8 31,9 47,-3.5l86,-68c20.5,-16.5 26.5,-37.5 -4,-60z" id="curve7" fill="url(#color-2)" fill-rule="nonzero"/>
        <path d="M162,182.5l-12,4l-36.5,-1l-33,126l8.5,3c8,3 15,7.5 20.5,13c3,-3 5,-6.5 6.5,-11l44,-120c1.5,-4.5 2,-9.5 2,-14z" id="curve6" fill="url(#color-3)" fill-rule="nonzero"/>
        <path d="M314,239.5l1.5,-4c4.5,-12.5 3.5,-25.5 -1.5,-36.5c-5.5,-11 -14.5,-20 -27,-24.5l-12,-4.5c-6.5,-1 -13,-1.5 -20,0c-11.5,3 -22.5,10 -29.5,21l-29,46c-10,15.5 -5,36.5 10.5,46.5c16,10 37,5 47,-10.5l12,-20.5c5,-6.5 11,-6.5 17,-2.5c23.5,15 46.5,16 63,13.5z" id="curve5" fill="url(#color-4)" fill-rule="nonzero"/>
        <path d="M265.5,429c-7,8.5 -29.5,16.5 -44.5,10c-30,-13 -61.5,-29 -77,-39c-35,-23 -43.5,-50 -37.5,-75l0,0c16.5,11.5 21.5,18 49,19.5c16,1 39,14.5 61.5,28c31.5,19 60,41 48.5,56.5z M275.5,158c27.5,6.5 64.5,21 86.5,28.5l36.5,-1c18.5,-0.5 34,14 34.5,32.5c1,18.5 -14,34 -32.5,34.5c-8.5,0.5 -27,12.5 -40,12.5c-33.5,-1 -62.5,-20.5 -88,-39c-5.5,-4 -11.5,-4 -16.5,2.5l-18,28.5c-10,15.5 -31,20.5 -47,10.5c-15.5,-10 -20.5,-31 -10.5,-46.5l29,-46c7,-11 18,-18 29.5,-21c12.5,-2.5 24,1 36.5,4z" id="curve4" fill="url(#color-5)" fill-rule="evenodd"/>
        <path d="M135.5,170.5l-45,-16.5l-55,150.5l45,16c8.5,3.5 17.5,-1 20.5,-9.5l44,-120c3,-8.5 -1.5,-17.5 -9.5,-20.5z" id="curve3" fill="url(#color-6)" fill-rule="evenodd"/>
        <path d="M376.5,170.5l45.5,-16.5l54.5,150.5l-45,16c-8.5,3.5 -17.5,-1 -20.5,-9.5l-44,-120c-3,-8.5 1.5,-17.5 9.5,-20.5z" id="curve2" fill="url(#color-7)" fill-rule="evenodd"/>
        <path d="M111,144.5l-45.5,-16.5l-65.5,180.5l45,16.5c8.5,3 17.5,-1.5 20.5,-9.5l55,-150.5c3,-8.5 -1.5,-17.5 -9.5,-20.5z" id="curve1" fill="url(#color-8)" fill-rule="evenodd"/>
        <path d="M401.5,144.5l45,-16.5l65.5,180.5l-45,16.5c-8.5,3 -17.5,-1.5 -20.5,-9.5l-55,-150.5c-3,-8.5 1.5,-17.5 10,-20.5z" id="curve0" fill="url(#color-9)" fill-rule="evenodd"/>
    </g>
</svg>