<svg version="1.1"
    xmlns="http://www.w3.org/2000/svg"
    xmlns:xlink="http://www.w3.org/1999/xlink" width="512" height="512" viewBox="0 0 512 512">
    <title>document check edit icon</title>
    <desc>document check edit icon from the IconExperience.com G-Collection. Copyright by INCORS GmbH (www.incors.com).</desc>
    <defs>
        <linearGradient x1="64" y1="0" x2="359.822" y2="512.00059" gradientUnits="userSpaceOnUse" id="color-1">
            <stop offset="0" stop-color="#f3fafe"/>
            <stop offset="1" stop-color="#cae9fb"/>
        </linearGradient>
        <linearGradient x1="225.08307" y1="179.5" x2="389.54757" y2="464.1505" gradientUnits="userSpaceOnUse" id="color-2">
            <stop offset="0" stop-color="#c6e8fb"/>
            <stop offset="1" stop-color="#97d5f8"/>
        </linearGradient>
        <linearGradient x1="252.5" y1="183" x2="307.042" y2="240.6665" gradientUnits="userSpaceOnUse" id="color-3">
            <stop offset="0" stop-color="#4eb6f2"/>
            <stop offset="1" stop-color="#129eee"/>
        </linearGradient>
        <linearGradient x1="209.13702" y1="343" x2="267.01402" y2="403.502" gradientUnits="userSpaceOnUse" id="color-4">
            <stop offset="0" stop-color="#f4e0cc"/>
            <stop offset="0.52157" stop-color="#e8c098"/>
            <stop offset="1" stop-color="#dca264"/>
        </linearGradient>
        <linearGradient x1="209.13702" y1="402.5" x2="231.13752" y2="424.75" gradientUnits="userSpaceOnUse" id="color-5">
            <stop offset="0" stop-color="#717f8f"/>
            <stop offset="1" stop-color="#36414a"/>
        </linearGradient>
        <linearGradient x1="411.5" y1="145.25" x2="494.817" y2="228.5675" gradientUnits="userSpaceOnUse" id="color-6">
            <stop offset="0" stop-color="#ef5c51"/>
            <stop offset="0.34902" stop-color="#cf3c31"/>
            <stop offset="1" stop-color="#af1c11"/>
        </linearGradient>
        <linearGradient x1="169" y1="141.5" x2="281" y2="269.5005" gradientUnits="userSpaceOnUse" id="color-7">
            <stop offset="0" stop-color="#77da26"/>
            <stop offset="1" stop-color="#59a31d"/>
        </linearGradient>
        <linearGradient x1="310.5" y1="9.5" x2="396.703" y2="127.03825" gradientUnits="userSpaceOnUse" id="color-8">
            <stop offset="0" stop-color="#c5e7fb"/>
            <stop offset="1" stop-color="#94d3f8"/>
        </linearGradient>
    </defs>
    <g fill="none" fill-rule="evenodd" stroke="#252525" stroke-width="10" stroke-linecap="butt" stroke-linejoin="round" stroke-miterlimit="10" stroke-dasharray="" stroke-dashoffset="0" font-family="none" font-weight="none" text-anchor="none" style="mix-blend-mode: normal">
        <path d="M288,0l-216,0c-4.5,0 -8,3.5 -8,8l0,496c0,4.5 3.5,8 8,8l368,0c4.5,0 8,-3.5 8,-8l0,-344c0,-9 -3.5,-17 -9.5,-22.5l-128,-128c-5.5,-6 -13.5,-9.5 -22.5,-9.5z" id="curve7" fill="url(#color-1)"/>
        <path d="M438.5,137.5c-5.5,-6 -13.5,-9.5 -22.5,-9.5l-88,0c-4.5,0 -8,-3.5 -8,-8l0,-88c0,-8.5 -3.5,-16.5 -9.5,-22.5z" id="curve0" fill="url(#color-8)"/>
    </g>
    <g fill="none" fill-rule="evenodd" stroke="none" stroke-width="1" stroke-linecap="butt" stroke-linejoin="miter" stroke-miterlimit="10" stroke-dasharray="" stroke-dashoffset="0" font-family="none" font-weight="none" text-anchor="none" style="mix-blend-mode: normal">
        <path d="M448,303l0,-123.5l-179.5,179.5l-42,87c-2.5,4.5 -1.5,9.5 1.5,13.5l0,0l0,0l0,0l0.5,0l0,0l0,0.5l0,0l0,0l0.5,0.5l0,0l0,0l0,0l0,0l0,0l0.5,0.5l0,0l0,0l0,0l0,0l0,0l0.5,0.5l0,0l0,0l0,0c4,3 8.5,3.5 13,1.5l87.5,-42.5l0,0z" id="curve6" fill="url(#color-2)"/>
        <path d="M412,183l62,62l-159.5,159.5l-62,-61.5z" id="curve5" fill="url(#color-3)"/>
        <path d="M314.5,404.5l-87.5,42.5c-5,2 -10.5,1 -14,-2.5c-4,-4 -5,-9.5 -2.5,-14.5l42,-87z" id="curve4" fill="url(#color-4)"/>
        <path d="M255,433.5l-28,13.5c-5,2 -10.5,1 -14,-2.5c-4,-4 -5,-9.5 -2.5,-14.5l13.5,-27.5z" id="curve3" fill="url(#color-5)"/>
        <path d="M508.5,210.5l-35.5,35.5l-61.5,-62l35,-35c5,-5 13,-5 17.5,0l44.5,44c4.5,4.5 4.5,12.5 0,17.5z" id="curve2" fill="url(#color-6)"/>
        <path d="M327.5,141.5l34,34l-124.5,124.5l-68,-68l34,-34l34,34z" id="curve1" fill="url(#color-7)"/>
    </g>
</svg>
