<svg version="1.1"
    xmlns="http://www.w3.org/2000/svg"
    xmlns:xlink="http://www.w3.org/1999/xlink" width="512" height="512" viewBox="0 0 512 512">
    <title>html tag icon</title>
    <desc>html tag icon from the IconExperience.com G-Collection. Copyright by INCORS GmbH (www.incors.com).</desc>
    <defs>
        <linearGradient x1="0" y1="96" x2="418.909" y2="416.0005" gradientUnits="userSpaceOnUse" id="color-1">
            <stop offset="0" stop-color="#ffab1e"/>
            <stop offset="1" stop-color="#ffbe04"/>
        </linearGradient>
        <linearGradient x1="96" y1="333.5" x2="99.402" y2="205.1135" gradientUnits="userSpaceOnUse" id="color-2">
            <stop offset="0" stop-color="#ffffff"/>
            <stop offset="1" stop-color="#e7ecf1"/>
        </linearGradient>
    </defs>
    <g fill="none" fill-rule="none" stroke="none" stroke-width="1" stroke-linecap="butt" stroke-linejoin="miter" stroke-miterlimit="10" stroke-dasharray="" stroke-dashoffset="0" font-family="none" font-weight="none" text-anchor="none" style="mix-blend-mode: normal">
        <path d="M16,96l480,0c9,0 16,7 16,16l0,288c0,9 -7,16 -16,16l-480,0c-9,0 -16,-7 -16,-16l0,-288c0,-9 7,-16 16,-16z" id="curve1" fill="url(#color-1)" fill-rule="evenodd"/>
        <path d="M368.5,263.5l-77,-26.5l0,-43l124.5,51l0,37.5l-124.5,51l0,-43.5z M144,264l77.5,26l0,43.5l-125.5,-51l0,-37.5l125.5,-51l0,43z" id="curve0" fill="url(#color-2)" fill-rule="nonzero"/>
    </g>
</svg>