<svg version="1.1"
    xmlns="http://www.w3.org/2000/svg"
    xmlns:xlink="http://www.w3.org/1999/xlink" width="512" height="512" viewBox="0 0 512 512">
    <title>jar earth icon</title>
    <desc>jar earth icon from the IconExperience.com G-Collection. Copyright by INCORS GmbH (www.incors.com).</desc>
    <defs>
        <linearGradient x1="64" y1="48" x2="412.9835" y2="48" gradientUnits="userSpaceOnUse" id="color-1">
            <stop offset="0" stop-color="#eaf6fe"/>
            <stop offset="0.34118" stop-color="#f6fbff"/>
            <stop offset="1" stop-color="#c5e7fb"/>
        </linearGradient>
        <linearGradient x1="68.5" y1="496" x2="432.193" y2="496" gradientUnits="userSpaceOnUse" id="color-2">
            <stop offset="0" stop-color="#c5e7fb"/>
            <stop offset="1" stop-color="#a5daf9"/>
        </linearGradient>
        <linearGradient x1="134" y1="48" x2="370.466" y2="48" gradientUnits="userSpaceOnUse" id="color-3">
            <stop offset="0" stop-color="#c5e7fb"/>
            <stop offset="1" stop-color="#a5daf9"/>
        </linearGradient>
        <linearGradient x1="112" y1="0" x2="352" y2="0" gradientUnits="userSpaceOnUse" id="color-4">
            <stop offset="0" stop-color="#129eee"/>
            <stop offset="0.25882" stop-color="#45b3f2"/>
            <stop offset="1" stop-color="#129eee"/>
        </linearGradient>
        <linearGradient x1="112" y1="0" x2="399.9995" y2="0" gradientUnits="userSpaceOnUse" id="color-5">
            <stop offset="0" stop-color="#74c6f5"/>
            <stop offset="1" stop-color="#2aa8f0"/>
        </linearGradient>
        <radialGradient cx="201.56811" cy="287.92508" r="287.80382" fx="201.56811" fy="287.92508" gradientUnits="userSpaceOnUse" id="color-6">
            <stop offset="0" stop-color="#98e957"/>
            <stop offset="0.41177" stop-color="#77da26"/>
            <stop offset="1" stop-color="#3b6d13"/>
        </radialGradient>
        <radialGradient cx="198.26649" cy="285.7947" r="268.95711" fx="198.26649" fy="285.7947" gradientUnits="userSpaceOnUse" id="color-7">
            <stop offset="0" stop-color="#4eb6f2"/>
            <stop offset="0.2" stop-color="#43abe7"/>
            <stop offset="1" stop-color="#0e76b2"/>
        </radialGradient>
    </defs>
    <g fill="none" fill-rule="evenodd" stroke="none" stroke-width="1" stroke-linecap="butt" stroke-linejoin="miter" stroke-miterlimit="10" stroke-dasharray="" stroke-dashoffset="0" font-family="none" font-weight="none" text-anchor="none" style="mix-blend-mode: normal">
        <path d="M144,81l0,-33l224,0l0,33c0,8 6,15 13.5,16c46.5,6.5 66.5,47 66.5,95l0,288c0,17.5 -14.5,32 -32,32l-320,0c-17.5,0 -32,-14.5 -32,-32l0,-288c0,-48 20,-88.5 66.5,-95c7.5,-1 13.5,-8 13.5,-16z" id="curve6" fill="url(#color-1)"/>
        <path d="M443.5,496c-5.5,9.5 -15.5,16 -27.5,16l-320,0c-12,0 -22,-6.5 -27.5,-16z" id="curve5" fill="url(#color-2)"/>
        <path d="M368,48l0,33c0,7 4,12.5 10,15l-122,0l-122,0c6,-2.5 10,-8 10,-15l0,-33z" id="curve4" fill="url(#color-3)"/>
        <path d="M128,0l256,0c9,0 16,7 16,16l0,48c0,9 -7,16 -16,16l-256,0c-9,0 -16,-7 -16,-16l0,-48c0,-9 7,-16 16,-16z" id="curve3" fill="url(#color-4)"/>
        <path d="M128,0l256,0c9,0 16,7 16,16l0,0l-288,0l0,0c0,-9 7,-16 16,-16z" id="curve2" fill="url(#color-5)"/>
        <path d="M256,160c88.5,0 160,71.5 160,160c0,88.5 -71.5,160 -160,160c-88.5,0 -160,-71.5 -160,-160c0,-88.5 71.5,-160 160,-160z" id="curve1" fill="url(#color-6)"/>
        <path d="M294.5,257c4,-1.5 10,-2 12.5,-1c11,3.5 10.5,15.5 22,17c1.5,0.5 7.5,-3 9,-3c7,1.5 13.5,8 20,5c3.5,-2 5.5,-9 2.5,-11.5c-3.5,-2.5 -8.5,-0.5 -12,-3c-5,-4 -9.5,1 -13.5,-3.5c-2,-2.5 -5.5,-9.5 -8,-13c-3,-4 -11,-2.5 -9.5,-0.5c4,5.5 10,6.5 11,9.5c1,3.5 -8,8 -5.5,2c1,-3.5 -5,-5.5 -12.5,-9.5c-4,-2 -7.5,-7 -13.5,-4c-3,1 -8,8 -10.5,11c-3.5,5.5 -12,4 -17.5,1.5c-5.5,-2.5 -6,-16 1.5,-22c7,-5.5 12.5,-2.5 19.5,-4c2.5,-1 4,-4 8,-6.5c5,-3.5 -3,-8.5 -0.5,-14c2.5,-4.5 9.5,-5 13,-7c4,-2 8,-4.5 11.5,-2.5c5.5,3.5 11.5,3.5 16.5,7c4,2.5 7.5,4 11,5.5c-21.5,-18.5 -48.5,-30.5 -78,-33.5c4,4 6.5,9.5 5,13c-2.5,5.5 -6,12 -16.5,16c-7.5,3 -18,3 -25.5,6.5c-8.5,3.5 -16.5,3 -21,4c-7.5,2 0.5,-24 -2,-26.5c-1.5,-2.5 -9.5,-2.5 -15.5,-1c-3,1.5 -5.5,3 -8.5,4c0,0.5 0,0.5 0,0.5c-4,10.5 5,19 4.5,21c-0.5,4 -0.5,19.5 -4,23.5c-6,6 -20,11.5 -22,12c-9.5,1 -11.5,10.5 -18.5,16.5c-3,2 -17.5,17.5 -20,22.5c-6.5,13 0,21.5 3,24c5,4.5 7,5 12.5,6.5c2,1 23,11.5 29,17.5c5.5,6 8.5,12 14.5,16c7,4 20,9 21.5,12c8,15.5 5.5,36.5 -17,51.5c-5.5,4 -17.5,10 -14.5,21c0.5,1 0.5,2 0.5,3c23,15 50,23.5 79,23.5c79.5,0 144,-64.5 144,-144c0,-9 -1,-17.5 -2.5,-26c-2,1.5 -2.5,9 -5,13.5c-2,3.5 -7,4 -8,5c-5,7.5 12.5,13 5,23.5c-3.5,4 -13.5,14 -16.5,26.5c-5.5,27 -2,11 -10.5,32.5c-1,3 -3.5,15.5 -5.5,18c-8,13 -31.5,27 -37,20c-3.5,-4.5 -5.5,-10.5 -6.5,-16.5c-1,-6 -7.5,-14 -7,-18.5c1,-7.5 2,-10 2,-18.5c0,-0.5 -5,-21 -6,-23c-4,-8 -10,-12 -19,-9c-7,2.5 -12.5,-1 -18,-3c-11,-4.5 -16,-18.5 -18.5,-30.5c0,0 2,-18 2,-19c0,-5 2.5,-9.5 5,-13c19.5,-28 15,-16 40.5,-25z M152.5,420c-25,-25.5 -40.5,-61 -40.5,-100c0,-1 0,-1.5 0,-2.5c3.5,6 5.5,12.5 6.5,19c1,6.5 5.5,18.5 7,26.5c1.5,9 8.5,16 16,25c4,4.5 4.5,18.5 8,26c0.5,2 1.5,4 3,6z" id="curve0" fill="url(#color-7)"/>
    </g>
</svg>