<svg version="1.1"
    xmlns="http://www.w3.org/2000/svg"
    xmlns:xlink="http://www.w3.org/1999/xlink" width="512" height="512" viewBox="0 0 512 512">
    <title>mda icon</title>
    <desc>mda icon from the IconExperience.com G-Collection. Copyright by INCORS GmbH (www.incors.com).</desc>
    <defs>
        <linearGradient x1="32" y1="272" x2="458.2608" y2="512" gradientUnits="userSpaceOnUse" id="color-1">
            <stop offset="0" stop-color="#91a0af"/>
            <stop offset="1" stop-color="#738191"/>
        </linearGradient>
        <linearGradient x1="32" y1="0" x2="432.8428" y2="272.00059" gradientUnits="userSpaceOnUse" id="color-2">
            <stop offset="0" stop-color="#707f8e"/>
            <stop offset="1" stop-color="#546472"/>
        </linearGradient>
        <linearGradient x1="64" y1="240" x2="64" y2="32.00015" gradientUnits="userSpaceOnUse" id="color-3">
            <stop offset="0" stop-color="#4ab4f2"/>
            <stop offset="1" stop-color="#129eee"/>
        </linearGradient>
        <linearGradient x1="64" y1="32" x2="266.664" y2="47.9998" gradientUnits="userSpaceOnUse" id="color-4">
            <stop offset="0" stop-color="#1197e3"/>
            <stop offset="1" stop-color="#1089cf"/>
        </linearGradient>
        <linearGradient x1="144" y1="304" x2="152.537" y2="332.1015" gradientUnits="userSpaceOnUse" id="color-5">
            <stop offset="0" stop-color="#ffffff"/>
            <stop offset="1" stop-color="#e6ebf0"/>
        </linearGradient>
        <linearGradient x1="192" y1="304" x2="200.537" y2="332.1015" gradientUnits="userSpaceOnUse" id="color-6">
            <stop offset="0" stop-color="#ffffff"/>
            <stop offset="1" stop-color="#e6ebf0"/>
        </linearGradient>
        <linearGradient x1="240" y1="304" x2="248.537" y2="332.1015" gradientUnits="userSpaceOnUse" id="color-7">
            <stop offset="0" stop-color="#ffffff"/>
            <stop offset="1" stop-color="#e6ebf0"/>
        </linearGradient>
        <linearGradient x1="64" y1="304" x2="73.721" y2="336.0005" gradientUnits="userSpaceOnUse" id="color-8">
            <stop offset="0" stop-color="#ffffff"/>
            <stop offset="1" stop-color="#edf1f4"/>
        </linearGradient>
        <linearGradient x1="288" y1="304" x2="296.537" y2="332.1015" gradientUnits="userSpaceOnUse" id="color-9">
            <stop offset="0" stop-color="#ffffff"/>
            <stop offset="1" stop-color="#e6ebf0"/>
        </linearGradient>
        <linearGradient x1="336" y1="304" x2="344.537" y2="332.1015" gradientUnits="userSpaceOnUse" id="color-10">
            <stop offset="0" stop-color="#ffffff"/>
            <stop offset="1" stop-color="#e6ebf0"/>
        </linearGradient>
        <linearGradient x1="384" y1="304" x2="408.602" y2="379.2755" gradientUnits="userSpaceOnUse" id="color-11">
            <stop offset="0" stop-color="#ffffff"/>
            <stop offset="1" stop-color="#e8edf2"/>
        </linearGradient>
        <linearGradient x1="64" y1="352" x2="73.721" y2="384.0005" gradientUnits="userSpaceOnUse" id="color-12">
            <stop offset="0" stop-color="#fdfdfe"/>
            <stop offset="1" stop-color="#eef1f5"/>
        </linearGradient>
        <linearGradient x1="160" y1="352" x2="168.537" y2="380.1015" gradientUnits="userSpaceOnUse" id="color-13">
            <stop offset="0" stop-color="#ffffff"/>
            <stop offset="1" stop-color="#e6ebf0"/>
        </linearGradient>
        <linearGradient x1="208" y1="352" x2="216.537" y2="380.1015" gradientUnits="userSpaceOnUse" id="color-14">
            <stop offset="0" stop-color="#ffffff"/>
            <stop offset="1" stop-color="#e6ebf0"/>
        </linearGradient>
        <linearGradient x1="256" y1="352" x2="264.537" y2="380.1015" gradientUnits="userSpaceOnUse" id="color-15">
            <stop offset="0" stop-color="#ffffff"/>
            <stop offset="1" stop-color="#e6ebf0"/>
        </linearGradient>
        <linearGradient x1="304" y1="352" x2="312.537" y2="380.1015" gradientUnits="userSpaceOnUse" id="color-16">
            <stop offset="0" stop-color="#ffffff"/>
            <stop offset="1" stop-color="#e6ebf0"/>
        </linearGradient>
        <linearGradient x1="352" y1="352" x2="360.537" y2="380.1015" gradientUnits="userSpaceOnUse" id="color-17">
            <stop offset="0" stop-color="#ffffff"/>
            <stop offset="1" stop-color="#e6ebf0"/>
        </linearGradient>
        <linearGradient x1="384" y1="400" x2="393.722" y2="432" gradientUnits="userSpaceOnUse" id="color-18">
            <stop offset="0" stop-color="#ffffff"/>
            <stop offset="1" stop-color="#edf1f4"/>
        </linearGradient>
        <linearGradient x1="336" y1="400" x2="344.53696" y2="428.10122" gradientUnits="userSpaceOnUse" id="color-19">
            <stop offset="0" stop-color="#ffffff"/>
            <stop offset="1" stop-color="#e6ebf0"/>
        </linearGradient>
        <linearGradient x1="288" y1="400" x2="296.53696" y2="428.10122" gradientUnits="userSpaceOnUse" id="color-20">
            <stop offset="0" stop-color="#ffffff"/>
            <stop offset="1" stop-color="#e6ebf0"/>
        </linearGradient>
        <linearGradient x1="240" y1="400" x2="248.537" y2="428.101" gradientUnits="userSpaceOnUse" id="color-21">
            <stop offset="0" stop-color="#ffffff"/>
            <stop offset="1" stop-color="#e6ebf0"/>
        </linearGradient>
        <linearGradient x1="192" y1="400" x2="200.537" y2="428.101" gradientUnits="userSpaceOnUse" id="color-22">
            <stop offset="0" stop-color="#ffffff"/>
            <stop offset="1" stop-color="#e6ebf0"/>
        </linearGradient>
        <linearGradient x1="144" y1="400" x2="152.537" y2="428.101" gradientUnits="userSpaceOnUse" id="color-23">
            <stop offset="0" stop-color="#ffffff"/>
            <stop offset="1" stop-color="#e6ebf0"/>
        </linearGradient>
        <linearGradient x1="64" y1="400" x2="73.721" y2="432" gradientUnits="userSpaceOnUse" id="color-24">
            <stop offset="0" stop-color="#ffffff"/>
            <stop offset="1" stop-color="#edf1f4"/>
        </linearGradient>
        <linearGradient x1="64" y1="448" x2="70.6375" y2="471.685" gradientUnits="userSpaceOnUse" id="color-25">
            <stop offset="0" stop-color="#ffffff"/>
            <stop offset="1" stop-color="#e8edf2"/>
        </linearGradient>
        <linearGradient x1="160" y1="448" x2="168.9665" y2="480" gradientUnits="userSpaceOnUse" id="color-26">
            <stop offset="0" stop-color="#fdfdfe"/>
            <stop offset="1" stop-color="#f2f4f7"/>
        </linearGradient>
        <linearGradient x1="368" y1="448" x2="374.6365" y2="471.685" gradientUnits="userSpaceOnUse" id="color-27">
            <stop offset="0" stop-color="#ffffff"/>
            <stop offset="1" stop-color="#e8edf2"/>
        </linearGradient>
    </defs>
    <g fill="none" fill-rule="evenodd" stroke="none" stroke-width="1" stroke-linecap="butt" stroke-linejoin="miter" stroke-miterlimit="10" stroke-dasharray="" stroke-dashoffset="0" font-family="none" font-weight="none" text-anchor="none" style="mix-blend-mode: normal">
        <path d="M48,272l416,0c9,0 16,7 16,16l0,208c0,9 -7,16 -16,16l-416,0c-9,0 -16,-7 -16,-16l0,-208c0,-9 7,-16 16,-16z" id="curve26" fill="url(#color-1)"/>
        <path d="M48,0l416,0c9,0 16,7 16,16l0,240c0,9 -7,16 -16,16l-416,0c-9,0 -16,-7 -16,-16l0,-240c0,-9 7,-16 16,-16z" id="curve25" fill="url(#color-2)"/>
        <path d="M64,32l384,0l0,208l-384,0z" id="curve24" fill="url(#color-3)"/>
        <path d="M448,32l0,16l-384,0l0,-16z" id="curve23" fill="url(#color-4)"/>
        <path d="M144,304l32,0l0,32l-32,0z" id="curve22" fill="url(#color-5)"/>
        <path d="M192,304l32,0l0,32l-32,0z" id="curve21" fill="url(#color-6)"/>
        <path d="M240,304l32,0l0,32l-32,0z" id="curve20" fill="url(#color-7)"/>
        <path d="M64,304l64,0l0,32l-64,0z" id="curve19" fill="url(#color-8)"/>
        <path d="M288,304l32,0l0,32l-32,0z" id="curve18" fill="url(#color-9)"/>
        <path d="M336,304l32,0l0,32l-32,0z" id="curve17" fill="url(#color-10)"/>
        <path d="M384,304l64,0l0,16l0,16l0,48l-48,0l0,-48l-16,0z" id="curve16" fill="url(#color-11)"/>
        <path d="M64,352l80,0l0,32l-80,0z" id="curve15" fill="url(#color-12)"/>
        <path d="M160,352l32,0l0,32l-32,0z" id="curve14" fill="url(#color-13)"/>
        <path d="M208,352l32,0l0,32l-32,0z" id="curve13" fill="url(#color-14)"/>
        <path d="M256,352l32,0l0,32l-32,0z" id="curve12" fill="url(#color-15)"/>
        <path d="M304,352l32,0l0,32l-32,0z" id="curve11" fill="url(#color-16)"/>
        <path d="M352,352l32,0l0,32l-32,0z" id="curve10" fill="url(#color-17)"/>
        <path d="M384,400l64,0l0,32l-64,0z" id="curve9" fill="url(#color-18)"/>
        <path d="M336,400l32,0l0,32l-32,0z" id="curve8" fill="url(#color-19)"/>
        <path d="M288,400l32,0l0,32l-32,0z" id="curve7" fill="url(#color-20)"/>
        <path d="M240,400l32,0l0,32l-32,0z" id="curve6" fill="url(#color-21)"/>
        <path d="M192,400l0,32l32,0l0,-32z" id="curve5" fill="url(#color-22)"/>
        <path d="M144,400l32,0l0,32l-32,0z" id="curve4" fill="url(#color-23)"/>
        <path d="M64,400l64,0l0,32l-64,0z" id="curve3" fill="url(#color-24)"/>
        <path d="M64,448l80,0l0,32l-80,0z" id="curve2" fill="url(#color-25)"/>
        <path d="M160,448l192,0l0,32l-192,0z" id="curve1" fill="url(#color-26)"/>
        <path d="M368,448l80,0l0,32l-80,0z" id="curve0" fill="url(#color-27)"/>
    </g>
</svg>