<svg version="1.1"
    xmlns="http://www.w3.org/2000/svg"
    xmlns:xlink="http://www.w3.org/1999/xlink" width="512" height="512" viewBox="0 0 512 512">
    <title>books icon</title>
    <desc>books icon from the IconExperience.com G-Collection. Copyright by INCORS GmbH (www.incors.com).</desc>
    <defs>
        <linearGradient x1="272" y1="32" x2="317.218" y2="32" gradientUnits="userSpaceOnUse" id="color-1">
            <stop offset="0" stop-color="#59a31d"/>
            <stop offset="1" stop-color="#77da26"/>
        </linearGradient>
        <linearGradient x1="464" y1="48" x2="438.8605" y2="399.964" gradientUnits="userSpaceOnUse" id="color-2">
            <stop offset="0" stop-color="#ffffff"/>
            <stop offset="1" stop-color="#b3c0cd"/>
        </linearGradient>
        <linearGradient x1="224" y1="32" x2="448.001" y2="402.4638" gradientUnits="userSpaceOnUse" id="color-3">
            <stop offset="0" stop-color="#92e64d"/>
            <stop offset="1" stop-color="#7bdc2c"/>
        </linearGradient>
        <linearGradient x1="224" y1="96" x2="351.9995" y2="342.153" gradientUnits="userSpaceOnUse" id="color-4">
            <stop offset="0" stop-color="#74d425"/>
            <stop offset="1" stop-color="#6bc322"/>
        </linearGradient>
        <linearGradient x1="176" y1="32" x2="228.452" y2="32.3289" gradientUnits="userSpaceOnUse" id="color-5">
            <stop offset="0" stop-color="#6d7c8b"/>
            <stop offset="1" stop-color="#51616f"/>
        </linearGradient>
        <linearGradient x1="128" y1="80" x2="173.218" y2="80" gradientUnits="userSpaceOnUse" id="color-6">
            <stop offset="0" stop-color="#0e76b2"/>
            <stop offset="1" stop-color="#129eee"/>
        </linearGradient>
        <linearGradient x1="320" y1="96" x2="294.8605" y2="447.965" gradientUnits="userSpaceOnUse" id="color-7">
            <stop offset="0" stop-color="#ffffff"/>
            <stop offset="1" stop-color="#b3c0cd"/>
        </linearGradient>
        <linearGradient x1="80" y1="80" x2="304.0005" y2="450.464" gradientUnits="userSpaceOnUse" id="color-8">
            <stop offset="0" stop-color="#42b1f1"/>
            <stop offset="1" stop-color="#19a1ee"/>
        </linearGradient>
        <linearGradient x1="32" y1="80" x2="84.4538" y2="80.3295" gradientUnits="userSpaceOnUse" id="color-9">
            <stop offset="0" stop-color="#6d7c8b"/>
            <stop offset="1" stop-color="#51616f"/>
        </linearGradient>
    </defs>
    <g fill="none" fill-rule="evenodd" stroke="none" stroke-width="1" stroke-linecap="butt" stroke-linejoin="miter" stroke-miterlimit="10" stroke-dasharray="" stroke-dashoffset="0" font-family="none" font-weight="none" text-anchor="none" style="mix-blend-mode: normal">
        <path d="M480,64c0,138.5 0,197.5 0,336c0,17.5 -14.5,32 -32,32l-176,0l0,-400l176,0c17.5,0 32,14.5 32,32z" id="curve10" fill="url(#color-1)"/>
        <path d="M448,48c9,0 16,7 16,16l0,336c0,9 -7,16 -16,16l-224,0l0,-368z" id="curve9" fill="url(#color-2)"/>
        <path d="M448,64c0,138.5 0,197.5 0,336c0,17.5 -14.5,32 -32,32l-192,0l0,-400l192,0c17.5,0 32,14.5 32,32z" id="curve8" fill="url(#color-3)"/>
        <path d="M352,432l-128,0l0,-336l96,0c17.5,0 32,14.5 32,32c0,127.5 0,187.5 0,304z" id="curve7" fill="url(#color-4)"/>
        <path d="M224,32l16,0l0,400l-16,0c-26.5,0 -48,-21.5 -48,-48l0,-304c0,-26.5 21.5,-48 48,-48z" id="curve6" fill="url(#color-5)"/>
        <path d="M224,32l16,0l0,400l-16,0z" id="curve5" fill="#36414a"/>
        <path d="M336,112c0,138.5 0,197.5 0,336c0,17.5 -14.5,32 -32,32l-176,0l0,-400l176,0c17.5,0 32,14.5 32,32z" id="curve4" fill="url(#color-6)"/>
        <path d="M304,96c9,0 16,7 16,16l0,336c0,9 -7,16 -16,16l-224,0l0,-368z" id="curve3" fill="url(#color-7)"/>
        <path d="M304,112c0,138.5 0,197.5 0,336c0,17.5 -14.5,32 -32,32l-192,0l0,-400l192,0c17.5,0 32,14.5 32,32z" id="curve2" fill="url(#color-8)"/>
        <path d="M80,80l16,0l0,400l-16,0c-26.5,0 -48,-21.5 -48,-48l0,-304c0,-26.5 21.5,-48 48,-48z" id="curve1" fill="url(#color-9)"/>
        <path d="M80,80l16,0l0,400l-16,0z" id="curve0" fill="#36414a"/>
    </g>
</svg>