<svg version="1.1"
    xmlns="http://www.w3.org/2000/svg"
    xmlns:xlink="http://www.w3.org/1999/xlink" width="512" height="512" viewBox="0 0 512 512">
    <title>lightbulb on icon</title>
    <desc>lightbulb on icon from the IconExperience.com G-Collection. Copyright by INCORS GmbH (www.incors.com).</desc>
    <defs>
        <linearGradient x1="192" y1="368" x2="316.3755" y2="369.563" gradientUnits="userSpaceOnUse" id="color-1">
            <stop offset="0" stop-color="#b3c0cd"/>
            <stop offset="1" stop-color="#91a0af"/>
        </linearGradient>
        <linearGradient x1="192" y1="368" x2="320.0005" y2="368" gradientUnits="userSpaceOnUse" id="color-2">
            <stop offset="0" stop-color="#b3c0cd"/>
            <stop offset="1" stop-color="#7e8c9b"/>
        </linearGradient>
        <radialGradient cx="176.10866" cy="115.5013" r="360.54836" fx="176.10866" fy="115.5013" gradientUnits="userSpaceOnUse" id="color-3">
            <stop offset="0" stop-color="#fefefe"/>
            <stop offset="0.34902" stop-color="#ffe081"/>
            <stop offset="0.65098" stop-color="#ffd041"/>
            <stop offset="1" stop-color="#ffc001"/>
        </radialGradient>
    </defs>
    <g fill="none" fill-rule="evenodd" stroke="none" stroke-width="1" stroke-linecap="butt" stroke-linejoin="miter" stroke-miterlimit="10" stroke-dasharray="" stroke-dashoffset="0" font-family="none" font-weight="none" text-anchor="none" style="mix-blend-mode: normal">
        <path d="M192,368l128,0l0,93.5c0,10.5 -4.5,19 -13,25l-21,15.5c-18,13.5 -42,13.5 -60,0l-21,-15.5c-8.5,-6 -13,-14.5 -13,-25z" id="curve3" fill="url(#color-1)"/>
        <path d="M320,368l0,32l-128,0l0,-32z" id="curve2" fill="url(#color-2)"/>
        <path d="M294.5,496l-8.5,6c-18,13.5 -42,13.5 -60,0l-8.5,-6z" id="curve1" fill="#717f8f"/>
        <path d="M256,0c88.5,0 160,74 160,144c0,115.5 -80,128.5 -80,192.5c0,17.5 0,48 -16,48l-128,0c-16,0 -16,-30.5 -16,-48c0,-64 -80,-77 -80,-192.5c0,-70 71.5,-144 160,-144z" id="curve0" fill="url(#color-3)"/>
    </g>
</svg>