<svg version="1.1"
    xmlns="http://www.w3.org/2000/svg"
    xmlns:xlink="http://www.w3.org/1999/xlink" width="512" height="512" viewBox="0 0 512 512">
    <title>earth network icon</title>
    <desc>earth network icon from the IconExperience.com G-Collection. Copyright by INCORS GmbH (www.incors.com).</desc>
    <defs>
        <linearGradient x1="240" y1="384" x2="272.0005" y2="384" gradientUnits="userSpaceOnUse" id="color-1">
            <stop offset="0" stop-color="#6d7b8b"/>
            <stop offset="1" stop-color="#586776"/>
        </linearGradient>
        <linearGradient x1="192" y1="448" x2="192.5905" y2="485.0905" gradientUnits="userSpaceOnUse" id="color-2">
            <stop offset="0" stop-color="#ffd041"/>
            <stop offset="1" stop-color="#ffc001"/>
        </linearGradient>
        <radialGradient cx="185.10496" cy="166.61639" r="374.14497" fx="185.10496" fy="166.61639" gradientUnits="userSpaceOnUse" id="color-3">
            <stop offset="0" stop-color="#98e957"/>
            <stop offset="0.41177" stop-color="#77da26"/>
            <stop offset="1" stop-color="#3b6d13"/>
        </radialGradient>
        <radialGradient cx="179.30338" cy="161.91769" r="358.93492" fx="179.30338" fy="161.91769" gradientUnits="userSpaceOnUse" id="color-4">
            <stop offset="0" stop-color="#4eb6f2"/>
            <stop offset="0.2" stop-color="#43abe7"/>
            <stop offset="1" stop-color="#0e76b2"/>
        </radialGradient>
    </defs>
    <g fill="none" fill-rule="evenodd" stroke="none" stroke-width="1" stroke-linecap="butt" stroke-linejoin="miter" stroke-miterlimit="10" stroke-dasharray="" stroke-dashoffset="0" font-family="none" font-weight="none" text-anchor="none" style="mix-blend-mode: normal">
        <path d="M240,384l32,0l0,80l96,0l0,32l-224,0l0,-32l96,0z" id="curve4" fill="#717f8f"/>
        <path d="M240,384l32,0l0,47.5c-5.5,0.5 -10.5,0.5 -16,0.5c-5.5,0 -10.5,0 -16,-0.5z" id="curve3" fill="url(#color-1)"/>
        <path d="M208,448l96,0c9,0 16,7 16,16l0,32c0,9 -7,16 -16,16l-96,0c-9,0 -16,-7 -16,-16l0,-32c0,-9 7,-16 16,-16z" id="curve2" fill="url(#color-2)"/>
        <path d="M256,0c115,0 208,93 208,208c0,115 -93,208 -208,208c-115,0 -208,-93 -208,-208c0,-115 93,-208 208,-208z" id="curve1" fill="url(#color-3)"/>
        <path d="M305,127c5.5,-2 13,-2 16,-1c14.5,5 14,19.5 28.5,22c2,0.5 9.5,-4.5 11.5,-4c9,1.5 17.5,10 25.5,6c4.5,-2 7,-11 3,-14.5c-4,-3 -10.5,-1 -15,-4c-6.5,-4.5 -12,2 -17.5,-4.5c-2.5,-2.5 -7,-11.5 -10,-16.5c-3.5,-5 -14,-3 -12.5,-0.5c5.5,7 13.5,8.5 14.5,12.5c1,4.5 -10.5,10 -7.5,2c2,-4 -6.5,-6.5 -15.5,-11.5c-5,-2.5 -10,-9.5 -17.5,-6c-3.5,2 -10.5,10.5 -13.5,15c-4.5,7 -15,5 -22.5,1.5c-7,-3.5 -7,-20.5 2,-28c9,-7.5 16,-3 25,-5.5c3.5,-1 5,-5 10.5,-8.5c6,-4 -4,-10.5 -0.5,-17.5c2.5,-5.5 12,-6.5 16.5,-9c4.5,-2 9.5,-6 14.5,-3c7,4 14.5,4.5 21,8.5c10,6 17,9.5 26.5,8.5c-31.5,-30.5 -74,-50 -120.5,-52.5c6.5,4.5 18,18 15,25c-3,7 -7.5,15.5 -21,20.5c-10,4 -23.5,4 -33.5,8.5c-10,4.5 -20.5,4 -26.5,5.5c-9.5,2 0.5,-31 -2,-34.5c-4,-5.5 -29,-1 -31.5,4.5c-5,13.5 7,24.5 6.5,27c-1,5 -1,25 -6,30c-7,8 -25.5,15 -28,15.5c-11.5,1.5 -14.5,13.5 -23.5,20.5c-3.5,3 -22.5,23 -25.5,29c-8,17 0,27.5 3.5,31c6.5,5.5 9,6.5 16.5,8.5c2.5,1 29.5,14.5 37,22.5c7.5,7.5 11,15.5 18.5,20c9,5.5 25.5,11.5 28,16c10,19 6.5,46 -22,65.5c-7.5,5 -22.5,13 -18.5,27c1.5,5.5 1,10 3,14.5c29,17 62.5,27 98.5,27c106,0 192,-86 192,-192c0,-9 -0.5,-18 -2,-27c-3,-4 -6,-7 -8,-6.5c-3.5,1 -3.5,11.5 -7,17c-3,5 -9.5,5.5 -10.5,7c-6.5,9.5 16.5,17 6.5,29.5c-4.5,6 -17.5,18.5 -21,34.5c-7.5,34.5 -2.5,13.5 -13.5,41.5c-1.5,4 -4.5,20 -7,23.5c-10.5,16 -40.5,34.5 -48,25c-4,-5.5 -6.5,-13.5 -8,-21c-1.5,-8 -9.5,-18 -8.5,-24c1,-9.5 2,-12.5 2,-23.5c0,-0.5 -6.5,-27 -7.5,-29.5c-5,-10 -13,-15 -24.5,-11c-8.5,3 -16,-1.5 -23,-4c-14,-6 -20.5,-24 -23.5,-39c0,0 2.5,-23.5 2.5,-24.5c0.5,-6.5 3,-12 6.5,-17c25,-35.5 19,-20.5 51.5,-32z M145.5,365c-11,-12.5 -22.5,-28 -26,-36.5c-4,-10 -5,-28 -10,-33.5c-10,-11 -19,-20.5 -20.5,-32c-2,-10.5 -8,-26 -9,-34c-1.5,-12 -7,-24.5 -15.5,-34c-0.5,4.5 -0.5,8.5 -0.5,13c0,65 32,122 81.5,157z" id="curve0" fill="url(#color-4)"/>
    </g>
</svg>