<svg version="1.1"
    xmlns="http://www.w3.org/2000/svg"
    xmlns:xlink="http://www.w3.org/1999/xlink" width="512" height="512" viewBox="0 0 512 512">
    <title>objects transform icon</title>
    <desc>objects transform icon from the IconExperience.com G-Collection. Copyright by INCORS GmbH (www.incors.com).</desc>
    <defs>
        <linearGradient x1="192.07554" y1="352" x2="455.95554" y2="346.436" gradientUnits="userSpaceOnUse" id="color-1">
            <stop offset="0" stop-color="#ffd041"/>
            <stop offset="0.30196" stop-color="#ffc001"/>
            <stop offset="1" stop-color="#c08300"/>
        </linearGradient>
        <linearGradient x1="192.02086" y1="234.5" x2="336.02086" y2="266.4995" gradientUnits="userSpaceOnUse" id="color-2">
            <stop offset="0" stop-color="#ffc001"/>
            <stop offset="1" stop-color="#c08300"/>
        </linearGradient>
        <linearGradient x1="16" y1="0" x2="159.99995" y2="208.0002" gradientUnits="userSpaceOnUse" id="color-3">
            <stop offset="0" stop-color="#4eb6f2"/>
            <stop offset="1" stop-color="#129eee"/>
        </linearGradient>
        <linearGradient x1="0" y1="176" x2="256.0015" y2="416.001" gradientUnits="userSpaceOnUse" id="color-4">
            <stop offset="0" stop-color="#b3c0cd"/>
            <stop offset="1" stop-color="#91a0af"/>
        </linearGradient>
        <linearGradient x1="0" y1="176" x2="177.4385" y2="342.3485" gradientUnits="userSpaceOnUse" id="color-5">
            <stop offset="0" stop-color="#b3c0cd"/>
            <stop offset="1" stop-color="#91a0af"/>
        </linearGradient>
        <linearGradient x1="288" y1="240" x2="285.8285" y2="500.7435" gradientUnits="userSpaceOnUse" id="color-6">
            <stop offset="0" stop-color="#91a0af"/>
            <stop offset="1" stop-color="#717f8f"/>
        </linearGradient>
    </defs>
    <g fill="none" fill-rule="evenodd" stroke="none" stroke-width="1" stroke-linecap="butt" stroke-linejoin="miter" stroke-miterlimit="10" stroke-dasharray="" stroke-dashoffset="0" font-family="none" font-weight="none" text-anchor="none" style="mix-blend-mode: normal">
        <path d="M352,352c87.5,0 174,-32.5 158,-61.5l-158,-283l-158,283c-16,29 70.5,61.5 158,61.5z" fill="url(#color-1)"/>
        <path d="M225,234.5l97.5,25l-15,90c-69.5,-8.5 -127,-35 -113.5,-59z" fill="url(#color-2)"/>
        <path d="M208,64l-48,0c-79.5,0 -144,64.5 -144,144c0,40 16,76 42,102l45.5,-45.5c-14.5,-14.5 -23.5,-34.5 -23.5,-56.5c0,-44 36,-80 80,-80l48,0l0,64l96,-96l-96,-96z" fill="url(#color-3)"/>
        <path d="M0,240l144,-64l144,64l0,176l-144,64l-144,-64z" fill="url(#color-4)"/>
        <path d="M0,240l144,-64l144,64l-144,64z" fill="url(#color-5)"/>
        <path d="M288,240l-144,64l0,176l144,-64z" fill="url(#color-6)"/>
    </g>
</svg>