<svg version="1.1"
    xmlns="http://www.w3.org/2000/svg"
    xmlns:xlink="http://www.w3.org/1999/xlink" width="512" height="512" viewBox="0 0 512 512">
    <title>stapler icon</title>
    <desc>stapler icon from the IconExperience.com G-Collection. Copyright by INCORS GmbH (www.incors.com).</desc>
    <defs>
        <linearGradient x1="464" y1="352" x2="368" y2="352" gradientUnits="userSpaceOnUse" id="color-1">
            <stop offset="0" stop-color="#b3c0cd"/>
            <stop offset="1" stop-color="#d8e0e8"/>
        </linearGradient>
        <linearGradient x1="128" y1="272" x2="128" y2="320" gradientUnits="userSpaceOnUse" id="color-2">
            <stop offset="0" stop-color="#c2cdd8"/>
            <stop offset="1" stop-color="#d8e0e8"/>
        </linearGradient>
        <linearGradient x1="128" y1="272" x2="130.135" y2="289.0835" gradientUnits="userSpaceOnUse" id="color-3">
            <stop offset="0" stop-color="#b3c0cd"/>
            <stop offset="1" stop-color="#bac6d2"/>
        </linearGradient>
        <linearGradient x1="16" y1="240" x2="45.27875" y2="379.0765" gradientUnits="userSpaceOnUse" id="color-4">
            <stop offset="0" stop-color="#91a0af"/>
            <stop offset="1" stop-color="#748392"/>
        </linearGradient>
        <linearGradient x1="16" y1="240" x2="39.06105" y2="349.5415" gradientUnits="userSpaceOnUse" id="color-5">
            <stop offset="0" stop-color="#91a0af"/>
            <stop offset="1" stop-color="#717f8f"/>
        </linearGradient>
        <linearGradient x1="16" y1="416" x2="17.2951" y2="423.543" gradientUnits="userSpaceOnUse" id="color-6">
            <stop offset="0" stop-color="#51616f"/>
            <stop offset="1" stop-color="#4d5c69"/>
        </linearGradient>
        <linearGradient x1="0" y1="176" x2="12.98032" y2="342.44" gradientUnits="userSpaceOnUse" id="color-7">
            <stop offset="0" stop-color="#4eb6f2"/>
            <stop offset="1" stop-color="#129eee"/>
        </linearGradient>
    </defs>
    <g fill="none" fill-rule="evenodd" stroke="none" stroke-width="1" stroke-linecap="butt" stroke-linejoin="miter" stroke-miterlimit="10" stroke-dasharray="" stroke-dashoffset="0" font-family="none" font-weight="none" text-anchor="none" style="mix-blend-mode: normal">
        <path d="M384,352l64,0c9,0 16,7 16,16l0,16l-96,0l0,-16c0,-9 7,-16 16,-16z" id="curve7" fill="url(#color-1)"/>
        <path d="M472,320l-344,0l0,-48l352,0l0,40c0,4.5 -3.5,8 -8,8z" id="curve6" fill="url(#color-2)"/>
        <path d="M202,320l-74,0l0,-48l352,0l0,32l-224,0c-22,0 -37,5 -54,16z" id="curve5" fill="url(#color-3)"/>
        <path d="M209,368l271,0l22.5,22.5c6.5,6.5 9.5,14 9.5,23l0,18.5l-496,0l0,-160l112,-32l54.5,113.5c5,10 15.5,14.5 26.5,14.5z" id="curve4" fill="url(#color-4)"/>
        <path d="M16,368l0,-96l112,-32l47.5,98.5c-7.5,5.5 -15.5,10 -24,14.5c-22.5,11 -46.5,15 -71.5,15z" id="curve3" fill="url(#color-5)"/>
        <path d="M16,416l496,0l0,24c0,4.5 -3.5,8 -8,8l-472,0c-9,0 -16,-7 -16,-16z" id="curve2" fill="url(#color-6)"/>
        <path d="M368,176l96,0c48,0 48,30.5 48,48l0,48c0,9 -7,16 -16,16l-240,0c-80,0 -80,64 -176,64l-64,0c-9,0 -16,-7 -16,-16l0,-80c0,-72 286.5,-80 368,-80z" id="curve1" fill="url(#color-7)"/>
        <path d="M80,272c13.5,0 24,10.5 24,24c0,13.5 -10.5,24 -24,24c-13.5,0 -24,-10.5 -24,-24c0,-13.5 10.5,-24 24,-24z" id="curve0" fill="#d8e0e8"/>
    </g>
</svg>