<svg version="1.1"
    xmlns="http://www.w3.org/2000/svg"
    xmlns:xlink="http://www.w3.org/1999/xlink" width="512" height="512" viewBox="0 0 512 512">
    <title>stethoscope icon</title>
    <desc>stethoscope icon from the IconExperience.com G-Collection. Copyright by INCORS GmbH (www.incors.com).</desc>
    <defs>
        <linearGradient x1="21" y1="48" x2="21" y2="256.00055" gradientUnits="userSpaceOnUse" id="color-1">
            <stop offset="0" stop-color="#e1f3fd"/>
            <stop offset="1" stop-color="#c5e7fb"/>
        </linearGradient>
        <linearGradient x1="55.5" y1="144" x2="433.4915" y2="395.9945" gradientUnits="userSpaceOnUse" id="color-2">
            <stop offset="0" stop-color="#129eee"/>
            <stop offset="1" stop-color="#0f7fbf"/>
        </linearGradient>
        <linearGradient x1="80" y1="32" x2="80" y2="95.99985" gradientUnits="userSpaceOnUse" id="color-3">
            <stop offset="0" stop-color="#717f8f"/>
            <stop offset="1" stop-color="#51616f"/>
        </linearGradient>
        <linearGradient x1="336" y1="16" x2="482.875" y2="176.1982" gradientUnits="userSpaceOnUse" id="color-4">
            <stop offset="0" stop-color="#c5e7fb"/>
            <stop offset="1" stop-color="#90d2f7"/>
        </linearGradient>
        <linearGradient x1="352" y1="32" x2="480" y2="151.17285" gradientUnits="userSpaceOnUse" id="color-5">
            <stop offset="0" stop-color="#6f7d8d"/>
            <stop offset="1" stop-color="#556573"/>
        </linearGradient>
        <linearGradient x1="368" y1="48" x2="460.0905" y2="141.2375" gradientUnits="userSpaceOnUse" id="color-6">
            <stop offset="0" stop-color="#ffffff"/>
            <stop offset="1" stop-color="#d5eefc"/>
        </linearGradient>
    </defs>
    <g fill="none" fill-rule="none" stroke="none" stroke-width="1" stroke-linecap="butt" stroke-linejoin="miter" stroke-miterlimit="10" stroke-dasharray="" stroke-dashoffset="0" font-family="none" font-weight="none" text-anchor="none" style="mix-blend-mode: normal">
        <path d="M228.5,80c-9,0 -16,-7 -16,-16c0,-9 7,-16 16,-16l20.5,0c3.5,0 6.5,0.5 9.5,1.5c11.5,3 22,12 29.5,24c6.5,11 11,25 11,39.5l0,0c0,6.5 -0.5,13 -2.5,19.5l-32,112c-7.5,27 -22,49 -39.5,65c-19,17 -42,26.5 -65,26.5c-23,0 -46,-9.5 -65,-26.5c-17.5,-16 -32,-38 -39.5,-65l-32,-112c-2,-6.5 -2.5,-13 -2.5,-19.5c0,-14.5 4.5,-28.5 11,-39.5c7.5,-12 18,-21 29.5,-24c3,-1 6,-1.5 9.5,-1.5l20.5,0c9,0 16,7 16,16c0,9 -7,16 -16,16l-20.5,0c-0.5,0 -0.5,0 -1,0c-3.5,1 -7.5,5 -10.5,10c-4,6.5 -6.5,14.5 -6.5,23c0,3.5 0.5,7 1.5,10.5l32,112c5.5,21 16.5,38 30,50c13,12 28.5,18.5 43.5,18.5c15,0 30.5,-6.5 43.5,-18.5c13.5,-12 24.5,-29 30,-50l32,-112c1,-3.5 1.5,-7 1.5,-10.5l0,0c0,-8.5 -2.5,-16.5 -6.5,-23c-3,-5 -7,-9 -10.5,-10c-0.5,0 -0.5,0 -1,0z" id="curve5" fill="url(#color-1)" fill-rule="nonzero"/>
        <path d="M176,334.5l0,33.5c0,31 12.5,59 33,79c20,20.5 48,33 79,33l0,0c31,0 59,-12.5 79,-33c20.5,-20 33,-48 33,-79l0,-208c0,-9 7,-16 16,-16c9,0 16,7 16,16l0,208c0,39.5 -16,75.5 -42,102c-26.5,26 -62.5,42 -102,42l0,0c-39.5,0 -75.5,-16 -102,-42c-26,-26.5 -42,-62.5 -42,-102l0,-33.5c-17.5,-3.5 -34.5,-12 -49,-25c-17.5,-16 -32,-38 -39.5,-65l31,-9c5.5,21 16.5,38 30,50c13,12 28.5,18.5 43.5,18.5c15,0 30.5,-6.5 43.5,-18.5c13.5,-12 24.5,-29 30,-50l31,9c-7.5,27 -22,49 -39.5,65c-14.5,13 -31.5,21.5 -49,25z" id="curve4" fill="url(#color-2)" fill-rule="nonzero"/>
        <path d="M96,32l-8,0c-4.5,0 -8,3.5 -8,8l0,48c0,4.5 3.5,8 8,8l8,0c17.5,0 32,-14.5 32,-32l0,0c0,-17.5 -14.5,-32 -32,-32z M208,32l8,0c4.5,0 8,3.5 8,8l0,48c0,4.5 -3.5,8 -8,8l-8,0c-17.5,0 -32,-14.5 -32,-32l0,0c0,-17.5 14.5,-32 32,-32z" id="curve3" fill="url(#color-3)" fill-rule="evenodd"/>
        <path d="M416,16c-44,0 -80,36 -80,80c0,44 36,80 80,80c44,0 80,-36 80,-80c0,-44 -36,-80 -80,-80z" id="curve2" fill="url(#color-4)" fill-rule="evenodd"/>
        <path d="M416,32c-35.5,0 -64,28.5 -64,64c0,35.5 28.5,64 64,64c35.5,0 64,-28.5 64,-64c0,-35.5 -28.5,-64 -64,-64z" id="curve1" fill="url(#color-5)" fill-rule="evenodd"/>
        <path d="M416,48c-26.5,0 -48,21.5 -48,48c0,26.5 21.5,48 48,48c26.5,0 48,-21.5 48,-48c0,-26.5 -21.5,-48 -48,-48z M416,80c9,0 16,7 16,16c0,9 -7,16 -16,16c-9,0 -16,-7 -16,-16c0,-9 7,-16 16,-16z" id="curve0" fill="url(#color-6)" fill-rule="nonzero"/>
    </g>
</svg>