<svg version="1.1"
    xmlns="http://www.w3.org/2000/svg"
    xmlns:xlink="http://www.w3.org/1999/xlink" width="512" height="512" viewBox="0 0 512 512">
    <title>spellcheck2 icon</title>
    <desc>spellcheck2 icon from the IconExperience.com G-Collection. Copyright by INCORS GmbH (www.incors.com).</desc>
    <defs>
        <linearGradient x1="0" y1="304" x2="0" y2="383.9995" gradientUnits="userSpaceOnUse" id="color-1">
            <stop offset="0" stop-color="#df4c41"/>
            <stop offset="1" stop-color="#c43126"/>
        </linearGradient>
        <linearGradient x1="0" y1="103.5" x2="416.2185" y2="288.037" gradientUnits="userSpaceOnUse" id="color-2">
            <stop offset="0" stop-color="#6f7d8d"/>
            <stop offset="1" stop-color="#596877"/>
        </linearGradient>
    </defs>
    <g fill="none" fill-rule="nonzero" stroke="none" stroke-width="1" stroke-linecap="butt" stroke-linejoin="miter" stroke-miterlimit="10" stroke-dasharray="" stroke-dashoffset="0" font-family="none" font-weight="none" text-anchor="none" style="mix-blend-mode: normal">
        <path d="M0,304c25,0 37,11.5 48.5,23c5,4.5 9.5,9 15.5,9c6,0 10.5,-4.5 15.5,-9c11.5,-11.5 23,-23 48.5,-23c25,0 37,11.5 48.5,23c5,4.5 9.5,9 15.5,9c6,0 10.5,-4.5 15.5,-9c11.5,-11.5 23,-23 48.5,-23c25,0 37,11.5 48.5,23c5,4.5 9.5,9 15.5,9c6,0 10.5,-4.5 15.5,-9c11.5,-11.5 23,-23 48.5,-23c25,0 37,11.5 48.5,23c5,4.5 9.5,9 15.5,9c6,0 10.5,-4.5 15.5,-9c11.5,-11.5 23,-23 48.5,-23l0,48c-6,0 -10.5,4.5 -15,9c-12,11.5 -23.5,23 -49,23c-25,0 -37,-11.5 -48.5,-23c-5,-4.5 -9.5,-9 -15.5,-9c-6,0 -10.5,4.5 -15,9c-12,11.5 -23.5,23 -49,23c-25,0 -37,-11.5 -48.5,-23c-5,-4.5 -9.5,-9 -15.5,-9c-6,0 -10.5,4.5 -15,9c-12,11.5 -23.5,23 -49,23c-25,0 -37,-11.5 -48.5,-23c-5,-4.5 -9.5,-9 -15.5,-9c-6,0 -10.5,4.5 -15,9c-12,11.5 -23.5,23 -49,23c-25,0 -37,-11.5 -48.5,-23c-5,-4.5 -9.5,-9 -15.5,-9z" id="curve1" fill="url(#color-1)"/>
        <path d="M116,252l-59.5,0l-10.5,33.5l-46,0l66,-179.5l40.5,0l66.5,179.5l-46.5,0z M67,218.5l38.5,0l-19.5,-62z M195,285.5l0,-179.5l64,0c23.5,0 41,4 53,12.5c12,8.5 18,21 18,37c0,9.5 -2,17.5 -6.5,24c-4,6.5 -10.5,11.5 -19,14.5c9.5,2.5 17,7 22,14c5,6.5 7.5,14.5 7.5,24.5c0,17.5 -5.5,30.5 -17,39.5c-11,9 -27.5,13.5 -49.5,13.5z M238,209.5l0,42.5l28.5,0c7.5,0 13.5,-1.5 18,-5c4,-3.5 6,-8.5 6,-15c0,-15 -7.5,-22.5 -22,-22.5z M238,180.5l22.5,0c9.5,0 16.5,-1.5 20.5,-5c4,-3.5 6,-8.5 6,-15c0,-7.5 -2.5,-13 -6.5,-16c-4.5,-3.5 -11.5,-5 -21.5,-5l-21,0z M511.5,225c-0.5,12.5 -4,23.5 -10,33c-6,9.5 -15,17 -26,22c-11,5.5 -23.5,8 -38,8c-23.5,0 -42,-7.5 -56,-23c-13.5,-15.5 -20,-37 -20,-65l0,-9c0,-17.5 3,-33 9,-46c6,-13.5 15,-23.5 26.5,-31c11.5,-7 25,-10.5 40,-10.5c21.5,0 39,5.5 52.5,17c13,11.5 20.5,27.5 22.5,47.5l-43,0c-0.5,-11 -3,-19 -8.5,-23.5c-5,-5 -13,-7 -23.5,-7c-11,0 -18.5,4 -23.5,12c-5,8 -8,21 -8,38.5l0,12.5c0,19.5 2.5,33 7,41.5c5,8 13,12 25,12c10,0 17.5,-2 22.5,-7c5.5,-4.5 8.5,-12 8.5,-22z" id="curve0" fill="url(#color-2)"/>
    </g>
</svg>