<svg version="1.1"
    xmlns="http://www.w3.org/2000/svg"
    xmlns:xlink="http://www.w3.org/1999/xlink" width="512" height="512" viewBox="0 0 512 512">
    <title>target icon</title>
    <desc>target icon from the IconExperience.com G-Collection. Copyright by INCORS GmbH (www.incors.com).</desc>
    <defs>
        <linearGradient x1="0" y1="0" x2="372.73459" y2="512.00059" gradientUnits="userSpaceOnUse" id="color-1">
            <stop offset="0" stop-color="#edf0f4"/>
            <stop offset="1" stop-color="#d9e1e8"/>
        </linearGradient>
        <linearGradient x1="0" y1="252" x2="187.77809" y2="512" gradientUnits="userSpaceOnUse" id="color-2">
            <stop offset="0" stop-color="#d8dfe5"/>
            <stop offset="1" stop-color="#c1ccd6"/>
        </linearGradient>
        <linearGradient x1="0" y1="0" x2="49.31049" y2="260.00059" gradientUnits="userSpaceOnUse" id="color-3">
            <stop offset="0" stop-color="#ffffff"/>
            <stop offset="1" stop-color="#f4f6f8"/>
        </linearGradient>
        <linearGradient x1="48" y1="48" x2="405.7012" y2="465.31805" gradientUnits="userSpaceOnUse" id="color-4">
            <stop offset="0" stop-color="#717f8f"/>
            <stop offset="1" stop-color="#536371"/>
        </linearGradient>
        <linearGradient x1="96" y1="96" x2="400.431" y2="416.001" gradientUnits="userSpaceOnUse" id="color-5">
            <stop offset="0" stop-color="#49b4f2"/>
            <stop offset="1" stop-color="#18a0ee"/>
        </linearGradient>
        <linearGradient x1="144" y1="144" x2="354.2685" y2="368" gradientUnits="userSpaceOnUse" id="color-6">
            <stop offset="0" stop-color="#e04d42"/>
            <stop offset="1" stop-color="#c33025"/>
        </linearGradient>
        <linearGradient x1="192" y1="192" x2="310.156" y2="320.002" gradientUnits="userSpaceOnUse" id="color-7">
            <stop offset="0" stop-color="#ffcc30"/>
            <stop offset="1" stop-color="#ffc209"/>
        </linearGradient>
    </defs>
    <g fill="none" fill-rule="none" stroke="none" stroke-width="1" stroke-linecap="butt" stroke-linejoin="miter" stroke-miterlimit="10" stroke-dasharray="" stroke-dashoffset="0" font-family="none" font-weight="none" text-anchor="none" style="mix-blend-mode: normal">
        <path d="M256,0c141.5,0 256,114.5 256,256c0,141.5 -114.5,256 -256,256c-141.5,0 -256,-114.5 -256,-256c0,-141.5 114.5,-256 256,-256z" id="curve6" fill="url(#color-1)" fill-rule="evenodd"/>
        <path d="M512,252c0,1.5 0,2.5 0,4c0,141.5 -114.5,256 -256,256c-141.5,0 -256,-114.5 -256,-256c0,-1.5 0,-2.5 0,-4c2,139.5 116,252 256,252c140,0 254,-112.5 256,-252z" id="curve5" fill="url(#color-2)" fill-rule="evenodd"/>
        <path d="M256,0c141.5,0 256,114.5 256,256c0,1.5 0,2.5 0,4c-2,-139.5 -116,-252 -256,-252c-140,0 -254,112.5 -256,252c0,-1.5 0,-2.5 0,-4c0,-141.5 114.5,-256 256,-256z" id="curve4" fill="url(#color-3)" fill-rule="evenodd"/>
        <path d="M256,48c115,0 208,93 208,208c0,115 -93,208 -208,208c-115,0 -208,-93 -208,-208c0,-115 93,-208 208,-208z" id="curve3" fill="url(#color-4)" fill-rule="evenodd"/>
        <path d="M256,96c88.5,0 160,71.5 160,160c0,88.5 -71.5,160 -160,160c-88.5,0 -160,-71.5 -160,-160c0,-88.5 71.5,-160 160,-160z" id="curve2" fill="url(#color-5)" fill-rule="evenodd"/>
        <path d="M256,144c62,0 112,50 112,112c0,62 -50,112 -112,112c-62,0 -112,-50 -112,-112c0,-62 50,-112 112,-112z" id="curve1" fill="url(#color-6)" fill-rule="nonzero"/>
        <path d="M256,192c35.5,0 64,28.5 64,64c0,35.5 -28.5,64 -64,64c-35.5,0 -64,-28.5 -64,-64c0,-35.5 28.5,-64 64,-64z" id="curve0" fill="url(#color-7)" fill-rule="evenodd"/>
    </g>
</svg>