<svg version="1.1"
    xmlns="http://www.w3.org/2000/svg"
    xmlns:xlink="http://www.w3.org/1999/xlink" width="512" height="512" viewBox="0 0 512 512">
    <title>window dialog icon</title>
    <desc>window dialog icon from the IconExperience.com G-Collection. Copyright by INCORS GmbH (www.incors.com).</desc>
    <defs>
        <linearGradient x1="0" y1="64" x2="283.785" y2="331.0915" gradientUnits="userSpaceOnUse" id="color-1">
            <stop offset="0" stop-color="#40b0f1"/>
            <stop offset="1" stop-color="#129eee"/>
        </linearGradient>
        <linearGradient x1="0" y1="128" x2="153.8695" y2="464.0005" gradientUnits="userSpaceOnUse" id="color-2">
            <stop offset="0" stop-color="#e1f2fd"/>
            <stop offset="1" stop-color="#cceafb"/>
        </linearGradient>
        <linearGradient x1="64" y1="160" x2="318.3585" y2="320" gradientUnits="userSpaceOnUse" id="color-3">
            <stop offset="0" stop-color="#c2cdd8"/>
            <stop offset="1" stop-color="#b8c5d1"/>
        </linearGradient>
        <linearGradient x1="192" y1="368" x2="270.4975" y2="416" gradientUnits="userSpaceOnUse" id="color-4">
            <stop offset="0" stop-color="#9fadbc"/>
            <stop offset="1" stop-color="#98a6b5"/>
        </linearGradient>
        <linearGradient x1="336" y1="368" x2="418.9085" y2="416" gradientUnits="userSpaceOnUse" id="color-5">
            <stop offset="0" stop-color="#2ea9f0"/>
            <stop offset="1" stop-color="#1ea3ef"/>
        </linearGradient>
    </defs>
    <g fill="none" fill-rule="none" stroke="none" stroke-width="1" stroke-linecap="butt" stroke-linejoin="miter" stroke-miterlimit="10" stroke-dasharray="" stroke-dashoffset="0" font-family="none" font-weight="none" text-anchor="none" style="mix-blend-mode: normal">
        <path d="M512,80l0,384l-512,0l0,-384c0,-9 7,-16 16,-16l480,0c9,0 16,7 16,16z" id="curve5" fill="url(#color-1)" fill-rule="nonzero"/>
        <path d="M0,128l512,0l0,336l-512,0z" id="curve4" fill="url(#color-2)" fill-rule="nonzero"/>
        <path d="M464,80c9,0 16,7 16,16c0,9 -7,16 -16,16c-9,0 -16,-7 -16,-16c0,-9 7,-16 16,-16z M416,80c9,0 16,7 16,16c0,9 -7,16 -16,16c-9,0 -16,-7 -16,-16c0,-9 7,-16 16,-16z" id="curve3" fill="#ffffff" fill-rule="nonzero"/>
        <path d="M64,160l384,0l0,160l-384,0z" id="curve2" fill="url(#color-3)" fill-rule="evenodd"/>
        <path d="M200,368l96,0c4.5,0 8,3.5 8,8l0,32c0,4.5 -3.5,8 -8,8l-96,0c-4.5,0 -8,-3.5 -8,-8l0,-32c0,-4.5 3.5,-8 8,-8z" id="curve1" fill="url(#color-4)" fill-rule="evenodd"/>
        <path d="M344,368l96,0c4.5,0 8,3.5 8,8l0,32c0,4.5 -3.5,8 -8,8l-96,0c-4.5,0 -8,-3.5 -8,-8l0,-32c0,-4.5 3.5,-8 8,-8z" id="curve0" fill="url(#color-5)" fill-rule="nonzero"/>
    </g>


<g transform="translate(172,172) scale(0.66,0.66)">
    <title>wrench icon</title>
    <desc>wrench icon from the IconExperience.com G-Collection. Copyright by INCORS GmbH (www.incors.com).</desc>
    <defs>
        <linearGradient x1="10.37316" y1="11.35928" x2="255.26266" y2="396.27828" gradientUnits="userSpaceOnUse" id="w-color-1">
            <stop offset="0" stop-color="#91a0af"/>
            <stop offset="1" stop-color="#b3c0cd"/>
        </linearGradient>
        <linearGradient x1="260.5" y1="161" x2="333.856" y2="251.2215" gradientUnits="userSpaceOnUse" id="w-color-2">
            <stop offset="0" stop-color="#b3c0cd"/>
            <stop offset="1" stop-color="#ebedef"/>
        </linearGradient>
    </defs>
    <g fill="none" fill-rule="evenodd" stroke="#252525" stroke-width="10" stroke-linecap="butt" stroke-linejoin="round" stroke-miterlimit="10" stroke-dasharray="" stroke-dashoffset="0" font-family="none" font-weight="none" text-anchor="none" style="mix-blend-mode: normal">
        <path d="M500.5,141c1.5,30 -8,59.5 -29.5,81c-31,31 -77.5,37.5 -120,21.5c-6,-2.5 -13,-1 -17.5,4l-213.5,235c-23.5,26 -65.5,25 -90.5,0c-25,-25 -26,-67 0,-90.5l235,-213.5c5,-4.5 6.5,-11.5 4,-17.5c-16,-42.5 -9.5,-89 21.5,-120c34.5,-34.5 89.5,-38.5 136,-14c2.5,1.5 4,4 4,7c0,3 -1.5,5.5 -4,7l-68,39.5c-7.5,4.5 -1.5,29.5 14,56.5c15.5,27 34.5,45 42,40.5l74.5,-43c2.5,-1.5 5.5,-1.5 8,0c2.5,1 4,3.5 4,6.5z M97.5,414.5c-12.5,-12.5 -32.5,-12.5 -45,0c-12.5,12.5 -12.5,32.5 0,45c12.5,12.5 32.5,12.5 45,0c12.5,-12.5 12.5,-32.5 0,-45z" id="curve1" fill="url(#w-color-1)"/>
        <path d="M290,222c-12.5,-12 -22,-26 -29.5,-40l4,-3.5c5,-4.5 6.5,-11 4.5,-17.5c6.5,18 17.5,35 32.5,49.5c14.5,15 31.5,26 49.5,32.5c-6.5,-2 -13,-0.5 -17.5,4.5l-3.5,4c-14,-7.5 -28,-17 -40,-29.5z" id="curve0" fill="url(#w-color-2)"/>
    </g>
</g>

</svg>
