<svg version="1.1"
    xmlns="http://www.w3.org/2000/svg"
    xmlns:xlink="http://www.w3.org/1999/xlink" width="512" height="512" viewBox="0 0 512 512">
    <title>wrench icon</title>
    <desc>wrench icon from the IconExperience.com G-Collection. Copyright by INCORS GmbH (www.incors.com).</desc>
    <defs>
        <linearGradient x1="10.37316" y1="11.35928" x2="255.26266" y2="396.27828" gradientUnits="userSpaceOnUse" id="color-1">
            <stop offset="0" stop-color="#91a0af"/>
            <stop offset="1" stop-color="#b3c0cd"/>
        </linearGradient>
        <linearGradient x1="260.5" y1="161" x2="333.856" y2="251.2215" gradientUnits="userSpaceOnUse" id="color-2">
            <stop offset="0" stop-color="#b3c0cd"/>
            <stop offset="1" stop-color="#ebedef"/>
        </linearGradient>
    </defs>
    <g fill="none" fill-rule="evenodd" stroke="#252525" stroke-width="10" stroke-linecap="butt" stroke-linejoin="round" stroke-miterlimit="10" stroke-dasharray="" stroke-dashoffset="0" font-family="none" font-weight="none" text-anchor="none" style="mix-blend-mode: normal">
        <path d="M500.5,141c1.5,30 -8,59.5 -29.5,81c-31,31 -77.5,37.5 -120,21.5c-6,-2.5 -13,-1 -17.5,4l-213.5,235c-23.5,26 -65.5,25 -90.5,0c-25,-25 -26,-67 0,-90.5l235,-213.5c5,-4.5 6.5,-11.5 4,-17.5c-16,-42.5 -9.5,-89 21.5,-120c34.5,-34.5 89.5,-38.5 136,-14c2.5,1.5 4,4 4,7c0,3 -1.5,5.5 -4,7l-68,39.5c-7.5,4.5 -1.5,29.5 14,56.5c15.5,27 34.5,45 42,40.5l74.5,-43c2.5,-1.5 5.5,-1.5 8,0c2.5,1 4,3.5 4,6.5z M97.5,414.5c-12.5,-12.5 -32.5,-12.5 -45,0c-12.5,12.5 -12.5,32.5 0,45c12.5,12.5 32.5,12.5 45,0c12.5,-12.5 12.5,-32.5 0,-45z" id="curve1" fill="url(#color-1)"/>
        <path d="M290,222c-12.5,-12 -22,-26 -29.5,-40l4,-3.5c5,-4.5 6.5,-11 4.5,-17.5c6.5,18 17.5,35 32.5,49.5c14.5,15 31.5,26 49.5,32.5c-6.5,-2 -13,-0.5 -17.5,4.5l-3.5,4c-14,-7.5 -28,-17 -40,-29.5z" id="curve0" fill="url(#color-2)"/>
    </g>


<g transform="translate(256,256) scale(0.5,0.5)">
    <title>clock icon</title>
    <desc>clock icon from the IconExperience.com G-Collection. Copyright by INCORS GmbH (www.incors.com).</desc>
    <defs>
        <linearGradient x1="16" y1="16" x2="352.7875" y2="384.788" gradientUnits="userSpaceOnUse" id="c-color-1">
            <stop offset="0" stop-color="#4eb6f2"/>
            <stop offset="1" stop-color="#129eee"/>
        </linearGradient>
        <linearGradient x1="448" y1="448" x2="185.1385" y2="199.0125" gradientUnits="userSpaceOnUse" id="c-color-2">
            <stop offset="0" stop-color="#ffffff"/>
            <stop offset="1" stop-color="#b3c0cd"/>
        </linearGradient>
        <linearGradient x1="432" y1="432" x2="211.6935" y2="87.7695" gradientUnits="userSpaceOnUse" id="c-color-3">
            <stop offset="0" stop-color="#ffffff"/>
            <stop offset="1" stop-color="#e3e9ee"/>
        </linearGradient>
        <linearGradient x1="120.98445" y1="128.48445" x2="270.82495" y2="274.70545" gradientUnits="userSpaceOnUse" id="c-color-4">
            <stop offset="0" stop-color="#d8e0e8"/>
            <stop offset="1" stop-color="#b3c0cd"/>
        </linearGradient>
        <linearGradient x1="120.98445" y1="120.98445" x2="254.06495" y2="287.95845" gradientUnits="userSpaceOnUse" id="c-color-5">
            <stop offset="0" stop-color="#ed5a4f"/>
            <stop offset="1" stop-color="#e24f44"/>
        </linearGradient>
    </defs>
    <g fill="none" fill-rule="evenodd" stroke="none" stroke-width="1" stroke-linecap="butt" stroke-linejoin="miter" stroke-miterlimit="10" stroke-dasharray="" stroke-dashoffset="0" font-family="none" font-weight="none" text-anchor="none" style="mix-blend-mode: normal">
        <path d="M256,16c-132.5,0 -240,107.5 -240,240c0,132.5 107.5,240 240,240c132.5,0 240,-107.5 240,-240c0,-132.5 -107.5,-240 -240,-240z" id="curve5" fill="url(#c-color-1)" stroke="#252525" stroke-width="10"/>
        <path d="M256,64c106,0 192,86 192,192c0,106 -86,192 -192,192c-106,0 -192,-86 -192,-192c0,-106 86,-192 192,-192z" id="curve4" fill="url(#c-color-2)"/>
        <path d="M256,80c97,0 176,79 176,176c0,97 -79,176 -176,176c-97,0 -176,-79 -176,-176c0,-97 79,-176 176,-176z" id="curve3" fill="url(#c-color-3)"/>
        <path d="M259.5,231.5l67,-66.5c2.5,-3 7.5,-3 10.5,-0.5c6.5,5.5 12.5,11.5 18,18c2.5,3 2.5,8 -0.5,10.5l-66.5,67c0,1 0,2.5 0,3.5c0,17.5 -14.5,32 -32,32c-17.5,0 -32,-14.5 -32,-32c0,-1 0,-2.5 0,-3.5l-100.5,-101c-3,-3 -3.5,-7.5 -0.5,-11c5.5,-6 11.5,-12 18,-17.5c3,-3 7.5,-2.5 10.5,0.5l101,100.5c1,0 2.5,0 3.5,0c1,0 2.5,0 3.5,0z" id="curve2" fill="url(#c-color-4)"/>
        <path d="M259.5,224l67,-66.5c2.5,-3 7.5,-3 10.5,-0.5c6.5,5.5 12.5,11.5 18,18c2.5,3 2.5,8 -0.5,10.5l-66.5,67c0,1 0,2.5 0,3.5c0,17.5 -14.5,32 -32,32c-17.5,0 -32,-14.5 -32,-32c0,-1 0,-2.5 0,-3.5l-100.5,-101c-3,-3 -3.5,-7.5 -0.5,-10.5c5.5,-6.5 11.5,-12.5 18,-18c3,-3 7.5,-2.5 10.5,0.5l101,100.5c1,0 2.5,0 3.5,0c1,0 2.5,0 3.5,0z" id="curve1" fill="url(#c-color-5)"/>
        <path d="M256,240c9,0 16,7 16,16c0,9 -7,16 -16,16c-9,0 -16,-7 -16,-16c0,-9 7,-16 16,-16z" id="curve0" fill="#d8e0e8"/>
    </g>
</g>

</svg>
