<svg version="1.1"
    xmlns="http://www.w3.org/2000/svg"
    xmlns:xlink="http://www.w3.org/1999/xlink" width="512" height="512" viewBox="0 0 512 512">
    <title>note pinned icon</title>
    <desc>note pinned icon from the IconExperience.com G-Collection. Copyright by INCORS GmbH (www.incors.com).</desc>
    <defs>
        <linearGradient x1="32" y1="32" x2="468.34655" y2="476.00085" gradientUnits="userSpaceOnUse" id="color-1">
            <stop offset="0" stop-color="#ffe081"/>
            <stop offset="1" stop-color="#ffc105"/>
        </linearGradient>
        <linearGradient x1="358.5" y1="358.5" x2="470.3355" y2="470.477" gradientUnits="userSpaceOnUse" id="color-2">
            <stop offset="0" stop-color="#efb101"/>
            <stop offset="1" stop-color="#d39500"/>
        </linearGradient>
        <linearGradient x1="32" y1="40" x2="147.181" y2="143.266" gradientUnits="userSpaceOnUse" id="color-3">
            <stop offset="0" stop-color="#ffd041"/>
            <stop offset="1" stop-color="#edba2e"/>
        </linearGradient>
        <linearGradient x1="165.94" y1="24" x2="137.996" y2="55.825" gradientUnits="userSpaceOnUse" id="color-4">
            <stop offset="0" stop-color="#91a0af"/>
            <stop offset="1" stop-color="#717f8f"/>
        </linearGradient>
        <linearGradient x1="134" y1="24" x2="85.9995" y2="65.7505" gradientUnits="userSpaceOnUse" id="color-5">
            <stop offset="0" stop-color="#91a0af"/>
            <stop offset="1" stop-color="#51616f"/>
        </linearGradient>
        <radialGradient cx="21.6123" cy="24.35548" r="148.44646" fx="21.6123" fy="24.35548" gradientUnits="userSpaceOnUse" id="color-6">
            <stop offset="0" stop-color="#f5928b"/>
            <stop offset="0.38824" stop-color="#ef5c51"/>
            <stop offset="1" stop-color="#af1c11"/>
        </radialGradient>
    </defs>
    <g fill="none" fill-rule="evenodd" stroke="none" stroke-width="1" stroke-linecap="butt" stroke-linejoin="miter" stroke-miterlimit="10" stroke-dasharray="" stroke-dashoffset="0" font-family="none" font-weight="none" text-anchor="none" style="mix-blend-mode: normal">
        <path d="M336,480l-296,0c-4.5,0 -8,-3.5 -8,-8l0,-432c0,-4.5 3.5,-8 8,-8l432,0c4.5,0 8,3.5 8,8l0,296c0,9 -3.5,17 -9.5,22.5l-112,112c-5.5,6 -13.5,9.5 -22.5,9.5z" id="curve5" fill="url(#color-1)"/>
        <path d="M470.5,358.5c-5.5,6 -13.5,9.5 -22.5,9.5l-72,0c-4.5,0 -8,3.5 -8,8l0,72c0,8.5 -3.5,16.5 -9.5,22.5z" id="curve4" fill="url(#color-2)"/>
        <path d="M32,40l0,95.5c9.5,5.5 21,8.5 33,8.5c11.5,0 22.5,-3 32,-8l39,31c15.5,12.5 41.5,-11.5 26.5,-29.5l-39.5,-48.5z" id="curve3" fill="url(#color-3)"/>
        <path d="M24,69.5l45.5,-45.5l93,113.5c6,7.5 3.5,16.5 -2.5,22.5c-6,6 -15.5,8.5 -22.5,2.5z" id="curve2" fill="url(#color-4)"/>
        <path d="M24,69.5l45.5,-45.5l64.5,78.5c-7.5,13.5 -18,24 -31.5,31.5z" id="curve1" fill="url(#color-5)"/>
        <path d="M64,0c35.5,0 64,28.5 64,64c0,35.5 -28.5,64 -64,64c-35.5,0 -64,-28.5 -64,-64c0,-35.5 28.5,-64 64,-64z" id="curve0" fill="url(#color-6)"/>
    </g>


<g transform="translate(205,205) scale(0.60,0.60)">
    <title>wrench icon</title>
    <desc>wrench icon from the IconExperience.com G-Collection. Copyright by INCORS GmbH (www.incors.com).</desc>
    <defs>
        <linearGradient x1="10.37316" y1="11.35928" x2="255.26266" y2="396.27828" gradientUnits="userSpaceOnUse" id="w-color-1">
            <stop offset="0" stop-color="#91a0af"/>
            <stop offset="1" stop-color="#b3c0cd"/>
        </linearGradient>
        <linearGradient x1="260.5" y1="161" x2="333.856" y2="251.2215" gradientUnits="userSpaceOnUse" id="w-color-2">
            <stop offset="0" stop-color="#b3c0cd"/>
            <stop offset="1" stop-color="#ebedef"/>
        </linearGradient>
    </defs>
    <g fill="none" fill-rule="evenodd" stroke="#252525" stroke-width="10" stroke-linecap="butt" stroke-linejoin="round" stroke-miterlimit="10" stroke-dasharray="" stroke-dashoffset="0" font-family="none" font-weight="none" text-anchor="none" style="mix-blend-mode: normal">
        <path d="M500.5,141c1.5,30 -8,59.5 -29.5,81c-31,31 -77.5,37.5 -120,21.5c-6,-2.5 -13,-1 -17.5,4l-213.5,235c-23.5,26 -65.5,25 -90.5,0c-25,-25 -26,-67 0,-90.5l235,-213.5c5,-4.5 6.5,-11.5 4,-17.5c-16,-42.5 -9.5,-89 21.5,-120c34.5,-34.5 89.5,-38.5 136,-14c2.5,1.5 4,4 4,7c0,3 -1.5,5.5 -4,7l-68,39.5c-7.5,4.5 -1.5,29.5 14,56.5c15.5,27 34.5,45 42,40.5l74.5,-43c2.5,-1.5 5.5,-1.5 8,0c2.5,1 4,3.5 4,6.5z M97.5,414.5c-12.5,-12.5 -32.5,-12.5 -45,0c-12.5,12.5 -12.5,32.5 0,45c12.5,12.5 32.5,12.5 45,0c12.5,-12.5 12.5,-32.5 0,-45z" id="curve1" fill="url(#w-color-1)"/>
        <path d="M290,222c-12.5,-12 -22,-26 -29.5,-40l4,-3.5c5,-4.5 6.5,-11 4.5,-17.5c6.5,18 17.5,35 32.5,49.5c14.5,15 31.5,26 49.5,32.5c-6.5,-2 -13,-0.5 -17.5,4.5l-3.5,4c-14,-7.5 -28,-17 -40,-29.5z" id="curve0" fill="url(#w-color-2)"/>
    </g>
</g>

</svg>
