<svg version="1.1"
    xmlns="http://www.w3.org/2000/svg"
    xmlns:xlink="http://www.w3.org/1999/xlink" width="512" height="512" viewBox="0 0 512 512">
    <title>note pinned icon</title>
    <desc>note pinned icon from the IconExperience.com G-Collection. Copyright by INCORS GmbH (www.incors.com).</desc>
    <defs>
        <linearGradient x1="32" y1="32" x2="468.34655" y2="476.00085" gradientUnits="userSpaceOnUse" id="color-1">
            <stop offset="0" stop-color="#ffe081"/>
            <stop offset="1" stop-color="#ffc105"/>
        </linearGradient>
        <linearGradient x1="358.5" y1="358.5" x2="470.3355" y2="470.477" gradientUnits="userSpaceOnUse" id="color-2">
            <stop offset="0" stop-color="#efb101"/>
            <stop offset="1" stop-color="#d39500"/>
        </linearGradient>
        <linearGradient x1="32" y1="40" x2="147.181" y2="143.266" gradientUnits="userSpaceOnUse" id="color-3">
            <stop offset="0" stop-color="#ffd041"/>
            <stop offset="1" stop-color="#edba2e"/>
        </linearGradient>
        <linearGradient x1="165.94" y1="24" x2="137.996" y2="55.825" gradientUnits="userSpaceOnUse" id="color-4">
            <stop offset="0" stop-color="#91a0af"/>
            <stop offset="1" stop-color="#717f8f"/>
        </linearGradient>
        <linearGradient x1="134" y1="24" x2="85.9995" y2="65.7505" gradientUnits="userSpaceOnUse" id="color-5">
            <stop offset="0" stop-color="#91a0af"/>
            <stop offset="1" stop-color="#51616f"/>
        </linearGradient>
        <radialGradient cx="21.6123" cy="24.35548" r="148.44646" fx="21.6123" fy="24.35548" gradientUnits="userSpaceOnUse" id="color-6">
            <stop offset="0" stop-color="#f5928b"/>
            <stop offset="0.38824" stop-color="#ef5c51"/>
            <stop offset="1" stop-color="#af1c11"/>
        </radialGradient>
    </defs>
    <g fill="none" fill-rule="evenodd" stroke="none" stroke-width="1" stroke-linecap="butt" stroke-linejoin="miter" stroke-miterlimit="10" stroke-dasharray="" stroke-dashoffset="0" font-family="none" font-weight="none" text-anchor="none" style="mix-blend-mode: normal">
        <path d="M336,480l-296,0c-4.5,0 -8,-3.5 -8,-8l0,-432c0,-4.5 3.5,-8 8,-8l432,0c4.5,0 8,3.5 8,8l0,296c0,9 -3.5,17 -9.5,22.5l-112,112c-5.5,6 -13.5,9.5 -22.5,9.5z" id="curve5" fill="url(#color-1)"/>
        <path d="M470.5,358.5c-5.5,6 -13.5,9.5 -22.5,9.5l-72,0c-4.5,0 -8,3.5 -8,8l0,72c0,8.5 -3.5,16.5 -9.5,22.5z" id="curve4" fill="url(#color-2)"/>
        <path d="M32,40l0,95.5c9.5,5.5 21,8.5 33,8.5c11.5,0 22.5,-3 32,-8l39,31c15.5,12.5 41.5,-11.5 26.5,-29.5l-39.5,-48.5z" id="curve3" fill="url(#color-3)"/>
        <path d="M24,69.5l45.5,-45.5l93,113.5c6,7.5 3.5,16.5 -2.5,22.5c-6,6 -15.5,8.5 -22.5,2.5z" id="curve2" fill="url(#color-4)"/>
        <path d="M24,69.5l45.5,-45.5l64.5,78.5c-7.5,13.5 -18,24 -31.5,31.5z" id="curve1" fill="url(#color-5)"/>
        <path d="M64,0c35.5,0 64,28.5 64,64c0,35.5 -28.5,64 -64,64c-35.5,0 -64,-28.5 -64,-64c0,-35.5 28.5,-64 64,-64z" id="curve0" fill="url(#color-6)"/>
    </g>

<g transform="translate(0,172) scale(0.66,0.66)">
    <g id="Layer1" name="Layer 4" opacity="1">
        <g id="Shape1">
            <desc shapeID="1" type="0" basicInfo-basicType="0" basicInfo-roundedRectRadius="12" basicInfo-polygonSides="6" basicInfo-starPoints="5" bounding="rect(-219.606,-171.14,439.212,342.28)" text="" font-familyName="Helvetica" font-pixelSize="36" font-bold="0" font-underline="0" font-alignment="0" strokeStyle="0" markerStart="0" markerEnd="0" shadowEnabled="0" shadowOffsetX="0" shadowOffsetY="2" shadowBlur="4" shadowOpacity="160" blurEnabled="0" blurRadius="4" transform="matrix(1.02001,0,0,1.30887,256.5,256.5)" pers-center="0,0" pers-size="0,0" pers-start="0,0" pers-end="0,0" locked="0" mesh="" flag=""/>
            <path id="shapePath1" d="M44.7668,480.5 C123.589,384.316 146.041,352.5 262.633,352.5 L262.633,480.5 L480.5,256.5 L262.633,32.5 L262.633,160.5 C125.797,160.5 -9.48572,266.5 44.7668,480.5 Z" style="stroke:url(#nestedLinearGradientStroke1);stroke-width:8;stroke-linejoin:miter;stroke-miterlimit:2;stroke-linecap:round;fill-rule:evenodd;fill:url(#nestedRadialGradientFill1);fill-opacity:1;"/><defs><linearGradient id="nestedLinearGradientStroke1" gradientUnits="userSpaceOnUse" x1="36.1784" y1="256.5" x2="476.822" y2="256.5"><stop offset="0" stop-color="#4c9532" stop-opacity="1"/><stop offset="1" stop-color="#2b6816" stop-opacity="1"/></linearGradient><radialGradient id="nestedRadialGradientFill1" gradientUnits="userSpaceOnUse" cx="391.605" cy="606.5" r="416.553" fx="291.514" fy="648.5"><stop offset="0" stop-color="#91e573" stop-opacity="1"/><stop offset="0.864404" stop-color="#76d455" stop-opacity="1"/><stop offset="0.879142" stop-color="#55bd30" stop-opacity="1"/></radialGradient></defs>
        </g>
    </g>
</g>

</svg>
