<svg version="1.1"
    xmlns="http://www.w3.org/2000/svg"
    xmlns:xlink="http://www.w3.org/1999/xlink" width="512" height="512" viewBox="0 0 512 512">
    <title>note pinned icon</title>
    <desc>note pinned icon from the IconExperience.com G-Collection. Copyright by INCORS GmbH (www.incors.com).</desc>
    <defs>
        <linearGradient x1="32" y1="32" x2="468.34655" y2="476.00085" gradientUnits="userSpaceOnUse" id="color-1">
            <stop offset="0" stop-color="#ffe081"/>
            <stop offset="1" stop-color="#ffc105"/>
        </linearGradient>
        <linearGradient x1="358.5" y1="358.5" x2="470.3355" y2="470.477" gradientUnits="userSpaceOnUse" id="color-2">
            <stop offset="0" stop-color="#efb101"/>
            <stop offset="1" stop-color="#d39500"/>
        </linearGradient>
        <linearGradient x1="32" y1="40" x2="147.181" y2="143.266" gradientUnits="userSpaceOnUse" id="color-3">
            <stop offset="0" stop-color="#ffd041"/>
            <stop offset="1" stop-color="#edba2e"/>
        </linearGradient>
        <linearGradient x1="165.94" y1="24" x2="137.996" y2="55.825" gradientUnits="userSpaceOnUse" id="color-4">
            <stop offset="0" stop-color="#91a0af"/>
            <stop offset="1" stop-color="#717f8f"/>
        </linearGradient>
        <linearGradient x1="134" y1="24" x2="85.9995" y2="65.7505" gradientUnits="userSpaceOnUse" id="color-5">
            <stop offset="0" stop-color="#91a0af"/>
            <stop offset="1" stop-color="#51616f"/>
        </linearGradient>
        <radialGradient cx="21.6123" cy="24.35548" r="148.44646" fx="21.6123" fy="24.35548" gradientUnits="userSpaceOnUse" id="color-6">
            <stop offset="0" stop-color="#f5928b"/>
            <stop offset="0.38824" stop-color="#ef5c51"/>
            <stop offset="1" stop-color="#af1c11"/>
        </radialGradient>
    </defs>
    <g fill="none" fill-rule="evenodd" stroke="none" stroke-width="1" stroke-linecap="butt" stroke-linejoin="miter" stroke-miterlimit="10" stroke-dasharray="" stroke-dashoffset="0" font-family="none" font-weight="none" text-anchor="none" style="mix-blend-mode: normal">
        <path d="M336,480l-296,0c-4.5,0 -8,-3.5 -8,-8l0,-432c0,-4.5 3.5,-8 8,-8l432,0c4.5,0 8,3.5 8,8l0,296c0,9 -3.5,17 -9.5,22.5l-112,112c-5.5,6 -13.5,9.5 -22.5,9.5z" id="curve5" fill="url(#color-1)"/>
        <path d="M470.5,358.5c-5.5,6 -13.5,9.5 -22.5,9.5l-72,0c-4.5,0 -8,3.5 -8,8l0,72c0,8.5 -3.5,16.5 -9.5,22.5z" id="curve4" fill="url(#color-2)"/>
        <path d="M32,40l0,95.5c9.5,5.5 21,8.5 33,8.5c11.5,0 22.5,-3 32,-8l39,31c15.5,12.5 41.5,-11.5 26.5,-29.5l-39.5,-48.5z" id="curve3" fill="url(#color-3)"/>
        <path d="M24,69.5l45.5,-45.5l93,113.5c6,7.5 3.5,16.5 -2.5,22.5c-6,6 -15.5,8.5 -22.5,2.5z" id="curve2" fill="url(#color-4)"/>
        <path d="M24,69.5l45.5,-45.5l64.5,78.5c-7.5,13.5 -18,24 -31.5,31.5z" id="curve1" fill="url(#color-5)"/>
        <path d="M64,0c35.5,0 64,28.5 64,64c0,35.5 -28.5,64 -64,64c-35.5,0 -64,-28.5 -64,-64c0,-35.5 28.5,-64 64,-64z" id="curve0" fill="url(#color-6)"/>
    </g>


<g transform="translate(205,205) scale(0.60,0.60)">
    <title>magnifying glass icon</title>
    <desc>magnifying glass icon from the IconExperience.com G-Collection. Copyright by INCORS GmbH (www.incors.com).</desc>
    <defs>
        <linearGradient x1="144.5" y1="16" x2="384.5" y2="272.0005" gradientUnits="userSpaceOnUse" id="v-color-1">
            <stop offset="0" stop-color="#91a0af"/>
            <stop offset="1" stop-color="#717f8f"/>
        </linearGradient>
        <linearGradient x1="15.875" y1="295.25" x2="79.875" y2="359.25" gradientUnits="userSpaceOnUse" id="v-color-2">
            <stop offset="0" stop-color="#dca264"/>
            <stop offset="1" stop-color="#d08730"/>
        </linearGradient>
        <linearGradient x1="208" y1="48" x2="415.595" y2="265.6435" gradientUnits="userSpaceOnUse" id="v-color-3">
            <stop offset="0" stop-color="#c5e7fb"/>
            <stop offset="1" stop-color="#99d5f8"/>
        </linearGradient>
        <linearGradient x1="222" y1="62" x2="227.1435" y2="289.5565" gradientUnits="userSpaceOnUse" id="v-color-4">
            <stop offset="0" stop-color="#cdeafb"/>
            <stop offset="1" stop-color="#fdfefe"/>
        </linearGradient>
    </defs>
    <g transform="translate(512,0) scale(-1.0,1.0)">
    <g fill="none" fill-rule="evenodd" stroke="none" stroke-width="1" stroke-linecap="butt" stroke-linejoin="miter" stroke-miterlimit="10" stroke-dasharray="" stroke-dashoffset="0" font-family="none" font-weight="none" text-anchor="none" style="mix-blend-mode: normal">
        <path d="M144.5,333.5l62.5,-62.5c-19.5,-27 -31,-59.5 -31,-95c0,-88.5 71.5,-160 160,-160c88.5,0 160,71.5 160,160c0,88.5 -71.5,160 -160,160c-35.5,0 -68.5,-11.5 -95,-31.5l-62.5,63z" id="curve3" fill="url(#v-color-1)"/>
        <path d="M18.5,437l139.5,-139.5c3,-3 8.5,-3 11.5,0l45,45c3,3 3,8.5 0,11.5l-139.5,139.5c-3,3.5 -8.5,3.5 -11.5,0l-22.5,-22.5l-22.5,-22.5c-3.5,-3 -3.5,-8.5 0,-11.5z" id="curve2" fill="url(#v-color-2)"/>
        <path d="M336,48c70.5,0 128,57.5 128,128c0,70.5 -57.5,128 -128,128c-70.5,0 -128,-57.5 -128,-128c0,-70.5 57.5,-128 128,-128z" id="curve1" fill="url(#v-color-3)"/>
        <path d="M336,62c63,0 114,51 114,114c0,63 -51,114 -114,114c-63,0 -114,-51 -114,-114c0,-63 51,-114 114,-114z" id="curve0" fill="url(#v-color-4)"/>
    </g>
    </g>
</g>

</svg>
