<svg version="1.1"
    xmlns="http://www.w3.org/2000/svg"
    xmlns:xlink="http://www.w3.org/1999/xlink" width="512" height="512" viewBox="0 0 512 512">
    <title>note pinned icon</title>
    <desc>note pinned icon from the IconExperience.com G-Collection. Copyright by INCORS GmbH (www.incors.com).</desc>
    <defs>
        <linearGradient x1="32" y1="32" x2="468.34655" y2="476.00085" gradientUnits="userSpaceOnUse" id="color-1">
            <stop offset="0" stop-color="#ffe081"/>
            <stop offset="1" stop-color="#ffc105"/>
        </linearGradient>
        <linearGradient x1="358.5" y1="358.5" x2="470.3355" y2="470.477" gradientUnits="userSpaceOnUse" id="color-2">
            <stop offset="0" stop-color="#efb101"/>
            <stop offset="1" stop-color="#d39500"/>
        </linearGradient>
        <linearGradient x1="32" y1="40" x2="147.181" y2="143.266" gradientUnits="userSpaceOnUse" id="color-3">
            <stop offset="0" stop-color="#ffd041"/>
            <stop offset="1" stop-color="#edba2e"/>
        </linearGradient>
        <linearGradient x1="165.94" y1="24" x2="137.996" y2="55.825" gradientUnits="userSpaceOnUse" id="color-4">
            <stop offset="0" stop-color="#91a0af"/>
            <stop offset="1" stop-color="#717f8f"/>
        </linearGradient>
        <linearGradient x1="134" y1="24" x2="85.9995" y2="65.7505" gradientUnits="userSpaceOnUse" id="color-5">
            <stop offset="0" stop-color="#91a0af"/>
            <stop offset="1" stop-color="#51616f"/>
        </linearGradient>
        <radialGradient cx="21.6123" cy="24.35548" r="148.44646" fx="21.6123" fy="24.35548" gradientUnits="userSpaceOnUse" id="color-6">
            <stop offset="0" stop-color="#f5928b"/>
            <stop offset="0.38824" stop-color="#ef5c51"/>
            <stop offset="1" stop-color="#af1c11"/>
        </radialGradient>
    </defs>
    <g fill="none" fill-rule="evenodd" stroke="none" stroke-width="1" stroke-linecap="butt" stroke-linejoin="miter" stroke-miterlimit="10" stroke-dasharray="" stroke-dashoffset="0" font-family="none" font-weight="none" text-anchor="none" style="mix-blend-mode: normal">
        <path d="M336,480l-296,0c-4.5,0 -8,-3.5 -8,-8l0,-432c0,-4.5 3.5,-8 8,-8l432,0c4.5,0 8,3.5 8,8l0,296c0,9 -3.5,17 -9.5,22.5l-112,112c-5.5,6 -13.5,9.5 -22.5,9.5z" id="curve5" fill="url(#color-1)"/>
        <path d="M470.5,358.5c-5.5,6 -13.5,9.5 -22.5,9.5l-72,0c-4.5,0 -8,3.5 -8,8l0,72c0,8.5 -3.5,16.5 -9.5,22.5z" id="curve4" fill="url(#color-2)"/>
        <path d="M32,40l0,95.5c9.5,5.5 21,8.5 33,8.5c11.5,0 22.5,-3 32,-8l39,31c15.5,12.5 41.5,-11.5 26.5,-29.5l-39.5,-48.5z" id="curve3" fill="url(#color-3)"/>
        <path d="M24,69.5l45.5,-45.5l93,113.5c6,7.5 3.5,16.5 -2.5,22.5c-6,6 -15.5,8.5 -22.5,2.5z" id="curve2" fill="url(#color-4)"/>
        <path d="M24,69.5l45.5,-45.5l64.5,78.5c-7.5,13.5 -18,24 -31.5,31.5z" id="curve1" fill="url(#color-5)"/>
        <path d="M64,0c35.5,0 64,28.5 64,64c0,35.5 -28.5,64 -64,64c-35.5,0 -64,-28.5 -64,-64c0,-35.5 28.5,-64 64,-64z" id="curve0" fill="url(#color-6)"/>
    </g>


<g transform="translate(256,256) scale(0.5,0.5)">
    <title>pencil icon</title>
    <desc>pencil icon from the IconExperience.com G-Collection. Copyright by INCORS GmbH (www.incors.com).</desc>
    <defs>
        <linearGradient x1="75" y1="100" x2="165.656" y2="193.3425" gradientUnits="userSpaceOnUse" id="p-color-1">
            <stop offset="0" stop-color="#ffd041"/>
            <stop offset="0.27059" stop-color="#ffd861"/>
            <stop offset="1" stop-color="#ffc001"/>
        </linearGradient>
        <linearGradient x1="27" y1="360" x2="92.806" y2="434.4055" gradientUnits="userSpaceOnUse" id="p-color-2">
            <stop offset="0" stop-color="#f4e0cc"/>
            <stop offset="0.52157" stop-color="#e8c098"/>
            <stop offset="1" stop-color="#dca264"/>
        </linearGradient>
        <linearGradient x1="13.41092" y1="453" x2="41.94777" y2="481.8615" gradientUnits="userSpaceOnUse" id="p-color-3">
            <stop offset="0" stop-color="#717f8f"/>
            <stop offset="1" stop-color="#36414a"/>
        </linearGradient>
        <linearGradient x1="358" y1="16" x2="469.9995" y2="127.9999" gradientUnits="userSpaceOnUse" id="p-color-4">
            <stop offset="0" stop-color="#ef5c51"/>
            <stop offset="0.34118" stop-color="#cf3c31"/>
            <stop offset="1" stop-color="#af1c11"/>
        </linearGradient>
        <linearGradient x1="335" y1="77" x2="448.1375" y2="186.0235" gradientUnits="userSpaceOnUse" id="p-color-5">
            <stop offset="0" stop-color="#fbfcfc"/>
            <stop offset="1" stop-color="#dde4eb"/>
        </linearGradient>
    </defs>
    <g fill="none" fill-rule="evenodd" stroke="none" stroke-width="1" stroke-linecap="butt" stroke-linejoin="miter" stroke-miterlimit="10" stroke-dasharray="" stroke-dashoffset="0" font-family="none" font-weight="none" text-anchor="none" style="mix-blend-mode: normal">
        <path d="M341,100l84.5,84.5l0,6l-260,260l-60,-30.5l-30.5,-60l260,-260z" id="curve4" fill="url(#p-color-1)"/>
        <path d="M165.5,450.5l-93,43l-45.5,5l5,-45.5l43,-93z" id="curve3" fill="url(#p-color-2)"/>
        <path d="M32,453l40.5,40.5l-37.5,17.5c-6,2.5 -12,0.5 -16.5,-4c-4.5,-4.5 -6.5,-10.5 -4,-16.5z" id="curve2" fill="url(#p-color-3)"/>
        <path d="M437,20.5l68,68c6,6 6,16.5 0,22.5l-56.5,56.5l-90.5,-90.5l56.5,-56.5c6,-6 16.5,-6 22.5,0z" id="curve1" fill="url(#p-color-4)"/>
        <path d="M358,77l90.5,90.5l-23,23l-90.5,-90.5z" id="curve0" fill="url(#p-color-5)"/>
    </g>
</g>

</svg>
