<svg version="1.1"
    xmlns="http://www.w3.org/2000/svg"
    xmlns:xlink="http://www.w3.org/1999/xlink" width="512" height="512" viewBox="0 0 512 512">
    <title>button icon</title>
    <desc>button icon from the IconExperience.com G-Collection. Copyright by INCORS GmbH (www.incors.com).</desc>
    <defs>
        <linearGradient x1="136.5" y1="192" x2="137.454" y2="320.9945" gradientUnits="userSpaceOnUse" id="color-1">
            <stop offset="0" stop-color="#e6ebf0"/>
            <stop offset="0.4902" stop-color="#ffffff"/>
            <stop offset="1" stop-color="#fefefe"/>
        </linearGradient>
    </defs>
    <g fill="none" fill-rule="none" stroke="none" stroke-width="1" stroke-linecap="butt" stroke-linejoin="miter" stroke-miterlimit="10" stroke-dasharray="" stroke-dashoffset="0" font-family="none" font-weight="none" text-anchor="none" style="mix-blend-mode: normal">
        <path d="M8,144l496,0c4.5,0 8,3.5 8,8l0,208c0,4.5 -3.5,8 -8,8l-496,0c-4.5,0 -8,-3.5 -8,-8l0,-208c0,-4.5 3.5,-8 8,-8z" id="curve1" fill="#129eee" fill-rule="evenodd"/>
        <path d="M247.5,259.5c0,12.5 -2.5,23.5 -7,33c-4.5,9.5 -11,17 -19.5,22c-8.5,5 -18,7.5 -29,7.5c-10.5,0 -20.5,-2.5 -28.5,-7.5c-8.5,-4.5 -15,-12 -19.5,-21c-5,-9 -7.5,-20 -7.5,-32l0,-7c0,-12.5 2,-23.5 7,-33c4.5,-9.5 11,-16.5 19.5,-22c8.5,-5 18,-7.5 29,-7.5c10.5,0 20,2.5 28.5,7.5c8.5,5.5 15,12.5 19.5,22c5,9.5 7,20 7.5,32.5z M216,254.5c0,-12.5 -2,-22.5 -6,-29c-4.5,-6.5 -10.5,-9.5 -18,-9.5c-15.5,0 -23.5,11.5 -24.5,34.5l0,9.5c0,12.5 2,22 6,28.5c4.5,7 10.5,10 18.5,10c8,0 13.5,-3 18,-9.5c4,-7 6,-16.5 6,-28.5z M312.5,273.5l-12.5,13.5l0,33.5l-30.5,0l0,-126.5l30.5,0l0,55.5l10.5,-16l27.5,-39.5l37.5,0l-43,56l43,70.5l-36,0z" id="curve0" fill="url(#color-1)" fill-rule="nonzero"/>
    </g>
</svg>