<svg version="1.1"
    xmlns="http://www.w3.org/2000/svg"
    xmlns:xlink="http://www.w3.org/1999/xlink" width="512" height="512" viewBox="0 0 512 512">
    <title>document text icon</title>
    <desc>document text icon from the IconExperience.com G-Collection. Copyright by INCORS GmbH (www.incors.com).</desc>
    <defs>
        <linearGradient x1="64" y1="0" x2="359.822" y2="512.00059" gradientUnits="userSpaceOnUse" id="color-1">
            <stop offset="0" stop-color="#f3fafe"/>
            <stop offset="1" stop-color="#cae9fb"/>
        </linearGradient>
        <linearGradient x1="310.5" y1="9.5" x2="396.703" y2="127.03825" gradientUnits="userSpaceOnUse" id="color-2">
            <stop offset="0" stop-color="#c5e7fb"/>
            <stop offset="1" stop-color="#94d3f8"/>
        </linearGradient>
    </defs>
    <g fill="none" fill-rule="evenodd" stroke="#252525" stroke-width="10" stroke-linecap="butt" stroke-linejoin="round" stroke-miterlimit="10" stroke-dasharray="" stroke-dashoffset="0" font-family="none" font-weight="none" text-anchor="none" style="mix-blend-mode: normal" transform="translate(108,0) scale(0.8,0.8)">
        <path d="M288,0l-216,0c-4.5,0 -8,3.5 -8,8l0,496c0,4.5 3.5,8 8,8l368,0c4.5,0 8,-3.5 8,-8l0,-344c0,-9 -3.5,-17 -9.5,-22.5l-128,-128c-5.5,-6 -13.5,-9.5 -22.5,-9.5z" id="curve2" fill="url(#color-1)"/>
        <path d="M438.5,137.5c-5.5,-6 -13.5,-9.5 -22.5,-9.5l-88,0c-4.5,0 -8,-3.5 -8,-8l0,-88c0,-8.5 -3.5,-16.5 -9.5,-22.5z" id="curve0" fill="url(#color-2)"/>
        <path d="M112,48l128,0l0,16l-128,0z M112,144l128,0l0,16l-128,0z M112,352l288,0l0,16l-288,0z M112,208l288,0l0,16l-288,0z M112,96l128,0l0,16l-128,0z M112,256l288,0l0,16l-288,0z M112,304l288,0l0,16l-288,0z M112,432l112,0l0,16l-112,0z" id="curve1" fill="#717f8f" stroke="none"/>
    </g>
    <g fill="none" fill-rule="evenodd" stroke="#252525" stroke-width="10" stroke-linecap="butt" stroke-linejoin="round" stroke-miterlimit="10" stroke-dasharray="" stroke-dashoffset="0" font-family="none" font-weight="none" text-anchor="none" style="mix-blend-mode: normal" transform="translate(0,96) scale(0.8,0.8)">
        <path d="M288,0l-216,0c-4.5,0 -8,3.5 -8,8l0,496c0,4.5 3.5,8 8,8l368,0c4.5,0 8,-3.5 8,-8l0,-344c0,-9 -3.5,-17 -9.5,-22.5l-128,-128c-5.5,-6 -13.5,-9.5 -22.5,-9.5z" id="curve2" fill="url(#color-1)"/>
        <path d="M438.5,137.5c-5.5,-6 -13.5,-9.5 -22.5,-9.5l-88,0c-4.5,0 -8,-3.5 -8,-8l0,-88c0,-8.5 -3.5,-16.5 -9.5,-22.5z" id="curve0" fill="url(#color-2)"/>
        <path d="M112,48l128,0l0,16l-128,0z M112,144l128,0l0,16l-128,0z M112,352l288,0l0,16l-288,0z M112,208l288,0l0,16l-288,0z M112,96l128,0l0,16l-128,0z M112,256l288,0l0,16l-288,0z M112,304l288,0l0,16l-288,0z M112,432l112,0l0,16l-112,0z" id="curve1" fill="#717f8f" stroke="none"/>
    </g>


<g transform="translate(256,256) scale(0.5,0.5)">
    <title>delete icon</title>
    <desc>delete icon from the IconExperience.com G-Collection. Copyright by INCORS GmbH (www.incors.com).</desc>
    <defs>
        <linearGradient x1="29.5" y1="29.5" x2="446.554" y2="416.765" gradientUnits="userSpaceOnUse" id="d-color-1">
            <stop offset="0" stop-color="#ef5c51"/>
            <stop offset="1" stop-color="#c43126"/>
        </linearGradient>
    </defs>
    <g fill="url(#d-color-1)" fill-rule="nonzero" stroke="#252525" stroke-width="10" stroke-linecap="butt" stroke-linejoin="round" stroke-miterlimit="10" stroke-dasharray="" stroke-dashoffset="0" font-family="none" font-weight="none" text-anchor="none" style="mix-blend-mode: normal">
        <path d="M392,29.5l90.5,90.5l-136,136l136,136l-90.5,90.5l-136,-136l-136,136l-90.5,-90.5l136,-136l-136,-136l90.5,-90.5l136,136z" id="curve0"/>
    </g>
</g>

<g>
    <title>document pinned icon</title>
    <desc>document pinned icon from the IconExperience.com G-Collection. Copyright by INCORS GmbH (www.incors.com).</desc>
    <defs>
        <linearGradient x1="64" y1="40" x2="139.016" y2="170.53025" gradientUnits="userSpaceOnUse" id="d-color-2">
            <stop offset="0" stop-color="#d6eefc"/>
            <stop offset="1" stop-color="#bae3fa"/>
        </linearGradient>
        <linearGradient x1="310.5" y1="41.5" x2="396.703" y2="159.038" gradientUnits="userSpaceOnUse" id="d-color-3">
            <stop offset="0" stop-color="#c5e7fb"/>
            <stop offset="1" stop-color="#94d3f8"/>
        </linearGradient>
        <linearGradient x1="197.94" y1="24" x2="169.996" y2="55.825" gradientUnits="userSpaceOnUse" id="d-color-4">
            <stop offset="0" stop-color="#91a0af"/>
            <stop offset="1" stop-color="#717f8f"/>
        </linearGradient>
        <linearGradient x1="166" y1="24" x2="117.9995" y2="65.7505" gradientUnits="userSpaceOnUse" id="d-color-5">
            <stop offset="0" stop-color="#91a0af"/>
            <stop offset="1" stop-color="#51616f"/>
        </linearGradient>
        <radialGradient cx="53.67049" cy="24.36616" r="148.44646" fx="53.67049" fy="24.36616" gradientUnits="userSpaceOnUse" id="d-color-6">
            <stop offset="0" stop-color="#f5928b"/>
            <stop offset="0.38824" stop-color="#ef5c51"/>
            <stop offset="1" stop-color="#af1c11"/>
        </radialGradient>
    </defs>
    <g fill="none" fill-rule="evenodd" stroke="none" stroke-width="1" stroke-linecap="butt" stroke-linejoin="miter" stroke-miterlimit="10" stroke-dasharray="" stroke-dashoffset="0" font-family="none" font-weight="none" text-anchor="none" style="mix-blend-mode: normal">
        <path d="M64,40l0,95.5c9.5,5.5 21,8.5 33,8.5c11.5,0 22.5,-3 32,-8l39,31c16,12.5 41.5,-11.5 26.5,-29.5l-39.5,-48.5z" id="curve4" fill="url(#d-color-2)"/>
        <path d="M56,69.5l45.5,-45.5l93,113.5c6,7.5 3.5,16.5 -2.5,22.5c-6,6 -15,8.5 -22.5,2.5z" id="curve2" fill="url(#d-color-4)"/>
        <path d="M56,69.5l45.5,-45.5l64.5,78.5c-7.5,13.5 -18,24 -31.5,31.5z" id="curve1" fill="url(#d-color-5)"/>
        <path d="M96,0c35.5,0 64,28.5 64,64c0,35.5 -28.5,64 -64,64c-35.5,0 -64,-28.5 -64,-64c0,-35.5 28.5,-64 64,-64z" id="curve0" fill="url(#d-color-6)"/>
    </g>
</g>

</svg>
