<svg version="1.1"
    xmlns="http://www.w3.org/2000/svg"
    xmlns:xlink="http://www.w3.org/1999/xlink" width="512" height="512" viewBox="0 0 512 512">
    <title>clipboard empty icon</title>
    <desc>clipboard empty icon from the IconExperience.com G-Collection. Copyright by INCORS GmbH (www.incors.com).</desc>
    <defs>
        <linearGradient x1="64" y1="64" x2="397.1275" y2="512" gradientUnits="userSpaceOnUse" id="color-1">
            <stop offset="0" stop-color="#d99b57"/>
            <stop offset="0.5098" stop-color="#d08730"/>
            <stop offset="1" stop-color="#d08730"/>
        </linearGradient>
        <linearGradient x1="128" y1="80" x2="376.7015" y2="140.031" gradientUnits="userSpaceOnUse" id="color-2">
            <stop offset="0" stop-color="#d08730"/>
            <stop offset="1" stop-color="#b37129"/>
        </linearGradient>
        <linearGradient x1="128" y1="0" x2="128" y2="128.00009" gradientUnits="userSpaceOnUse" id="color-3">
            <stop offset="0" stop-color="#b3c0cd"/>
            <stop offset="0.36863" stop-color="#b3c0cd"/>
            <stop offset="0.58039" stop-color="#91a0af"/>
            <stop offset="1" stop-color="#717f8f"/>
        </linearGradient>
    </defs>
    <g fill="none" fill-rule="evenodd" stroke="none" stroke-width="1" stroke-linecap="butt" stroke-linejoin="miter" stroke-miterlimit="10" stroke-dasharray="" stroke-dashoffset="0" font-family="none" font-weight="none" text-anchor="none" style="mix-blend-mode: normal">
        <path d="M80,64l352,0c9,0 16,7 16,16l0,416c0,9 -7,16 -16,16l-352,0c-9,0 -16,-7 -16,-16l0,-416c0,-9 7,-16 16,-16z" id="curve2" fill="url(#color-1)"/>
        <path d="M128,144l0,-64l256,0l0,64z" id="curve1" fill="url(#color-2)"/>
        <path d="M256,0c28.5,0 54,12.5 71.5,32l40.5,0c9,0 16,7 16,16l0,80l-256,0l0,-80c0,-9 7,-16 16,-16l40.5,0c17.5,-19.5 43,-32 71.5,-32z M256,16c9,0 16,7 16,16c0,9 -7,16 -16,16c-9,0 -16,-7 -16,-16c0,-9 7,-16 16,-16z" id="curve0" fill="url(#color-3)"/>
    </g>


<g transform="translate(256,256) scale(0.5,0.5)">
    <title>scroll icon</title>
    <desc>scroll icon from the IconExperience.com G-Collection. Copyright by INCORS GmbH (www.incors.com).</desc>
    <defs>
        <linearGradient x1="400" y1="0" x2="440" y2="80.00009" gradientUnits="userSpaceOnUse" id="s-color-1">
            <stop offset="0" stop-color="#ffc61b"/>
            <stop offset="1" stop-color="#ffd65b"/>
        </linearGradient>
        <linearGradient x1="96" y1="0" x2="356.472" y2="487.9243" gradientUnits="userSpaceOnUse" id="s-color-2">
            <stop offset="0" stop-color="#fff0c1"/>
            <stop offset="1" stop-color="#ffe081"/>
        </linearGradient>
        <linearGradient x1="0" y1="512" x2="0" y2="431.9995" gradientUnits="userSpaceOnUse" id="s-color-3">
            <stop offset="0" stop-color="#ffc515"/>
            <stop offset="1" stop-color="#ffd146"/>
        </linearGradient>
    </defs>
    <g fill="none" fill-rule="evenodd" stroke="none" stroke-width="1" stroke-linecap="butt" stroke-linejoin="miter" stroke-miterlimit="10" stroke-dasharray="" stroke-dashoffset="0" font-family="none" font-weight="none" text-anchor="none" style="mix-blend-mode: normal">
        <path d="M464,0l-64,0l0,80l112,0l0,-32c0,-26.5 -21.5,-48 -48,-48z" id="curve2" fill="url(#s-color-1)"/>
        <path d="M160,0l304,0c-26.5,0 -48,21.5 -48,48l0,32l0,384c0,26.5 -21.5,48 -48,48l-272,0l0,-448c0,-35.5 28.5,-64 64,-64z" id="curve1" fill="url(#s-color-2)"/>
        <path d="M48,512l320,0c-26.5,0 -48,-21.5 -48,-48l0,-32l-320,0l0,32c0,26.5 21.5,48 48,48z" id="curve0" fill="url(#s-color-3)"/>
    </g>
</g>

</svg>
