<svg version="1.1"
    xmlns="http://www.w3.org/2000/svg"
    xmlns:xlink="http://www.w3.org/1999/xlink" width="512" height="512" viewBox="0 0 512 512">
    <title>trafficlight red icon</title>
    <desc>trafficlight red icon from the IconExperience.com G-Collection. Copyright by INCORS GmbH (www.incors.com).</desc>
    <defs>
        <linearGradient x1="128" y1="0" x2="372.869" y2="512.00059" gradientUnits="userSpaceOnUse" id="color-1">
            <stop offset="0" stop-color="#4b5a67"/>
            <stop offset="1" stop-color="#38444d"/>
        </linearGradient>
        <linearGradient x1="176" y1="176" x2="336" y2="336" gradientUnits="userSpaceOnUse" id="color-2">
            <stop offset="0" stop-color="#717f8f"/>
            <stop offset="1" stop-color="#51616f"/>
        </linearGradient>
        <linearGradient x1="176" y1="336" x2="336" y2="496" gradientUnits="userSpaceOnUse" id="color-3">
            <stop offset="0" stop-color="#717f8f"/>
            <stop offset="1" stop-color="#51616f"/>
        </linearGradient>
        <linearGradient x1="336" y1="176" x2="194.172" y2="16.0008" gradientUnits="userSpaceOnUse" id="color-4">
            <stop offset="0" stop-color="#ec594e"/>
            <stop offset="1" stop-color="#af1c11"/>
        </linearGradient>
        <radialGradient cx="232.84629" cy="84.29875" r="144.04345" fx="232.84629" fy="84.29875" gradientUnits="userSpaceOnUse" id="color-5">
            <stop offset="0" stop-color="#ef5c51"/>
            <stop offset="1" stop-color="#af1c11"/>
        </radialGradient>
    </defs>
    <g fill="none" fill-rule="evenodd" stroke="none" stroke-width="1" stroke-linecap="butt" stroke-linejoin="miter" stroke-miterlimit="10" stroke-dasharray="" stroke-dashoffset="0" font-family="none" font-weight="none" text-anchor="none" style="mix-blend-mode: normal">
        <path d="M144,0l224,0c9,0 16,7 16,16l0,480c0,9 -7,16 -16,16l-224,0c-9,0 -16,-7 -16,-16l0,-480c0,-9 7,-16 16,-16z" id="curve4" fill="url(#color-1)"/>
        <path d="M256,176c44,0 80,36 80,80c0,44 -36,80 -80,80c-44,0 -80,-36 -80,-80c0,-44 36,-80 80,-80z" id="curve3" fill="url(#color-2)"/>
        <path d="M256,336c44,0 80,36 80,80c0,44 -36,80 -80,80c-44,0 -80,-36 -80,-80c0,-44 36,-80 80,-80z" id="curve2" fill="url(#color-3)"/>
        <path d="M256,16c44,0 80,36 80,80c0,44 -36,80 -80,80c-44,0 -80,-36 -80,-80c0,-44 36,-80 80,-80z" id="curve1" fill="url(#color-4)"/>
        <path d="M256,32c35.5,0 64,28.5 64,64c0,35.5 -28.5,64 -64,64c-35.5,0 -64,-28.5 -64,-64c0,-35.5 28.5,-64 64,-64z" id="curve0" fill="url(#color-5)"/>
    </g>
</svg>