<svg version="1.1"
    xmlns="http://www.w3.org/2000/svg"
    xmlns:xlink="http://www.w3.org/1999/xlink" width="512" height="512" viewBox="0 0 512 512">
    <title>breakpoints icon</title>
    <desc>breakpoints icon from the IconExperience.com G-Collection. Copyright by INCORS GmbH (www.incors.com).</desc>
    <defs>
        <linearGradient x1="128" y1="32" x2="608.0002" y2="720.0005" gradientUnits="userSpaceOnUse" id="color-1">
            <stop offset="0" stop-color="#eb5d5f"/>
            <stop offset="1" stop-color="#b3a0ad"/>
        </linearGradient>
        <linearGradient x1="128" y1="128" x2="680.415" y2="906.41559" gradientUnits="userSpaceOnUse" id="color-2">
            <stop offset="0" stop-color="#ea2516"/>
            <stop offset="0.25098" stop-color="#af1d12"/>
            <stop offset="1" stop-color="#73140d"/>
        </linearGradient>
        <linearGradient x1="0" y1="96" x2="549.7996" y2="553.7005" gradientUnits="userSpaceOnUse" id="color-3">
            <stop offset="0" stop-color="#ef5c51"/>
            <stop offset="1" stop-color="#af1c11"/>
        </linearGradient>
    </defs>
    <g fill="none" fill-rule="none" stroke="none" stroke-width="1" stroke-linecap="butt" stroke-linejoin="miter" stroke-miterlimit="10" stroke-dasharray="" stroke-dashoffset="0" font-family="none" font-weight="none" text-anchor="none" style="mix-blend-mode: normal">
        <path d="M160,32l320,0c17.5,0 32,14.5 32,32l0,320c0,17.5 -14.5,32 -32,32l-320,0c-17.5,0 -32,-14.5 -32,-32l0,-320c0,-17.5 14.5,-32 32,-32z" fill="url(#color-1)" fill-rule="evenodd"/>
        <path d="M400,416l-240,0c-17.5,0 -32,-14.5 -32,-32l0,-256l240,0c17.5,0 32,14.5 32,32z" fill="url(#color-2)" fill-rule="evenodd"/>
        <path d="M32,96l320,0c17.5,0 32,14.5 32,32l0,320c0,17.5 -14.5,32 -32,32l-320,0c-17.5,0 -32,-14.5 -32,-32l0,-320c0,-17.5 14.5,-32 32,-32z" fill="url(#color-3)" fill-rule="nonzero"/>
    </g>


<g transform="translate(172,172) scale(0.66,0.66)">
    <title>wrench icon</title>
    <desc>wrench icon from the IconExperience.com G-Collection. Copyright by INCORS GmbH (www.incors.com).</desc>
    <defs>
        <linearGradient x1="10.37316" y1="11.35928" x2="255.26266" y2="396.27828" gradientUnits="userSpaceOnUse" id="w-color-1">
            <stop offset="0" stop-color="#91a0af"/>
            <stop offset="1" stop-color="#b3c0cd"/>
        </linearGradient>
        <linearGradient x1="260.5" y1="161" x2="333.856" y2="251.2215" gradientUnits="userSpaceOnUse" id="w-color-2">
            <stop offset="0" stop-color="#b3c0cd"/>
            <stop offset="1" stop-color="#ebedef"/>
        </linearGradient>
    </defs>
    <g fill="none" fill-rule="evenodd" stroke="#252525" stroke-width="10" stroke-linecap="butt" stroke-linejoin="round" stroke-miterlimit="10" stroke-dasharray="" stroke-dashoffset="0" font-family="none" font-weight="none" text-anchor="none" style="mix-blend-mode: normal">
        <path d="M500.5,141c1.5,30 -8,59.5 -29.5,81c-31,31 -77.5,37.5 -120,21.5c-6,-2.5 -13,-1 -17.5,4l-213.5,235c-23.5,26 -65.5,25 -90.5,0c-25,-25 -26,-67 0,-90.5l235,-213.5c5,-4.5 6.5,-11.5 4,-17.5c-16,-42.5 -9.5,-89 21.5,-120c34.5,-34.5 89.5,-38.5 136,-14c2.5,1.5 4,4 4,7c0,3 -1.5,5.5 -4,7l-68,39.5c-7.5,4.5 -1.5,29.5 14,56.5c15.5,27 34.5,45 42,40.5l74.5,-43c2.5,-1.5 5.5,-1.5 8,0c2.5,1 4,3.5 4,6.5z M97.5,414.5c-12.5,-12.5 -32.5,-12.5 -45,0c-12.5,12.5 -12.5,32.5 0,45c12.5,12.5 32.5,12.5 45,0c12.5,-12.5 12.5,-32.5 0,-45z" id="curve1" fill="url(#w-color-1)"/>
        <path d="M290,222c-12.5,-12 -22,-26 -29.5,-40l4,-3.5c5,-4.5 6.5,-11 4.5,-17.5c6.5,18 17.5,35 32.5,49.5c14.5,15 31.5,26 49.5,32.5c-6.5,-2 -13,-0.5 -17.5,4.5l-3.5,4c-14,-7.5 -28,-17 -40,-29.5z" id="curve0" fill="url(#w-color-2)"/>
    </g>
</g>

</svg>
