<svg version="1.1"
    xmlns="http://www.w3.org/2000/svg"
    xmlns:xlink="http://www.w3.org/1999/xlink" width="512" height="512" viewBox="0 0 512 512">
    <title>media pause icon</title>
    <desc>media pause icon from the IconExperience.com G-Collection. Copyright by INCORS GmbH (www.incors.com).</desc>
    <defs>
        <linearGradient x1="80" y1="32" x2="380.11221" y2="205.75" gradientUnits="userSpaceOnUse" id="color-1">
            <stop offset="0" stop-color="#4eb6f2"/>
            <stop offset="0.5098" stop-color="#129eee"/>
            <stop offset="1" stop-color="#0e76b2"/>
        </linearGradient>
        <linearGradient x1="304" y1="32" x2="604.1105" y2="205.75" gradientUnits="userSpaceOnUse" id="color-2">
            <stop offset="0" stop-color="#4eb6f2"/>
            <stop offset="0.5098" stop-color="#129eee"/>
            <stop offset="1" stop-color="#0e76b2"/>
        </linearGradient>
    </defs>
    <g fill="none" fill-rule="evenodd" stroke="none" stroke-width="1" stroke-linecap="butt" stroke-linejoin="miter" stroke-miterlimit="10" stroke-dasharray="" stroke-dashoffset="0" font-family="none" font-weight="none" text-anchor="none" style="mix-blend-mode: normal">
        <path d="M96,32l96,0c9,0 16,7 16,16l0,416c0,9 -7,16 -16,16l-96,0c-9,0 -16,-7 -16,-16l0,-416c0,-9 7,-16 16,-16z" fill="url(#color-1)"/>
        <path d="M320,32l96,0c9,0 16,7 16,16l0,416c0,9 -7,16 -16,16l-96,0c-9,0 -16,-7 -16,-16l0,-416c0,-9 7,-16 16,-16z" fill="url(#color-2)"/>
    </g>
</svg>