<svg version="1.1"
    xmlns="http://www.w3.org/2000/svg"
    xmlns:xlink="http://www.w3.org/1999/xlink" width="512" height="512" viewBox="0 0 512 512">
    <title>media beginning icon</title>
    <desc>media beginning icon from the IconExperience.com G-Collection. Copyright by INCORS GmbH (www.incors.com).</desc>
    <defs>
        <linearGradient x1="48" y1="32" x2="326.4179" y2="193.189" gradientUnits="userSpaceOnUse" id="color-1">
            <stop offset="0" stop-color="#4eb6f2"/>
            <stop offset="0.5098" stop-color="#129eee"/>
            <stop offset="1" stop-color="#0e76b2"/>
        </linearGradient>
        <linearGradient x1="208" y1="31.92372" x2="512" y2="207.92422" gradientUnits="userSpaceOnUse" id="color-2">
            <stop offset="0" stop-color="#4eb6f2"/>
            <stop offset="0.5098" stop-color="#129eee"/>
            <stop offset="1" stop-color="#0e76b2"/>
        </linearGradient>
    </defs>
    <g fill="none" fill-rule="evenodd" stroke="none" stroke-width="1" stroke-linecap="butt" stroke-linejoin="miter" stroke-miterlimit="10" stroke-dasharray="" stroke-dashoffset="0" font-family="none" font-weight="none" text-anchor="none" style="mix-blend-mode: normal">
        <path d="M144,32l-80,0c-9,0 -16,7 -16,16l0,416c0,9 7,16 16,16l80,0c9,0 16,-7 16,-16l0,-416c0,-9 -7,-16 -16,-16z" fill="url(#color-1)"/>
        <path d="M431,37.5l-218,208c-3.5,3 -5,6.5 -5,10.5c0,4 1.5,7.5 5,10.5l218,208c5.5,5 13.5,7 21,4.5c7.5,-2.5 12,-8 12,-14.5l0,-417c0,-6.5 -4.5,-12 -12,-14.5c-7.5,-2.5 -15.5,-0.5 -21,4.5z" fill="url(#color-2)"/>
    </g>
</svg>