<svg version="1.1"
    xmlns="http://www.w3.org/2000/svg"
    xmlns:xlink="http://www.w3.org/1999/xlink" width="512" height="512" viewBox="0 0 512 512">
    <title>breakpoint icon</title>
    <desc>breakpoint icon from the IconExperience.com G-Collection. Copyright by INCORS GmbH (www.incors.com).</desc>
    <defs>
        <linearGradient x1="32" y1="32" x2="438.1385" y2="370.1045" gradientUnits="userSpaceOnUse" id="color-1">
            <stop offset="0" stop-color="#ef5c51"/>
            <stop offset="1" stop-color="#c22f24"/>
        </linearGradient>
    </defs>
    <g fill="url(#color-1)" fill-rule="nonzero" stroke="none" stroke-width="1" stroke-linecap="butt" stroke-linejoin="miter" stroke-miterlimit="10" stroke-dasharray="" stroke-dashoffset="0" font-family="none" font-weight="none" text-anchor="none" style="mix-blend-mode: normal">
        <path d="M64,32l384,0c17.5,0 32,14.5 32,32l0,384c0,17.5 -14.5,32 -32,32l-384,0c-17.5,0 -32,-14.5 -32,-32l0,-384c0,-17.5 14.5,-32 32,-32z" id="curve0"/>
    </g>


<g transform="translate(205,205) scale(0.60,0.60)">
    <title>refresh icon</title>
    <desc>refresh icon from the IconExperience.com G-Collection. Copyright by INCORS GmbH (www.incors.com).</desc>
    <defs>
        <linearGradient x1="0" y1="32" x2="185.093" y2="373.1715" gradientUnits="userSpaceOnUse" id="r-color-1">
            <stop offset="0" stop-color="#4eb6f2"/>
            <stop offset="1" stop-color="#129eee"/>
        </linearGradient>
        <linearGradient x1="208" y1="112" x2="374.8745" y2="419.59" gradientUnits="userSpaceOnUse" id="r-color-2">
            <stop offset="0" stop-color="#48b4f2"/>
            <stop offset="1" stop-color="#129eee"/>
        </linearGradient>
    </defs>
    <g fill="none" fill-rule="evenodd" stroke="none" stroke-width="1" stroke-linecap="butt" stroke-linejoin="miter" stroke-miterlimit="10" stroke-dasharray="" stroke-dashoffset="0" font-family="none" font-weight="none" text-anchor="none" style="mix-blend-mode: normal">
        <path d="M192,32l0,80l-48,0c-79.5,0 -144,64.5 -144,144c0,79.5 64.5,144 144,144l50.5,0l-32,-32l32,-32l-50.5,0c-44,0 -80,-36 -80,-80c0,-44 36,-80 80,-80l48,0l0,80l112,-112z" id="curve1" fill="url(#r-color-1)"/>
        <path d="M320,480l0,-80l48,0c79.5,0 144,-64.5 144,-144c0,-79.5 -64.5,-144 -144,-144l-50.5,0l32,32l-32,32l50.5,0c44,0 80,36 80,80c0,44 -36,80 -80,80l-48,0l0,-80l-112,112z" id="curve0" fill="url(#r-color-2)"/>
    </g>
</g>

</svg>
