<svg version="1.1"
    xmlns="http://www.w3.org/2000/svg"
    xmlns:xlink="http://www.w3.org/1999/xlink" width="512" height="512" viewBox="0 0 512 512">
    <title>plug lan icon</title>
    <desc>plug lan icon from the IconExperience.com G-Collection. Copyright by INCORS GmbH (www.incors.com).</desc>
    <defs>
        <linearGradient x1="0" y1="224" x2="0" y2="287.9995" gradientUnits="userSpaceOnUse" id="color-1">
            <stop offset="0" stop-color="#91a0af"/>
            <stop offset="1" stop-color="#717f8f"/>
        </linearGradient>
        <linearGradient x1="256" y1="160" x2="402.7665" y2="352" gradientUnits="userSpaceOnUse" id="color-2">
            <stop offset="0" stop-color="#f6f8fa"/>
            <stop offset="1" stop-color="#dfe6ec"/>
        </linearGradient>
        <linearGradient x1="256" y1="160" x2="256" y2="352" gradientUnits="userSpaceOnUse" id="color-3">
            <stop offset="0" stop-color="#d8e0e8"/>
            <stop offset="1" stop-color="#b6c2cf"/>
        </linearGradient>
        <linearGradient x1="32" y1="128" x2="32" y2="384.001" gradientUnits="userSpaceOnUse" id="color-4">
            <stop offset="0" stop-color="#3eb0f1"/>
            <stop offset="0.52157" stop-color="#129eee"/>
            <stop offset="1" stop-color="#0f7ebe"/>
        </linearGradient>
    </defs>
    <g fill="none" fill-rule="evenodd" stroke="none" stroke-width="1" stroke-linecap="butt" stroke-linejoin="miter" stroke-miterlimit="10" stroke-dasharray="" stroke-dashoffset="0" font-family="none" font-weight="none" text-anchor="none" style="mix-blend-mode: normal">
        <path d="M0,224l80,0l0,64l-80,0z" id="curve4" fill="url(#color-1)"/>
        <path d="M256,160l256,0l0,192l-256,0z" id="curve3" fill="url(#color-2)"/>
        <path d="M256,160l144,0l0,42.5c0,8 -5.5,15 -13.5,15.5l-101,12c-8,0.5 -13.5,7.5 -13.5,15.5l0,18.5l0,18.5c0,8 5.5,15 13.5,15.5l101,12c8,0.5 13.5,7.5 13.5,15.5l0,26.5l-144,0z" id="curve2" fill="url(#color-3)"/>
        <path d="M32,208c0,-9 7,-16 16,-16l16,0c24,0 48,-16 68,-32c25,-20 44,-32 108,-32l128,0c9,0 16,7 16,16l0,50.5c0,8 -5.5,15 -13.5,15.5l-101,12c-8,0.5 -13.5,7.5 -13.5,15.5l0,18.5l0,18.5c0,8 5.5,15 13.5,15.5l101,12c8,0.5 13.5,7.5 13.5,15.5l0,50.5c0,9 -7,16 -16,16l-128,0c-64,0 -83,-12 -108,-32c-20,-16 -44,-32 -68,-32l-16,0c-9,0 -16,-7 -16,-16z" id="curve1" fill="url(#color-4)"/>
        <path d="M512,184l-80,0l0,16l80,0z M512,248l-80,0l0,16l80,0z M512,216l-80,0l0,16l80,0z M512,312l-80,0l0,16l80,0z M512,280l-80,0l0,16l80,0z" id="curve0" fill="#717f8f"/>
    </g>


<g transform="translate(256,256) scale(0.5,0.5)">
    <title>plus icon</title>
    <desc>plus icon from the IconExperience.com G-Collection. Copyright by INCORS GmbH (www.incors.com).</desc>
    <defs>
        <linearGradient x1="32" y1="32" x2="323.36915" y2="461.212" gradientUnits="userSpaceOnUse" id="p-color-1">
            <stop offset="0" stop-color="#98e957"/>
            <stop offset="1" stop-color="#5ea821"/>
        </linearGradient>
    </defs>
    <g fill="url(#p-color-1)" fill-rule="evenodd" stroke="#252525" stroke-width="10" stroke-linecap="butt" stroke-linejoin="round" stroke-miterlimit="10" stroke-dasharray="" stroke-dashoffset="0" font-family="none" font-weight="none" text-anchor="none" style="mix-blend-mode: normal">
        <path d="M192,480l0,-160l-160,0l0,-128l160,0l0,-160l128,0l0,160l160,0l0,128l-160,0l0,160z" id="curve0"/>
    </g>
</g>

</svg>
