<svg version="1.1"
    xmlns="http://www.w3.org/2000/svg"
    xmlns:xlink="http://www.w3.org/1999/xlink" width="512" height="512" viewBox="0 0 512 512">
    <title>plug lan icon</title>
    <desc>plug lan icon from the IconExperience.com G-Collection. Copyright by INCORS GmbH (www.incors.com).</desc>
    <defs>
        <linearGradient x1="0" y1="224" x2="0" y2="287.9995" gradientUnits="userSpaceOnUse" id="color-1">
            <stop offset="0" stop-color="#91a0af"/>
            <stop offset="1" stop-color="#717f8f"/>
        </linearGradient>
        <linearGradient x1="256" y1="160" x2="402.7665" y2="352" gradientUnits="userSpaceOnUse" id="color-2">
            <stop offset="0" stop-color="#f6f8fa"/>
            <stop offset="1" stop-color="#dfe6ec"/>
        </linearGradient>
        <linearGradient x1="256" y1="160" x2="256" y2="352" gradientUnits="userSpaceOnUse" id="color-3">
            <stop offset="0" stop-color="#d8e0e8"/>
            <stop offset="1" stop-color="#b6c2cf"/>
        </linearGradient>
        <linearGradient x1="32" y1="128" x2="32" y2="384.001" gradientUnits="userSpaceOnUse" id="color-4">
            <stop offset="0" stop-color="#3eb0f1"/>
            <stop offset="0.52157" stop-color="#129eee"/>
            <stop offset="1" stop-color="#0f7ebe"/>
        </linearGradient>
    </defs>
    <g fill="none" fill-rule="evenodd" stroke="none" stroke-width="1" stroke-linecap="butt" stroke-linejoin="miter" stroke-miterlimit="10" stroke-dasharray="" stroke-dashoffset="0" font-family="none" font-weight="none" text-anchor="none" style="mix-blend-mode: normal" transform="translate(0,-96)">
        <path d="M0,224l80,0l0,64l-80,0z" id="curve4" fill="url(#color-1)"/>
        <path d="M256,160l256,0l0,192l-256,0z" id="curve3" fill="url(#color-2)"/>
        <path d="M256,160l144,0l0,42.5c0,8 -5.5,15 -13.5,15.5l-101,12c-8,0.5 -13.5,7.5 -13.5,15.5l0,18.5l0,18.5c0,8 5.5,15 13.5,15.5l101,12c8,0.5 13.5,7.5 13.5,15.5l0,26.5l-144,0z" id="curve2" fill="url(#color-3)"/>
        <path d="M32,208c0,-9 7,-16 16,-16l16,0c24,0 48,-16 68,-32c25,-20 44,-32 108,-32l128,0c9,0 16,7 16,16l0,50.5c0,8 -5.5,15 -13.5,15.5l-101,12c-8,0.5 -13.5,7.5 -13.5,15.5l0,18.5l0,18.5c0,8 5.5,15 13.5,15.5l101,12c8,0.5 13.5,7.5 13.5,15.5l0,50.5c0,9 -7,16 -16,16l-128,0c-64,0 -83,-12 -108,-32c-20,-16 -44,-32 -68,-32l-16,0c-9,0 -16,-7 -16,-16z" id="curve1" fill="url(#color-4)"/>
        <path d="M512,184l-80,0l0,16l80,0z M512,248l-80,0l0,16l80,0z M512,216l-80,0l0,16l80,0z M512,312l-80,0l0,16l80,0z M512,280l-80,0l0,16l80,0z" id="curve0" fill="#717f8f"/>
    </g>

    <title>odometer icon</title>
    <desc>odometer icon from the IconExperience.com G-Collection. Copyright by INCORS GmbH (www.incors.com).</desc>
    <defs>
        <linearGradient x1="0" y1="144" x2="0.31654" y2="355.687" gradientUnits="userSpaceOnUse" id="o-color-1">
            <stop offset="0" stop-color="#129eee"/>
            <stop offset="0.65098" stop-color="#108ad0"/>
            <stop offset="1" stop-color="#0e76b2"/>
        </linearGradient>
        <linearGradient x1="352" y1="176" x2="352" y2="320" gradientUnits="userSpaceOnUse" id="o-color-2">
            <stop offset="0" stop-color="#ffffff"/>
            <stop offset="1" stop-color="#d8e0e8"/>
        </linearGradient>
        <linearGradient x1="32" y1="176" x2="32" y2="336.0005" gradientUnits="userSpaceOnUse" id="o-color-3">
            <stop offset="0" stop-color="#91a0af"/>
            <stop offset="1" stop-color="#717f8f"/>
        </linearGradient>
        <linearGradient x1="368" y1="192" x2="368" y2="320.0005" gradientUnits="userSpaceOnUse" id="o-color-4">
            <stop offset="0" stop-color="#dd4a3f"/>
            <stop offset="0.41177" stop-color="#cb382d"/>
            <stop offset="1" stop-color="#b8251a"/>
        </linearGradient>
        <linearGradient x1="48" y1="192" x2="48" y2="307.2" gradientUnits="userSpaceOnUse" id="o-color-5">
            <stop offset="0" stop-color="#ffffff"/>
            <stop offset="1" stop-color="#d8e0e8"/>
        </linearGradient>
    </defs>
    <g fill="none" fill-rule="nonzero" stroke="none" stroke-width="1" stroke-linecap="butt" stroke-linejoin="miter" stroke-miterlimit="10" stroke-dasharray="" stroke-dashoffset="0" font-family="none" font-weight="none" text-anchor="none" style="mix-blend-mode: normal" transform="translate(32,192) scale(0.875,0.875)">
        <path d="M32,144l448,0c17.5,0 32,14.5 32,32l0,160c0,17.5 -14.5,32 -32,32l-448,0c-17.5,0 -32,-14.5 -32,-32l0,-160c0,-17.5 14.5,-32 32,-32z" id="curve4" fill="url(#o-color-1)"/>
        <path d="M352,176l128,0l0,160l-128,0z" id="curve3" fill="url(#o-color-2)"/>
        <path d="M192,176l128,0l0,160l-128,0z M32,176l128,0l0,160l-128,0z" id="curve2" fill="url(#o-color-3)"/>
        <path d="M400,288l0,-64l32,0l0,64z M432,192l-32,0c-17.5,0 -32,14.5 -32,32l0,64c0,17.5 14.5,32 32,32l32,0c17.5,0 32,-14.5 32,-32l0,-64c0,-17.5 -14.5,-32 -32,-32z" id="curve1" fill="url(#o-color-4)"/>
        <path d="M240,288l0,-64l32,0l0,64z M272,192l-32,0c-17.5,0 -32,14.5 -32,32l0,64c0,17.5 14.5,32 32,32l32,0c17.5,0 32,-14.5 32,-32l0,-64c0,-17.5 -14.5,-32 -32,-32z M80,288l0,-64l32,0l0,64z M112,192l-32,0c-17.5,0 -32,14.5 -32,32l0,64c0,17.5 14.5,32 32,32l32,0c17.5,0 32,-14.5 32,-32l0,-64c0,-17.5 -14.5,-32 -32,-32z" id="curve0" fill="url(#o-color-5)"/>
    </g>

</svg>
