<svg version="1.1"
    xmlns="http://www.w3.org/2000/svg"
    xmlns:xlink="http://www.w3.org/1999/xlink" width="512" height="512" viewBox="0 0 512 512">
    <title>window size icon</title>
    <desc>window size icon from the IconExperience.com G-Collection. Copyright by INCORS GmbH (www.incors.com).</desc>
    <defs>
        <linearGradient x1="0" y1="64" x2="283.7855" y2="331.092" gradientUnits="userSpaceOnUse" id="color-1">
            <stop offset="0" stop-color="#40b0f1"/>
            <stop offset="1" stop-color="#129eee"/>
        </linearGradient>
        <linearGradient x1="0" y1="128" x2="153.8695" y2="464.0005" gradientUnits="userSpaceOnUse" id="color-2">
            <stop offset="0" stop-color="#e1f2fd"/>
            <stop offset="1" stop-color="#cceafb"/>
        </linearGradient>
        <linearGradient x1="0" y1="248" x2="50.5694" y2="335.6745" gradientUnits="userSpaceOnUse" id="color-3">
            <stop offset="0" stop-color="#129eee"/>
            <stop offset="1" stop-color="#0e76b2"/>
        </linearGradient>
        <linearGradient x1="432" y1="248" x2="487.9025" y2="339.3075" gradientUnits="userSpaceOnUse" id="color-4">
            <stop offset="0" stop-color="#129bea"/>
            <stop offset="1" stop-color="#0e76b2"/>
        </linearGradient>
        <linearGradient x1="208" y1="128" x2="250.288" y2="204.5165" gradientUnits="userSpaceOnUse" id="color-5">
            <stop offset="0" stop-color="#129eee"/>
            <stop offset="1" stop-color="#0f7fc0"/>
        </linearGradient>
        <linearGradient x1="208" y1="384" x2="250.288" y2="460.5165" gradientUnits="userSpaceOnUse" id="color-6">
            <stop offset="0" stop-color="#129eee"/>
            <stop offset="1" stop-color="#0f7fc0"/>
        </linearGradient>
    </defs>
    <g fill="none" fill-rule="none" stroke="none" stroke-width="1" stroke-linecap="butt" stroke-linejoin="miter" stroke-miterlimit="10" stroke-dasharray="" stroke-dashoffset="0" font-family="none" font-weight="none" text-anchor="none" style="mix-blend-mode: normal">
        <path d="M512,80l0,384l-512,0l0,-384c0,-9 7,-16 16,-16l480,0c9,0 16,7 16,16z" id="curve6" fill="url(#color-1)" fill-rule="nonzero"/>
        <path d="M0,128l512,0l0,336l-512,0z" id="curve5" fill="url(#color-2)" fill-rule="nonzero"/>
        <path d="M464,80c9,0 16,7 16,16c0,9 -7,16 -16,16c-9,0 -16,-7 -16,-16c0,-9 7,-16 16,-16z M416,80c9,0 16,7 16,16c0,9 -7,16 -16,16c-9,0 -16,-7 -16,-16c0,-9 7,-16 16,-16z" id="curve4" fill="#ffffff" fill-rule="nonzero"/>
        <path d="M0,296l80,-48l0,96z" id="curve3" fill="url(#color-3)" fill-rule="evenodd"/>
        <path d="M512,296l-80,-48l0,96z" id="curve2" fill="url(#color-4)" fill-rule="evenodd"/>
        <path d="M256,128l48,80l-96,0z" id="curve1" fill="url(#color-5)" fill-rule="evenodd"/>
        <path d="M256,464l48,-80l-96,0z" id="curve0" fill="url(#color-6)" fill-rule="evenodd"/>
    </g>
</svg>