<svg version="1.1"
    xmlns="http://www.w3.org/2000/svg"
    xmlns:xlink="http://www.w3.org/1999/xlink" width="512" height="512" viewBox="0 0 512 512">
    <title>code icon</title>
    <desc>code icon from the IconExperience.com G-Collection. Copyright by INCORS GmbH (www.incors.com).</desc>
    <defs>
        <linearGradient x1="64" y1="0" x2="374.8575" y2="512.00059" gradientUnits="userSpaceOnUse" id="color-1">
            <stop offset="0" stop-color="#f3fafe"/>
            <stop offset="1" stop-color="#c7e8fb"/>
        </linearGradient>
        <linearGradient x1="112" y1="48" x2="337.8185" y2="480.00055" gradientUnits="userSpaceOnUse" id="color-2">
            <stop offset="0" stop-color="#8795a5"/>
            <stop offset="1" stop-color="#738191"/>
        </linearGradient>
    </defs>
    <g fill="none" fill-rule="evenodd" stroke="none" stroke-width="1" stroke-linecap="butt" stroke-linejoin="miter" stroke-miterlimit="10" stroke-dasharray="" stroke-dashoffset="0" font-family="none" font-weight="none" text-anchor="none" style="mix-blend-mode: normal">
        <path d="M64,0l384,0l0,512l-384,0z" id="curve1" fill="url(#color-1)"/>
        <path d="M112,48l112,0l0,16l-112,0z M112,336l112,0l0,16l-112,0z M112,464l224,0l0,16l-224,0z M112,432l112,0l0,16l-112,0z M160,400l144,0l0,16l-144,0z M160,368l240,0l0,16l-240,0z M112,304l160,0l0,16l-160,0z M160,208l112,0l0,16l-112,0z M112,272l112,0l0,16l-112,0z M160,240l192,0l0,16l-192,0z M160,176l144,0l0,16l-144,0z M224,144l112,0l0,16l-112,0z M224,112l192,0l0,16l-192,0z M160,80l176,0l0,16l-176,0z" id="curve0" fill="url(#color-2)"/>
    </g>
</svg>