<svg version="1.1"
    xmlns="http://www.w3.org/2000/svg"
    xmlns:xlink="http://www.w3.org/1999/xlink" width="512" height="512" viewBox="0 0 512 512">
    <title>text icon</title>
    <desc>text icon from the IconExperience.com G-Collection. Copyright by INCORS GmbH (www.incors.com).</desc>
    <defs>
        <linearGradient x1="64" y1="0" x2="359.822" y2="512.00059" gradientUnits="userSpaceOnUse" id="color-1">
            <stop offset="0" stop-color="#f3fafe"/>
            <stop offset="1" stop-color="#cae9fb"/>
        </linearGradient>
    </defs>
    <g fill="none" fill-rule="evenodd" stroke="none" stroke-width="1" stroke-linecap="butt" stroke-linejoin="miter" stroke-miterlimit="10" stroke-dasharray="" stroke-dashoffset="0" font-family="none" font-weight="none" text-anchor="none" style="mix-blend-mode: normal">
        <path d="M64,0l384,0l0,512l-384,0z" id="curve1" fill="url(#color-1)"/>
        <path d="M112,64l288,0l0,16l-288,0z M112,352l288,0l0,16l-288,0z M112,448l208,0l0,16l-208,0z M112,400l288,0l0,16l-288,0z M112,208l288,0l0,16l-288,0z M112,304l288,0l0,16l-288,0z M112,256l288,0l0,16l-288,0z M112,160l288,0l0,16l-288,0z M112,112l288,0l0,16l-288,0z" id="curve0" fill="#717f8f"/>
    </g>


<g transform="translate(256,256) scale(0.5,0.5)">
    <title>scroll icon</title>
    <desc>scroll icon from the IconExperience.com G-Collection. Copyright by INCORS GmbH (www.incors.com).</desc>
    <defs>
        <linearGradient x1="400" y1="0" x2="440" y2="80.00009" gradientUnits="userSpaceOnUse" id="s-color-1">
            <stop offset="0" stop-color="#ffc61b"/>
            <stop offset="1" stop-color="#ffd65b"/>
        </linearGradient>
        <linearGradient x1="96" y1="0" x2="356.472" y2="487.9243" gradientUnits="userSpaceOnUse" id="s-color-2">
            <stop offset="0" stop-color="#fff0c1"/>
            <stop offset="1" stop-color="#ffe081"/>
        </linearGradient>
        <linearGradient x1="0" y1="512" x2="0" y2="431.9995" gradientUnits="userSpaceOnUse" id="s-color-3">
            <stop offset="0" stop-color="#ffc515"/>
            <stop offset="1" stop-color="#ffd146"/>
        </linearGradient>
    </defs>
    <g fill="none" fill-rule="evenodd" stroke="none" stroke-width="1" stroke-linecap="butt" stroke-linejoin="miter" stroke-miterlimit="10" stroke-dasharray="" stroke-dashoffset="0" font-family="none" font-weight="none" text-anchor="none" style="mix-blend-mode: normal">
        <path d="M464,0l-64,0l0,80l112,0l0,-32c0,-26.5 -21.5,-48 -48,-48z" id="curve2" fill="url(#s-color-1)"/>
        <path d="M160,0l304,0c-26.5,0 -48,21.5 -48,48l0,32l0,384c0,26.5 -21.5,48 -48,48l-272,0l0,-448c0,-35.5 28.5,-64 64,-64z" id="curve1" fill="url(#s-color-2)"/>
        <path d="M48,512l320,0c-26.5,0 -48,-21.5 -48,-48l0,-32l-320,0l0,32c0,26.5 21.5,48 48,48z" id="curve0" fill="url(#s-color-3)"/>
    </g>
</g>

</svg>
