<svg version="1.1"
    xmlns="http://www.w3.org/2000/svg"
    xmlns:xlink="http://www.w3.org/1999/xlink" width="512" height="512" viewBox="0 0 512 512">
    <title>text icon</title>
    <desc>text icon from the IconExperience.com G-Collection. Copyright by INCORS GmbH (www.incors.com).</desc>
    <defs>
        <linearGradient x1="64" y1="0" x2="359.822" y2="512.00059" gradientUnits="userSpaceOnUse" id="color-1">
            <stop offset="0" stop-color="#f3fafe"/>
            <stop offset="1" stop-color="#cae9fb"/>
        </linearGradient>
    </defs>
    <g fill="none" fill-rule="evenodd" stroke="none" stroke-width="1" stroke-linecap="butt" stroke-linejoin="miter" stroke-miterlimit="10" stroke-dasharray="" stroke-dashoffset="0" font-family="none" font-weight="none" text-anchor="none" style="mix-blend-mode: normal">
        <path d="M64,0l384,0l0,512l-384,0z" id="curve1" fill="url(#color-1)"/>
        <path d="M112,64l288,0l0,16l-288,0z M112,352l288,0l0,16l-288,0z M112,448l208,0l0,16l-208,0z M112,400l288,0l0,16l-288,0z M112,208l288,0l0,16l-288,0z M112,304l288,0l0,16l-288,0z M112,256l288,0l0,16l-288,0z M112,160l288,0l0,16l-288,0z M112,112l288,0l0,16l-288,0z" id="curve0" fill="#717f8f"/>
    </g>


<g transform="translate(0,0) scale(0.5,0.5)">
    <title>information icon</title>
    <desc>information icon from the IconExperience.com G-Collection. Copyright by INCORS GmbH (www.incors.com).</desc>
    <defs>
        <linearGradient x1="16" y1="16" x2="16" y2="496.0003" gradientUnits="userSpaceOnUse" id="i-color-1">
            <stop offset="0" stop-color="#4eb6f2"/>
            <stop offset="1" stop-color="#129eee"/>
        </linearGradient>
        <radialGradient cx="259.07508" cy="373.95001" r="276.24253" fx="259.07508" fy="373.95001" gradientUnits="userSpaceOnUse" id="i-color-2">
            <stop offset="0" stop-color="#ffffff"/>
            <stop offset="0.45882" stop-color="#ffffff"/>
            <stop offset="1" stop-color="#d8e0e8"/>
        </radialGradient>
    </defs>
    <g fill="none" fill-rule="evenodd" stroke="none" stroke-width="1" stroke-linecap="butt" stroke-linejoin="miter" stroke-miterlimit="10" stroke-dasharray="" stroke-dashoffset="0" font-family="none" font-weight="none" text-anchor="none" style="mix-blend-mode: normal">
        <path d="M256,16c132.5,0 240,107.5 240,240c0,132.5 -107.5,240 -240,240c-132.5,0 -240,-107.5 -240,-240c0,-132.5 107.5,-240 240,-240z" id="curve1" fill="url(#i-color-1)"/>
        <path d="M291,411l-69,0l0,-220l69,0z M218,134.5c0,-10 3.5,-18 10.5,-24.5c7,-6 16,-9 27.5,-9c11.5,0 20.5,3 27.5,9c7,6.5 10.5,14.5 10.5,24.5c0,9.5 -3.5,17.5 -10.5,24c-7,6 -16,9.5 -27.5,9.5c-11.5,0 -20.5,-3.5 -27.5,-9.5c-7,-6.5 -10.5,-14.5 -10.5,-24z" id="curve0" fill="url(#i-color-2)"/>
    </g>
</g>

</svg>
