<svg version="1.1"
    xmlns="http://www.w3.org/2000/svg"
    xmlns:xlink="http://www.w3.org/1999/xlink" width="512" height="512" viewBox="0 0 512 512">
    <title>code java icon</title>
    <desc>code java icon from the IconExperience.com G-Collection. Copyright by INCORS GmbH (www.incors.com).</desc>
    <defs>
        <linearGradient x1="64" y1="0" x2="374.8575" y2="512.00059" gradientUnits="userSpaceOnUse" id="color-1">
            <stop offset="0" stop-color="#f3fafe"/>
            <stop offset="1" stop-color="#c7e8fb"/>
        </linearGradient>
        <linearGradient x1="112" y1="32" x2="254.1805" y2="303.99985" gradientUnits="userSpaceOnUse" id="color-2">
            <stop offset="0" stop-color="#8695a4"/>
            <stop offset="1" stop-color="#778595"/>
        </linearGradient>
        <linearGradient x1="64" y1="336" x2="259.113" y2="512.0005" gradientUnits="userSpaceOnUse" id="color-3">
            <stop offset="0" stop-color="#3fb0f1"/>
            <stop offset="1" stop-color="#22a4ef"/>
        </linearGradient>
        <linearGradient x1="112.5" y1="384" x2="197.958" y2="461.451" gradientUnits="userSpaceOnUse" id="color-4">
            <stop offset="0" stop-color="#ffffff"/>
            <stop offset="1" stop-color="#f4f6f9"/>
        </linearGradient>
    </defs>
    <g fill="none" fill-rule="evenodd" stroke="none" stroke-width="1" stroke-linecap="butt" stroke-linejoin="miter" stroke-miterlimit="10" stroke-dasharray="" stroke-dashoffset="0" font-family="none" font-weight="none" text-anchor="none" style="mix-blend-mode: normal">
        <path d="M64,0l384,0l0,512l-384,0z" id="curve3" fill="url(#color-1)"/>
        <path d="M112,32l112,0l0,16l-112,0z M112,288l160,0l0,16l-160,0z M160,192l112,0l0,16l-112,0z M112,256l112,0l0,16l-112,0z M160,224l144,0l0,16l-144,0z M160,160l112,0l0,16l-112,0z M224,128l112,0l0,16l-112,0z M224,96l192,0l0,16l-192,0z M160,64l176,0l0,16l-176,0z" id="curve2" fill="url(#color-2)"/>
        <path d="M64,336l384,0l0,176l-384,0z" id="curve1" fill="url(#color-3)"/>
        <path d="M147.5,384l19,0l0,54c0,5 -1,9.5 -3.5,13.5c-2,4 -5.5,7 -9.5,9c-4,2.5 -9,3.5 -14,3.5c-8.5,0 -15.5,-2 -20,-6.5c-5,-4.5 -7,-10.5 -7,-18.5l19,0c0,3.5 0.5,6.5 2,8c1,1.5 3,2.5 6,2.5c2.5,0 4.5,-1 6,-3c1.5,-2 2,-5 2,-8.5z M226,448l-26,0l-4.5,15l-20,0l28.5,-79l18,0l29,79l-20,0z M204.5,433.5l17,0l-8.5,-27.5z M287.5,441.5l15.5,-57.5l21.5,0l-27,79l-20.5,0l-26.5,-79l21,0z M374.5,448l-26,0l-4.5,15l-20.5,0l29,-79l18,0l29,79l-20,0z M353,433.5l17,0l-8.5,-27.5z" id="curve0" fill="url(#color-4)"/>
    </g>
</svg>