<svg version="1.1"
    xmlns="http://www.w3.org/2000/svg"
    xmlns:xlink="http://www.w3.org/1999/xlink" width="512" height="512" viewBox="0 0 512 512">
    <title>font style underline icon</title>
    <desc>font style underline icon from the IconExperience.com G-Collection. Copyright by INCORS GmbH (www.incors.com).</desc>
    <defs>
        <linearGradient x1="112" y1="134" x2="309.259" y2="446.325" gradientUnits="userSpaceOnUse" id="color-1">
            <stop offset="0" stop-color="#717f8f"/>
            <stop offset="1" stop-color="#5a6978"/>
        </linearGradient>
    </defs>
    <g fill="none" fill-rule="nonzero" stroke="none" stroke-width="1" stroke-linecap="butt" stroke-linejoin="miter" stroke-miterlimit="10" stroke-dasharray="" stroke-dashoffset="0" font-family="none" font-weight="none" text-anchor="none" style="mix-blend-mode: normal">
        <path d="M314,416c-22,25.5 -52.5,38 -91.5,38c-35.5,0 -63,-10 -81.5,-29c-19,-19.5 -28.5,-48 -29,-85l0,-206l89,0l0,203c0,33 16,49 47.5,49c30,0 51,-10 62.5,-29.5l0,-222.5l89,0l0,314l-83.5,0z" id="curve1" fill="url(#color-1)"/>
        <path d="M96,464l320,0l0,32l-320,0z" id="curve0" fill="#91a0af"/>
    </g>
</svg>