<svg version="1.1"
    xmlns="http://www.w3.org/2000/svg"
    xmlns:xlink="http://www.w3.org/1999/xlink" width="512" height="512" viewBox="0 0 512 512">
    <title>window earth icon</title>
    <desc>window earth icon from the IconExperience.com G-Collection. Copyright by INCORS GmbH (www.incors.com).</desc>
    <defs>
        <linearGradient x1="0" y1="64" x2="283.785" y2="331.0915" gradientUnits="userSpaceOnUse" id="color-1">
            <stop offset="0" stop-color="#40b0f1"/>
            <stop offset="1" stop-color="#129eee"/>
        </linearGradient>
        <linearGradient x1="0" y1="128" x2="153.8695" y2="464.0005" gradientUnits="userSpaceOnUse" id="color-2">
            <stop offset="0" stop-color="#e1f2fd"/>
            <stop offset="1" stop-color="#cceafb"/>
        </linearGradient>
        <radialGradient cx="207.1766" cy="259.3617" r="259.02344" fx="207.1766" fy="259.3617" gradientUnits="userSpaceOnUse" id="color-3">
            <stop offset="0" stop-color="#98e957"/>
            <stop offset="0.41177" stop-color="#77da26"/>
            <stop offset="1" stop-color="#3b6d13"/>
        </radialGradient>
        <radialGradient cx="204.8409" cy="257.79008" r="238.99548" fx="204.8409" fy="257.79008" gradientUnits="userSpaceOnUse" id="color-4">
            <stop offset="0" stop-color="#4eb6f2"/>
            <stop offset="0.2" stop-color="#43abe7"/>
            <stop offset="1" stop-color="#0e76b2"/>
        </radialGradient>
    </defs>
    <g fill="none" fill-rule="none" stroke="none" stroke-width="1" stroke-linecap="butt" stroke-linejoin="miter" stroke-miterlimit="10" stroke-dasharray="" stroke-dashoffset="0" font-family="none" font-weight="none" text-anchor="none" style="mix-blend-mode: normal">
        <path d="M512,80l0,384l-512,0l0,-384c0,-9 7,-16 16,-16l480,0c9,0 16,7 16,16z" id="curve5" fill="url(#color-1)" fill-rule="nonzero"/>
        <path d="M0,128l512,0l0,336l-512,0z" id="curve4" fill="url(#color-2)" fill-rule="nonzero"/>
        <path d="M479,90c0.5,2 1,4 1,6c0,9 -7,16 -16,16c-3.5,0 -7,-1 -9.5,-3z" id="curve3" fill="#b1e3fb" fill-rule="evenodd"/>
        <path d="M416,80c9,0 16,7 16,16c0,9 -7,16 -16,16c-9,0 -16,-7 -16,-16c0,-9 7,-16 16,-16z M464,80c9,0 16,7 16,16c0,9 -7,16 -16,16c-9,0 -16,-7 -16,-16c0,-9 7,-16 16,-16z" id="curve2" fill="#ffffff" fill-rule="nonzero"/>
        <path d="M256,144c79.5,0 144,64.5 144,144c0,79.5 -64.5,144 -144,144c-79.5,0 -144,-64.5 -144,-144c0,-79.5 64.5,-144 144,-144z" id="curve1" fill="url(#color-3)" fill-rule="evenodd"/>
        <path d="M290.5,231c3.5,-1 9.5,-1.5 11.5,-1c10,3.5 9.5,14 20,16c1,0 6.5,-3 7.5,-3c6.5,1 12.5,7 18,4.5c3.5,-2 5.5,-8 2.5,-10.5c-3,-2 -7.5,-0.5 -10.5,-2.5c-5,-3.5 -8.5,1 -12.5,-3.5c-2,-2 -5,-8 -7,-11.5c-2.5,-3.5 -10,-2 -9,-0.5c4,5 9.5,6 10.5,9c0.5,3 -7.5,7 -5.5,1.5c1.5,-3 -4.5,-5 -11,-8.5c-3.5,-1.5 -7,-6.5 -12,-4c-2.5,1.5 -7.5,7.5 -9.5,10.5c-3,5 -11,3.5 -16,1c-5,-2.5 -5,-14.5 1.5,-20c6.5,-5 11.5,-1.5 17.5,-3.5c2.5,-0.5 3.5,-3.5 7.5,-6c4.5,-3 -3,-7.5 -0.5,-12c2,-4 8.5,-5 12,-6.5c3,-1.5 6.5,-4.5 10,-2c5,2.5 10,3 15,6c1,0.5 2.5,1.5 3.5,2c-17.5,-13.5 -39,-22.5 -62.5,-25.5c2.5,3.5 4,7.5 3,10c-2,5 -5.5,11 -15,14.5c-7,2.5 -16,2.5 -23,5.5c-7.5,3.5 -14.5,3 -18.5,4c-7,1.5 0,-21.5 -2,-24c-1,-1.5 -4,-2 -7.5,-2c-5,2 -10,4.5 -15,7c-1.5,8.5 5.5,15.5 5,17c-0.5,3.5 -0.5,17.5 -4,21.5c-5,5 -18,10 -19.5,10.5c-8.5,1 -10.5,9.5 -16.5,14.5c-2.5,2 -16,16 -18,20.5c-6,12 0,19.5 2.5,21.5c4.5,4 6,4.5 11,6c2,1 21,10.5 26.5,16c5,5 7.5,11 13,14c6.5,4 18,8 19.5,11c7,14 4.5,33 -15.5,46.5c-5,3.5 -15.5,9 -13,18.5c0,0.5 0,0.5 0,1c20.5,13.5 45,21.5 71.5,21.5c70.5,0 128,-57.5 128,-128c0,-7 -0.5,-14.5 -2,-21c-0.5,2.5 -1.5,6.5 -3,9.5c-2,3.5 -6.5,4 -7,5c-5,6.5 11,11.5 4,20.5c-3,4 -12,13 -14.5,24.5c-5,24 -2,9.5 -9.5,29c-1,2.5 -3.5,14 -5,16.5c-7.5,11 -28.5,24 -33.5,17.5c-3,-3.5 -5,-9.5 -6,-15c-0.5,-5 -6.5,-12 -6,-16.5c1,-6.5 1.5,-9 1.5,-16.5c0,-0.5 -4.5,-19 -5,-20.5c-3.5,-7.5 -9.5,-11 -17,-8c-6.5,2 -11.5,-1 -16.5,-3c-10,-4 -14.5,-17 -16.5,-27.5c0,0 1.5,-16 1.5,-17c0.5,-4.5 2.5,-8.5 4.5,-12c18,-25 13.5,-14 36.5,-22.5z M160,372.5c-20,-22.5 -32,-51.5 -32,-84c2,4.5 3.5,9.5 4,14c1,6 5.5,17 6.5,24c1,8.5 7.5,15 14.5,22.5c3.5,4 4,16.5 7,23.5z" id="curve0" fill="url(#color-4)" fill-rule="evenodd"/>
    </g>
</svg>