<svg version="1.1"
    xmlns="http://www.w3.org/2000/svg"
    xmlns:xlink="http://www.w3.org/1999/xlink" width="512" height="512" viewBox="0 0 512 512">
    <title>list style bullets icon</title>
    <desc>list style bullets icon from the IconExperience.com G-Collection. Copyright by INCORS GmbH (www.incors.com).</desc>
    <defs>
        <linearGradient x1="32" y1="64" x2="111.9998" y2="142.492" gradientUnits="userSpaceOnUse" id="color-1">
            <stop offset="0" stop-color="#24b1f4"/>
            <stop offset="1" stop-color="#16a2ef"/>
        </linearGradient>
        <linearGradient x1="32" y1="288" x2="111.9998" y2="366.492" gradientUnits="userSpaceOnUse" id="color-2">
            <stop offset="0" stop-color="#24b1f4"/>
            <stop offset="1" stop-color="#16a2ef"/>
        </linearGradient>
    </defs>
    <g fill="none" fill-rule="evenodd" stroke="none" stroke-width="1" stroke-linecap="butt" stroke-linejoin="miter" stroke-miterlimit="10" stroke-dasharray="" stroke-dashoffset="0" font-family="none" font-weight="none" text-anchor="none" style="mix-blend-mode: normal">
        <path d="M72,64c22,0 40,18 40,40c0,22 -18,40 -40,40c-22,0 -40,-18 -40,-40c0,-22 18,-40 40,-40z" id="curve2" fill="url(#color-1)"/>
        <path d="M72,288c22,0 40,18 40,40c0,22 -18,40 -40,40c-22,0 -40,-18 -40,-40c0,-22 18,-40 40,-40z" id="curve1" fill="url(#color-2)"/>
        <path d="M176,64l304,0l0,16l-304,0z M176,432l144,0l0,16l-144,0z M176,384l304,0l0,16l-304,0z M176,336l304,0l0,16l-304,0z M176,288l304,0l0,16l-304,0z M176,208l192,0l0,16l-192,0z M176,160l304,0l0,16l-304,0z M176,112l304,0l0,16l-304,0z" id="curve0" fill="#717f8f"/>
    </g>
</svg>