<svg version="1.1"
    xmlns="http://www.w3.org/2000/svg"
    xmlns:xlink="http://www.w3.org/1999/xlink" width="512" height="512" viewBox="0 0 512 512">
    <title>code javascript icon</title>
    <desc>code javascript icon from the IconExperience.com G-Collection. Copyright by INCORS GmbH (www.incors.com).</desc>
    <defs>
        <linearGradient x1="64" y1="0" x2="374.8575" y2="512.00059" gradientUnits="userSpaceOnUse" id="color-1">
            <stop offset="0" stop-color="#f3fafe"/>
            <stop offset="1" stop-color="#c7e8fb"/>
        </linearGradient>
        <linearGradient x1="112" y1="32" x2="254.1805" y2="303.99985" gradientUnits="userSpaceOnUse" id="color-2">
            <stop offset="0" stop-color="#8695a4"/>
            <stop offset="1" stop-color="#778595"/>
        </linearGradient>
        <linearGradient x1="64" y1="336" x2="265.143" y2="512.0005" gradientUnits="userSpaceOnUse" id="color-3">
            <stop offset="0" stop-color="#f37e75"/>
            <stop offset="0.76078" stop-color="#ef5c51"/>
            <stop offset="1" stop-color="#e75449"/>
        </linearGradient>
        <linearGradient x1="191" y1="383" x2="277.1465" y2="461.0745" gradientUnits="userSpaceOnUse" id="color-4">
            <stop offset="0" stop-color="#ffffff"/>
            <stop offset="1" stop-color="#edf0f4"/>
        </linearGradient>
    </defs>
    <g fill="none" fill-rule="evenodd" stroke="none" stroke-width="1" stroke-linecap="butt" stroke-linejoin="miter" stroke-miterlimit="10" stroke-dasharray="" stroke-dashoffset="0" font-family="none" font-weight="none" text-anchor="none" style="mix-blend-mode: normal">
        <path d="M64,0l384,0l0,512l-384,0z" id="curve3" fill="url(#color-1)"/>
        <path d="M112,32l112,0l0,16l-112,0z M112,288l160,0l0,16l-160,0z M160,192l112,0l0,16l-112,0z M112,256l112,0l0,16l-112,0z M160,224l144,0l0,16l-144,0z M160,160l112,0l0,16l-112,0z M224,128l112,0l0,16l-112,0z M224,96l192,0l0,16l-192,0z M160,64l176,0l0,16l-176,0z" id="curve2" fill="url(#color-2)"/>
        <path d="M64,336l384,0l0,176l-384,0z" id="curve1" fill="url(#color-3)"/>
        <path d="M226.5,384l19,0l0,54c0,5 -1,9.5 -3.5,13.5c-2.5,4 -5.5,7 -10,9.5c-4,2 -8.5,3 -13.5,3c-9,0 -15.5,-2 -20,-6.5c-5,-4.5 -7.5,-10.5 -7.5,-18.5l19,0c0,3.5 1,6.5 2,8c1.5,1.5 3.5,2.5 6.5,2.5c2.5,0 4.5,-1 6,-3c1.5,-2 2,-5 2,-8.5z M302,442c0,-2.5 -1,-5 -3,-6.5c-2,-1.5 -5.5,-3 -10.5,-5c-5,-1.5 -9,-3 -12,-4.5c-10,-5 -15.5,-12 -15.5,-21c0,-4 1.5,-8 4,-11.5c2.5,-3 6,-6 11,-7.5c4.5,-2 9.5,-3 15.5,-3c5.5,0 10.5,1 15,3c4.5,2 8,5 10.5,8.5c2.5,4 4,8 4,13l-19,0c0,-3 -1,-5.5 -3,-7.5c-2,-2 -4.5,-2.5 -8,-2.5c-3.5,0 -6,0.5 -8,2c-2,1.5 -3,3.5 -3,6c0,2 1,3.5 3.5,5.5c2,1.5 5.5,3 11,5c5.5,1.5 10,3.5 13.5,5.5c8.5,5 13,11.5 13,20.5c0,7 -3,12 -8,16c-5,4 -12,6 -21.5,6c-6,0 -12,-1 -17,-3.5c-5.5,-2 -9,-5.5 -12,-9.5c-2.5,-4 -3.5,-8.5 -3.5,-13.5l19,0c0,4 1,7.5 3,9.5c2.5,2 6,3 10.5,3c3.5,0 6,-0.5 7.5,-2c2,-1.5 3,-3.5 3,-6z" id="curve0" fill="url(#color-4)"/>
    </g>
</svg>