<svg version="1.1"
    xmlns="http://www.w3.org/2000/svg"
    xmlns:xlink="http://www.w3.org/1999/xlink" width="512" height="512" viewBox="0 0 512 512">
    <title>text align right icon</title>
    <desc>text align right icon from the IconExperience.com G-Collection. Copyright by INCORS GmbH (www.incors.com).</desc>
    <defs>
        <linearGradient x1="448" y1="32" x2="480" y2="141.93185" gradientUnits="userSpaceOnUse" id="color-1">
            <stop offset="0" stop-color="#3fb0f1"/>
            <stop offset="1" stop-color="#33abf0"/>
        </linearGradient>
    </defs>
    <g fill="none" fill-rule="evenodd" stroke="none" stroke-width="1" stroke-linecap="butt" stroke-linejoin="miter" stroke-miterlimit="10" stroke-dasharray="" stroke-dashoffset="0" font-family="none" font-weight="none" text-anchor="none" style="mix-blend-mode: normal">
        <path d="M448,32l32,0l0,464l-32,0z" id="curve1" fill="url(#color-1)"/>
        <path d="M432,64l-336,0l0,16l336,0z M432,448l-272,0l0,16l272,0z M432,400l-336,0l0,16l336,0z M432,352l-400,0l0,16l400,0z M432,304l-240,0l0,16l240,0z M432,256l-272,0l0,16l272,0z M432,208l-208,0l0,16l208,0z M432,160l-336,0l0,16l336,0z M432,112l-400,0l0,16l400,0z" id="curve0" fill="#717f8f"/>
    </g>
</svg>