<svg version="1.1"
    xmlns="http://www.w3.org/2000/svg"
    xmlns:xlink="http://www.w3.org/1999/xlink" width="512" height="512" viewBox="0 0 512 512">
    <title>element icon</title>
    <desc>element icon from the IconExperience.com G-Collection. Copyright by INCORS GmbH (www.incors.com).</desc>
    <defs>
        <linearGradient x1="96" y1="128" x2="351.5735" y2="384.001" gradientUnits="userSpaceOnUse" id="color-1">
            <stop offset="0" stop-color="#4cb5f2"/>
            <stop offset="1" stop-color="#19a1ee"/>
        </linearGradient>
    </defs>
    <g fill="url(#color-1)" fill-rule="evenodd" stroke="#252525" stroke-width="10" stroke-linecap="butt" stroke-linejoin="round" stroke-miterlimit="10" stroke-dasharray="" stroke-dashoffset="0" font-family="none" font-weight="none" text-anchor="none" style="mix-blend-mode: normal" transform="translate(-48,0)">
        <path d="M112,128l288,0c9,0 16,7 16,16l0,224c0,9 -7,16 -16,16l-288,0c-9,0 -16,-7 -16,-16l0,-224c0,-9 7,-16 16,-16z" id="curve0"/>
    </g>

    <g id="Layer2" name="Layer 1" opacity="1">
        <g id="Shape2">
            <desc shapeID="2" type="0" basicInfo-basicType="1" basicInfo-roundedRectRadius="12" basicInfo-polygonSides="6" basicInfo-starPoints="5" bounding="rect(-118.5,-199,237,398)" text="" font-familyName="Helvetica" font-pixelSize="20" font-bold="0" font-underline="0" font-alignment="1" strokeStyle="0" markerStart="0" markerEnd="0" shadowEnabled="0" shadowOffsetX="0" shadowOffsetY="2" shadowBlur="4" shadowOpacity="160" blurEnabled="0" blurRadius="4" transform="matrix(1.08017,0,0,1.04523,368.5,288.5)" pers-center="0,0" pers-size="0,0" pers-start="0,0" pers-end="0,0" locked="0" mesh="" flag=""/>
            <path id="shapePath2" d="M240.5,80.5 L496.5,80.5 L496.5,496.5 L240.5,496.5 L240.5,80.5 Z" style="stroke:#7f7f7f;stroke-opacity:1;stroke-width:8;stroke-linejoin:miter;stroke-miterlimit:2;stroke-linecap:round;fill-rule:evenodd;fill:#ffffff;fill-opacity:1;"/>
        </g>
        <g id="Shape3">
            <desc shapeID="3" type="0" basicInfo-basicType="4" basicInfo-roundedRectRadius="12" basicInfo-polygonSides="6" basicInfo-starPoints="5" bounding="rect(-12,-11.5,24,23)" text="" font-familyName="Helvetica" font-pixelSize="20" font-bold="0" font-underline="0" font-alignment="1" strokeStyle="0" markerStart="0" markerEnd="0" shadowEnabled="0" shadowOffsetX="0" shadowOffsetY="2" shadowBlur="4" shadowOpacity="160" blurEnabled="0" blurRadius="4" transform="matrix(1,0,0,1,268.5,124)" pers-center="0,0" pers-size="0,0" pers-start="0,0" pers-end="0,0" locked="0" mesh="" flag=""/>
            <path id="shapePath3" d="M256.5,124 C256.5,117.649 261.873,112.5 268.5,112.5 C275.127,112.5 280.5,117.649 280.5,124 C280.5,130.351 275.127,135.5 268.5,135.5 C261.873,135.5 256.5,130.351 256.5,124 Z" style="stroke:#7f7f7f;stroke-opacity:1;stroke-width:4;stroke-linejoin:miter;stroke-miterlimit:2;stroke-linecap:round;fill-rule:evenodd;fill:#5873ff;fill-opacity:1;"/>
        </g>
        <g id="Shape4">
            <desc shapeID="4" type="0" basicInfo-basicType="4" basicInfo-roundedRectRadius="12" basicInfo-polygonSides="6" basicInfo-starPoints="5" bounding="rect(-12,-11.5,24,23)" text="" font-familyName="Helvetica" font-pixelSize="20" font-bold="0" font-underline="0" font-alignment="1" strokeStyle="0" markerStart="0" markerEnd="0" shadowEnabled="0" shadowOffsetX="0" shadowOffsetY="2" shadowBlur="4" shadowOpacity="160" blurEnabled="0" blurRadius="4" transform="matrix(1,0,0,1,268.5,188)" pers-center="0,0" pers-size="0,0" pers-start="0,0" pers-end="0,0" locked="0" mesh="" flag=""/>
            <path id="shapePath4" d="M256.5,188 C256.5,181.649 261.873,176.5 268.5,176.5 C275.127,176.5 280.5,181.649 280.5,188 C280.5,194.351 275.127,199.5 268.5,199.5 C261.873,199.5 256.5,194.351 256.5,188 Z" style="stroke:#7f7f7f;stroke-opacity:1;stroke-width:4;stroke-linejoin:miter;stroke-miterlimit:2;stroke-linecap:round;fill-rule:evenodd;fill:#5873ff;fill-opacity:1;"/>
        </g>
        <g id="Shape5">
            <desc shapeID="5" type="0" basicInfo-basicType="4" basicInfo-roundedRectRadius="12" basicInfo-polygonSides="6" basicInfo-starPoints="5" bounding="rect(-12,-11.5,24,23)" text="" font-familyName="Helvetica" font-pixelSize="20" font-bold="0" font-underline="0" font-alignment="1" strokeStyle="0" markerStart="0" markerEnd="0" shadowEnabled="0" shadowOffsetX="0" shadowOffsetY="2" shadowBlur="4" shadowOpacity="160" blurEnabled="0" blurRadius="4" transform="matrix(1,0,0,1,268.5,252)" pers-center="0,0" pers-size="0,0" pers-start="0,0" pers-end="0,0" locked="0" mesh="" flag=""/>
            <path id="shapePath5" d="M256.5,252 C256.5,245.649 261.873,240.5 268.5,240.5 C275.127,240.5 280.5,245.649 280.5,252 C280.5,258.351 275.127,263.5 268.5,263.5 C261.873,263.5 256.5,258.351 256.5,252 Z" style="stroke:#7f7f7f;stroke-opacity:1;stroke-width:4;stroke-linejoin:miter;stroke-miterlimit:2;stroke-linecap:round;fill-rule:evenodd;fill:#5873ff;fill-opacity:1;"/>
        </g>
        <g id="Shape6">
            <desc shapeID="6" type="0" basicInfo-basicType="0" basicInfo-roundedRectRadius="12" basicInfo-polygonSides="6" basicInfo-starPoints="5" bounding="rect(-12,-11.5,24,23)" text="" font-familyName="Helvetica" font-pixelSize="20" font-bold="0" font-underline="0" font-alignment="1" strokeStyle="0" markerStart="0" markerEnd="0" shadowEnabled="0" shadowOffsetX="0" shadowOffsetY="2" shadowBlur="4" shadowOpacity="160" blurEnabled="0" blurRadius="4" transform="matrix(1,0,0,1,268.5,316)" pers-center="0,0" pers-size="0,0" pers-start="0,0" pers-end="0,0" locked="0" mesh="" flag=""/>
            <path id="shapePath6" d="M256.5,316 C256.5,309.649 261.873,304.5 268.5,304.5 C275.127,304.5 280.5,309.649 280.5,316 C280.5,322.351 275.127,327.5 268.5,327.5 C261.873,327.5 256.5,322.351 256.5,316 Z" style="stroke:#7f7f7f;stroke-opacity:1;stroke-width:4;stroke-linejoin:miter;stroke-miterlimit:2;stroke-linecap:round;fill-rule:evenodd;fill:#5873ff;fill-opacity:1;"/>
        </g>
        <g id="Shape7">
            <desc shapeID="7" type="0" basicInfo-basicType="4" basicInfo-roundedRectRadius="12" basicInfo-polygonSides="6" basicInfo-starPoints="5" bounding="rect(-12,-11.5,24,23)" text="" font-familyName="Helvetica" font-pixelSize="20" font-bold="0" font-underline="0" font-alignment="1" strokeStyle="0" markerStart="0" markerEnd="0" shadowEnabled="0" shadowOffsetX="0" shadowOffsetY="2" shadowBlur="4" shadowOpacity="160" blurEnabled="0" blurRadius="4" transform="matrix(1,0,0,1,268.5,380)" pers-center="0,0" pers-size="0,0" pers-start="0,0" pers-end="0,0" locked="0" mesh="" flag=""/>
            <path id="shapePath7" d="M256.5,380 C256.5,373.649 261.873,368.5 268.5,368.5 C275.127,368.5 280.5,373.649 280.5,380 C280.5,386.351 275.127,391.5 268.5,391.5 C261.873,391.5 256.5,386.351 256.5,380 Z" style="stroke:#7f7f7f;stroke-opacity:1;stroke-width:4;stroke-linejoin:miter;stroke-miterlimit:2;stroke-linecap:round;fill-rule:evenodd;fill:#5873ff;fill-opacity:1;"/>
        </g>
        <g id="Shape8">
            <desc shapeID="8" type="0" basicInfo-basicType="4" basicInfo-roundedRectRadius="12" basicInfo-polygonSides="6" basicInfo-starPoints="5" bounding="rect(-12,-11.5,24,23)" text="" font-familyName="Helvetica" font-pixelSize="20" font-bold="0" font-underline="0" font-alignment="1" strokeStyle="0" markerStart="0" markerEnd="0" shadowEnabled="0" shadowOffsetX="0" shadowOffsetY="2" shadowBlur="4" shadowOpacity="160" blurEnabled="0" blurRadius="4" transform="matrix(1,0,0,1,268.5,444)" pers-center="0,0" pers-size="0,0" pers-start="0,0" pers-end="0,0" locked="0" mesh="" flag=""/>
            <path id="shapePath8" d="M256.5,444 C256.5,437.649 261.873,432.5 268.5,432.5 C275.127,432.5 280.5,437.649 280.5,444 C280.5,450.351 275.127,455.5 268.5,455.5 C261.873,455.5 256.5,450.351 256.5,444 Z" style="stroke:#7f7f7f;stroke-opacity:1;stroke-width:4;stroke-linejoin:miter;stroke-miterlimit:2;stroke-linecap:round;fill-rule:evenodd;fill:#5873ff;fill-opacity:1;"/>
        </g>
        <g id="Shape9">
            <desc shapeID="9" type="0" basicInfo-basicType="0" basicInfo-roundedRectRadius="12" basicInfo-polygonSides="6" basicInfo-starPoints="5" bounding="rect(-98.3281,-189.562,196.656,379.125)" text="The&#10;locals&#10;call&#10;him&#10;Rocket&#10;Bob()" font-familyName="Helvetica" font-pixelSize="64" font-bold="0" font-underline="0" font-alignment="0" strokeStyle="0" markerStart="0" markerEnd="0" shadowEnabled="0" shadowOffsetX="0" shadowOffsetY="2" shadowBlur="4" shadowOpacity="160" blurEnabled="0" blurRadius="4" transform="matrix(1,0,0,1,386.828,286.063)" pers-center="0,0" pers-size="0,0" pers-start="0,0" pers-end="0,0" locked="0" mesh="" flag=""/>
            <path id="shapePath9" d="M325.75,96.6563 L325.75,102.125 L310.281,102.125 L310.281,142.563 L303.969,142.563 L303.969,102.125 L288.5,102.125 L288.5,96.6563 L325.75,96.6563 M330.688,96.5 L336.312,96.5 L336.312,113.625 C337.646,111.938 338.844,110.75 339.906,110.063 C341.719,108.875 343.979,108.281 346.688,108.281 C351.542,108.281 354.833,109.979 356.562,113.375 C357.5,115.229 357.969,117.802 357.969,121.094 L357.969,142.563 L352.188,142.563 L352.188,121.469 C352.188,119.01 351.875,117.208 351.25,116.063 C350.229,114.229 348.312,113.313 345.5,113.313 C343.167,113.313 341.052,114.115 339.156,115.719 C337.26,117.323 336.312,120.354 336.312,124.813 L336.312,142.563 L330.688,142.563 L330.688,96.5 M387.125,110.016 C389.354,111.13 391.052,112.573 392.219,114.344 C393.344,116.031 394.094,118 394.469,120.25 C394.802,121.792 394.969,124.25 394.969,127.625 L370.438,127.625 C370.542,131.021 371.344,133.745 372.844,135.797 C374.344,137.849 376.667,138.875 379.812,138.875 C382.75,138.875 385.094,137.906 386.844,135.969 C387.844,134.844 388.552,133.542 388.969,132.063 L394.5,132.063 C394.354,133.292 393.87,134.661 393.047,136.172 C392.224,137.682 391.302,138.917 390.281,139.875 C388.573,141.542 386.458,142.667 383.938,143.25 C382.583,143.583 381.052,143.75 379.344,143.75 C375.177,143.75 371.646,142.234 368.75,139.203 C365.854,136.172 364.406,131.927 364.406,126.469 C364.406,121.094 365.865,116.729 368.781,113.375 C371.698,110.021 375.51,108.344 380.219,108.344 C382.594,108.344 384.896,108.901 387.125,110.016 M389.188,123.156 C388.958,120.719 388.427,118.771 387.594,117.313 C386.052,114.604 383.479,113.25 379.875,113.25 C377.292,113.25 375.125,114.182 373.375,116.047 C371.625,117.911 370.698,120.281 370.594,123.156 L389.188,123.156 M291.75,160.656 L297.375,160.656 L297.375,206.563 L291.75,206.563 L291.75,160.656 M326.766,198.703 C328.151,195.88 328.844,192.74 328.844,189.281 C328.844,186.156 328.344,183.615 327.344,181.656 C325.76,178.573 323.031,177.031 319.156,177.031 C315.719,177.031 313.219,178.344 311.656,180.969 C310.094,183.594 309.312,186.76 309.312,190.469 C309.312,194.031 310.094,197 311.656,199.375 C313.219,201.75 315.698,202.938 319.094,202.938 C322.823,202.938 325.38,201.526 326.766,198.703 M330.25,176.438 C333.229,179.313 334.719,183.542 334.719,189.125 C334.719,194.521 333.406,198.979 330.781,202.5 C328.156,206.021 324.083,207.781 318.562,207.781 C313.958,207.781 310.302,206.224 307.594,203.109 C304.885,199.995 303.531,195.813 303.531,190.563 C303.531,184.938 304.958,180.458 307.812,177.125 C310.667,173.792 314.5,172.125 319.312,172.125 C323.625,172.125 327.271,173.563 330.25,176.438 M363.516,174.875 C365.88,176.708 367.302,179.865 367.781,184.344 L362.312,184.344 C361.979,182.281 361.219,180.568 360.031,179.203 C358.844,177.839 356.938,177.156 354.312,177.156 C350.729,177.156 348.167,178.906 346.625,182.406 C345.625,184.677 345.125,187.479 345.125,190.813 C345.125,194.167 345.833,196.99 347.25,199.281 C348.667,201.573 350.896,202.719 353.938,202.719 C356.271,202.719 358.12,202.005 359.484,200.578 C360.849,199.151 361.792,197.198 362.312,194.719 L367.781,194.719 C367.156,199.156 365.594,202.401 363.094,204.453 C360.594,206.505 357.396,207.531 353.5,207.531 C349.125,207.531 345.635,205.932 343.031,202.734 C340.427,199.536 339.125,195.542 339.125,190.75 C339.125,184.875 340.552,180.302 343.406,177.031 C346.26,173.76 349.896,172.125 354.312,172.125 C358.083,172.125 361.151,173.042 363.516,174.875 M379.5,201.5 C380.688,202.438 382.094,202.906 383.719,202.906 C385.698,202.906 387.615,202.448 389.469,201.531 C392.594,200.01 394.156,197.521 394.156,194.063 L394.156,189.531 C393.469,189.969 392.583,190.333 391.5,190.625 C390.417,190.917 389.354,191.125 388.312,191.25 L384.906,191.688 C382.865,191.958 381.333,192.385 380.312,192.969 C378.583,193.948 377.719,195.51 377.719,197.656 C377.719,199.281 378.312,200.563 379.5,201.5 M391.344,186.281 C392.635,186.115 393.5,185.573 393.938,184.656 C394.188,184.156 394.312,183.438 394.312,182.5 C394.312,180.583 393.63,179.193 392.266,178.328 C390.901,177.464 388.948,177.031 386.406,177.031 C383.469,177.031 381.385,177.823 380.156,179.406 C379.469,180.281 379.021,181.583 378.812,183.313 L373.562,183.313 C373.667,179.188 375.005,176.318 377.578,174.703 C380.151,173.089 383.135,172.281 386.531,172.281 C390.469,172.281 393.667,173.031 396.125,174.531 C398.562,176.031 399.781,178.365 399.781,181.531 L399.781,200.813 C399.781,201.396 399.901,201.865 400.141,202.219 C400.38,202.573 400.885,202.75 401.656,202.75 C401.906,202.75 402.188,202.734 402.5,202.703 C402.812,202.672 403.146,202.625 403.5,202.563 L403.5,206.719 C402.625,206.969 401.958,207.125 401.5,207.188 C401.042,207.25 400.417,207.281 399.625,207.281 C397.688,207.281 396.281,206.594 395.406,205.219 C394.948,204.49 394.625,203.458 394.438,202.125 C393.292,203.625 391.646,204.927 389.5,206.031 C387.354,207.135 384.99,207.688 382.406,207.688 C379.302,207.688 376.766,206.745 374.797,204.859 C372.828,202.974 371.844,200.615 371.844,197.781 C371.844,194.677 372.812,192.271 374.75,190.563 C376.688,188.854 379.229,187.802 382.375,187.406 L391.344,186.281 M409.156,160.656 L414.781,160.656 L414.781,206.563 L409.156,206.563 L409.156,160.656 M426.562,196.063 C426.729,197.938 427.198,199.375 427.969,200.375 C429.385,202.188 431.844,203.094 435.344,203.094 C437.427,203.094 439.26,202.641 440.844,201.734 C442.427,200.828 443.219,199.427 443.219,197.531 C443.219,196.094 442.583,195 441.312,194.25 C440.5,193.792 438.896,193.26 436.5,192.656 L432.031,191.531 C429.177,190.823 427.073,190.031 425.719,189.156 C423.302,187.635 422.094,185.531 422.094,182.844 C422.094,179.677 423.234,177.115 425.516,175.156 C427.797,173.198 430.865,172.219 434.719,172.219 C439.76,172.219 443.396,173.698 445.625,176.656 C447.021,178.531 447.698,180.552 447.656,182.719 L442.344,182.719 C442.24,181.448 441.792,180.292 441,179.25 C439.708,177.771 437.469,177.031 434.281,177.031 C432.156,177.031 430.547,177.438 429.453,178.25 C428.359,179.063 427.812,180.135 427.812,181.469 C427.812,182.927 428.531,184.094 429.969,184.969 C430.802,185.49 432.031,185.948 433.656,186.344 L437.375,187.25 C441.417,188.229 444.125,189.177 445.5,190.094 C447.688,191.531 448.781,193.792 448.781,196.875 C448.781,199.854 447.651,202.427 445.391,204.594 C443.13,206.76 439.688,207.844 435.062,207.844 C430.083,207.844 426.557,206.714 424.484,204.453 C422.411,202.193 421.302,199.396 421.156,196.063 L426.562,196.063 M313.703,238.875 C316.068,240.708 317.49,243.865 317.969,248.344 L312.5,248.344 C312.167,246.281 311.406,244.568 310.219,243.203 C309.031,241.839 307.125,241.156 304.5,241.156 C300.917,241.156 298.354,242.906 296.812,246.406 C295.812,248.677 295.312,251.479 295.312,254.813 C295.312,258.167 296.021,260.99 297.438,263.281 C298.854,265.573 301.083,266.719 304.125,266.719 C306.458,266.719 308.307,266.005 309.672,264.578 C311.036,263.151 311.979,261.198 312.5,258.719 L317.969,258.719 C317.344,263.156 315.781,266.401 313.281,268.453 C310.781,270.505 307.583,271.531 303.688,271.531 C299.312,271.531 295.823,269.932 293.219,266.734 C290.615,263.536 289.312,259.542 289.312,254.75 C289.312,248.875 290.74,244.302 293.594,241.031 C296.448,237.76 300.083,236.125 304.5,236.125 C308.271,236.125 311.339,237.042 313.703,238.875 M329.688,265.5 C330.875,266.438 332.281,266.906 333.906,266.906 C335.885,266.906 337.802,266.448 339.656,265.531 C342.781,264.01 344.344,261.521 344.344,258.063 L344.344,253.531 C343.656,253.969 342.771,254.333 341.688,254.625 C340.604,254.917 339.542,255.125 338.5,255.25 L335.094,255.688 C333.052,255.958 331.521,256.385 330.5,256.969 C328.771,257.948 327.906,259.51 327.906,261.656 C327.906,263.281 328.5,264.563 329.688,265.5 M341.531,250.281 C342.823,250.115 343.688,249.573 344.125,248.656 C344.375,248.156 344.5,247.438 344.5,246.5 C344.5,244.583 343.818,243.193 342.453,242.328 C341.089,241.464 339.135,241.031 336.594,241.031 C333.656,241.031 331.573,241.823 330.344,243.406 C329.656,244.281 329.208,245.583 329,247.313 L323.75,247.313 C323.854,243.188 325.193,240.318 327.766,238.703 C330.339,237.089 333.323,236.281 336.719,236.281 C340.656,236.281 343.854,237.031 346.312,238.531 C348.75,240.031 349.969,242.365 349.969,245.531 L349.969,264.813 C349.969,265.396 350.089,265.865 350.328,266.219 C350.568,266.573 351.073,266.75 351.844,266.75 C352.094,266.75 352.375,266.734 352.688,266.703 C353,266.672 353.333,266.625 353.688,266.563 L353.688,270.719 C352.812,270.969 352.146,271.125 351.688,271.188 C351.229,271.25 350.604,271.281 349.812,271.281 C347.875,271.281 346.469,270.594 345.594,269.219 C345.135,268.49 344.812,267.458 344.625,266.125 C343.479,267.625 341.833,268.927 339.688,270.031 C337.542,271.135 335.177,271.688 332.594,271.688 C329.49,271.688 326.953,270.745 324.984,268.859 C323.016,266.974 322.031,264.615 322.031,261.781 C322.031,258.677 323,256.271 324.938,254.563 C326.875,252.854 329.417,251.802 332.562,251.406 L341.531,250.281 M359.344,224.656 L364.969,224.656 L364.969,270.563 L359.344,270.563 L359.344,224.656 M373.562,224.656 L379.188,224.656 L379.188,270.563 L373.562,270.563 L373.562,224.656 M291.594,288.5 L297.219,288.5 L297.219,305.625 C298.552,303.938 299.75,302.75 300.812,302.063 C302.625,300.875 304.885,300.281 307.594,300.281 C312.448,300.281 315.74,301.979 317.469,305.375 C318.406,307.229 318.875,309.802 318.875,313.094 L318.875,334.563 L313.094,334.563 L313.094,313.469 C313.094,311.01 312.781,309.208 312.156,308.063 C311.135,306.229 309.219,305.313 306.406,305.313 C304.073,305.313 301.958,306.115 300.062,307.719 C298.167,309.323 297.219,312.354 297.219,316.813 L297.219,334.563 L291.594,334.563 L291.594,288.5 M327.188,301.25 L332.906,301.25 L332.906,334.563 L327.188,334.563 L327.188,301.25 M327.188,288.656 L332.906,288.656 L332.906,295.031 L327.188,295.031 L327.188,288.656 M341.406,301.094 L346.969,301.094 L346.969,305.844 C348.302,304.198 349.51,303 350.594,302.25 C352.448,300.979 354.552,300.344 356.906,300.344 C359.573,300.344 361.719,301 363.344,302.313 C364.26,303.063 365.094,304.167 365.844,305.625 C367.094,303.833 368.562,302.505 370.25,301.641 C371.938,300.776 373.833,300.344 375.938,300.344 C380.438,300.344 383.5,301.969 385.125,305.219 C386,306.969 386.438,309.323 386.438,312.281 L386.438,334.563 L380.594,334.563 L380.594,311.313 C380.594,309.083 380.036,307.552 378.922,306.719 C377.807,305.885 376.448,305.469 374.844,305.469 C372.635,305.469 370.734,306.208 369.141,307.688 C367.547,309.167 366.75,311.635 366.75,315.094 L366.75,334.563 L361.031,334.563 L361.031,312.719 C361.031,310.448 360.76,308.792 360.219,307.75 C359.365,306.188 357.771,305.406 355.438,305.406 C353.312,305.406 351.38,306.229 349.641,307.875 C347.901,309.521 347.031,312.5 347.031,316.813 L347.031,334.563 L341.406,334.563 L341.406,301.094 M313.688,373.688 C316.604,373.688 318.911,373.104 320.609,371.938 C322.307,370.771 323.156,368.667 323.156,365.625 C323.156,362.354 321.969,360.125 319.594,358.938 C318.323,358.313 316.625,358 314.5,358 L299.312,358 L299.312,373.688 L313.688,373.688 M293.094,352.656 L314.344,352.656 C317.844,352.656 320.729,353.167 323,354.188 C327.312,356.146 329.469,359.76 329.469,365.031 C329.469,367.781 328.901,370.031 327.766,371.781 C326.63,373.531 325.042,374.938 323,376 C324.792,376.729 326.141,377.688 327.047,378.875 C327.953,380.063 328.458,381.99 328.562,384.656 L328.781,390.813 C328.844,392.563 328.99,393.865 329.219,394.719 C329.594,396.177 330.26,397.115 331.219,397.531 L331.219,398.563 L323.594,398.563 C323.385,398.167 323.219,397.656 323.094,397.031 C322.969,396.406 322.865,395.198 322.781,393.406 L322.406,385.75 C322.26,382.75 321.146,380.74 319.062,379.719 C317.875,379.156 316.01,378.875 313.469,378.875 L299.312,378.875 L299.312,398.563 L293.094,398.563 L293.094,352.656 M358.766,390.703 C360.151,387.88 360.844,384.74 360.844,381.281 C360.844,378.156 360.344,375.615 359.344,373.656 C357.76,370.573 355.031,369.031 351.156,369.031 C347.719,369.031 345.219,370.344 343.656,372.969 C342.094,375.594 341.312,378.76 341.312,382.469 C341.312,386.031 342.094,389 343.656,391.375 C345.219,393.75 347.698,394.938 351.094,394.938 C354.823,394.938 357.38,393.526 358.766,390.703 M362.25,368.438 C365.229,371.313 366.719,375.542 366.719,381.125 C366.719,386.521 365.406,390.979 362.781,394.5 C360.156,398.021 356.083,399.781 350.562,399.781 C345.958,399.781 342.302,398.224 339.594,395.109 C336.885,391.995 335.531,387.813 335.531,382.563 C335.531,376.938 336.958,372.458 339.812,369.125 C342.667,365.792 346.5,364.125 351.312,364.125 C355.625,364.125 359.271,365.563 362.25,368.438 M395.516,366.875 C397.88,368.708 399.302,371.865 399.781,376.344 L394.312,376.344 C393.979,374.281 393.219,372.568 392.031,371.203 C390.844,369.839 388.938,369.156 386.312,369.156 C382.729,369.156 380.167,370.906 378.625,374.406 C377.625,376.677 377.125,379.479 377.125,382.813 C377.125,386.167 377.833,388.99 379.25,391.281 C380.667,393.573 382.896,394.719 385.938,394.719 C388.271,394.719 390.12,394.005 391.484,392.578 C392.849,391.151 393.792,389.198 394.312,386.719 L399.781,386.719 C399.156,391.156 397.594,394.401 395.094,396.453 C392.594,398.505 389.396,399.531 385.5,399.531 C381.125,399.531 377.635,397.932 375.031,394.734 C372.427,391.536 371.125,387.542 371.125,382.75 C371.125,376.875 372.552,372.302 375.406,369.031 C378.26,365.76 381.896,364.125 386.312,364.125 C390.083,364.125 393.151,365.042 395.516,366.875 M405.281,352.656 L410.688,352.656 L410.688,379.313 L425.125,365.094 L432.312,365.094 L419.5,377.625 L433.031,398.563 L425.844,398.563 L415.406,381.688 L410.688,386 L410.688,398.563 L405.281,398.563 L405.281,352.656 M458.25,366.016 C460.479,367.13 462.177,368.573 463.344,370.344 C464.469,372.031 465.219,374 465.594,376.25 C465.927,377.792 466.094,380.25 466.094,383.625 L441.562,383.625 C441.667,387.021 442.469,389.745 443.969,391.797 C445.469,393.849 447.792,394.875 450.938,394.875 C453.875,394.875 456.219,393.906 457.969,391.969 C458.969,390.844 459.677,389.542 460.094,388.063 L465.625,388.063 C465.479,389.292 464.995,390.661 464.172,392.172 C463.349,393.682 462.427,394.917 461.406,395.875 C459.698,397.542 457.583,398.667 455.062,399.25 C453.708,399.583 452.177,399.75 450.469,399.75 C446.302,399.75 442.771,398.234 439.875,395.203 C436.979,392.172 435.531,387.927 435.531,382.469 C435.531,377.094 436.99,372.729 439.906,369.375 C442.823,366.021 446.635,364.344 451.344,364.344 C453.719,364.344 456.021,364.901 458.25,366.016 M460.312,379.156 C460.083,376.719 459.552,374.771 458.719,373.313 C457.177,370.604 454.604,369.25 451,369.25 C448.417,369.25 446.25,370.182 444.5,372.047 C442.75,373.911 441.823,376.281 441.719,379.156 L460.312,379.156 M474.125,355.75 L479.812,355.75 L479.812,365.094 L485.156,365.094 L485.156,369.688 L479.812,369.688 L479.812,391.531 C479.812,392.698 480.208,393.479 481,393.875 C481.438,394.104 482.167,394.219 483.188,394.219 C483.458,394.219 483.75,394.214 484.062,394.203 C484.375,394.193 484.74,394.167 485.156,394.125 L485.156,398.563 C484.51,398.75 483.839,398.885 483.141,398.969 C482.443,399.052 481.688,399.094 480.875,399.094 C478.25,399.094 476.469,398.422 475.531,397.078 C474.594,395.734 474.125,393.99 474.125,391.844 L474.125,369.688 L469.594,369.688 L469.594,365.094 L474.125,365.094 L474.125,355.75 M309.594,436.063 C312.219,436.063 314.26,435.698 315.719,434.969 C318.01,433.823 319.156,431.76 319.156,428.781 C319.156,425.781 317.938,423.76 315.5,422.719 C314.125,422.135 312.083,421.844 309.375,421.844 L298.281,421.844 L298.281,436.063 L309.594,436.063 M311.688,457.25 C315.5,457.25 318.219,456.146 319.844,453.938 C320.865,452.542 321.375,450.854 321.375,448.875 C321.375,445.542 319.885,443.271 316.906,442.063 C315.323,441.417 313.229,441.094 310.625,441.094 L298.281,441.094 L298.281,457.25 L311.688,457.25 M292.188,416.656 L311.906,416.656 C317.281,416.656 321.104,418.26 323.375,421.469 C324.708,423.365 325.375,425.552 325.375,428.031 C325.375,430.927 324.552,433.302 322.906,435.156 C322.052,436.135 320.823,437.031 319.219,437.844 C321.573,438.74 323.333,439.75 324.5,440.875 C326.562,442.875 327.594,445.635 327.594,449.156 C327.594,452.115 326.667,454.792 324.812,457.188 C322.042,460.771 317.635,462.563 311.594,462.563 L292.188,462.563 L292.188,416.656 M355.234,454.703 C356.62,451.88 357.312,448.74 357.312,445.281 C357.312,442.156 356.812,439.615 355.812,437.656 C354.229,434.573 351.5,433.031 347.625,433.031 C344.188,433.031 341.688,434.344 340.125,436.969 C338.562,439.594 337.781,442.76 337.781,446.469 C337.781,450.031 338.562,453 340.125,455.375 C341.688,457.75 344.167,458.938 347.562,458.938 C351.292,458.938 353.849,457.526 355.234,454.703 M358.719,432.438 C361.698,435.313 363.188,439.542 363.188,445.125 C363.188,450.521 361.875,454.979 359.25,458.5 C356.625,462.021 352.552,463.781 347.031,463.781 C342.427,463.781 338.771,462.224 336.062,459.109 C333.354,455.995 332,451.813 332,446.563 C332,440.938 333.427,436.458 336.281,433.125 C339.135,429.792 342.969,428.125 347.781,428.125 C352.094,428.125 355.74,429.563 358.719,432.438 M369.438,416.5 L374.906,416.5 L374.906,433.156 C376.135,431.552 377.604,430.328 379.312,429.484 C381.021,428.641 382.875,428.219 384.875,428.219 C389.042,428.219 392.422,429.651 395.016,432.516 C397.609,435.38 398.906,439.604 398.906,445.188 C398.906,450.479 397.625,454.875 395.062,458.375 C392.5,461.875 388.948,463.625 384.406,463.625 C381.865,463.625 379.719,463.01 377.969,461.781 C376.927,461.052 375.812,459.885 374.625,458.281 L374.625,462.563 L369.438,462.563 L369.438,416.5 M390.891,455.031 C392.401,452.615 393.156,449.427 393.156,445.469 C393.156,441.948 392.401,439.031 390.891,436.719 C389.38,434.406 387.156,433.25 384.219,433.25 C381.656,433.25 379.411,434.198 377.484,436.094 C375.557,437.99 374.594,441.115 374.594,445.469 C374.594,448.615 374.99,451.167 375.781,453.125 C377.26,456.813 380.021,458.656 384.062,458.656 C387.104,458.656 389.38,457.448 390.891,455.031 M420.281,415.906 C417.01,422.26 414.885,426.938 413.906,429.938 C412.427,434.5 411.688,439.771 411.688,445.75 C411.688,451.792 412.531,457.313 414.219,462.313 C415.26,465.396 417.312,469.833 420.375,475.625 L416.594,475.625 C413.552,470.875 411.667,467.844 410.938,466.531 C410.208,465.219 409.417,463.438 408.562,461.188 C407.396,458.104 406.583,454.813 406.125,451.313 C405.896,449.5 405.781,447.771 405.781,446.125 C405.781,439.958 406.75,434.469 408.688,429.656 C409.917,426.594 412.479,422.01 416.375,415.906 L420.281,415.906 M424.875,475.625 C428.188,469.167 430.323,464.458 431.281,461.5 C432.74,457.021 433.469,451.771 433.469,445.75 C433.469,439.729 432.625,434.219 430.938,429.219 C429.896,426.135 427.844,421.698 424.781,415.906 L428.562,415.906 C431.771,421.031 433.714,424.193 434.391,425.391 C435.068,426.589 435.802,428.24 436.594,430.344 C437.594,432.948 438.307,435.521 438.734,438.063 C439.161,440.604 439.375,443.052 439.375,445.406 C439.375,451.573 438.396,457.073 436.438,461.906 C435.208,465.01 432.656,469.583 428.781,475.625 L424.875,475.625 Z" style="stroke:none;fill-rule:nonzero;fill:#252525;fill-opacity:1;"/>
        </g>
    </g>

</svg>
