<svg version="1.1"
    xmlns="http://www.w3.org/2000/svg"
    xmlns:xlink="http://www.w3.org/1999/xlink" width="512" height="512" viewBox="0 0 512 512">
    <title>sizes icon</title>
    <desc>sizes icon from the IconExperience.com G-Collection. Copyright by INCORS GmbH (www.incors.com).</desc>
    <defs>
        <linearGradient x1="288" y1="0" x2="502.2595" y2="204.5217" gradientUnits="userSpaceOnUse" id="color-1">
            <stop offset="0" stop-color="#89cff7"/>
            <stop offset="1" stop-color="#4eb6f2"/>
        </linearGradient>
        <linearGradient x1="288" y1="96" x2="416.0005" y2="224.0005" gradientUnits="userSpaceOnUse" id="color-2">
            <stop offset="0" stop-color="#6fc4f5"/>
            <stop offset="0.70196" stop-color="#4eb6f2"/>
            <stop offset="1" stop-color="#36acf0"/>
        </linearGradient>
        <linearGradient x1="144" y1="64" x2="418.783" y2="306.7815" gradientUnits="userSpaceOnUse" id="color-3">
            <stop offset="0" stop-color="#4eb6f2"/>
            <stop offset="1" stop-color="#129eee"/>
        </linearGradient>
        <linearGradient x1="144" y1="176" x2="278.9455" y2="367.9995" gradientUnits="userSpaceOnUse" id="color-4">
            <stop offset="0" stop-color="#26a6ef"/>
            <stop offset="0.43922" stop-color="#129eee"/>
            <stop offset="1" stop-color="#1192dc"/>
        </linearGradient>
        <linearGradient x1="0" y1="144" x2="352.0009" y2="480.0005" gradientUnits="userSpaceOnUse" id="color-5">
            <stop offset="0" stop-color="#129eee"/>
            <stop offset="1" stop-color="#0e76b2"/>
        </linearGradient>
    </defs>
    <g fill="none" fill-rule="evenodd" stroke="none" stroke-width="1" stroke-linecap="butt" stroke-linejoin="miter" stroke-miterlimit="10" stroke-dasharray="" stroke-dashoffset="0" font-family="none" font-weight="none" text-anchor="none" style="mix-blend-mode: normal" transform="translate(512,0) scale(-1.0,1.0)">
        <path d="M304,0l192,0c9,0 16,7 16,16l0,192c0,9 -7,16 -16,16l-192,0c-9,0 -16,-7 -16,-16l0,-192c0,-9 7,-16 16,-16z" id="curve4" fill="url(#color-1)"/>
        <path d="M448,96l-160,0l0,112c0,9 7,16 16,16l160,0l0,-112c0,-9 -7,-16 -16,-16z" id="curve3" fill="url(#color-2)"/>
        <path d="M432,64l-272,0c-9,0 -16,7 -16,16l0,272c0,9 7,16 16,16l272,0c9,0 16,-7 16,-16l0,-272c0,-9 -7,-16 -16,-16z" id="curve2" fill="url(#color-3)"/>
        <path d="M144,176l0,176c0,9 7,16 16,16l224,0l0,-176c0,-9 -7,-16 -16,-16z" id="curve1" fill="url(#color-4)"/>
        <path d="M16,144l336,0c9,0 16,7 16,16l0,336c0,9 -7,16 -16,16l-336,0c-9,0 -16,-7 -16,-16l0,-336c0,-9 7,-16 16,-16z" id="curve0" fill="url(#color-5)"/>
    </g>
</svg>
