<svg version="1.1"
    xmlns="http://www.w3.org/2000/svg"
    xmlns:xlink="http://www.w3.org/1999/xlink" width="512" height="512" viewBox="0 0 512 512">
    <title>mouse icon</title>
    <desc>mouse icon from the IconExperience.com G-Collection. Copyright by INCORS GmbH (www.incors.com).</desc>
    <defs>
        <linearGradient x1="64" y1="0" x2="448" y2="0" gradientUnits="userSpaceOnUse" id="color-1">
            <stop offset="0" stop-color="#1ca2ef"/>
            <stop offset="0.32941" stop-color="#42b1f2"/>
            <stop offset="0.74902" stop-color="#129eee"/>
            <stop offset="1" stop-color="#0f7cbb"/>
        </linearGradient>
        <linearGradient x1="80" y1="16" x2="204.445" y2="176.0003" gradientUnits="userSpaceOnUse" id="color-2">
            <stop offset="0" stop-color="#d0ebfc"/>
            <stop offset="1" stop-color="#e5f4fd"/>
        </linearGradient>
        <linearGradient x1="272" y1="16" x2="396.4445" y2="176.0003" gradientUnits="userSpaceOnUse" id="color-3">
            <stop offset="0" stop-color="#dcf0fc"/>
            <stop offset="1" stop-color="#f1f9fd"/>
        </linearGradient>
    </defs>
    <g fill="none" fill-rule="evenodd" stroke="none" stroke-width="1" stroke-linecap="butt" stroke-linejoin="miter" stroke-miterlimit="10" stroke-dasharray="" stroke-dashoffset="0" font-family="none" font-weight="none" text-anchor="none" style="mix-blend-mode: normal">
        <path d="M448,96l0,224c0,106 -86,192 -192,192c-106,0 -192,-86 -192,-192l0,-224c0,-53 43,-96 96,-96c64,0 128,0 192,0c53,0 96,43 96,96z" id="curve2" fill="url(#color-1)"/>
        <path d="M80,176l160,0l0,-160l-80,0c-44,0 -80,36 -80,80z" id="curve1" fill="url(#color-2)"/>
        <path d="M272,176l160,0l0,-80c0,-44 -36,-80 -80,-80l-80,0z" id="curve0" fill="url(#color-3)"/>
    </g>
</svg>