<svg version="1.1"
    xmlns="http://www.w3.org/2000/svg"
    xmlns:xlink="http://www.w3.org/1999/xlink" width="512" height="512" viewBox="0 0 512 512">
    <title>code ruby icon</title>
    <desc>code ruby icon from the IconExperience.com G-Collection. Copyright by INCORS GmbH (www.incors.com).</desc>
    <defs>
        <linearGradient x1="64" y1="0" x2="374.8575" y2="512.00059" gradientUnits="userSpaceOnUse" id="color-1">
            <stop offset="0" stop-color="#f3fafe"/>
            <stop offset="1" stop-color="#c7e8fb"/>
        </linearGradient>
        <linearGradient x1="112" y1="32" x2="254.181" y2="303.99985" gradientUnits="userSpaceOnUse" id="color-2">
            <stop offset="0" stop-color="#8795a5"/>
            <stop offset="1" stop-color="#768494"/>
        </linearGradient>
        <linearGradient x1="64" y1="336" x2="265.143" y2="512.0005" gradientUnits="userSpaceOnUse" id="color-3">
            <stop offset="0" stop-color="#f37e75"/>
            <stop offset="0.76078" stop-color="#ef5c51"/>
            <stop offset="1" stop-color="#e75449"/>
        </linearGradient>
        <linearGradient x1="133.5" y1="379.5" x2="246.19" y2="481.632" gradientUnits="userSpaceOnUse" id="color-4">
            <stop offset="0" stop-color="#ffffff"/>
            <stop offset="1" stop-color="#f0f3f6"/>
        </linearGradient>
    </defs>
    <g fill="none" fill-rule="evenodd" stroke="none" stroke-width="1" stroke-linecap="butt" stroke-linejoin="miter" stroke-miterlimit="10" stroke-dasharray="" stroke-dashoffset="0" font-family="none" font-weight="none" text-anchor="none" style="mix-blend-mode: normal">
        <path d="M64,0l384,0l0,512l-384,0z" id="curve3" fill="url(#color-1)"/>
        <path d="M112,32l112,0l0,16l-112,0z M112,288l160,0l0,16l-160,0z M160,192l112,0l0,16l-112,0z M112,256l112,0l0,16l-112,0z M160,224l144,0l0,16l-144,0z M160,160l112,0l0,16l-112,0z M224,128l112,0l0,16l-112,0z M224,96l192,0l0,16l-192,0z M160,64l176,0l0,16l-176,0z" id="curve2" fill="url(#color-2)"/>
        <path d="M64,336l384,0l0,176l-384,0z" id="curve1" fill="url(#color-3)"/>
        <path d="M163,435l-10.5,0l0,28l-19,0l0,-79l31.5,0c9,0 16.5,2 21.5,6c5.5,4.5 8,10.5 8,18c0,5.5 -1,10 -3,13.5c-2.5,3.5 -6,6.5 -10.5,9l16.5,31.5l0,1l-20.5,0z M152.5,420.5l12.5,0c3.5,0 6,-1 8,-3c1.5,-2 2.5,-4.5 2.5,-8c0,-3.5 -1,-6 -2.5,-8c-2,-2 -4.5,-3 -8,-3l-12.5,0z M240,456.5c-3.5,5 -9,7.5 -15.5,7.5c-6.5,0 -11.5,-2 -14.5,-5.5c-3.5,-4 -5,-9 -5,-16l0,-38l18,0l0,38c0,5 2.5,7.5 7.5,7.5c4,0 7,-1.5 9,-4.5l0,-41l18.5,0l0,58.5l-17.5,0z M322.5,434c0,9.5 -2,17 -6,22c-4,5.5 -10,8 -17,8c-6,0 -10.5,-2.5 -14.5,-7l-0.5,6l-16.5,0l0,-83.5l18.5,0l0,29.5c3,-4 7.5,-6 13,-6c7,0 13,3 17,8c4,5.5 6,12.5 6,22z M304,433c0,-5.5 -1,-9.5 -2.5,-12c-1.5,-2.5 -3.5,-3.5 -6.5,-3.5c-4.5,0 -7,1.5 -8.5,4.5l0,23c1.5,3.5 4,5 8.5,5c4,0 7,-2 8,-6.5c0.5,-2 1,-5.5 1,-10.5z M353,437.5l10,-33l19.5,0l-24,68l-1,2.5c-3.5,7.5 -9.5,11.5 -18,11.5c-2.5,0 -5,-0.5 -7.5,-1l0,-13l2.5,0c2.5,0 4.5,-0.5 6,-1c1,-1 2,-2.5 3,-4l1.5,-4l-20.5,-59l19.5,0z" id="curve0" fill="url(#color-4)"/>
    </g>
</svg>