<svg version="1.1"
    xmlns="http://www.w3.org/2000/svg"
    xmlns:xlink="http://www.w3.org/1999/xlink" width="512" height="512" viewBox="0 0 512 512">
    <title>code c icon</title>
    <desc>code c icon from the IconExperience.com G-Collection. Copyright by INCORS GmbH (www.incors.com).</desc>
    <defs>
        <linearGradient x1="64" y1="0" x2="374.8575" y2="512.00059" gradientUnits="userSpaceOnUse" id="color-1">
            <stop offset="0" stop-color="#f3fafe"/>
            <stop offset="1" stop-color="#c7e8fb"/>
        </linearGradient>
        <linearGradient x1="112" y1="32" x2="254.1805" y2="303.99985" gradientUnits="userSpaceOnUse" id="color-2">
            <stop offset="0" stop-color="#8694a4"/>
            <stop offset="1" stop-color="#788696"/>
        </linearGradient>
        <linearGradient x1="64" y1="336" x2="265.143" y2="512.0005" gradientUnits="userSpaceOnUse" id="color-3">
            <stop offset="0" stop-color="#f37e75"/>
            <stop offset="0.76078" stop-color="#ef5c51"/>
            <stop offset="1" stop-color="#e75449"/>
        </linearGradient>
        <linearGradient x1="222" y1="383" x2="287" y2="441.91" gradientUnits="userSpaceOnUse" id="color-4">
            <stop offset="0" stop-color="#ffffff"/>
            <stop offset="1" stop-color="#edf1f4"/>
        </linearGradient>
    </defs>
    <g fill="none" fill-rule="evenodd" stroke="none" stroke-width="1" stroke-linecap="butt" stroke-linejoin="miter" stroke-miterlimit="10" stroke-dasharray="" stroke-dashoffset="0" font-family="none" font-weight="none" text-anchor="none" style="mix-blend-mode: normal">
        <path d="M64,0l384,0l0,512l-384,0z" id="curve3" fill="url(#color-1)"/>
        <path d="M112,32l112,0l0,16l-112,0z M112,288l160,0l0,16l-160,0z M160,192l112,0l0,16l-112,0z M112,256l112,0l0,16l-112,0z M160,224l144,0l0,16l-144,0z M160,160l112,0l0,16l-112,0z M224,128l112,0l0,16l-112,0z M224,96l192,0l0,16l-192,0z M160,64l176,0l0,16l-176,0z" id="curve2" fill="url(#color-2)"/>
        <path d="M64,336l384,0l0,176l-384,0z" id="curve1" fill="url(#color-3)"/>
        <path d="M288.5,436c-0.5,5.5 -2,10.5 -4.5,15c-3,4 -6.5,7 -11.5,9.5c-5,2.5 -10.5,3.5 -17,3.5c-10,0 -18.5,-3.5 -24.5,-10c-6,-7 -9,-16.5 -9,-28.5l0,-4c0,-8 1.5,-14.5 4.5,-20.5c2.5,-5.5 6.5,-10 11.5,-13.5c5,-3 11,-4.5 17.5,-4.5c9.5,0 17,2.5 23,7.5c6,5 9,12 10,21l-19,0c0,-5 -1.5,-8.5 -3.5,-10.5c-2.5,-2 -6,-3 -10.5,-3c-5,0 -8,1.5 -10.5,5c-2,3.5 -3.5,9.5 -3.5,17l0,5.5c0,8.5 1,14.5 3.5,18c2,4 5.5,5.5 10.5,5.5c4.5,0 8,-1 10,-3c2.5,-2 3.5,-5.5 4,-10z" id="curve0" fill="url(#color-4)"/>
    </g>
</svg>