<svg version="1.1"
    xmlns="http://www.w3.org/2000/svg"
    xmlns:xlink="http://www.w3.org/1999/xlink" width="512" height="512" viewBox="0 0 512 512">
    <title>code vbasic icon</title>
    <desc>code vbasic icon from the IconExperience.com G-Collection. Copyright by INCORS GmbH (www.incors.com).</desc>
    <defs>
        <linearGradient x1="64" y1="0" x2="374.8575" y2="512.00059" gradientUnits="userSpaceOnUse" id="color-1">
            <stop offset="0" stop-color="#f3fafe"/>
            <stop offset="1" stop-color="#c7e8fb"/>
        </linearGradient>
        <linearGradient x1="112" y1="32" x2="254.1805" y2="303.99985" gradientUnits="userSpaceOnUse" id="color-2">
            <stop offset="0" stop-color="#8694a4"/>
            <stop offset="1" stop-color="#788696"/>
        </linearGradient>
        <linearGradient x1="64" y1="336" x2="244.513" y2="512.0005" gradientUnits="userSpaceOnUse" id="color-3">
            <stop offset="0" stop-color="#60af1f"/>
            <stop offset="1" stop-color="#4f9019"/>
        </linearGradient>
        <linearGradient x1="78.5" y1="380" x2="167.833" y2="460.9625" gradientUnits="userSpaceOnUse" id="color-4">
            <stop offset="0" stop-color="#ffffff"/>
            <stop offset="1" stop-color="#f5f7f9"/>
        </linearGradient>
    </defs>
    <g fill="none" fill-rule="evenodd" stroke="none" stroke-width="1" stroke-linecap="butt" stroke-linejoin="miter" stroke-miterlimit="10" stroke-dasharray="" stroke-dashoffset="0" font-family="none" font-weight="none" text-anchor="none" style="mix-blend-mode: normal">
        <path d="M64,0l384,0l0,512l-384,0z" id="curve3" fill="url(#color-1)"/>
        <path d="M112,32l112,0l0,16l-112,0z M112,288l160,0l0,16l-160,0z M160,192l112,0l0,16l-112,0z M112,256l112,0l0,16l-112,0z M160,224l144,0l0,16l-144,0z M160,160l112,0l0,16l-112,0z M224,128l112,0l0,16l-112,0z M224,96l192,0l0,16l-192,0z M160,64l176,0l0,16l-176,0z" id="curve2" fill="url(#color-2)"/>
        <path d="M64,336l384,0l0,176l-384,0z" id="curve1" fill="url(#color-3)"/>
        <path d="M115,441.5l16,-57.5l21,0l-26.5,79l-20.5,0l-26.5,-79l21,0z M162,463l0,-79l28,0c10,0 18,2 23.5,5.5c5,4 7.5,9 7.5,16.5c0,4 -0.5,7.5 -2.5,10.5c-2,2.5 -5,5 -8.5,6c4,1.5 7.5,3.5 9.5,6c2.5,3 3.5,7 3.5,11c0,8 -2.5,13.5 -7.5,17.5c-5,4 -12,6 -21.5,6z M181,429.5l0,18.5l12,0c3.5,0 6.5,-0.5 8,-2c2,-1.5 3,-4 3,-6.5c0,-6.5 -3.5,-10 -10,-10z M181,417l9.5,0c4.5,0 7.5,-1 9,-2.5c2,-1.5 2.5,-3.5 2.5,-6.5c0,-3.5 -0.5,-5.5 -2.5,-7c-2,-1.5 -5,-2.5 -9.5,-2.5l-9,0z M267.5,463c-0.5,-1.5 -1.5,-3 -2,-5.5c-3,4.5 -8,6.5 -14,6.5c-5.5,0 -10,-1.5 -14,-5c-4,-3.5 -5.5,-7.5 -5.5,-12.5c0,-6.5 2,-11.5 7,-14.5c4.5,-3.5 11.5,-5 20.5,-5l5.5,0l0,-3c0,-5.5 -2.5,-8 -7,-8c-4.5,0 -6.5,2 -6.5,6.5l-18.5,0c0,-6 2.5,-10.5 7.5,-14c4.5,-3.5 11,-5.5 18.5,-5.5c7.5,0 13,2 17.5,5.5c4.5,4 6.5,9 6.5,15l0,26c0.5,5.5 1,9.5 2.5,12.5l0,1z M256,451c2.5,0 4,-0.5 5.5,-1.5c1.5,-1 3,-2 3.5,-3.5l0,-9l-5.5,0c-6,0 -9.5,2.5 -9.5,8.5c0,1.5 0.5,3 2,4c1,1 2.5,1.5 4,1.5z M324,446.5c0,-1.5 -1,-3 -2.5,-4c-1.5,-0.5 -4.5,-1.5 -9,-2.5c-4.5,-1 -8.5,-2.5 -11.5,-4c-3,-2 -5,-4 -6.5,-6c-2,-2.5 -2.5,-5 -2.5,-8.5c0,-5 2,-9.5 6.5,-13c4.5,-3.5 10.5,-5.5 17.5,-5.5c8,0 14,2 18.5,5.5c5,3.5 7,8 7,13.5l-18,0c0,-4.5 -2.5,-7 -7.5,-7c-2,0 -3.5,0.5 -5,2c-1,1 -2,2 -2,4c0,1.5 1,2.5 2.5,3.5c1.5,1.5 4,2 7.5,3c3.5,0.5 7,1 9.5,2c8.5,3 13,8.5 13,16.5c0,5 -2,9.5 -7,13c-4.5,3.5 -11,5 -18.5,5c-5,0 -9.5,-1 -13.5,-2.5c-4,-2 -7,-4.5 -9,-7.5c-2.5,-3 -3.5,-6.5 -3.5,-10l17,0c0.5,3 1,5 3,6c1.5,1.5 4,2 6.5,2c2.5,0 4.5,-0.5 5.5,-1.5c1.5,-1 2,-2.5 2,-4z M369.5,463l-18.5,0l0,-58.5l18.5,0z M350,389c0,-2.5 1,-4.5 3,-6.5c1.5,-1.5 4,-2.5 7,-2.5c3,0 5.5,1 7.5,2.5c2,2 3,4 3,6.5c0,3 -1,5 -3,6.5c-2,2 -4.5,2.5 -7.5,2.5c-3,0 -5.5,-0.5 -7,-2.5c-2,-1.5 -3,-3.5 -3,-6.5z M405.5,450c2.5,0 4.5,-1 6,-2c1.5,-1.5 2,-3.5 2,-6l17,0c0,6.5 -2,11.5 -7,16c-4.5,4 -10.5,6 -17.5,6c-8.5,0 -15.5,-2.5 -20,-8c-5,-5.5 -7.5,-13 -7.5,-22l0,-1c0,-6 1,-11 3,-15.5c2.5,-4.5 5.5,-8 9.5,-10.5c4,-2.5 9,-4 15,-4c7.5,0 13.5,2.5 18,6.5c4.5,4.5 6.5,10 6.5,17l-17,0c0,-3 -0.5,-5 -2,-7c-1.5,-1.5 -3.5,-2 -6,-2c-5,0 -7.5,3 -8.5,9c0,2 -0.5,4.5 -0.5,7.5c0,6 1,10 2.5,12.5c1,2.5 3.5,3.5 6.5,3.5z" id="curve0" fill="url(#color-4)"/>
    </g>
</svg>