<svg version="1.1"
    xmlns="http://www.w3.org/2000/svg"
    xmlns:xlink="http://www.w3.org/1999/xlink" width="512" height="512" viewBox="0 0 512 512">
    <title>element icon</title>
    <desc>element icon from the IconExperience.com G-Collection. Copyright by INCORS GmbH (www.incors.com).</desc>
    <defs>
        <linearGradient x1="96" y1="128" x2="351.5735" y2="384.001" gradientUnits="userSpaceOnUse" id="color-1">
            <stop offset="0" stop-color="#4cb5f2"/>
            <stop offset="1" stop-color="#19a1ee"/>
        </linearGradient>
    </defs>
    <g fill="url(#color-1)" fill-rule="evenodd" stroke="#252525" stroke-width="10" stroke-linecap="butt" stroke-linejoin="round" stroke-miterlimit="10" stroke-dasharray="" stroke-dashoffset="0" font-family="none" font-weight="none" text-anchor="none" style="mix-blend-mode: normal">
        <path d="M112,128l288,0c9,0 16,7 16,16l0,224c0,9 -7,16 -16,16l-288,0c-9,0 -16,-7 -16,-16l0,-224c0,-9 7,-16 16,-16z" id="curve0"/>
    </g>


<g transform="translate(512,256) scale(-0.5,-0.5)">
    <g id="Layer1" name="Layer 4" opacity="1">
        <g id="Shape1">
            <desc shapeID="1" type="0" basicInfo-basicType="0" basicInfo-roundedRectRadius="12" basicInfo-polygonSides="6" basicInfo-starPoints="5" bounding="rect(-219.606,-171.14,439.212,342.28)" text="" font-familyName="Helvetica" font-pixelSize="36" font-bold="0" font-underline="0" font-alignment="0" strokeStyle="0" markerStart="0" markerEnd="0" shadowEnabled="0" shadowOffsetX="0" shadowOffsetY="2" shadowBlur="4" shadowOpacity="160" blurEnabled="0" blurRadius="4" transform="matrix(-1.02001,-2.07387e-10,-2.48622e-11,-1.30887,256.5,256.5)" pers-center="0,0" pers-size="0,0" pers-start="0,0" pers-end="0,0" locked="0" mesh="" flag=""/>
            <path id="shapePath1" d="M468.233,32.5 C389.411,128.684 366.959,160.5 250.367,160.5 L250.367,32.4999 L32.5001,256.5 L250.367,480.5 L250.367,352.5 C387.203,352.5 522.486,246.5 468.233,32.5 Z" style="stroke:url(#nestedLinearGradientStroke1);stroke-width:8;stroke-linejoin:miter;stroke-miterlimit:2;stroke-linecap:round;fill-rule:evenodd;fill:url(#nestedRadialGradientFill1);fill-opacity:1;"/><defs><linearGradient id="nestedLinearGradientStroke1" gradientUnits="userSpaceOnUse" x1="476.822" y1="256.5" x2="36.1783" y2="256.5"><stop offset="0" stop-color="#851313" stop-opacity="1"/><stop offset="1" stop-color="#851313" stop-opacity="1"/></linearGradient><radialGradient id="nestedRadialGradientFill1" gradientUnits="userSpaceOnUse" cx="116.395" cy="-87.5001" r="416.553" fx="221.486" fy="-135.5"><stop offset="0" stop-color="#c42e30" stop-opacity="1"/><stop offset="0.864404" stop-color="#cf3e3f" stop-opacity="1"/><stop offset="0.879142" stop-color="#b31e20" stop-opacity="1"/></radialGradient></defs>
        </g>
    </g>
</g>

</svg>
