<svg version="1.1"
    xmlns="http://www.w3.org/2000/svg"
    xmlns:xlink="http://www.w3.org/1999/xlink" width="512" height="512" viewBox="0 0 512 512">
    <title>printer icon</title>
    <desc>printer icon from the IconExperience.com G-Collection. Copyright by INCORS GmbH (www.incors.com).</desc>
    <defs>
        <linearGradient x1="80" y1="176" x2="104" y2="272.0005" gradientUnits="userSpaceOnUse" id="color-1">
            <stop offset="0" stop-color="#8c9baa"/>
            <stop offset="1" stop-color="#808e9e"/>
        </linearGradient>
        <linearGradient x1="112" y1="32" x2="310.6215" y2="320.00035" gradientUnits="userSpaceOnUse" id="color-2">
            <stop offset="0" stop-color="#f6fbfe"/>
            <stop offset="1" stop-color="#d2ecfc"/>
        </linearGradient>
        <linearGradient x1="144" y1="64" x2="248.3475" y2="224" gradientUnits="userSpaceOnUse" id="color-3">
            <stop offset="0" stop-color="#8998a7"/>
            <stop offset="1" stop-color="#7b8a99"/>
        </linearGradient>
        <linearGradient x1="0" y1="256" x2="0" y2="352" gradientUnits="userSpaceOnUse" id="color-4">
            <stop offset="0" stop-color="#3fb0f1"/>
            <stop offset="1" stop-color="#129eee"/>
        </linearGradient>
        <linearGradient x1="0" y1="336" x2="0" y2="480.0005" gradientUnits="userSpaceOnUse" id="color-5">
            <stop offset="0" stop-color="#1193de"/>
            <stop offset="1" stop-color="#0f7bba"/>
        </linearGradient>
    </defs>
    <g fill="none" fill-rule="evenodd" stroke="none" stroke-width="1" stroke-linecap="butt" stroke-linejoin="miter" stroke-miterlimit="10" stroke-dasharray="" stroke-dashoffset="0" font-family="none" font-weight="none" text-anchor="none" style="mix-blend-mode: normal">
        <path d="M96,176l320,0c9,0 16,7 16,16l0,80l-352,0l0,-80c0,-9 7,-16 16,-16z" id="curve9" fill="url(#color-1)"/>
        <path d="M112,32l288,0l0,288l-288,0z" id="curve8" fill="url(#color-2)"/>
        <path d="M144,64l224,0l0,16l-224,0z M144,112l224,0l0,16l-224,0z M144,160l224,0l0,16l-224,0z M144,208l128,0l0,16l-128,0z" id="curve7" fill="url(#color-3)"/>
        <path d="M64,256c118,0 266,0 384,0c35.5,0 64,29 64,64l0,160l-512,0l0,-160c0,-35.5 28.5,-64 64,-64z" id="curve6" fill="url(#color-4)"/>
        <path d="M0,336l512,0l0,144l-512,0z" id="curve5" fill="url(#color-5)"/>
        <path d="M96,384l320,0c9,0 16,7 16,16l0,80l-352,0l0,-80c0,-9 7,-16 16,-16z" id="curve4" fill="#36414a"/>
        <path d="M112,416l288,0l0,48l-288,0z" id="curve3" fill="#c5e7fb"/>
        <path d="M112,448l288,0l0,16l-288,0z" id="curve2" fill="#89cff7"/>
        <path d="M456,272c13.5,0 24,10.5 24,24c0,13.5 -10.5,24 -24,24c-13.5,0 -24,-10.5 -24,-24c0,-13.5 10.5,-24 24,-24z" id="curve1" fill="#77da26"/>
        <path d="M392,272c13.5,0 24,10.5 24,24c0,13.5 -10.5,24 -24,24c-13.5,0 -24,-10.5 -24,-24c0,-13.5 10.5,-24 24,-24z" id="curve0" fill="#ffffff"/>
    </g>
</svg>