<svg version="1.1"
    xmlns="http://www.w3.org/2000/svg"
    xmlns:xlink="http://www.w3.org/1999/xlink" width="512" height="512" viewBox="0 0 512 512">
    <title>object cube icon</title>
    <desc>object cube icon from the IconExperience.com G-Collection. Copyright by INCORS GmbH (www.incors.com).</desc>
    <defs>
        <linearGradient x1="32" y1="16" x2="420.0898" y2="427.9417" gradientUnits="userSpaceOnUse" id="color-1">
            <stop offset="0" stop-color="#fff822"/>
            <stop offset="0.32941" stop-color="#ffe041"/>
            <stop offset="1" stop-color="#f3dd24"/>
        </linearGradient>
        <linearGradient x1="32" y1="16" x2="254.33265" y2="227.57035" gradientUnits="userSpaceOnUse" id="color-2">
            <stop offset="0" stop-color="#f5d437"/>
            <stop offset="1" stop-color="#ead72c"/>
        </linearGradient>
        <linearGradient x1="256" y1="130" x2="258.206" y2="453.608" gradientUnits="userSpaceOnUse" id="color-3">
            <stop offset="0" stop-color="#f9d93b"/>
            <stop offset="1" stop-color="#cba00b"/>
        </linearGradient>
    </defs>
    <g fill="none" fill-rule="evenodd" stroke="#252525" stroke-width="10" stroke-linecap="butt" stroke-linejoin="round" stroke-miterlimit="10" stroke-dasharray="" stroke-dashoffset="0" font-family="none" font-weight="none" text-anchor="none" style="mix-blend-mode: normal">
        <path d="M32,128l224,-112l224,112l0,256l-224,112l-224,-112z" id="curve2" fill="url(#color-1)"/>
        <path d="M32,128l224,-112l224,112l-224,112z" id="curve1" fill="url(#color-2)"/>
        <path d="M480,130l-224,110l0,256l224,-112z" id="curve0" fill="url(#color-3)"/>
    </g>


<g transform="translate(256,0) scale(0.5,0.5)">
    <title>add icon</title>
    <desc>add icon from the IconExperience.com G-Collection. Copyright by INCORS GmbH (www.incors.com).</desc>
    <defs>
        <linearGradient x1="16" y1="16" x2="16" y2="496.0003" gradientUnits="userSpaceOnUse" id="a-color-1">
            <stop offset="0" stop-color="#77da26"/>
            <stop offset="1" stop-color="#59a31d"/>
        </linearGradient>
        <linearGradient x1="112" y1="112" x2="112" y2="400" gradientUnits="userSpaceOnUse" id="a-color-2">
            <stop offset="0" stop-color="#ffffff"/>
            <stop offset="1" stop-color="#e0e7ed"/>
        </linearGradient>
    </defs>
    <g fill="none" fill-rule="evenodd" stroke="none" stroke-width="1" stroke-linecap="butt" stroke-linejoin="miter" stroke-miterlimit="10" stroke-dasharray="" stroke-dashoffset="0" font-family="none" font-weight="none" text-anchor="none" style="mix-blend-mode: normal">
        <path d="M256,16c132.5,0 240,107.5 240,240c0,132.5 -107.5,240 -240,240c-132.5,0 -240,-107.5 -240,-240c0,-132.5 107.5,-240 240,-240z" id="curve1" fill="url(#a-color-1)"/>
        <path d="M112,224l112,0l0,-112l64,0l0,112l112,0l0,64l-112,0l0,112l-64,0l0,-112l-112,0z" id="curve0" fill="url(#a-color-2)"/>
    </g>
</g>

</svg>
