<svg version="1.1"
    xmlns="http://www.w3.org/2000/svg"
    xmlns:xlink="http://www.w3.org/1999/xlink" width="512" height="512" viewBox="0 0 512 512">
    <title>element icon</title>
    <desc>element icon from the IconExperience.com G-Collection. Copyright by INCORS GmbH (www.incors.com).</desc>
    <defs>
        <linearGradient x1="96" y1="128" x2="351.5735" y2="384.001" gradientUnits="userSpaceOnUse" id="color-1">
            <stop offset="0" stop-color="#4cb5f2"/>
            <stop offset="1" stop-color="#19a1ee"/>
        </linearGradient>
    </defs>
    <g fill="url(#color-1)" fill-rule="evenodd" stroke="#252525" stroke-width="10" stroke-linecap="butt" stroke-linejoin="round" stroke-miterlimit="10" stroke-dasharray="" stroke-dashoffset="0" font-family="none" font-weight="none" text-anchor="none" style="mix-blend-mode: normal">
        <path d="M112,128l288,0c9,0 16,7 16,16l0,224c0,9 -7,16 -16,16l-288,0c-9,0 -16,-7 -16,-16l0,-224c0,-9 7,-16 16,-16z" id="curve0"/>
    </g>


<g transform="translate(0,128) scale(0.5,0.5)">
    <g id="Layer1" name="Layer 4" opacity="1">
        <g id="Shape1">
            <desc shapeID="1" type="0" basicInfo-basicType="0" basicInfo-roundedRectRadius="12" basicInfo-polygonSides="6" basicInfo-starPoints="5" bounding="rect(-219.606,-171.14,439.212,342.28)" text="" font-familyName="Helvetica" font-pixelSize="36" font-bold="0" font-underline="0" font-alignment="0" strokeStyle="0" markerStart="0" markerEnd="0" shadowEnabled="0" shadowOffsetX="0" shadowOffsetY="2" shadowBlur="4" shadowOpacity="160" blurEnabled="0" blurRadius="4" transform="matrix(1.02001,0,0,1.30887,256.5,256.5)" pers-center="0,0" pers-size="0,0" pers-start="0,0" pers-end="0,0" locked="0" mesh="" flag=""/>
            <path id="shapePath1" d="M44.7668,480.5 C123.589,384.316 146.041,352.5 262.633,352.5 L262.633,480.5 L480.5,256.5 L262.633,32.5 L262.633,160.5 C125.797,160.5 -9.48572,266.5 44.7668,480.5 Z" style="stroke:url(#nestedLinearGradientStroke1);stroke-width:8;stroke-linejoin:miter;stroke-miterlimit:2;stroke-linecap:round;fill-rule:evenodd;fill:url(#nestedRadialGradientFill1);fill-opacity:1;"/><defs><linearGradient id="nestedLinearGradientStroke1" gradientUnits="userSpaceOnUse" x1="36.1784" y1="256.5" x2="476.822" y2="256.5"><stop offset="0" stop-color="#4c9532" stop-opacity="1"/><stop offset="1" stop-color="#2b6816" stop-opacity="1"/></linearGradient><radialGradient id="nestedRadialGradientFill1" gradientUnits="userSpaceOnUse" cx="391.605" cy="606.5" r="416.553" fx="291.514" fy="648.5"><stop offset="0" stop-color="#91e573" stop-opacity="1"/><stop offset="0.864404" stop-color="#76d455" stop-opacity="1"/><stop offset="0.879142" stop-color="#55bd30" stop-opacity="1"/></radialGradient></defs>
        </g>
    </g>
</g>



<g transform="translate(256,0) scale(0.5,0.5)">
    <title>star icon</title>
    <desc>star icon from the IconExperience.com G-Collection. Copyright by INCORS GmbH (www.incors.com).</desc>
    <defs>
        <linearGradient x1="0" y1="22" x2="352.00005" y2="470" gradientUnits="userSpaceOnUse" id="star-color-1">
            <stop offset="0" stop-color="#ffe081"/>
            <stop offset="1" stop-color="#ffc001"/>
        </linearGradient>
    </defs>
    <g fill="url(#star-color-1)" fill-rule="evenodd" stroke="none" stroke-width="1" stroke-linecap="butt" stroke-linejoin="miter" stroke-miterlimit="10" stroke-dasharray="" stroke-dashoffset="0" font-family="none" font-weight="none" text-anchor="none" style="mix-blend-mode: normal">
        <path d="M256,22l60,186.5l196,-0.5l-158.5,115l60.5,186l-158,-115.5l-158,115.5l60.5,-186l-158.5,-115l196,0.5z" id="curve0"/>
    </g>
</g>

</svg>
