<svg version="1.1"
    xmlns="http://www.w3.org/2000/svg"
    xmlns:xlink="http://www.w3.org/1999/xlink" width="512" height="512" viewBox="0 0 512 512">
    <title>tape measure2 icon</title>
    <desc>tape measure2 icon from the IconExperience.com G-Collection. Copyright by INCORS GmbH (www.incors.com).</desc>
    <defs>
        <linearGradient x1="32" y1="336" x2="294.73165" y2="419.8435" gradientUnits="userSpaceOnUse" id="color-1">
            <stop offset="0" stop-color="#ffc001"/>
            <stop offset="0.32941" stop-color="#eaab01"/>
            <stop offset="1" stop-color="#d49600"/>
        </linearGradient>
        <linearGradient x1="112" y1="62.5" x2="409.5285" y2="448.1855" gradientUnits="userSpaceOnUse" id="color-2">
            <stop offset="0" stop-color="#ffcb2d"/>
            <stop offset="0.47843" stop-color="#ffc001"/>
            <stop offset="1" stop-color="#d39600"/>
        </linearGradient>
        <linearGradient x1="0" y1="336" x2="40.7274" y2="448.0005" gradientUnits="userSpaceOnUse" id="color-3">
            <stop offset="0" stop-color="#aab7c5"/>
            <stop offset="1" stop-color="#94a3b2"/>
        </linearGradient>
    </defs>
    <g fill="none" fill-rule="none" stroke="none" stroke-width="1" stroke-linecap="butt" stroke-linejoin="miter" stroke-miterlimit="10" stroke-dasharray="" stroke-dashoffset="0" font-family="none" font-weight="none" text-anchor="none" style="mix-blend-mode: normal">
        <path d="M112,336c80,0 64,80 192,80l0,32l-272,0l0,-112z" id="curve4" fill="url(#color-1)" fill-rule="evenodd"/>
        <path d="M64,384l16,0l0,64l-16,0z M208,412.5l0,35.5l-16,0l0,-53.5c5,6 10,12 16,18z M240,435l0,13l-16,0l0,-22c5,3 10,6.5 16,9z M160,416l16,0l0,32l-16,0z M128,384l16,0l0,64l-16,0z M96,416l16,0l0,32l-16,0z" id="curve3" fill="#51616f" fill-rule="evenodd"/>
        <path d="M304,448c-128,0 -112,-112 -192,-112c80,0 64,80 192,80c48.5,0 92.5,-19.5 124.5,-50.5c32,-31.5 51.5,-74.5 51.5,-122c0,-41.5 -17,-78.5 -44.5,-105.5c-27.5,-27 -65.5,-43.5 -107.5,-43.5c-42,0 -80,16.5 -107.5,43.5c-27.5,27 -44.5,64 -44.5,105.5c0,34.5 14.5,66 37.5,88.5c23,23 55,37 90.5,37c35.5,0 67.5,-14 90.5,-37c23,-22.5 37.5,-54 37.5,-88.5c0,-28.5 -11.5,-53.5 -30.5,-72c-18.5,-18.5 -44.5,-30 -73.5,-30c-29,0 -55,11.5 -73.5,30c-19,18.5 -30.5,43.5 -30.5,72c0,21.5 9,41 23.5,55c14.5,14.5 34.5,23 56.5,23c22,0 42,-8.5 56.5,-23c14.5,-14 23.5,-33.5 23.5,-55c0,-15 -6,-29 -16.5,-39c-10,-9.5 -24,-16 -39.5,-16c-15.5,0 -29.5,6.5 -39.5,16c-10.5,10 -16.5,24 -16.5,39c0,13 7.5,22.5 18.5,28c11.5,5.5 26,7 33,0.5l13,-52.5l31,7.5l-13,52.5c-0.5,3 -2,5.5 -4,7.5c-6,6 -13,11 -21,14.5c-8,3 -16.5,5 -25.5,5c-17.5,0 -33.5,-7 -45,-18.5c-12,-11.5 -19,-27 -19,-44.5c0,-24 10,-46 26,-61.5c16,-15.5 38,-25.5 62,-25.5c24,0 46,10 62,25.5c16,15.5 26,37.5 26,61.5c0,30.5 -12.5,58 -33,78c-20,20 -48,32 -79,32c-31,0 -59,-12 -79,-32c-20.5,-20 -33,-47.5 -33,-78c0,-37 15.5,-70.5 40,-95c24.5,-24 58.5,-39 96,-39c37.5,0 71.5,15 96,39c24.5,24.5 40,58 40,95c0,43.5 -18,83 -47,111.5c-29,28 -69,46 -113,46c-44,0 -84,-18 -113,-46c-29,-28.5 -47,-68 -47,-111.5c0,-50 20.5,-95.5 54,-128c33.5,-33 79.5,-53 130,-53c50.5,0 96.5,20 130,53c33.5,32.5 54,78 54,128c0,56.5 -23.5,107.5 -61,144.5c-37.5,37 -89.5,60 -147,60z" id="curve2" fill="url(#color-2)" fill-rule="nonzero"/>
        <path d="M367.5,227l-13,52.5l-31,-7.5l13,-52.5z" id="curve1" fill="#91a0af" fill-rule="evenodd"/>
        <path d="M8,336l40,0l0,112c-13.5,0 -26.5,0 -40,0c-4.5,0 -8,-3.5 -8,-8l0,-96c0,-4.5 3.5,-8 8,-8z" id="curve0" fill="url(#color-3)" fill-rule="evenodd"/>
    </g>
</svg>