<svg version="1.1"
    xmlns="http://www.w3.org/2000/svg"
    xmlns:xlink="http://www.w3.org/1999/xlink" width="512" height="512" viewBox="0 0 512 512">
    <title>floppy disk icon</title>
    <desc>floppy disk icon from the IconExperience.com G-Collection. Copyright by INCORS GmbH (www.incors.com).</desc>
    <defs>
        <linearGradient x1="32" y1="32" x2="430.221" y2="430.2205" gradientUnits="userSpaceOnUse" id="color-1">
            <stop offset="0" stop-color="#51616f"/>
            <stop offset="1" stop-color="#444850"/>
        </linearGradient>
        <linearGradient x1="96" y1="32" x2="185.6805" y2="272.00195" gradientUnits="userSpaceOnUse" id="color-2">
            <stop offset="0" stop-color="#eaf6fe"/>
            <stop offset="1" stop-color="#cbe9fb"/>
        </linearGradient>
        <linearGradient x1="416" y1="272" x2="415.4505" y2="270.8765" gradientUnits="userSpaceOnUse" id="color-3">
            <stop offset="0" stop-color="#ff7901"/>
            <stop offset="1" stop-color="#f77501"/>
        </linearGradient>
        <linearGradient x1="128" y1="320" x2="288.5545" y2="480.5555" gradientUnits="userSpaceOnUse" id="color-4">
            <stop offset="0" stop-color="#ffffff"/>
            <stop offset="1" stop-color="#e1e7ed"/>
        </linearGradient>
    </defs>
    <g fill="none" fill-rule="nonzero" stroke="none" stroke-width="1" stroke-linecap="butt" stroke-linejoin="miter" stroke-miterlimit="10" stroke-dasharray="" stroke-dashoffset="0" font-family="none" font-weight="none" text-anchor="none" style="mix-blend-mode: normal">
        <path d="M480,48l0,416c0,9 -7,16 -16,16l-400,0l-32,-32l0,-400c0,-9 7,-16 16,-16l416,0c9,0 16,7 16,16z" id="curve3" fill="url(#color-1)"/>
        <path d="M96,32l320,0l0,224c0,9 -7,16 -16,16l-288,0c-9,0 -16,-7 -16,-16z" id="curve2" fill="url(#color-2)"/>
        <path d="M416,208l0,48c0,9 -7,16 -16,16l-288,0c-9,0 -16,-7 -16,-16l0,-48z" id="curve1" fill="url(#color-3)"/>
        <path d="M384,336l0,144l-256,0l0,-144c0,-9 7,-16 16,-16l224,0c9,0 16,7 16,16z M160,336l0,112l64,0l0,-112z" id="curve0" fill="url(#color-4)"/>
    </g>


<g transform="translate(128,256) scale(0.75,0.75)">
    <title>text field icon</title>
    <desc>text field icon from the IconExperience.com G-Collection. Copyright by INCORS GmbH (www.incors.com).</desc>
    <defs>
        <linearGradient x1="0" y1="176" x2="103.226" y2="336" gradientUnits="userSpaceOnUse" id="badge-color-1">
            <stop offset="0" stop-color="#f4f6f8"/>
            <stop offset="1" stop-color="#e7ecf1"/>
        </linearGradient>
        <linearGradient x1="32" y1="208" x2="113.0499" y2="297.7495" gradientUnits="userSpaceOnUse" id="badge-color-2">
            <stop offset="0" stop-color="#129eee"/>
            <stop offset="1" stop-color="#1086ca"/>
        </linearGradient>
    </defs>
    <g fill="none" fill-rule="none" stroke="none" stroke-width="1" stroke-linecap="butt" stroke-linejoin="miter" stroke-miterlimit="10" stroke-dasharray="" stroke-dashoffset="0" font-family="none" font-weight="none" text-anchor="none" style="mix-blend-mode: normal">
        <path d="M8,176l496,0c4.5,0 8,3.5 8,8l0,144c0,4.5 -3.5,8 -8,8l-496,0c-4.5,0 -8,-3.5 -8,-8l0,-144c0,-4.5 3.5,-8 8,-8z" id="curve2" fill="url(#badge-color-1)" fill-rule="evenodd" stroke="#252525" stroke-width="10"/>
        <path d="M92.5,285l-31,0l-5.5,17.5l-24,0l34.5,-93l21,0l34.5,93l-24.5,0z M67,268l20,0l-10,-32.5z M133.5,302.5l0,-93l33.5,0c12,0 21,2 27.5,6.5c6,4.5 9,10.5 9,19c0,5 -1,9 -3,12.5c-2.5,3.5 -5.5,6 -10,7.5c5,1.5 8.5,4 11,7.5c3,3.5 4,7.5 4,12.5c0,9 -2.5,16 -8.5,20.5c-6,5 -14.5,7 -26,7z M156,263l0,22.5l14.5,0c4,0 7.5,-1 9.5,-3c2,-2 3,-4.5 3,-7.5c0,-8 -3.5,-12 -11.5,-12z M156,248l11.5,0c5,0 8.5,-1 10.5,-2.5c2,-2 3,-4.5 3,-8c0,-3.5 -1,-6.5 -3,-8c-2.5,-2 -6,-3 -11,-3l-11,0z M298,271c0,6.5 -2,12.5 -5,17.5c-3.5,5 -8,8.5 -13.5,11.5c-6,2.5 -12.5,4 -20,4c-12,0 -22,-4 -29,-12c-7,-8 -10.5,-19.5 -10.5,-34l0,-4.5c0,-9 1.5,-17 5,-24c3,-7 7.5,-12 13.5,-16c6,-3.5 13,-5.5 21,-5.5c11,0 20,3 27,9c7,6 11,14 12,24.5l-22.5,0c-0.5,-5.5 -1.5,-9.5 -4.5,-12c-2.5,-2.5 -6.5,-4 -12,-4c-6,0 -10,2 -12.5,6.5c-2.5,4 -4,11 -4,20l0,6.5c0,10 1,17 3.5,21.5c2.5,4.5 7,6.5 13,6.5c5,0 9,-1.5 12,-4c2.5,-2 4,-6 4.5,-11.5z" id="curve1" fill="url(#badge-color-2)" fill-rule="nonzero"/>
        <path d="M304,144l32,0c3,0 5.5,1 8,2c2.5,-1 5,-2 8,-2l32,0l0,16l-32,0l0,192l32,0l0,16l-32,0c-3,0 -5.5,-1 -8,-2c-2.5,1 -5,2 -8,2l-32,0l0,-16l32,0l0,-192l-32,0z" id="curve0" fill="#717f8f" fill-rule="nonzero"/>
    </g>
</g>

</svg>
