<svg version="1.1"
    xmlns="http://www.w3.org/2000/svg"
    xmlns:xlink="http://www.w3.org/1999/xlink" width="512" height="512" viewBox="0 0 512 512">
    <title>elements2 icon</title>
    <desc>elements2 icon from the IconExperience.com G-Collection. Copyright by INCORS GmbH (www.incors.com).</desc>
    <defs>
        <linearGradient x1="112" y1="272" x2="351.6" y2="512" gradientUnits="userSpaceOnUse" id="color-1">
            <stop offset="0" stop-color="#4db6f2"/>
            <stop offset="1" stop-color="#18a0ee"/>
        </linearGradient>
        <linearGradient x1="112" y1="0" x2="351.6" y2="240.00009" gradientUnits="userSpaceOnUse" id="color-2">
            <stop offset="0" stop-color="#4db6f2"/>
            <stop offset="1" stop-color="#18a0ee"/>
        </linearGradient>
    </defs>
    <g fill="none" fill-rule="evenodd" stroke="#252525" stroke-width="10" stroke-linecap="butt" stroke-linejoin="round" stroke-miterlimit="10" stroke-dasharray="" stroke-dashoffset="0" font-family="none" font-weight="none" text-anchor="none" style="mix-blend-mode: normal">
        <path d="M128,272l256,0c9,0 16,7 16,16l0,208c0,9 -7,16 -16,16l-256,0c-9,0 -16,-7 -16,-16l0,-208c0,-9 7,-16 16,-16z" id="curve1" fill="url(#color-1)"/>
        <path d="M128,0l256,0c9,0 16,7 16,16l0,208c0,9 -7,16 -16,16l-256,0c-9,0 -16,-7 -16,-16l0,-208c0,-9 7,-16 16,-16z" id="curve0" fill="url(#color-2)"/>
    </g>

<g transform="translate(0,0) scale(0.475,0.475)">
    <title>plus icon</title>
    <desc>plus icon from the IconExperience.com G-Collection. Copyright by INCORS GmbH (www.incors.com).</desc>
    <defs>
        <linearGradient x1="32" y1="32" x2="323.36915" y2="461.212" gradientUnits="userSpaceOnUse" id="plus-color-1">
            <stop offset="0" stop-color="#98e957"/>
            <stop offset="1" stop-color="#5ea821"/>
        </linearGradient>
    </defs>
    <g fill="url(#plus-color-1)" fill-rule="evenodd" stroke="#252525" stroke-width="10" stroke-linecap="butt" stroke-linejoin="round" stroke-miterlimit="10" stroke-dasharray="" stroke-dashoffset="0" font-family="none" font-weight="none" text-anchor="none" style="mix-blend-mode: normal">
        <path d="M192,480l0,-160l-160,0l0,-128l160,0l0,-160l128,0l0,160l160,0l0,128l-160,0l0,160z" id="curve0"/>
    </g>
</g>

<g transform="translate(0,272) scale(0.475,0.475)">
    <title>plus icon</title>
    <desc>plus icon from the IconExperience.com G-Collection. Copyright by INCORS GmbH (www.incors.com).</desc>
    <defs>
        <linearGradient x1="32" y1="32" x2="323.36915" y2="461.212" gradientUnits="userSpaceOnUse" id="plus2-color-1">
            <stop offset="0" stop-color="#98e957"/>
            <stop offset="1" stop-color="#5ea821"/>
        </linearGradient>
    </defs>
    <g fill="url(#plus2-color-1)" fill-rule="evenodd" stroke="#252525" stroke-width="10" stroke-linecap="butt" stroke-linejoin="round" stroke-miterlimit="10" stroke-dasharray="" stroke-dashoffset="0" font-family="none" font-weight="none" text-anchor="none" style="mix-blend-mode: normal">
        <path d="M192,480l0,-160l-160,0l0,-128l160,0l0,-160l128,0l0,160l160,0l0,128l-160,0l0,160z" id="curve0"/>
    </g>
</g>

</svg>
