<svg version="1.1"
    xmlns="http://www.w3.org/2000/svg"
    xmlns:xlink="http://www.w3.org/1999/xlink" width="512" height="512" viewBox="0 0 512 512">
    <title>headset icon</title>
    <desc>headset icon from the IconExperience.com G-Collection. Copyright by INCORS GmbH (www.incors.com).</desc>
    <defs>
        <linearGradient x1="72" y1="16" x2="201.9965" y2="95.6874" gradientUnits="userSpaceOnUse" id="color-1">
            <stop offset="0" stop-color="#717f8f"/>
            <stop offset="1" stop-color="#5d6a77"/>
        </linearGradient>
        <linearGradient x1="312" y1="288" x2="423.9995" y2="392.4215" gradientUnits="userSpaceOnUse" id="color-2">
            <stop offset="0" stop-color="#91a0af"/>
            <stop offset="1" stop-color="#717f8f"/>
        </linearGradient>
        <linearGradient x1="272" y1="448" x2="272.4875" y2="479.9995" gradientUnits="userSpaceOnUse" id="color-3">
            <stop offset="0" stop-color="#717f8f"/>
            <stop offset="0.36863" stop-color="#54606d"/>
            <stop offset="1" stop-color="#36414a"/>
        </linearGradient>
        <linearGradient x1="16" y1="0" x2="134.0257" y2="368.00059" gradientUnits="userSpaceOnUse" id="color-4">
            <stop offset="0" stop-color="#49b4f2"/>
            <stop offset="1" stop-color="#23a5ef"/>
        </linearGradient>
        <linearGradient x1="80" y1="224" x2="80" y2="383.9995" gradientUnits="userSpaceOnUse" id="color-5">
            <stop offset="0" stop-color="#6c7989"/>
            <stop offset="0.63137" stop-color="#576370"/>
            <stop offset="1" stop-color="#414c57"/>
        </linearGradient>
        <linearGradient x1="464" y1="224" x2="463.9995" y2="383.9975" gradientUnits="userSpaceOnUse" id="color-6">
            <stop offset="0" stop-color="#4eb6f2"/>
            <stop offset="0.43922" stop-color="#129eee"/>
            <stop offset="1" stop-color="#0f7cbb"/>
        </linearGradient>
    </defs>
    <g fill="none" fill-rule="evenodd" stroke="none" stroke-width="1" stroke-linecap="butt" stroke-linejoin="miter" stroke-miterlimit="10" stroke-dasharray="" stroke-dashoffset="0" font-family="none" font-weight="none" text-anchor="none" style="mix-blend-mode: normal">
        <path d="M256,16c76,0 143.5,38 184,96c-18,0 -31,-3 -45,-15c-37,-30.5 -85.5,-49 -139,-49c-53.5,0 -102,18.5 -139,49c-14,12 -27,15 -45,15c40.5,-58 108,-96 184,-96z" id="curve5" fill="url(#color-1)"/>
        <path d="M496,288l0,0c9,0 16,7 16,16l0,80c0,30.5 -13,51 -32.5,65c-24.5,17.5 -59,23 -87.5,23l-80,0l0,-16l80,0c26,0 57,-5 78.5,-20c15,-11 25.5,-27.5 25.5,-52z" id="curve4" fill="url(#color-2)"/>
        <path d="M280,448l48,0c4.5,0 8,3.5 8,8l0,16c0,4.5 -3.5,8 -8,8l-48,0c-4.5,0 -8,-3.5 -8,-8l0,-16c0,-4.5 3.5,-8 8,-8z" id="curve3" fill="url(#color-3)"/>
        <path d="M256,16c-123.5,0 -224,100.5 -224,224l0,16l32,0l0,96l-32,0l0,16l-16,0l0,-128c0,-132.5 107.5,-240 240,-240c132.5,0 240,107.5 240,240l0,128l-16,0l0,-16l-32,0l0,-96l32,0l0,-16c0,-123.5 -100.5,-224 -224,-224z" id="curve2" fill="url(#color-4)"/>
        <path d="M80,224l16,0c17.5,0 32,14.5 32,32l0,96c0,17.5 -14.5,32 -32,32l-16,0z M432,224l-16,0c-17.5,0 -32,14.5 -32,32l0,96c0,17.5 14.5,32 32,32l16,0z" id="curve1" fill="url(#color-5)"/>
        <path d="M48,224l32,0l0,160l-32,0z M464,224l-32,0l0,160l32,0z" id="curve0" fill="url(#color-6)"/>
    </g>
</svg>