<svg version="1.1"
    xmlns="http://www.w3.org/2000/svg"
    xmlns:xlink="http://www.w3.org/1999/xlink" width="512" height="512" viewBox="0 0 512 512">
    <title>element icon</title>
    <desc>element icon from the IconExperience.com G-Collection. Copyright by INCORS GmbH (www.incors.com).</desc>
    <defs>
        <linearGradient x1="96" y1="128" x2="351.5735" y2="384.001" gradientUnits="userSpaceOnUse" id="color-1">
            <stop offset="0" stop-color="#ffd040"/>
            <stop offset="1" stop-color="#f0b005"/>
        </linearGradient>
        <linearGradient x1="96" y1="128" x2="351.5735" y2="384.001" gradientUnits="userSpaceOnUse" id="color-2">
            <stop offset="0" stop-color="#788f9b"/>
            <stop offset="1" stop-color="#546e7a"/>
        </linearGradient>
    </defs>
    <g fill="url(#color-1)" fill-rule="evenodd" stroke="#252525" stroke-width="10" stroke-linecap="butt" stroke-linejoin="round" stroke-miterlimit="10" stroke-dasharray="" stroke-dashoffset="0" font-family="none" font-weight="none" text-anchor="none" style="mix-blend-mode: normal" transform="translate(32,32) scale(0.875,0.875)">
        <path d="M112,128l288,0c9,0 16,7 16,16l0,224c0,9 -7,16 -16,16l-288,0c-9,0 -16,-7 -16,-16l0,-224c0,-9 7,-16 16,-16z" id="curve0"/>
    </g>
    <g fill="url(#color-2)" fill-rule="evenodd" transform="translate(88,48) rotate(-45) scale(-0.575,0.575)">
        <path d="M383,480c0,-193.85 -157.15,-351 -351,-351l0,-98c247.95,0 449,201.05 449,449z"/>
        <path d="M383,480c0,-96.95 -39.3,-184.7 -102.8,-248.2l69.3,-69.3c81.25,81.25 131.5,193.5 131.5,317.5z"/>
    </g>
    <g fill="url(#color-2)" fill-rule="evenodd" transform="translate(424,48) rotate(45) scale(0.575,0.575)">
        <path d="M383,480c0,-193.85 -157.15,-351 -351,-351l0,-98c247.95,0 449,201.05 449,449z"/>
        <path d="M383,480c0,-96.95 -39.3,-184.7 -102.8,-248.2l69.3,-69.3c81.25,81.25 131.5,193.5 131.5,317.5z"/>
    </g>
</svg>
