<svg version="1.1"
    xmlns="http://www.w3.org/2000/svg"
    xmlns:xlink="http://www.w3.org/1999/xlink" width="512" height="512" viewBox="0 0 512 512">
    <title>lifebelt icon</title>
    <desc>lifebelt icon from the IconExperience.com G-Collection. Copyright by INCORS GmbH (www.incors.com).</desc>
    <defs>
        <linearGradient x1="16" y1="16" x2="484.5915" y2="499.70825" gradientUnits="userSpaceOnUse" id="color-1">
            <stop offset="0" stop-color="#ffffff"/>
            <stop offset="0.34118" stop-color="#f0f3f7"/>
            <stop offset="0.7098" stop-color="#ebeff4"/>
            <stop offset="1" stop-color="#dfe5ec"/>
        </linearGradient>
        <linearGradient x1="35.5" y1="35.5" x2="300.456" y2="355.9805" gradientUnits="userSpaceOnUse" id="color-2">
            <stop offset="0" stop-color="#ef5c51"/>
            <stop offset="1" stop-color="#cb382d"/>
        </linearGradient>
    </defs>
    <g fill="none" fill-rule="none" stroke="none" stroke-width="1" stroke-linecap="butt" stroke-linejoin="miter" stroke-miterlimit="10" stroke-dasharray="" stroke-dashoffset="0" font-family="none" font-weight="none" text-anchor="none" style="mix-blend-mode: normal">
        <path d="M256,16c33.5,0 65.5,7 94.5,19.5l2.5,6.5l-46.5,108.5l-6.5,2.5c-13.5,-6 -28.5,-9 -44,-9c-15.5,0 -30.5,3 -44,9l-6.5,-2.5l-46.5,-108.5l2.5,-6.5c29,-12.5 61,-19.5 94.5,-19.5z M476.5,161.5c12.5,29 19.5,61 19.5,94.5c0,33.5 -7,65.5 -19.5,94.5l-6.5,2.5l-108.5,-46.5l-2.5,-6.5c6,-13.5 9,-28.5 9,-44c0,-15.5 -3,-30.5 -9,-44l2.5,-6.5l108.5,-46.5z M350.5,476.5c-29,12.5 -61,19.5 -94.5,19.5c-33.5,0 -65.5,-7 -94.5,-19.5l-2.5,-6.5l46.5,-108.5l6.5,-2.5c13.5,6 28.5,9 44,9c15.5,0 30.5,-3 44,-9l6.5,2.5l46.5,108.5z M35.5,350.5c-12.5,-29 -19.5,-61 -19.5,-94.5c0,-33.5 7,-65.5 19.5,-94.5l6.5,-2.5l108.5,46.5l2.5,6.5c-6,13.5 -9,28.5 -9,44c0,15.5 3,30.5 9,44l-2.5,6.5l-108.5,46.5z" id="curve1" fill="url(#color-1)" fill-rule="nonzero"/>
        <path d="M350.5,35.5c56.5,24 102,69.5 126,126l-117.5,50.5c-11.5,-26.5 -32.5,-47.5 -59,-59z M476.5,350.5c-24,56.5 -69.5,102 -126,126l-50.5,-117.5c26.5,-11.5 47.5,-32.5 59,-59z M161.5,476.5c-56.5,-24 -102,-69.5 -126,-126l117.5,-50.5c11.5,26.5 32.5,47.5 59,59z M35.5,161.5c24,-56.5 69.5,-102 126,-126l50.5,117.5c-26.5,11.5 -47.5,32.5 -59,59z" id="curve0" fill="url(#color-2)" fill-rule="evenodd"/>
    </g>
</svg>