<svg version="1.1"
    xmlns="http://www.w3.org/2000/svg"
    xmlns:xlink="http://www.w3.org/1999/xlink" width="512" height="512" viewBox="0 0 512 512">
    <title>sort up icon</title>
    <desc>sort up icon from the IconExperience.com G-Collection. Copyright by INCORS GmbH (www.incors.com).</desc>
    <defs>
        <linearGradient x1="128" y1="0" x2="320" y2="448.0001" gradientUnits="userSpaceOnUse" id="color-1">
            <stop offset="0" stop-color="#129eee"/>
            <stop offset="1" stop-color="#0e76b2"/>
        </linearGradient>
    </defs>
    <g fill="url(#color-1)" fill-rule="evenodd" stroke="none" stroke-width="1" stroke-linecap="butt" stroke-linejoin="miter" stroke-miterlimit="10" stroke-dasharray="" stroke-dashoffset="0" font-family="none" font-weight="none" text-anchor="none" style="mix-blend-mode: normal" transform="translate(-128,0)">
        <path d="M128,128l80,0l0,384l96,0l0,-384l80,0l-128,-128z" id="curve0"/>
    </g>

<g transform="translate(284,0) scale(0.4,0.4)">
    <title>space char icon</title>
    <defs>
        <linearGradient x1="144" y1="0" x2="144" y2="512" gradientUnits="userSpaceOnUse" id="s-color-1">
            <stop offset="0" stop-color="#129eee"/>
            <stop offset="1" stop-color="#0e78b6"/>
        </linearGradient>
    </defs>
    <g fill="url(#s-color-1)" fill-rule="evenodd" stroke="none" stroke-width="1" stroke-linecap="butt" stroke-linejoin="miter" stroke-miterlimit="10" stroke-dasharray="" stroke-dashoffset="0" font-family="none" font-weight="none" text-anchor="none" style="mix-blend-mode: normal">
        <path d="M0,200l96,0l0,96l-96,0z" id="curve0" fill="#546e7a"/>
        <path d="M416,200l96,0l0,96l-96,0z" id="curve0" fill="#546e7a"/>
        <path d="M0,288l512,0l0,96l-512,0z" id="curve0" fill="#546e7a"/>
    </g>
</g>

<g transform="translate(284,256) scale(0.4,0.5)">
    <title>arrow barrier icon</title>
    <desc>arrow barrier icon from the IconExperience.com G-Collection. Copyright by INCORS GmbH (www.incors.com).</desc>
    <defs>
        <linearGradient x1="144" y1="64" x2="144" y2="512.0005" gradientUnits="userSpaceOnUse" id="a-color-1">
            <stop offset="0" stop-color="#129eee"/>
            <stop offset="1" stop-color="#0e78b6"/>
        </linearGradient>
    </defs>
    <g fill="none" fill-rule="evenodd" stroke="none" stroke-width="1" stroke-linecap="butt" stroke-linejoin="miter" stroke-miterlimit="10" stroke-dasharray="" stroke-dashoffset="0" font-family="none" font-weight="none" text-anchor="none" style="mix-blend-mode: normal" transform="translate(512,0) rotate(90)">
        <path d="M64,0l384,0l0,64l-384,0z" id="curve1" fill="#91a0af"/>
        <path d="M144,176l112,-112l112,112l-80,0l0,336l-64,0l0,-336z" id="curve0" fill="url(#a-color-1)"/>
    </g>
</g>

</svg>
