<svg version="1.1"
    xmlns="http://www.w3.org/2000/svg"
    xmlns:xlink="http://www.w3.org/1999/xlink" width="512" height="512" viewBox="0 0 512 512">
    <title>piece icon</title>
    <desc>piece icon from the IconExperience.com G-Collection. Copyright by INCORS GmbH (www.incors.com).</desc>
    <defs>
        <linearGradient x1="0" y1="0" x2="448.00018" y2="480.00059" gradientUnits="userSpaceOnUse" id="color-1">
            <stop offset="0" stop-color="#4eb6f2"/>
            <stop offset="0.45882" stop-color="#4eb6f2"/>
            <stop offset="1" stop-color="#278fcb"/>
        </linearGradient>
    </defs>
    <g fill="url(#color-1)" fill-rule="evenodd" stroke="none" stroke-width="1" stroke-linecap="butt" stroke-linejoin="miter" stroke-miterlimit="10" stroke-dasharray="" stroke-dashoffset="0" font-family="none" font-weight="none" text-anchor="none" style="mix-blend-mode: normal">
        <path d="M120,112l101.5,0c18.5,0 22,-21 8.5,-29.5c-13.5,-8.5 -22,-21 -22,-34.5c0,-26.5 32,-48 72,-48c40,0 72,21.5 72,48c0,13.5 -8.5,26 -22,34.5c-13.5,8.5 -10,29.5 8.5,29.5l133.5,0c4.5,0 8,3.5 8,8l0,101.5c0,18.5 -21,22 -29.5,8.5c-8.5,-13.5 -21,-22 -34.5,-22c-26.5,0 -48,32 -48,72c0,40 21.5,72 48,72c13.5,0 26,-8.5 34.5,-22c8.5,-13.5 29.5,-10 29.5,8.5l0,133.5c0,4.5 -3.5,8 -8,8l-133.5,0c-18.5,0 -22,-21 -8.5,-29.5c13.5,-8.5 22,-21 22,-34.5c0,-26.5 -32,-48 -72,-48c-40,0 -72,21.5 -72,48c0,13.5 8.5,26 22,34.5c13.5,8.5 10,29.5 -8.5,29.5l-101.5,0c-4.5,0 -8,-3.5 -8,-8l0,-133.5c0,-18.5 -21,-22 -29.5,-8.5c-8.5,13.5 -21,22 -34.5,22c-26.5,0 -48,-32 -48,-72c0,-40 21.5,-72 48,-72c13.5,0 26,8.5 34.5,22c8.5,13.5 29.5,10 29.5,-8.5l0,-101.5c0,-4.5 3.5,-8 8,-8z" id="curve0"/>
    </g>
</svg>