<svg version="1.1"
    xmlns="http://www.w3.org/2000/svg"
    xmlns:xlink="http://www.w3.org/1999/xlink" width="512" height="512" viewBox="0 0 512 512">
    <title>hammer icon</title>
    <desc>hammer icon from the IconExperience.com G-Collection. Copyright by INCORS GmbH (www.incors.com).</desc>
    <defs>
        <linearGradient x1="96" y1="16.5017" x2="186.827" y2="368.90295" gradientUnits="userSpaceOnUse" id="color-1">
            <stop offset="0" stop-color="#ced7e0"/>
            <stop offset="1" stop-color="#91a0af"/>
        </linearGradient>
        <linearGradient x1="505.375" y1="150.50659" x2="408.7585" y2="247.87359" gradientUnits="userSpaceOnUse" id="color-2">
            <stop offset="0" stop-color="#b3c0cd"/>
            <stop offset="0.36863" stop-color="#ccd5de"/>
            <stop offset="1" stop-color="#91a0af"/>
        </linearGradient>
        <linearGradient x1="404.5" y1="281.375" x2="505.1735" y2="180.7015" gradientUnits="userSpaceOnUse" id="color-3">
            <stop offset="0" stop-color="#93a1af"/>
            <stop offset="1" stop-color="#b1becb"/>
        </linearGradient>
        <linearGradient x1="6.625" y1="246.625" x2="87.3335" y2="329.5825" gradientUnits="userSpaceOnUse" id="color-4">
            <stop offset="0" stop-color="#dca264"/>
            <stop offset="0.38824" stop-color="#d08730"/>
            <stop offset="1" stop-color="#9c5f24"/>
        </linearGradient>
    </defs>
    <g fill="none" fill-rule="none" stroke="none" stroke-width="1" stroke-linecap="butt" stroke-linejoin="miter" stroke-miterlimit="10" stroke-dasharray="" stroke-dashoffset="0" font-family="none" font-weight="none" text-anchor="none" style="mix-blend-mode: normal">
        <path d="M454.5,153.5c6.5,-4.5 15,-4 21,2l25,25c6.5,6.5 6.5,16.5 0,23l-73,73c-6.5,6.5 -16.5,6.5 -23,0l-25,-25c-6,-6 -6.5,-14.5 -2,-21c1,-1 2,-2.5 2.5,-3.5c4,-6.5 3,-14 -2,-19c-12,-13 -42,0 -58,16l-176,176l-48,-48l176,-176c32,-32 33.5,-56 31.5,-72c-4.5,-35.5 -58.5,-45 -109,-43c-4,0 -7.5,-2.5 -8.5,-6c-0.5,-3.5 1,-7.5 4,-9c51.5,-27.5 125.5,-50.5 178,2l43.5,43.5c3,3 4.5,6.5 4.5,11l0,31.5c0,6.5 2.5,12.5 7,17c8.5,8.5 21.5,10 31.5,2.5z" id="curve3" fill="url(#color-1)" fill-rule="nonzero"/>
        <path d="M454.5,153.5c6.5,-4.5 15,-4 21,2l25,25c6.5,6.5 6.5,16.5 0,23l-73,73c-6.5,6.5 -16.5,6.5 -23,0l-25,-25c-6,-6 -6.5,-14.5 -2,-21c1,-1 2,-2.5 2.5,-3.5z" id="curve2" fill="url(#color-2)" fill-rule="nonzero"/>
        <path d="M500.5,180.5c6.5,6.5 6.5,16.5 0,23l-73,73c-6.5,6.5 -16.5,6.5 -23,0z" id="curve1" fill="url(#color-3)" fill-rule="nonzero"/>
        <path d="M187.5,251.5l57,57c6.5,6.5 6.5,16.5 0,23l-153,153c-6.5,6.5 -16.5,6.5 -23,0l-57,-57c-6.5,-6.5 -6.5,-16.5 0,-23l153,-153c6.5,-6.5 16.5,-6.5 23,0z" id="curve0" fill="url(#color-4)" fill-rule="evenodd"/>
    </g>
</svg>