<svg version="1.1"
    xmlns="http://www.w3.org/2000/svg"
    xmlns:xlink="http://www.w3.org/1999/xlink" width="512" height="512" viewBox="0 0 512 512">
    <title>cd icon</title>
    <desc>cd icon from the IconExperience.com G-Collection. Copyright by INCORS GmbH (www.incors.com).</desc>
    <defs>
        <linearGradient x1="16" y1="16" x2="432.8422" y2="496.0002" gradientUnits="userSpaceOnUse" id="color-1">
            <stop offset="0" stop-color="#d7dfe7"/>
            <stop offset="1" stop-color="#9fadba"/>
        </linearGradient>
        <linearGradient x1="176" y1="176" x2="301.4045" y2="335.9995" gradientUnits="userSpaceOnUse" id="color-2">
            <stop offset="0" stop-color="#f3f6f8"/>
            <stop offset="1" stop-color="#e8edf2"/>
        </linearGradient>
        <linearGradient x1="32" y1="32" x2="383.1348" y2="479.9998" gradientUnits="userSpaceOnUse" id="color-3">
            <stop offset="0" stop-color="#fefefe"/>
            <stop offset="1" stop-color="#e0e6ed"/>
        </linearGradient>
        <linearGradient x1="208" y1="208" x2="285.714" y2="304" gradientUnits="userSpaceOnUse" id="color-4">
            <stop offset="0" stop-color="#afbcc9"/>
            <stop offset="1" stop-color="#97a5b4"/>
        </linearGradient>
    </defs>
    <g fill="none" fill-rule="nonzero" stroke="none" stroke-width="1" stroke-linecap="butt" stroke-linejoin="miter" stroke-miterlimit="10" stroke-dasharray="" stroke-dashoffset="0" font-family="none" font-weight="none" text-anchor="none" style="mix-blend-mode: normal">
        <path d="M256,16c132.5,0 240,107.5 240,240c0,132.5 -107.5,240 -240,240c-132.5,0 -240,-107.5 -240,-240c0,-132.5 107.5,-240 240,-240z M256,192c-35.5,0 -64,28.5 -64,64c0,35.5 28.5,64 64,64c35.5,0 64,-28.5 64,-64c0,-35.5 -28.5,-64 -64,-64z" id="curve8" fill="url(#color-1)"/>
        <path d="M50,343.5l147,-62.5c6.5,15 19,27.5 34,34l-62.5,147c-53.5,-22.5 -96,-65 -118.5,-118.5z M462,168.5l-147,62.5c-6.5,-15 -19,-27.5 -34,-34l62.5,-147c53.5,22.5 96,65 118.5,118.5z" id="curve7" fill="#c5e7fb"/>
        <path d="M211,301.5c6,5.5 12.5,10.5 20,13.5l-62.5,147c-25.5,-10.5 -48.5,-26 -68.5,-45z M301.5,211c-6,-6 -13,-10.5 -20.5,-14l62.5,-147c27.5,11.5 52,28 72.5,49z" id="curve6" fill="#fac8c6"/>
        <path d="M112,427.5c-20,-16.5 -37,-37 -50,-59.5l124.5,-72c5,8 11,15.5 18,21.5z M400,84.5c20,16.5 37,37 50,59.5l-124.5,72c-5,-8 -11,-15.5 -18,-21.5z" id="curve5" fill="#ddfec2"/>
        <path d="M144,450c-22.5,-13 -43,-30 -59.5,-50l110,-92.5c6,7 13.5,13 21.5,18z M368,62c22.5,13 43,30 59.5,50l-110,92.5c-6,-7 -13.5,-13 -21.5,-18z" id="curve4" fill="#fff0c1"/>
        <path d="M112,427.5c-6.5,-5.5 -13,-11.5 -19,-18c-3,-3 -6,-6 -8.5,-9.5l110,-92.5c1.5,1.5 3.5,3.5 5,5l0,0l0,0l0,0.5l0,0l0.5,0c1.5,1.5 3,3 4.5,4.5z M418.5,102c3,3.5 6,6.5 9,10l-110,92.5c-1.5,-1.5 -3,-3 -4.5,-5l0,0l-0.5,0l0,0l0,-0.5l0,0c-2,-1.5 -3.5,-3 -5,-4.5l92.5,-110c6.5,5.5 12.5,11.5 18.5,17.5l0,0z" id="curve3" fill="#ffffff"/>
        <path d="M256,176c44,0 80,36 80,80c0,44 -36,80 -80,80c-44,0 -80,-36 -80,-80c0,-44 36,-80 80,-80z M256,216c-22,0 -40,18 -40,40c0,22 18,40 40,40c22,0 40,-18 40,-40c0,-22 -18,-40 -40,-40z" id="curve2" fill="url(#color-2)"/>
        <path d="M256,48c-115,0 -208,93 -208,208c0,115 93,208 208,208c115,0 208,-93 208,-208c0,-115 -93,-208 -208,-208z M256,32c123.5,0 224,100.5 224,224c0,123.5 -100.5,224 -224,224c-123.5,0 -224,-100.5 -224,-224c0,-123.5 100.5,-224 224,-224z" id="curve1" fill="url(#color-3)"/>
        <path d="M256,208c26.5,0 48,21.5 48,48c0,26.5 -21.5,48 -48,48c-26.5,0 -48,-21.5 -48,-48c0,-26.5 21.5,-48 48,-48z M256,224c-17.5,0 -32,14.5 -32,32c0,17.5 14.5,32 32,32c17.5,0 32,-14.5 32,-32c0,-17.5 -14.5,-32 -32,-32z" id="curve0" fill="url(#color-4)"/>
    </g>
</svg>