<svg version="1.1"
    xmlns="http://www.w3.org/2000/svg"
    xmlns:xlink="http://www.w3.org/1999/xlink" width="512" height="512" viewBox="0 0 512 512">
    <title>stopwatch icon</title>
    <desc>stopwatch icon from the IconExperience.com G-Collection. Copyright by INCORS GmbH (www.incors.com).</desc>
    <defs>
        <linearGradient x1="232" y1="32" x2="280.179" y2="32.80785" gradientUnits="userSpaceOnUse" id="color-1">
            <stop offset="0" stop-color="#717f8f"/>
            <stop offset="1" stop-color="#51616f"/>
        </linearGradient>
        <linearGradient x1="372.5" y1="84.375" x2="420.501" y2="132.3755" gradientUnits="userSpaceOnUse" id="color-2">
            <stop offset="0" stop-color="#b3c0cd"/>
            <stop offset="0.27843" stop-color="#c5d0da"/>
            <stop offset="1" stop-color="#91a0af"/>
        </linearGradient>
        <linearGradient x1="192" y1="0" x2="320.0005" y2="0" gradientUnits="userSpaceOnUse" id="color-3">
            <stop offset="0" stop-color="#b3c0cd"/>
            <stop offset="0.34118" stop-color="#d8e0e8"/>
            <stop offset="1" stop-color="#91a0af"/>
        </linearGradient>
        <linearGradient x1="32" y1="64" x2="346.3355" y2="408.202" gradientUnits="userSpaceOnUse" id="color-4">
            <stop offset="0" stop-color="#4eb6f2"/>
            <stop offset="1" stop-color="#129eee"/>
        </linearGradient>
        <linearGradient x1="448" y1="480" x2="185.139" y2="231.013" gradientUnits="userSpaceOnUse" id="color-5">
            <stop offset="0" stop-color="#ffffff"/>
            <stop offset="1" stop-color="#b3c0cd"/>
        </linearGradient>
        <linearGradient x1="432" y1="464" x2="211.692" y2="119.77" gradientUnits="userSpaceOnUse" id="color-6">
            <stop offset="0" stop-color="#ffffff"/>
            <stop offset="1" stop-color="#e3e9ee"/>
        </linearGradient>
        <linearGradient x1="288" y1="328" x2="224.001" y2="279.964" gradientUnits="userSpaceOnUse" id="color-7">
            <stop offset="0" stop-color="#d4dde5"/>
            <stop offset="1" stop-color="#cbd5de"/>
        </linearGradient>
        <linearGradient x1="224" y1="112" x2="287.999" y2="192.2985" gradientUnits="userSpaceOnUse" id="color-8">
            <stop offset="0" stop-color="#ea574c"/>
            <stop offset="1" stop-color="#e55247"/>
        </linearGradient>
    </defs>
    <g fill="none" fill-rule="evenodd" stroke="none" stroke-width="1" stroke-linecap="butt" stroke-linejoin="miter" stroke-miterlimit="10" stroke-dasharray="" stroke-dashoffset="0" font-family="none" font-weight="none" text-anchor="none" style="mix-blend-mode: normal">
        <path d="M232,32l48,0l0,48l-48,0z" id="curve8" fill="url(#color-1)"/>
        <path d="M423,87l34,34c3.5,3 3.5,8 0,11l-39.5,39.5l-45,-45l39.5,-39.5c3,-3.5 8,-3.5 11,0z" id="curve7" fill="url(#color-2)"/>
        <path d="M208,0l96,0c9,0 16,7 16,16l0,32l-128,0l0,-32c0,-9 7,-16 16,-16z" id="curve6" fill="url(#color-3)"/>
        <path d="M256,64c123.5,0 224,100.5 224,224c0,123.5 -100.5,224 -224,224c-123.5,0 -224,-100.5 -224,-224c0,-123.5 100.5,-224 224,-224z" id="curve5" fill="url(#color-4)"/>
        <path d="M256,96c106,0 192,86 192,192c0,106 -86,192 -192,192c-106,0 -192,-86 -192,-192c0,-106 86,-192 192,-192z" id="curve4" fill="url(#color-5)"/>
        <path d="M256,112c97,0 176,79 176,176c0,97 -79,176 -176,176c-97,0 -176,-79 -176,-176c0,-97 79,-176 176,-176z" id="curve3" fill="url(#color-6)"/>
        <path d="M272,268.5c9.5,5.5 16,15.5 16,27.5c0,17.5 -14.5,32 -32,32c-17.5,0 -32,-14.5 -32,-32c0,-12 6.5,-22 16,-27.5l0,-140.5c0,-4.5 3.5,-8 8,-8l16,0c4.5,0 8,3.5 8,8z" id="curve2" fill="url(#color-7)"/>
        <path d="M272,260.5c9.5,5.5 16,15.5 16,27.5c0,17.5 -14.5,32 -32,32c-17.5,0 -32,-14.5 -32,-32c0,-12 6.5,-22 16,-27.5l0,-140.5c0,-4.5 3.5,-8 8,-8l16,0c4.5,0 8,3.5 8,8z" id="curve1" fill="url(#color-8)"/>
        <path d="M256,272c9,0 16,7 16,16c0,9 -7,16 -16,16c-9,0 -16,-7 -16,-16c0,-9 7,-16 16,-16z" id="curve0" fill="#d8e0e8"/>
    </g>
</svg>