<svg version="1.1"
    xmlns="http://www.w3.org/2000/svg"
    xmlns:xlink="http://www.w3.org/1999/xlink" width="512" height="512" viewBox="0 0 512 512">
    <title>band aid icon</title>
    <desc>band aid icon from the IconExperience.com G-Collection. Copyright by INCORS GmbH (www.incors.com).</desc>
    <defs>
        <linearGradient x1="25" y1="25" x2="401.5965" y2="453.541" gradientUnits="userSpaceOnUse" id="color-1">
            <stop offset="0" stop-color="#ffbc81"/>
            <stop offset="1" stop-color="#ff8111"/>
        </linearGradient>
        <linearGradient x1="25" y1="25" x2="265" y2="329" gradientUnits="userSpaceOnUse" id="color-2">
            <stop offset="0" stop-color="#ffbc81"/>
            <stop offset="1" stop-color="#ff9a41"/>
        </linearGradient>
        <linearGradient x1="363.625" y1="363.625" x2="159.943" y2="159.944" gradientUnits="userSpaceOnUse" id="color-3">
            <stop offset="0" stop-color="#ffdfc2"/>
            <stop offset="1" stop-color="#ffffff"/>
        </linearGradient>
    </defs>
    <g fill="none" fill-rule="evenodd" stroke="none" stroke-width="1" stroke-linecap="butt" stroke-linejoin="miter" stroke-miterlimit="10" stroke-dasharray="" stroke-dashoffset="0" font-family="none" font-weight="none" text-anchor="none" style="mix-blend-mode: normal">
        <path d="M29.5,120l90.5,-90.5c6.5,-6 16.5,-6 23,0l339.5,339.5c6,6.5 6,16.5 0,23l-90.5,90.5c-6.5,6 -16.5,6 -23,0l-339.5,-339.5c-6,-6.5 -6,-16.5 0,-23z" id="curve2" fill="url(#color-1)"/>
        <path d="M120,482.5l-90.5,-90.5c-6,-6.5 -6,-16.5 0,-23l339.5,-339.5c6.5,-6 16.5,-6 23,0l90.5,90.5c6,6.5 6,16.5 0,23l-339.5,339.5c-6.5,6 -16.5,6 -23,0z" id="curve1" fill="url(#color-2)"/>
        <path d="M358,216.5c-8,-8 -20.5,-8 -28.5,0c-8,7.5 -8,20.5 0,28c8,8 20.5,8 28.5,0c7.5,-7.5 7.5,-20.5 0,-28z M244.5,329.5c-7.5,-8 -20.5,-8 -28,0c-8,8 -8,20.5 0,28.5c7.5,7.5 20.5,7.5 28,0c8,-8 8,-20.5 0,-28.5z M301.5,273c-8,-8 -20.5,-8 -28.5,0c-8,8 -8,20.5 0,28.5c8,7.5 20.5,7.5 28.5,0c7.5,-8 7.5,-20.5 0,-28.5z M295.5,154c-7.5,-7.5 -20.5,-7.5 -28,0c-8,8 -8,20.5 0,28.5c7.5,8 20.5,8 28,0c8,-8 8,-20.5 0,-28.5z M182.5,267.5c-8,-8 -20.5,-8 -28.5,0c-7.5,7.5 -7.5,20.5 0,28c8,8 20.5,8 28.5,0c8,-7.5 8,-20.5 0,-28z M239,210.5c-8,-7.5 -20.5,-7.5 -28.5,0c-7.5,8 -7.5,20.5 0,28.5c8,8 20.5,8 28.5,0c8,-8 8,-20.5 0,-28.5z M295.5,216.5c-7.5,-8 -20.5,-8 -28,0c-8,7.5 -8,20.5 0,28c7.5,8 20.5,8 28,0c8,-7.5 8,-20.5 0,-28z M239,273c-8,-8 -20.5,-8 -28.5,0c-7.5,8 -7.5,20.5 0,28.5c8,7.5 20.5,7.5 28.5,0c8,-8 8,-20.5 0,-28.5z" id="curve0" fill="url(#color-3)"/>
    </g>
</svg>