<svg version="1.1"
    xmlns="http://www.w3.org/2000/svg"
    xmlns:xlink="http://www.w3.org/1999/xlink" width="512" height="512" viewBox="0 0 512 512">
    <title>dictionary icon</title>
    <desc>dictionary icon from the IconExperience.com G-Collection. Copyright by INCORS GmbH (www.incors.com).</desc>
    <defs>
        <linearGradient x1="80" y1="16" x2="160" y2="16" gradientUnits="userSpaceOnUse" id="color-1">
            <stop offset="0" stop-color="#c05a00"/>
            <stop offset="1" stop-color="#ff7901"/>
        </linearGradient>
        <linearGradient x1="432" y1="32" x2="400.0005" y2="480.0002" gradientUnits="userSpaceOnUse" id="color-2">
            <stop offset="0" stop-color="#ffffff"/>
            <stop offset="1" stop-color="#b3c0cd"/>
        </linearGradient>
        <linearGradient x1="48" y1="16" x2="338.23245" y2="496.0002" gradientUnits="userSpaceOnUse" id="color-3">
            <stop offset="0" stop-color="#ff9435"/>
            <stop offset="1" stop-color="#ff7d09"/>
        </linearGradient>
        <linearGradient x1="48" y1="16" x2="113.44295" y2="16.3939" gradientUnits="userSpaceOnUse" id="color-4">
            <stop offset="0" stop-color="#6d7c8b"/>
            <stop offset="1" stop-color="#51616f"/>
        </linearGradient>
        <linearGradient x1="272.5" y1="225.5" x2="322.9105" y2="367.9195" gradientUnits="userSpaceOnUse" id="color-5">
            <stop offset="0" stop-color="#e1e7ed"/>
            <stop offset="0.47843" stop-color="#ffffff"/>
            <stop offset="1" stop-color="#ffffff"/>
        </linearGradient>
        <linearGradient x1="138" y1="144" x2="188.41" y2="286.419" gradientUnits="userSpaceOnUse" id="color-6">
            <stop offset="0" stop-color="#e0e7ed"/>
            <stop offset="0.5098" stop-color="#ffffff"/>
            <stop offset="1" stop-color="#ffffff"/>
        </linearGradient>
    </defs>
    <g fill="none" fill-rule="evenodd" stroke="none" stroke-width="1" stroke-linecap="butt" stroke-linejoin="miter" stroke-miterlimit="10" stroke-dasharray="" stroke-dashoffset="0" font-family="none" font-weight="none" text-anchor="none" style="mix-blend-mode: normal">
        <path d="M448,48c0,138.5 0,277.5 0,416c0,17.5 -14.5,32 -32,32l-272,0c-35,0 -64,-28.5 -64,-64l0,-352c0,-35.5 29,-64 64,-64l272,0c17.5,0 32,14.5 32,32z" id="curve6" fill="url(#color-1)"/>
        <path d="M416,32c9,0 16,7 16,16l0,416c0,9 -7,16 -16,16l-304,0c-35,0 -64,-29 -64,-64l0,-320c0,-35.5 28.5,-64 64,-64z" id="curve5" fill="url(#color-2)"/>
        <path d="M416,48c0,138.5 0,277.5 0,416c0,17.5 -14.5,32 -32,32l-272,0c-35,0 -64,-28.5 -64,-64l0,-352c0,-35.5 28.5,-64 64,-64l272,0c17.5,0 32,14.5 32,32z" id="curve4" fill="url(#color-3)"/>
        <path d="M96,16l32,0l0,480l-32,0c-26.5,0 -48,-21.5 -48,-48l0,-384c0,-26.5 21.5,-48 48,-48z" id="curve3" fill="url(#color-4)"/>
        <path d="M112,16l16,0l0,480l-16,0z" id="curve2" fill="#36414a"/>
        <path d="M316,341.5l68,0l0,26.5l-111,0l0,-18l68,-98l-68.5,0l0,-26.5l111,0l0,17.5z" id="curve1" fill="url(#color-5)"/>
        <path d="M230,260l-47,0l-8,26.5l-37,0l52.5,-142.5l32,0l52.5,142.5l-36.5,0z M191,233.5l31,0l-15.5,-49.5z" id="curve0" fill="url(#color-6)"/>
    </g>
</svg>