<svg version="1.1"
    xmlns="http://www.w3.org/2000/svg"
    xmlns:xlink="http://www.w3.org/1999/xlink" width="512" height="512" viewBox="0 0 512 512">
    <title>music icon</title>
    <desc>music icon from the IconExperience.com G-Collection. Copyright by INCORS GmbH (www.incors.com).</desc>
    <defs>
        <linearGradient x1="0" y1="0" x2="45.71395" y2="405.334" gradientUnits="userSpaceOnUse" id="color-1">
            <stop offset="0" stop-color="#4eb6f2"/>
            <stop offset="1" stop-color="#129eee"/>
        </linearGradient>
        <radialGradient cx="353.18513" cy="353.84952" r="151.31094" fx="353.18513" fy="353.84952" gradientUnits="userSpaceOnUse" id="color-2">
            <stop offset="0" stop-color="#4eb6f2"/>
            <stop offset="1" stop-color="#129eee"/>
        </radialGradient>
        <radialGradient cx="49.4135" cy="417.62683" r="151.31182" fx="49.4135" fy="417.62683" gradientUnits="userSpaceOnUse" id="color-3">
            <stop offset="0" stop-color="#4eb6f2"/>
            <stop offset="1" stop-color="#129eee"/>
        </radialGradient>
    </defs>
    <g fill="none" fill-rule="evenodd" stroke="none" stroke-width="1" stroke-linecap="butt" stroke-linejoin="miter" stroke-miterlimit="10" stroke-dasharray="" stroke-dashoffset="0" font-family="none" font-weight="none" text-anchor="none" style="mix-blend-mode: normal">
        <path d="M392,291c21.5,-5 41,-3.5 56,3.5l0,-191l-272,64.5l0,242c0,42.5 -39.5,87 -88,99c-48.5,12 -88,-12.5 -88,-55c0,-42.5 39.5,-87 88,-99c21.5,-5 41,-3.5 56,3.5l0,-278.5l336,-80l0,346c0,42.5 -39.5,87 -88,99c-48.5,12 -88,-12.5 -88,-55c0,-42.5 39.5,-87 88,-99z" id="curve2" fill="url(#color-1)"/>
        <path d="M480,346c0,42.5 -39.5,87 -88,99c-48.5,12 -88,-12.5 -88,-55c0,-42.5 39.5,-87 88,-99c21.5,-5 41,-3.5 56,3.5c21,11 32,35.5 32,51.5z" id="curve1" fill="url(#color-2)"/>
        <path d="M176,410c0,42.5 -39.5,87 -88,99c-48.5,12 -88,-12.5 -88,-55c0,-42.5 39.5,-87 88,-99c21.5,-5 41,-3.5 56,3.5c23.5,14 32,41.5 32,51.5z" id="curve0" fill="url(#color-3)"/>
    </g>
</svg>