<svg version="1.1"
    xmlns="http://www.w3.org/2000/svg"
    xmlns:xlink="http://www.w3.org/1999/xlink" width="512" height="512" viewBox="0 0 512 512">
    <title>server icon</title>
    <desc>server icon from the IconExperience.com G-Collection. Copyright by INCORS GmbH (www.incors.com).</desc>
    <defs>
        <linearGradient x1="96" y1="0" x2="415.999" y2="0" gradientUnits="userSpaceOnUse" id="color-1">
            <stop offset="0" stop-color="#717f8f"/>
            <stop offset="1" stop-color="#546472"/>
        </linearGradient>
        <linearGradient x1="96" y1="496" x2="230.693" y2="512" gradientUnits="userSpaceOnUse" id="color-2">
            <stop offset="0" stop-color="#5e6b78"/>
            <stop offset="1" stop-color="#54606c"/>
        </linearGradient>
        <linearGradient x1="128" y1="80" x2="383.999" y2="80" gradientUnits="userSpaceOnUse" id="color-3">
            <stop offset="0" stop-color="#6ac2f5"/>
            <stop offset="0.6" stop-color="#41b1f2"/>
            <stop offset="1" stop-color="#17a0ee"/>
        </linearGradient>
    </defs>
    <g fill="none" fill-rule="evenodd" stroke="none" stroke-width="1" stroke-linecap="butt" stroke-linejoin="miter" stroke-miterlimit="10" stroke-dasharray="" stroke-dashoffset="0" font-family="none" font-weight="none" text-anchor="none" style="mix-blend-mode: normal">
        <path d="M112,0l288,0c9,0 16,7 16,16l0,496l-320,0l0,-496c0,-9 7,-16 16,-16z" id="curve4" fill="url(#color-1)"/>
        <path d="M416,496l0,16l-320,0l0,-16z" id="curve3" fill="url(#color-2)"/>
        <path d="M128,80l256,0l0,80l-256,0z M128,176l256,0l0,80l-256,0z M128,272l256,0l0,80l-256,0z M128,368l256,0l0,80l-256,0z" id="curve2" fill="url(#color-3)"/>
        <path d="M176,80l160,0l0,16l-160,0z M176,176l160,0l0,16l-160,0z M176,272l160,0l0,16l-160,0z M176,368l160,0l0,16l-160,0z" id="curve1" fill="#98e957"/>
        <path d="M368,32c9,0 16,7 16,16c0,9 -7,16 -16,16c-9,0 -16,-7 -16,-16c0,-9 7,-16 16,-16z" id="curve0" fill="#98e957"/>
    </g>
</svg>