<svg version="1.1"
    xmlns="http://www.w3.org/2000/svg"
    xmlns:xlink="http://www.w3.org/1999/xlink" width="512" height="512" viewBox="0 0 512 512">
    <title>message icon</title>
    <desc>message icon from the IconExperience.com G-Collection. Copyright by INCORS GmbH (www.incors.com).</desc>
    <defs>
        <linearGradient x1="0.18639" y1="0.01548" x2="406.30189" y2="341.15363" gradientUnits="userSpaceOnUse" id="color-1">
            <stop offset="0" stop-color="#ffd041"/>
            <stop offset="1" stop-color="#ffc001"/>
        </linearGradient>
    </defs>
    <g fill="none" fill-rule="evenodd" stroke="none" stroke-width="1" stroke-linecap="butt" stroke-linejoin="miter" stroke-miterlimit="10" stroke-dasharray="" stroke-dashoffset="0" font-family="none" font-weight="none" text-anchor="none" style="mix-blend-mode: normal">
        <path d="M296,512c8,-32 8,-80 -19.5,-104.5c-9,2.5 -18.5,5 -28.5,6c-110,16 -226.5,-46.5 -245,-158.5c-19,-113.5 59.5,-232.5 197,-252c140.5,-20 285,62 308.5,201.5c25,150 -80.5,272 -212.5,307.5z" id="curve1" fill="url(#color-1)"/>
        <path d="M144,176l224,0l0,16l-224,0z M144,128l224,0l0,16l-224,0z M144,272l224,0l0,16l-224,0z M144,224l224,0l0,16l-224,0z" id="curve0" fill="#ffffff"/>
    </g>


<g transform="translate(256,256) scale(0.5,0.5)">
    <title>pencil icon</title>
    <desc>pencil icon from the IconExperience.com G-Collection. Copyright by INCORS GmbH (www.incors.com).</desc>
    <g fill="none" fill-rule="evenodd" stroke="none" stroke-width="1" stroke-linecap="butt" stroke-linejoin="miter" stroke-miterlimit="10" stroke-dasharray="" stroke-dashoffset="0" font-family="none" font-weight="none" text-anchor="none" style="mix-blend-mode: normal">
        <path d="M341,100l84.5,84.5l0,6l-260,260l-60,-30.5l-30.5,-60l260,-260z" id="curve9" fill="#00aeee"/>
        <path d="M383.5,142l42,42.5l0,6l-260,260l-60,-30.5z" id="curve8" fill="#0094d2"/>
        <path d="M165.5,450.5l-93,43l-45.5,5l5,-45.5l43,-93z" id="curve7" fill="#fddf88"/>
        <path d="M165.5,450.5l-93,43l-45.5,5l93,-93z" id="curve6" fill="#f8c857"/>
        <path d="M32,453l40.5,40.5l-37.5,17.5c-6,2.5 -12,0.5 -16.5,-4c-4.5,-4.5 -6.5,-10.5 -4,-16.5z" id="curve5" fill="#5f5f5f"/>
        <path d="M18.5,507l34,-34l20,20.5l-37.5,17.5c-6,2.5 -12,0.5 -16.5,-4z" id="curve4" fill="#373737"/>
        <path d="M437,20.5l68,68c6,6 6,16.5 0,22.5l-56.5,56.5l-90.5,-90.5l56.5,-56.5c6,-6 16.5,-6 22.5,0z" id="curve3" fill="#dd5803"/>
        <path d="M471,54.5l34,34c6,6 6,16.5 0,22.5l-56.5,56.5l-45.5,-45z" id="curve2" fill="#c03f00"/>
        <path d="M358,77l90.5,90.5l-23,23l-90.5,-90.5z" id="curve1" fill="#ffffff"/>
        <path d="M403,122.5l45.5,45l-23,23l-45,-45.5z" id="curve0" fill="#d7d7d7"/>
    </g>
</g>

</svg>
