<svg version="1.1"
    xmlns="http://www.w3.org/2000/svg"
    xmlns:xlink="http://www.w3.org/1999/xlink" width="512" height="512" viewBox="0 0 512 512">
    <title>network node icon</title>
    <desc>network node icon from the IconExperience.com G-Collection. Copyright by INCORS GmbH (www.incors.com).</desc>
    <defs>
        <linearGradient x1="32" y1="32" x2="342.1543" y2="480.00035" gradientUnits="userSpaceOnUse" id="color-1">
            <stop offset="0" stop-color="#8d9cab"/>
            <stop offset="1" stop-color="#748292"/>
        </linearGradient>
        <linearGradient x1="128" y1="128" x2="128" y2="341.332" gradientUnits="userSpaceOnUse" id="color-2">
            <stop offset="0" stop-color="#ffd041"/>
            <stop offset="1" stop-color="#ffc001"/>
        </linearGradient>
        <linearGradient x1="400" y1="224" x2="399.663" y2="287.9995" gradientUnits="userSpaceOnUse" id="color-3">
            <stop offset="0" stop-color="#717f8f"/>
            <stop offset="1" stop-color="#546372"/>
        </linearGradient>
        <linearGradient x1="224" y1="400" x2="278.874" y2="399.938" gradientUnits="userSpaceOnUse" id="color-4">
            <stop offset="0" stop-color="#717f8f"/>
            <stop offset="1" stop-color="#596977"/>
        </linearGradient>
    </defs>
    <g fill="none" fill-rule="evenodd" stroke="none" stroke-width="1" stroke-linecap="butt" stroke-linejoin="miter" stroke-miterlimit="10" stroke-dasharray="" stroke-dashoffset="0" font-family="none" font-weight="none" text-anchor="none" style="mix-blend-mode: normal">
        <path d="M224,32l64,0l0,192l192,0l0,64l-192,0l0,192l-64,0l0,-192l-192,0l0,-64l192,0z" id="curve3" fill="url(#color-1)"/>
        <path d="M224,128l64,0c9,0 16,7 16,16l0,48l0,0c9,0 16,7 16,16l48,0c9,0 16,7 16,16l0,64c0,9 -7,16 -16,16l-48,0l0,0c0,9 -7,16 -16,16l0,0l0,48c0,9 -7,16 -16,16l-64,0c-9,0 -16,-7 -16,-16l0,-48c-9,0 -16,-7 -16,-16l0,0l-48,0c-9,0 -16,-7 -16,-16l0,-64c0,-9 7,-16 16,-16l48,0c0,-9 7,-16 16,-16l0,-48c0,-9 7,-16 16,-16z" id="curve2" fill="url(#color-2)"/>
        <path d="M384,224l16,0l0,64l-16,0z" id="curve1" fill="url(#color-3)"/>
        <path d="M224,400l64,0l0,-16l-64,0z" id="curve0" fill="url(#color-4)"/>
    </g>
</svg>