<svg version="1.1"
    xmlns="http://www.w3.org/2000/svg"
    xmlns:xlink="http://www.w3.org/1999/xlink" width="512" height="512" viewBox="0 0 512 512">
    <title>armour icon</title>
    <desc>armour icon from the IconExperience.com G-Collection. Copyright by INCORS GmbH (www.incors.com).</desc>
    <defs>
        <linearGradient x1="80" y1="368" x2="100.6275" y2="402.3565" gradientUnits="userSpaceOnUse" id="color-1">
            <stop offset="0" stop-color="#717f8f"/>
            <stop offset="1" stop-color="#5b6a79"/>
        </linearGradient>
        <linearGradient x1="115" y1="368" x2="307.3555" y2="432.1185" gradientUnits="userSpaceOnUse" id="color-2">
            <stop offset="0" stop-color="#6f7d8d"/>
            <stop offset="1" stop-color="#596977"/>
        </linearGradient>
        <radialGradient cx="147.10477" cy="161.21271" r="383.44664" fx="147.10477" fy="161.21271" gradientUnits="userSpaceOnUse" id="color-3">
            <stop offset="0" stop-color="#ffd041"/>
            <stop offset="0.45882" stop-color="#ffc001"/>
            <stop offset="1" stop-color="#c08300"/>
        </radialGradient>
        <linearGradient x1="90" y1="41.42393" x2="226.024" y2="117.25918" gradientUnits="userSpaceOnUse" id="color-4">
            <stop offset="0" stop-color="#fff0c1"/>
            <stop offset="1" stop-color="#ffdc71"/>
        </linearGradient>
        <linearGradient x1="47.25856" y1="5.5" x2="96.75906" y2="90.0002" gradientUnits="userSpaceOnUse" id="color-5">
            <stop offset="0" stop-color="#717f8f"/>
            <stop offset="1" stop-color="#51616f"/>
        </linearGradient>
        <linearGradient x1="362.25889" y1="5.5" x2="411.75939" y2="90.0002" gradientUnits="userSpaceOnUse" id="color-6">
            <stop offset="0" stop-color="#717f8f"/>
            <stop offset="1" stop-color="#51616f"/>
        </linearGradient>
    </defs>
    <g fill="none" fill-rule="evenodd" stroke="none" stroke-width="1" stroke-linecap="butt" stroke-linejoin="miter" stroke-miterlimit="10" stroke-dasharray="" stroke-dashoffset="0" font-family="none" font-weight="none" text-anchor="none" style="mix-blend-mode: normal">
        <path d="M263.5,436.5l10,34.5c2,6 8.5,9 14.5,9l81,0l63,0c0,-48 -25.5,-101 -48,-112l-256,0c-22.5,11 -48,64 -48,112l63,0l81,0c6,0 12.5,-3 14.5,-9l10,-34.5c1,-3 4.5,-4.5 7.5,-4.5c3,0 6.5,1.5 7.5,4.5z" id="curve7" fill="url(#color-1)"/>
        <path d="M396.5,378.5c-4,-5 -8.5,-8.5 -12.5,-10.5l-256,0c-4,2 -8.5,5.5 -13,10.5l0.5,0.5l3.5,2.5c36.5,24 91,39.5 133,50l2.5,0.5c0.5,0 1,0 1.5,0c0.5,0 1,0 1.5,0l2.5,-0.5c42,-10.5 96.5,-26 133,-50l3.5,-2.5z" id="curve6" fill="url(#color-2)"/>
        <path d="M256,416c-64,-16 -104,-32 -128,-48c-32,-64 -48,-128 -48,-208c0,-36 3.5,-71.5 10,-106c2.5,-12.5 13,-15 22,-6c32,32 80,64 144,64c64,0 112,-32 144,-64c4.5,-4.5 5.5,-8 11,-6c6,1.5 10,6.5 11,12c6.5,34.5 10,70 10,106c0,80 -16,144 -48,208c-24,16 -64,32 -128,48z" id="curve5" fill="url(#color-3)"/>
        <path d="M90,54.5c2.5,-13 13,-15.5 22,-6.5c32,32 80,64 144,64c64,0 112,-32 144,-64c4.5,-4.5 5.5,-8 11,-6c6,1.5 10,6.5 11,12c-1,-5.5 -5,-5.5 -11,-7.5c-5.5,-1.5 -6.5,2 -11,6.5c-32,32 -80,64 -144,64c-64,0 -112,-32 -144,-64c-9,-9.5 -19.5,-11 -22,1.5z" id="curve4" fill="url(#color-4)"/>
        <path d="M51,30.5l42,-24c3.5,-2 8.5,-1 10.5,3l44,76c4.5,7.5 2,17.5 -5.5,22l-28,16c-7.5,4.5 -17.5,1.5 -21.5,-6l-44,-76c-2.5,-4 -1,-9 2.5,-11z" id="curve3" fill="url(#color-5)"/>
        <path d="M461,30.5l-42,-24c-3.5,-2 -8.5,-1 -10.5,3l-44,76c-4.5,7.5 -2,17.5 5.5,22l28,16c7.5,4.5 17.5,1.5 21.5,-6l44,-76c2.5,-4 1,-9 -2.5,-11z" id="curve2" fill="url(#color-6)"/>
        <path d="M104,74c7.5,-4.5 17.5,-2 22,6c4,7.5 1.5,17 -6,21.5c-7.5,4.5 -17.5,2 -22,-5.5c-4.5,-8 -1.5,-17.5 6,-22z" id="curve1" fill="#d8e0e8"/>
        <path d="M392,101.5c7.5,4.5 17.5,2 22,-6c4.5,-7.5 1.5,-17 -6,-21.5c-7.5,-4.5 -17.5,-2 -22,5.5c-4,8 -1.5,17.5 6,22z" id="curve0" fill="#d8e0e8"/>
    </g>
</svg>