<svg version="1.1"
    xmlns="http://www.w3.org/2000/svg"
    xmlns:xlink="http://www.w3.org/1999/xlink" width="512" height="512" viewBox="0 0 512 512">
    <title>paperclip icon</title>
    <desc>paperclip icon from the IconExperience.com G-Collection. Copyright by INCORS GmbH (www.incors.com).</desc>
    <defs>
        <linearGradient x1="15.5" y1="32.5" x2="319.5005" y2="352.499" gradientUnits="userSpaceOnUse" id="color-1">
            <stop offset="0" stop-color="#4eb6f2"/>
            <stop offset="0.30196" stop-color="#129eee"/>
            <stop offset="0.58823" stop-color="#129ceb"/>
            <stop offset="1" stop-color="#0e76b2"/>
        </linearGradient>
    </defs>
    <g fill="url(#color-1)" fill-rule="nonzero" stroke="none" stroke-width="1" stroke-linecap="butt" stroke-linejoin="miter" stroke-miterlimit="10" stroke-dasharray="" stroke-dashoffset="0" font-family="none" font-weight="none" text-anchor="none" style="mix-blend-mode: normal">
        <path d="M51.5,444c-48,-48.5 -48,-127 0,-175.5l211,-213.5l25,25l-211,213.5c-34.5,34.5 -34.5,91 0,125.5c34,34.5 89.5,34.5 124,0l242,-245c24,-24 24,-63.5 0,-88c-24,-24 -63,-24 -87,0l-192.5,195c-13.5,13.5 -13.5,36 0,50c14,14 36,14 50,0l161,-163l25,25l-161.5,163c-27,28 -71.5,28 -99,0c-27.5,-27.5 -27.5,-72.5 0,-100.5l192.5,-194.5c37.5,-38 98.5,-38 136.5,0c37.5,38 37.5,100 0,138l-242,245c-48,48.5 -126,48.5 -174,0z" id="curve0"/>
    </g>
</svg>