<svg version="1.1"
    xmlns="http://www.w3.org/2000/svg"
    xmlns:xlink="http://www.w3.org/1999/xlink" width="512" height="512" viewBox="0 0 512 512">
    <title>gearwheels icon</title>
    <desc>gearwheels icon from the IconExperience.com G-Collection. Copyright by INCORS GmbH (www.incors.com).</desc>
    <defs>
        <linearGradient x1="1.5" y1="151.32577" x2="260.6754" y2="479.37327" gradientUnits="userSpaceOnUse" id="color-1">
            <stop offset="0" stop-color="#4eb6f2"/>
            <stop offset="1" stop-color="#129eee"/>
        </linearGradient>
        <linearGradient x1="64" y1="208" x2="200.641" y2="385.181" gradientUnits="userSpaceOnUse" id="color-2">
            <stop offset="0" stop-color="#c5e7fb"/>
            <stop offset="1" stop-color="#c5e7fb"/>
        </linearGradient>
        <linearGradient x1="257.62783" y1="7.37722" x2="436.33183" y2="233.60677" gradientUnits="userSpaceOnUse" id="color-3">
            <stop offset="0" stop-color="#91a0af"/>
            <stop offset="1" stop-color="#717f8f"/>
        </linearGradient>
        <linearGradient x1="304" y1="48" x2="407.2575" y2="177.9025" gradientUnits="userSpaceOnUse" id="color-4">
            <stop offset="0" stop-color="#d8e0e8"/>
            <stop offset="1" stop-color="#b3c0cd"/>
        </linearGradient>
    </defs>
    <g fill="none" fill-rule="nonzero" stroke="none" stroke-width="1" stroke-linecap="butt" stroke-linejoin="miter" stroke-miterlimit="10" stroke-dasharray="" stroke-dashoffset="0" font-family="none" font-weight="none" text-anchor="none" style="mix-blend-mode: normal">
        <path d="M200.5,184.5l21.5,-30.5c1,-1.5 2,-2 4,-2.5c7.5,-0.5 14.5,0 21,2.5c6.5,2.5 12.5,6.5 18,12c1,1 1.5,2.5 1.5,4.5l-3.5,36.5c0,4 1.5,7.5 4.5,10c4,3 7,6 10.5,9c3,2.5 7,3.5 11,2.5l35.5,-9.5c1.5,-0.5 3,0 4.5,1c6.5,4 11.5,9 15,15c3.5,6 5.5,13 6,20.5c0,2 -0.5,3.5 -2,4.5l-26,26c-3,3 -4,7 -3,11c1,4 2,8.5 2.5,13c0.5,4 2.5,7.5 6.5,9l33,15.5c2,1 3,2 3.5,3.5c2,7.5 2.5,14.5 1.5,21.5c-1.5,7 -4.5,13.5 -9,19.5c-1,1.5 -2.5,2 -4,2.5l-36.5,3c-4,0.5 -7.5,2.5 -9.5,6c-2,4 -4,8 -6.5,12c-2.5,3.5 -2.5,7.5 -1,11l15.5,33.5c1,1.5 1,3 0,4.5c-3,7 -7,13 -12.5,17.5c-5,4.5 -11.5,7.5 -19,9c-1.5,0.5 -3.5,0.5 -4.5,-0.5l-30.5,-21c-3,-2.5 -7,-3 -11,-1.5c-4,2 -8,3.5 -12.5,4.5c-4,1.5 -6.5,4.5 -8,8l-9.5,35.5c0,2 -1,3 -3,4c-6.5,3.5 -13.5,5 -20.5,5c-7,0 -14,-1.5 -20.5,-5c-2,-1 -3,-2 -3,-4l-9.5,-35.5c-1.5,-3.5 -4,-6.5 -8,-8c-4.5,-1 -8.5,-2.5 -12.5,-4.5c-4,-1.5 -8,-1 -11,1.5l-30.5,21c-1,1 -3,1 -4.5,0.5c-7.5,-1.5 -14,-4.5 -19,-9c-5.5,-4.5 -9.5,-10.5 -12.5,-17.5c-1,-1.5 -1,-3 0,-4.5l15.5,-33.5c1.5,-3.5 1.5,-7.5 -1,-11c-2.5,-4 -4.5,-8 -6.5,-12c-2,-3.5 -5.5,-5.5 -9.5,-6l-36.5,-3c-1.5,-0.5 -3,-1 -4,-2.5c-4.5,-6 -7.5,-12.5 -9,-19.5c-1,-7 -0.5,-14 1.5,-21.5c0.5,-1.5 1.5,-2.5 3.5,-3.5l33,-15.5c4,-1.5 6,-5 6.5,-9c0.5,-4.5 1.5,-9 2.5,-13c1,-4 0,-8 -3,-11l-26,-26c-1.5,-1 -2,-2.5 -2,-4.5c0.5,-7.5 2.5,-14.5 6,-20.5c3.5,-6 8.5,-11 15,-15c1.5,-1 3,-1.5 4.5,-1l35.5,9.5c4,1 8,0 11,-2.5c3.5,-3 6.5,-6 10.5,-9c3,-2.5 4.5,-6 4.5,-10l-3.5,-36.5c0,-2 0.5,-3.5 1.5,-4.5c5.5,-5.5 11.5,-9.5 18,-12c6.5,-2.5 13.5,-3 21,-2.5c2,0.5 3,1 4,2.5l21.5,30.5c2,3 5.5,5 10,4.5c4.5,0 8.5,0 13,0c4.5,0.5 8,-1.5 10,-4.5z M184,272c-31,0 -56,25 -56,56c0,31 25,56 56,56c31,0 56,-25 56,-56c0,-31 -25,-56 -56,-56z" id="curve3" fill="url(#color-1)"/>
        <path d="M184,208c66.5,0 120,53.5 120,120c0,66.5 -53.5,120 -120,120c-66.5,0 -120,-53.5 -120,-120c0,-66.5 53.5,-120 120,-120z M184,256c-40,0 -72,32 -72,72c0,40 32,72 72,72c40,0 72,-32 72,-72c0,-40 -32,-72 -72,-72z" id="curve2" fill="url(#color-2)"/>
        <path d="M385,40c2,-0.5 3,-2 4.5,-3l22,-27.5c1,-1.5 2,-2 4,-2c7,-0.5 14,0.5 20,3.5c6,2.5 11.5,6.5 16,12c1,1.5 1.5,3 1.5,4.5l-5.5,35c0,1.5 0,3.5 0.5,5c2,2 4,4.5 5.5,6.5c1.5,1 3.5,1.5 5,1.5l35,0c2,0 3.5,0.5 4.5,2c4.5,5 8,11 9.5,17.5c2,6.5 2,13.5 0.5,20.5c0,1.5 -1,3 -2.5,4l-30.5,17.5c-1.5,0.5 -3,2 -4,3.5c-0.5,2.5 -1,5.5 -1.5,8.5c0.5,1.5 1,3 2,4.5l22,27.5c1,1.5 1.5,3 1,4.5c-1,7 -3.5,13.5 -7.5,19c-4,5 -9.5,9.5 -16,13c-1.5,0.5 -3,0.5 -4.5,0l-32.5,-13c-2,-0.5 -3.5,-1 -5.5,-0.5c-2.5,1.5 -5,2.5 -7.5,4c-1,1 -2,2.5 -2,4.5l-8,34c-0.5,2 -1.5,3 -3,4c-6.5,3.5 -13,5 -19.5,5.5c-6.5,0 -13.5,-1 -20,-4c-1.5,-1 -2.5,-2 -3,-3.5l-10.5,-34c-0.5,-1.5 -1,-3 -2.5,-4.5c-2.5,-1 -5,-2 -8,-3.5c-1.5,0 -3,0.5 -5,1.5l-31.5,15c-1.5,0.5 -3,1 -4.5,0c-7,-2.5 -12.5,-6.5 -16.5,-11.5c-4.5,-5.5 -7.5,-11.5 -9.5,-18.5c-0.5,-1.5 0,-3 1,-4.5l20,-29c1,-1.5 1.5,-3 1.5,-4.5c-0.5,-3 -1.5,-6 -2,-8.5c-1,-1.5 -2.5,-2.5 -4,-3.5l-31.5,-15c-1.5,-1 -2.5,-2 -3,-4c-2,-6.5 -2.5,-13.5 -1,-20c1,-6.5 4,-13 8,-18.5c1.5,-1.5 2.5,-2 4.5,-2.5l35,-2.5c1.5,0 3.5,-0.5 5,-1.5c1.5,-2.5 3,-4.5 5,-7c0.5,-1.5 0.5,-3 0,-5l-7.5,-34.5c-0.5,-1.5 -0.5,-3 0.5,-4.5c4.5,-5.5 9.5,-10 15.5,-13.5c6,-3 12.5,-4.5 19.5,-4.5c2,-0.5 3.5,0.5 4.5,1.5l24,26c1,1 2.5,2 4,3c3,-0.5 6,-0.5 8.5,-0.5z M384,96c-17.5,0 -32,14.5 -32,32c0,17.5 14.5,32 32,32c17.5,0 32,-14.5 32,-32c0,-17.5 -14.5,-32 -32,-32z" id="curve1" fill="url(#color-3)"/>
        <path d="M384,48c44,0 80,36 80,80c0,44 -36,80 -80,80c-44,0 -80,-36 -80,-80c0,-44 36,-80 80,-80z M384,80c-26.5,0 -48,21.5 -48,48c0,26.5 21.5,48 48,48c26.5,0 48,-21.5 48,-48c0,-26.5 -21.5,-48 -48,-48z" id="curve0" fill="url(#color-4)"/>
    </g>
</svg>