<svg version="1.1"
    xmlns="http://www.w3.org/2000/svg"
    xmlns:xlink="http://www.w3.org/1999/xlink" width="512" height="512" viewBox="0 0 512 512">
    <title>first aid box icon</title>
    <desc>first aid box icon from the IconExperience.com G-Collection. Copyright by INCORS GmbH (www.incors.com).</desc>
    <defs>
        <linearGradient x1="64" y1="448" x2="374.8585" y2="512" gradientUnits="userSpaceOnUse" id="color-1">
            <stop offset="0" stop-color="#657281"/>
            <stop offset="1" stop-color="#434f59"/>
        </linearGradient>
        <linearGradient x1="32" y1="32" x2="479.9998" y2="480.00035" gradientUnits="userSpaceOnUse" id="color-2">
            <stop offset="0" stop-color="#91a0af"/>
            <stop offset="1" stop-color="#728090"/>
        </linearGradient>
        <linearGradient x1="64" y1="64" x2="442.2175" y2="449.398" gradientUnits="userSpaceOnUse" id="color-3">
            <stop offset="0" stop-color="#ffffff"/>
            <stop offset="0.67843" stop-color="#edf1f4"/>
            <stop offset="1" stop-color="#dae2e9"/>
        </linearGradient>
        <linearGradient x1="112" y1="112" x2="373.0885" y2="329.353" gradientUnits="userSpaceOnUse" id="color-4">
            <stop offset="0" stop-color="#ef5c51"/>
            <stop offset="1" stop-color="#c22f24"/>
        </linearGradient>
    </defs>
    <g fill="none" fill-rule="none" stroke="none" stroke-width="1" stroke-linecap="butt" stroke-linejoin="miter" stroke-miterlimit="10" stroke-dasharray="" stroke-dashoffset="0" font-family="none" font-weight="none" text-anchor="none" style="mix-blend-mode: normal">
        <path d="M64,448l384,0l0,64l-384,0z" id="curve3" fill="url(#color-1)" fill-rule="evenodd"/>
        <path d="M48,32l416,0c9,0 16,7 16,16l0,416c0,9 -7,16 -16,16l-416,0c-9,0 -16,-7 -16,-16l0,-416c0,-9 7,-16 16,-16z" id="curve2" fill="url(#color-2)" fill-rule="evenodd"/>
        <path d="M64,64l384,0l0,384l-384,0z" id="curve1" fill="url(#color-3)" fill-rule="evenodd"/>
        <path d="M112,304l0,-96l96,0l0,-96l96,0l0,96l96,0l0,96l-96,0l0,96l-96,0l0,-96z" id="curve0" fill="url(#color-4)" fill-rule="nonzero"/>
    </g>
</svg>