<svg version="1.1"
    xmlns="http://www.w3.org/2000/svg"
    xmlns:xlink="http://www.w3.org/1999/xlink" width="512" height="512" viewBox="0 0 512 512">
    <title>chart bar icon</title>
    <desc>chart bar icon from the IconExperience.com G-Collection. Copyright by INCORS GmbH (www.incors.com).</desc>
    <defs>
        <linearGradient x1="32" y1="32" x2="431.5678" y2="480.00035" gradientUnits="userSpaceOnUse" id="color-1">
            <stop offset="0" stop-color="#6d7b8b"/>
            <stop offset="1" stop-color="#556473"/>
        </linearGradient>
        <linearGradient x1="32" y1="32" x2="464.0002" y2="480" gradientUnits="userSpaceOnUse" id="color-2">
            <stop offset="0" stop-color="#51616f"/>
            <stop offset="1" stop-color="#36414a"/>
        </linearGradient>
        <linearGradient x1="32" y1="96" x2="217.2071" y2="139.9205" gradientUnits="userSpaceOnUse" id="color-3">
            <stop offset="0" stop-color="#4eb6f2"/>
            <stop offset="1" stop-color="#2ba8f0"/>
        </linearGradient>
        <linearGradient x1="32" y1="192" x2="216.275" y2="235.6995" gradientUnits="userSpaceOnUse" id="color-4">
            <stop offset="0" stop-color="#4eb6f2"/>
            <stop offset="1" stop-color="#2da9f0"/>
        </linearGradient>
        <linearGradient x1="32" y1="288" x2="220.1003" y2="332.6065" gradientUnits="userSpaceOnUse" id="color-5">
            <stop offset="0" stop-color="#4eb6f2"/>
            <stop offset="1" stop-color="#27a6ef"/>
        </linearGradient>
        <linearGradient x1="32" y1="384" x2="224.2958" y2="429.601" gradientUnits="userSpaceOnUse" id="color-6">
            <stop offset="0" stop-color="#4eb6f2"/>
            <stop offset="1" stop-color="#1ea3ef"/>
        </linearGradient>
        <linearGradient x1="32" y1="80" x2="242.0378" y2="128" gradientUnits="userSpaceOnUse" id="color-7">
            <stop offset="0" stop-color="#ffcf3d"/>
            <stop offset="1" stop-color="#ffc516"/>
        </linearGradient>
        <linearGradient x1="32" y1="176" x2="242.0393" y2="224.0005" gradientUnits="userSpaceOnUse" id="color-8">
            <stop offset="0" stop-color="#ffcf3d"/>
            <stop offset="1" stop-color="#ffc619"/>
        </linearGradient>
        <linearGradient x1="32" y1="272" x2="242.0373" y2="320" gradientUnits="userSpaceOnUse" id="color-9">
            <stop offset="0" stop-color="#ffcf3d"/>
            <stop offset="1" stop-color="#ffc412"/>
        </linearGradient>
        <linearGradient x1="32" y1="368" x2="242.0368" y2="416" gradientUnits="userSpaceOnUse" id="color-10">
            <stop offset="0" stop-color="#ffcf3d"/>
            <stop offset="1" stop-color="#ffc71c"/>
        </linearGradient>
    </defs>
    <g fill="none" fill-rule="none" stroke="none" stroke-width="1" stroke-linecap="butt" stroke-linejoin="miter" stroke-miterlimit="10" stroke-dasharray="" stroke-dashoffset="0" font-family="none" font-weight="none" text-anchor="none" style="mix-blend-mode: normal">
        <path d="M64,32l384,0c17.5,0 32,14.5 32,32l0,384c0,17.5 -14.5,32 -32,32l-384,0c-17.5,0 -32,-14.5 -32,-32l0,-384c0,-17.5 14.5,-32 32,-32z" id="curve9" fill="url(#color-1)" fill-rule="evenodd"/>
        <path d="M112,480l0,-80l-80,0l0,-16l80,0l0,-80l-80,0l0,-16l80,0l0,-80l-80,0l0,-16l80,0l0,-80l-80,0l0,-16l80,0l0,-64l16,0l0,64l80,0l0,-64l16,0l0,64l80,0l0,-64l16,0l0,64l80,0l0,-64l16,0l0,64l64,0l0,16l-64,0l0,80l64,0l0,16l-64,0l0,80l64,0l0,16l-64,0l0,80l64,0l0,16l-64,0l0,80l-16,0l0,-80l-80,0l0,80l-16,0l0,-80l-80,0l0,80l-16,0l0,-80l-80,0l0,80z M128,112l0,80l80,0l0,-80z M128,208l0,80l80,0l0,-80z M128,304l0,80l80,0l0,-80z M400,112l-80,0l0,80l80,0z M304,112l-80,0l0,80l80,0z M224,384l80,0l0,-80l-80,0z M320,384l80,0l0,-80l-80,0z M224,288l80,0l0,-80l-80,0z M320,288l80,0l0,-80l-80,0z" id="curve8" fill="url(#color-2)" fill-rule="evenodd"/>
        <path d="M416,96l0,48l-384,0l0,-48z" id="curve7" fill="url(#color-3)" fill-rule="nonzero"/>
        <path d="M432,192l0,48l-400,0l0,-48z" id="curve6" fill="url(#color-4)" fill-rule="nonzero"/>
        <path d="M368,288l0,48l-336,0l0,-48z" id="curve5" fill="url(#color-5)" fill-rule="nonzero"/>
        <path d="M304,384l0,48l-272,0l0,-48z" id="curve4" fill="url(#color-6)" fill-rule="nonzero"/>
        <path d="M352,80l0,48l-320,0l0,-48z" id="curve3" fill="url(#color-7)" fill-rule="evenodd"/>
        <path d="M384,176l0,48l-352,0l0,-48z" id="curve2" fill="url(#color-8)" fill-rule="evenodd"/>
        <path d="M320,272l0,48l-288,0l0,-48z" id="curve1" fill="url(#color-9)" fill-rule="evenodd"/>
        <path d="M416,368l0,48l-384,0l0,-48z" id="curve0" fill="url(#color-10)" fill-rule="evenodd"/>
    </g>
</svg>