<svg version="1.1"
    xmlns="http://www.w3.org/2000/svg"
    xmlns:xlink="http://www.w3.org/1999/xlink" width="512" height="512" viewBox="0 0 512 512">
    <title>window sidebar icon</title>
    <desc>window sidebar icon from the IconExperience.com G-Collection. Copyright by INCORS GmbH (www.incors.com).</desc>
    <defs>
        <linearGradient x1="0" y1="64" x2="272" y2="336.0005" gradientUnits="userSpaceOnUse" id="color-1">
            <stop offset="0" stop-color="#3eb0f1"/>
            <stop offset="1" stop-color="#129eee"/>
        </linearGradient>
        <linearGradient x1="0" y1="128" x2="153.8695" y2="464.0005" gradientUnits="userSpaceOnUse" id="color-2">
            <stop offset="0" stop-color="#e1f2fd"/>
            <stop offset="1" stop-color="#cceafb"/>
        </linearGradient>
        <linearGradient x1="352" y1="112" x2="368" y2="127.9995" gradientUnits="userSpaceOnUse" id="color-3">
            <stop offset="0" stop-color="#1ea3ef"/>
            <stop offset="1" stop-color="#1ba2ef"/>
        </linearGradient>
        <linearGradient x1="368" y1="128" x2="511.9995" y2="344.0005" gradientUnits="userSpaceOnUse" id="color-4">
            <stop offset="0" stop-color="#cdd6e0"/>
            <stop offset="1" stop-color="#bcc8d4"/>
        </linearGradient>
        <linearGradient x1="384" y1="144" x2="481.067" y2="256.0005" gradientUnits="userSpaceOnUse" id="color-5">
            <stop offset="0" stop-color="#fafbfc"/>
            <stop offset="1" stop-color="#e8edf1"/>
        </linearGradient>
        <linearGradient x1="384" y1="288" x2="486.906" y2="416.6325" gradientUnits="userSpaceOnUse" id="color-6">
            <stop offset="0" stop-color="#94a2b0"/>
            <stop offset="1" stop-color="#7f8d9c"/>
        </linearGradient>
    </defs>
    <g fill="none" fill-rule="none" stroke="none" stroke-width="1" stroke-linecap="butt" stroke-linejoin="miter" stroke-miterlimit="10" stroke-dasharray="" stroke-dashoffset="0" font-family="none" font-weight="none" text-anchor="none" style="mix-blend-mode: normal">
        <path d="M512,80l0,384l-512,0l0,-384c0,-9 7,-16 16,-16l480,0c9,0 16,7 16,16z" id="curve6" fill="url(#color-1)" fill-rule="nonzero"/>
        <path d="M0,128l512,0l0,336l-512,0z" id="curve5" fill="url(#color-2)" fill-rule="nonzero"/>
        <path d="M464,80c9,0 16,7 16,16c0,9 -7,16 -16,16c-9,0 -16,-7 -16,-16c0,-9 7,-16 16,-16z M416,80c9,0 16,7 16,16c0,9 -7,16 -16,16c-9,0 -16,-7 -16,-16c0,-9 7,-16 16,-16z" id="curve4" fill="#ffffff" fill-rule="nonzero"/>
        <path d="M352,112l16,0l0,352l-16,0z" id="curve3" fill="url(#color-3)" fill-rule="nonzero"/>
        <path d="M368,128l144,0l0,336l-144,0z" id="curve2" fill="url(#color-4)" fill-rule="evenodd"/>
        <path d="M440,144c31,0 56,25 56,56c0,31 -25,56 -56,56c-31,0 -56,-25 -56,-56c0,-31 25,-56 56,-56z" id="curve1" fill="url(#color-5)" fill-rule="evenodd"/>
        <path d="M384,288l112,0l0,32l-112,0z M384,336l112,0l0,32l-112,0z M384,384.5l112,0l0,32l-112,0z" id="curve0" fill="url(#color-6)" fill-rule="evenodd"/>
    </g>
</svg>