<svg version="1.1"
    xmlns="http://www.w3.org/2000/svg"
    xmlns:xlink="http://www.w3.org/1999/xlink" width="512" height="512" viewBox="0 0 512 512">
    <title>text tree icon</title>
    <desc>text tree icon from the IconExperience.com G-Collection. Copyright by INCORS GmbH (www.incors.com).</desc>
    <defs>
        <linearGradient x1="64" y1="0" x2="359.822" y2="512.00059" gradientUnits="userSpaceOnUse" id="color-1">
            <stop offset="0" stop-color="#f3fafe"/>
            <stop offset="1" stop-color="#cae9fb"/>
        </linearGradient>
    </defs>
    <g fill="none" fill-rule="evenodd" stroke="none" stroke-width="1" stroke-linecap="butt" stroke-linejoin="miter" stroke-miterlimit="10" stroke-dasharray="" stroke-dashoffset="0" font-family="none" font-weight="none" text-anchor="none" style="mix-blend-mode: normal">
        <path d="M64,0l384,0l0,512l-384,0z" id="curve2" fill="url(#color-1)"/>
        <path d="M208,64l128,0l0,16l-128,0z M400,224l-128,0l0,-16l128,0z M240,160l128,0l0,16l-128,0z M336,128l-128,0l0,-16l128,0z M400,416l-128,0l0,-16l128,0z M272,448l128,0l0,16l-128,0z M208,256l128,0l0,16l-128,0z M368,320l-128,0l0,-16l128,0z M368,368l-128,0l0,-16l128,0z" id="curve1" fill="#717f8f"/>
        <path d="M128,272l-32,0l0,-240l16,0l0,32l64,0l0,16l-64,0l0,32l64,0l0,16l-32,0l0,32l64,0l0,16l-32,0l0,32l64,0l0,16l-80,0l0,-48l-32,0l0,-48l-16,0l0,128l64,0l0,16l-32,0l0,32l64,0l0,16l-64,0l0,32l64,0l0,16l-32,0l0,32l64,0l0,16l-64,0l0,32l64,0l0,16l-80,0l0,-96l-32,0z" id="curve0" fill="#4eb6f2"/>
    </g>
</svg>