<svg version="1.1"
    xmlns="http://www.w3.org/2000/svg"
    xmlns:xlink="http://www.w3.org/1999/xlink" width="512" height="512" viewBox="0 0 512 512">
    <title>sort az ascending icon</title>
    <desc>sort az ascending icon from the IconExperience.com G-Collection. Copyright by INCORS GmbH (www.incors.com).</desc>
    <defs>
        <linearGradient x1="16" y1="0" x2="208.0001" y2="448.0001" gradientUnits="userSpaceOnUse" id="color-1">
            <stop offset="0" stop-color="#129eee"/>
            <stop offset="1" stop-color="#0e76b2"/>
        </linearGradient>
    </defs>
    <g fill="none" fill-rule="evenodd" stroke="none" stroke-width="1" stroke-linecap="butt" stroke-linejoin="miter" stroke-miterlimit="10" stroke-dasharray="" stroke-dashoffset="0" font-family="none" font-weight="none" text-anchor="none" style="mix-blend-mode: normal">
        <path d="M16,128l80,0l0,384l96,0l0,-384l80,0l-128,-128z" id="curve1" fill="url(#color-1)"/>
        <path d="M414.75,197.85l-67.35,0l-11.8,38.2l-52.55,0l74.85,-204.05l46.2,0l75.45,204.05l-52.85,0z M359.15,160l43.85,0l-22,-70.85z" fill="#51616f"/>
        <g transform="scale(1.125,1.125) translate(-48,-48)">
        <path id="shapePath4" d="M412.785,400.617 C410.324,402.167 407.84,403.42 405.334,404.377 C402.827,405.334 399.387,406.223 395.012,407.043 L386.262,408.684 C378.059,410.142 372.18,411.919 368.625,414.016 C362.609,417.57 359.602,423.085 359.602,430.559 C359.602,437.212 361.447,442.02 365.139,444.982 C368.83,447.945 373.319,449.426 378.605,449.426 C386.991,449.426 394.715,446.965 401.779,442.043 C408.843,437.121 412.512,428.143 412.785,415.109 L412.785,400.617 M389.133,382.434 C396.333,381.522 401.483,380.383 404.582,379.016 C410.142,376.646 412.922,372.954 412.922,367.941 C412.922,361.835 410.803,357.619 406.564,355.295 C402.326,352.971 396.105,351.809 387.902,351.809 C378.697,351.809 372.18,354.087 368.352,358.645 C365.617,362.017 363.794,366.574 362.883,372.316 L325.285,372.316 C326.105,359.283 329.751,348.573 336.223,340.188 C346.522,327.062 364.204,320.5 389.27,320.5 C405.585,320.5 420.077,323.736 432.746,330.207 C445.415,336.678 451.75,348.892 451.75,366.848 L451.75,435.207 C451.75,439.947 451.841,445.689 452.023,452.434 C452.297,457.538 453.072,461.001 454.348,462.824 C455.624,464.647 457.538,466.151 460.09,467.336 L460.09,473.078 L417.707,473.078 C416.522,470.07 415.702,467.245 415.246,464.602 C414.79,461.958 414.426,458.951 414.152,455.578 C408.775,461.411 402.577,466.379 395.559,470.48 C387.173,475.311 377.694,477.727 367.121,477.727 C353.632,477.727 342.489,473.876 333.693,466.174 C324.898,458.472 320.5,447.557 320.5,433.43 C320.5,415.109 327.564,401.848 341.691,393.645 C349.439,389.178 360.832,385.988 375.871,384.074 L389.133,382.434 Z" fill="#51616f" stroke="#51616f" stroke-width="4"/>
    </g>
    </g>
</svg>
