<svg version="1.1"
    xmlns="http://www.w3.org/2000/svg"
    xmlns:xlink="http://www.w3.org/1999/xlink" width="512" height="512" viewBox="0 0 512 512">
    <title>equalizer icon</title>
    <desc>equalizer icon from the IconExperience.com G-Collection. Copyright by INCORS GmbH (www.incors.com).</desc>
    <defs>
        <linearGradient x1="96" y1="0" x2="256.915" y2="512.00059" gradientUnits="userSpaceOnUse" id="color-1">
            <stop offset="0" stop-color="#8f9ead"/>
            <stop offset="1" stop-color="#728090"/>
        </linearGradient>
        <linearGradient x1="96" y1="78.5" x2="256" y2="430.5005" gradientUnits="userSpaceOnUse" id="color-2">
            <stop offset="0" stop-color="#717f8f"/>
            <stop offset="1" stop-color="#51616f"/>
        </linearGradient>
        <radialGradient cx="91.4255" cy="181.74373" r="112.46543" fx="91.4255" fy="181.74373" gradientUnits="userSpaceOnUse" id="color-3">
            <stop offset="0" stop-color="#89cff7"/>
            <stop offset="0.52941" stop-color="#3baff1"/>
            <stop offset="1" stop-color="#129eee"/>
        </radialGradient>
        <radialGradient cx="236.78957" cy="375.03294" r="110.65918" fx="236.78957" fy="375.03294" gradientUnits="userSpaceOnUse" id="color-4">
            <stop offset="0" stop-color="#ffe081"/>
            <stop offset="0.52941" stop-color="#ffd041"/>
            <stop offset="1" stop-color="#ffc001"/>
        </radialGradient>
        <radialGradient cx="382.25554" cy="120.34145" r="108.85249" fx="382.25554" fy="120.34145" gradientUnits="userSpaceOnUse" id="color-5">
            <stop offset="0" stop-color="#98e957"/>
            <stop offset="0.52941" stop-color="#77da26"/>
            <stop offset="1" stop-color="#59a31d"/>
        </radialGradient>
    </defs>
    <g fill="none" fill-rule="evenodd" stroke="none" stroke-width="1" stroke-linecap="butt" stroke-linejoin="miter" stroke-miterlimit="10" stroke-dasharray="" stroke-dashoffset="0" font-family="none" font-weight="none" text-anchor="none" style="mix-blend-mode: normal">
        <path d="M240,0l32,0l0,512l-32,0z M384,0l32,0l0,512l-32,0z M96,0l32,0l0,512l-32,0z" id="curve4" fill="url(#color-1)"/>
        <path d="M272,336l0,126.5c-5,1 -10.5,1.5 -16,1.5c-5.5,0 -11,-0.5 -16,-1.5l0,-126.5c5,-1 10.5,-1.5 16,-1.5c5.5,0 11,0.5 16,1.5z M112,142.5c5.5,0 11,0.5 16,1.5l0,126.5c-5,1 -10.5,1.5 -16,1.5c-5.5,0 -11,-0.5 -16,-1.5l0,-126.5c5,-1 10.5,-1.5 16,-1.5z M400,78.5c5.5,0 11,0.5 16,1.5l0,126.5c-5,1 -10.5,1.5 -16,1.5c-5.5,0 -11,-0.5 -16,-1.5l0,-126.5c5,-1 10.5,-1.5 16,-1.5z" id="curve3" fill="url(#color-2)"/>
        <path d="M112,128c35.5,0 64,28.5 64,64c0,35.5 -28.5,64 -64,64c-35.5,0 -64,-28.5 -64,-64c0,-35.5 28.5,-64 64,-64z" id="curve2" fill="url(#color-3)"/>
        <path d="M256,320c35.5,0 64,28.5 64,64c0,35.5 -28.5,64 -64,64c-35.5,0 -64,-28.5 -64,-64c0,-35.5 28.5,-64 64,-64z" id="curve1" fill="url(#color-4)"/>
        <path d="M400,64c35.5,0 64,28.5 64,64c0,35.5 -28.5,64 -64,64c-35.5,0 -64,-28.5 -64,-64c0,-35.5 28.5,-64 64,-64z" id="curve0" fill="url(#color-5)"/>
    </g>
</svg>