<svg version="1.1"
    xmlns="http://www.w3.org/2000/svg"
    xmlns:xlink="http://www.w3.org/1999/xlink" width="512" height="512" viewBox="0 0 512 512">
    <title>lock open icon</title>
    <desc>lock open icon from the IconExperience.com G-Collection. Copyright by INCORS GmbH (www.incors.com).</desc>
    <defs>
        <linearGradient x1="123.5" y1="0" x2="416.152" y2="235.22859" gradientUnits="userSpaceOnUse" id="color-1">
            <stop offset="0" stop-color="#909fae"/>
            <stop offset="1" stop-color="#728090"/>
        </linearGradient>
        <linearGradient x1="64" y1="240" x2="384.0005" y2="480.0005" gradientUnits="userSpaceOnUse" id="color-2">
            <stop offset="0" stop-color="#ffd041"/>
            <stop offset="1" stop-color="#ffc001"/>
        </linearGradient>
        <linearGradient x1="64" y1="480" x2="255.997" y2="511.9995" gradientUnits="userSpaceOnUse" id="color-3">
            <stop offset="0" stop-color="#febf01"/>
            <stop offset="1" stop-color="#f1b301"/>
        </linearGradient>
        <linearGradient x1="64" y1="240" x2="431.163" y2="260.3975" gradientUnits="userSpaceOnUse" id="color-4">
            <stop offset="0" stop-color="#ffe081"/>
            <stop offset="1" stop-color="#ffd556"/>
        </linearGradient>
    </defs>
    <g fill="none" fill-rule="evenodd" stroke="none" stroke-width="1" stroke-linecap="butt" stroke-linejoin="miter" stroke-miterlimit="10" stroke-dasharray="" stroke-dashoffset="0" font-family="none" font-weight="none" text-anchor="none" style="mix-blend-mode: normal">
        <path d="M123.5,70.5c28.5,-42.5 77.5,-70.5 132.5,-70.5c88.5,0 160,71.5 160,160l0,114l-64,0l0,-114c0,-53 -43,-96 -96,-96c-32,0 -62,16 -79.5,42.5l-53,-36z" id="curve4" fill="url(#color-1)"/>
        <path d="M80,240l352,0c9,0 16,7 16,16l0,240c0,9 -7,16 -16,16l-352,0c-9,0 -16,-7 -16,-16l0,-240c0,-9 7,-16 16,-16z" id="curve3" fill="url(#color-2)"/>
        <path d="M448,480l0,16c0,9 -7,16 -16,16l-352,0c-9,0 -16,-7 -16,-16l0,-16c0,9 7,16 16,16l352,0c9,0 16,-7 16,-16z" id="curve2" fill="url(#color-3)"/>
        <path d="M80,240l352,0c9,0 16,7 16,16l0,16c0,-9 -7,-16 -16,-16l-352,0c-9,0 -16,7 -16,16l0,-16c0,-9 7,-16 16,-16z" id="curve1" fill="url(#color-4)"/>
        <path d="M280,382l15.5,61.5c0.5,1.5 0.5,3 0.5,4l0,8.5c0,4.5 -3.5,8 -8,8l-64,0c-4.5,0 -8,-3.5 -8,-8l0,-8.5c0,-1 0,-2.5 0.5,-4l15.5,-61.5c1,-3 0,-6 -2.5,-8c-8,-7 -13.5,-18 -13.5,-30c0,-22 18,-40 40,-40c22,0 40,18 40,40c0,12 -5.5,23 -13.5,30c-2.5,2 -3.5,5 -2.5,8z" id="curve0" fill="#51616f"/>
    </g>
</svg>