<svg version="1.1"
    xmlns="http://www.w3.org/2000/svg"
    xmlns:xlink="http://www.w3.org/1999/xlink" width="512" height="512" viewBox="0 0 512 512">
    <title>shelf full icon</title>
    <desc>shelf full icon from the IconExperience.com G-Collection. Copyright by INCORS GmbH (www.incors.com).</desc>
    <defs>
        <linearGradient x1="64" y1="0" x2="448" y2="301.29259" gradientUnits="userSpaceOnUse" id="color-1">
            <stop offset="0" stop-color="#be792c"/>
            <stop offset="1" stop-color="#b4722a"/>
        </linearGradient>
        <linearGradient x1="96" y1="432" x2="240.85504" y2="480" gradientUnits="userSpaceOnUse" id="color-2">
            <stop offset="0" stop-color="#c67f2e"/>
            <stop offset="1" stop-color="#ba762b"/>
        </linearGradient>
        <linearGradient x1="96" y1="432" x2="150.8096" y2="448" gradientUnits="userSpaceOnUse" id="color-3">
            <stop offset="0" stop-color="#d7964d"/>
            <stop offset="1" stop-color="#d69348"/>
        </linearGradient>
        <linearGradient x1="96" y1="288" x2="240.85504" y2="336" gradientUnits="userSpaceOnUse" id="color-4">
            <stop offset="0" stop-color="#c67f2e"/>
            <stop offset="1" stop-color="#ba762b"/>
        </linearGradient>
        <linearGradient x1="96" y1="288" x2="150.8096" y2="304" gradientUnits="userSpaceOnUse" id="color-5">
            <stop offset="0" stop-color="#d7964d"/>
            <stop offset="1" stop-color="#d69348"/>
        </linearGradient>
        <linearGradient x1="96" y1="144" x2="240.8555" y2="192" gradientUnits="userSpaceOnUse" id="color-6">
            <stop offset="0" stop-color="#c67f2e"/>
            <stop offset="1" stop-color="#ba762b"/>
        </linearGradient>
        <linearGradient x1="96" y1="144" x2="150.8096" y2="160" gradientUnits="userSpaceOnUse" id="color-7">
            <stop offset="0" stop-color="#d7964d"/>
            <stop offset="1" stop-color="#d69348"/>
        </linearGradient>
        <linearGradient x1="272" y1="64" x2="352.0015" y2="143.9995" gradientUnits="userSpaceOnUse" id="color-8">
            <stop offset="0" stop-color="#8da0ab"/>
            <stop offset="1" stop-color="#768494"/>
        </linearGradient>
        <linearGradient x1="304" y1="224" x2="368" y2="287.9995" gradientUnits="userSpaceOnUse" id="color-9">
            <stop offset="0" stop-color="#8ca0aa"/>
            <stop offset="1" stop-color="#748392"/>
        </linearGradient>
        <linearGradient x1="128" y1="80" x2="191.9995" y2="144" gradientUnits="userSpaceOnUse" id="color-10">
            <stop offset="0" stop-color="#8da0ab"/>
            <stop offset="1" stop-color="#798897"/>
        </linearGradient>
        <linearGradient x1="128" y1="384" x2="175.9985" y2="432" gradientUnits="userSpaceOnUse" id="color-11">
            <stop offset="0" stop-color="#8da0ab"/>
            <stop offset="1" stop-color="#758493"/>
        </linearGradient>
        <linearGradient x1="224" y1="352" x2="303.999" y2="431.9995" gradientUnits="userSpaceOnUse" id="color-12">
            <stop offset="0" stop-color="#8da0ab"/>
            <stop offset="1" stop-color="#7a8a98"/>
        </linearGradient>
        <linearGradient x1="128" y1="208" x2="173.338" y2="287.9995" gradientUnits="userSpaceOnUse" id="color-13">
            <stop offset="0" stop-color="#3aaef1"/>
            <stop offset="1" stop-color="#139eee"/>
        </linearGradient>
        <linearGradient x1="208" y1="208" x2="253.3385" y2="287.9995" gradientUnits="userSpaceOnUse" id="color-14">
            <stop offset="0" stop-color="#3aaef1"/>
            <stop offset="1" stop-color="#139eee"/>
        </linearGradient>
    </defs>
    <g fill="none" fill-rule="evenodd" stroke="none" stroke-width="1" stroke-linecap="butt" stroke-linejoin="miter" stroke-miterlimit="10" stroke-dasharray="" stroke-dashoffset="0" font-family="none" font-weight="none" text-anchor="none" style="mix-blend-mode: normal">
        <path d="M448,8l0,504l-32,0l0,-32l-320,0l0,32l-32,0l0,-504c0,-4.5 3.5,-8 8,-8l368,0c4.5,0 8,3.5 8,8z M416,432l0,-96l-320,0l0,96z M416,288l0,-96l-320,0l0,96z M416,144l0,-112l-320,0l0,112z" id="curve13" fill="url(#color-1)"/>
        <path d="M96,432l320,0l0,48l-320,0z" id="curve12" fill="url(#color-2)"/>
        <path d="M96,432l320,0l0,16l-320,0z" id="curve11" fill="url(#color-3)"/>
        <path d="M96,288l320,0l0,48l-320,0z" id="curve10" fill="url(#color-4)"/>
        <path d="M96,288l320,0l0,16l-320,0z" id="curve9" fill="url(#color-5)"/>
        <path d="M96,144l320,0l0,48l-320,0z" id="curve8" fill="url(#color-6)"/>
        <path d="M96,144l320,0l0,16l-320,0z" id="curve7" fill="url(#color-7)"/>
        <path d="M272,64l112,0l0,80l-112,0z" id="curve6" fill="url(#color-8)"/>
        <path d="M304,224l80,0l0,64l-80,0z" id="curve5" fill="url(#color-9)"/>
        <path d="M128,80l112,0l0,64l-112,0z" id="curve4" fill="url(#color-10)"/>
        <path d="M128,384l64,0l0,48l-64,0z" id="curve3" fill="url(#color-11)"/>
        <path d="M224,352l160,0l0,80l-160,0z" id="curve2" fill="url(#color-12)"/>
        <path d="M144,208l32,0c9,0 16,7 16,16l0,48c0,9 -7,16 -16,16l-32,0c-9,0 -16,-7 -16,-16l0,-48c0,-9 7,-16 16,-16z" id="curve1" fill="url(#color-13)"/>
        <path d="M224,208l32,0c9,0 16,7 16,16l0,48c0,9 -7,16 -16,16l-32,0c-9,0 -16,-7 -16,-16l0,-48c0,-9 7,-16 16,-16z" id="curve0" fill="url(#color-14)"/>
    </g>
</svg>