<svg x="0" y="0" width="512" height="512" version="1.1"
    xmlns="http://www.w3.org/2000/svg"
    xmlns:xlink="http://www.w3.org/1999/xlink" viewBox="0 0 512 512">

    <g transform="translate(0,208) scale(0.6,0.6)">
        <title>object cube icon</title>
        <desc>object cube icon from the IconExperience.com G-Collection. Copyright by INCORS GmbH (www.incors.com).</desc>
        <defs>
            <linearGradient x1="32" y1="16" x2="420.0898" y2="427.9417" gradientUnits="userSpaceOnUse" id="y-color-1">
                <stop offset="0" stop-color="#ffc822"/>
                <stop offset="0.32941" stop-color="#ffd041"/>
                <stop offset="1" stop-color="#e3ad24"/>
            </linearGradient>
            <linearGradient x1="32" y1="16" x2="254.33265" y2="227.57035" gradientUnits="userSpaceOnUse" id="y-color-2">
                <stop offset="0" stop-color="#f5c437"/>
                <stop offset="1" stop-color="#eab72c"/>
            </linearGradient>
            <linearGradient x1="256" y1="130" x2="258.206" y2="453.608" gradientUnits="userSpaceOnUse" id="y-color-3">
                <stop offset="0" stop-color="#f9c93b"/>
                <stop offset="1" stop-color="#cb900b"/>
            </linearGradient>
        </defs>
        <g fill="none" fill-rule="evenodd" stroke="#252525" stroke-width="10" stroke-linecap="butt" stroke-linejoin="round" stroke-miterlimit="10" stroke-dasharray="" stroke-dashoffset="0" font-family="none" font-weight="none" text-anchor="none" style="mix-blend-mode: normal">
            <path d="M32,128l224,-112l224,112l0,256l-224,112l-224,-112z" id="curve2" fill="url(#y-color-1)"/>
            <path d="M32,128l224,-112l224,112l-224,112z" id="curve1" fill="url(#y-color-2)"/>
            <path d="M480,130l-224,110l0,256l224,-112z" id="curve0" fill="url(#y-color-3)"/>
        </g>
    </g>

    <g transform="translate(208,216) scale(0.6,0.6)">
        <title>object cube icon</title>
        <desc>object cube icon from the IconExperience.com G-Collection. Copyright by INCORS GmbH (www.incors.com).</desc>
        <defs>
            <linearGradient x1="32" y1="16" x2="420.0898" y2="427.9417" gradientUnits="userSpaceOnUse" id="g-color-1">
                <stop offset="0" stop-color="#77da26"/>
                <stop offset="1" stop-color="#59a31d"/>
            </linearGradient>
            <linearGradient x1="32" y1="16" x2="254.33265" y2="227.57035" gradientUnits="userSpaceOnUse" id="g-color-2">
                <stop offset="0" stop-color="#3b6d13"/>
                <stop offset="1" stop-color="#4f921a"/>
            </linearGradient>
            <linearGradient x1="256" y1="130" x2="258.206" y2="453.608" gradientUnits="userSpaceOnUse" id="g-color-3">
                <stop offset="0" stop-color="#59a31d"/>
                <stop offset="1" stop-color="#3b6d13"/>
            </linearGradient>
        </defs>
        <g fill="none" fill-rule="evenodd" stroke="#252525" stroke-width="10" stroke-linecap="butt" stroke-linejoin="round" stroke-miterlimit="10" stroke-dasharray="" stroke-dashoffset="0" font-family="none" font-weight="none" text-anchor="none" style="mix-blend-mode: normal">
            <path d="M32,128l224,-112l224,112l0,256l-224,112l-224,-112z" id="curve2" fill="url(#g-color-1)"/>
            <path d="M32,128l224,-112l224,112l-224,112z" id="curve1" fill="url(#g-color-2)"/>
            <path d="M480,130l-224,110l0,256l224,-112z" id="curve0" fill="url(#g-color-3)"/>
        </g>
    </g>

    <g transform="translate(128,16) scale(0.6,0.6)">
        <title>object cube icon</title>
        <desc>object cube icon from the IconExperience.com G-Collection. Copyright by INCORS GmbH (www.incors.com).</desc>
        <defs>
            <linearGradient x1="32" y1="16" x2="420.0898" y2="427.9417" gradientUnits="userSpaceOnUse" id="b-color-1">
                <stop offset="0" stop-color="#49b4f2"/>
                <stop offset="1" stop-color="#129eee"/>
            </linearGradient>
            <linearGradient x1="32" y1="16" x2="254.33265" y2="227.57035" gradientUnits="userSpaceOnUse" id="b-color-2">
                <stop offset="0" stop-color="#49b4f2"/>
                <stop offset="1" stop-color="#0e78b5"/>
            </linearGradient>
            <linearGradient x1="256" y1="130" x2="258.206" y2="453.608" gradientUnits="userSpaceOnUse" id="b-color-3">
                <stop offset="0" stop-color="#1195e1"/>
                <stop offset="1" stop-color="#0e78b5"/>
            </linearGradient>
        </defs>
        <g fill="none" fill-rule="evenodd" stroke="#252525" stroke-width="10" stroke-linecap="butt" stroke-linejoin="round" stroke-miterlimit="10" stroke-dasharray="" stroke-dashoffset="0" font-family="none" font-weight="none" text-anchor="none" style="mix-blend-mode: normal">
            <path d="M32,128l224,-112l224,112l0,256l-224,112l-224,-112z" id="curve2" fill="url(#b-color-1)"/>
            <path d="M32,128l224,-112l224,112l-224,112z" id="curve1" fill="url(#b-color-2)"/>
            <path d="M480,130l-224,110l0,256l224,-112z" id="curve0" fill="url(#b-color-3)"/>
        </g>
    </g>


<g transform="translate(256,256) scale(0.5,0.5)">
    <title>refresh icon</title>
    <desc>refresh icon from the IconExperience.com G-Collection. Copyright by INCORS GmbH (www.incors.com).</desc>
    <defs>
        <linearGradient x1="0" y1="32" x2="185.093" y2="373.1715" gradientUnits="userSpaceOnUse" id="color-1">
            <stop offset="0" stop-color="#4eb6f2"/>
            <stop offset="1" stop-color="#129eee"/>
        </linearGradient>
        <linearGradient x1="208" y1="112" x2="374.8745" y2="419.59" gradientUnits="userSpaceOnUse" id="color-2">
            <stop offset="0" stop-color="#48b4f2"/>
            <stop offset="1" stop-color="#129eee"/>
        </linearGradient>
    </defs>
    <g fill="none" fill-rule="evenodd" stroke="none" stroke-width="1" stroke-linecap="butt" stroke-linejoin="miter" stroke-miterlimit="10" stroke-dasharray="" stroke-dashoffset="0" font-family="none" font-weight="none" text-anchor="none" style="mix-blend-mode: normal">
        <path d="M192,32l0,80l-48,0c-79.5,0 -144,64.5 -144,144c0,79.5 64.5,144 144,144l50.5,0l-32,-32l32,-32l-50.5,0c-44,0 -80,-36 -80,-80c0,-44 36,-80 80,-80l48,0l0,80l112,-112z" id="curve1" fill="url(#color-1)"/>
        <path d="M320,480l0,-80l48,0c79.5,0 144,-64.5 144,-144c0,-79.5 -64.5,-144 -144,-144l-50.5,0l32,32l-32,32l50.5,0c44,0 80,36 80,80c0,44 -36,80 -80,80l-48,0l0,-80l-112,112z" id="curve0" fill="url(#color-2)"/>
    </g>
</g>

</svg>
