<?xml version="1.0" encoding="UTF-8"?>
<!DOCTYPE svg PUBLIC "-//W3C//DTD SVG 1.1//EN" "http://www.w3.org/Graphics/SVG/1.1/DTD/svg11.dtd">
<svg xmlns="http://www.w3.org/2000/svg" xml:space="preserve" width="1024px" height="1024px" shape-rendering="geometricPrecision" text-rendering="geometricPrecision" image-rendering="optimizeQuality" fill-rule="nonzero" clip-rule="evenodd" viewBox="0 0 10240 10240" xmlns:xlink="http://www.w3.org/1999/xlink">
	<title>add icon</title>
	<desc>add icon from the IconExperience.com O-Collection. Copyright by INCORS GmbH (www.incors.com).</desc>
	<path id="curve0" fill="#252525" d="M5120 640c2474,0 4480,2006 4480,4480 0,2474 -2006,4480 -4480,4480 -2474,0 -4480,-2006 -4480,-4480 0,-2474 2006,-4480 4480,-4480zm-2880 3520c-176,0 -320,144 -320,320l0 1280c0,176 144,320 320,320l1920 0 0 1920c0,176 144,320 320,320l1280 0c176,0 320,-144 320,-320l0 -1920 1920 0c176,0 320,-144 320,-320l0 -1280c0,-176 -144,-320 -320,-320l-1920 0 0 -1920c0,-176 -144,-320 -320,-320l-1280 0c-176,0 -320,144 -320,320l0 1920 -1920 0z"/>
</svg>
