<?xml version="1.0" encoding="UTF-8"?>
<!DOCTYPE svg PUBLIC "-//W3C//DTD SVG 1.1//EN" "http://www.w3.org/Graphics/SVG/1.1/DTD/svg11.dtd">
<svg xmlns="http://www.w3.org/2000/svg" xml:space="preserve" width="1024px" height="1024px" shape-rendering="geometricPrecision" text-rendering="geometricPrecision" image-rendering="optimizeQuality" fill-rule="nonzero" clip-rule="evenodd" viewBox="0 0 10240 10240" xmlns:xlink="http://www.w3.org/1999/xlink">
	<title>robot icon</title>
	<desc>robot icon from the IconExperience.com O-Collection. Copyright by INCORS GmbH (www.incors.com).</desc>
	<path id="curve0" fill="#252525" d="M7680 6747c186,66 320,244 320,453 0,157 -75,296 -192,384 -53,40 -128,2 -128,-64l0 -320c0,-88 -72,-160 -160,-160 -88,0 -160,72 -160,160l0 320c0,66 -75,104 -128,64 -117,-88 -192,-227 -192,-384 0,-209 134,-387 320,-453l0 -27 -160 0c-88,0 -160,-72 -160,-160l0 -1440 -320 0 0 1280c0,176 -144,320 -320,320l0 0c176,0 320,144 320,320l0 1600c176,0 320,144 320,320l0 640c-533,0 -1067,0 -1600,0l0 -640c0,-176 144,-320 320,-320l0 -1280c0,-176 -144,-320 -320,-320l-640 0c-176,0 -320,144 -320,320l0 1280c176,0 320,144 320,320l0 640c-533,0 -1067,0 -1600,0l0 -640c0,-176 144,-320 320,-320l0 -1600c0,-176 144,-320 320,-320l0 0c-176,0 -320,-144 -320,-320l0 -1280 -320 0 0 1440c0,88 -72,160 -160,160l-160 0 0 27c186,66 320,244 320,453 0,157 -75,296 -192,384 -53,40 -128,2 -128,-64l0 -320c0,-210 -320,-210 -320,0l0 320c0,66 -75,104 -128,64 -117,-88 -192,-227 -192,-384 0,-209 134,-387 320,-453l0 -27 -160 0c-88,0 -160,-72 -160,-160l0 -2400c0,-353 287,-640 640,-640 176,0 320,144 320,320l320 0c0,-176 144,-320 320,-320l640 0 0 -320 -320 0c-176,0 -320,-144 -320,-320l0 -640 0 0c-176,0 -320,-144 -320,-320l0 -320c0,-176 144,-320 320,-320l0 -320c0,-176 144,-320 320,-320l1920 0c176,0 320,144 320,320l0 320c176,0 320,144 320,320l0 320c0,176 -144,320 -320,320l0 640c0,176 -144,320 -320,320l-320 0 0 320 640 0c176,0 320,144 320,320l320 0c0,-176 144,-320 320,-320 353,0 640,288 640,640l0 2400c0,88 -72,160 -160,160l-160 0 0 27zm-1920 -5467c-177,0 -320,143 -320,320 0,177 143,320 320,320 177,0 320,-143 320,-320 0,-177 -143,-320 -320,-320zm-640 2880c-465,0 -852,330 -941,768 -10,49 2,95 33,133 32,39 74,59 124,59l462 0c0,-84 33,-168 98,-231 85,-82 203,-108 309,-79l212 -205c63,-61 165,-60 226,3 62,64 60,165 -3,227l-212 205c6,26 9,53 9,80l467 0c50,0 92,-20 124,-59 31,-38 43,-84 33,-133 -89,-438 -476,-768 -941,-768zm480 1280c-88,0 -160,72 -160,160 0,88 72,160 160,160l320 0c88,0 160,-72 160,-160 0,-88 -72,-160 -160,-160l-320 0zm-1280 0c-88,0 -160,72 -160,160 0,88 72,160 160,160 88,0 160,-72 160,-160 0,-88 -72,-160 -160,-160zm640 0c-88,0 -160,72 -160,160 0,88 72,160 160,160 88,0 160,-72 160,-160 0,-88 -72,-160 -160,-160zm-480 -4160c-177,0 -320,143 -320,320 0,177 143,320 320,320 177,0 320,-143 320,-320 0,-177 -143,-320 -320,-320zm0 960l0 320 1280 0 0 -320 -1280 0z"/>
</svg>
