<?xml version="1.0" encoding="UTF-8"?>
<!DOCTYPE svg PUBLIC "-//W3C//DTD SVG 1.1//EN" "http://www.w3.org/Graphics/SVG/1.1/DTD/svg11.dtd">
<svg xmlns="http://www.w3.org/2000/svg" xml:space="preserve" width="1024px" height="1024px" shape-rendering="geometricPrecision" text-rendering="geometricPrecision" image-rendering="optimizeQuality" fill-rule="nonzero" clip-rule="evenodd" viewBox="0 0 10240 10240" xmlns:xlink="http://www.w3.org/1999/xlink">
	<title>debug icon</title>
	<desc>debug icon from the IconExperience.com O-Collection. Copyright by INCORS GmbH (www.incors.com).</desc>
	<path id="curve3" fill="#3E9BD5" d="M3520 9580l0 340 -640 0 0 -340c-1158,-144 -2076,-1062 -2220,-2220l-340 0 0 -640 340 0c144,-1158 1062,-2076 2220,-2220l0 -340 640 0 0 340c1158,144 2076,1062 2220,2220l340 0 0 640 -340 0c-144,1158 -1062,2076 -2220,2220zm-180 -1963l180 328c273,-96 489,-312 585,-585l-328 -180c-53,-28 -83,-80 -83,-140 0,-60 30,-112 83,-140l328 -180c-96,-273 -312,-489 -585,-585l-180 328c-28,53 -80,83 -140,83 -60,0 -112,-30 -140,-83l-180 -328c-273,96 -489,312 -585,585l328 180c53,28 83,80 83,140 0,60 -30,112 -83,140l-328 180c96,273 312,489 585,585l180 -328c28,-53 80,-83 140,-83 60,0 112,30 140,83zm180 663l0 653c804,-135 1438,-769 1573,-1573l-653 0c-116,450 -470,804 -920,920zm920 -1560l653 0c-135,-804 -769,-1438 -1573,-1573l0 653c450,116 804,470 920,920zm-1560 -920l0 -653c-804,135 -1438,769 -1573,1573l653 0c116,-450 470,-804 920,-920zm-920 1560l-653 0c135,804 769,1438 1573,1573l0 -653c-450,-116 -804,-470 -920,-920z"/>
	<path id="curve2" fill="#252525" d="M7770 2337l272 -272 295 -885c56,-167 236,-258 403,-203 167,56 258,236 202,403l-310 933c-13,56 -42,109 -86,153l-432 432c-99,-204 -214,-397 -344,-561zm-5004 561l-432 -432c-44,-44 -73,-97 -86,-153l-311 -933c-55,-167 36,-347 203,-403 167,-55 347,36 403,203l295 885 272 272c-130,164 -245,357 -344,561zm5744 3239l356 357c44,44 73,97 86,153l311 933c55,167 -36,347 -203,403 -167,55 -347,-36 -402,-203l-296 -885 -105 -105c107,-208 191,-426 253,-653zm-11 -2147l561 187c49,17 91,44 125,78l1 -1 640 640c125,125 125,327 0,452 -125,125 -327,125 -452,0l-589 -589 -166 -55c-15,-158 -39,-316 -68,-472 -14,-74 -32,-155 -52,-240z"/>
	<path id="curve1" fill="#252525" d="M7517 2536c439,553 803,1644 803,2592 0,2029 -1466,2705 -2477,3057 70,-161 126,-330 166,-505l71 0c176,0 320,-144 320,-320l0 -640c0,-176 -144,-320 -320,-320l-71 0c-245,-1077 -1092,-1924 -2169,-2169l0 -71c0,-176 -144,-320 -320,-320l-640 0c-50,0 -97,11 -139,32 148,-536 373,-1023 622,-1336 179,180 369,369 582,504 175,111 362,183 559,244 290,90 591,162 886,236l80 21 80 -21c279,-74 564,-145 839,-234 189,-61 369,-132 538,-238 216,-137 408,-329 590,-512z"/>
	<path id="curve0" fill="#252525" d="M5440 640c220,0 420,19 602,55 -67,34 -123,84 -160,150 -133,229 8,559 314,735 306,177 662,134 794,-95 42,-74 57,-157 47,-243 215,264 323,604 323,998 -640,640 -640,640 -1892,970 -1308,-330 -1308,-330 -1948,-970 0,-394 108,-734 323,-998 -10,86 5,169 47,243 132,229 488,272 794,95 306,-176 447,-506 314,-735 -37,-66 -93,-116 -160,-150 182,-36 382,-55 602,-55z"/>
</svg>
