<?xml version="1.0" encoding="UTF-8"?>
<!DOCTYPE svg PUBLIC "-//W3C//DTD SVG 1.1//EN" "http://www.w3.org/Graphics/SVG/1.1/DTD/svg11.dtd">
<svg xmlns="http://www.w3.org/2000/svg" xml:space="preserve" width="1024px" height="1024px" shape-rendering="geometricPrecision" text-rendering="geometricPrecision" image-rendering="optimizeQuality" fill-rule="nonzero" clip-rule="evenodd" viewBox="0 0 10240 10240" xmlns:xlink="http://www.w3.org/1999/xlink">
	<title>note_pinned icon</title>
	<desc>note_pinned icon from the IconExperience.com O-Collection. Copyright by INCORS GmbH (www.incors.com).</desc>
	<path id="curve2" fill="#252525" d="M1280 8960l5230 0c352,0 656,-126 905,-375l1170 -1170c249,-249 375,-553 375,-905l0 -5230 -5792 0c21,103 32,210 32,320 0,110 -11,217 -32,320l5152 0 0 4160c0,176 -144,320 -320,320l-1600 0 0 1600c0,176 -144,320 -320,320l-4160 0 0 -5152 0 0c-103,21 -210,32 -320,32 -110,0 -217,-11 -320,-32l0 5792zm5758 -903c1,-19 2,-38 2,-57l0 -960 960 0c19,0 38,-1 57,-2l-1019 1019z"/>
	<path id="curve1" fill="#252525" d="M2414 2978l641 520c55,14 98,22 126,22 187,0 339,-152 339,-339 0,-29 -11,-77 -30,-137l-512 -630c-138,232 -332,426 -564,564z"/>
	<path id="curve0" fill="#3E9BD5" d="M1600 320c707,0 1280,573 1280,1280 0,707 -573,1280 -1280,1280 -707,0 -1280,-573 -1280,-1280 0,-707 573,-1280 1280,-1280zm134 742c29,-114 -3,-226 -87,-308 -85,-81 -198,-110 -311,-77 -318,90 -569,341 -659,659 -33,113 -4,226 77,311 82,84 194,116 308,87l0 0c114,-28 198,-109 230,-222 31,-106 114,-189 220,-220 113,-32 194,-116 222,-230l0 0z"/>


<g comp-op="clear">
<g transform="translate(5120,5120) scale(0.5,0.5)"  stroke="#808080" stroke-width="512" stroke-linejoin="round">
	<title>wrench icon</title>
	<desc>wrench icon from the IconExperience.com O-Collection. Copyright by INCORS GmbH (www.incors.com).</desc>
	<path id="curve0" fill="#252525" d="M5665 5966l-2505 2926c-458,536 -1312,499 -1810,0l0 0c-499,-498 -541,-1358 0,-1810l2957 -2474c495,-414 -679,-1584 679,-2941 482,-483 1171,-760 1804,-773 133,-2 248,72 300,195 53,122 27,257 -68,352l-1131 1131 452 1358 1358 452 1131 -1131c95,-95 230,-121 352,-68 123,52 197,167 195,300 -13,633 -290,1322 -773,1804 -1357,1358 -2487,149 -2941,679zm-2957 1568c-250,-249 -656,-249 -906,0 -249,250 -249,656 0,906 250,249 656,249 906,0 249,-250 249,-656 0,-906z"/>
</g>
</g>



<g transform="translate(5120,5120) scale(0.5,0.5)">
	<title>wrench icon</title>
	<desc>wrench icon from the IconExperience.com O-Collection. Copyright by INCORS GmbH (www.incors.com).</desc>
	<path id="curve0" fill="#252525" d="M5665 5966l-2505 2926c-458,536 -1312,499 -1810,0l0 0c-499,-498 -541,-1358 0,-1810l2957 -2474c495,-414 -679,-1584 679,-2941 482,-483 1171,-760 1804,-773 133,-2 248,72 300,195 53,122 27,257 -68,352l-1131 1131 452 1358 1358 452 1131 -1131c95,-95 230,-121 352,-68 123,52 197,167 195,300 -13,633 -290,1322 -773,1804 -1357,1358 -2487,149 -2941,679zm-2957 1568c-250,-249 -656,-249 -906,0 -249,250 -249,656 0,906 250,249 656,249 906,0 249,-250 249,-656 0,-906z"/>
</g>

</svg>
