<?xml version="1.0" encoding="UTF-8"?>
<!DOCTYPE svg PUBLIC "-//W3C//DTD SVG 1.1//EN" "http://www.w3.org/Graphics/SVG/1.1/DTD/svg11.dtd">
<svg xmlns="http://www.w3.org/2000/svg" xml:space="preserve" width="1024px" height="1024px" shape-rendering="geometricPrecision" text-rendering="geometricPrecision" image-rendering="optimizeQuality" fill-rule="nonzero" clip-rule="evenodd" viewBox="0 0 10240 10240" xmlns:xlink="http://www.w3.org/1999/xlink">

<g transform="translate(0,10240) scale(1,-1)">
	<title>arrow_barrier icon</title>
	<desc>arrow_barrier icon from the IconExperience.com O-Collection. Copyright by INCORS GmbH (www.incors.com).</desc>
	<path id="curve1" fill="#252525" d="M6539 4082l-1186 -1186c-124,-124 -328,-124 -452,0l-1187 1186c-124,125 -186,277 -187,453l-7 839c-1,65 38,122 99,147 61,26 127,12 174,-34l687 -687 0 4160 1280 0 0 -4160 687 687c47,46 113,60 174,34 61,-25 98,-81 99,-147l7 -839c1,-176 -63,-328 -188,-453z"/>
	<path id="curve0" fill="#3E9BD5" d="M1920,1280 8320,1280 8320,2560 1920,2560z"/>
</g>

</svg>
