<?xml version="1.0" encoding="UTF-8" ?>
<!DOCTYPE svg PUBLIC "-//W3C//DTD SVG 1.1//EN" "http://www.w3.org/Graphics/SVG/1.1/DTD/svg11.dtd">
<svg width="256pt" height="256pt" viewBox="0 0 256 256" version="1.1" xmlns="http://www.w3.org/2000/svg">
<title>dotdotdot2 icon</title>
<desc>icon from the IconExperience.com V-Collection. Copyright by INCORS GmbH (www.incors.com). Vectorized using Vector Magic.</desc>
<g id="#252525ff">
<g transform="translate(0,64)">
<path fill="#3E9BD5" d=" M 15.80 107.96 C 15.49 104.66 18.33 101.59 21.68 101.88 C 35.14 101.82 48.61 101.86 62.07 101.86 C 65.48 101.52 68.57 104.47 68.28 107.91 C 68.34 121.31 68.30 134.72 68.30 148.13 C 68.63 151.52 65.57 154.80 62.12 154.41 C 47.95 154.46 33.77 154.33 19.60 154.46 C 17.90 153.03 15.73 151.53 15.85 149.02 C 15.69 135.34 15.81 121.64 15.80 107.96 Z" />
<path fill="#3E9BD5" d=" M 106.33 103.23 C 108.17 102.74 110.09 102.83 111.98 102.82 C 124.43 102.94 136.89 102.78 149.35 102.88 C 152.70 102.61 155.56 105.65 155.29 108.95 C 155.33 122.34 155.30 135.74 155.30 149.13 C 155.63 152.50 152.60 155.78 149.17 155.41 C 135.72 155.42 122.27 155.42 108.83 155.41 C 105.36 155.79 102.46 152.44 102.79 149.09 C 102.78 135.72 102.77 122.35 102.80 108.98 C 102.67 106.56 103.99 104.07 106.33 103.23 Z" />
<path fill="#3E9BD5" d=" M 191.35 103.22 C 204.16 102.33 217.10 103.15 229.96 102.82 C 232.85 102.98 236.37 102.20 238.63 104.50 C 240.43 106.14 240.30 108.75 240.34 110.97 C 240.25 123.67 240.34 136.38 240.30 149.09 C 240.64 152.48 237.60 155.80 234.14 155.41 C 220.70 155.42 207.26 155.42 193.83 155.41 C 190.34 155.79 187.45 152.42 187.79 149.05 C 187.78 135.66 187.76 122.26 187.80 108.87 C 187.68 106.48 189.05 104.04 191.35 103.22 Z" />
</g>
</g>
</svg>
