<?xml version="1.0" encoding="UTF-8"?>
<!DOCTYPE svg PUBLIC "-//W3C//DTD SVG 1.1//EN" "http://www.w3.org/Graphics/SVG/1.1/DTD/svg11.dtd">
<svg xmlns="http://www.w3.org/2000/svg" xml:space="preserve" width="1024px" height="1024px" shape-rendering="geometricPrecision" text-rendering="geometricPrecision" image-rendering="optimizeQuality" fill-rule="nonzero" clip-rule="evenodd" viewBox="0 0 10240 10240" xmlns:xlink="http://www.w3.org/1999/xlink">

<g transform="translate(10240,0) scale(-1,1)">
	<title>windows icon</title>
	<desc>windows icon from the IconExperience.com O-Collection. Copyright by INCORS GmbH (www.incors.com).</desc>
	<path id="curve1" fill="#3E9BD5" d="M2560 640l6400 0c353,0 640,288 640,640l0 5440c0,176 -144,320 -320,320l-640 0 0 -640 320 0 0 -3840 -6400 0 0 320 -640 0 0 -1600c0,-353 288,-640 640,-640z"/>
	<path id="curve0" fill="#252525" d="M8320 9280c0,176 -144,320 -320,320l-7040 0c-176,0 -320,-144 -320,-320l0 -5440c0,-352 288,-640 640,-640l6400 0c353,0 640,288 640,640l0 5440zm-7040 -4160l0 3840 6400 0 0 -3840 -6400 0z"/>
</g>

</svg>
