<?xml version="1.0" encoding="UTF-8"?>
<!DOCTYPE svg PUBLIC "-//W3C//DTD SVG 1.1//EN" "http://www.w3.org/Graphics/SVG/1.1/DTD/svg11.dtd">
<svg xmlns="http://www.w3.org/2000/svg" xml:space="preserve" width="1024px" height="1024px" shape-rendering="geometricPrecision" text-rendering="geometricPrecision" image-rendering="optimizeQuality" fill-rule="nonzero" clip-rule="evenodd" viewBox="0 0 10240 10240" xmlns:xlink="http://www.w3.org/1999/xlink">
	<title>bookmarks icon</title>
	<desc>bookmarks icon from the IconExperience.com O-Collection. Copyright by INCORS GmbH (www.incors.com).</desc>
	<path id="curve3" fill="#3E9BD5" d="M6400 1920l253 0c48,127 67,276 67,400l0 960c0,353 287,640 640,640 353,0 640,-287 640,-640l0 -960c0,-132 -11,-267 -32,-400l352 0c353,0 640,287 640,640l0 6400c0,353 -287,640 -640,640l-1598 0 1067 -534c473,-237 665,-815 429,-1288l-2144 -4282c6,-288 6,-575 6,-856 0,-147 5,-432 47,-659 83,-39 175,-61 273,-61z"/>
	<path id="curve2" fill="#252525" d="M6400 1360c-169,1 -346,28 -448,179 -126,185 -192,528 -192,1101 0,77 0,153 0,230l-408 -815c-106,-211 -280,-367 -482,-453 121,-200 257,-360 403,-485 327,-280 701,-395 1127,-397 409,0 722,189 940,479 227,302 340,715 340,1121l0 960c0,177 -143,320 -320,320 -177,0 -320,-143 -320,-320l0 -960c0,-279 -70,-552 -210,-738 -101,-135 -244,-222 -430,-222z"/>
	<path id="curve1" fill="#3E9BD5" d="M2490 2772l226 -113c101,92 184,217 239,328l430 858c158,316 543,444 859,286 316,-158 444,-543 286,-859l-430 -858c-59,-119 -129,-234 -208,-344l315 -157c315,-158 701,-30 859,285l2865 5723c158,315 30,701 -285,859l-1717 859c-315,158 -701,30 -859,-285l-1487 -2969c-134,-994 -612,-1939 -1057,-2826 -65,-131 -189,-388 -253,-610 57,-72 130,-133 217,-177z"/>
	<path id="curve0" fill="#252525" d="M1942 2544c-11,27 -19,56 -23,88 -7,58 -7,123 3,197 27,211 128,494 318,874 595,1187 1190,2375 1036,3616 -22,176 -182,300 -357,278 -176,-21 -300,-181 -279,-357 130,-1038 -410,-2129 -956,-3219 3,14 6,28 9,43l0 0c181,813 298,1336 153,3241 -13,176 -167,308 -343,295 -176,-14 -308,-167 -295,-343 137,-1793 33,-2289 -131,-3027 -6,-18 -10,-37 -13,-57 -148,-684 -108,-1196 47,-1585 3,-9 7,-19 11,-28 143,-340 370,-577 636,-748 60,-41 125,-78 195,-113 188,-94 377,-132 559,-125 172,7 339,54 496,132 137,68 266,162 382,273 171,162 316,362 424,578l430 858c79,158 15,350 -143,430 -158,79 -351,15 -430,-143l-429 -859c-75,-148 -170,-283 -279,-390 -74,-72 -155,-132 -240,-175 -75,-37 -154,-60 -235,-63 -81,-2 -165,15 -249,57 -147,73 -251,158 -297,272z"/>


<g comp-op="clear">
<g transform="translate(5120,5120) scale(0.5,0.5)"  stroke="#808080" stroke-width="512" stroke-linejoin="round">
	<title>delete icon</title>
	<desc>delete icon from the IconExperience.com O-Collection. Copyright by INCORS GmbH (www.incors.com).</desc>
	<path id="curve0" fill="#252525" d="M1273 7156l2037 -2036 -2037 -2036c-124,-125 -124,-328 0,-453l1358 -1358c125,-124 328,-124 453,0l2036 2037 2036 -2037c125,-124 328,-124 453,0l1358 1358c124,125 124,328 0,453l-2037 2036 2037 2036c124,125 124,328 0,453l-1358 1358c-125,124 -328,124 -453,0l-2036 -2037 -2036 2037c-125,124 -328,124 -453,0l-1358 -1358c-124,-125 -124,-328 0,-453z"/>
</g>
</g>



<g transform="translate(5120,5120) scale(0.5,0.5)">
	<title>delete icon</title>
	<desc>delete icon from the IconExperience.com O-Collection. Copyright by INCORS GmbH (www.incors.com).</desc>
	<path id="curve0" fill="#252525" d="M1273 7156l2037 -2036 -2037 -2036c-124,-125 -124,-328 0,-453l1358 -1358c125,-124 328,-124 453,0l2036 2037 2036 -2037c125,-124 328,-124 453,0l1358 1358c124,125 124,328 0,453l-2037 2036 2037 2036c124,125 124,328 0,453l-1358 1358c-125,124 -328,124 -453,0l-2036 -2037 -2036 2037c-125,124 -328,124 -453,0l-1358 -1358c-124,-125 -124,-328 0,-453z"/>
</g>

</svg>
