<?xml version="1.0" encoding="UTF-8"?>
<!DOCTYPE svg PUBLIC "-//W3C//DTD SVG 1.1//EN" "http://www.w3.org/Graphics/SVG/1.1/DTD/svg11.dtd">
<svg xmlns="http://www.w3.org/2000/svg" xml:space="preserve" width="1024px" height="1024px" shape-rendering="geometricPrecision" text-rendering="geometricPrecision" image-rendering="optimizeQuality" fill-rule="nonzero" clip-rule="evenodd" viewBox="0 0 10240 10240" xmlns:xlink="http://www.w3.org/1999/xlink">
	<title>documents_empty icon</title>
	<desc>documents_empty icon from the IconExperience.com O-Collection. Copyright by INCORS GmbH (www.incors.com).</desc>
	<path id="curve1" fill="#3E9BD5" d="M3200 640l3950 0c352,0 656,126 905,375l1170 1170c249,249 375,553 375,905l0 5230 -2240 0 0 -640 1600 0 0 -4160c0,-176 -144,-320 -320,-320l-1600 0 0 -1600c0,-176 -144,-320 -320,-320l-2880 0 0 320 -640 0 0 -960zm4487 953l0 960 960 0 -960 -960z"/>
	<path id="curve0" fill="#252525" d="M640 1920l3950 0c352,0 656,126 905,375l1170 1170c249,249 375,553 375,905l0 5230 -6400 0 0 -7680zm4480 960l0 960 960 0 -960 -960zm-3840 -320l0 6400 5120 0 0 -4160c0,-176 -144,-320 -320,-320l-1600 0 0 -1600c0,-176 -144,-320 -320,-320l-2880 0z"/>

<g comp-op="clear">
<g transform="translate(5120,5120) scale(0.5,0.5)"  stroke="#808080" stroke-width="512" stroke-linejoin="round">
	<title>delete icon</title>
	<desc>delete icon from the IconExperience.com O-Collection. Copyright by INCORS GmbH (www.incors.com).</desc>
	<path id="curve0" fill="#252525" d="M1273 7156l2037 -2036 -2037 -2036c-124,-125 -124,-328 0,-453l1358 -1358c125,-124 328,-124 453,0l2036 2037 2036 -2037c125,-124 328,-124 453,0l1358 1358c124,125 124,328 0,453l-2037 2036 2037 2036c124,125 124,328 0,453l-1358 1358c-125,124 -328,124 -453,0l-2036 -2037 -2036 2037c-125,124 -328,124 -453,0l-1358 -1358c-124,-125 -124,-328 0,-453z"/>
</g>
</g>

<g transform="translate(5120,5120) scale(0.5,0.5)">
	<title>delete icon</title>
	<desc>delete icon from the IconExperience.com O-Collection. Copyright by INCORS GmbH (www.incors.com).</desc>
	<path id="curve0" fill="#252525" d="M1273 7156l2037 -2036 -2037 -2036c-124,-125 -124,-328 0,-453l1358 -1358c125,-124 328,-124 453,0l2036 2037 2036 -2037c125,-124 328,-124 453,0l1358 1358c124,125 124,328 0,453l-2037 2036 2037 2036c124,125 124,328 0,453l-1358 1358c-125,124 -328,124 -453,0l-2036 -2037 -2036 2037c-125,124 -328,124 -453,0l-1358 -1358c-124,-125 -124,-328 0,-453z"/>
</g>

<g comp-op="clear">
<g stroke="#808080" stroke-width="512" stroke-linejoin="round">
	<title>document_pinned icon</title>
	<desc>document_pinned icon from the IconExperience.com O-Collection. Copyright by INCORS GmbH (www.incors.com).</desc>
	<path id="curve1" fill="#252525" d="M2734 2978l573 465c79,64 170,83 268,66 115,-21 203,-94 244,-204 41,-109 22,-223 -52,-313l-469 -578c-138,232 -332,426 -564,564z"/>
	<path id="curve0" fill="#3E9BD5" d="M1920 320c707,0 1280,573 1280,1280 0,707 -573,1280 -1280,1280 -707,0 -1280,-573 -1280,-1280 0,-707 573,-1280 1280,-1280zm134 742c29,-114 -3,-226 -87,-308 -85,-81 -198,-110 -311,-77 -318,90 -569,341 -659,659 -33,113 -4,226 77,311 82,84 194,116 308,87l0 0c114,-28 198,-109 230,-222 31,-106 114,-189 220,-220 113,-32 194,-116 222,-230l0 0z"/>
</g>
</g>

<g>
	<title>document_pinned icon</title>
	<desc>document_pinned icon from the IconExperience.com O-Collection. Copyright by INCORS GmbH (www.incors.com).</desc>
	<path id="curve1" fill="#252525" d="M2734 2978l573 465c79,64 170,83 268,66 115,-21 203,-94 244,-204 41,-109 22,-223 -52,-313l-469 -578c-138,232 -332,426 -564,564z"/>
	<path id="curve0" fill="#3E9BD5" d="M1920 320c707,0 1280,573 1280,1280 0,707 -573,1280 -1280,1280 -707,0 -1280,-573 -1280,-1280 0,-707 573,-1280 1280,-1280zm134 742c29,-114 -3,-226 -87,-308 -85,-81 -198,-110 -311,-77 -318,90 -569,341 -659,659 -33,113 -4,226 77,311 82,84 194,116 308,87l0 0c114,-28 198,-109 230,-222 31,-106 114,-189 220,-220 113,-32 194,-116 222,-230l0 0z"/>
</g>

</svg>
