<?xml version="1.0" encoding="UTF-8"?>
<!DOCTYPE svg PUBLIC "-//W3C//DTD SVG 1.1//EN" "http://www.w3.org/Graphics/SVG/1.1/DTD/svg11.dtd">
<svg xmlns="http://www.w3.org/2000/svg" xml:space="preserve" width="1024px" height="1024px" shape-rendering="geometricPrecision" text-rendering="geometricPrecision" image-rendering="optimizeQuality" fill-rule="nonzero" clip-rule="evenodd" viewBox="0 0 10240 10240" xmlns:xlink="http://www.w3.org/1999/xlink">
	<title>document_text icon</title>
	<desc>document_text icon from the IconExperience.com O-Collection. Copyright by INCORS GmbH (www.incors.com).</desc>
	<path id="curve1" fill="#3E9BD5" d="M2560 7680l1920 0 0 640 -1920 0 0 -640zm0 -5760l1920 0 0 640 -1920 0 0 -640zm0 1280l1920 0 0 640 -1920 0 0 -640zm0 1920l5120 0 0 640 -5120 0 0 -640zm0 1280l4480 0 0 640 -4480 0 0 -640z"/>
	<path id="curve0" fill="#252525" d="M1280 640l5230 0c352,0 656,126 905,375l1170 1170c249,249 375,553 375,905l0 6510 -7680 0 0 -8960zm640 640l0 7680 6400 0 0 -5440c0,-176 -144,-320 -320,-320l-1600 0 0 -1600c0,-176 -144,-320 -320,-320l-4160 0zm5120 320l0 960 960 0 -960 -960z"/>


<g comp-op="clear">
<g transform="translate(5120,5120) scale(0.5,0.5)"  stroke="#808080" stroke-width="512" stroke-linejoin="round">
	<title>delete icon</title>
	<desc>delete icon from the IconExperience.com O-Collection. Copyright by INCORS GmbH (www.incors.com).</desc>
	<path id="curve0" fill="#252525" d="M1273 7156l2037 -2036 -2037 -2036c-124,-125 -124,-328 0,-453l1358 -1358c125,-124 328,-124 453,0l2036 2037 2036 -2037c125,-124 328,-124 453,0l1358 1358c124,125 124,328 0,453l-2037 2036 2037 2036c124,125 124,328 0,453l-1358 1358c-125,124 -328,124 -453,0l-2036 -2037 -2036 2037c-125,124 -328,124 -453,0l-1358 -1358c-124,-125 -124,-328 0,-453z"/>
</g>
</g>



<g transform="translate(5120,5120) scale(0.5,0.5)">
	<title>delete icon</title>
	<desc>delete icon from the IconExperience.com O-Collection. Copyright by INCORS GmbH (www.incors.com).</desc>
	<path id="curve0" fill="#252525" d="M1273 7156l2037 -2036 -2037 -2036c-124,-125 -124,-328 0,-453l1358 -1358c125,-124 328,-124 453,0l2036 2037 2036 -2037c125,-124 328,-124 453,0l1358 1358c124,125 124,328 0,453l-2037 2036 2037 2036c124,125 124,328 0,453l-1358 1358c-125,124 -328,124 -453,0l-2036 -2037 -2036 2037c-125,124 -328,124 -453,0l-1358 -1358c-124,-125 -124,-328 0,-453z"/>
</g>

</svg>
