<?xml version="1.0" encoding="UTF-8"?>
<!DOCTYPE svg PUBLIC "-//W3C//DTD SVG 1.1//EN" "http://www.w3.org/Graphics/SVG/1.1/DTD/svg11.dtd">
<svg xmlns="http://www.w3.org/2000/svg" xml:space="preserve" width="1024px" height="1024px" shape-rendering="geometricPrecision" text-rendering="geometricPrecision" image-rendering="optimizeQuality" fill-rule="nonzero" clip-rule="evenodd" viewBox="0 0 10240 10240" xmlns:xlink="http://www.w3.org/1999/xlink">
	<title>clipboard_empty icon</title>
	<desc>clipboard_empty icon from the IconExperience.com O-Collection. Copyright by INCORS GmbH (www.incors.com).</desc>
	<path id="curve1" fill="#3E9BD5" d="M2560 1920l0 0 0 320c0,242 69,471 243,646 265,269 678,314 1037,314l2560 0c359,0 772,-45 1037,-314 174,-175 243,-404 243,-646l0 -320 0 0c353,0 640,288 640,640l0 6400c0,352 -288,640 -640,640l-5120 0c-352,0 -640,-287 -640,-640l0 -6400c0,-353 288,-640 640,-640zm1281 0l2558 0c1,0 1,1 1,1l0 319c0,-1 -1,0 -1,0l-2559 0c1,0 0,-1 0,-1l0 -319c0,1 0,0 1,0z"/>
	<path id="curve0" fill="#252525" d="M3840 1600c-175,0 -320,145 -320,320l0 320c0,175 145,320 320,320l2560 0c175,0 320,-145 320,-320l0 -320c0,-176 -145,-320 -320,-320l-2560 0zm2560 -640c529,0 960,431 960,960l0 320c0,529 -431,640 -960,640l-2560 0c-529,0 -960,-111 -960,-640l0 -320c0,-529 431,-960 960,-960 0,-177 573,-640 1280,-640 707,0 1280,463 1280,640zm-1280 -320c-177,0 -320,143 -320,320 0,177 143,320 320,320 177,0 320,-143 320,-320 0,-177 -143,-320 -320,-320z"/>


<g comp-op="clear">
<g transform="translate(5120,5120) scale(0.5,0.5)"  stroke="#808080" stroke-width="512" stroke-linejoin="round">
	<title>scroll icon</title>
	<desc>scroll icon from the IconExperience.com O-Collection. Copyright by INCORS GmbH (www.incors.com).</desc>
	<rect fill="white" x="2560" y="1800" height="6600" width="5400"/>
	<rect fill="white" x="1200" y="7600" height="900" width="1600"/>
	<rect fill="white" x="8200" y="1800" height="750" width="750"/>
	<path id="curve0" fill="#252525" d="M8320 8000c0,530 -430,960 -960,960l-5760 0c-530,0 -960,-430 -960,-960 0,-530 430,-960 960,-960l5440 0c176,0 320,144 320,320l0 86c0,117 -58,218 -160,277 -96,55 -160,159 -160,277 0,177 143,320 320,320 177,0 320,-143 320,-320l0 -5760c0,-112 19,-220 55,-320l-4855 0c-177,0 -320,143 -320,320l0 4480 -640 0 0 -4480c0,-530 430,-960 960,-960l5760 0c530,0 960,430 960,960 0,530 -430,960 -960,960l0 -640c177,0 320,-143 320,-320 0,-177 -143,-320 -320,-320 -177,0 -320,143 -320,320l0 5760zm-1865 320c-73,-205 -73,-435 0,-640l-4855 0c-177,0 -320,143 -320,320 0,177 143,320 320,320l4855 0z"/>
</g>
</g>



<g transform="translate(5120,5120) scale(0.5,0.5)">
	<title>scroll icon</title>
	<desc>scroll icon from the IconExperience.com O-Collection. Copyright by INCORS GmbH (www.incors.com).</desc>
	<rect fill="white" x="2560" y="1800" height="6600" width="5400"/>
	<rect fill="white" x="1200" y="7600" height="900" width="1600"/>
	<rect fill="white" x="8200" y="1800" height="750" width="750"/>
	<path id="curve0" fill="#252525" d="M8320 8000c0,530 -430,960 -960,960l-5760 0c-530,0 -960,-430 -960,-960 0,-530 430,-960 960,-960l5440 0c176,0 320,144 320,320l0 86c0,117 -58,218 -160,277 -96,55 -160,159 -160,277 0,177 143,320 320,320 177,0 320,-143 320,-320l0 -5760c0,-112 19,-220 55,-320l-4855 0c-177,0 -320,143 -320,320l0 4480 -640 0 0 -4480c0,-530 430,-960 960,-960l5760 0c530,0 960,430 960,960 0,530 -430,960 -960,960l0 -640c177,0 320,-143 320,-320 0,-177 -143,-320 -320,-320 -177,0 -320,143 -320,320l0 5760zm-1865 320c-73,-205 -73,-435 0,-640l-4855 0c-177,0 -320,143 -320,320 0,177 143,320 320,320l4855 0z"/>
</g>

</svg>
