<?xml version="1.0" encoding="UTF-8"?>
<!DOCTYPE svg PUBLIC "-//W3C//DTD SVG 1.1//EN" "http://www.w3.org/Graphics/SVG/1.1/DTD/svg11.dtd">
<svg xmlns="http://www.w3.org/2000/svg" xml:space="preserve" width="1024px" height="1024px" shape-rendering="geometricPrecision" text-rendering="geometricPrecision" image-rendering="optimizeQuality" fill-rule="nonzero" clip-rule="evenodd" viewBox="0 0 10240 10240" xmlns:xlink="http://www.w3.org/1999/xlink">
	<title>code icon</title>
	<desc>code icon from the IconExperience.com O-Collection. Copyright by INCORS GmbH (www.incors.com).</desc>
        <rect x="1280" y="640" width="7680" height="8400" fill="#ffffff"/>
	<path id="curve1" fill="#3E9BD5" d="M2560 7680l1920 0 0 640 -1920 0 0 -640zm0 -5760l1920 0 0 640 -1920 0 0 -640zm1280 960l2560 0 0 640 -2560 0 0 -640zm1280 960l2560 0 0 640 -2560 0 0 -640zm0 960l1920 0 0 640 -1920 0 0 -640zm-1280 960l1920 0 0 640 -1920 0 0 -640zm0 960l2560 0 0 640 -2560 0 0 -640zm2880 0l960 0 0 640 -960 0 0 -640z"/>
	<path id="curve1" fill="#252525" d="M2560 1920l1920 0 0 640 -1920 0 0 -640z"/>
	<path id="curve1" fill="#252525" d="M2560 7680l1920 0 0 640 -1920 0 0 -640z"/>
	<path id="curve1" fill="#808080" d="M3840 5760l1920 0 0 640 -1920 0 0 -640z"/>
	<path id="curve1" fill="#808080" d="M3840 2880l2560 0 0 640 -2560 0 0 -640z"/>
	<path id="curve1" fill="#808080" d="M3840 6720l2560 0 0 640 -2560 0 0 -640z"/>
	<path id="curve0" fill="#252525" d="M8960 640l-7680 0 0 8960 7680 0 0 -8960zm-640 640l0 7680 -6400 0 0 -7680 6400 0z"/>
</svg>
