<?xml version="1.0" encoding="UTF-8"?>
<!DOCTYPE svg PUBLIC "-//W3C//DTD SVG 1.1//EN" "http://www.w3.org/Graphics/SVG/1.1/DTD/svg11.dtd">
<svg xmlns="http://www.w3.org/2000/svg" xml:space="preserve" width="1024px" height="1024px" shape-rendering="geometricPrecision" text-rendering="geometricPrecision" image-rendering="optimizeQuality" fill-rule="nonzero" clip-rule="evenodd" viewBox="0 0 10240 10240" xmlns:xlink="http://www.w3.org/1999/xlink">
	<title>keyboard_key_c icon</title>
	<desc>keyboard_key_c icon from the IconExperience.com O-Collection. Copyright by INCORS GmbH (www.incors.com).</desc>
	<path id="curve0" fill="#252525" d="M2560 1280l5120 0c705,0 1280,575 1280,1280l0 5120c0,705 -575,1280 -1280,1280l-5120 0c-705,0 -1280,-575 -1280,-1280l0 -5120c0,-705 575,-1280 1280,-1280zm1280 1280l1280 0c353,0 640,287 640,640l0 160 -640 0c0,-88 -72,-160 -160,-160l-960 0c-88,0 -160,72 -160,160 0,533 0,1067 0,1600 0,88 72,160 160,160l960 0c88,0 160,-72 160,-160l640 0 0 160c0,353 -287,640 -640,640l-1280 0c-353,0 -640,-287 -640,-640l0 -1920c0,-353 287,-640 640,-640zm-640 -640c-529,0 -960,431 -960,960l0 3840c0,529 431,960 960,960l3840 0c529,0 960,-431 960,-960l0 -3840c0,-529 -431,-960 -960,-960l-3840 0zm0 320c-353,0 -640,287 -640,640l0 3840c0,353 287,640 640,640l3840 0c353,0 640,-287 640,-640l0 -3840c0,-353 -287,-640 -640,-640l-3840 0z"/>


<g comp-op="clear">
<g transform="translate(5120,5120) scale(0.5,0.5)"  stroke="#808080" stroke-width="512" stroke-linejoin="round">
	<title>plus icon</title>
	<desc>plus icon from the IconExperience.com O-Collection. Copyright by INCORS GmbH (www.incors.com).</desc>
	<path id="curve0" fill="#3E9BD5" d="M960 3840l2880 0 0 -2880c0,-176 144,-320 320,-320l1920 0c176,0 320,144 320,320l0 2880 2880 0c176,0 320,144 320,320l0 1920c0,176 -144,320 -320,320l-2880 0 0 2880c0,176 -144,320 -320,320l-1920 0c-176,0 -320,-144 -320,-320l0 -2880 -2880 0c-176,0 -320,-144 -320,-320l0 -1920c0,-176 144,-320 320,-320z"/>
</g>
</g>



<g transform="translate(5120,5120) scale(0.5,0.5)">
	<title>plus icon</title>
	<desc>plus icon from the IconExperience.com O-Collection. Copyright by INCORS GmbH (www.incors.com).</desc>
	<path id="curve0" fill="#3E9BD5" d="M960 3840l2880 0 0 -2880c0,-176 144,-320 320,-320l1920 0c176,0 320,144 320,320l0 2880 2880 0c176,0 320,144 320,320l0 1920c0,176 -144,320 -320,320l-2880 0 0 2880c0,176 -144,320 -320,320l-1920 0c-176,0 -320,-144 -320,-320l0 -2880 -2880 0c-176,0 -320,-144 -320,-320l0 -1920c0,-176 144,-320 320,-320z"/>
</g>

</svg>
