<?xml version="1.0" encoding="UTF-8"?>
<!DOCTYPE svg PUBLIC "-//W3C//DTD SVG 1.1//EN" "http://www.w3.org/Graphics/SVG/1.1/DTD/svg11.dtd">
<svg xmlns="http://www.w3.org/2000/svg" xml:space="preserve" width="1024px" height="1024px" shape-rendering="geometricPrecision" text-rendering="geometricPrecision" image-rendering="optimizeQuality" fill-rule="nonzero" clip-rule="evenodd" viewBox="0 0 10240 10240" xmlns:xlink="http://www.w3.org/1999/xlink">

<g transform="translate(10240,0) scale(-1,1)">
	<title>arrow_out icon</title>
	<desc>arrow_out icon from the IconExperience.com O-Collection. Copyright by INCORS GmbH (www.incors.com).</desc>
	<path id="curve1" fill="#3E9BD5" d="M1280 7680l4160 0 0 320c0,176 144,320 320,320l1280 0c176,0 320,-144 320,-320l0 -320 1600 0 0 1280 -7680 0 0 -1280z"/>
	<path id="curve0" fill="#252525" d="M3604 3200l1196 0c1235,-3 2240,1006 2240,2240l0 2560 -1280 0 0 -2560c0,-536 -422,-962 -960,-960l-1203 7 687 687c46,47 60,113 35,174 -26,61 -83,99 -148,99l-839 -7c-176,-1 -328,-63 -453,-187l-1186 -1187c-124,-124 -124,-328 0,-452l1186 -1187c125,-124 277,-188 453,-187l839 7c66,0 122,38 147,99 26,61 12,127 -34,174l-680 680z"/>
</g>

</svg>
