<?xml version="1.0" encoding="UTF-8" ?>
<!DOCTYPE svg PUBLIC "-//W3C//DTD SVG 1.1//EN" "http://www.w3.org/Graphics/SVG/1.1/DTD/svg11.dtd">
<svg width="256pt" height="256pt" viewBox="0 0 256 256" version="1.1" xmlns="http://www.w3.org/2000/svg">
<title>arrow_into_deep icon</title>
<desc>icon from the IconExperience.com V-Collection. Copyright by INCORS GmbH (www.incors.com). Vectorized using Vector Magic.</desc>
<g id="#252525ff">
<path fill="#252525" stroke="#252525" stroke-width="0.09375" opacity="1.00" d=" M 32.00 10.00 C 50.66 10.00 69.32 9.99 87.97 10.00 C 102.42 9.94 116.74 15.82 127.05 25.92 C 137.54 36.03 143.85 50.36 143.98 64.94 C 144.03 75.36 143.93 85.77 143.96 96.18 C 149.68 90.47 155.26 84.60 161.03 78.94 C 163.02 76.52 167.50 77.95 167.71 81.06 C 168.05 88.05 167.86 95.05 168.00 102.05 C 168.19 106.28 166.69 110.56 163.69 113.59 C 157.18 120.22 150.55 126.73 144.01 133.32 C 143.97 138.94 143.95 144.56 143.96 150.18 C 148.59 145.43 153.36 140.84 157.81 135.93 C 159.16 134.54 160.46 133.05 162.19 132.12 C 164.63 130.74 168.22 133.06 167.92 135.85 C 167.79 142.92 168.03 150.00 167.97 157.08 C 168.03 161.24 166.16 165.25 163.20 168.13 C 154.03 177.33 144.79 186.47 135.66 195.70 C 133.97 197.34 132.29 199.29 129.87 199.79 C 126.95 200.56 123.85 199.37 121.86 197.19 C 112.67 188.02 103.52 178.80 94.30 169.66 C 91.02 166.67 88.27 162.73 88.10 158.15 C 87.80 150.78 88.01 143.40 87.75 136.03 C 87.50 133.36 90.34 131.07 92.90 131.85 C 94.92 132.77 96.42 134.47 97.95 136.02 C 102.47 140.88 107.27 145.47 111.94 150.19 C 111.97 144.55 111.97 138.92 111.96 133.29 C 105.60 126.90 99.19 120.54 92.83 114.15 C 89.85 111.28 88.04 107.25 88.03 103.09 C 87.93 96.03 87.84 88.95 87.86 81.89 C 87.46 78.63 91.87 76.34 94.25 78.63 C 100.29 84.33 106.01 90.38 111.94 96.19 C 111.90 85.46 112.13 74.72 111.90 64.00 C 111.34 52.27 100.83 42.25 89.13 42.06 C 70.09 41.92 51.04 42.04 32.00 42.00 C 32.00 31.33 32.00 20.67 32.00 10.00 Z" />
</g>
<g id="#3e9bd5ff">
<path fill="#3e9bd5" stroke="#3e9bd5" stroke-width="0.09375" opacity="1.00" d=" M 32.00 192.00 C 56.45 192.00 80.90 192.01 105.34 191.99 C 109.33 195.90 113.19 199.95 117.22 203.81 C 122.98 209.36 133.00 209.37 138.77 203.81 C 142.80 199.95 146.66 195.90 150.65 191.99 C 175.10 192.01 199.55 192.00 224.00 192.00 C 224.00 202.67 224.00 213.33 224.00 224.00 C 160.00 224.00 96.00 224.00 32.00 224.00 C 32.00 213.33 32.00 202.67 32.00 192.00 Z" />
</g>
</svg>
