<?xml version="1.0" encoding="UTF-8"?>
<!DOCTYPE svg PUBLIC "-//W3C//DTD SVG 1.1//EN" "http://www.w3.org/Graphics/SVG/1.1/DTD/svg11.dtd">
<svg xmlns="http://www.w3.org/2000/svg" xml:space="preserve" width="1024px" height="1024px" shape-rendering="geometricPrecision" text-rendering="geometricPrecision" image-rendering="optimizeQuality" fill-rule="nonzero" clip-rule="evenodd" viewBox="0 0 10240 10240" xmlns:xlink="http://www.w3.org/1999/xlink">
	<title>cpu icon</title>
	<desc>cpu icon from the IconExperience.com O-Collection. Copyright by INCORS GmbH (www.incors.com).</desc>
	<path id="curve2" fill="#3E9BD5" d="M5120 7680c530,0 960,430 960,960l0 640 -1920 0 0 -640c0,-530 430,-960 960,-960z"/>
	<path id="curve1" fill="#3E9BD5" d="M3200 640l3840 0c176,0 320,144 320,320l0 8000c0,176 -144,320 -320,320l-640 0 0 -640c0,-707 -573,-1280 -1280,-1280 -707,0 -1280,573 -1280,1280l0 640 -640 0c-176,0 -320,-144 -320,-320l0 -8000c0,-176 144,-320 320,-320z"/>
	<path id="curve0" fill="#252525" d="M7680 2240l640 0c176,0 320,144 320,320l640 0 0 -320c0,-265 -108,-505 -282,-678 -173,-174 -413,-282 -678,-282l-640 0 0 960zm-5120 0l-640 0c-176,0 -320,144 -320,320l-640 0 0 -320c0,-265 108,-505 282,-678 173,-174 413,-282 678,-282l640 0 0 960zm0 1600l-640 0c-176,0 -320,144 -320,320l-640 0 0 -320c0,-265 108,-505 282,-678 173,-174 413,-282 678,-282l640 0 0 960zm0 1600l-640 0c-176,0 -320,144 -320,320l-640 0 0 -320c0,-265 108,-505 282,-678 173,-174 413,-282 678,-282l640 0 0 960zm0 1600l-640 0c-176,0 -320,144 -320,320l-640 0 0 -320c0,-265 108,-505 282,-678 173,-174 413,-282 678,-282l640 0 0 960zm0 1600l-640 0c-176,0 -320,144 -320,320l-640 0 0 -320c0,-265 108,-505 282,-678 173,-174 413,-282 678,-282l640 0 0 960zm5120 0l640 0c176,0 320,144 320,320l640 0 0 -320c0,-265 -108,-505 -282,-678 -173,-174 -413,-282 -678,-282l-640 0 0 960zm0 -1600l640 0c176,0 320,144 320,320l640 0 0 -320c0,-265 -108,-505 -282,-678 -173,-174 -413,-282 -678,-282l-640 0 0 960zm0 -1600l640 0c176,0 320,144 320,320l640 0 0 -320c0,-265 -108,-505 -282,-678 -173,-174 -413,-282 -678,-282l-640 0 0 960zm0 -1600l640 0c176,0 320,144 320,320l640 0 0 -320c0,-265 -108,-505 -282,-678 -173,-174 -413,-282 -678,-282l-640 0 0 960z"/>


<g comp-op="clear">
<g transform="translate(5120,5120) scale(0.5,0.5)"  stroke="#808080" stroke-width="512" stroke-linejoin="round">
	<title>magnifying_glass icon</title>
	<desc>magnifying_glass icon from the IconExperience.com O-Collection. Copyright by INCORS GmbH (www.incors.com).</desc>
    <circle fill="white" opacity="0.5" cx="3500" cy="3500" r="3000"/>
	<path id="curve1" fill="#3E9BD5" d="M5986 6814l828 -828c124,-124 328,-124 452,0l2428 2428c124,124 124,328 0,452l-828 828c-124,124 -328,124 -452,0l-2428 -2428c-124,-124 -124,-328 0,-452z"/>
	<path id="curve0" fill="#252525" d="M6082 5442l412 412 -640 640 -412 -412c-534,401 -1197,638 -1916,638 -1764,0 -3194,-1430 -3194,-3194 0,-1764 1430,-3194 3194,-3194 1764,0 3194,1430 3194,3194 0,719 -237,1382 -638,1916zm-2556 -4471c-1411,0 -2555,1144 -2555,2555 0,1411 1144,2555 2555,2555 1411,0 2555,-1144 2555,-2555 0,-1411 -1144,-2555 -2555,-2555z"/>
</g>
</g>



<g transform="translate(5120,5120) scale(0.5,0.5)">
	<title>magnifying_glass icon</title>
	<desc>magnifying_glass icon from the IconExperience.com O-Collection. Copyright by INCORS GmbH (www.incors.com).</desc>
    <circle fill="white" opacity="0.5" cx="3500" cy="3500" r="3000"/>
	<path id="curve1" fill="#3E9BD5" d="M5986 6814l828 -828c124,-124 328,-124 452,0l2428 2428c124,124 124,328 0,452l-828 828c-124,124 -328,124 -452,0l-2428 -2428c-124,-124 -124,-328 0,-452z"/>
	<path id="curve0" fill="#252525" d="M6082 5442l412 412 -640 640 -412 -412c-534,401 -1197,638 -1916,638 -1764,0 -3194,-1430 -3194,-3194 0,-1764 1430,-3194 3194,-3194 1764,0 3194,1430 3194,3194 0,719 -237,1382 -638,1916zm-2556 -4471c-1411,0 -2555,1144 -2555,2555 0,1411 1144,2555 2555,2555 1411,0 2555,-1144 2555,-2555 0,-1411 -1144,-2555 -2555,-2555z"/>
</g>

</svg>
