<?xml version="1.0" encoding="UTF-8"?>
<!DOCTYPE svg PUBLIC "-//W3C//DTD SVG 1.1//EN" "http://www.w3.org/Graphics/SVG/1.1/DTD/svg11.dtd">
<svg xmlns="http://www.w3.org/2000/svg" xml:space="preserve" width="1024px" height="1024px" shape-rendering="geometricPrecision" text-rendering="geometricPrecision" image-rendering="optimizeQuality" fill-rule="nonzero" clip-rule="evenodd" viewBox="0 0 10240 10240" xmlns:xlink="http://www.w3.org/1999/xlink">
	<title>trafficlight_red icon</title>
	<desc>trafficlight_red icon from the IconExperience.com O-Collection. Copyright by INCORS GmbH (www.incors.com).</desc>
	<path id="curve3" fill="#252525" d="M7360 9600c177,0 320,-143 320,-320l0 -8320c0,-177 -143,-320 -320,-320l-4480 0c-177,0 -320,143 -320,320l0 8320c0,177 143,320 320,320l4480 0zm-2240 0c-884,0 -1600,-716 -1600,-1600 0,-633 368,-1181 902,-1440 -534,-259 -902,-807 -902,-1440 0,-633 368,-1181 902,-1440 -534,-259 -902,-807 -902,-1440 0,-884 716,-1600 1600,-1600 884,0 1600,716 1600,1600 0,633 -368,1181 -902,1440 534,259 902,807 902,1440 0,633 -368,1181 -902,1440 534,259 902,807 902,1440 0,884 -716,1600 -1600,1600z"/>
	<path id="curve2" fill="#3E9BD5" d="M5120 960c707,0 1280,573 1280,1280 0,707 -573,1280 -1280,1280 -707,0 -1280,-573 -1280,-1280 0,-707 573,-1280 1280,-1280z"/>
	<path id="curve1" fill="#252525" d="M5120 3840c707,0 1280,573 1280,1280 0,707 -573,1280 -1280,1280 -707,0 -1280,-573 -1280,-1280 0,-707 573,-1280 1280,-1280z"/>
	<path id="curve0" fill="#252525" d="M5120 6720c707,0 1280,573 1280,1280 0,707 -573,1280 -1280,1280 -707,0 -1280,-573 -1280,-1280 0,-707 573,-1280 1280,-1280z"/>
</svg>
