<?xml version="1.0" encoding="UTF-8"?>
<!DOCTYPE svg PUBLIC "-//W3C//DTD SVG 1.1//EN" "http://www.w3.org/Graphics/SVG/1.1/DTD/svg11.dtd">
<svg xmlns="http://www.w3.org/2000/svg" xml:space="preserve" width="1024px" height="1024px" shape-rendering="geometricPrecision" text-rendering="geometricPrecision" image-rendering="optimizeQuality" fill-rule="nonzero" clip-rule="evenodd" viewBox="0 0 10240 10240" xmlns:xlink="http://www.w3.org/1999/xlink">
	<title>sign_warning icon</title>
	<desc>sign_warning icon from the IconExperience.com O-Collection. Copyright by INCORS GmbH (www.incors.com).</desc>
	<path id="curve1" fill="#252525" d="M5680 1282l3846 6712c117,205 117,439 0,644 -117,205 -319,322 -554,322l-7691 0c-234,0 -436,-117 -553,-322 -117,-205 -117,-439 0,-644l3846 -6712c117,-205 318,-322 553,-322 235,0 436,117 553,322zm-560 318l-3840 6720 7680 0 -3840 -6720z"/>
	<path id="curve0" fill="#3E9BD5" d="M5120 6720c353,0 640,287 640,640 0,353 -287,640 -640,640 -353,0 -640,-287 -640,-640 0,-353 287,-640 640,-640zm-320 -2880l640 0c176,0 320,144 320,320l0 802c0,110 -12,204 -38,311l-252 1006c-18,72 -81,121 -155,121l-390 0c-74,0 -137,-49 -155,-121l-252 -1006c-26,-107 -38,-201 -38,-311l0 -802c0,-176 144,-320 320,-320z"/>


<g comp-op="clear">
<g transform="translate(5120,5120) scale(0.5,0.5)"  stroke="#808080" stroke-width="512" stroke-linejoin="round">
	<title>checkbox_unchecked icon</title>
	<desc>checkbox_unchecked icon from the IconExperience.com O-Collection. Copyright by INCORS GmbH (www.incors.com).</desc>
        <rect fill="#ffffff" x="1920" y="4480" width="4480" height="4480"/>
	<path id="curve0" fill="#252525" d="M1920 3840l4480 0c353,0 640,287 640,640l0 4480c0,353 -287,640 -640,640l-4480 0c-353,0 -640,-287 -640,-640l0 -4480c0,-353 287,-640 640,-640zm0 640l0 4480 4480 0 0 -4480 -4480 0z"/>
</g>
</g>



<g transform="translate(5120,5120) scale(0.5,0.5)">
	<title>checkbox_unchecked icon</title>
	<desc>checkbox_unchecked icon from the IconExperience.com O-Collection. Copyright by INCORS GmbH (www.incors.com).</desc>
        <rect fill="#ffffff" x="1920" y="4480" width="4480" height="4480"/>
	<path id="curve0" fill="#252525" d="M1920 3840l4480 0c353,0 640,287 640,640l0 4480c0,353 -287,640 -640,640l-4480 0c-353,0 -640,-287 -640,-640l0 -4480c0,-353 287,-640 640,-640zm0 640l0 4480 4480 0 0 -4480 -4480 0z"/>
</g>

</svg>
