<?xml version="1.0" encoding="UTF-8"?>
<!DOCTYPE svg PUBLIC "-//W3C//DTD SVG 1.1//EN" "http://www.w3.org/Graphics/SVG/1.1/DTD/svg11.dtd">
<svg xmlns="http://www.w3.org/2000/svg" xml:space="preserve" width="1024px" height="1024px" shape-rendering="geometricPrecision" text-rendering="geometricPrecision" image-rendering="optimizeQuality" fill-rule="nonzero" clip-rule="evenodd" viewBox="0 0 10240 10240" xmlns:xlink="http://www.w3.org/1999/xlink">
	<title>edit icon</title>
	<desc>edit icon from the IconExperience.com O-Collection. Copyright by INCORS GmbH (www.incors.com).</desc>
	<path id="curve3" fill="#3E9BD5" d="M6190 2030l-2793 2793 -842 2235c-47,123 -23,254 70,347 93,93 224,116 347,70l2235 -842 2793 -2793 -1810 -1810zm-1231 4355l-1315 495 -494 -494 495 -1315 1314 1314zm1457 -3224l0 0c125,125 125,328 0,453l-1435 1435c-125,125 -328,125 -453,0l0 0c-124,-125 -124,-328 0,-452l1436 -1436c124,-124 328,-124 452,0z"/>
	<path id="curve2" fill="#3E9BD5" d="M9358 1577l-905 -905c-250,-249 -656,-249 -906,0l-905 905 1811 1810 905 -905c249,-249 249,-656 0,-905zm-1132 -226c125,125 125,328 0,453 -125,125 -327,125 -452,0 -125,-125 -125,-328 0,-453 125,-125 327,-125 452,0z"/>
	<path id="curve1" fill="#252525" d="M8320 3707l0 0 -640 -640 0 0 640 640zm0 266l0 4987c0,353 -287,640 -640,640l-6400 0c-353,0 -640,-287 -640,-640l0 -6720c0,-353 287,-640 640,-640l0 640 0 1 0 0 0 6718c0,1 0,1 1,1l6398 0c1,0 1,0 1,-1l0 -4346 640 -640z"/>
	<path id="curve0" fill="#252525" d="M6720 640l320 0c27,0 53,3 78,10l-718 717 0 -407c0,-176 144,-320 320,-320zm432 1900l0 0 -752 -753 0 0 752 753zm-5232 -1900l320 0c176,0 320,144 320,320l0 1280c0,176 -144,320 -320,320l-320 0c-176,0 -320,-144 -320,-320l0 -1280c0,-176 144,-320 320,-320zm1600 0l320 0c176,0 320,144 320,320l0 1280c0,176 -144,320 -320,320l-320 0c-176,0 -320,-144 -320,-320l0 -1280c0,-176 144,-320 320,-320zm1600 0l320 0c176,0 320,144 320,320l0 1047 -553 553 -87 0c-176,0 -320,-144 -320,-320l0 -1280c0,-176 144,-320 320,-320z"/>
</svg>
