<?xml version="1.0" encoding="UTF-8"?>
<!DOCTYPE svg PUBLIC "-//W3C//DTD SVG 1.1//EN" "http://www.w3.org/Graphics/SVG/1.1/DTD/svg11.dtd">
<svg xmlns="http://www.w3.org/2000/svg" xml:space="preserve" width="1024px" height="1024px" shape-rendering="geometricPrecision" text-rendering="geometricPrecision" image-rendering="optimizeQuality" fill-rule="nonzero" clip-rule="evenodd" viewBox="0 0 10240 10240" xmlns:xlink="http://www.w3.org/1999/xlink">
	<title>form icon</title>
	<desc>form icon from the IconExperience.com O-Collection. Copyright by INCORS GmbH (www.incors.com).</desc>
	<path id="curve0" fill="#252525" d="M1280 640l7680 0 0 8960 -7680 0 0 -8960zm640 640l0 640 6400 0 0 -640 -6400 0zm0 6400l0 1280 6400 0 0 -1280 -6400 0zm3840 -1600l0 960 2560 0 0 -960 -2560 0zm-3840 640l0 320 3200 0 0 -320 -3200 0zm0 -640l0 320 3200 0 0 -320 -3200 0zm0 -1920l0 1280 6400 0 0 -1280 -6400 0zm3840 -1600l0 960 2560 0 0 -960 -2560 0zm-3840 640l0 320 3200 0 0 -320 -3200 0zm0 -640l0 320 3200 0 0 -320 -3200 0z"/>
</svg>
