<?xml version="1.0" encoding="UTF-8"?>
<!DOCTYPE svg PUBLIC "-//W3C//DTD SVG 1.1//EN" "http://www.w3.org/Graphics/SVG/1.1/DTD/svg11.dtd">
<svg xmlns="http://www.w3.org/2000/svg" xml:space="preserve" width="1024px" height="1024px" shape-rendering="geometricPrecision" text-rendering="geometricPrecision" image-rendering="optimizeQuality" fill-rule="nonzero" clip-rule="evenodd" viewBox="0 0 10240 10240" xmlns:xlink="http://www.w3.org/1999/xlink">
<g transform="translate(0,-2560)">
	<title>plug_lan icon</title>
	<desc>plug_lan icon from the IconExperience.com O-Collection. Copyright by INCORS GmbH (www.incors.com).</desc>
	<path id="curve1" fill="#252525" d="M7360 3840l0 -320 1920 0c176,0 320,144 320,320l0 2880c0,176 -144,320 -320,320l-1920 0 0 -320 1920 0 0 -320 -1280 0 0 -320 1280 0 0 -320 -1280 0 0 -320 1280 0 0 -320 -1280 0 0 -320 1280 0 0 -320 -1280 0 0 -320 1280 0 0 -320 -1920 0z"/>
	<path id="curve0" fill="#252525" d="M6720 3200l-2880 0c-1179,0 -1272,815 -2280,943 -161,21 -280,155 -280,318l0 19 -960 0 0 1600 960 0 0 19c0,163 119,297 280,318 1008,128 1101,943 2280,943l2880 0c176,0 320,-144 320,-320l0 -320 0 -640 -1653 -275c-155,-26 -267,-158 -267,-316l0 -418c0,-158 112,-290 267,-316l1653 -275 0 -640 0 -320c0,-176 -144,-320 -320,-320z"/>
</g>


<g transform="translate(0,-1024)">
	<title>find_text icon</title>
	<desc>find_text icon from the IconExperience.com O-Collection. Copyright by INCORS GmbH (www.incors.com).</desc>
	<path id="curve4" fill="#3E9BD5" d="M7680 6399l1280 0c353,0 640,287 640,640l0 160 -640 0 0 0c0,-88 -72,-160 -160,-160l-960 0c-88,0 -160,72 -160,160 0,533 0,1066 0,1600 0,88 72,160 160,160l960 0c88,0 160,-72 160,-160l0 0 640 0 0 160c0,352 -287,640 -640,640l-1280 0c-352,0 -640,-288 -640,-640l0 -1920c0,-353 288,-640 640,-640z"/>
	<path id="curve3" fill="#3E9BD5" d="M5440 6399c530,0 960,429 960,960 0,246 -92,470 -245,640 153,170 245,394 245,640 0,530 -430,960 -960,960l-1440 0c-88,0 -160,-72 -160,-160l0 -2880c0,-88 72,-160 160,-160l1440 0zm-960 1920l0 640 960 0c176,0 320,-144 320,-320l0 0c0,-177 -144,-320 -320,-320l-960 0zm0 -1280l0 640 960 0c176,0 320,-144 320,-320l0 0c0,-177 -144,-320 -320,-320l-960 0z"/>
	<path id="curve2" fill="#3E9BD5" d="M1294 8320l1252 0c-40,-444 -164,-874 -347,-1280l-558 0c-183,406 -307,836 -347,1280zm1266 640l-1280 0 0 640 -640 0 0 -960c0,-726 192,-1416 515,-2063 56,-111 168,-176 285,-176l960 0c117,0 229,65 285,176 323,647 515,1337 515,2063l0 960 -640 0 0 -640z"/>
</g>

</svg>
