<?xml version="1.0" encoding="UTF-8"?>
<!DOCTYPE svg PUBLIC "-//W3C//DTD SVG 1.1//EN" "http://www.w3.org/Graphics/SVG/1.1/DTD/svg11.dtd">
<svg xmlns="http://www.w3.org/2000/svg" xml:space="preserve" width="1024px" height="1024px" shape-rendering="geometricPrecision" text-rendering="geometricPrecision" image-rendering="optimizeQuality" fill-rule="nonzero" clip-rule="evenodd" viewBox="0 0 10240 10240" xmlns:xlink="http://www.w3.org/1999/xlink">
	<title>anchor icon</title>
	<desc>anchor icon from the IconExperience.com O-Collection. Copyright by INCORS GmbH (www.incors.com).</desc>
	<path id="curve0" fill="#252525" d="M3520 2880l740 0c-265,-235 -433,-578 -433,-960 0,-707 573,-1280 1280,-1280 707,0 1280,573 1280,1280 0,382 -168,725 -434,960l767 0 0 640 -1256 0 243 4614c5,109 46,204 129,265 83,62 181,73 274,32 791,-350 1392,-1106 1584,-2031l-654 0c0,-640 640,-1600 1120,-1920 480,320 1120,1280 1120,1920l-689 0c-279,1816 -1727,3200 -3471,3200 -1744,0 -3192,-1384 -3471,-3200l-689 0c0,-640 640,-1600 1120,-1920 480,320 1120,1280 1120,1920l-654 0c192,925 793,1681 1584,2030 93,42 191,31 274,-31 83,-61 124,-156 129,-265l243 -4614 -1256 0 0 -640zm1587 -1594c-352,0 -637,285 -637,637 0,352 285,637 637,637 352,0 637,-285 637,-637 0,-352 -285,-637 -637,-637z"/>
</svg>
