<?xml version="1.0" encoding="UTF-8"?>
<!DOCTYPE svg PUBLIC "-//W3C//DTD SVG 1.1//EN" "http://www.w3.org/Graphics/SVG/1.1/DTD/svg11.dtd">
<svg xmlns="http://www.w3.org/2000/svg" xml:space="preserve" width="1024px" height="1024px" shape-rendering="geometricPrecision" text-rendering="geometricPrecision" image-rendering="optimizeQuality" fill-rule="nonzero" clip-rule="evenodd" viewBox="0 0 10240 10240" xmlns:xlink="http://www.w3.org/1999/xlink">
	<title>text icon</title>
	<desc>text icon from the IconExperience.com O-Collection. Copyright by INCORS GmbH (www.incors.com).</desc>
	<path id="curve1" fill="#252525" d="M1280 640l7680 0 0 8960 -7680 0 0 -8960zm640 640l0 7680 6400 0 0 -7680 -6400 0z"/>
	<path id="curve0" fill="#3E9BD5" d="M5760 7382l1920 0 0 640 -1920 0 0 -640zm-3200 -5120l5120 0 0 640 -5120 0 0 -640zm0 1280l2560 0 0 640 -2560 0 0 -640zm0 1280l5120 0 0 640 -5120 0 0 -640zm0 1280l1280 0 0 640 -1280 0 0 -640zm0 1280l2560 0 0 640 -2560 0 0 -640zm3200 -3840l1920 0 0 640 -1920 0 0 -640zm-1280 2560l3200 0 0 640 -3200 0 0 -640z"/>


<g comp-op="clear">
<g transform="translate(0,0) scale(0.5,0.5)"  stroke="#808080" stroke-width="512" stroke-linejoin="round">
	<title>information icon</title>
	<desc>information icon from the IconExperience.com O-Collection. Copyright by INCORS GmbH (www.incors.com).</desc>
    <circle fill="#3E9BD5" cx="5020" cy="5120" r="4000"/>
	<path id="curve1" fill="white" d="M5120 1920c530,0 960,430 960,960 0,530 -430,960 -960,960 -530,0 -960,-430 -960,-960 0,-530 430,-960 960,-960zm-640 3520c0,-176 -144,-320 -320,-320l0 -640 1280 0c176,0 320,144 320,320l0 2560c0,176 144,320 320,320l320 0 0 640 -640 0 -1280 0 -640 0 0 -640 320 0c176,0 320,-144 320,-320l0 -1920z"/>
	<path id="curve0" fill="#3E9BD5" d="M5120 640c2474,0 4480,2006 4480,4480 0,2474 -2006,4480 -4480,4480 -2474,0 -4480,-2006 -4480,-4480 0,-2474 2006,-4480 4480,-4480zm0 640c-2121,0 -3840,1719 -3840,3840 0,2121 1719,3840 3840,3840 2121,0 3840,-1719 3840,-3840 0,-2121 -1719,-3840 -3840,-3840z"/>
</g>
</g>



<g transform="translate(0,0) scale(0.5,0.5)">
	<title>information icon</title>
	<desc>information icon from the IconExperience.com O-Collection. Copyright by INCORS GmbH (www.incors.com).</desc>
    <circle fill="#3E9BD5" cx="5020" cy="5120" r="4000"/>
	<path id="curve1" fill="white" d="M5120 1920c530,0 960,430 960,960 0,530 -430,960 -960,960 -530,0 -960,-430 -960,-960 0,-530 430,-960 960,-960zm-640 3520c0,-176 -144,-320 -320,-320l0 -640 1280 0c176,0 320,144 320,320l0 2560c0,176 144,320 320,320l320 0 0 640 -640 0 -1280 0 -640 0 0 -640 320 0c176,0 320,-144 320,-320l0 -1920z"/>
	<path id="curve0" fill="#3E9BD5" d="M5120 640c2474,0 4480,2006 4480,4480 0,2474 -2006,4480 -4480,4480 -2474,0 -4480,-2006 -4480,-4480 0,-2474 2006,-4480 4480,-4480zm0 640c-2121,0 -3840,1719 -3840,3840 0,2121 1719,3840 3840,3840 2121,0 3840,-1719 3840,-3840 0,-2121 -1719,-3840 -3840,-3840z"/>
</g>

</svg>
