<?xml version="1.0" encoding="UTF-8"?>
<!DOCTYPE svg PUBLIC "-//W3C//DTD SVG 1.1//EN" "http://www.w3.org/Graphics/SVG/1.1/DTD/svg11.dtd">
<svg xmlns="http://www.w3.org/2000/svg" xml:space="preserve" width="1024px" height="1024px" shape-rendering="geometricPrecision" text-rendering="geometricPrecision" image-rendering="optimizeQuality" fill-rule="nonzero" clip-rule="evenodd" viewBox="0 0 10240 10240" xmlns:xlink="http://www.w3.org/1999/xlink">
	<title>font_style_underline icon</title>
	<desc>font_style_underline icon from the IconExperience.com O-Collection. Copyright by INCORS GmbH (www.incors.com).</desc>
	<path id="curve0" fill="#252525" d="M1280 8320l2147 0c-532,-469 -867,-1155 -867,-1920l0 -3040c0,-88 72,-160 160,-160l960 0c88,0 160,72 160,160l0 3040c0,707 573,1280 1280,1280 707,0 1280,-573 1280,-1280l0 -3040c0,-88 72,-160 160,-160l960 0c88,0 160,72 160,160l0 3040c0,765 -335,1451 -867,1920l2147 0 0 640 -3840 0 -3840 0 0 -640z"/>
</svg>
