<?xml version="1.0" encoding="UTF-8"?>
<!DOCTYPE svg PUBLIC "-//W3C//DTD SVG 1.1//EN" "http://www.w3.org/Graphics/SVG/1.1/DTD/svg11.dtd">
<svg xmlns="http://www.w3.org/2000/svg" xml:space="preserve" width="1024px" height="1024px" shape-rendering="geometricPrecision" text-rendering="geometricPrecision" image-rendering="optimizeQuality" fill-rule="nonzero" clip-rule="evenodd" viewBox="0 0 10240 10240" xmlns:xlink="http://www.w3.org/1999/xlink">
	<title>table_selection_row icon</title>
	<desc>table_selection_row icon from the IconExperience.com O-Collection. Copyright by INCORS GmbH (www.incors.com).</desc>
	<path id="curve1" fill="#3E9BD5" d="M1280 4480l1280 0 0 1280 -1280 0 0 -1280zm1600 0l1280 0 0 1280 -1280 0 0 -1280zm1600 0l1280 0 0 1280 -1280 0 0 -1280zm1600 0l1280 0 0 1280 -1280 0 0 -1280zm1600 0l1280 0 0 1280 -1280 0 0 -1280z"/>
	<path id="curve0" fill="#252525" d="M9280 9280l-8320 0 0 -7360c0,-353 287,-640 640,-640l7040 0c353,0 640,288 640,640l0 7360zm-8000 -6400l0 4480 1280 0 0 -1280 320 0 0 1280 1280 0 0 -1280 320 0 0 1280 1280 0 0 -1280 320 0 0 1280 1280 0 0 -1280 320 0 0 1280 1280 0 0 -4480 -1280 0 0 1280 -320 0 0 -1280 -1280 0 0 1280 -320 0 0 -1280 -1280 0 0 1280 -320 0 0 -1280 -1280 0 0 1280 -320 0 0 -1280 -1280 0zm0 4800l0 1280 1280 0 0 -1280 -1280 0zm1600 0l0 1280 1280 0 0 -1280 -1280 0zm1600 0l0 1280 1280 0 0 -1280 -1280 0zm1600 0l0 1280 1280 0 0 -1280 -1280 0zm1600 0l0 1280 1280 0 0 -1280 -1280 0z"/>
</svg>
