<?xml version="1.0" encoding="UTF-8"?>
<!DOCTYPE svg PUBLIC "-//W3C//DTD SVG 1.1//EN" "http://www.w3.org/Graphics/SVG/1.1/DTD/svg11.dtd">
<svg xmlns="http://www.w3.org/2000/svg" xml:space="preserve" width="1024px" height="1024px" shape-rendering="geometricPrecision" text-rendering="geometricPrecision" image-rendering="optimizeQuality" fill-rule="nonzero" clip-rule="evenodd" viewBox="0 0 10240 10240" xmlns:xlink="http://www.w3.org/1999/xlink">
	<title>text_align_center icon</title>
	<desc>text_align_center icon from the IconExperience.com O-Collection. Copyright by INCORS GmbH (www.incors.com).</desc>
	<path id="curve1" fill="#252525" d="M7680 8320l-1920 0 0 640 1920 0 0 -640zm-3200 0l-1920 0 0 640 1920 0 0 -640zm4480 -6400l-3200 0 0 640 3200 0 0 -640zm-4480 0l-3200 0 0 640 3200 0 0 -640zm3840 1280l-2560 0 0 640 2560 0 0 -640zm-3840 0l-2560 0 0 640 2560 0 0 -640zm2560 1280l-1280 0 0 640 1280 0 0 -640zm-2560 0l-1280 0 0 640 1280 0 0 -640zm3200 1280l-1920 0 0 640 1920 0 0 -640zm-3200 0l-1920 0 0 640 1920 0 0 -640zm3840 1280l-2560 0 0 640 2560 0 0 -640zm-3840 0l-2560 0 0 640 2560 0 0 -640z"/>
	<path id="curve0" fill="#3E9BD5" d="M5440,1280 4800,1280 4800,9600 5440,9600z"/>
</svg>
