<?xml version="1.0" encoding="UTF-8"?>
<!DOCTYPE svg PUBLIC "-//W3C//DTD SVG 1.1//EN" "http://www.w3.org/Graphics/SVG/1.1/DTD/svg11.dtd">
<svg xmlns="http://www.w3.org/2000/svg" xml:space="preserve" width="1024px" height="1024px" shape-rendering="geometricPrecision" text-rendering="geometricPrecision" image-rendering="optimizeQuality" fill-rule="nonzero" clip-rule="evenodd" viewBox="0 0 10240 10240" xmlns:xlink="http://www.w3.org/1999/xlink">
	<title>table_selection_cell icon</title>
	<desc>table_selection_cell icon from the IconExperience.com O-Collection. Copyright by INCORS GmbH (www.incors.com).</desc>
	<path id="curve1" fill="#252525" d="M9280 9280l-8320 0c0,-2556 0,-4889 0,-7360 0,-353 287,-640 640,-640l7040 0c353,0 640,288 640,640l0 7360zm-8000 -6400l0 1280 1280 0 0 -1280 -1280 0zm3200 3200l0 1280 1280 0 0 -1280 -1280 0zm-1920 0l-1280 0 0 1280 1280 0 0 -1280zm0 0l320 0 0 1280 1280 0 0 -1280 320 0 0 -320 1280 0 0 -1280 -1280 0 0 -320 -1920 0 0 320 -1280 0 0 1280 1280 0 0 320zm320 -3200l0 1280 1280 0 0 -1280 -1280 0zm1600 0l0 1280 1280 0 0 -1280 -1280 0zm1600 0l0 1280 1280 0 0 -1280 -1280 0zm1600 0l0 1280 1280 0 0 -1280 -1280 0zm-1600 1600l0 1280 1280 0 0 -1280 -1280 0zm1600 0l0 1280 1280 0 0 -1280 -1280 0zm-1600 1600l0 1280 1280 0 0 -1280 -1280 0zm1600 0l0 1280 1280 0 0 -1280 -1280 0zm-6400 1600l0 1280 1280 0 0 -1280 -1280 0zm1600 0l0 1280 1280 0 0 -1280 -1280 0zm1600 0l0 1280 1280 0 0 -1280 -1280 0zm1600 0l0 1280 1280 0 0 -1280 -1280 0zm1600 0l0 1280 1280 0 0 -1280 -1280 0z"/>
	<path id="curve0" fill="#3E9BD5" d="M2880,4480 4160,4480 4160,5760 2880,5760z"/>
</svg>
