<?xml version="1.0" encoding="UTF-8"?>
<!DOCTYPE svg PUBLIC "-//W3C//DTD SVG 1.1//EN" "http://www.w3.org/Graphics/SVG/1.1/DTD/svg11.dtd">
<svg xmlns="http://www.w3.org/2000/svg" xml:space="preserve" width="1024px" height="1024px" shape-rendering="geometricPrecision" text-rendering="geometricPrecision" image-rendering="optimizeQuality" fill-rule="nonzero" clip-rule="evenodd" viewBox="0 0 10240 10240" xmlns:xlink="http://www.w3.org/1999/xlink">
	<title>line_break icon</title>
	<desc>line_break icon from the IconExperience.com O-Collection. Copyright by INCORS GmbH (www.incors.com).</desc>
	<path id="curve0" fill="#252525" d="M3840 1280l4800 0c176,0 320,144 320,320l0 640c0,176 -144,320 -320,320l-960 0 0 6080c0,176 -144,320 -320,320l-640 0c-176,0 -320,-144 -320,-320l0 -6080 -1280 0 0 6080c0,176 -144,320 -320,320l-640 0c-176,0 -320,-144 -320,-320l0 -1920 0 -320 0 -640 -320 0c-1237,0 -2240,-1003 -2240,-2240 0,-1237 1003,-2240 2240,-2240l320 0z"/>
</svg>
