<?xml version="1.0" encoding="UTF-8"?>
<!DOCTYPE svg PUBLIC "-//W3C//DTD SVG 1.1//EN" "http://www.w3.org/Graphics/SVG/1.1/DTD/svg11.dtd">
<svg xmlns="http://www.w3.org/2000/svg" xml:space="preserve" width="1024px" height="1024px" shape-rendering="geometricPrecision" text-rendering="geometricPrecision" image-rendering="optimizeQuality" fill-rule="nonzero" clip-rule="evenodd" viewBox="0 0 10240 10240" xmlns:xlink="http://www.w3.org/1999/xlink">
	<title>keyboard icon</title>
	<desc>keyboard icon from the IconExperience.com O-Collection. Copyright by INCORS GmbH (www.incors.com).</desc>
	<path id="curve1" fill="#252525" d="M1280 3840l7680 0c353,0 640,287 640,640l0 3840c0,353 -287,640 -640,640l-7680 0c-353,0 -640,-287 -640,-640l0 -3840c0,-353 287,-640 640,-640zm6720 640c-176,0 -320,144 -320,320l0 320c0,118 65,222 160,277 102,59 160,160 160,277l0 726c0,176 144,320 320,320l320 0c176,0 320,-144 320,-320l0 -960 0 -640c0,-176 -144,-320 -320,-320l-640 0zm-4480 2560c-176,0 -320,144 -320,320l0 320c0,176 144,320 320,320l3200 0c176,0 320,-144 320,-320l0 -320c0,-176 -144,-320 -320,-320l-3200 0zm-1920 -2560c-176,0 -320,144 -320,320l0 320c0,176 144,320 320,320l320 0c176,0 320,-144 320,-320l0 -320c0,-176 -144,-320 -320,-320l-320 0zm6080 2560c-176,0 -320,144 -320,320l0 320c0,176 144,320 320,320l960 0c176,0 320,-144 320,-320l0 -320c0,-176 -144,-320 -320,-320l-960 0zm-640 -1280c-176,0 -320,144 -320,320l0 320c0,176 144,320 320,320l320 0c176,0 320,-144 320,-320l0 -320c0,-176 -144,-320 -320,-320l-320 0zm-320 -1280c-176,0 -320,144 -320,320l0 320c0,176 144,320 320,320l320 0c176,0 320,-144 320,-320l0 -320c0,-176 -144,-320 -320,-320l-320 0zm-5120 2560c-176,0 -320,144 -320,320l0 320c0,176 144,320 320,320l960 0c176,0 320,-144 320,-320l0 -320c0,-176 -144,-320 -320,-320l-960 0zm4160 -1280c-176,0 -320,144 -320,320l0 320c0,176 144,320 320,320l320 0c176,0 320,-144 320,-320l0 -320c0,-176 -144,-320 -320,-320l-320 0zm-1280 0c-176,0 -320,144 -320,320l0 320c0,176 144,320 320,320l320 0c176,0 320,-144 320,-320l0 -320c0,-176 -144,-320 -320,-320l-320 0zm-1280 0c-176,0 -320,144 -320,320l0 320c0,176 144,320 320,320l320 0c176,0 320,-144 320,-320l0 -320c0,-176 -144,-320 -320,-320l-320 0zm-1600 0c-176,0 -320,144 -320,320l0 320c0,176 144,320 320,320l640 0c176,0 320,-144 320,-320l0 -320c0,-176 -144,-320 -320,-320l-640 0zm3840 -1280c-176,0 -320,144 -320,320l0 320c0,176 144,320 320,320l320 0c176,0 320,-144 320,-320l0 -320c0,-176 -144,-320 -320,-320l-320 0zm-1280 0c-176,0 -320,144 -320,320l0 320c0,176 144,320 320,320l320 0c176,0 320,-144 320,-320l0 -320c0,-176 -144,-320 -320,-320l-320 0zm-1280 0c-176,0 -320,144 -320,320l0 320c0,176 144,320 320,320l320 0c176,0 320,-144 320,-320l0 -320c0,-176 -144,-320 -320,-320l-320 0z"/>
	<path id="curve0" fill="#252525" d="M2560 3520l0 -320c0,-353 144,-673 375,-905 232,-231 552,-375 905,-375l1280 0c176,0 336,-72 452,-188 117,-117 189,-277 189,-452l0 -320c0,-176 143,-319 319,-319 176,0 319,143 319,319l0 320c0,354 -143,674 -374,905 -232,231 -552,375 -905,375l-1280 0c-176,0 -336,72 -452,188 -116,116 -188,276 -188,452l0 320 -640 0z"/>
</svg>
