<?xml version="1.0" encoding="UTF-8"?>
<!DOCTYPE svg PUBLIC "-//W3C//DTD SVG 1.1//EN" "http://www.w3.org/Graphics/SVG/1.1/DTD/svg11.dtd">
<svg xmlns="http://www.w3.org/2000/svg" xml:space="preserve" width="1024px" height="1024px" shape-rendering="geometricPrecision" text-rendering="geometricPrecision" image-rendering="optimizeQuality" fill-rule="nonzero" clip-rule="evenodd" viewBox="0 0 10240 10240" xmlns:xlink="http://www.w3.org/1999/xlink">
	<title>keyboard_key_a icon</title>
	<desc>keyboard_key_a icon from the IconExperience.com O-Collection. Copyright by INCORS GmbH (www.incors.com).</desc>
	<path id="curve0" fill="#252525" d="M2560 1280l5120 0c705,0 1280,575 1280,1280l0 5120c0,705 -575,1280 -1280,1280l-5120 0c-705,0 -1280,-575 -1280,-1280l0 -5120c0,-705 575,-1280 1280,-1280zm1294 3199l1252 0c-40,-444 -164,-874 -347,-1280l-558 0c-183,406 -307,836 -347,1280zm1266 640l-1280 0 0 640 -640 0 0 -960c0,-727 192,-1416 515,-2063 56,-111 168,-176 285,-176l960 0c117,0 229,65 285,176 323,647 515,1336 515,2063l0 960 -640 0 0 -640zm-1920 -3199c-529,0 -960,431 -960,960l0 3840c0,529 431,960 960,960l3840 0c529,0 960,-431 960,-960l0 -3840c0,-529 -431,-960 -960,-960l-3840 0zm0 320c-353,0 -640,287 -640,640l0 3840c0,353 287,640 640,640l3840 0c353,0 640,-287 640,-640l0 -3840c0,-353 -287,-640 -640,-640l-3840 0z"/>


<g comp-op="clear">
<g transform="translate(5120,5120) scale(0.5,0.5)"  stroke="#808080" stroke-width="512" stroke-linejoin="round">
	<title>scroll icon</title>
	<desc>scroll icon from the IconExperience.com O-Collection. Copyright by INCORS GmbH (www.incors.com).</desc>
	<rect fill="white" x="2560" y="1800" height="6600" width="5400"/>
	<rect fill="white" x="1200" y="7600" height="900" width="1600"/>
	<rect fill="white" x="8200" y="1800" height="750" width="750"/>
	<path id="curve0" fill="#252525" d="M8320 8000c0,530 -430,960 -960,960l-5760 0c-530,0 -960,-430 -960,-960 0,-530 430,-960 960,-960l5440 0c176,0 320,144 320,320l0 86c0,117 -58,218 -160,277 -96,55 -160,159 -160,277 0,177 143,320 320,320 177,0 320,-143 320,-320l0 -5760c0,-112 19,-220 55,-320l-4855 0c-177,0 -320,143 -320,320l0 4480 -640 0 0 -4480c0,-530 430,-960 960,-960l5760 0c530,0 960,430 960,960 0,530 -430,960 -960,960l0 -640c177,0 320,-143 320,-320 0,-177 -143,-320 -320,-320 -177,0 -320,143 -320,320l0 5760zm-1865 320c-73,-205 -73,-435 0,-640l-4855 0c-177,0 -320,143 -320,320 0,177 143,320 320,320l4855 0z"/>
</g>
</g>



<g transform="translate(5120,5120) scale(0.5,0.5)">
	<title>scroll icon</title>
	<desc>scroll icon from the IconExperience.com O-Collection. Copyright by INCORS GmbH (www.incors.com).</desc>
	<rect fill="white" x="2560" y="1800" height="6600" width="5400"/>
	<rect fill="white" x="1200" y="7600" height="900" width="1600"/>
	<rect fill="white" x="8200" y="1800" height="750" width="750"/>
	<path id="curve0" fill="#252525" d="M8320 8000c0,530 -430,960 -960,960l-5760 0c-530,0 -960,-430 -960,-960 0,-530 430,-960 960,-960l5440 0c176,0 320,144 320,320l0 86c0,117 -58,218 -160,277 -96,55 -160,159 -160,277 0,177 143,320 320,320 177,0 320,-143 320,-320l0 -5760c0,-112 19,-220 55,-320l-4855 0c-177,0 -320,143 -320,320l0 4480 -640 0 0 -4480c0,-530 430,-960 960,-960l5760 0c530,0 960,430 960,960 0,530 -430,960 -960,960l0 -640c177,0 320,-143 320,-320 0,-177 -143,-320 -320,-320 -177,0 -320,143 -320,320l0 5760zm-1865 320c-73,-205 -73,-435 0,-640l-4855 0c-177,0 -320,143 -320,320 0,177 143,320 320,320l4855 0z"/>
</g>

</svg>
