<?xml version="1.0" encoding="UTF-8" ?>
<!DOCTYPE svg PUBLIC "-//W3C//DTD SVG 1.1//EN" "http://www.w3.org/Graphics/SVG/1.1/DTD/svg11.dtd">
<svg width="256pt" height="256pt" viewBox="0 0 256 256" version="1.1" xmlns="http://www.w3.org/2000/svg">
<title>lowcase icon</title>
<desc>icon from the IconExperience.com V-Collection. Copyright by INCORS GmbH (www.incors.com). Vectorized using Vector Magic.</desc>
<g id="#252525ff">
<path fill="#252525" stroke="#252525" stroke-width="0.09375" opacity="1.00" d=" M 64.00 41.01 C 63.57 36.86 66.56 32.53 70.84 32.15 C 76.57 31.83 82.33 31.98 88.06 32.05 C 92.75 31.88 96.51 36.40 96.00 40.96 C 96.01 86.43 95.98 131.89 96.01 177.36 C 107.14 166.34 118.08 155.11 129.30 144.19 C 131.47 141.67 136.13 143.55 135.92 146.88 C 136.17 154.93 135.89 163.00 136.02 171.06 C 135.97 174.92 136.32 179.01 134.63 182.60 C 133.22 185.68 130.66 187.98 128.32 190.33 C 114.10 204.45 100.00 218.71 85.76 232.83 C 82.78 236.10 77.23 236.09 74.24 232.83 C 59.35 218.05 44.58 203.13 29.69 188.35 C 26.86 185.63 24.46 182.16 24.17 178.13 C 23.83 167.72 23.98 157.28 24.08 146.87 C 23.87 143.54 28.53 141.67 30.71 144.19 C 41.92 155.10 52.82 166.35 63.99 177.32 C 64.01 131.88 63.99 86.44 64.00 41.01 Z" />
</g>
<g id="#449ed6ff">
<path fill="#449ed6" stroke="#449ed6" stroke-width="0.09375" opacity="1.00" d=" M 172.77 52.69 C 174.04 49.94 176.88 48.00 179.94 48.08 C 187.98 48.00 196.02 48.00 204.06 48.08 C 207.13 48.00 209.97 49.94 211.23 52.70 C 216.42 63.03 220.27 74.07 222.33 85.46 C 224.96 99.49 223.69 113.82 224.00 127.99 C 218.66 127.99 213.33 127.99 208.00 128.00 C 208.01 122.66 208.01 117.33 208.01 111.99 C 197.34 111.99 186.66 111.99 175.99 111.99 C 175.99 117.33 175.99 122.66 176.00 128.00 C 170.66 127.99 165.33 127.99 160.00 127.99 C 160.02 119.65 159.98 111.31 160.02 102.97 C 160.15 85.49 164.95 68.24 172.77 52.69 M 184.99 63.99 C 180.47 74.13 177.38 84.94 176.32 96.01 C 186.77 96.01 197.23 96.01 207.68 96.01 C 206.62 84.94 203.53 74.13 199.01 63.99 C 194.33 63.99 189.66 63.99 184.99 63.99 Z" />
<path fill="#449ed6" stroke="#449ed6" stroke-width="0.09375" opacity="1.00" d=" M 185.28 147.79 C 187.66 146.53 190.41 147.11 192.98 146.97 C 195.88 147.13 198.94 146.51 201.68 147.72 C 203.32 147.97 204.96 148.17 206.56 148.60 C 207.53 148.92 208.49 149.26 209.44 149.61 C 212.65 151.68 216.29 153.65 217.79 157.40 C 218.04 157.90 218.55 158.89 218.81 159.39 C 219.75 161.24 220.11 163.26 220.26 165.32 C 220.98 166.76 221.03 168.36 221.03 169.93 C 220.97 185.90 221.01 201.87 221.00 217.83 C 216.27 219.61 210.71 219.63 205.98 217.83 C 205.99 215.78 206.00 213.74 206.01 211.70 C 202.92 213.34 200.71 216.17 197.63 217.81 C 195.63 218.75 193.59 219.61 191.55 220.47 C 187.59 221.25 183.28 221.49 179.37 220.34 C 178.05 220.04 176.73 219.77 175.45 219.32 C 174.45 219.04 173.46 218.74 172.48 218.42 C 170.78 217.12 169.12 215.79 167.37 214.57 C 166.50 213.18 165.50 211.89 164.66 210.49 C 163.95 208.84 163.12 207.24 162.56 205.54 C 161.68 201.60 161.60 197.35 162.60 193.43 C 162.93 192.48 163.27 191.53 163.63 190.59 C 165.34 185.94 169.51 183.06 173.56 180.60 C 174.52 180.27 175.48 179.96 176.45 179.65 C 177.74 179.24 179.06 178.96 180.37 178.66 C 182.27 177.96 184.30 177.98 186.28 177.80 C 191.60 176.03 197.46 177.44 202.99 177.00 C 202.88 173.43 203.58 169.66 201.90 166.35 C 200.99 164.89 199.92 163.54 198.84 162.21 C 197.62 161.93 196.43 161.57 195.26 161.13 C 192.09 160.95 188.92 160.94 185.75 161.13 C 184.42 161.74 182.98 161.99 181.56 162.27 C 180.25 162.76 178.93 163.20 177.64 163.72 C 175.99 164.45 174.30 165.08 172.63 165.74 C 171.31 166.31 170.04 167.23 168.54 167.05 C 167.80 166.21 167.09 165.36 166.40 164.49 C 165.80 161.53 165.82 158.46 166.39 155.49 C 167.75 153.25 170.24 152.41 172.40 151.18 C 173.75 150.65 175.10 150.13 176.48 149.67 C 177.46 149.30 178.44 148.94 179.44 148.59 C 181.33 148.01 183.32 147.97 185.28 147.79 M 190.74 189.13 C 189.06 189.83 187.26 190.13 185.50 190.55 C 183.47 191.83 181.80 193.60 180.41 195.54 C 179.77 198.25 179.66 201.18 181.22 203.61 C 181.49 204.14 182.03 205.18 182.30 205.70 C 182.82 205.97 183.86 206.51 184.39 206.78 C 186.77 208.30 189.59 208.07 192.29 207.92 C 193.36 207.44 194.45 207.04 195.58 206.71 C 198.28 204.95 200.79 202.93 203.00 200.58 C 203.00 196.72 202.99 192.86 203.00 189.00 C 198.91 189.03 194.82 188.91 190.74 189.13 Z" />
</g>
</svg>
