<?xml version="1.0" encoding="UTF-8"?>
<!DOCTYPE svg PUBLIC "-//W3C//DTD SVG 1.1//EN" "http://www.w3.org/Graphics/SVG/1.1/DTD/svg11.dtd">
<svg xmlns="http://www.w3.org/2000/svg" xml:space="preserve" width="1024px" height="1024px" shape-rendering="geometricPrecision" text-rendering="geometricPrecision" image-rendering="optimizeQuality" fill-rule="nonzero" clip-rule="evenodd" viewBox="0 0 10240 10240" xmlns:xlink="http://www.w3.org/1999/xlink">
	<title>maximize icon</title>
	<desc>maximize icon from the IconExperience.com O-Collection. Copyright by INCORS GmbH (www.incors.com).</desc>
	<path id="curve2" fill="#252525" d="M4160 4800l-414 -414c-93,-93 -120,-226 -69,-348 50,-123 163,-198 296,-198l2107 0c176,0 320,144 320,320l0 2107c0,133 -75,246 -198,296 -122,51 -255,24 -348,-69l-414 -414 -1600 1600 -10 0 0 -1270 -1277 0 -1 -2 1608 -1608z"/>
	<path id="curve1" fill="#3E9BD5" d="M8960,1280 8960,8960 4160,8960 4160,8320 8320,8320 8320,1920 1920,1920 1920,6080 1280,6080 1280,1280z"/>
	<path id="curve0" fill="#252525" d="M3840 6400l0 2560 -2560 0 0 -2560 2560 0zm-1920 640l0 1280 1280 0 0 -1280 -1280 0z"/>
</svg>
