<?xml version="1.0" encoding="UTF-8" ?>
<!DOCTYPE svg PUBLIC "-//W3C//DTD SVG 1.1//EN" "http://www.w3.org/Graphics/SVG/1.1/DTD/svg11.dtd">
<svg width="256pt" height="256pt" viewBox="0 0 256 256" version="1.1" xmlns="http://www.w3.org/2000/svg">
<title>window_split_four_pane icon</title>
<desc>icon from the IconExperience.com V-Collection. Copyright by INCORS GmbH (www.incors.com). Vectorized using Vector Magic.</desc>
<g id="#252525ff">
<path fill="#252525" stroke="#252525" stroke-width="0.09375" opacity="1.00" d=" M 29.14 32.26 C 32.07 31.85 35.05 32.01 38.01 31.99 C 100.04 32.02 162.07 31.97 224.10 32.02 C 230.50 31.94 236.63 36.20 238.89 42.18 C 240.44 45.91 239.92 50.04 240.01 53.97 C 240.00 107.66 240.00 161.34 240.01 215.03 C 240.38 218.91 237.82 222.88 233.95 223.75 C 230.98 224.21 227.96 223.96 224.96 224.00 C 158.28 224.00 91.60 223.99 24.93 224.01 C 21.07 224.37 17.12 221.81 16.25 217.97 C 15.82 215.35 16.01 212.68 15.99 210.03 C 16.02 156.00 15.97 101.97 16.02 47.94 C 15.88 40.44 21.76 33.48 29.14 32.26 M 32.00 80.00 C 32.00 90.67 32.00 101.33 32.00 112.00 C 96.00 112.00 160.00 112.00 224.00 112.00 C 224.00 101.33 224.00 90.67 224.00 80.00 C 160.00 80.00 96.00 80.00 32.00 80.00 M 32.00 128.00 C 32.00 139.00 32.00 150.00 32.00 161.00 C 61.33 161.00 90.67 161.00 120.00 161.00 C 120.00 150.00 120.00 139.00 120.00 128.00 C 90.67 128.00 61.34 128.00 32.00 128.00 M 136.00 128.00 C 136.00 139.00 136.00 150.00 136.00 161.00 C 165.33 161.00 194.67 161.00 224.00 161.00 C 224.00 150.00 224.00 139.00 224.00 128.00 C 194.67 128.00 165.34 128.00 136.00 128.00 M 32.00 177.01 C 32.00 187.34 32.00 197.67 32.00 208.00 C 96.00 208.00 160.00 208.00 224.00 208.00 C 224.00 197.67 224.00 187.34 224.00 177.01 C 160.00 177.00 96.00 177.00 32.00 177.01 Z" />
</g>
</svg>
