<?xml version="1.0" encoding="UTF-8" ?>
<!DOCTYPE svg PUBLIC "-//W3C//DTD SVG 1.1//EN" "http://www.w3.org/Graphics/SVG/1.1/DTD/svg11.dtd">
<svg width="256pt" height="256pt" viewBox="0 0 256 256" version="1.1" xmlns="http://www.w3.org/2000/svg">
<title>window_split_three_pane icon</title>
<desc>icon from the IconExperience.com V-Collection. Copyright by INCORS GmbH (www.incors.com). Vectorized using Vector Magic.</desc>
<g id="#252525ff">
<path fill="#252525" stroke="#252525" stroke-width="0.09375" opacity="1.00" d=" M 29.15 32.26 C 32.08 31.85 35.05 32.01 38.01 31.99 C 100.04 32.02 162.07 31.97 224.11 32.02 C 232.60 31.83 240.21 39.48 239.98 47.97 C 240.04 102.31 239.97 156.64 240.01 210.98 C 239.95 214.60 240.62 218.93 237.64 221.66 C 234.90 224.63 230.57 223.95 226.95 224.01 C 159.64 223.98 92.32 224.00 25.01 224.01 C 22.11 224.19 19.07 223.05 17.44 220.57 C 15.59 218.10 16.06 214.85 15.98 211.97 C 16.04 157.29 15.96 102.61 16.02 47.93 C 15.88 40.43 21.77 33.46 29.15 32.26 M 32.00 80.00 C 32.00 98.67 32.00 117.33 32.00 136.00 C 96.00 136.00 160.00 136.00 224.00 136.00 C 224.00 117.33 224.00 98.67 224.00 80.00 C 160.00 80.00 96.00 80.00 32.00 80.00 M 35.00 152.00 C 35.00 170.67 35.00 189.33 35.00 208.00 C 64.33 208.00 93.67 208.00 123.00 208.00 C 123.00 189.33 123.00 170.67 123.00 152.00 C 93.67 152.00 64.33 152.00 35.00 152.00 M 139.00 152.00 C 139.00 170.67 139.00 189.33 139.00 208.00 C 167.33 208.00 195.66 208.00 224.00 208.00 C 224.00 189.33 224.00 170.67 224.00 152.00 C 195.67 152.00 167.33 152.00 139.00 152.00 Z" />
</g>
</svg>
