<?xml version="1.0" encoding="UTF-8" ?>
<!DOCTYPE svg PUBLIC "-//W3C//DTD SVG 1.1//EN" "http://www.w3.org/Graphics/SVG/1.1/DTD/svg11.dtd">
<svg width="256pt" height="256pt" viewBox="0 0 256 256" version="1.1" xmlns="http://www.w3.org/2000/svg">
<title>window_split_five_pane icon</title>
<desc>icon from the IconExperience.com V-Collection. Copyright by INCORS GmbH (www.incors.com). Vectorized using Vector Magic.</desc>
<g id="#252525ff">
<path fill="#252525" stroke="#252525" stroke-width="0.09375" opacity="1.00" d=" M 29.15 32.26 C 32.08 31.85 35.05 32.01 38.01 32.00 C 100.04 32.02 162.07 31.97 224.11 32.02 C 230.50 31.95 236.63 36.20 238.89 42.17 C 240.21 45.27 239.99 48.72 240.02 52.01 C 239.95 106.71 240.06 161.42 239.96 216.12 C 240.10 220.79 235.54 224.53 231.00 224.01 C 163.68 224.00 96.36 223.99 29.05 224.01 C 25.42 223.95 21.10 224.63 18.35 221.66 C 15.39 218.93 16.04 214.62 15.99 211.00 C 16.03 156.65 15.96 102.29 16.02 47.93 C 15.88 40.44 21.77 33.47 29.15 32.26 M 32.00 80.00 C 32.00 90.67 32.00 101.33 32.00 112.00 C 61.00 112.00 90.00 112.00 119.00 112.00 C 119.00 101.33 119.00 90.67 119.00 80.00 C 90.00 80.00 61.00 80.00 32.00 80.00 M 135.00 80.00 C 135.00 90.67 135.00 101.33 135.00 112.00 C 164.67 112.00 194.33 112.00 224.00 112.00 C 224.00 101.33 224.00 90.67 224.00 80.00 C 194.33 80.00 164.67 80.00 135.00 80.00 M 32.00 128.00 C 32.00 139.00 32.00 150.00 32.00 161.00 C 61.33 161.00 90.67 161.00 120.00 161.00 C 120.00 150.00 120.00 139.00 120.00 128.00 C 90.67 128.00 61.33 128.00 32.00 128.00 M 136.00 128.00 C 136.00 139.00 136.00 150.00 136.00 161.00 C 165.33 161.00 194.67 161.00 224.00 161.00 C 224.00 150.00 224.00 139.00 224.00 128.00 C 194.67 128.00 165.33 128.00 136.00 128.00 M 32.00 177.00 C 32.00 187.33 32.00 197.67 32.00 208.00 C 96.00 208.00 160.00 208.00 224.00 208.00 C 224.00 197.67 224.00 187.33 224.00 177.00 C 160.00 177.00 96.00 177.00 32.00 177.00 Z" />
</g>
</svg>
