<?xml version="1.0" encoding="UTF-8"?>
<!DOCTYPE svg PUBLIC "-//W3C//DTD SVG 1.1//EN" "http://www.w3.org/Graphics/SVG/1.1/DTD/svg11.dtd">
<svg xmlns="http://www.w3.org/2000/svg" xml:space="preserve" width="1024px" height="1024px" shape-rendering="geometricPrecision" text-rendering="geometricPrecision" image-rendering="optimizeQuality" fill-rule="nonzero" clip-rule="evenodd" viewBox="0 0 10240 10240" xmlns:xlink="http://www.w3.org/1999/xlink">
	<title>code_csharp icon</title>
	<desc>code_csharp icon from the IconExperience.com O-Collection. Copyright by INCORS GmbH (www.incors.com).</desc>
	<path id="curve2" fill="#3E9BD5" d="M6997 8320l327 0 72 -320 -328 0 142 -640 328 0 142 -640 653 0 -142 640 449 0 142 -640 653 0 -142 640 328 0 -142 640 -328 0 -71 320 328 0 -143 640 -327 0 -143 640 -653 0 142 -640 -449 0 -142 640 -653 0 142 -640 -328 0 143 -640zm-2517 -1920l1280 0c353,0 640,288 640,640l0 160 -640 0c0,-88 -72,-160 -160,-160l-960 0c-88,0 -160,72 -160,160 0,533 0,1067 0,1600 0,88 72,160 160,160l960 0c88,0 160,-72 160,-160l640 0 0 160c0,352 -288,640 -640,640l-1280 0c-352,0 -640,-287 -640,-640l0 -1920c0,-352 287,-640 640,-640zm3498 1920l449 0 71 -320 -449 0 -71 320z"/>
	<path id="curve1" fill="#252525" d="M2560 7680l960 0 0 640 -960 0 0 -640zm0 -5760l1920 0 0 640 -1920 0 0 -640zm1280 960l2560 0 0 640 -2560 0 0 -640zm1280 960l2560 0 0 640 -2560 0 0 -640zm0 960l1920 0 0 640 -1920 0 0 -640zm-1280 960l1920 0 0 320 -1280 0c-246,0 -470,93 -640,245l0 -565zm2880 960l632 0 -71 320 -71 0c-152,0 -279,102 -312,251l-16 69 -162 0 0 -640z"/>
	<path id="curve0" fill="#252525" d="M8960 640l-7680 0 0 8960 2485 0c-152,-170 -245,-394 -245,-640l0 0 -1600 0 0 -7680 6400 0 0 5120 13 0c88,0 164,31 224,91 58,-57 138,-91 225,-91l178 0 0 -5760z"/>
</svg>
