<?xml version="1.0" encoding="UTF-8"?>
<!DOCTYPE svg PUBLIC "-//W3C//DTD SVG 1.1//EN" "http://www.w3.org/Graphics/SVG/1.1/DTD/svg11.dtd">
<svg xmlns="http://www.w3.org/2000/svg" xml:space="preserve" width="1024px" height="1024px" shape-rendering="geometricPrecision" text-rendering="geometricPrecision" image-rendering="optimizeQuality" fill-rule="nonzero" clip-rule="evenodd" viewBox="0 0 10240 10240" xmlns:xlink="http://www.w3.org/1999/xlink">
	<title>keyboard_key_a icon</title>
	<desc>keyboard_key_a icon from the IconExperience.com O-Collection. Copyright by INCORS GmbH (www.incors.com).</desc>
	<path id="curve0" fill="#252525" d="M2560 1280l5120 0c705,0 1280,575 1280,1280l0 5120c0,705 -575,1280 -1280,1280l-5120 0c-705,0 -1280,-575 -1280,-1280l0 -5120c0,-705 575,-1280 1280,-1280zm1294 3199l1252 0c-40,-444 -164,-874 -347,-1280l-558 0c-183,406 -307,836 -347,1280zm1266 640l-1280 0 0 640 -640 0 0 -960c0,-727 192,-1416 515,-2063 56,-111 168,-176 285,-176l960 0c117,0 229,65 285,176 323,647 515,1336 515,2063l0 960 -640 0 0 -640zm-1920 -3199c-529,0 -960,431 -960,960l0 3840c0,529 431,960 960,960l3840 0c529,0 960,-431 960,-960l0 -3840c0,-529 -431,-960 -960,-960l-3840 0zm0 320c-353,0 -640,287 -640,640l0 3840c0,353 287,640 640,640l3840 0c353,0 640,-287 640,-640l0 -3840c0,-353 -287,-640 -640,-640l-3840 0z"/>


<g comp-op="clear">
<g transform="translate(5120,0) scale(0.5,0.5)"  stroke="#808080" stroke-width="512" stroke-linejoin="round">
	<title>sun icon</title>
	<desc>sun icon from the IconExperience.com O-Collection. Copyright by INCORS GmbH (www.incors.com).</desc>
	<path id="curve1" fill="#3E9BD5" d="M5120 2560c1414,0 2560,1146 2560,2560 0,1414 -1146,2560 -2560,2560 -1414,0 -2560,-1146 -2560,-2560 0,-1414 1146,-2560 2560,-2560zm0 640c-1060,0 -1920,860 -1920,1920 0,1060 860,1920 1920,1920 1060,0 1920,-860 1920,-1920 0,-1060 -860,-1920 -1920,-1920z"/>
	<path id="curve0" fill="#3E9BD5" d="M9000 7360c-88,153 -285,205 -437,117l-555 -320c-152,-88 -205,-284 -117,-437 88,-153 285,-205 437,-117l555 320c152,88 205,284 117,437zm-1640 1640c-153,88 -349,35 -437,-117l-320 -555c-88,-152 -36,-349 117,-437 153,-88 349,-35 437,117l320 555c88,152 36,349 -117,437zm-2240 600c-176,0 -320,-144 -320,-320l0 -640c0,-176 144,-320 320,-320 176,0 320,144 320,320l0 640c0,176 -144,320 -320,320zm-2240 -600c-153,-88 -205,-285 -117,-437l320 -555c88,-152 284,-205 437,-117 153,88 205,285 117,437l-320 555c-88,152 -284,205 -437,117zm-1640 -1640c-88,-153 -35,-349 117,-437l555 -320c152,-88 349,-36 437,117 88,153 35,349 -117,437l-555 320c-152,88 -349,36 -437,-117zm-600 -2240c0,-176 144,-320 320,-320l640 0c176,0 320,144 320,320 0,176 -144,320 -320,320l-640 0c-176,0 -320,-144 -320,-320zm600 -2240c88,-153 285,-205 437,-117l555 320c152,88 205,284 117,437 -88,153 -285,205 -437,117l-555 -320c-152,-88 -205,-284 -117,-437zm1640 -1640c153,-88 349,-35 437,117l320 555c88,152 36,349 -117,437 -153,88 -349,35 -437,-117l-320 -555c-88,-152 -36,-349 117,-437zm2240 -600c176,0 320,144 320,320l0 640c0,176 -144,320 -320,320 -176,0 -320,-144 -320,-320l0 -640c0,-176 144,-320 320,-320zm2240 600c153,88 205,285 117,437l-320 555c-88,152 -284,205 -437,117 -153,-88 -205,-285 -117,-437l320 -555c88,-152 284,-205 437,-117zm1640 1640c88,153 35,349 -117,437l-555 320c-152,88 -349,36 -437,-117 -88,-153 -35,-349 117,-437l555 -320c152,-88 349,-36 437,117zm600 2240c0,176 -144,320 -320,320l-640 0c-176,0 -320,-144 -320,-320 0,-176 144,-320 320,-320l640 0c176,0 320,144 320,320z"/>
</g>
</g>



<g transform="translate(5120,0) scale(0.5,0.5)">
	<title>sun icon</title>
	<desc>sun icon from the IconExperience.com O-Collection. Copyright by INCORS GmbH (www.incors.com).</desc>
	<path id="curve1" fill="#3E9BD5" d="M5120 2560c1414,0 2560,1146 2560,2560 0,1414 -1146,2560 -2560,2560 -1414,0 -2560,-1146 -2560,-2560 0,-1414 1146,-2560 2560,-2560zm0 640c-1060,0 -1920,860 -1920,1920 0,1060 860,1920 1920,1920 1060,0 1920,-860 1920,-1920 0,-1060 -860,-1920 -1920,-1920z"/>
	<path id="curve0" fill="#3E9BD5" d="M9000 7360c-88,153 -285,205 -437,117l-555 -320c-152,-88 -205,-284 -117,-437 88,-153 285,-205 437,-117l555 320c152,88 205,284 117,437zm-1640 1640c-153,88 -349,35 -437,-117l-320 -555c-88,-152 -36,-349 117,-437 153,-88 349,-35 437,117l320 555c88,152 36,349 -117,437zm-2240 600c-176,0 -320,-144 -320,-320l0 -640c0,-176 144,-320 320,-320 176,0 320,144 320,320l0 640c0,176 -144,320 -320,320zm-2240 -600c-153,-88 -205,-285 -117,-437l320 -555c88,-152 284,-205 437,-117 153,88 205,285 117,437l-320 555c-88,152 -284,205 -437,117zm-1640 -1640c-88,-153 -35,-349 117,-437l555 -320c152,-88 349,-36 437,117 88,153 35,349 -117,437l-555 320c-152,88 -349,36 -437,-117zm-600 -2240c0,-176 144,-320 320,-320l640 0c176,0 320,144 320,320 0,176 -144,320 -320,320l-640 0c-176,0 -320,-144 -320,-320zm600 -2240c88,-153 285,-205 437,-117l555 320c152,88 205,284 117,437 -88,153 -285,205 -437,117l-555 -320c-152,-88 -205,-284 -117,-437zm1640 -1640c153,-88 349,-35 437,117l320 555c88,152 36,349 -117,437 -153,88 -349,35 -437,-117l-320 -555c-88,-152 -36,-349 117,-437zm2240 -600c176,0 320,144 320,320l0 640c0,176 -144,320 -320,320 -176,0 -320,-144 -320,-320l0 -640c0,-176 144,-320 320,-320zm2240 600c153,88 205,285 117,437l-320 555c-88,152 -284,205 -437,117 -153,-88 -205,-285 -117,-437l320 -555c88,-152 284,-205 437,-117zm1640 1640c88,153 35,349 -117,437l-555 320c-152,88 -349,36 -437,-117 -88,-153 -35,-349 117,-437l555 -320c152,-88 349,-36 437,117zm600 2240c0,176 -144,320 -320,320l-640 0c-176,0 -320,-144 -320,-320 0,-176 144,-320 320,-320l640 0c176,0 320,144 320,320z"/>
</g>

</svg>
