<?xml version="1.0" encoding="UTF-8"?>
<!DOCTYPE svg PUBLIC "-//W3C//DTD SVG 1.1//EN" "http://www.w3.org/Graphics/SVG/1.1/DTD/svg11.dtd">
<svg xmlns="http://www.w3.org/2000/svg" xml:space="preserve" width="1024px" height="1024px" shape-rendering="geometricPrecision" text-rendering="geometricPrecision" image-rendering="optimizeQuality" fill-rule="nonzero" clip-rule="evenodd" viewBox="0 0 10240 10240" xmlns:xlink="http://www.w3.org/1999/xlink">
	<title>note icon</title>
	<desc>note icon from the IconExperience.com O-Collection. Copyright by INCORS GmbH (www.incors.com).</desc>
	<path id="curve0" fill="#252525" d="M1280 8960l5230 0c352,0 656,-126 905,-375l1170 -1170c249,-249 375,-553 375,-905l0 -5230 -7680 0 0 7680zm5758 -903c1,-19 2,-38 2,-57l0 -960 960 0c19,0 38,-1 57,-2l-1019 1019zm-5118 263l0 -6400 6400 0 0 4160c0,176 -144,320 -320,320l-1600 0 0 1600c0,176 -144,320 -320,320l-4160 0z"/>


<g comp-op="clear">
<g transform="translate(0,0) scale(0.5,0.5)"  stroke="#808080" stroke-width="512" stroke-linejoin="round">
	<title>sun icon</title>
	<desc>sun icon from the IconExperience.com O-Collection. Copyright by INCORS GmbH (www.incors.com).</desc>
	<path id="curve1" fill="#3E9BD5" d="M5120 2560c1414,0 2560,1146 2560,2560 0,1414 -1146,2560 -2560,2560 -1414,0 -2560,-1146 -2560,-2560 0,-1414 1146,-2560 2560,-2560zm0 640c-1060,0 -1920,860 -1920,1920 0,1060 860,1920 1920,1920 1060,0 1920,-860 1920,-1920 0,-1060 -860,-1920 -1920,-1920z"/>
	<path id="curve0" fill="#3E9BD5" d="M9000 7360c-88,153 -285,205 -437,117l-555 -320c-152,-88 -205,-284 -117,-437 88,-153 285,-205 437,-117l555 320c152,88 205,284 117,437zm-1640 1640c-153,88 -349,35 -437,-117l-320 -555c-88,-152 -36,-349 117,-437 153,-88 349,-35 437,117l320 555c88,152 36,349 -117,437zm-2240 600c-176,0 -320,-144 -320,-320l0 -640c0,-176 144,-320 320,-320 176,0 320,144 320,320l0 640c0,176 -144,320 -320,320zm-2240 -600c-153,-88 -205,-285 -117,-437l320 -555c88,-152 284,-205 437,-117 153,88 205,285 117,437l-320 555c-88,152 -284,205 -437,117zm-1640 -1640c-88,-153 -35,-349 117,-437l555 -320c152,-88 349,-36 437,117 88,153 35,349 -117,437l-555 320c-152,88 -349,36 -437,-117zm-600 -2240c0,-176 144,-320 320,-320l640 0c176,0 320,144 320,320 0,176 -144,320 -320,320l-640 0c-176,0 -320,-144 -320,-320zm600 -2240c88,-153 285,-205 437,-117l555 320c152,88 205,284 117,437 -88,153 -285,205 -437,117l-555 -320c-152,-88 -205,-284 -117,-437zm1640 -1640c153,-88 349,-35 437,117l320 555c88,152 36,349 -117,437 -153,88 -349,35 -437,-117l-320 -555c-88,-152 -36,-349 117,-437zm2240 -600c176,0 320,144 320,320l0 640c0,176 -144,320 -320,320 -176,0 -320,-144 -320,-320l0 -640c0,-176 144,-320 320,-320zm2240 600c153,88 205,285 117,437l-320 555c-88,152 -284,205 -437,117 -153,-88 -205,-285 -117,-437l320 -555c88,-152 284,-205 437,-117zm1640 1640c88,153 35,349 -117,437l-555 320c-152,88 -349,36 -437,-117 -88,-153 -35,-349 117,-437l555 -320c152,-88 349,-36 437,117zm600 2240c0,176 -144,320 -320,320l-640 0c-176,0 -320,-144 -320,-320 0,-176 144,-320 320,-320l640 0c176,0 320,144 320,320z"/>
</g>
</g>



<g transform="translate(0,0) scale(0.5,0.5)">
	<title>sun icon</title>
	<desc>sun icon from the IconExperience.com O-Collection. Copyright by INCORS GmbH (www.incors.com).</desc>
	<path id="curve1" fill="#3E9BD5" d="M5120 2560c1414,0 2560,1146 2560,2560 0,1414 -1146,2560 -2560,2560 -1414,0 -2560,-1146 -2560,-2560 0,-1414 1146,-2560 2560,-2560zm0 640c-1060,0 -1920,860 -1920,1920 0,1060 860,1920 1920,1920 1060,0 1920,-860 1920,-1920 0,-1060 -860,-1920 -1920,-1920z"/>
	<path id="curve0" fill="#3E9BD5" d="M9000 7360c-88,153 -285,205 -437,117l-555 -320c-152,-88 -205,-284 -117,-437 88,-153 285,-205 437,-117l555 320c152,88 205,284 117,437zm-1640 1640c-153,88 -349,35 -437,-117l-320 -555c-88,-152 -36,-349 117,-437 153,-88 349,-35 437,117l320 555c88,152 36,349 -117,437zm-2240 600c-176,0 -320,-144 -320,-320l0 -640c0,-176 144,-320 320,-320 176,0 320,144 320,320l0 640c0,176 -144,320 -320,320zm-2240 -600c-153,-88 -205,-285 -117,-437l320 -555c88,-152 284,-205 437,-117 153,88 205,285 117,437l-320 555c-88,152 -284,205 -437,117zm-1640 -1640c-88,-153 -35,-349 117,-437l555 -320c152,-88 349,-36 437,117 88,153 35,349 -117,437l-555 320c-152,88 -349,36 -437,-117zm-600 -2240c0,-176 144,-320 320,-320l640 0c176,0 320,144 320,320 0,176 -144,320 -320,320l-640 0c-176,0 -320,-144 -320,-320zm600 -2240c88,-153 285,-205 437,-117l555 320c152,88 205,284 117,437 -88,153 -285,205 -437,117l-555 -320c-152,-88 -205,-284 -117,-437zm1640 -1640c153,-88 349,-35 437,117l320 555c88,152 36,349 -117,437 -153,88 -349,35 -437,-117l-320 -555c-88,-152 -36,-349 117,-437zm2240 -600c176,0 320,144 320,320l0 640c0,176 -144,320 -320,320 -176,0 -320,-144 -320,-320l0 -640c0,-176 144,-320 320,-320zm2240 600c153,88 205,285 117,437l-320 555c-88,152 -284,205 -437,117 -153,-88 -205,-285 -117,-437l320 -555c88,-152 284,-205 437,-117zm1640 1640c88,153 35,349 -117,437l-555 320c-152,88 -349,36 -437,-117 -88,-153 -35,-349 117,-437l555 -320c152,-88 349,-36 437,117zm600 2240c0,176 -144,320 -320,320l-640 0c-176,0 -320,-144 -320,-320 0,-176 144,-320 320,-320l640 0c176,0 320,144 320,320z"/>
</g>

</svg>
