<?xml version="1.0" encoding="UTF-8"?>
<!DOCTYPE svg PUBLIC "-//W3C//DTD SVG 1.1//EN" "http://www.w3.org/Graphics/SVG/1.1/DTD/svg11.dtd">
<svg xmlns="http://www.w3.org/2000/svg" xml:space="preserve" width="1024px" height="1024px" shape-rendering="geometricPrecision" text-rendering="geometricPrecision" image-rendering="optimizeQuality" fill-rule="nonzero" clip-rule="evenodd" viewBox="0 0 10240 10240" xmlns:xlink="http://www.w3.org/1999/xlink">
	<title>code_javascript icon</title>
	<desc>code_javascript icon from the IconExperience.com O-Collection. Copyright by INCORS GmbH (www.incors.com).</desc>
	<path id="curve2" fill="#3E9BD5" d="M8917 7200c-57,-98 -163,-160 -277,-160l-640 0c-176,0 -320,144 -320,320 0,176 144,320 320,320l640 0c529,0 960,431 960,960 0,529 -431,960 -960,960l-640 0c-468,0 -869,-340 -947,-800l670 0c58,98 163,160 277,160l640 0c176,0 320,-144 320,-320 0,-176 -144,-320 -320,-320l-640 0c-529,0 -960,-431 -960,-960 0,-529 431,-960 960,-960l640 0c468,0 869,340 947,800l-670 0zm-3157 1120c0,353 -287,640 -640,640 -353,0 -640,-287 -640,-640l-640 0c0,707 573,1280 1280,1280 707,0 1280,-573 1280,-1280l0 -1920 -640 0 0 1920z"/>
	<path id="curve1" fill="#252525" d="M2560 7680l1920 0 0 320 -640 0c-176,0 -320,144 -320,320l-960 0 0 -640zm0 -5760l1920 0 0 640 -1920 0 0 -640zm1280 960l2560 0 0 640 -2560 0 0 -640zm1280 960l2560 0 0 640 -2560 0 0 -640zm0 960l1920 0 0 640 -1920 0 0 -640zm-1280 960l1920 0 0 320c-176,0 -320,144 -320,320l-1600 0 0 -640zm0 960l1600 0 0 640 -1600 0 0 -640zm2880 0l172 0c-112,193 -172,413 -172,640l0 -640z"/>
	<path id="curve0" fill="#252525" d="M8960 640l-7680 0 0 8960 2880 0c-220,-165 -395,-385 -507,-640l-1733 0 0 -7680 6400 0 0 4800 320 0c109,0 216,14 320,41l0 -5481zm-2880 8960l1074 0c-20,-18 -40,-36 -59,-55 -162,-162 -277,-364 -334,-585l-174 0c-112,255 -287,475 -507,640zm2240 -2240l0 0 319 0c0,0 0,0 0,0l-319 0z"/>
</svg>
