<?xml version="1.0" encoding="UTF-8"?>
<!DOCTYPE svg PUBLIC "-//W3C//DTD SVG 1.1//EN" "http://www.w3.org/Graphics/SVG/1.1/DTD/svg11.dtd">
<svg xmlns="http://www.w3.org/2000/svg" xml:space="preserve" width="1024px" height="1024px" shape-rendering="geometricPrecision" text-rendering="geometricPrecision" image-rendering="optimizeQuality" fill-rule="nonzero" clip-rule="evenodd" viewBox="0 0 10240 10240" xmlns:xlink="http://www.w3.org/1999/xlink">
	<title>code_ruby icon</title>
	<desc>code_ruby icon from the IconExperience.com O-Collection. Copyright by INCORS GmbH (www.incors.com).</desc>
	<path id="curve1" fill="#808080" d="M2560 7680l1920 0 0 640 -1920 0 0 -640zm0 -5760l1920 0 0 640 -1920 0 0 -640zm1280 960l2560 0 0 640 -2560 0 0 -640zm1280 960l2560 0 0 640 -2560 0 0 -640zm0 960l1920 0 0 640 -1920 0 0 -640zm-1280 960l1920 0 0 640 -1920 0 0 -640zm0 960l2560 0 0 640 -2560 0 0 -640z"/>
	<path id="curve0" fill="#808080" d="M8960 640l-7680 0 0 8960 5467 0c-17,-50 -27,-104 -27,-160l0 -480 -4800 0 0 -7680 6400 0 0 4800 320 0c110,0 218,14 320,40l0 -5480z"/>
        <rect x="2048" y="6700" width="5120" height="5120" fill="white"/>
    <g transform="scale(66,66) translate(28,24)">
       <path id="shapePath14" d="M37.7383,118.68 C38.1133,119.409 38.358,119.993 38.4726,120.43 C38.5872,120.868 38.5195,121.201 38.2695,121.43 C38.0195,121.659 37.5664,121.805 36.9101,121.868 C36.2539,121.93 35.3424,121.961 34.1758,121.961 C33.1966,121.961 32.4258,121.941 31.8633,121.899 C31.3008,121.857 30.858,121.789 30.5351,121.696 C30.2122,121.602 29.9778,121.472 29.832,121.305 C29.6862,121.138 29.5612,120.93 29.457,120.68 L21.8633,106.086 L14.3008,120.68 C14.1758,120.93 14.0403,121.138 13.8945,121.305 C13.7487,121.472 13.5143,121.602 13.1914,121.696 C12.8685,121.789 12.4205,121.857 11.8476,121.899 C11.2747,121.941 10.5195,121.961 9.582,121.961 C8.49867,121.961 7.66013,121.93 7.06638,121.868 C6.47263,121.805 6.07158,121.659 5.86325,121.43 C5.65492,121.201 5.61325,120.868 5.73825,120.43 C5.86325,119.993 6.12367,119.409 6.5195,118.68 L16.207,101.024 L7.207,84.4301 C6.832,83.6801 6.57679,83.0812 6.44138,82.6332 C6.30596,82.1853 6.35804,81.852 6.59763,81.6332 C6.83721,81.4145 7.27992,81.2791 7.92575,81.227 C8.57158,81.1749 9.48825,81.1489 10.6758,81.1489 C11.6549,81.1489 12.431,81.1697 13.0039,81.2114 C13.5768,81.253 14.0299,81.3207 14.3633,81.4145 C14.6966,81.5082 14.931,81.6385 15.0664,81.8051 C15.2018,81.9718 15.332,82.1801 15.457,82.4301 L22.5508,95.8051 L29.457,82.4301 C29.582,82.1801 29.7122,81.9718 29.8476,81.8051 C29.983,81.6385 30.2018,81.5082 30.5039,81.4145 C30.806,81.3207 31.2226,81.253 31.7539,81.2114 C32.2851,81.1697 33.0195,81.1489 33.957,81.1489 C34.9987,81.1489 35.8216,81.1749 36.4258,81.227 C37.0299,81.2791 37.4466,81.4197 37.6758,81.6489 C37.9049,81.878 37.9622,82.2114 37.8476,82.6489 C37.733,83.0864 37.4987,83.6801 37.1445,84.4301 L28.1445,100.93 L37.7383,118.68 M91.3008,120.649 C91.3008,120.857 91.2435,121.045 91.1289,121.211 C91.0143,121.378 90.806,121.513 90.5039,121.618 C90.2018,121.722 89.8008,121.805 89.3008,121.868 C88.8008,121.93 88.1653,121.961 87.3945,121.961 C86.6445,121.961 86.0195,121.93 85.5195,121.868 C85.0195,121.805 84.6237,121.722 84.332,121.618 C84.0403,121.513 83.832,121.378 83.707,121.211 C83.582,121.045 83.5195,120.857 83.5195,120.649 L83.5195,87.7426 L83.457,87.7426 L71.7383,120.618 C71.6549,120.888 71.5195,121.112 71.332,121.289 C71.1445,121.467 70.8893,121.607 70.5664,121.711 C70.2435,121.816 69.832,121.883 69.332,121.914 C68.832,121.946 68.2278,121.961 67.5195,121.961 C66.8112,121.961 66.207,121.935 65.707,121.883 C65.207,121.831 64.7955,121.748 64.4726,121.633 C64.1497,121.519 63.8945,121.378 63.707,121.211 C63.5195,121.045 63.3945,120.847 63.332,120.618 L52.0195,87.7426 L51.957,87.7426 L51.957,120.649 C51.957,120.857 51.8997,121.045 51.7851,121.211 C51.6705,121.378 51.457,121.513 51.1445,121.618 C50.832,121.722 50.431,121.805 49.9414,121.868 C49.4518,121.93 48.8216,121.961 48.0508,121.961 C47.3008,121.961 46.6758,121.93 46.1758,121.868 C45.6758,121.805 45.2747,121.722 44.9726,121.618 C44.6705,121.513 44.4622,121.378 44.3476,121.211 C44.233,121.045 44.1758,120.857 44.1758,120.649 L44.1758,84.6176 C44.1758,83.5551 44.457,82.7426 45.0195,82.1801 C45.582,81.6176 46.332,81.3364 47.2695,81.3364 L52.6445,81.3364 C53.6028,81.3364 54.4258,81.4145 55.1133,81.5707 C55.8008,81.727 56.3945,81.9874 56.8945,82.352 C57.3945,82.7166 57.8112,83.1957 58.1445,83.7895 C58.4778,84.3832 58.7695,85.1176 59.0195,85.9926 L67.7695,110.086 L67.8945,110.086 L76.957,86.0551 C77.2278,85.1801 77.5247,84.4405 77.8476,83.8364 C78.1705,83.2322 78.5455,82.7426 78.9726,82.3676 C79.3997,81.9926 79.9049,81.727 80.4883,81.5707 C81.0716,81.4145 81.7487,81.3364 82.5195,81.3364 L88.0508,81.3364 C88.6133,81.3364 89.0976,81.4093 89.5039,81.5551 C89.9101,81.701 90.2435,81.9145 90.5039,82.1957 C90.7643,82.477 90.9622,82.8207 91.0976,83.227 C91.233,83.6332 91.3008,84.0968 91.3008,84.6176 L91.3008,120.649 M122.332,118.336 C122.332,118.961 122.306,119.487 122.254,119.914 C122.202,120.342 122.124,120.696 122.02,120.977 C121.915,121.258 121.785,121.461 121.629,121.586 C121.473,121.711 121.29,121.774 121.082,121.774 L102.551,121.774 C101.863,121.774 101.285,121.571 100.816,121.164 C100.348,120.758 100.113,120.097 100.113,119.18 L100.113,82.4614 C100.113,82.253 100.181,82.0655 100.316,81.8989 C100.452,81.7322 100.676,81.5968 100.988,81.4926 C101.301,81.3885 101.723,81.3051 102.254,81.2426 C102.785,81.1801 103.447,81.1489 104.238,81.1489 C105.051,81.1489 105.717,81.1801 106.238,81.2426 C106.759,81.3051 107.176,81.3885 107.488,81.4926 C107.801,81.5968 108.025,81.7322 108.16,81.8989 C108.296,82.0655 108.363,82.253 108.363,82.4614 L108.363,114.993 L121.082,114.993 C121.29,114.993 121.473,115.05 121.629,115.164 C121.785,115.279 121.915,115.467 122.02,115.727 C122.124,115.987 122.202,116.331 122.254,116.758 C122.306,117.185 122.332,117.711 122.332,118.336 Z" style="stroke:none;fill-rule:nonzero;fill:#4d82b8;fill-opacity:1;"/>
    </g>
</svg>
