<?xml version="1.0" encoding="UTF-8"?>
<!DOCTYPE svg PUBLIC "-//W3C//DTD SVG 1.1//EN" "http://www.w3.org/Graphics/SVG/1.1/DTD/svg11.dtd">
<svg xmlns="http://www.w3.org/2000/svg" xml:space="preserve" width="1024px" height="1024px" shape-rendering="geometricPrecision" text-rendering="geometricPrecision" image-rendering="optimizeQuality" fill-rule="nonzero" clip-rule="evenodd" viewBox="0 0 10240 10240" xmlns:xlink="http://www.w3.org/1999/xlink">
	<title>message icon</title>
	<desc>message icon from the IconExperience.com O-Collection. Copyright by INCORS GmbH (www.incors.com).</desc>
	<path id="curve1" fill="#252525" d="M5120 640c2474,0 4480,1576 4480,3520 0,911 -440,1740 -1162,2365 -108,93 -174,203 -206,341 -318,1393 -1486,2414 -3112,2414 213,-213 354,-475 449,-761 66,-198 37,-398 -84,-569 -120,-172 -298,-267 -507,-272 -2409,-59 -4338,-1611 -4338,-3518 0,-1944 2006,-3520 4480,-3520zm1119 7774c681,-300 1186,-886 1370,-1690 62,-271 200,-501 410,-683 556,-481 941,-1132 941,-1881 0,-217 -32,-431 -96,-638 -205,-670 -708,-1206 -1291,-1572 -727,-456 -1599,-670 -2453,-670 -854,0 -1726,214 -2453,670 -583,366 -1086,902 -1291,1572 -64,207 -96,421 -96,638 0,217 33,431 96,638 452,1477 2191,2205 3617,2240 412,11 779,206 1016,544 175,248 253,539 230,832z"/>
	<path id="curve0" fill="#3E9BD5" d="M3200 2560l3840 0 0 640 -3840 0 0 -640zm0 2560l3840 0 0 640 -3840 0 0 -640zm0 -1280l3840 0 0 640 -3840 0 0 -640z"/>


<g comp-op="clear">
<g transform="translate(5120,5120) scale(0.5,0.5)"  stroke="#808080" stroke-width="512" stroke-linejoin="round">
	<title>wrench icon</title>
	<desc>wrench icon from the IconExperience.com O-Collection. Copyright by INCORS GmbH (www.incors.com).</desc>
	<path id="curve0" fill="#3E9BD5" d="M5665 5966l-2505 2926c-458,536 -1312,499 -1810,0l0 0c-499,-498 -541,-1358 0,-1810l2957 -2474c495,-414 -679,-1584 679,-2941 482,-483 1171,-760 1804,-773 133,-2 248,72 300,195 53,122 27,257 -68,352l-1131 1131 452 1358 1358 452 1131 -1131c95,-95 230,-121 352,-68 123,52 197,167 195,300 -13,633 -290,1322 -773,1804 -1357,1358 -2487,149 -2941,679zm-2957 1568c-250,-249 -656,-249 -906,0 -249,250 -249,656 0,906 250,249 656,249 906,0 249,-250 249,-656 0,-906z"/>
</g>
</g>



<g transform="translate(5120,5120) scale(0.5,0.5)">
	<title>wrench icon</title>
	<desc>wrench icon from the IconExperience.com O-Collection. Copyright by INCORS GmbH (www.incors.com).</desc>
	<path id="curve0" fill="#3E9BD5" d="M5665 5966l-2505 2926c-458,536 -1312,499 -1810,0l0 0c-499,-498 -541,-1358 0,-1810l2957 -2474c495,-414 -679,-1584 679,-2941 482,-483 1171,-760 1804,-773 133,-2 248,72 300,195 53,122 27,257 -68,352l-1131 1131 452 1358 1358 452 1131 -1131c95,-95 230,-121 352,-68 123,52 197,167 195,300 -13,633 -290,1322 -773,1804 -1357,1358 -2487,149 -2941,679zm-2957 1568c-250,-249 -656,-249 -906,0 -249,250 -249,656 0,906 250,249 656,249 906,0 249,-250 249,-656 0,-906z"/>
</g>

</svg>
