<?xml version="1.0" encoding="UTF-8"?>
<!DOCTYPE svg PUBLIC "-//W3C//DTD SVG 1.1//EN" "http://www.w3.org/Graphics/SVG/1.1/DTD/svg11.dtd">
<svg xmlns="http://www.w3.org/2000/svg" xml:space="preserve" width="1024px" height="1024px" shape-rendering="geometricPrecision" text-rendering="geometricPrecision" image-rendering="optimizeQuality" fill-rule="nonzero" clip-rule="evenodd" viewBox="0 0 10240 10240" xmlns:xlink="http://www.w3.org/1999/xlink">
	<title>plus icon</title>
	<desc>plus icon from the IconExperience.com O-Collection. Copyright by INCORS GmbH (www.incors.com).</desc>
	<path id="curve0" fill="#3E9BD5" d="M960 3840l2880 0 0 -2880c0,-176 144,-320 320,-320l1920 0c176,0 320,144 320,320l0 2880 2880 0c176,0 320,144 320,320l0 1920c0,176 -144,320 -320,320l-2880 0 0 2880c0,176 -144,320 -320,320l-1920 0c-176,0 -320,-144 -320,-320l0 -2880 -2880 0c-176,0 -320,-144 -320,-320l0 -1920c0,-176 144,-320 320,-320z"/>


<g comp-op="clear">
<g transform="translate(5120,5120) scale(0.5,0.5)"  stroke="#808080" stroke-width="512" stroke-linejoin="round">
	<title>checkbox icon</title>
	<desc>checkbox icon from the IconExperience.com O-Collection. Copyright by INCORS GmbH (www.incors.com).</desc>
        <rect fill="#ffffff" x="1920" y="4480" width="4480" height="4480"/>
	<path id="curve1" fill="#252525" d="M2369 3840l2938 0 -640 640 -1654 0 -602 -601c-13,-14 -28,-27 -42,-39zm4671 1888l0 3232c0,353 -287,640 -640,640l-4480 0c-353,0 -640,-287 -640,-640l0 -2592 640 640 0 1952 4480 0 0 -2592 640 -640z"/>
	<path id="curve0" fill="#3E9BD5" d="M2185 4105l1655 1655 4215 -4215c125,-125 328,-125 453,0l904 905c125,125 125,328 0,453l-5119 5119c-250,250 -656,250 -906,0l-2559 -2559c-125,-125 -125,-328 0,-453l904 -905c125,-125 328,-125 453,0z"/>
</g>
</g>



<g transform="translate(5120,5120) scale(0.5,0.5)">
	<title>checkbox icon</title>
	<desc>checkbox icon from the IconExperience.com O-Collection. Copyright by INCORS GmbH (www.incors.com).</desc>
        <rect fill="#ffffff" x="1920" y="4480" width="4480" height="4480"/>
	<path id="curve1" fill="#252525" d="M2369 3840l2938 0 -640 640 -1654 0 -602 -601c-13,-14 -28,-27 -42,-39zm4671 1888l0 3232c0,353 -287,640 -640,640l-4480 0c-353,0 -640,-287 -640,-640l0 -2592 640 640 0 1952 4480 0 0 -2592 640 -640z"/>
	<path id="curve0" fill="#3E9BD5" d="M2185 4105l1655 1655 4215 -4215c125,-125 328,-125 453,0l904 905c125,125 125,328 0,453l-5119 5119c-250,250 -656,250 -906,0l-2559 -2559c-125,-125 -125,-328 0,-453l904 -905c125,-125 328,-125 453,0z"/>
</g>

</svg>
