<?xml version="1.0" encoding="UTF-8"?>
<!DOCTYPE svg PUBLIC "-//W3C//DTD SVG 1.1//EN" "http://www.w3.org/Graphics/SVG/1.1/DTD/svg11.dtd">
<svg xmlns="http://www.w3.org/2000/svg" xml:space="preserve" width="1024px" height="1024px" shape-rendering="geometricPrecision" text-rendering="geometricPrecision" image-rendering="optimizeQuality" fill-rule="nonzero" clip-rule="evenodd" viewBox="0 0 10240 10240" xmlns:xlink="http://www.w3.org/1999/xlink">
	<title>element icon</title>
	<desc>element icon from the IconExperience.com O-Collection. Copyright by INCORS GmbH (www.incors.com).</desc>
	<rect fill="#3E9BD5" x="3000" y="3600" width="4400" height="3000"/>
	<path id="curve0" fill="#252525" d="M3200 3200l3840 0c353,0 640,288 640,640l0 2560c0,352 -288,640 -640,640l-3840 0c-353,0 -640,-287 -640,-640l0 -2560c0,-353 287,-640 640,-640zm0 640l0 2560 3840 0 0 -2560 -3840 0z"/>


<g comp-op="clear">
<g transform="translate(5120,5120) scale(0.5,0.5)"  stroke="#808080" stroke-width="512" stroke-linejoin="round">
	<title>arrow_down_right icon</title>
	<desc>arrow_down_right icon from the IconExperience.com O-Collection. Copyright by INCORS GmbH (www.incors.com).</desc>
	<path id="curve0" fill="#3E9BD5" d="M2713 6400l2330 0 -3621 -3620c-124,-125 -124,-328 0,-453l905 -905c125,-124 328,-124 453,0l3620 3621 0 -2329c0,-67 38,-123 99,-148 61,-26 128,-12 174,34l1460 1460c124,124 187,276 187,452l0 3488c0,176 -144,320 -320,320l-3488 0c-176,0 -328,-63 -452,-187l-1460 -1460c-46,-46 -60,-113 -34,-174 25,-61 81,-99 147,-99z"/>
</g>
</g>



<g transform="translate(5120,5120) scale(0.5,0.5)">
	<title>arrow_down_right icon</title>
	<desc>arrow_down_right icon from the IconExperience.com O-Collection. Copyright by INCORS GmbH (www.incors.com).</desc>
	<path id="curve0" fill="#3E9BD5" d="M2713 6400l2330 0 -3621 -3620c-124,-125 -124,-328 0,-453l905 -905c125,-124 328,-124 453,0l3620 3621 0 -2329c0,-67 38,-123 99,-148 61,-26 128,-12 174,34l1460 1460c124,124 187,276 187,452l0 3488c0,176 -144,320 -320,320l-3488 0c-176,0 -328,-63 -452,-187l-1460 -1460c-46,-46 -60,-113 -34,-174 25,-61 81,-99 147,-99z"/>
</g>

</svg>
