<?xml version="1.0" encoding="UTF-8" ?>
<!DOCTYPE svg PUBLIC "-//W3C//DTD SVG 1.1//EN" "http://www.w3.org/Graphics/SVG/1.1/DTD/svg11.dtd">
<svg width="256pt" height="256pt" viewBox="0 0 256 256" version="1.1" xmlns="http://www.w3.org/2000/svg">
<title>window_split_three_pane_up icon</title>
<desc>icon from the IconExperience.com V-Collection. Copyright by INCORS GmbH (www.incors.com). Vectorized using Vector Magic.</desc>
<g id="#010101ff">
<path fill="#010101" stroke="#010101" stroke-width="0.09375" opacity="1.00" d=" M 29.18 32.25 C 32.10 31.85 35.06 32.01 38.00 31.99 C 100.04 32.02 162.08 31.97 224.11 32.02 C 232.60 31.83 240.20 39.48 239.98 47.96 C 240.03 103.65 239.98 159.34 240.01 215.03 C 240.39 218.91 237.81 222.90 233.93 223.75 C 230.96 224.21 227.94 223.96 224.96 224.00 C 158.30 224.00 91.65 223.99 25.00 224.01 C 21.09 224.40 17.06 221.80 16.24 217.89 C 15.83 215.28 16.01 212.63 15.99 210.00 C 16.02 155.98 15.97 101.95 16.02 47.92 C 15.88 40.42 21.79 33.44 29.18 32.25 M 32.00 80.00 C 32.00 98.67 32.00 117.33 32.00 136.00 C 60.33 136.00 88.67 136.00 117.00 136.00 C 117.00 117.33 117.00 98.67 117.00 80.00 C 88.67 80.00 60.33 80.00 32.00 80.00 M 133.00 80.00 C 133.00 98.67 133.00 117.33 133.00 136.00 C 163.33 136.00 193.67 136.00 224.00 136.00 C 224.00 117.33 224.00 98.67 224.00 80.00 C 193.67 80.00 163.34 80.00 133.00 80.00 M 32.00 152.00 C 32.00 170.67 31.99 189.33 32.00 208.00 C 95.00 208.00 158.00 208.00 221.00 208.00 C 221.00 189.33 221.00 170.67 221.00 152.00 C 158.00 152.00 95.00 152.00 32.00 152.00 Z" />
</g>
</svg>
