<?xml version="1.0" encoding="UTF-8" ?>
<!DOCTYPE svg PUBLIC "-//W3C//DTD SVG 1.1//EN" "http://www.w3.org/Graphics/SVG/1.1/DTD/svg11.dtd">
<svg width="256pt" height="256pt" viewBox="0 0 256 256" version="1.1" xmlns="http://www.w3.org/2000/svg">
<title>window_split_three_pane_left icon</title>
<desc>icon from the IconExperience.com V-Collection. Copyright by INCORS GmbH (www.incors.com). Vectorized using Vector Magic.</desc>
<g id="#010101ff">
<path fill="#010101" stroke="#010101" stroke-width="0.09375" opacity="1.00" d=" M 29.13 32.26 C 32.07 31.86 35.05 31.99 38.01 31.99 C 100.04 32.03 162.07 31.96 224.10 32.02 C 232.60 31.82 240.21 39.48 239.98 47.98 C 240.03 103.68 239.98 159.39 240.00 215.09 C 240.36 218.94 237.81 222.90 233.96 223.74 C 230.67 224.23 227.33 223.96 224.02 224.00 C 158.99 224.02 93.95 223.97 28.92 224.02 C 25.32 223.96 21.03 224.59 18.32 221.63 C 15.40 218.91 16.05 214.62 15.98 211.03 C 16.04 156.67 15.95 102.30 16.02 47.94 C 15.87 40.45 21.76 33.47 29.13 32.26 M 32.00 80.00 C 32.00 98.67 32.00 117.33 32.00 136.00 C 60.35 135.98 88.70 136.04 117.05 135.97 C 117.03 117.32 117.04 98.68 117.06 80.03 C 88.71 79.96 60.35 80.02 32.00 80.00 M 132.92 80.03 C 133.01 122.69 133.00 165.34 133.00 208.00 C 163.33 208.00 193.67 208.00 224.00 208.00 C 224.00 165.33 224.00 122.67 224.00 80.00 C 193.64 80.02 163.28 79.95 132.92 80.03 M 32.00 152.00 C 32.00 170.67 32.00 189.33 32.00 208.00 C 60.33 208.00 88.67 208.00 117.00 208.00 C 117.00 189.33 117.02 170.67 116.95 152.00 C 88.63 152.00 60.32 152.00 32.00 152.00 Z" />
</g>
</svg>
