<?xml version="1.0" encoding="UTF-8"?>
<!DOCTYPE svg PUBLIC "-//W3C//DTD SVG 1.1//EN" "http://www.w3.org/Graphics/SVG/1.1/DTD/svg11.dtd">
<svg xmlns="http://www.w3.org/2000/svg" xml:space="preserve" width="1024px" height="1024px" shape-rendering="geometricPrecision" text-rendering="geometricPrecision" image-rendering="optimizeQuality" fill-rule="nonzero" clip-rule="evenodd" viewBox="0 0 10240 10240" xmlns:xlink="http://www.w3.org/1999/xlink">
	<title>tape_measure icon</title>
	<desc>tape_measure icon from the IconExperience.com O-Collection. Copyright by INCORS GmbH (www.incors.com).</desc>
	<path id="curve1" fill="#3E9BD5" d="M320 5760l2560 0 0 320 -1920 0 0 1913 320 0 0 -633 320 0 0 633 320 0 0 -633 320 0 0 633 320 0 0 -633 320 0 0 633 316 0c92,123 201,233 324,326l-3200 1 0 -2560z"/>
	<path id="curve0" fill="#252525" d="M4480 1920l3840 0c705,0 1280,575 1280,1280l0 3840c0,705 -575,1280 -1280,1280l-3840 0c-705,0 -1280,-575 -1280,-1280l0 -3840c0,-705 575,-1280 1280,-1280zm1920 1280c-1060,0 -1920,860 -1920,1920 0,1060 860,1920 1920,1920 1060,0 1920,-860 1920,-1920 0,-1060 -860,-1920 -1920,-1920z"/>
</svg>
