<?xml version="1.0" encoding="UTF-8"?>
<!DOCTYPE svg PUBLIC "-//W3C//DTD SVG 1.1//EN" "http://www.w3.org/Graphics/SVG/1.1/DTD/svg11.dtd">
<svg xmlns="http://www.w3.org/2000/svg" xml:space="preserve" width="1024px" height="1024px" shape-rendering="geometricPrecision" text-rendering="geometricPrecision" image-rendering="optimizeQuality" fill-rule="nonzero" clip-rule="evenodd" viewBox="0 0 10240 10240" xmlns:xlink="http://www.w3.org/1999/xlink">
	<title>floppy_disk icon</title>
	<desc>floppy_disk icon from the IconExperience.com O-Collection. Copyright by INCORS GmbH (www.incors.com).</desc>
	<path id="curve1" fill="#252525" d="M1920 1280l640 0 0 3200c0,353 287,640 640,640l3840 0c353,0 640,-287 640,-640l0 -3200 640 0c353,0 640,287 640,640l0 6400c0,353 -287,640 -640,640l-640 0 0 -2240c0,-176 -144,-320 -320,-320l-3200 0c-176,0 -320,144 -320,320l0 2240 -1920 0c-353,0 -640,-287 -640,-640l0 -6400c0,-353 287,-640 640,-640zm3840 5440l1280 0 0 1920 -1280 0 0 -1920z"/>
	<path id="curve0" fill="#3E9BD5" d="M2880,1280 7360,1280 7360,1920 2880,1920z"/>
</svg>
