<?xml version="1.0" encoding="UTF-8"?>
<!DOCTYPE svg PUBLIC "-//W3C//DTD SVG 1.1//EN" "http://www.w3.org/Graphics/SVG/1.1/DTD/svg11.dtd">
<svg xmlns="http://www.w3.org/2000/svg" xml:space="preserve" width="1024px" height="1024px" shape-rendering="geometricPrecision" text-rendering="geometricPrecision" image-rendering="optimizeQuality" fill-rule="nonzero" clip-rule="evenodd" viewBox="0 0 10240 10240" xmlns:xlink="http://www.w3.org/1999/xlink">
	<title>console icon</title>
	<desc>console icon from the IconExperience.com O-Collection. Copyright by INCORS GmbH (www.incors.com).</desc>
	<path id="curve2" fill="#252525" d="M1280 1280l7680 0c353,0 640,288 640,640l0 6720c0,176 -144,320 -320,320l-8320 0c-176,0 -320,-144 -320,-320l0 -6720c0,-353 288,-640 640,-640zm0 1920l0 5120 7680 0 0 -5120 -7680 0z"/>
	<path id="curve1" fill="#3E9BD5" d="M4480,5760 6400,5760 6400,6400 4480,6400z"/>
	<path id="curve0" fill="#3E9BD5" d="M2560 3520l640 0 0 320 640 0 0 640 -1120 0c-88,0 -160,72 -160,160 0,88 72,160 160,160l320 0c442,0 800,358 800,800 0,387 -275,710 -640,784l0 336 -640 0 0 -320 -640 0 0 -640 1120 0c88,0 160,-72 160,-160 0,-88 -72,-160 -160,-160l-320 0c-442,0 -800,-358 -800,-800 0,-387 275,-710 640,-784l0 -336z"/>
</svg>
