<?xml version="1.0" encoding="UTF-8" ?>
<!DOCTYPE svg PUBLIC "-//W3C//DTD SVG 1.1//EN" "http://www.w3.org/Graphics/SVG/1.1/DTD/svg11.dtd">
<svg width="256pt" height="256pt" viewBox="0 0 256 256" version="1.1" xmlns="http://www.w3.org/2000/svg">
<title>spaces_to_tabs icon</title>
<desc>icon from the IconExperience.com V-Collection. Copyright by INCORS GmbH (www.incors.com). Vectorized using Vector Magic.</desc>
<g id="#252525ff">
<path fill="#252525" stroke="#252525" stroke-width="0.09375" opacity="1.00" d=" M 69.36 32.45 C 73.49 31.53 77.79 32.18 82.00 31.99 C 84.88 32.06 87.85 31.70 90.68 32.46 C 94.19 33.62 96.32 37.34 96.00 40.96 C 96.00 86.43 95.99 131.89 96.01 177.36 C 105.72 167.65 115.45 157.94 125.15 148.21 C 126.84 146.56 128.38 144.70 130.37 143.38 C 132.78 142.12 136.09 144.15 135.94 146.90 C 136.08 156.62 135.98 166.34 135.98 176.06 C 136.09 180.52 134.06 184.79 130.84 187.80 C 115.79 202.79 100.81 217.86 85.76 232.84 C 82.79 236.10 77.21 236.10 74.24 232.84 C 59.19 217.86 44.22 202.81 29.18 187.82 C 25.93 184.78 23.89 180.48 24.02 175.98 C 24.02 166.29 23.92 156.60 24.06 146.91 C 23.90 144.15 27.21 142.12 29.62 143.38 C 31.78 144.83 33.45 146.87 35.30 148.67 C 44.86 158.24 54.42 167.80 63.99 177.36 C 64.01 131.89 64.00 86.41 64.00 40.94 C 63.68 37.31 65.84 33.59 69.36 32.45 Z" />
<path fill="#252525" stroke="#252525" stroke-width="0.09375" opacity="1.00" d=" M 187.62 42.82 C 202.65 40.16 218.18 51.39 220.91 66.28 C 224.48 81.65 213.09 98.13 197.72 100.91 C 182.07 104.58 165.38 92.67 162.93 76.97 C 159.78 61.29 171.91 44.96 187.62 42.82 M 173.68 71.41 C 176.85 72.96 180.00 71.03 181.67 68.30 C 182.10 64.20 178.82 60.73 174.65 61.29 C 170.86 63.15 169.58 69.15 173.68 71.41 Z" />
<path fill="#252525" stroke="#252525" stroke-width="0.09375" opacity="1.00" d=" M 192.20 156.28 C 196.13 155.90 200.11 156.06 204.06 156.14 C 206.67 156.06 208.61 158.01 210.33 159.70 C 214.48 163.91 218.68 168.07 222.86 172.25 C 224.49 173.62 225.68 176.18 224.13 178.07 C 220.23 182.51 215.78 186.43 211.71 190.72 C 209.49 192.83 207.33 195.76 203.94 195.74 C 200.04 195.87 196.12 196.05 192.22 195.74 C 191.74 195.32 190.76 194.48 190.27 194.06 C 193.25 190.42 196.78 187.31 200.02 183.92 C 182.74 183.93 165.46 183.94 148.18 183.91 C 148.20 178.64 148.20 173.36 148.18 168.09 C 165.46 168.06 182.73 168.07 200.01 168.08 C 196.78 164.69 193.25 161.58 190.28 157.95 C 190.76 157.53 191.72 156.70 192.20 156.28 Z" />
</g>
<g id="#3e9bd5ff">
<path fill="#3e9bd5" stroke="#3e9bd5" stroke-width="0.09375" opacity="1.00" d=" M 227.86 136.17 C 233.18 136.17 238.51 136.16 243.83 136.19 C 243.79 162.73 243.79 189.27 243.83 215.81 C 238.51 215.84 233.18 215.83 227.86 215.83 C 227.86 189.28 227.86 162.72 227.86 136.17 Z" />
</g>
</svg>
