<?xml version="1.0" encoding="UTF-8"?>
<!DOCTYPE svg PUBLIC "-//W3C//DTD SVG 1.1//EN" "http://www.w3.org/Graphics/SVG/1.1/DTD/svg11.dtd">
<svg xmlns="http://www.w3.org/2000/svg" xml:space="preserve" width="1024px" height="1024px" shape-rendering="geometricPrecision" text-rendering="geometricPrecision" image-rendering="optimizeQuality" fill-rule="nonzero" clip-rule="evenodd" viewBox="0 0 10240 10240" xmlns:xlink="http://www.w3.org/1999/xlink">
	<title>spellcheck icon</title>
	<desc>spellcheck icon from the IconExperience.com O-Collection. Copyright by INCORS GmbH (www.incors.com).</desc>
	<path id="curve3" fill="#3E9BD5" d="M2146 6814l508 -508c124,-124 328,-124 452,0l1054 1054 2974 -2974c124,-124 328,-124 452,0l508 508c124,124 124,328 0,452l-3708 3708c-124,124 -328,124 -452,0l-1788 -1788c-124,-124 -124,-328 0,-452z"/>
	<path id="curve2" fill="#252525" d="M7680 2560l1280 0c353,0 640,287 640,640l0 160 -640 0 0 0c0,-88 -72,-160 -160,-160l-960 0c-88,0 -160,72 -160,160l0 698c-197,-114 -443,-114 -640,0l0 -858c0,-353 288,-640 640,-640zm827 2560l293 0c88,0 160,-72 160,-160l0 0 640 0 0 160c0,353 -287,640 -640,640l-827 0 187 -187c125,-125 187,-289 187,-453z"/>
	<path id="curve1" fill="#252525" d="M5440 2560c530,0 960,430 960,960 0,246 -92,470 -245,640 126,141 212,319 237,515l-1085 1085 -1307 0c-88,0 -160,-72 -160,-160l0 -2880c0,-88 72,-160 160,-160l1440 0zm-960 1920l0 640 960 0c176,0 320,-144 320,-320 0,-176 -144,-320 -320,-320l-960 0zm0 -1280l0 640 960 0c176,0 320,-144 320,-320 0,-176 -144,-320 -320,-320l-960 0z"/>
	<path id="curve0" fill="#252525" d="M1294 4481l1252 0c-40,-444 -164,-874 -347,-1280l-558 0c-183,406 -307,836 -347,1280zm1266 640l-1280 0 0 640 -640 0 0 -960c0,-726 192,-1415 515,-2062 56,-112 168,-176 285,-176l960 0c117,0 229,64 285,176 323,647 515,1336 515,2062l0 960 -640 0 0 -640z"/>
</svg>
