<?xml version="1.0" encoding="UTF-8" ?>
<!DOCTYPE svg PUBLIC "-//W3C//DTD SVG 1.1//EN" "http://www.w3.org/Graphics/SVG/1.1/DTD/svg11.dtd">
<svg width="256pt" height="256pt" viewBox="0 0 256 256" version="1.1" xmlns="http://www.w3.org/2000/svg">
<title>window_stack_hor icon</title>
<desc>icon from the IconExperience.com V-Collection. Copyright by INCORS GmbH (www.incors.com). Vectorized using Vector Magic.</desc>
<g id="#010101ff">
<path fill="#010101" stroke="#010101" stroke-width="0.09375" opacity="1.00" d=" M 29.11 32.26 C 32.06 31.85 35.04 32.00 38.01 31.99 C 100.03 32.02 162.06 31.97 224.09 32.02 C 230.49 31.94 236.62 36.19 238.88 42.15 C 240.22 45.26 239.98 48.71 240.02 52.01 C 239.95 106.74 240.07 161.47 239.96 216.19 C 240.06 220.81 235.54 224.51 231.05 224.01 C 162.34 223.99 93.63 224.00 24.93 224.00 C 21.04 224.38 17.07 221.78 16.24 217.90 C 15.83 215.30 16.01 212.65 15.99 210.03 C 16.02 156.00 15.97 101.97 16.02 47.95 C 15.87 40.46 21.74 33.49 29.11 32.26 M 32.00 80.00 C 32.00 122.67 32.00 165.33 32.00 208.00 C 49.67 208.00 67.33 208.00 85.00 208.00 C 85.00 165.33 85.00 122.67 85.00 80.00 C 67.33 80.00 49.67 80.00 32.00 80.00 M 101.00 80.00 C 101.00 122.67 101.00 165.33 101.00 208.00 C 119.00 208.00 137.00 208.00 155.00 208.00 C 155.00 165.33 155.00 122.67 155.00 80.00 C 137.00 80.00 119.00 80.00 101.00 80.00 M 171.00 80.00 C 171.00 122.67 171.00 165.33 171.00 208.00 C 188.67 208.00 206.33 208.00 224.00 208.00 C 224.00 165.33 224.00 122.67 224.00 80.00 C 206.33 80.00 188.67 80.00 171.00 80.00 Z" />
</g>
</svg>
