<?xml version="1.0" encoding="UTF-8" ?>
<!DOCTYPE svg PUBLIC "-//W3C//DTD SVG 1.1//EN" "http://www.w3.org/Graphics/SVG/1.1/DTD/svg11.dtd">
<svg width="256pt" height="256pt" viewBox="0 0 256 256" version="1.1" xmlns="http://www.w3.org/2000/svg">
<title>window_stack_ver icon</title>
<desc>icon from the IconExperience.com V-Collection. Copyright by INCORS GmbH (www.incors.com). Vectorized using Vector Magic.</desc>
<g id="#010101ff">
<path fill="#010101" stroke="#010101" stroke-width="0.09375" opacity="1.00" d=" M 29.11 32.26 C 32.06 31.85 35.04 32.00 38.01 31.99 C 100.04 32.02 162.07 31.97 224.10 32.02 C 232.60 31.82 240.22 39.49 239.98 47.99 C 240.03 103.66 239.98 159.34 240.01 215.02 C 240.39 218.91 237.81 222.90 233.93 223.76 C 231.31 224.17 228.65 223.99 226.02 224.01 C 158.66 223.96 91.30 224.06 23.94 223.96 C 19.29 224.13 15.49 219.62 16.00 215.08 C 16.02 159.37 15.97 103.65 16.02 47.95 C 15.87 40.46 21.74 33.49 29.11 32.26 M 32.00 80.00 C 32.00 90.33 32.00 100.67 32.00 111.00 C 96.00 111.00 160.00 111.00 224.00 111.00 C 224.00 100.67 224.00 90.33 224.00 80.00 C 160.00 80.00 96.00 80.00 32.00 80.00 M 32.00 125.00 C 32.00 136.33 32.00 147.67 32.00 159.00 C 96.00 159.00 160.00 159.00 224.00 159.00 C 224.00 147.67 224.00 136.33 224.00 125.00 C 160.00 125.00 96.00 125.00 32.00 125.00 M 32.00 175.00 C 32.00 186.00 32.00 197.00 32.00 208.00 C 96.00 208.00 160.00 208.00 224.00 208.00 C 224.00 197.00 224.00 186.00 224.00 175.00 C 160.00 175.00 96.00 175.00 32.00 175.00 Z" />
</g>
</svg>
