<?xml version="1.0" encoding="UTF-8"?>
<!DOCTYPE svg PUBLIC "-//W3C//DTD SVG 1.1//EN" "http://www.w3.org/Graphics/SVG/1.1/DTD/svg11.dtd">
<svg xmlns="http://www.w3.org/2000/svg" xml:space="preserve" width="1024px" height="1024px" shape-rendering="geometricPrecision" text-rendering="geometricPrecision" image-rendering="optimizeQuality" fill-rule="nonzero" clip-rule="evenodd" viewBox="0 0 10240 10240" xmlns:xlink="http://www.w3.org/1999/xlink">
	<title>lifebelt icon</title>
	<desc>lifebelt icon from the IconExperience.com O-Collection. Copyright by INCORS GmbH (www.incors.com).</desc>
	<path id="curve0" fill="#252525" d="M5120 640c2474,0 4480,2006 4480,4480 0,2474 -2006,4480 -4480,4480 -2474,0 -4480,-2006 -4480,-4480 0,-2474 2006,-4480 4480,-4480zm980 2114l490 -1182c-933,-387 -2007,-387 -2940,0l490 1182c622,-257 1338,-258 1960,0zm1386 1386c257,622 257,1338 0,1960l1182 490c387,-933 387,-2007 0,-2940l-1182 490zm-1386 3346c-622,257 -1338,257 -1960,0l-490 1182c933,387 2007,387 2940,0l-490 -1182zm-3346 -1386c-257,-622 -258,-1338 0,-1960l-1182 -490c-387,933 -387,2007 0,2940l1182 -490zm2366 -2900c-1060,0 -1920,860 -1920,1920 0,1060 860,1920 1920,1920 1060,0 1920,-860 1920,-1920 0,-1060 -860,-1920 -1920,-1920z"/>
</svg>
