<?xml version="1.0" encoding="UTF-8"?>
<!DOCTYPE svg PUBLIC "-//W3C//DTD SVG 1.1//EN" "http://www.w3.org/Graphics/SVG/1.1/DTD/svg11.dtd">
<svg xmlns="http://www.w3.org/2000/svg" xml:space="preserve" width="1024px" height="1024px" shape-rendering="geometricPrecision" text-rendering="geometricPrecision" image-rendering="optimizeQuality" fill-rule="nonzero" clip-rule="evenodd" viewBox="0 0 10240 10240" xmlns:xlink="http://www.w3.org/1999/xlink">
	<title>tab_pane icon</title>
	<desc>tab_pane icon from the IconExperience.com O-Collection. Copyright by INCORS GmbH (www.incors.com).</desc>
	<path id="curve2" fill="#252525" d="M6795 1280l885 0c353,0 640,288 640,640l0 960 -1280 0 0 -960c0,-246 -93,-470 -245,-640z"/>
	<path id="curve1" fill="#252525" d="M5195 1280l885 0c353,0 640,288 640,640l0 960 -1280 0 0 -960c0,-246 -93,-470 -245,-640z"/>
	<path id="curve0" fill="#3E9BD5" d="M1920 1280l2560 0c353,0 640,288 640,640l0 1280 3520 0c176,0 320,144 320,320l0 5120c0,176 -144,320 -320,320l-7040 0c-176,0 -320,-144 -320,-320l0 -6720c0,-353 287,-640 640,-640zm0 2560l0 4480 6400 0 0 -4480 -6400 0z"/>
</svg>
