<?xml version="1.0" encoding="UTF-8" ?>
<!DOCTYPE svg PUBLIC "-//W3C//DTD SVG 1.1//EN" "http://www.w3.org/Graphics/SVG/1.1/DTD/svg11.dtd">
<svg width="256pt" height="256pt" viewBox="0 0 256 256" version="1.1" xmlns="http://www.w3.org/2000/svg">
<title>tabs_to_spaces icon</title>
<desc>icon from the IconExperience.com V-Collection. Copyright by INCORS GmbH (www.incors.com). Vectorized using Vector Magic.</desc>
<g id="#252525ff">
<path fill="#252525" stroke="#252525" stroke-width="0.09375" opacity="1.00" d=" M 74.26 23.13 C 77.19 19.93 82.73 19.90 85.69 23.08 C 100.92 38.28 116.13 53.51 131.35 68.73 C 134.32 71.63 136.05 75.73 135.99 79.89 C 135.99 89.62 136.05 99.35 135.96 109.08 C 136.16 112.41 131.48 114.35 129.27 111.84 C 118.13 100.84 107.11 89.69 96.01 78.64 C 95.99 124.15 96.00 169.66 96.01 215.18 C 96.31 218.76 94.10 222.40 90.65 223.55 C 86.51 224.50 82.19 223.79 77.98 224.00 C 74.47 223.81 70.49 224.75 67.42 222.56 C 65.01 220.94 63.81 218.00 63.99 215.15 C 64.00 169.65 64.01 124.14 63.99 78.64 C 52.89 89.68 41.88 100.83 30.74 111.83 C 28.55 114.34 23.86 112.43 24.04 109.10 C 23.95 99.36 24.01 89.61 24.01 79.87 C 23.95 75.70 25.70 71.61 28.68 68.70 C 43.87 53.51 59.05 38.31 74.26 23.13 Z" />
<path fill="#252525" stroke="#252525" stroke-width="0.09375" opacity="1.00" d=" M 187.78 42.79 C 202.76 40.24 218.19 51.43 220.90 66.28 C 224.47 81.61 213.11 98.13 197.75 100.89 C 182.39 104.51 165.90 93.11 163.10 77.76 C 159.36 61.83 171.72 44.88 187.78 42.79 M 171.74 69.66 C 174.21 73.36 179.93 72.19 181.54 68.29 C 182.27 64.23 178.76 60.59 174.66 61.40 C 171.57 62.93 170.24 66.51 171.74 69.66 Z" />
<path fill="#252525" stroke="#252525" stroke-width="0.09375" opacity="1.00" d=" M 192.18 156.22 C 196.13 155.98 200.11 156.08 204.07 156.12 C 206.65 156.05 208.60 157.97 210.30 159.67 C 214.61 164.06 219.00 168.38 223.34 172.75 C 225.08 174.17 225.43 177.06 223.71 178.64 C 219.44 183.07 215.00 187.33 210.70 191.73 C 208.98 193.37 207.26 195.48 204.70 195.67 C 201.11 195.97 197.50 195.81 193.91 195.88 C 192.36 196.21 191.16 195.28 190.45 193.98 C 193.22 190.25 196.89 187.33 200.02 183.91 C 182.74 183.93 165.46 183.94 148.18 183.91 C 148.20 178.64 148.20 173.36 148.18 168.09 C 165.45 168.05 182.72 168.08 199.99 168.08 C 196.88 164.67 193.27 161.74 190.45 158.07 C 190.89 157.61 191.75 156.69 192.18 156.22 Z" />
</g>
<g id="#3e9bd5ff">
<path fill="#3e9bd5" stroke="#3e9bd5" stroke-width="0.09375" opacity="1.00" d=" M 227.87 136.17 C 233.19 136.17 238.51 136.15 243.83 136.19 C 243.79 162.73 243.79 189.27 243.83 215.81 C 238.51 215.85 233.19 215.83 227.87 215.83 C 227.86 189.27 227.86 162.72 227.87 136.17 Z" />
</g>
</svg>
