<?xml version="1.0" encoding="UTF-8"?>
<!DOCTYPE svg PUBLIC "-//W3C//DTD SVG 1.1//EN" "http://www.w3.org/Graphics/SVG/1.1/DTD/svg11.dtd">
<svg xmlns="http://www.w3.org/2000/svg" xml:space="preserve" width="1024px" height="1024px" shape-rendering="geometricPrecision" text-rendering="geometricPrecision" image-rendering="optimizeQuality" fill-rule="nonzero" clip-rule="evenodd" viewBox="0 0 10240 10240" xmlns:xlink="http://www.w3.org/1999/xlink">
	<title>message icon</title>
	<desc>message icon from the IconExperience.com O-Collection. Copyright by INCORS GmbH (www.incors.com).</desc>
	<path id="curve1" fill="#252525" d="M5120 640c2474,0 4480,1576 4480,3520 0,911 -440,1740 -1162,2365 -108,93 -174,203 -206,341 -318,1393 -1486,2414 -3112,2414 213,-213 354,-475 449,-761 66,-198 37,-398 -84,-569 -120,-172 -298,-267 -507,-272 -2409,-59 -4338,-1611 -4338,-3518 0,-1944 2006,-3520 4480,-3520zm1119 7774c681,-300 1186,-886 1370,-1690 62,-271 200,-501 410,-683 556,-481 941,-1132 941,-1881 0,-217 -32,-431 -96,-638 -205,-670 -708,-1206 -1291,-1572 -727,-456 -1599,-670 -2453,-670 -854,0 -1726,214 -2453,670 -583,366 -1086,902 -1291,1572 -64,207 -96,421 -96,638 0,217 33,431 96,638 452,1477 2191,2205 3617,2240 412,11 779,206 1016,544 175,248 253,539 230,832z"/>
	<path id="curve0" fill="#3E9BD5" d="M3200 2560l3840 0 0 640 -3840 0 0 -640zm0 2560l3840 0 0 640 -3840 0 0 -640zm0 -1280l3840 0 0 640 -3840 0 0 -640z"/>


<g comp-op="clear">
<g transform="translate(5120,5120) scale(0.5,0.5)"  stroke="#808080" stroke-width="512" stroke-linejoin="round">
	<title>plus icon</title>
	<desc>plus icon from the IconExperience.com O-Collection. Copyright by INCORS GmbH (www.incors.com).</desc>
	<path id="curve0" fill="#3E9BD5" d="M960 3840l2880 0 0 -2880c0,-176 144,-320 320,-320l1920 0c176,0 320,144 320,320l0 2880 2880 0c176,0 320,144 320,320l0 1920c0,176 -144,320 -320,320l-2880 0 0 2880c0,176 -144,320 -320,320l-1920 0c-176,0 -320,-144 -320,-320l0 -2880 -2880 0c-176,0 -320,-144 -320,-320l0 -1920c0,-176 144,-320 320,-320z"/>
</g>
</g>



<g transform="translate(5120,5120) scale(0.5,0.5)">
	<title>plus icon</title>
	<desc>plus icon from the IconExperience.com O-Collection. Copyright by INCORS GmbH (www.incors.com).</desc>
	<path id="curve0" fill="#3E9BD5" d="M960 3840l2880 0 0 -2880c0,-176 144,-320 320,-320l1920 0c176,0 320,144 320,320l0 2880 2880 0c176,0 320,144 320,320l0 1920c0,176 -144,320 -320,320l-2880 0 0 2880c0,176 -144,320 -320,320l-1920 0c-176,0 -320,-144 -320,-320l0 -2880 -2880 0c-176,0 -320,-144 -320,-320l0 -1920c0,-176 144,-320 320,-320z"/>
</g>

</svg>
