<?xml version="1.0" encoding="UTF-8"?>
<!DOCTYPE svg PUBLIC "-//W3C//DTD SVG 1.1//EN" "http://www.w3.org/Graphics/SVG/1.1/DTD/svg11.dtd">
<svg xmlns="http://www.w3.org/2000/svg" xml:space="preserve" width="1024px" height="1024px" shape-rendering="geometricPrecision" text-rendering="geometricPrecision" image-rendering="optimizeQuality" fill-rule="nonzero" clip-rule="evenodd" viewBox="0 0 10240 10240" xmlns:xlink="http://www.w3.org/1999/xlink">
	<title>book icon</title>
	<desc>book icon from the IconExperience.com O-Collection. Copyright by INCORS GmbH (www.incors.com).</desc>
	<path id="curve0" fill="#252525" d="M8320 9600c353,0 640,-287 640,-640 0,-1920 0,-3840 0,-5760 0,-353 -287,-640 -640,-640l0 0c-1921,2 -3844,0 -5760,0 -353,0 -640,-287 -640,-640 0,-353 287,-640 640,-640l5440 0c177,0 320,143 320,320l0 640 0 0c237,0 463,86 640,245l0 -1205c0,-362 -287,-645 -640,-640 -1920,0 -3840,0 -5760,0 -707,0 -1280,573 -1280,1280l0 6400c0,707 573,1280 1280,1280l5760 0zm-5440 -6080c176,0 320,144 320,320l0 4800c0,176 -144,320 -320,320 -176,0 -320,-144 -320,-320l0 -4800c0,-176 144,-320 320,-320z"/>
</svg>
