<?xml version="1.0" encoding="UTF-8"?>
<!DOCTYPE svg PUBLIC "-//W3C//DTD SVG 1.1//EN" "http://www.w3.org/Graphics/SVG/1.1/DTD/svg11.dtd">
<svg xmlns="http://www.w3.org/2000/svg" xml:space="preserve" width="1024px" height="1024px" shape-rendering="geometricPrecision" text-rendering="geometricPrecision" image-rendering="optimizeQuality" fill-rule="nonzero" clip-rule="evenodd" viewBox="0 0 10240 10240" xmlns:xlink="http://www.w3.org/1999/xlink">
	<title>book icon</title>
	<desc>book icon from the IconExperience.com O-Collection. Copyright by INCORS GmbH (www.incors.com).</desc>
	<path id="curve0" fill="#252525" d="M8320 9600c353,0 640,-287 640,-640 0,-1920 0,-3840 0,-5760 0,-353 -287,-640 -640,-640l0 0c-1921,2 -3844,0 -5760,0 -353,0 -640,-287 -640,-640 0,-353 287,-640 640,-640l5440 0c177,0 320,143 320,320l0 640 0 0c237,0 463,86 640,245l0 -1205c0,-362 -287,-645 -640,-640 -1920,0 -3840,0 -5760,0 -707,0 -1280,573 -1280,1280l0 6400c0,707 573,1280 1280,1280l5760 0zm-5440 -6080c176,0 320,144 320,320l0 4800c0,176 -144,320 -320,320 -176,0 -320,-144 -320,-320l0 -4800c0,-176 144,-320 320,-320z"/>


<g comp-op="clear">
<g transform="translate(5120,5120) scale(0.5,0.5)"  stroke="#808080" stroke-width="512" stroke-linejoin="round">
	<title>binocular icon</title>
	<desc>binocular icon from the IconExperience.com O-Collection. Copyright by INCORS GmbH (www.incors.com).</desc>
	<path id="curve1" fill="#3E9BD5" d="M2720 5440c619,0 1120,501 1120,1120 0,619 -501,1120 -1120,1120 -619,0 -1120,-501 -1120,-1120 0,-135 24,-264 70,-390 84,138 236,230 410,230 265,0 480,-215 480,-480 0,-174 -92,-326 -230,-410 126,-46 256,-70 390,-70zm4800 0c619,0 1120,501 1120,1120 0,619 -501,1120 -1120,1120 -619,0 -1120,-501 -1120,-1120 0,-135 24,-264 70,-390 84,138 236,230 410,230 265,0 480,-215 480,-480 0,-174 -92,-326 -230,-410 127,-47 254,-70 390,-70z"/>
	<path id="curve0" fill="#252525" d="M3360 1920c424,0 793,236 983,583 215,-165 485,-263 777,-263 292,0 562,98 777,263 190,-347 559,-583 983,-583 420,0 806,221 978,574 510,1050 1060,2119 1543,3177 127,270 199,571 199,889 0,1149 -931,2080 -2080,2080 -1114,0 -2023,-875 -2077,-1976 -101,36 -210,56 -323,56 -113,0 -222,-20 -323,-56 -54,1101 -963,1976 -2077,1976 -1149,0 -2080,-931 -2080,-2080 0,-318 72,-619 199,-889 483,-1059 1033,-2127 1543,-3177 172,-353 558,-574 978,-574zm-640 3200c-795,0 -1440,645 -1440,1440 0,795 645,1440 1440,1440 795,0 1440,-645 1440,-1440 0,-795 -645,-1440 -1440,-1440zm4800 0c-795,0 -1440,645 -1440,1440 0,795 645,1440 1440,1440 795,0 1440,-645 1440,-1440 0,-795 -645,-1440 -1440,-1440z"/>
</g>
</g>



<g transform="translate(5120,5120) scale(0.5,0.5)">
	<title>binocular icon</title>
	<desc>binocular icon from the IconExperience.com O-Collection. Copyright by INCORS GmbH (www.incors.com).</desc>
	<path id="curve1" fill="#3E9BD5" d="M2720 5440c619,0 1120,501 1120,1120 0,619 -501,1120 -1120,1120 -619,0 -1120,-501 -1120,-1120 0,-135 24,-264 70,-390 84,138 236,230 410,230 265,0 480,-215 480,-480 0,-174 -92,-326 -230,-410 126,-46 256,-70 390,-70zm4800 0c619,0 1120,501 1120,1120 0,619 -501,1120 -1120,1120 -619,0 -1120,-501 -1120,-1120 0,-135 24,-264 70,-390 84,138 236,230 410,230 265,0 480,-215 480,-480 0,-174 -92,-326 -230,-410 127,-47 254,-70 390,-70z"/>
	<path id="curve0" fill="#252525" d="M3360 1920c424,0 793,236 983,583 215,-165 485,-263 777,-263 292,0 562,98 777,263 190,-347 559,-583 983,-583 420,0 806,221 978,574 510,1050 1060,2119 1543,3177 127,270 199,571 199,889 0,1149 -931,2080 -2080,2080 -1114,0 -2023,-875 -2077,-1976 -101,36 -210,56 -323,56 -113,0 -222,-20 -323,-56 -54,1101 -963,1976 -2077,1976 -1149,0 -2080,-931 -2080,-2080 0,-318 72,-619 199,-889 483,-1059 1033,-2127 1543,-3177 172,-353 558,-574 978,-574zm-640 3200c-795,0 -1440,645 -1440,1440 0,795 645,1440 1440,1440 795,0 1440,-645 1440,-1440 0,-795 -645,-1440 -1440,-1440zm4800 0c-795,0 -1440,645 -1440,1440 0,795 645,1440 1440,1440 795,0 1440,-645 1440,-1440 0,-795 -645,-1440 -1440,-1440z"/>
</g>

</svg>
