<?xml version="1.0" encoding="UTF-8"?>
<!DOCTYPE svg PUBLIC "-//W3C//DTD SVG 1.1//EN" "http://www.w3.org/Graphics/SVG/1.1/DTD/svg11.dtd">
<svg xmlns="http://www.w3.org/2000/svg" xml:space="preserve" width="1024px" height="1024px" shape-rendering="geometricPrecision" text-rendering="geometricPrecision" image-rendering="optimizeQuality" fill-rule="nonzero" clip-rule="evenodd" viewBox="0 0 10240 10240" xmlns:xlink="http://www.w3.org/1999/xlink">
	<title>band_aid icon</title>
	<desc>band_aid icon from the IconExperience.com O-Collection. Copyright by INCORS GmbH (www.incors.com).</desc>
	<path id="curve1" fill="#252525" d="M7835 1500l905 905c250,249 250,656 0,905l-1584 1584 -1810 -1810 1584 -1584c249,-250 656,-250 905,0zm-2941 5656l-1584 1584c-249,250 -656,250 -905,0l-905 -905c-250,-249 -250,-656 0,-905l1584 -1584 1810 1810z"/>
	<path id="curve0" fill="#252525" d="M3310 1500l5430 5430c250,249 250,656 0,905l-905 905c-249,250 -656,250 -905,0l-5430 -5430c-250,-249 -250,-656 0,-905l905 -905c249,-250 656,-250 905,0zm2484 3860c-122,-123 -321,-123 -443,0 -123,122 -123,321 0,443 122,123 321,123 443,0 123,-122 123,-321 0,-443zm897 -9c-123,-123 -322,-123 -444,0 -123,122 -123,321 0,443 122,123 321,123 444,0 122,-122 122,-321 0,-443zm-1793 -1811c-122,-122 -321,-122 -444,0 -122,123 -122,322 0,444 123,123 322,123 444,0 123,-122 123,-321 0,-444zm-3 1808c-124,-124 -325,-124 -449,0 -124,124 -124,325 0,449 124,124 325,124 449,0 124,-124 124,-325 0,-449zm-906 -907c-125,-125 -328,-125 -453,0 -125,125 -125,328 0,453 125,125 328,125 453,0 125,-125 125,-328 0,-453zm905 0c-125,-125 -328,-125 -453,0 -125,125 -125,328 0,453 125,125 328,125 453,0 125,-125 125,-328 0,-453zm892 1815c-123,-123 -322,-123 -444,0 -123,122 -123,321 0,443 122,123 321,123 444,0 122,-122 122,-321 0,-443zm13 -1815c-125,-125 -328,-125 -453,0 -125,125 -125,328 0,453 125,125 328,125 453,0 125,-125 125,-328 0,-453z"/>
</svg>
