<?xml version="1.0" encoding="UTF-8"?>
<!DOCTYPE svg PUBLIC "-//W3C//DTD SVG 1.1//EN" "http://www.w3.org/Graphics/SVG/1.1/DTD/svg11.dtd">
<svg xmlns="http://www.w3.org/2000/svg" xml:space="preserve" width="1024px" height="1024px" shape-rendering="geometricPrecision" text-rendering="geometricPrecision" image-rendering="optimizeQuality" fill-rule="nonzero" clip-rule="evenodd" viewBox="0 0 10240 10240" xmlns:xlink="http://www.w3.org/1999/xlink">
	<title>selection icon</title>
	<desc>selection icon from the IconExperience.com O-Collection. Copyright by INCORS GmbH (www.incors.com).</desc>
	<path id="curve0" fill="#252525" d="M1280 1280l640 0 0 640 -640 0 0 -640zm7040 0l640 0 0 640 -640 0 0 -640zm0 7040l640 0 0 640 -640 0 0 -640zm-1920 640l1280 0 0 -640 -1280 0 0 640zm-1920 0l1280 0 0 -640 -1280 0 0 640zm-1920 0l1280 0 0 -640 -1280 0 0 640zm-1280 -640l640 0 0 640 -640 0 0 -640zm5120 -6400l1280 0 0 -640 -1280 0 0 640zm-1920 0l1280 0 0 -640 -1280 0 0 640zm3840 2560l640 0 0 1280 -640 0 0 -1280zm0 -1920l640 0 0 1280 -640 0 0 -1280zm0 3840l640 0 0 1280 -640 0 0 -1280zm-7040 -1920l640 0 0 1280 -640 0 0 -1280zm1280 -2560l1280 0 0 -640 -1280 0 0 640zm-1280 640l640 0 0 1280 -640 0 0 -1280zm0 3840l640 0 0 1280 -640 0 0 -1280z"/>


<g comp-op="clear">
<g transform="translate(1706,1706) scale(0.66,0.66)"  stroke="#808080" stroke-width="512" stroke-linejoin="round">

<g transform="translate(0,10240) rotate(-90)">
	<title>arrow_barrier icon</title>
	<desc>arrow_barrier icon from the IconExperience.com O-Collection. Copyright by INCORS GmbH (www.incors.com).</desc>
	<path id="curve1" fill="#252525" d="M6539 4082l-1186 -1186c-124,-124 -328,-124 -452,0l-1187 1186c-124,125 -186,277 -187,453l-7 839c-1,65 38,122 99,147 61,26 127,12 174,-34l687 -687 0 4160 1280 0 0 -4160 687 687c47,46 113,60 174,34 61,-25 98,-81 99,-147l7 -839c1,-176 -63,-328 -188,-453z"/>
	<path id="curve0" fill="#3E9BD5" d="M1920,1280 8320,1280 8320,2560 1920,2560z"/>
</g>

</g>
</g>



<g transform="translate(1706,1706) scale(0.66,0.66)">

<g transform="translate(0,10240) rotate(-90)">
	<title>arrow_barrier icon</title>
	<desc>arrow_barrier icon from the IconExperience.com O-Collection. Copyright by INCORS GmbH (www.incors.com).</desc>
	<path id="curve1" fill="#252525" d="M6539 4082l-1186 -1186c-124,-124 -328,-124 -452,0l-1187 1186c-124,125 -186,277 -187,453l-7 839c-1,65 38,122 99,147 61,26 127,12 174,-34l687 -687 0 4160 1280 0 0 -4160 687 687c47,46 113,60 174,34 61,-25 98,-81 99,-147l7 -839c1,-176 -63,-328 -188,-453z"/>
	<path id="curve0" fill="#3E9BD5" d="M1920,1280 8320,1280 8320,2560 1920,2560z"/>
</g>

</g>

</svg>
