<?xml version="1.0" encoding="UTF-8" ?>
<!DOCTYPE svg PUBLIC "-//W3C//DTD SVG 1.1//EN" "http://www.w3.org/Graphics/SVG/1.1/DTD/svg11.dtd">
<svg width="256pt" height="256pt" viewBox="0 0 256 256" version="1.1" xmlns="http://www.w3.org/2000/svg">
<title>upcase icon</title>
<desc>icon from the IconExperience.com V-Collection. Copyright by INCORS GmbH (www.incors.com). Vectorized using Vector Magic.</desc>
<g id="#252525ff">
<path fill="#252525" stroke="#252525" stroke-width="0.09375" opacity="1.00" d=" M 74.21 23.21 C 77.19 19.92 82.75 19.89 85.75 23.17 C 100.83 38.13 115.79 53.22 130.85 68.20 C 134.06 71.25 136.11 75.52 135.98 80.00 C 135.98 89.69 136.11 99.38 135.92 109.06 C 136.14 111.82 132.72 113.98 130.36 112.55 C 128.02 111.00 126.20 108.81 124.21 106.86 C 114.83 97.43 105.42 88.04 96.01 78.65 C 95.99 124.09 96.01 169.54 96.00 214.98 C 96.42 219.14 93.44 223.49 89.14 223.85 C 83.41 224.17 77.65 224.03 71.91 223.95 C 68.11 224.04 64.50 220.97 64.15 217.15 C 63.81 213.44 64.04 209.70 64.00 205.98 C 64.00 163.54 64.01 121.10 63.99 78.66 C 53.40 89.20 42.83 99.77 32.30 110.37 C 31.29 111.31 30.28 112.31 29.01 112.88 C 26.64 113.53 23.92 111.61 24.08 109.08 C 23.88 99.39 24.02 89.70 24.02 80.01 C 23.89 75.52 25.94 71.26 29.16 68.20 C 44.20 53.23 59.15 38.16 74.21 23.21 Z" />
</g>
<g id="#449ed6ff">
<path fill="#449ed6" stroke="#449ed6" stroke-width="0.09375" opacity="1.00" d=" M 172.80 52.64 C 174.06 49.92 176.89 48.00 179.93 48.08 C 187.98 48.00 196.04 48.00 204.10 48.08 C 207.14 48.01 209.95 49.94 211.22 52.66 C 218.59 67.33 223.30 83.48 223.90 99.94 C 224.10 109.29 223.94 118.64 223.99 128.00 C 218.66 127.99 213.33 127.99 208.00 128.00 C 208.01 122.66 208.01 117.33 208.01 111.99 C 197.34 111.99 186.66 111.99 175.99 111.99 C 175.99 117.33 175.99 122.66 176.00 128.00 C 170.66 127.99 165.33 127.99 160.00 128.00 C 160.02 119.65 159.98 111.30 160.02 102.95 C 160.15 85.46 164.96 68.21 172.80 52.64 M 184.99 63.99 C 180.47 74.14 177.38 84.94 176.32 96.01 C 186.77 96.01 197.23 96.01 207.68 96.01 C 206.62 84.94 203.53 74.13 199.01 63.99 C 194.33 63.99 189.66 63.99 184.99 63.99 Z" />
<path fill="#449ed6" stroke="#449ed6" stroke-width="0.09375" opacity="1.00" d=" M 185.23 147.77 C 187.67 146.62 190.41 147.07 193.01 146.97 C 195.91 147.09 198.94 146.59 201.70 147.70 C 203.31 147.96 204.93 148.17 206.51 148.59 C 207.48 148.91 208.45 149.25 209.42 149.60 C 212.36 151.52 215.61 153.28 217.38 156.45 C 217.61 156.97 218.06 158.01 218.29 158.53 C 219.52 160.59 220.18 162.88 220.28 165.28 C 220.94 166.77 221.03 168.39 221.02 169.99 C 220.98 185.94 221.01 201.90 221.00 217.85 C 216.26 219.61 210.73 219.61 206.00 217.84 C 206.00 215.80 206.00 213.75 206.00 211.71 C 203.26 213.23 201.10 215.53 198.56 217.33 C 197.15 217.96 195.77 218.64 194.38 219.32 C 193.43 219.71 192.48 220.09 191.52 220.46 C 187.56 221.28 183.30 221.42 179.38 220.37 C 178.07 220.04 176.77 219.74 175.48 219.35 C 174.48 219.05 173.48 218.73 172.49 218.41 C 170.74 217.17 169.14 215.72 167.34 214.57 C 166.29 212.91 165.19 211.30 164.18 209.62 C 163.62 208.25 163.06 206.89 162.54 205.51 C 161.68 201.59 161.67 197.41 162.54 193.50 C 163.06 192.10 163.62 190.72 164.16 189.34 C 166.13 185.34 169.92 182.87 173.58 180.58 C 174.54 180.26 175.51 179.95 176.49 179.65 C 177.77 179.25 179.08 178.94 180.39 178.62 C 182.28 178.05 184.27 177.97 186.23 177.77 C 191.61 176.10 197.43 177.40 202.99 177.00 C 202.95 173.10 203.61 168.95 201.39 165.48 C 200.62 164.37 199.78 163.32 198.93 162.29 C 197.66 161.97 196.42 161.57 195.20 161.10 C 192.08 160.96 188.95 160.95 185.82 161.12 C 184.45 161.70 182.98 161.98 181.53 162.28 C 179.79 162.91 178.06 163.53 176.37 164.27 C 175.14 164.78 173.88 165.21 172.66 165.73 C 171.32 166.29 170.04 167.20 168.52 167.06 C 167.77 166.22 167.05 165.36 166.38 164.46 C 165.81 161.50 165.86 158.45 166.35 155.48 C 167.42 154.09 168.80 153.00 170.36 152.20 C 171.47 151.70 172.56 151.17 173.65 150.64 C 174.59 150.31 175.54 149.99 176.49 149.70 C 177.48 149.30 178.48 148.91 179.48 148.54 C 181.37 148.08 183.31 147.97 185.23 147.77 M 190.81 189.12 C 189.08 189.83 187.24 190.11 185.45 190.56 C 183.45 191.90 181.77 193.64 180.37 195.58 C 179.81 198.29 179.66 201.19 181.22 203.61 C 181.49 204.13 182.03 205.18 182.30 205.70 C 182.82 205.97 183.87 206.52 184.39 206.79 C 186.76 208.27 189.54 208.08 192.21 207.93 C 193.32 207.46 194.45 207.06 195.60 206.71 C 198.29 204.94 200.77 202.91 203.01 200.60 C 202.99 196.73 203.00 192.87 203.00 189.00 C 198.93 189.02 194.87 188.92 190.81 189.12 Z" />
</g>
</svg>
