<?xml version="1.0" encoding="UTF-8"?>
<!DOCTYPE svg PUBLIC "-//W3C//DTD SVG 1.1//EN" "http://www.w3.org/Graphics/SVG/1.1/DTD/svg11.dtd">
<svg xmlns="http://www.w3.org/2000/svg" xml:space="preserve" width="1024px" height="1024px" shape-rendering="geometricPrecision" text-rendering="geometricPrecision" image-rendering="optimizeQuality" fill-rule="nonzero" clip-rule="evenodd" viewBox="0 0 10240 10240" xmlns:xlink="http://www.w3.org/1999/xlink">
	<title>stairs_down icon</title>
	<desc>stairs_down icon from the IconExperience.com O-Collection. Copyright by INCORS GmbH (www.incors.com).</desc>
	<path id="curve1" fill="#252525" d="M7360 3200l2240 0 0 1280 -1280 0 0 1920 -1920 0 0 1920 -1920 0 0 1280 -1280 0 0 -2240c0,-176 144,-320 320,-320l1600 0 0 -1600c0,-176 144,-320 320,-320l1600 0 0 -1600c0,-176 144,-320 320,-320z"/>
	<path id="curve0" fill="#3E9BD5" d="M640 6080l0 -2263c0,-88 31,-164 94,-226l776 -777c70,-70 170,-90 262,-52 91,38 148,123 148,222l0 1231 1435 -1435c125,-125 328,-125 453,0l452 452c125,125 125,328 0,453l-1435 1435 1231 0c99,0 184,57 222,148 38,92 18,192 -52,262l-777 776c-62,63 -138,94 -226,94l-2263 0c-176,0 -320,-144 -320,-320z"/>
</svg>
