<?xml version="1.0" encoding="UTF-8"?>
<!DOCTYPE svg PUBLIC "-//W3C//DTD SVG 1.1//EN" "http://www.w3.org/Graphics/SVG/1.1/DTD/svg11.dtd">
<svg xmlns="http://www.w3.org/2000/svg" xml:space="preserve" width="1024px" height="1024px" shape-rendering="geometricPrecision" text-rendering="geometricPrecision" image-rendering="optimizeQuality" fill-rule="nonzero" clip-rule="evenodd" viewBox="0 0 10240 10240" xmlns:xlink="http://www.w3.org/1999/xlink">
	<title>element icon</title>
	<desc>element icon from the IconExperience.com O-Collection. Copyright by INCORS GmbH (www.incors.com).</desc>
	<rect fill="#3E9BD5" x="3000" y="3600" width="4400" height="3000"/>
	<path id="curve0" fill="#252525" d="M3200 3200l3840 0c353,0 640,288 640,640l0 2560c0,352 -288,640 -640,640l-3840 0c-353,0 -640,-287 -640,-640l0 -2560c0,-353 287,-640 640,-640zm0 640l0 2560 3840 0 0 -2560 -3840 0z"/>


<g comp-op="clear">
<g transform="translate(5120,5120) scale(0.5,0.5)"  stroke="#808080" stroke-width="512" stroke-linejoin="round">
	<title>clock icon</title>
	<desc>clock icon from the IconExperience.com O-Collection. Copyright by INCORS GmbH (www.incors.com).</desc>
    <circle fill="white" cx="5120" cy="5120" r="3600"/>
	<path id="curve1" fill="#3E9BD5" d="M3803 2203l1317 2277 0 0c116,0 226,31 320,85l1718 -994c129,170 238,355 321,554l-1719 995 0 0c0,353 -287,640 -640,640 -353,0 -640,-287 -640,-640 0,-116 31,-226 85,-320l-1316 -2276c172,-125 358,-233 554,-321z"/>
	<path id="curve0" fill="#252525" d="M5120 640c2474,0 4480,2006 4480,4480 0,2474 -2006,4480 -4480,4480 -2474,0 -4480,-2006 -4480,-4480 0,-2474 2006,-4480 4480,-4480zm0 960c-1944,0 -3520,1576 -3520,3520 0,1944 1576,3520 3520,3520 1944,0 3520,-1576 3520,-3520 0,-1944 -1576,-3520 -3520,-3520z"/>
</g>
</g>



<g transform="translate(5120,5120) scale(0.5,0.5)">
	<title>clock icon</title>
	<desc>clock icon from the IconExperience.com O-Collection. Copyright by INCORS GmbH (www.incors.com).</desc>
    <circle fill="white" cx="5120" cy="5120" r="3600"/>
	<path id="curve1" fill="#3E9BD5" d="M3803 2203l1317 2277 0 0c116,0 226,31 320,85l1718 -994c129,170 238,355 321,554l-1719 995 0 0c0,353 -287,640 -640,640 -353,0 -640,-287 -640,-640 0,-116 31,-226 85,-320l-1316 -2276c172,-125 358,-233 554,-321z"/>
	<path id="curve0" fill="#252525" d="M5120 640c2474,0 4480,2006 4480,4480 0,2474 -2006,4480 -4480,4480 -2474,0 -4480,-2006 -4480,-4480 0,-2474 2006,-4480 4480,-4480zm0 960c-1944,0 -3520,1576 -3520,3520 0,1944 1576,3520 3520,3520 1944,0 3520,-1576 3520,-3520 0,-1944 -1576,-3520 -3520,-3520z"/>
</g>

</svg>
