<?xml version="1.0" encoding="UTF-8"?>
<!DOCTYPE svg PUBLIC "-//W3C//DTD SVG 1.1//EN" "http://www.w3.org/Graphics/SVG/1.1/DTD/svg11.dtd">
<svg xmlns="http://www.w3.org/2000/svg" xml:space="preserve" width="1024px" height="1024px" shape-rendering="geometricPrecision" text-rendering="geometricPrecision" image-rendering="optimizeQuality" fill-rule="nonzero" clip-rule="evenodd" viewBox="0 0 10240 10240" xmlns:xlink="http://www.w3.org/1999/xlink">
	<title>cubes icon</title>
	<desc>cubes icon from the IconExperience.com O-Collection. Copyright by INCORS GmbH (www.incors.com).</desc>
	<path id="curve0" fill="#252525" d="M6863 4605l34 -17c93,-46 193,-46 286,0l1600 800c111,56 177,162 177,286l0 1845c0,124 -66,231 -177,286l-1600 800c-93,47 -193,47 -286,0l-1600 -800c-111,-55 -177,-162 -177,-286 -15,123 -66,231 -177,286l-1600 800c-93,47 -193,47 -286,0l-1600 -800c-111,-55 -177,-162 -177,-286l0 -1845c0,-124 66,-230 177,-286l1600 -800c93,-46 193,-46 286,0l34 17c-106,-66 -177,-162 -177,-286l0 -1845c0,-124 66,-230 177,-286l1600 -800c93,-46 193,-46 286,0l1600 800c111,56 177,162 177,286l0 1845c0,124 -73,219 -177,286zm-3343 -1990l0 1704 1440 720 0 -1704 -1440 -720zm1600 444l1384 -693 -1384 -692 -1384 692 1384 693zm-3520 2756l0 1704 1440 720 0 -1704 -1440 -720zm1600 444l1384 -693 -1384 -692 -1384 692 1384 693zm2240 -444l0 1704 1440 720 0 -1704 -1440 -720zm1600 444l1384 -693 -1384 -692 -1384 692 1384 693z"/>


<g comp-op="clear">
<g transform="translate(5120,5120) scale(0.5,0.5)"  stroke="#808080" stroke-width="512" stroke-linejoin="round">
	<title>refresh icon</title>
	<desc>refresh icon from the IconExperience.com O-Collection. Copyright by INCORS GmbH (www.incors.com).</desc>
	<path id="curve1" fill="#3E9BD5" d="M5305 9410l-1504 -1504c-125,-124 -125,-328 0,-452l1508 -1509c125,-124 277,-187 453,-187l1159 0c142,0 214,172 113,273l-1009 1009 1015 0c352,0 640,-288 640,-640l0 -1922c0,-353 -287,-638 -640,-638l-565 0 190 -190c249,-249 249,-655 0,-905l-186 -186 561 1c1058,0 1920,860 1920,1918l0 1922c0,1058 -862,1920 -1920,1920l-1015 0 1004 1005c101,101 30,273 -113,273l-1158 0c-177,0 -328,-63 -453,-188z"/>
	<path id="curve0" fill="#252525" d="M4935 1467l1504 1505c124,124 124,328 0,452l-1509 1509c-124,124 -276,187 -452,187l-1159 0c-143,0 -214,-172 -113,-273l1009 -1009 -1015 0c-352,0 -640,288 -640,640l0 1920c0,176 72,336 188,452 116,116 276,190 452,190l562 0 -187 187c-250,250 -250,656 0,906l187 187 -562 0c-529,0 -1009,-218 -1357,-565 -347,-348 -563,-828 -563,-1357l0 -1920c0,-1059 862,-1920 1920,-1920 1085,0 -70,0 1015,0l-1005 -1005c-101,-101 -29,-273 113,-273l1159 0c176,0 328,63 453,187z"/>
</g>
</g>



<g transform="translate(5120,5120) scale(0.5,0.5)">
	<title>refresh icon</title>
	<desc>refresh icon from the IconExperience.com O-Collection. Copyright by INCORS GmbH (www.incors.com).</desc>
	<path id="curve1" fill="#3E9BD5" d="M5305 9410l-1504 -1504c-125,-124 -125,-328 0,-452l1508 -1509c125,-124 277,-187 453,-187l1159 0c142,0 214,172 113,273l-1009 1009 1015 0c352,0 640,-288 640,-640l0 -1922c0,-353 -287,-638 -640,-638l-565 0 190 -190c249,-249 249,-655 0,-905l-186 -186 561 1c1058,0 1920,860 1920,1918l0 1922c0,1058 -862,1920 -1920,1920l-1015 0 1004 1005c101,101 30,273 -113,273l-1158 0c-177,0 -328,-63 -453,-188z"/>
	<path id="curve0" fill="#252525" d="M4935 1467l1504 1505c124,124 124,328 0,452l-1509 1509c-124,124 -276,187 -452,187l-1159 0c-143,0 -214,-172 -113,-273l1009 -1009 -1015 0c-352,0 -640,288 -640,640l0 1920c0,176 72,336 188,452 116,116 276,190 452,190l562 0 -187 187c-250,250 -250,656 0,906l187 187 -562 0c-529,0 -1009,-218 -1357,-565 -347,-348 -563,-828 -563,-1357l0 -1920c0,-1059 862,-1920 1920,-1920 1085,0 -70,0 1015,0l-1005 -1005c-101,-101 -29,-273 113,-273l1159 0c176,0 328,63 453,187z"/>
</g>

</svg>
