<?xml version="1.0" encoding="UTF-8"?>
<!DOCTYPE svg PUBLIC "-//W3C//DTD SVG 1.1//EN" "http://www.w3.org/Graphics/SVG/1.1/DTD/svg11.dtd">
<svg xmlns="http://www.w3.org/2000/svg" xml:space="preserve" width="1024px" height="1024px" shape-rendering="geometricPrecision" text-rendering="geometricPrecision" image-rendering="optimizeQuality" fill-rule="nonzero" clip-rule="evenodd" viewBox="0 0 10240 10240" xmlns:xlink="http://www.w3.org/1999/xlink">
	<title>smartphone icon</title>
	<desc>smartphone icon from the IconExperience.com O-Collection. Copyright by INCORS GmbH (www.incors.com).</desc>
	<path id="curve1" fill="#235DB8" d="M3200,2240 7040,2240 7040,7360 3200,7360z"/>
	<path id="curve0" fill="#252525" d="M2880 640l4480 0c353,0 640,288 640,640l0 7680c0,352 -288,640 -640,640l-4480 0c-352,0 -640,-287 -640,-640l0 -7680c0,-353 288,-640 640,-640zm1600 320c-176,0 -320,144 -320,320 0,176 144,320 320,320l1280 0c176,0 320,-144 320,-320 0,-176 -144,-320 -320,-320l-1280 0zm640 7040c-353,0 -640,287 -640,640 0,353 287,640 640,640 353,0 640,-287 640,-640 0,-353 -287,-640 -640,-640zm-2240 -6080l0 5760 4480 0 0 -5760 -4480 0z"/>
</svg>
