<?xml version="1.0" encoding="UTF-8"?>
<!DOCTYPE svg PUBLIC "-//W3C//DTD SVG 1.1//EN" "http://www.w3.org/Graphics/SVG/1.1/DTD/svg11.dtd">
<svg xmlns="http://www.w3.org/2000/svg" xml:space="preserve" width="1024px" height="1024px" shape-rendering="geometricPrecision" text-rendering="geometricPrecision" image-rendering="optimizeQuality" fill-rule="nonzero" clip-rule="evenodd" viewBox="0 0 10240 10240" xmlns:xlink="http://www.w3.org/1999/xlink">
	<title>note_pinned icon</title>
	<desc>note_pinned icon from the IconExperience.com O-Collection. Copyright by INCORS GmbH (www.incors.com).</desc>
	<path id="curve2" fill="#EDCA36" d="M1280 8960l5230 0c352,0 656,-126 905,-375l1170 -1170c249,-249 375,-553 375,-905l0 -5230 -5792 0c21,103 32,210 32,320 0,110 -11,217 -32,320l5152 0 0 4160c0,176 -144,320 -320,320l-1600 0 0 1600c0,176 -144,320 -320,320l-4160 0 0 -5152 0 0c-103,21 -210,32 -320,32 -110,0 -217,-11 -320,-32l0 5792zm5758 -903c1,-19 2,-38 2,-57l0 -960 960 0c19,0 38,-1 57,-2l-1019 1019z"/>
	<path id="curve1" fill="#235DB8" d="M2414 2978l641 520c55,14 98,22 126,22 187,0 339,-152 339,-339 0,-29 -11,-77 -30,-137l-512 -630c-138,232 -332,426 -564,564z"/>
	<path id="curve0" fill="#235DB8" d="M1600 320c707,0 1280,573 1280,1280 0,707 -573,1280 -1280,1280 -707,0 -1280,-573 -1280,-1280 0,-707 573,-1280 1280,-1280zm134 742c29,-114 -3,-226 -87,-308 -85,-81 -198,-110 -311,-77 -318,90 -569,341 -659,659 -33,113 -4,226 77,311 82,84 194,116 308,87l0 0c114,-28 198,-109 230,-222 31,-106 114,-189 220,-220 113,-32 194,-116 222,-230l0 0z"/>


<g comp-op="clear">
<g transform="translate(5120,5120) scale(0.5,0.5)"  stroke="#252525" stroke-width="512" stroke-linejoin="round">
	<title>plus icon</title>
	<desc>plus icon from the IconExperience.com O-Collection. Copyright by INCORS GmbH (www.incors.com).</desc>
	<path id="curve0" fill="#235DB8" d="M960 3840l2880 0 0 -2880c0,-176 144,-320 320,-320l1920 0c176,0 320,144 320,320l0 2880 2880 0c176,0 320,144 320,320l0 1920c0,176 -144,320 -320,320l-2880 0 0 2880c0,176 -144,320 -320,320l-1920 0c-176,0 -320,-144 -320,-320l0 -2880 -2880 0c-176,0 -320,-144 -320,-320l0 -1920c0,-176 144,-320 320,-320z"/>
</g>
</g>



<g transform="translate(5120,5120) scale(0.5,0.5)">
	<title>plus icon</title>
	<desc>plus icon from the IconExperience.com O-Collection. Copyright by INCORS GmbH (www.incors.com).</desc>
	<path id="curve0" fill="#235DB8" d="M960 3840l2880 0 0 -2880c0,-176 144,-320 320,-320l1920 0c176,0 320,144 320,320l0 2880 2880 0c176,0 320,144 320,320l0 1920c0,176 -144,320 -320,320l-2880 0 0 2880c0,176 -144,320 -320,320l-1920 0c-176,0 -320,-144 -320,-320l0 -2880 -2880 0c-176,0 -320,-144 -320,-320l0 -1920c0,-176 144,-320 320,-320z"/>
</g>

</svg>
