<?xml version="1.0" encoding="UTF-8" ?>
<!DOCTYPE svg PUBLIC "-//W3C//DTD SVG 1.1//EN" "http://www.w3.org/Graphics/SVG/1.1/DTD/svg11.dtd">
<svg width="256pt" height="256pt" viewBox="0 0 256 256" version="1.1" xmlns="http://www.w3.org/2000/svg">
<title>dotdotdot2 icon</title>
<desc>icon from the IconExperience.com V-Collection. Copyright by INCORS GmbH (www.incors.com). Vectorized using Vector Magic.</desc>
<g transform="translate(0,64)">
<g id="#39638fff">
<path fill="#235DB8" d=" M 17.44 103.46 C 19.10 101.68 21.71 101.84 23.94 101.81 C 36.90 101.97 49.87 101.73 62.82 101.91 C 66.00 101.83 68.50 104.82 68.29 107.90 C 68.28 121.65 68.39 135.41 68.24 149.16 C 68.32 151.66 66.03 153.03 64.39 154.48 C 49.47 154.36 34.54 154.37 19.62 154.47 C 17.91 153.02 15.70 151.54 15.85 148.99 C 15.66 135.99 15.89 122.97 15.75 109.96 C 15.77 107.72 15.66 105.13 17.44 103.46 Z" />
<path fill="#235DB8" d=" M 106.39 103.20 C 109.54 102.51 112.79 102.92 115.99 102.86 C 126.34 102.82 136.70 102.91 147.05 102.81 C 149.29 102.90 151.95 102.64 153.62 104.48 C 155.43 106.12 155.31 108.73 155.34 110.96 C 155.21 124.02 155.43 137.09 155.24 150.15 C 155.32 152.65 153.04 154.02 151.40 155.47 C 136.47 155.36 121.54 155.37 106.62 155.47 C 104.91 154.02 102.71 152.55 102.85 150.00 C 102.66 136.65 102.88 123.29 102.75 109.94 C 102.55 107.23 103.60 104.15 106.39 103.20 Z" />
<path fill="#235DB8" d=" M 187.79 108.90 C 187.51 105.46 190.55 102.53 193.96 102.84 C 207.29 102.86 220.63 102.86 233.96 102.84 C 237.42 102.50 240.58 105.43 240.29 108.94 C 240.28 122.67 240.39 136.41 240.24 150.14 C 240.32 152.65 238.04 154.02 236.39 155.48 C 221.46 155.36 206.54 155.37 191.62 155.47 C 189.89 154.01 187.69 152.53 187.85 149.96 C 187.69 136.28 187.82 122.58 187.79 108.90 Z" />
</g>
</g>
</svg>
