<?xml version="1.0" encoding="UTF-8"?>
<!DOCTYPE svg PUBLIC "-//W3C//DTD SVG 1.1//EN" "http://www.w3.org/Graphics/SVG/1.1/DTD/svg11.dtd">
<svg xmlns="http://www.w3.org/2000/svg" xml:space="preserve" width="1024px" height="1024px" shape-rendering="geometricPrecision" text-rendering="geometricPrecision" image-rendering="optimizeQuality" fill-rule="nonzero" clip-rule="evenodd" viewBox="0 0 10240 10240" xmlns:xlink="http://www.w3.org/1999/xlink">
	<title>calendar icon</title>
	<desc>calendar icon from the IconExperience.com O-Collection. Copyright by INCORS GmbH (www.incors.com).</desc>
	<path id="curve3" fill="#252525" d="M2720 5120l1120 0c0,853 0,1707 0,2560l640 0 0 640 -1920 0 0 -640 640 0 0 -1920 -640 0 0 -480c0,-88 72,-160 160,-160zm3040 2560l1920 0 0 640 -2560 0 0 -320 0 -320 0 -320c0,-529 431,-960 960,-960l800 0c88,0 160,-72 160,-160l0 -320c0,-88 -72,-160 -160,-160l-960 0c-88,0 -160,72 -160,160l-640 0 0 -160c0,-352 288,-640 640,-640 427,0 853,0 1280,0 353,0 640,288 640,640l0 640c0,353 -287,640 -640,640l-960 0c-176,0 -320,144 -320,320l0 320z"/>
	<path id="curve2" fill="#252525" d="M8960 4800l0 4160c0,352 -287,640 -640,640l-6400 0c-352,0 -640,-287 -640,-640l0 -4160 640 0 0 4160 6400 0 0 -4160 640 0z"/>
	<path id="curve1" fill="#235DB8" d="M8960 2240l0 2240 -7680 0 0 -2240c0,-353 287,-640 640,-640l0 0 0 640c0,353 287,640 640,640l320 0c353,0 640,-287 640,-640l0 0c0,353 287,640 640,640l320 0c353,0 640,-287 640,-640l0 0c0,353 287,640 640,640l320 0c353,0 640,-287 640,-640l0 0c0,353 287,640 640,640l320 0c353,0 640,-287 640,-640l0 -640 0 0c353,0 640,287 640,640z"/>
	<path id="curve0" fill="#252525" d="M7360 640l320 0c176,0 320,144 320,320l0 1280c0,176 -144,320 -320,320l-320 0c-176,0 -320,-144 -320,-320l0 -1280c0,-176 144,-320 320,-320zm-4800 0l320 0c176,0 320,144 320,320l0 1280c0,176 -144,320 -320,320l-320 0c-176,0 -320,-144 -320,-320l0 -1280c0,-176 144,-320 320,-320zm1600 0l320 0c176,0 320,144 320,320l0 1280c0,176 -144,320 -320,320l-320 0c-176,0 -320,-144 -320,-320l0 -1280c0,-176 144,-320 320,-320zm1600 0l320 0c176,0 320,144 320,320l0 1280c0,176 -144,320 -320,320l-320 0c-176,0 -320,-144 -320,-320l0 -1280c0,-176 144,-320 320,-320z"/>
</svg>
