<?xml version="1.0" encoding="UTF-8"?>
<!DOCTYPE svg PUBLIC "-//W3C//DTD SVG 1.1//EN" "http://www.w3.org/Graphics/SVG/1.1/DTD/svg11.dtd">
<svg xmlns="http://www.w3.org/2000/svg" xml:space="preserve" width="1024px" height="1024px" shape-rendering="geometricPrecision" text-rendering="geometricPrecision" image-rendering="optimizeQuality" fill-rule="nonzero" clip-rule="evenodd" viewBox="0 0 10240 10240" xmlns:xlink="http://www.w3.org/1999/xlink">
	<title>keyboard_key_c icon</title>
	<desc>keyboard_key_c icon from the IconExperience.com O-Collection. Copyright by INCORS GmbH (www.incors.com).</desc>
	<path id="curve0" fill="#252525" d="M2560 1280l5120 0c705,0 1280,575 1280,1280l0 5120c0,705 -575,1280 -1280,1280l-5120 0c-705,0 -1280,-575 -1280,-1280l0 -5120c0,-705 575,-1280 1280,-1280zm1280 1280l1280 0c353,0 640,287 640,640l0 160 -640 0c0,-88 -72,-160 -160,-160l-960 0c-88,0 -160,72 -160,160 0,533 0,1067 0,1600 0,88 72,160 160,160l960 0c88,0 160,-72 160,-160l640 0 0 160c0,353 -287,640 -640,640l-1280 0c-353,0 -640,-287 -640,-640l0 -1920c0,-353 287,-640 640,-640zm-640 -640c-529,0 -960,431 -960,960l0 3840c0,529 431,960 960,960l3840 0c529,0 960,-431 960,-960l0 -3840c0,-529 -431,-960 -960,-960l-3840 0zm0 320c-353,0 -640,287 -640,640l0 3840c0,353 287,640 640,640l3840 0c353,0 640,-287 640,-640l0 -3840c0,-353 -287,-640 -640,-640l-3840 0z"/>


<g comp-op="clear">
<g transform="translate(5120,0) scale(0.5,0.5)"  stroke="#252525" stroke-width="512" stroke-linejoin="round">
	<title>arrow_left icon</title>
	<desc>arrow_left icon from the IconExperience.com O-Collection. Copyright by INCORS GmbH (www.incors.com).</desc>
	<path id="curve0" fill="#E63736" d="M5818 2502l-1647 1647 5120 0c176,0 320,144 320,320l0 1280c0,176 -144,320 -320,320l-5120 0 1647 1647c47,46 60,113 35,174 -26,61 -82,99 -148,99l-2064 0c-176,0 -328,-63 -452,-188l-2467 -2466c-124,-124 -124,-328 0,-452l2467 -2467c124,-124 276,-187 452,-187l2064 0c66,0 122,38 148,99 25,61 12,127 -35,174z"/>
</g>
</g>



<g transform="translate(5120,0) scale(0.5,0.5)">
	<title>arrow_left icon</title>
	<desc>arrow_left icon from the IconExperience.com O-Collection. Copyright by INCORS GmbH (www.incors.com).</desc>
	<path id="curve0" fill="#E63736" d="M5818 2502l-1647 1647 5120 0c176,0 320,144 320,320l0 1280c0,176 -144,320 -320,320l-5120 0 1647 1647c47,46 60,113 35,174 -26,61 -82,99 -148,99l-2064 0c-176,0 -328,-63 -452,-188l-2467 -2466c-124,-124 -124,-328 0,-452l2467 -2467c124,-124 276,-187 452,-187l2064 0c66,0 122,38 148,99 25,61 12,127 -35,174z"/>
</g>

</svg>
