<?xml version="1.0" encoding="UTF-8"?>
<!DOCTYPE svg PUBLIC "-//W3C//DTD SVG 1.1//EN" "http://www.w3.org/Graphics/SVG/1.1/DTD/svg11.dtd">
<svg xmlns="http://www.w3.org/2000/svg" xml:space="preserve" width="1024px" height="1024px" shape-rendering="geometricPrecision" text-rendering="geometricPrecision" image-rendering="optimizeQuality" fill-rule="nonzero" clip-rule="evenodd" viewBox="0 0 10240 10240" xmlns:xlink="http://www.w3.org/1999/xlink">
	<title>cut icon</title>
	<desc>cut icon from the IconExperience.com O-Collection. Copyright by INCORS GmbH (www.incors.com).</desc>
	<path id="curve0" fill="#252525" d="M6032 8892l2 3 4 7c5,7 10,14 15,21l3 4c38,53 78,103 119,149l1 0c6,7 13,14 19,20 292,310 706,504 1165,504 884,0 1600,-716 1600,-1600 0,-350 -112,-673 -303,-937 -540,-761 -1309,-759 -1937,-663 -707,108 -553,-350 -960,-960l-2944 -4416c-72,-108 -201,-72 -280,30 -680,884 -135,2302 1439,4359 584,763 996,423 1510,1542 265,580 15,1149 547,1937zm-912 -3772c177,0 320,143 320,320 0,177 -143,320 -320,320 -177,0 -320,-143 -320,-320 0,-177 143,-320 320,-320zm-912 3772l-2 3 -4 7c-5,7 -10,14 -15,21l-3 4c-38,53 -78,103 -119,149l-1 0c-6,7 -13,14 -19,20 -292,310 -706,504 -1165,504 -884,0 -1600,-716 -1600,-1600 0,-350 112,-673 303,-937 540,-761 1309,-759 1937,-663 432,66 543,-79 656,-341 106,77 221,148 358,230 172,104 294,210 394,336 -57,94 -114,203 -173,330 -265,580 -15,1149 -547,1937zm1104 -4700l2112 -3168c72,-108 201,-72 280,30 680,884 135,2302 -1439,4359 -30,39 -59,75 -89,109 -44,-88 -92,-173 -150,-259l-714 -1071zm-2448 4768c530,0 960,-430 960,-960 0,-530 -430,-960 -960,-960 -530,0 -960,430 -960,960 0,530 430,960 960,960zm4512 0c-530,0 -960,-430 -960,-960 0,-530 430,-960 960,-960 530,0 960,430 960,960 0,530 -430,960 -960,960z"/>
</svg>
