<?xml version="1.0" encoding="UTF-8"?>
<!DOCTYPE svg PUBLIC "-//W3C//DTD SVG 1.1//EN" "http://www.w3.org/Graphics/SVG/1.1/DTD/svg11.dtd">
<svg xmlns="http://www.w3.org/2000/svg" xml:space="preserve" width="1024px" height="1024px" shape-rendering="geometricPrecision" text-rendering="geometricPrecision" image-rendering="optimizeQuality" fill-rule="nonzero" clip-rule="evenodd" viewBox="0 0 10240 10240" xmlns:xlink="http://www.w3.org/1999/xlink">

<g transform="translate(10240,0) rotate(90)">
<g transform="translate(10240,0) scale(-1,1)">
	<title>arrow_over icon</title>
	<desc>arrow_over icon from the IconExperience.com O-Collection. Copyright by INCORS GmbH (www.incors.com).</desc>
	<path id="curve1" fill="#252525" d="M1280 5120l3200 0c354,0 640,286 640,640 0,354 -286,640 -640,640l-3200 0 0 -1280zm5679 0l2001 0 0 1280 -2001 0c53,-206 81,-420 81,-640 0,-220 -28,-434 -81,-640z"/>
	<path id="curve0" fill="#235DB8" d="M5899 2162l-1186 -1186c-124,-124 -328,-124 -452,0l-1187 1186c-124,125 -186,277 -187,453l-7 839c-1,142 172,214 273,113l687 -687 0 1280c0,353 287,640 640,640 530,0 960,430 960,960 0,530 -430,960 -960,960 -353,0 -640,287 -640,640l0 2240 1280 0 0 -1693c947,-282 1600,-1155 1600,-2147 0,-992 -653,-1865 -1600,-2147l0 -733 687 687c101,101 272,30 273,-113l7 -839c1,-176 -63,-328 -188,-453z"/>
</g>
</g>

</svg>
