<?xml version="1.0" encoding="UTF-8"?>
<!DOCTYPE svg PUBLIC "-//W3C//DTD SVG 1.1//EN" "http://www.w3.org/Graphics/SVG/1.1/DTD/svg11.dtd">
<svg xmlns="http://www.w3.org/2000/svg" xml:space="preserve" width="1024px" height="1024px" shape-rendering="geometricPrecision" text-rendering="geometricPrecision" image-rendering="optimizeQuality" fill-rule="nonzero" clip-rule="evenodd" viewBox="0 0 10240 10240" xmlns:xlink="http://www.w3.org/1999/xlink">
	<title>media_play icon</title>
	<desc>media_play icon from the IconExperience.com O-Collection. Copyright by INCORS GmbH (www.incors.com).</desc>
	<path id="curve0" fill="#235DB8" d="M2878 1364l5757 3209c207,115 325,314 325,547 0,233 -118,432 -325,547l-5757 3209c-204,113 -436,112 -639,-4 -203,-116 -319,-313 -319,-544l0 -6416c0,-231 116,-428 319,-544 203,-116 435,-117 639,-4z"/>

<g transform="translate(2560,3840) scale(0.75,0.75)">
	<title>text_field icon</title>
	<desc>text_field icon from the IconExperience.com O-Collection. Copyright by INCORS GmbH (www.incors.com).</desc>
        <rect x="1280" y="3240" width="7680" height="3200" fill="white"/> 
	<path id="curve1" fill="#2CA744" d="M640 3200l8960 0 0 3840 -8960 0 0 -3840zm640 640l0 2560 7680 0 0 -2560 -7680 0z"/>
	<path id="curve0" fill="#252525" d="M1600,4160 2560,4160 2560,4480 2240,4480 2240,5760 2560,5760 2560,6080 1600,6080 1600,5760 1920,5760 1920,4480 1600,4480z"/>
</g>

</svg>
