<?xml version="1.0" encoding="UTF-8"?>
<!DOCTYPE svg PUBLIC "-//W3C//DTD SVG 1.1//EN" "http://www.w3.org/Graphics/SVG/1.1/DTD/svg11.dtd">
<svg xmlns="http://www.w3.org/2000/svg" xml:space="preserve" width="1024px" height="1024px" shape-rendering="geometricPrecision" text-rendering="geometricPrecision" image-rendering="optimizeQuality" fill-rule="nonzero" clip-rule="evenodd" viewBox="0 0 10240 10240" xmlns:xlink="http://www.w3.org/1999/xlink">
	<title>media_beginning icon</title>
	<desc>media_beginning icon from the IconExperience.com O-Collection. Copyright by INCORS GmbH (www.incors.com).</desc>
	<path id="curve1" fill="#235DB8" d="M1920 1280l1280 0c353,0 640,288 640,640l0 6400c0,352 -288,640 -640,640l-1280 0c-352,0 -640,-287 -640,-640l0 -6400c0,-352 287,-640 640,-640z"/>
	<path id="curve0" fill="#235DB8" d="M7881 1467l-3216 3207c-247,246 -247,646 0,892l3216 3207c184,185 447,237 689,137 241,-100 390,-322 390,-582l0 -6416c0,-260 -149,-482 -390,-582 -242,-100 -505,-48 -689,137z"/>
</svg>
