<?xml version="1.0" encoding="UTF-8"?>
<!DOCTYPE svg PUBLIC "-//W3C//DTD SVG 1.1//EN" "http://www.w3.org/Graphics/SVG/1.1/DTD/svg11.dtd">
<svg xmlns="http://www.w3.org/2000/svg" xml:space="preserve" width="1024px" height="1024px" shape-rendering="geometricPrecision" text-rendering="geometricPrecision" image-rendering="optimizeQuality" fill-rule="nonzero" clip-rule="evenodd" viewBox="0 0 10240 10240" xmlns:xlink="http://www.w3.org/1999/xlink">

<g transform="translate(10240,0) scale(-1,1)">
	<title>arrow_into icon</title>
	<desc>arrow_into icon from the IconExperience.com O-Collection. Copyright by INCORS GmbH (www.incors.com).</desc>
	<path id="curve1" fill="#252525" d="M1280 7680l2934 0 454 453c249,249 655,249 905,0l453 -453 2934 0 0 1280 -7680 0 0 -1280z"/>
	<path id="curve0" fill="#235DB8" d="M3707 6721l1187 1186c124,124 328,124 452,0l1187 -1186c124,-125 186,-277 187,-453l7 -839c1,-142 -172,-214 -273,-113l-692 692 -2 -1208c-1,-538 426,-960 963,-960l2237 0 0 -1280 -2237 0c-1234,0 -2246,1005 -2243,2240l2 1208 -682 -692c-101,-101 -272,-30 -273,113l-7 839c-1,176 63,328 187,453z"/>
</g>



<g comp-op="clear">
<g transform="translate(3840,0) scale(0.60,0.60)"  stroke="#252525" stroke-width="512" stroke-linejoin="round">
	<title>magnifying_glass icon</title>
	<desc>magnifying_glass icon from the IconExperience.com O-Collection. Copyright by INCORS GmbH (www.incors.com).</desc>
	<path id="curve1" fill="#EDCA36" d="M5986 6814l828 -828c124,-124 328,-124 452,0l2428 2428c124,124 124,328 0,452l-828 828c-124,124 -328,124 -452,0l-2428 -2428c-124,-124 -124,-328 0,-452z"/>
	<path id="curve0" fill="#252525" d="M6082 5442l412 412 -640 640 -412 -412c-534,401 -1197,638 -1916,638 -1764,0 -3194,-1430 -3194,-3194 0,-1764 1430,-3194 3194,-3194 1764,0 3194,1430 3194,3194 0,719 -237,1382 -638,1916zm-2556 -4471c-1411,0 -2555,1144 -2555,2555 0,1411 1144,2555 2555,2555 1411,0 2555,-1144 2555,-2555 0,-1411 -1144,-2555 -2555,-2555z"/>
</g>
</g>



<g transform="translate(3840,0) scale(0.60,0.60)">
	<title>magnifying_glass icon</title>
	<desc>magnifying_glass icon from the IconExperience.com O-Collection. Copyright by INCORS GmbH (www.incors.com).</desc>
	<path id="curve1" fill="#EDCA36" d="M5986 6814l828 -828c124,-124 328,-124 452,0l2428 2428c124,124 124,328 0,452l-828 828c-124,124 -328,124 -452,0l-2428 -2428c-124,-124 -124,-328 0,-452z"/>
	<path id="curve0" fill="#252525" d="M6082 5442l412 412 -640 640 -412 -412c-534,401 -1197,638 -1916,638 -1764,0 -3194,-1430 -3194,-3194 0,-1764 1430,-3194 3194,-3194 1764,0 3194,1430 3194,3194 0,719 -237,1382 -638,1916zm-2556 -4471c-1411,0 -2555,1144 -2555,2555 0,1411 1144,2555 2555,2555 1411,0 2555,-1144 2555,-2555 0,-1411 -1144,-2555 -2555,-2555z"/>
</g>

</svg>
