<?xml version="1.0" encoding="UTF-8"?>
<!DOCTYPE svg PUBLIC "-//W3C//DTD SVG 1.1//EN" "http://www.w3.org/Graphics/SVG/1.1/DTD/svg11.dtd">
<svg xmlns="http://www.w3.org/2000/svg" xml:space="preserve" width="1024px" height="1024px" shape-rendering="geometricPrecision" text-rendering="geometricPrecision" image-rendering="optimizeQuality" fill-rule="nonzero" clip-rule="evenodd" viewBox="0 0 10240 10240" xmlns:xlink="http://www.w3.org/1999/xlink">
	<title>breakpoint icon</title>
	<desc>breakpoint icon from the IconExperience.com O-Collection. Copyright by INCORS GmbH (www.incors.com).</desc>
	<path id="curve0" fill="#E63736" d="M2560 1920l5120 0c353,0 640,287 640,640l0 5120c0,352 -287,640 -640,640l-5120 0c-353,0 -640,-288 -640,-640l0 -5120c0,-353 287,-640 640,-640z"/>


<g comp-op="clear">
<g transform="translate(5120,5120) scale(0.5,0.5)"  stroke="#252525" stroke-width="512" stroke-linejoin="round">
	<title>checkbox_unchecked icon</title>
	<desc>checkbox_unchecked icon from the IconExperience.com O-Collection. Copyright by INCORS GmbH (www.incors.com).</desc>
        <rect fill="#ffffff" x="1920" y="4480" width="4480" height="4480"/>
	<path id="curve0" fill="#252525" d="M1920 3840l4480 0c353,0 640,287 640,640l0 4480c0,353 -287,640 -640,640l-4480 0c-353,0 -640,-287 -640,-640l0 -4480c0,-353 287,-640 640,-640zm0 640l0 4480 4480 0 0 -4480 -4480 0z"/>
</g>
</g>



<g transform="translate(5120,5120) scale(0.5,0.5)">
	<title>checkbox_unchecked icon</title>
	<desc>checkbox_unchecked icon from the IconExperience.com O-Collection. Copyright by INCORS GmbH (www.incors.com).</desc>
        <rect fill="#ffffff" x="1920" y="4480" width="4480" height="4480"/>
	<path id="curve0" fill="#252525" d="M1920 3840l4480 0c353,0 640,287 640,640l0 4480c0,353 -287,640 -640,640l-4480 0c-353,0 -640,-287 -640,-640l0 -4480c0,-353 287,-640 640,-640zm0 640l0 4480 4480 0 0 -4480 -4480 0z"/>
</g>

</svg>
