<?xml version="1.0" encoding="UTF-8" ?>
<!DOCTYPE svg PUBLIC "-//W3C//DTD SVG 1.1//EN" "http://www.w3.org/Graphics/SVG/1.1/DTD/svg11.dtd">
<svg width="256pt" height="256pt" viewBox="0 0 256 256" version="1.1" xmlns="http://www.w3.org/2000/svg">
<title>arrow_into_deep icon</title>
<desc>icon from the IconExperience.com V-Collection. Copyright by INCORS GmbH (www.incors.com). Vectorized using Vector Magic.</desc>
<g id="#3b6187ff">
<path fill="#235DB8" stroke="#4D82B8" stroke-width="0.09375" opacity="1.00" d=" M 32.00 9.00 C 50.67 9.01 69.34 8.99 88.01 9.01 C 102.45 8.95 116.76 14.83 127.07 24.94 C 137.54 35.04 143.85 49.37 143.98 63.94 C 144.03 74.35 143.93 84.77 143.96 95.18 C 149.67 89.48 155.24 83.63 160.98 77.98 C 162.96 75.53 167.46 76.91 167.70 80.03 C 168.06 87.01 167.85 94.02 168.00 101.01 C 168.19 105.28 166.69 109.59 163.66 112.63 C 158.39 118.06 152.91 123.27 147.68 128.72 C 146.65 129.86 145.35 130.68 144.01 131.40 C 143.93 137.66 143.97 143.92 143.96 150.19 C 149.66 144.48 155.22 138.65 160.97 133.00 C 162.94 130.53 167.45 131.89 167.70 135.03 C 168.06 142.00 167.85 149.00 168.00 155.98 C 168.19 160.25 166.71 164.56 163.68 167.60 C 154.40 177.01 144.96 186.27 135.68 195.68 C 133.82 197.53 131.85 199.69 129.07 199.93 C 126.36 200.38 123.70 199.15 121.88 197.21 C 112.04 187.33 102.13 177.52 92.33 167.62 C 89.01 164.33 87.77 159.56 87.96 155.00 C 88.06 148.32 87.66 141.62 87.96 134.95 C 88.28 131.76 92.87 130.59 94.82 133.11 C 100.58 138.75 106.22 144.52 111.95 150.20 C 111.95 143.94 111.99 137.68 111.97 131.42 C 110.65 130.67 109.35 129.86 108.33 128.73 C 103.08 123.26 97.59 118.04 92.32 112.60 C 89.30 109.56 87.89 105.25 87.99 101.01 C 87.97 94.32 87.81 87.63 87.86 80.93 C 87.43 77.64 91.89 75.31 94.28 77.66 C 100.31 83.36 106.03 89.38 111.95 95.20 C 111.93 84.77 112.07 74.33 111.95 63.91 C 111.87 51.43 100.46 40.67 88.04 41.01 C 69.36 40.98 50.68 41.01 32.00 41.00 C 32.00 30.33 32.00 19.67 32.00 9.00 Z" />
</g>
<g id="#5c5f63ff">
<path fill="#252525" stroke="#808080" stroke-width="0.09375" opacity="1.00" d=" M 32.00 192.00 C 56.43 191.98 80.87 192.03 105.30 191.98 C 109.35 195.87 113.18 199.97 117.26 203.83 C 122.51 208.85 131.30 209.38 137.16 205.11 C 142.13 201.23 145.92 196.00 150.86 192.11 C 175.23 191.84 199.62 192.08 224.00 192.00 C 224.00 202.67 224.00 213.33 224.00 224.00 C 160.00 224.00 96.00 224.00 32.00 224.00 C 32.00 213.33 32.00 202.67 32.00 192.00 Z" />
</g>
</svg>
