<?xml version="1.0" encoding="UTF-8"?>
<!DOCTYPE svg PUBLIC "-//W3C//DTD SVG 1.1//EN" "http://www.w3.org/Graphics/SVG/1.1/DTD/svg11.dtd">
<svg xmlns="http://www.w3.org/2000/svg" xml:space="preserve" width="1024px" height="1024px" shape-rendering="geometricPrecision" text-rendering="geometricPrecision" image-rendering="optimizeQuality" fill-rule="nonzero" clip-rule="evenodd" viewBox="0 0 10240 10240" xmlns:xlink="http://www.w3.org/1999/xlink">
	<title>find_text icon</title>
	<desc>find_text icon from the IconExperience.com O-Collection. Copyright by INCORS GmbH (www.incors.com).</desc>
	<path id="curve4" fill="#235DB8" d="M7680 6399l1280 0c353,0 640,287 640,640l0 160 -640 0 0 0c0,-88 -72,-160 -160,-160l-960 0c-88,0 -160,72 -160,160 0,533 0,1066 0,1600 0,88 72,160 160,160l960 0c88,0 160,-72 160,-160l0 0 640 0 0 160c0,352 -287,640 -640,640l-1280 0c-352,0 -640,-288 -640,-640l0 -1920c0,-353 288,-640 640,-640z"/>
	<path id="curve3" fill="#235DB8" d="M5440 6399c530,0 960,429 960,960 0,246 -92,470 -245,640 153,170 245,394 245,640 0,530 -430,960 -960,960l-1440 0c-88,0 -160,-72 -160,-160l0 -2880c0,-88 72,-160 160,-160l1440 0zm-960 1920l0 640 960 0c176,0 320,-144 320,-320l0 0c0,-177 -144,-320 -320,-320l-960 0zm0 -1280l0 640 960 0c176,0 320,-144 320,-320l0 0c0,-177 -144,-320 -320,-320l-960 0z"/>
	<path id="curve2" fill="#235DB8" d="M1294 8320l1252 0c-40,-444 -164,-874 -347,-1280l-558 0c-183,406 -307,836 -347,1280zm1266 640l-1280 0 0 640 -640 0 0 -960c0,-726 192,-1416 515,-2063 56,-111 168,-176 285,-176l960 0c117,0 229,65 285,176 323,647 515,1337 515,2063l0 960 -640 0 0 -640z"/>
	<path id="curve1" fill="#252525" d="M7360 3200c530,0 960,430 960,960 0,530 -430,960 -960,960 -530,0 -960,-430 -960,-960 0,-98 15,-193 42,-283 76,167 243,283 438,283 265,0 480,-215 480,-480 0,-195 -116,-362 -283,-438 90,-27 185,-42 283,-42zm-4480 0c530,0 960,430 960,960 0,530 -430,960 -960,960 -530,0 -960,-430 -960,-960 0,-98 15,-193 42,-283 76,167 243,283 438,283 265,0 480,-215 480,-480 0,-195 -116,-362 -283,-438 90,-27 185,-42 283,-42z"/>
	<path id="curve0" fill="#252525" d="M3681 320c315,0 659,185 882,468 167,-86 356,-137 557,-141 201,4 390,55 557,141 223,-283 567,-468 882,-468l2 0c519,0 766,243 977,574l1475 2316c217,342 267,690 267,950 0,1060 -904,1920 -1920,1920 -1016,0 -1776,-723 -1903,-1661 -105,39 -218,61 -337,61 -119,0 -232,-22 -337,-61 -127,938 -930,1661 -1903,1661 -1060,0 -1920,-860 -1920,-1920 0,-260 50,-608 267,-950l1475 -2316c211,-331 458,-574 977,-574l2 0zm3679 2560c-707,0 -1280,573 -1280,1280 0,707 573,1280 1280,1280 707,0 1280,-573 1280,-1280 0,-707 -573,-1280 -1280,-1280zm-4480 0c-707,0 -1280,573 -1280,1280 0,707 573,1280 1280,1280 707,0 1280,-573 1280,-1280 0,-707 -573,-1280 -1280,-1280z"/>
</svg>
