<?xml version="1.0" encoding="UTF-8"?>
<!DOCTYPE svg PUBLIC "-//W3C//DTD SVG 1.1//EN" "http://www.w3.org/Graphics/SVG/1.1/DTD/svg11.dtd">
<svg xmlns="http://www.w3.org/2000/svg" xml:space="preserve" width="1024px" height="1024px" shape-rendering="geometricPrecision" text-rendering="geometricPrecision" image-rendering="optimizeQuality" fill-rule="nonzero" clip-rule="evenodd" viewBox="0 0 10240 10240" xmlns:xlink="http://www.w3.org/1999/xlink">
	<title>nav_refresh icon</title>
	<desc>nav_refresh icon from the IconExperience.com O-Collection. Copyright by INCORS GmbH (www.incors.com).</desc>
	<path id="curve2" fill="#235DB8" d="M6759 3520l1241 0c66,0 123,-38 148,-99 25,-61 10,-126 -35,-174l-465 -500c-120,-128 -276,-187 -453,-187l-1755 0c-176,0 -320,144 -320,320l1 1771c2,177 59,333 188,453l483 449c48,45 113,60 174,35 61,-25 98,-82 99,-148l15 -1241c417,419 761,828 853,1228 71,308 -15,652 -355,1059 -107,127 -98,314 19,431l228 228c65,65 146,97 238,93 93,-4 171,-42 231,-112 579,-679 712,-1308 573,-1913 -145,-626 -583,-1165 -1108,-1693z"/>
	<path id="curve1" fill="#235DB8" d="M3481 6720l-1241 0c-66,0 -123,38 -148,99 -25,61 -10,126 35,174l465 500c120,128 276,187 453,187l1755 0c176,0 320,-144 320,-320l-1 -1771c-2,-177 -57,-335 -188,-453l-498 -449c-49,-44 -113,-60 -174,-35 -61,25 -99,82 -99,148l0 1241c-417,-419 -761,-828 -853,-1228 -71,-308 15,-652 355,-1059 107,-127 98,-314 -19,-431l-228 -228c-65,-65 -146,-97 -238,-93 -93,4 -171,42 -231,112 -579,679 -712,1308 -573,1913 145,626 583,1165 1108,1693z"/>
	<path id="curve0" fill="#235DB8" d="M640 5120c0,-2474 2006,-4480 4480,-4480 2474,0 4480,2006 4480,4480 0,2474 -2006,4480 -4480,4480 -2474,0 -4480,-2006 -4480,-4480zm4480 -3840c-2121,0 -3840,1719 -3840,3840 0,2121 1719,3840 3840,3840 2121,0 3840,-1719 3840,-3840 0,-2121 -1719,-3840 -3840,-3840z"/>
</svg>
