<?xml version="1.0"?>
<svg version="1.1" xmlns="http://www.w3.org/2000/svg" xmlns:xlink="http://www.w3.org/1999/xlink" width="512" height="512">
    <desc iVinci="yes" version="4.6" gridStep="16" showGrid="no" snapToGrid="no" codePlatform="0"/>
    <g id="Layer1" name="Layer 1" opacity="1">
        <g id="Shape1">
            <desc shapeID="1" type="0" basicInfo-basicType="0" basicInfo-roundedRectRadius="12" basicInfo-polygonSides="6" basicInfo-starPoints="5" bounding="rect(-224,-192,448,384)" text="" font-familyName="Helvetica" font-pixelSize="20" font-bold="0" font-underline="0" font-alignment="1" strokeStyle="0" markerStart="0" markerEnd="0" shadowEnabled="0" shadowOffsetX="0" shadowOffsetY="2" shadowBlur="4" shadowOpacity="160" blurEnabled="0" blurRadius="4" transform="matrix(1,0,0,1,256.5,256.5)" pers-center="0,0" pers-size="0,0" pers-start="0,0" pers-end="0,0" locked="0" mesh="" flag=""/>
            <path id="shapePath1" d="M64.5,64.5 C64.5,64.5 32.5,64.5 32.5,64.5 C32.5,64.5 32.5,448.5 32.5,448.5 C32.5,448.5 480.5,448.5 480.5,448.5 C480.5,448.5 480.5,64.5 480.5,64.5 C480.5,64.5 400.5,64.5 400.5,64.5 " style="stroke:#818181;stroke-opacity:1;stroke-width:24;stroke-linejoin:miter;stroke-miterlimit:2;stroke-linecap:round;fill-rule:evenodd;fill:#252525;fill-opacity:0;"/>
        </g>
        <g id="Shape2">
            <desc shapeID="2" type="0" basicInfo-basicType="0" basicInfo-roundedRectRadius="12" basicInfo-polygonSides="6" basicInfo-starPoints="5" bounding="rect(-140.273,-45.4925,280.547,90.9845)" text="Group" font-familyName="Helvetica" font-pixelSize="96" font-bold="1" font-underline="0" font-alignment="1" strokeStyle="0" markerStart="0" markerEnd="0" shadowEnabled="0" shadowOffsetX="0" shadowOffsetY="2" shadowBlur="4" shadowOpacity="160" blurEnabled="0" blurRadius="4" transform="matrix(1,0,0,1,236.225,80.046)" pers-center="0,0" pers-size="0,0" pers-start="0,0" pers-end="0,0" locked="0" mesh="" flag=""/>
            <path id="shapePath2" d="M145.733,57.8972 C144.64,53.1785 141.968,49.8816 137.718,48.0066 C135.343,46.9754 132.702,46.4597 129.796,46.4597 C124.233,46.4597 119.663,48.5613 116.085,52.7644 C112.507,56.9676 110.718,63.2879 110.718,71.7254 C110.718,80.2254 112.655,86.241 116.53,89.7722 C120.405,93.3035 124.811,95.0691 129.749,95.0691 C134.593,95.0691 138.561,93.6707 141.655,90.8738 C144.749,88.0769 146.655,84.4129 147.374,79.8816 L131.39,79.8816 L131.39,68.3504 L160.171,68.3504 L160.171,105.428 L150.608,105.428 L149.155,96.8035 C146.374,100.085 143.874,102.397 141.655,103.741 C137.843,106.085 133.155,107.257 127.593,107.257 C118.436,107.257 110.936,104.085 105.093,97.741 C98.999,91.366 95.9521,82.6472 95.9521,71.5847 C95.9521,60.3972 99.0302,51.4285 105.186,44.6785 C111.343,37.9285 119.483,34.5535 129.608,34.5535 C138.39,34.5535 145.444,36.7801 150.772,41.2332 C156.101,45.6863 159.155,51.241 159.936,57.8972 L145.733,57.8972 M201.257,53.1394 C201.429,53.1551 201.811,53.1785 202.405,53.2097 L202.405,66.8972 C201.561,66.8035 200.811,66.741 200.155,66.7097 C199.499,66.6785 198.968,66.6629 198.561,66.6629 C193.186,66.6629 189.577,68.4129 187.733,71.9129 C186.702,73.8816 186.186,76.9129 186.186,81.0066 L186.186,105.428 L172.733,105.428 L172.733,54.3347 L185.483,54.3347 L185.483,63.241 C187.546,59.8347 189.343,57.5066 190.874,56.2566 C193.374,54.1629 196.624,53.116 200.624,53.116 C200.874,53.116 201.085,53.1238 201.257,53.1394 M242.155,91.8347 C244.249,89.0535 245.296,85.1004 245.296,79.9754 C245.296,74.8504 244.249,70.9051 242.155,68.1394 C240.061,65.3738 237.061,63.991 233.155,63.991 C229.249,63.991 226.241,65.3738 224.132,68.1394 C222.022,70.9051 220.968,74.8504 220.968,79.9754 C220.968,85.1004 222.022,89.0535 224.132,91.8347 C226.241,94.616 229.249,96.0066 233.155,96.0066 C237.061,96.0066 240.061,94.616 242.155,91.8347 M252.843,99.2176 C248.53,104.546 241.983,107.21 233.202,107.21 C224.421,107.21 217.874,104.546 213.561,99.2176 C209.249,93.8894 207.093,87.4754 207.093,79.9754 C207.093,72.6004 209.249,66.2097 213.561,60.8035 C217.874,55.3972 224.421,52.6941 233.202,52.6941 C241.983,52.6941 248.53,55.3972 252.843,60.8035 C257.155,66.2097 259.311,72.6004 259.311,79.9754 C259.311,87.4754 257.155,93.8894 252.843,99.2176 M282.186,54.3347 L282.186,85.1316 C282.186,88.0379 282.53,90.2254 283.218,91.6941 C284.436,94.2879 286.827,95.5847 290.39,95.5847 C294.952,95.5847 298.077,93.741 299.765,90.0535 C300.64,88.0535 301.077,85.4129 301.077,82.1316 L301.077,54.3347 L314.624,54.3347 L314.624,105.428 L301.64,105.428 L301.64,98.2097 C301.515,98.366 301.202,98.8347 300.702,99.616 C300.202,100.397 299.608,101.085 298.921,101.678 C296.827,103.553 294.804,104.835 292.851,105.522 C290.897,106.21 288.608,106.553 285.983,106.553 C278.421,106.553 273.327,103.835 270.702,98.3972 C269.233,95.3972 268.499,90.9754 268.499,85.1316 L268.499,54.3347 L282.186,54.3347 M360.022,69.4285 C358.226,66.3972 355.311,64.8816 351.28,64.8816 C346.436,64.8816 343.108,67.1785 341.296,71.7722 C340.358,74.2097 339.89,77.3035 339.89,81.0535 C339.89,86.991 341.468,91.1629 344.624,93.5691 C346.499,94.9754 348.718,95.6785 351.28,95.6785 C354.999,95.6785 357.835,94.241 359.788,91.366 C361.741,88.491 362.718,84.6629 362.718,79.8816 C362.718,75.9441 361.819,72.4597 360.022,69.4285 M370.288,59.8191 C374.429,64.2254 376.499,70.6941 376.499,79.2254 C376.499,88.2254 374.476,95.0847 370.429,99.8035 C366.382,104.522 361.171,106.882 354.796,106.882 C350.733,106.882 347.358,105.866 344.671,103.835 C343.202,102.71 341.765,101.069 340.358,98.9129 L340.358,125.538 L327.14,125.538 L327.14,54.3347 L339.936,54.3347 L339.936,61.8816 C341.374,59.6629 342.905,57.9129 344.53,56.6316 C347.499,54.3504 351.03,53.2097 355.124,53.2097 C361.093,53.2097 366.147,55.4129 370.288,59.8191 Z" style="stroke:none;fill-rule:evenodd;fill:#4d82b8;fill-opacity:1;"/>
        </g>
    </g>
</svg>
