<?xml version="1.0" encoding="UTF-8"?>
<!DOCTYPE svg PUBLIC "-//W3C//DTD SVG 1.1//EN" "http://www.w3.org/Graphics/SVG/1.1/DTD/svg11.dtd">
<svg xmlns="http://www.w3.org/2000/svg" xml:space="preserve" width="1024px" height="1024px" shape-rendering="geometricPrecision" text-rendering="geometricPrecision" image-rendering="optimizeQuality" fill-rule="nonzero" clip-rule="evenodd" viewBox="0 0 10240 10240" xmlns:xlink="http://www.w3.org/1999/xlink">
	<title>plug_lan icon</title>
	<desc>plug_lan icon from the IconExperience.com O-Collection. Copyright by INCORS GmbH (www.incors.com).</desc>
	<path id="curve1" fill="#252525" d="M7360 3840l0 -320 1920 0c176,0 320,144 320,320l0 2880c0,176 -144,320 -320,320l-1920 0 0 -320 1920 0 0 -320 -1280 0 0 -320 1280 0 0 -320 -1280 0 0 -320 1280 0 0 -320 -1280 0 0 -320 1280 0 0 -320 -1280 0 0 -320 1280 0 0 -320 -1920 0z"/>
	<path id="curve0" fill="#252525" d="M6720 3200l-2880 0c-1179,0 -1272,815 -2280,943 -161,21 -280,155 -280,318l0 19 -960 0 0 1600 960 0 0 19c0,163 119,297 280,318 1008,128 1101,943 2280,943l2880 0c176,0 320,-144 320,-320l0 -320 0 -640 -1653 -275c-155,-26 -267,-158 -267,-316l0 -418c0,-158 112,-290 267,-316l1653 -275 0 -640 0 -320c0,-176 -144,-320 -320,-320z"/>


<g comp-op="clear">
<g transform="translate(5120,5120) scale(0.5,0.5)"  stroke="#252525" stroke-width="512" stroke-linejoin="round">
	<title>plus icon</title>
	<desc>plus icon from the IconExperience.com O-Collection. Copyright by INCORS GmbH (www.incors.com).</desc>
	<path id="curve0" fill="#235DB8" d="M960 3840l2880 0 0 -2880c0,-176 144,-320 320,-320l1920 0c176,0 320,144 320,320l0 2880 2880 0c176,0 320,144 320,320l0 1920c0,176 -144,320 -320,320l-2880 0 0 2880c0,176 -144,320 -320,320l-1920 0c-176,0 -320,-144 -320,-320l0 -2880 -2880 0c-176,0 -320,-144 -320,-320l0 -1920c0,-176 144,-320 320,-320z"/>
</g>
</g>



<g transform="translate(5120,5120) scale(0.5,0.5)">
	<title>plus icon</title>
	<desc>plus icon from the IconExperience.com O-Collection. Copyright by INCORS GmbH (www.incors.com).</desc>
	<path id="curve0" fill="#235DB8" d="M960 3840l2880 0 0 -2880c0,-176 144,-320 320,-320l1920 0c176,0 320,144 320,320l0 2880 2880 0c176,0 320,144 320,320l0 1920c0,176 -144,320 -320,320l-2880 0 0 2880c0,176 -144,320 -320,320l-1920 0c-176,0 -320,-144 -320,-320l0 -2880 -2880 0c-176,0 -320,-144 -320,-320l0 -1920c0,-176 144,-320 320,-320z"/>
</g>

</svg>
