<?xml version="1.0" encoding="UTF-8"?>
<!DOCTYPE svg PUBLIC "-//W3C//DTD SVG 1.1//EN" "http://www.w3.org/Graphics/SVG/1.1/DTD/svg11.dtd">
<svg xmlns="http://www.w3.org/2000/svg" xml:space="preserve" width="1024px" height="1024px" shape-rendering="geometricPrecision" text-rendering="geometricPrecision" image-rendering="optimizeQuality" fill-rule="nonzero" clip-rule="evenodd" viewBox="0 0 10240 10240" xmlns:xlink="http://www.w3.org/1999/xlink">
	<title>server_client_exchange icon</title>
	<desc>server_client_exchange icon from the IconExperience.com O-Collection. Copyright by INCORS GmbH (www.incors.com).</desc>
	<path id="curve6" fill="#252525" d="M4960 9600l480 0c176,0 320,-144 320,-320l0 -320 -775 0c185,-170 247,-418 185,-640l3790 0 0 -3840 -5120 0 0 2600c-70,-26 -145,-40 -224,-40l-416 0 0 -2560c0,-353 288,-640 640,-640l5120 0c353,0 640,288 640,640l0 3840c0,352 -288,640 -640,640l-1920 0 0 320c0,176 144,320 320,320l480 0c88,0 160,72 160,160l0 160 -3200 0 0 -160c0,-88 72,-160 160,-160z"/>
	<path id="curve5" fill="#2CA744" d="M1600,5440 2880,5440 2880,6080 1600,6080z"/>
	<path id="curve4" fill="#2CA744" d="M1600 3840l1525 0c-152,170 -245,394 -245,640l0 0 -1280 0 0 -640z"/>
	<path id="curve3" fill="#2CA744" d="M1600,2240 4160,2240 4160,2880 1600,2880z"/>
	<path id="curve2" fill="#252525" d="M960 640l3840 0c143,0 264,94 305,223l-470 397c-201,171 -269,429 -204,660l-3151 0 0 1280 3200 0 0 -1157c37,70 87,135 151,191l489 422 0 864c-1280,0 -2560,0 -3840,0l0 1280 1600 0 0 320 -1600 0 0 1280 1600 0 0 640 -2240 0 0 -6080c0,-176 144,-320 320,-320zm3200 320c-177,0 -320,143 -320,320 0,177 143,320 320,320 177,0 320,-143 320,-320 0,-177 -143,-320 -320,-320z"/>
	<path id="curve1" fill="#235DB8" d="M3616 7360l-736 0c-68,0 -126,40 -150,103 -24,64 -8,133 44,177l426 360 -640 0c-176,0 -320,-144 -320,-320l0 -320 -960 0 0 320c0,705 575,1280 1280,1280l320 0 320 0 -426 360c-51,44 -68,113 -44,177 24,63 82,103 150,103l736 0c81,0 150,-28 212,-80l930 -787c154,-129 153,-355 1,-487l-931 -806c-62,-53 -131,-80 -212,-80z"/>
	<path id="curve0" fill="#235DB8" d="M5984 2878l736 0c68,0 126,-40 150,-103 24,-64 8,-133 -44,-177l-426 -360 640 0c176,0 320,144 320,320l0 962 960 0 0 -962c0,-705 -575,-1280 -1280,-1280l-320 0 -320 0 426 -360c52,-44 68,-113 44,-177 -24,-63 -82,-103 -150,-103l-736 0c-81,0 -150,28 -212,80l-930 787c-154,129 -153,355 -1,487l931 806c62,53 131,80 212,80z"/>
</svg>
