<?xml version="1.0" encoding="UTF-8"?>
<!DOCTYPE svg PUBLIC "-//W3C//DTD SVG 1.1//EN" "http://www.w3.org/Graphics/SVG/1.1/DTD/svg11.dtd">
<svg xmlns="http://www.w3.org/2000/svg" xml:space="preserve" width="1024px" height="1024px" shape-rendering="geometricPrecision" text-rendering="geometricPrecision" image-rendering="optimizeQuality" fill-rule="nonzero" clip-rule="evenodd" viewBox="0 0 10240 10240" xmlns:xlink="http://www.w3.org/1999/xlink">
<g transform="translate(0,-2560)">
	<title>element icon</title>
	<desc>element icon from the IconExperience.com O-Collection. Copyright by INCORS GmbH (www.incors.com).</desc>
	<rect fill="#235DB8" x="3000" y="3600" width="4400" height="3000"/>
	<path id="curve0" fill="#252525" d="M3200 3200l3840 0c353,0 640,288 640,640l0 2560c0,352 -288,640 -640,640l-3840 0c-353,0 -640,-287 -640,-640l0 -2560c0,-353 287,-640 640,-640zm0 640l0 2560 3840 0 0 -2560 -3840 0z"/>
</g>

<g transform="scale(20,20)">
    <g id="Layer2" name="Layer 3" opacity="1">
        <g id="Shape2">
            <desc shapeID="2" type="0" basicInfo-basicType="1" basicInfo-roundedRectRadius="12" basicInfo-polygonSides="6" basicInfo-starPoints="5" bounding="rect(-203,-115.5,406,231)" text="" font-familyName="Helvetica" font-pixelSize="20" font-bold="0" font-underline="0" font-alignment="1" strokeStyle="0" markerStart="0" markerEnd="0" shadowEnabled="0" shadowOffsetX="0" shadowOffsetY="2" shadowBlur="4" shadowOpacity="160" blurEnabled="0" blurRadius="4" transform="matrix(0.945813,0,0,1,288.5,340)" pers-center="0,0" pers-size="0,0" pers-start="0,0" pers-end="0,0" locked="0" mesh="" flag=""/>
            <path id="shapePath2" d="M96.5,224.5 L480.5,224.5 L480.5,455.5 L96.5,455.5 L96.5,224.5 Z" style="stroke:url(#radialGradientStroke2);stroke-width:8;stroke-linejoin:miter;stroke-miterlimit:2;stroke-linecap:round;fill-rule:evenodd;fill:url(#linearGradientFill2);fill-opacity:1;"/><defs><radialGradient id="radialGradientStroke2" gradientUnits="userSpaceOnUse" cx="235.062" cy="360" r="448.934" fx="254.164" fy="338.647"><stop offset="0.196831" stop-color="#707072" stop-opacity="1"/><stop offset="1" stop-color="#b2b3b4" stop-opacity="1"/></radialGradient><linearGradient id="linearGradientFill2" gradientUnits="userSpaceOnUse" x1="522.715" y1="231.94" x2="40.1614" y2="233.169"><stop offset="0" stop-color="#f2f5f8" stop-opacity="1"/><stop offset="0.250939" stop-color="#d6d9dc" stop-opacity="1"/><stop offset="0.808927" stop-color="#ffffff" stop-opacity="1"/><stop offset="0.970103" stop-color="#e7eaee" stop-opacity="1"/></linearGradient></defs>
        </g>
    </g>
    <g id="Layer3" name="Layer 1" opacity="1">
        <g id="Shape3">
            <desc shapeID="3" type="0" basicInfo-basicType="0" basicInfo-roundedRectRadius="12" basicInfo-polygonSides="6" basicInfo-starPoints="5" bounding="rect(-192,-16,384,32)" text="" font-familyName="Helvetica" font-pixelSize="36" font-bold="0" font-underline="0" font-alignment="0" strokeStyle="0" markerStart="0" markerEnd="0" shadowEnabled="0" shadowOffsetX="0" shadowOffsetY="2" shadowBlur="4" shadowOpacity="160" blurEnabled="0" blurRadius="4" transform="matrix(1,0,0,1,256.5,304.5)" pers-center="0,0" pers-size="0,0" pers-start="0,0" pers-end="0,0" locked="0" mesh="" flag=""/>
            <path id="shapePath3" d="M64.5,288.5 C64.5,288.5 448.5,320.5 448.5,320.5 " style="stroke:none;fill-rule:evenodd;fill:#000000;fill-opacity:1;"/>
        </g>
        <g id="Shape4">
            <desc shapeID="4" type="0" basicInfo-basicType="0" basicInfo-roundedRectRadius="12" basicInfo-polygonSides="6" basicInfo-starPoints="5" bounding="rect(-176,0,352,0)" text="" font-familyName="Helvetica" font-pixelSize="36" font-bold="0" font-underline="0" font-alignment="0" strokeStyle="0" markerStart="0" markerEnd="0" shadowEnabled="0" shadowOffsetX="0" shadowOffsetY="2" shadowBlur="4" shadowOpacity="160" blurEnabled="0" blurRadius="4" transform="matrix(1,0,0,1,240.5,320.5)" pers-center="0,0" pers-size="0,0" pers-start="0,0" pers-end="0,0" locked="0" mesh="" flag=""/>
            <path id="shapePath4" d="M64.5,320.5 C64.5,320.5 416.5,320.5 416.5,320.5 " style="stroke:none;fill-rule:evenodd;fill:#000000;fill-opacity:1;"/>
        </g>
        <g id="Shape5">
            <desc shapeID="5" type="0" basicInfo-basicType="0" basicInfo-roundedRectRadius="12" basicInfo-polygonSides="6" basicInfo-starPoints="5" bounding="rect(-144,0,288,0)" text="" font-familyName="Helvetica" font-pixelSize="36" font-bold="0" font-underline="0" font-alignment="0" strokeStyle="0" markerStart="0" markerEnd="0" shadowEnabled="0" shadowOffsetX="0" shadowOffsetY="2" shadowBlur="4" shadowOpacity="160" blurEnabled="0" blurRadius="4" transform="matrix(1,0,0,1,272.5,320.5)" pers-center="0,0" pers-size="0,0" pers-start="0,0" pers-end="0,0" locked="0" mesh="" flag=""/>
            <path id="shapePath5" d="M416.5,320.5 C416.5,320.5 128.5,320.5 128.5,320.5 " style="stroke:none;fill-rule:evenodd;fill:#000000;fill-opacity:1;"/>
        </g>
        <g id="Shape6">
            <desc shapeID="6" type="0" basicInfo-basicType="0" basicInfo-roundedRectRadius="12" basicInfo-polygonSides="6" basicInfo-starPoints="5" bounding="rect(-48,-48,96,96)" text="" font-familyName="Helvetica" font-pixelSize="36" font-bold="0" font-underline="0" font-alignment="0" strokeStyle="0" markerStart="0" markerEnd="0" shadowEnabled="0" shadowOffsetX="0" shadowOffsetY="2" shadowBlur="4" shadowOpacity="160" blurEnabled="0" blurRadius="4" transform="matrix(1,0,0,1,240.5,304.5)" pers-center="0,0" pers-size="0,0" pers-start="0,0" pers-end="0,0" locked="0" mesh="" flag=""/>
            <path id="shapePath6" d="M192.5,352.5 C192.5,352.5 288.5,256.5 288.5,256.5 " style="stroke:none;fill-rule:evenodd;fill:#000000;fill-opacity:1;"/>
        </g>
        <g id="Shape7">
            <desc shapeID="7" type="0" basicInfo-basicType="0" basicInfo-roundedRectRadius="12" basicInfo-polygonSides="6" basicInfo-starPoints="5" bounding="rect(-176,0,352,0)" text="" font-familyName="Helvetica" font-pixelSize="36" font-bold="0" font-underline="0" font-alignment="0" strokeStyle="0" markerStart="0" markerEnd="0" shadowEnabled="0" shadowOffsetX="0" shadowOffsetY="2" shadowBlur="4" shadowOpacity="160" blurEnabled="0" blurRadius="4" transform="matrix(1.09091,0,0,1,288.5,308.5)" pers-center="0,0" pers-size="0,0" pers-start="0,0" pers-end="0,0" locked="0" mesh="" flag=""/>
            <path id="shapePath7" d="M96.5,308.5 C96.5,308.5 480.5,308.5 480.5,308.5 " style="stroke:none;fill-rule:evenodd;fill:#000000;fill-opacity:1;"/>
        </g>
        <g id="Shape8">
            <desc shapeID="8" type="0" basicInfo-basicType="0" basicInfo-roundedRectRadius="12" basicInfo-polygonSides="6" basicInfo-starPoints="5" bounding="rect(-192,0,384,0)" text="" font-familyName="Helvetica" font-pixelSize="36" font-bold="0" font-underline="0" font-alignment="0" strokeStyle="0" markerStart="0" markerEnd="0" shadowEnabled="0" shadowOffsetX="0" shadowOffsetY="2" shadowBlur="4" shadowOpacity="160" blurEnabled="0" blurRadius="4" transform="matrix(0.927083,0,0,1,289.5,308.5)" pers-center="0,0" pers-size="0,0" pers-start="0,0" pers-end="0,0" locked="0" mesh="" flag=""/>
            <path id="shapePath8" d="M111.5,308.5 C111.5,308.5 467.5,308.5 467.5,308.5 " style="stroke:#323232;stroke-opacity:1;stroke-width:5;stroke-linejoin:miter;stroke-miterlimit:2;stroke-linecap:round;fill-rule:evenodd;fill:#000000;fill-opacity:1;"/>
        </g>
    </g>
    <g id="Layer4" name="Layer 2" opacity="1">
        <g id="Shape9">
            <desc shapeID="9" type="0" basicInfo-basicType="0" basicInfo-roundedRectRadius="12" basicInfo-polygonSides="6" basicInfo-starPoints="5" bounding="rect(-174.675,-85.4824,349.35,170.965)" text="double RocketPack()&#10;&#10;Makes the SlickEdit window float above all other editor windows." font-familyName="Helvetica" font-pixelSize="36" font-bold="0" font-underline="0" font-alignment="0" strokeStyle="0" markerStart="0" markerEnd="0" shadowEnabled="0" shadowOffsetX="0" shadowOffsetY="2" shadowBlur="4" shadowOpacity="160" blurEnabled="0" blurRadius="4" transform="matrix(1,0,0,1,286.507,341.482)" pers-center="0,0" pers-size="0,0" pers-start="0,0" pers-end="0,0" locked="0" mesh="" flag=""/>
            <path id="shapePath9" d="M117.123,278.113 C117.979,279.473 119.35,280.152 121.236,280.152 C122.701,280.152 123.905,279.522 124.849,278.263 C125.792,277.003 126.264,275.195 126.264,272.84 C126.264,270.461 125.777,268.7 124.805,267.558 C123.832,266.415 122.631,265.844 121.201,265.844 C119.607,265.844 118.315,266.453 117.325,267.672 C116.335,268.891 115.84,270.684 115.84,273.051 C115.84,275.066 116.268,276.754 117.123,278.113 M124.225,263.998 C124.787,264.35 125.426,264.965 126.141,265.844 L126.141,256.334 L129.182,256.334 L129.182,282.244 L126.334,282.244 L126.334,279.625 C125.596,280.785 124.723,281.623 123.715,282.139 C122.707,282.654 121.553,282.912 120.252,282.912 C118.154,282.912 116.338,282.03 114.803,280.267 C113.268,278.503 112.5,276.156 112.5,273.227 C112.5,270.484 113.2,268.108 114.601,266.099 C116.001,264.089 118.002,263.084 120.604,263.084 C122.045,263.084 123.252,263.389 124.225,263.998 M145.638,277.823 C146.417,276.235 146.807,274.469 146.807,272.523 C146.807,270.766 146.525,269.336 145.963,268.234 C145.072,266.5 143.537,265.633 141.357,265.633 C139.424,265.633 138.018,266.371 137.139,267.848 C136.26,269.324 135.82,271.105 135.82,273.191 C135.82,275.195 136.26,276.865 137.139,278.201 C138.018,279.537 139.412,280.205 141.322,280.205 C143.42,280.205 144.858,279.411 145.638,277.823 M147.598,265.299 C149.273,266.916 150.111,269.295 150.111,272.436 C150.111,275.471 149.373,277.979 147.896,279.959 C146.42,281.939 144.129,282.93 141.023,282.93 C138.434,282.93 136.377,282.054 134.854,280.302 C133.33,278.55 132.568,276.197 132.568,273.244 C132.568,270.08 133.371,267.561 134.977,265.686 C136.582,263.811 138.738,262.873 141.445,262.873 C143.871,262.873 145.922,263.682 147.598,265.299 M157.031,263.418 L157.031,275.916 C157.031,276.877 157.184,277.662 157.488,278.271 C158.051,279.396 159.1,279.959 160.635,279.959 C162.838,279.959 164.338,278.975 165.135,277.006 C165.568,275.951 165.785,274.504 165.785,272.664 L165.785,263.418 L168.949,263.418 L168.949,282.244 L165.961,282.244 L165.996,279.467 C165.586,280.182 165.076,280.785 164.467,281.277 C163.26,282.262 161.795,282.754 160.072,282.754 C157.389,282.754 155.561,281.857 154.588,280.064 C154.061,279.104 153.797,277.82 153.797,276.215 L153.797,263.418 L157.031,263.418 M173.637,256.334 L176.713,256.334 L176.713,265.703 C177.404,264.801 178.23,264.112 179.191,263.638 C180.152,263.163 181.195,262.926 182.32,262.926 C184.664,262.926 186.565,263.731 188.024,265.343 C189.483,266.954 190.213,269.33 190.213,272.471 C190.213,275.447 189.492,277.92 188.051,279.889 C186.609,281.857 184.611,282.842 182.057,282.842 C180.627,282.842 179.42,282.496 178.436,281.805 C177.85,281.395 177.223,280.738 176.555,279.836 L176.555,282.244 L173.637,282.244 L173.637,256.334 M185.704,278.008 C186.554,276.648 186.979,274.855 186.979,272.629 C186.979,270.648 186.554,269.008 185.704,267.707 C184.854,266.406 183.604,265.756 181.951,265.756 C180.51,265.756 179.247,266.289 178.163,267.355 C177.079,268.422 176.537,270.18 176.537,272.629 C176.537,274.398 176.76,275.834 177.205,276.936 C178.037,279.01 179.59,280.047 181.863,280.047 C183.574,280.047 184.854,279.367 185.704,278.008 M193.986,256.422 L197.15,256.422 L197.15,282.244 L193.986,282.244 L193.986,256.422 M213.607,263.937 C214.861,264.563 215.816,265.375 216.473,266.371 C217.105,267.32 217.527,268.428 217.738,269.693 C217.926,270.561 218.02,271.943 218.02,273.842 L204.221,273.842 C204.279,275.752 204.73,277.284 205.574,278.438 C206.418,279.593 207.725,280.17 209.494,280.17 C211.146,280.17 212.465,279.625 213.449,278.535 C214.012,277.902 214.41,277.17 214.645,276.338 L217.756,276.338 C217.674,277.029 217.401,277.8 216.938,278.649 C216.476,279.499 215.957,280.193 215.383,280.732 C214.422,281.67 213.232,282.303 211.814,282.631 C211.053,282.818 210.191,282.912 209.23,282.912 C206.887,282.912 204.9,282.06 203.271,280.354 C201.643,278.649 200.828,276.262 200.828,273.191 C200.828,270.168 201.648,267.713 203.289,265.826 C204.93,263.939 207.074,262.996 209.723,262.996 C211.059,262.996 212.354,263.31 213.607,263.937 M214.768,271.328 C214.639,269.957 214.34,268.861 213.871,268.041 C213.004,266.518 211.557,265.756 209.529,265.756 C208.076,265.756 206.857,266.28 205.873,267.329 C204.889,268.378 204.367,269.711 204.309,271.328 L214.768,271.328 M244.326,268.252 C245.967,268.252 247.265,267.924 248.22,267.268 C249.175,266.611 249.652,265.428 249.652,263.717 C249.652,261.877 248.984,260.623 247.648,259.955 C246.934,259.604 245.979,259.428 244.783,259.428 L236.24,259.428 L236.24,268.252 L244.326,268.252 M232.742,256.422 L244.695,256.422 C246.664,256.422 248.287,256.709 249.564,257.283 C251.99,258.385 253.203,260.418 253.203,263.383 C253.203,264.93 252.884,266.195 252.245,267.18 C251.606,268.164 250.713,268.955 249.564,269.553 C250.572,269.963 251.331,270.502 251.841,271.17 C252.351,271.838 252.635,272.922 252.693,274.422 L252.816,277.885 C252.852,278.869 252.934,279.602 253.062,280.082 C253.273,280.902 253.648,281.43 254.188,281.664 L254.188,282.244 L249.898,282.244 C249.781,282.021 249.688,281.734 249.617,281.383 C249.547,281.031 249.488,280.352 249.441,279.344 L249.23,275.037 C249.148,273.35 248.521,272.219 247.35,271.645 C246.682,271.328 245.633,271.17 244.203,271.17 L236.24,271.17 L236.24,282.244 L232.742,282.244 L232.742,256.422 M269.669,277.823 C270.448,276.235 270.838,274.469 270.838,272.523 C270.838,270.766 270.557,269.336 269.994,268.234 C269.104,266.5 267.568,265.633 265.389,265.633 C263.455,265.633 262.049,266.371 261.17,267.848 C260.291,269.324 259.852,271.105 259.852,273.191 C259.852,275.195 260.291,276.865 261.17,278.201 C262.049,279.537 263.443,280.205 265.354,280.205 C267.451,280.205 268.89,279.411 269.669,277.823 M271.629,265.299 C273.305,266.916 274.143,269.295 274.143,272.436 C274.143,275.471 273.404,277.979 271.928,279.959 C270.451,281.939 268.16,282.93 265.055,282.93 C262.465,282.93 260.408,282.054 258.885,280.302 C257.361,278.55 256.6,276.197 256.6,273.244 C256.6,270.08 257.402,267.561 259.008,265.686 C260.613,263.811 262.77,262.873 265.477,262.873 C267.902,262.873 269.953,263.682 271.629,265.299 M290.335,264.42 C291.665,265.451 292.465,267.227 292.734,269.746 L289.658,269.746 C289.471,268.586 289.043,267.622 288.375,266.854 C287.707,266.087 286.635,265.703 285.158,265.703 C283.143,265.703 281.701,266.688 280.834,268.656 C280.271,269.934 279.99,271.51 279.99,273.385 C279.99,275.271 280.389,276.859 281.186,278.148 C281.982,279.438 283.236,280.082 284.947,280.082 C286.26,280.082 287.3,279.681 288.067,278.878 C288.835,278.075 289.365,276.977 289.658,275.582 L292.734,275.582 C292.383,278.078 291.504,279.903 290.098,281.058 C288.691,282.212 286.893,282.789 284.701,282.789 C282.24,282.789 280.277,281.89 278.812,280.091 C277.348,278.292 276.615,276.045 276.615,273.35 C276.615,270.045 277.418,267.473 279.023,265.633 C280.629,263.793 282.674,262.873 285.158,262.873 C287.279,262.873 289.005,263.389 290.335,264.42 M295.828,256.422 L298.869,256.422 L298.869,271.416 L306.99,263.418 L311.033,263.418 L303.826,270.467 L311.438,282.244 L307.395,282.244 L301.523,272.752 L298.869,275.178 L298.869,282.244 L295.828,282.244 L295.828,256.422 M325.623,263.937 C326.877,264.563 327.832,265.375 328.488,266.371 C329.121,267.32 329.543,268.428 329.754,269.693 C329.941,270.561 330.035,271.943 330.035,273.842 L316.236,273.842 C316.295,275.752 316.746,277.284 317.59,278.438 C318.434,279.593 319.74,280.17 321.51,280.17 C323.162,280.17 324.48,279.625 325.465,278.535 C326.027,277.902 326.426,277.17 326.66,276.338 L329.771,276.338 C329.689,277.029 329.417,277.8 328.954,278.649 C328.491,279.499 327.973,280.193 327.398,280.732 C326.438,281.67 325.248,282.303 323.83,282.631 C323.068,282.818 322.207,282.912 321.246,282.912 C318.902,282.912 316.916,282.06 315.287,280.354 C313.658,278.649 312.844,276.262 312.844,273.191 C312.844,270.168 313.664,267.713 315.305,265.826 C316.945,263.939 319.09,262.996 321.738,262.996 C323.074,262.996 324.369,263.31 325.623,263.937 M326.783,271.328 C326.654,269.957 326.355,268.861 325.887,268.041 C325.02,266.518 323.572,265.756 321.545,265.756 C320.092,265.756 318.873,266.28 317.889,267.329 C316.904,268.378 316.383,269.711 316.324,271.328 L326.783,271.328 M334.547,258.162 L337.746,258.162 L337.746,263.418 L340.752,263.418 L340.752,266.002 L337.746,266.002 L337.746,278.289 C337.746,278.945 337.969,279.385 338.414,279.607 C338.66,279.736 339.07,279.801 339.645,279.801 C339.797,279.801 339.961,279.798 340.137,279.792 C340.312,279.786 340.518,279.771 340.752,279.748 L340.752,282.244 C340.389,282.35 340.011,282.426 339.618,282.473 C339.226,282.52 338.801,282.543 338.344,282.543 C336.867,282.543 335.865,282.165 335.338,281.409 C334.811,280.653 334.547,279.672 334.547,278.465 L334.547,266.002 L331.998,266.002 L331.998,263.418 L334.547,263.418 L334.547,258.162 M344.67,256.422 L356.289,256.422 C358.586,256.422 360.438,257.069 361.844,258.364 C363.25,259.659 363.953,261.479 363.953,263.822 C363.953,265.838 363.326,267.593 362.072,269.087 C360.818,270.581 358.891,271.328 356.289,271.328 L348.168,271.328 L348.168,282.244 L344.67,282.244 L344.67,256.422 M358.311,259.973 C357.537,259.609 356.477,259.428 355.129,259.428 L348.168,259.428 L348.168,268.375 L355.129,268.375 C356.699,268.375 357.974,268.041 358.952,267.373 C359.931,266.705 360.42,265.527 360.42,263.84 C360.42,261.941 359.717,260.652 358.311,259.973 M371.342,279.396 C372.01,279.924 372.801,280.188 373.715,280.188 C374.828,280.188 375.906,279.93 376.949,279.414 C378.707,278.559 379.586,277.158 379.586,275.213 L379.586,272.664 C379.199,272.91 378.701,273.115 378.092,273.279 C377.482,273.443 376.885,273.561 376.299,273.631 L374.383,273.877 C373.234,274.029 372.373,274.27 371.799,274.598 C370.826,275.148 370.34,276.027 370.34,277.234 C370.34,278.148 370.674,278.869 371.342,279.396 M378.004,270.836 C378.73,270.742 379.217,270.438 379.463,269.922 C379.604,269.641 379.674,269.236 379.674,268.709 C379.674,267.631 379.29,266.849 378.522,266.362 C377.755,265.876 376.656,265.633 375.227,265.633 C373.574,265.633 372.402,266.078 371.711,266.969 C371.324,267.461 371.072,268.193 370.955,269.166 L368.002,269.166 C368.061,266.846 368.813,265.231 370.261,264.323 C371.708,263.415 373.387,262.961 375.297,262.961 C377.512,262.961 379.311,263.383 380.693,264.227 C382.064,265.07 382.75,266.383 382.75,268.164 L382.75,279.01 C382.75,279.338 382.817,279.602 382.952,279.801 C383.087,280 383.371,280.1 383.805,280.1 C383.945,280.1 384.104,280.091 384.279,280.073 C384.455,280.056 384.643,280.029 384.842,279.994 L384.842,282.332 C384.35,282.473 383.975,282.561 383.717,282.596 C383.459,282.631 383.107,282.648 382.662,282.648 C381.572,282.648 380.781,282.262 380.289,281.488 C380.031,281.078 379.85,280.498 379.744,279.748 C379.1,280.592 378.174,281.324 376.967,281.945 C375.76,282.566 374.43,282.877 372.977,282.877 C371.23,282.877 369.804,282.347 368.696,281.286 C367.589,280.226 367.035,278.898 367.035,277.305 C367.035,275.559 367.58,274.205 368.67,273.244 C369.76,272.283 371.189,271.691 372.959,271.469 L378.004,270.836 M400.366,264.42 C401.696,265.451 402.496,267.227 402.766,269.746 L399.689,269.746 C399.502,268.586 399.074,267.622 398.406,266.854 C397.738,266.087 396.666,265.703 395.189,265.703 C393.174,265.703 391.732,266.688 390.865,268.656 C390.303,269.934 390.021,271.51 390.021,273.385 C390.021,275.271 390.42,276.859 391.217,278.148 C392.014,279.438 393.268,280.082 394.979,280.082 C396.291,280.082 397.331,279.681 398.099,278.878 C398.866,278.075 399.396,276.977 399.689,275.582 L402.766,275.582 C402.414,278.078 401.535,279.903 400.129,281.058 C398.723,282.212 396.924,282.789 394.732,282.789 C392.271,282.789 390.309,281.89 388.844,280.091 C387.379,278.292 386.646,276.045 386.646,273.35 C386.646,270.045 387.449,267.473 389.055,265.633 C390.66,263.793 392.705,262.873 395.189,262.873 C397.311,262.873 399.036,263.389 400.366,264.42 M405.859,256.422 L408.9,256.422 L408.9,271.416 L417.021,263.418 L421.064,263.418 L413.857,270.467 L421.469,282.244 L417.426,282.244 L411.555,272.752 L408.9,275.178 L408.9,282.244 L405.859,282.244 L405.859,256.422 M432.262,256 C430.422,259.574 429.227,262.205 428.676,263.893 C427.844,266.459 427.428,269.424 427.428,272.787 C427.428,276.186 427.902,279.291 428.852,282.104 C429.438,283.838 430.592,286.334 432.314,289.592 L430.188,289.592 C428.477,286.92 427.416,285.215 427.006,284.477 C426.596,283.738 426.15,282.736 425.67,281.471 C425.014,279.736 424.557,277.885 424.299,275.916 C424.17,274.896 424.105,273.924 424.105,272.998 C424.105,269.529 424.65,266.441 425.74,263.734 C426.432,262.012 427.873,259.434 430.064,256 L432.262,256 M434.842,289.592 C436.705,285.959 437.906,283.311 438.445,281.646 C439.266,279.127 439.676,276.174 439.676,272.787 C439.676,269.4 439.201,266.301 438.252,263.488 C437.666,261.754 436.512,259.258 434.789,256 L436.916,256 C438.721,258.883 439.813,260.661 440.194,261.335 C440.575,262.009 440.988,262.938 441.434,264.121 C441.996,265.586 442.397,267.033 442.638,268.463 C442.878,269.893 442.998,271.27 442.998,272.594 C442.998,276.062 442.447,279.156 441.346,281.875 C440.654,283.621 439.219,286.193 437.039,289.592 L434.842,289.592 M114.17,328.422 L119.18,328.422 L126.598,350.254 L133.963,328.422 L138.92,328.422 L138.92,354.244 L135.598,354.244 L135.598,339.004 C135.598,338.477 135.609,337.604 135.633,336.385 C135.656,335.166 135.668,333.859 135.668,332.465 L128.303,354.244 L124.84,354.244 L117.422,332.465 L117.422,333.256 C117.422,333.889 117.437,334.853 117.466,336.147 C117.495,337.442 117.51,338.395 117.51,339.004 L117.51,354.244 L114.17,354.244 L114.17,328.422 M147.248,351.396 C147.916,351.924 148.707,352.188 149.621,352.188 C150.734,352.188 151.812,351.93 152.855,351.414 C154.613,350.559 155.492,349.158 155.492,347.213 L155.492,344.664 C155.105,344.91 154.607,345.115 153.998,345.279 C153.389,345.443 152.791,345.561 152.205,345.631 L150.289,345.877 C149.141,346.029 148.279,346.27 147.705,346.598 C146.732,347.148 146.246,348.027 146.246,349.234 C146.246,350.148 146.58,350.869 147.248,351.396 M153.91,342.836 C154.637,342.742 155.123,342.438 155.369,341.922 C155.51,341.641 155.58,341.236 155.58,340.709 C155.58,339.631 155.196,338.849 154.429,338.362 C153.661,337.876 152.562,337.633 151.133,337.633 C149.48,337.633 148.309,338.078 147.617,338.969 C147.23,339.461 146.979,340.193 146.861,341.166 L143.908,341.166 C143.967,338.846 144.72,337.231 146.167,336.323 C147.614,335.415 149.293,334.961 151.203,334.961 C153.418,334.961 155.217,335.383 156.6,336.227 C157.971,337.07 158.656,338.383 158.656,340.164 L158.656,351.01 C158.656,351.338 158.724,351.602 158.858,351.801 C158.993,352 159.277,352.1 159.711,352.1 C159.852,352.1 160.01,352.091 160.186,352.073 C160.361,352.056 160.549,352.029 160.748,351.994 L160.748,354.332 C160.256,354.473 159.881,354.561 159.623,354.596 C159.365,354.631 159.014,354.648 158.568,354.648 C157.479,354.648 156.688,354.262 156.195,353.488 C155.938,353.078 155.756,352.498 155.65,351.748 C155.006,352.592 154.08,353.324 152.873,353.945 C151.666,354.566 150.336,354.877 148.883,354.877 C147.137,354.877 145.71,354.347 144.603,353.286 C143.495,352.226 142.941,350.898 142.941,349.305 C142.941,347.559 143.486,346.205 144.576,345.244 C145.666,344.283 147.096,343.691 148.865,343.469 L153.91,342.836 M163.766,328.422 L166.807,328.422 L166.807,343.416 L174.928,335.418 L178.971,335.418 L171.764,342.467 L179.375,354.244 L175.332,354.244 L169.461,344.752 L166.807,347.178 L166.807,354.244 L163.766,354.244 L163.766,328.422 M193.561,335.937 C194.814,336.563 195.77,337.375 196.426,338.371 C197.059,339.32 197.48,340.428 197.691,341.693 C197.879,342.561 197.973,343.943 197.973,345.842 L184.174,345.842 C184.232,347.752 184.684,349.284 185.527,350.438 C186.371,351.593 187.678,352.17 189.447,352.17 C191.1,352.17 192.418,351.625 193.402,350.535 C193.965,349.902 194.363,349.17 194.598,348.338 L197.709,348.338 C197.627,349.029 197.354,349.8 196.892,350.649 C196.429,351.499 195.91,352.193 195.336,352.732 C194.375,353.67 193.186,354.303 191.768,354.631 C191.006,354.818 190.145,354.912 189.184,354.912 C186.84,354.912 184.854,354.06 183.225,352.354 C181.596,350.649 180.781,348.262 180.781,345.191 C180.781,342.168 181.602,339.713 183.242,337.826 C184.883,335.939 187.027,334.996 189.676,334.996 C191.012,334.996 192.307,335.31 193.561,335.937 M194.721,343.328 C194.592,341.957 194.293,340.861 193.824,340.041 C192.957,338.518 191.51,337.756 189.482,337.756 C188.029,337.756 186.811,338.28 185.826,339.329 C184.842,340.378 184.32,341.711 184.262,343.328 L194.721,343.328 M203.732,348.338 C203.826,349.393 204.09,350.201 204.523,350.764 C205.32,351.783 206.703,352.293 208.672,352.293 C209.844,352.293 210.875,352.038 211.766,351.528 C212.656,351.019 213.102,350.23 213.102,349.164 C213.102,348.355 212.744,347.74 212.029,347.318 C211.572,347.061 210.67,346.762 209.322,346.422 L206.809,345.789 C205.203,345.391 204.02,344.945 203.258,344.453 C201.898,343.598 201.219,342.414 201.219,340.902 C201.219,339.121 201.86,337.68 203.144,336.578 C204.427,335.477 206.152,334.926 208.32,334.926 C211.156,334.926 213.201,335.758 214.455,337.422 C215.24,338.477 215.621,339.613 215.598,340.832 L212.609,340.832 C212.551,340.117 212.299,339.467 211.854,338.881 C211.127,338.049 209.867,337.633 208.074,337.633 C206.879,337.633 205.974,337.861 205.358,338.318 C204.743,338.775 204.436,339.379 204.436,340.129 C204.436,340.949 204.84,341.605 205.648,342.098 C206.117,342.391 206.809,342.648 207.723,342.871 L209.814,343.381 C212.088,343.932 213.611,344.465 214.385,344.98 C215.615,345.789 216.23,347.061 216.23,348.795 C216.23,350.471 215.595,351.918 214.323,353.137 C213.052,354.355 211.115,354.965 208.514,354.965 C205.713,354.965 203.729,354.329 202.563,353.058 C201.397,351.786 200.773,350.213 200.691,348.338 L203.732,348.338 M230.484,330.162 L233.684,330.162 L233.684,335.418 L236.689,335.418 L236.689,338.002 L233.684,338.002 L233.684,350.289 C233.684,350.945 233.906,351.385 234.352,351.607 C234.598,351.736 235.008,351.801 235.582,351.801 C235.734,351.801 235.898,351.798 236.074,351.792 C236.25,351.786 236.455,351.771 236.689,351.748 L236.689,354.244 C236.326,354.35 235.948,354.426 235.556,354.473 C235.163,354.52 234.738,354.543 234.281,354.543 C232.805,354.543 231.803,354.165 231.275,353.409 C230.748,352.653 230.484,351.672 230.484,350.465 L230.484,338.002 L227.936,338.002 L227.936,335.418 L230.484,335.418 L230.484,330.162 M239.852,328.334 L243.016,328.334 L243.016,337.967 C243.766,337.018 244.439,336.35 245.037,335.963 C246.057,335.295 247.328,334.961 248.852,334.961 C251.582,334.961 253.434,335.916 254.406,337.826 C254.934,338.869 255.197,340.316 255.197,342.168 L255.197,354.244 L251.945,354.244 L251.945,342.379 C251.945,340.996 251.77,339.982 251.418,339.338 C250.844,338.307 249.766,337.791 248.184,337.791 C246.871,337.791 245.682,338.242 244.615,339.145 C243.549,340.047 243.016,341.752 243.016,344.26 L243.016,354.244 L239.852,354.244 L239.852,328.334 M271.592,335.937 C272.846,336.563 273.801,337.375 274.457,338.371 C275.09,339.32 275.512,340.428 275.723,341.693 C275.91,342.561 276.004,343.943 276.004,345.842 L262.205,345.842 C262.264,347.752 262.715,349.284 263.559,350.438 C264.402,351.593 265.709,352.17 267.479,352.17 C269.131,352.17 270.449,351.625 271.434,350.535 C271.996,349.902 272.395,349.17 272.629,348.338 L275.74,348.338 C275.658,349.029 275.386,349.8 274.923,350.649 C274.46,351.499 273.941,352.193 273.367,352.732 C272.406,353.67 271.217,354.303 269.799,354.631 C269.037,354.818 268.176,354.912 267.215,354.912 C264.871,354.912 262.885,354.06 261.256,352.354 C259.627,350.649 258.812,348.262 258.812,345.191 C258.812,342.168 259.633,339.713 261.273,337.826 C262.914,335.939 265.059,334.996 267.707,334.996 C269.043,334.996 270.338,335.31 271.592,335.937 M272.752,343.328 C272.623,341.957 272.324,340.861 271.855,340.041 C270.988,338.518 269.541,337.756 267.514,337.756 C266.061,337.756 264.842,338.28 263.857,339.329 C262.873,340.378 262.352,341.711 262.293,343.328 L272.752,343.328 M292.59,345.912 C292.672,347.377 293.018,348.566 293.627,349.48 C294.787,351.191 296.832,352.047 299.762,352.047 C301.074,352.047 302.27,351.859 303.348,351.484 C305.434,350.758 306.477,349.457 306.477,347.582 C306.477,346.176 306.037,345.174 305.158,344.576 C304.268,343.99 302.873,343.48 300.975,343.047 L297.477,342.256 C295.191,341.74 293.574,341.172 292.625,340.551 C290.984,339.473 290.164,337.861 290.164,335.717 C290.164,333.396 290.967,331.492 292.572,330.004 C294.178,328.516 296.451,327.771 299.393,327.771 C302.1,327.771 304.399,328.425 306.292,329.731 C308.185,331.038 309.131,333.127 309.131,335.998 L305.844,335.998 C305.668,334.615 305.293,333.555 304.719,332.816 C303.652,331.469 301.842,330.795 299.287,330.795 C297.225,330.795 295.742,331.229 294.84,332.096 C293.938,332.963 293.486,333.971 293.486,335.119 C293.486,336.385 294.014,337.311 295.068,337.896 C295.76,338.271 297.324,338.74 299.762,339.303 L303.383,340.129 C305.129,340.527 306.477,341.072 307.426,341.764 C309.066,342.971 309.887,344.723 309.887,347.02 C309.887,349.879 308.847,351.924 306.767,353.154 C304.687,354.385 302.27,355 299.516,355 C296.305,355 293.791,354.18 291.975,352.539 C290.158,350.91 289.268,348.701 289.303,345.912 L292.59,345.912 M313.971,328.422 L317.135,328.422 L317.135,354.244 L313.971,354.244 L313.971,328.422 M321.867,335.506 L325.084,335.506 L325.084,354.244 L321.867,354.244 L321.867,335.506 M321.867,328.422 L325.084,328.422 L325.084,332.008 L321.867,332.008 L321.867,328.422 M342.288,336.42 C343.618,337.451 344.418,339.227 344.688,341.746 L341.611,341.746 C341.424,340.586 340.996,339.622 340.328,338.854 C339.66,338.087 338.588,337.703 337.111,337.703 C335.096,337.703 333.654,338.688 332.787,340.656 C332.225,341.934 331.943,343.51 331.943,345.385 C331.943,347.271 332.342,348.859 333.139,350.148 C333.936,351.438 335.189,352.082 336.9,352.082 C338.213,352.082 339.253,351.681 340.021,350.878 C340.788,350.075 341.318,348.977 341.611,347.582 L344.688,347.582 C344.336,350.078 343.457,351.903 342.051,353.058 C340.645,354.212 338.846,354.789 336.654,354.789 C334.193,354.789 332.23,353.89 330.766,352.091 C329.301,350.292 328.568,348.045 328.568,345.35 C328.568,342.045 329.371,339.473 330.977,337.633 C332.582,335.793 334.627,334.873 337.111,334.873 C339.232,334.873 340.958,335.389 342.288,336.42 M347.781,328.422 L350.822,328.422 L350.822,343.416 L358.943,335.418 L362.986,335.418 L355.779,342.467 L363.391,354.244 L359.348,354.244 L353.477,344.752 L350.822,347.178 L350.822,354.244 L347.781,354.244 L347.781,328.422 M366.607,328.422 L385.434,328.422 L385.434,331.586 L370.018,331.586 L370.018,339.426 L384.273,339.426 L384.273,342.414 L370.018,342.414 L370.018,351.168 L385.697,351.168 L385.697,354.244 L366.607,354.244 L366.607,328.422 M393.139,350.113 C393.994,351.473 395.365,352.152 397.252,352.152 C398.717,352.152 399.921,351.522 400.864,350.263 C401.808,349.003 402.279,347.195 402.279,344.84 C402.279,342.461 401.793,340.7 400.82,339.558 C399.848,338.415 398.646,337.844 397.217,337.844 C395.623,337.844 394.331,338.453 393.341,339.672 C392.351,340.891 391.855,342.684 391.855,345.051 C391.855,347.066 392.283,348.754 393.139,350.113 M400.24,335.998 C400.803,336.35 401.441,336.965 402.156,337.844 L402.156,328.334 L405.197,328.334 L405.197,354.244 L402.35,354.244 L402.35,351.625 C401.611,352.785 400.738,353.623 399.73,354.139 C398.723,354.654 397.568,354.912 396.268,354.912 C394.17,354.912 392.354,354.03 390.818,352.267 C389.283,350.503 388.516,348.156 388.516,345.227 C388.516,342.484 389.216,340.108 390.616,338.099 C392.017,336.089 394.018,335.084 396.619,335.084 C398.061,335.084 399.268,335.389 400.24,335.998 M409.867,335.506 L413.084,335.506 L413.084,354.244 L409.867,354.244 L409.867,335.506 M409.867,328.422 L413.084,328.422 L413.084,332.008 L409.867,332.008 L409.867,328.422 M418.484,330.162 L421.684,330.162 L421.684,335.418 L424.689,335.418 L424.689,338.002 L421.684,338.002 L421.684,350.289 C421.684,350.945 421.906,351.385 422.352,351.607 C422.598,351.736 423.008,351.801 423.582,351.801 C423.734,351.801 423.898,351.798 424.074,351.792 C424.25,351.786 424.455,351.771 424.689,351.748 L424.689,354.244 C424.326,354.35 423.948,354.426 423.556,354.473 C423.163,354.52 422.738,354.543 422.281,354.543 C420.805,354.543 419.803,354.165 419.275,353.409 C418.748,352.653 418.484,351.672 418.484,350.465 L418.484,338.002 L415.936,338.002 L415.936,335.418 L418.484,335.418 L418.484,330.162 M115.295,371.418 L118.916,386.254 L122.59,371.418 L126.141,371.418 L129.832,386.166 L133.682,371.418 L136.846,371.418 L131.379,390.244 L128.092,390.244 L124.26,375.672 L120.551,390.244 L117.264,390.244 L111.832,371.418 L115.295,371.418 M139.82,371.506 L143.037,371.506 L143.037,390.244 L139.82,390.244 L139.82,371.506 M139.82,364.422 L143.037,364.422 L143.037,368.008 L139.82,368.008 L139.82,364.422 M147.805,371.418 L150.811,371.418 L150.811,374.09 C151.701,372.988 152.645,372.197 153.641,371.717 C154.637,371.236 155.744,370.996 156.963,370.996 C159.635,370.996 161.439,371.928 162.377,373.791 C162.893,374.811 163.15,376.27 163.15,378.168 L163.15,390.244 L159.934,390.244 L159.934,378.379 C159.934,377.23 159.764,376.305 159.424,375.602 C158.861,374.43 157.842,373.844 156.365,373.844 C155.615,373.844 155,373.92 154.52,374.072 C153.652,374.33 152.891,374.846 152.234,375.619 C151.707,376.24 151.364,376.882 151.206,377.544 C151.048,378.206 150.969,379.152 150.969,380.383 L150.969,390.244 L147.805,390.244 L147.805,371.418 M171.107,386.113 C171.963,387.473 173.334,388.152 175.221,388.152 C176.686,388.152 177.89,387.522 178.833,386.263 C179.776,385.003 180.248,383.195 180.248,380.84 C180.248,378.461 179.762,376.7 178.789,375.558 C177.816,374.415 176.615,373.844 175.186,373.844 C173.592,373.844 172.3,374.453 171.31,375.672 C170.319,376.891 169.824,378.684 169.824,381.051 C169.824,383.066 170.252,384.754 171.107,386.113 M178.209,371.998 C178.771,372.35 179.41,372.965 180.125,373.844 L180.125,364.334 L183.166,364.334 L183.166,390.244 L180.318,390.244 L180.318,387.625 C179.58,388.785 178.707,389.623 177.699,390.139 C176.691,390.654 175.537,390.912 174.236,390.912 C172.139,390.912 170.322,390.03 168.787,388.267 C167.252,386.503 166.484,384.156 166.484,381.227 C166.484,378.484 167.185,376.108 168.585,374.099 C169.985,372.089 171.986,371.084 174.588,371.084 C176.029,371.084 177.236,371.389 178.209,371.998 M199.622,385.823 C200.401,384.235 200.791,382.469 200.791,380.523 C200.791,378.766 200.51,377.336 199.947,376.234 C199.057,374.5 197.521,373.633 195.342,373.633 C193.408,373.633 192.002,374.371 191.123,375.848 C190.244,377.324 189.805,379.105 189.805,381.191 C189.805,383.195 190.244,384.865 191.123,386.201 C192.002,387.537 193.396,388.205 195.307,388.205 C197.404,388.205 198.843,387.411 199.622,385.823 M201.582,373.299 C203.258,374.916 204.096,377.295 204.096,380.436 C204.096,383.471 203.357,385.979 201.881,387.959 C200.404,389.939 198.113,390.93 195.008,390.93 C192.418,390.93 190.361,390.054 188.838,388.302 C187.314,386.55 186.553,384.197 186.553,381.244 C186.553,378.08 187.355,375.561 188.961,373.686 C190.566,371.811 192.723,370.873 195.43,370.873 C197.855,370.873 199.906,371.682 201.582,373.299 M209.311,371.418 L212.932,386.254 L216.605,371.418 L220.156,371.418 L223.848,386.166 L227.697,371.418 L230.861,371.418 L225.395,390.244 L222.107,390.244 L218.275,375.672 L214.566,390.244 L211.279,390.244 L205.848,371.418 L209.311,371.418 M257.055,390.244 L253.891,390.244 L253.891,364.422 L257.055,364.422 L257.055,390.244 M247.756,390.244 L244.627,390.244 L244.627,374.002 L242.008,374.002 L242.008,371.506 L244.627,371.506 L244.627,368.166 C244.627,366.771 245.058,365.737 245.919,365.063 C246.78,364.39 247.932,364.053 249.373,364.053 C249.654,364.053 249.909,364.062 250.138,364.079 C250.366,364.097 250.627,364.129 250.92,364.176 L250.92,367.006 C250.592,366.982 250.354,366.968 250.208,366.962 C250.062,366.956 249.924,366.953 249.795,366.953 C248.904,366.953 248.312,367.211 248.02,367.727 C247.844,368.02 247.756,368.5 247.756,369.168 L247.756,371.506 L250.92,371.506 L250.92,374.002 L247.756,374.002 L247.756,390.244 M273.622,385.823 C274.401,384.235 274.791,382.469 274.791,380.523 C274.791,378.766 274.51,377.336 273.947,376.234 C273.057,374.5 271.521,373.633 269.342,373.633 C267.408,373.633 266.002,374.371 265.123,375.848 C264.244,377.324 263.805,379.105 263.805,381.191 C263.805,383.195 264.244,384.865 265.123,386.201 C266.002,387.537 267.396,388.205 269.307,388.205 C271.404,388.205 272.843,387.411 273.622,385.823 M275.582,373.299 C277.258,374.916 278.096,377.295 278.096,380.436 C278.096,383.471 277.357,385.979 275.881,387.959 C274.404,389.939 272.113,390.93 269.008,390.93 C266.418,390.93 264.361,390.054 262.838,388.302 C261.314,386.55 260.553,384.197 260.553,381.244 C260.553,378.08 261.355,375.561 262.961,373.686 C264.566,371.811 266.723,370.873 269.43,370.873 C271.855,370.873 273.906,371.682 275.582,373.299 M285.279,387.396 C285.947,387.924 286.738,388.188 287.652,388.188 C288.766,388.188 289.844,387.93 290.887,387.414 C292.645,386.559 293.523,385.158 293.523,383.213 L293.523,380.664 C293.137,380.91 292.639,381.115 292.029,381.279 C291.42,381.443 290.822,381.561 290.236,381.631 L288.32,381.877 C287.172,382.029 286.311,382.27 285.736,382.598 C284.764,383.148 284.277,384.027 284.277,385.234 C284.277,386.148 284.611,386.869 285.279,387.396 M291.941,378.836 C292.668,378.742 293.154,378.438 293.4,377.922 C293.541,377.641 293.611,377.236 293.611,376.709 C293.611,375.631 293.228,374.849 292.46,374.362 C291.692,373.876 290.594,373.633 289.164,373.633 C287.512,373.633 286.34,374.078 285.648,374.969 C285.262,375.461 285.01,376.193 284.893,377.166 L281.939,377.166 C281.998,374.846 282.751,373.231 284.198,372.323 C285.646,371.415 287.324,370.961 289.234,370.961 C291.449,370.961 293.248,371.383 294.631,372.227 C296.002,373.07 296.688,374.383 296.688,376.164 L296.688,387.01 C296.688,387.338 296.755,387.602 296.89,387.801 C297.024,388 297.309,388.1 297.742,388.1 C297.883,388.1 298.041,388.091 298.217,388.073 C298.393,388.056 298.58,388.029 298.779,387.994 L298.779,390.332 C298.287,390.473 297.912,390.561 297.654,390.596 C297.396,390.631 297.045,390.648 296.6,390.648 C295.51,390.648 294.719,390.262 294.227,389.488 C293.969,389.078 293.787,388.498 293.682,387.748 C293.037,388.592 292.111,389.324 290.904,389.945 C289.697,390.566 288.367,390.877 286.914,390.877 C285.168,390.877 283.741,390.347 282.634,389.286 C281.526,388.226 280.973,386.898 280.973,385.305 C280.973,383.559 281.518,382.205 282.607,381.244 C283.697,380.283 285.127,379.691 286.896,379.469 L291.941,378.836 M302.5,366.162 L305.699,366.162 L305.699,371.418 L308.705,371.418 L308.705,374.002 L305.699,374.002 L305.699,386.289 C305.699,386.945 305.922,387.385 306.367,387.607 C306.613,387.736 307.023,387.801 307.598,387.801 C307.75,387.801 307.914,387.798 308.09,387.792 C308.266,387.786 308.471,387.771 308.705,387.748 L308.705,390.244 C308.342,390.35 307.964,390.426 307.571,390.473 C307.179,390.52 306.754,390.543 306.297,390.543 C304.82,390.543 303.818,390.165 303.291,389.409 C302.764,388.653 302.5,387.672 302.5,386.465 L302.5,374.002 L299.951,374.002 L299.951,371.418 L302.5,371.418 L302.5,366.162 M325.295,387.396 C325.963,387.924 326.754,388.188 327.668,388.188 C328.781,388.188 329.859,387.93 330.902,387.414 C332.66,386.559 333.539,385.158 333.539,383.213 L333.539,380.664 C333.152,380.91 332.654,381.115 332.045,381.279 C331.436,381.443 330.838,381.561 330.252,381.631 L328.336,381.877 C327.188,382.029 326.326,382.27 325.752,382.598 C324.779,383.148 324.293,384.027 324.293,385.234 C324.293,386.148 324.627,386.869 325.295,387.396 M331.957,378.836 C332.684,378.742 333.17,378.438 333.416,377.922 C333.557,377.641 333.627,377.236 333.627,376.709 C333.627,375.631 333.243,374.849 332.476,374.362 C331.708,373.876 330.609,373.633 329.18,373.633 C327.527,373.633 326.355,374.078 325.664,374.969 C325.277,375.461 325.025,376.193 324.908,377.166 L321.955,377.166 C322.014,374.846 322.767,373.231 324.214,372.323 C325.661,371.415 327.34,370.961 329.25,370.961 C331.465,370.961 333.264,371.383 334.646,372.227 C336.018,373.07 336.703,374.383 336.703,376.164 L336.703,387.01 C336.703,387.338 336.771,387.602 336.905,387.801 C337.04,388 337.324,388.1 337.758,388.1 C337.898,388.1 338.057,388.091 338.232,388.073 C338.408,388.056 338.596,388.029 338.795,387.994 L338.795,390.332 C338.303,390.473 337.928,390.561 337.67,390.596 C337.412,390.631 337.061,390.648 336.615,390.648 C335.525,390.648 334.734,390.262 334.242,389.488 C333.984,389.078 333.803,388.498 333.697,387.748 C333.053,388.592 332.127,389.324 330.92,389.945 C329.713,390.566 328.383,390.877 326.93,390.877 C325.184,390.877 323.757,390.347 322.649,389.286 C321.542,388.226 320.988,386.898 320.988,385.305 C320.988,383.559 321.533,382.205 322.623,381.244 C323.713,380.283 325.143,379.691 326.912,379.469 L331.957,378.836 M341.637,364.334 L344.713,364.334 L344.713,373.703 C345.404,372.801 346.23,372.112 347.191,371.638 C348.152,371.163 349.195,370.926 350.32,370.926 C352.664,370.926 354.565,371.731 356.024,373.343 C357.483,374.954 358.213,377.33 358.213,380.471 C358.213,383.447 357.492,385.92 356.051,387.889 C354.609,389.857 352.611,390.842 350.057,390.842 C348.627,390.842 347.42,390.496 346.436,389.805 C345.85,389.395 345.223,388.738 344.555,387.836 L344.555,390.244 L341.637,390.244 L341.637,364.334 M353.704,386.008 C354.554,384.648 354.979,382.855 354.979,380.629 C354.979,378.648 354.554,377.008 353.704,375.707 C352.854,374.406 351.604,373.756 349.951,373.756 C348.51,373.756 347.247,374.289 346.163,375.355 C345.079,376.422 344.537,378.18 344.537,380.629 C344.537,382.398 344.76,383.834 345.205,384.936 C346.037,387.01 347.59,388.047 349.863,388.047 C351.574,388.047 352.854,387.367 353.704,386.008 M373.685,385.823 C374.464,384.235 374.854,382.469 374.854,380.523 C374.854,378.766 374.572,377.336 374.01,376.234 C373.119,374.5 371.584,373.633 369.404,373.633 C367.471,373.633 366.064,374.371 365.186,375.848 C364.307,377.324 363.867,379.105 363.867,381.191 C363.867,383.195 364.307,384.865 365.186,386.201 C366.064,387.537 367.459,388.205 369.369,388.205 C371.467,388.205 372.905,387.411 373.685,385.823 M375.645,373.299 C377.32,374.916 378.158,377.295 378.158,380.436 C378.158,383.471 377.42,385.979 375.943,387.959 C374.467,389.939 372.176,390.93 369.07,390.93 C366.48,390.93 364.424,390.054 362.9,388.302 C361.377,386.55 360.615,384.197 360.615,381.244 C360.615,378.08 361.418,375.561 363.023,373.686 C364.629,371.811 366.785,370.873 369.492,370.873 C371.918,370.873 373.969,371.682 375.645,373.299 M383.461,371.418 L388.488,386.746 L393.744,371.418 L397.207,371.418 L390.105,390.244 L386.73,390.244 L379.787,371.418 L383.461,371.418 M411.639,371.937 C412.893,372.563 413.848,373.375 414.504,374.371 C415.137,375.32 415.559,376.428 415.77,377.693 C415.957,378.561 416.051,379.943 416.051,381.842 L402.252,381.842 C402.311,383.752 402.762,385.284 403.605,386.438 C404.449,387.593 405.756,388.17 407.525,388.17 C409.178,388.17 410.496,387.625 411.48,386.535 C412.043,385.902 412.441,385.17 412.676,384.338 L415.787,384.338 C415.705,385.029 415.433,385.8 414.97,386.649 C414.507,387.499 413.988,388.193 413.414,388.732 C412.453,389.67 411.264,390.303 409.846,390.631 C409.084,390.818 408.223,390.912 407.262,390.912 C404.918,390.912 402.932,390.06 401.303,388.354 C399.674,386.649 398.859,384.262 398.859,381.191 C398.859,378.168 399.68,375.713 401.32,373.826 C402.961,371.939 405.105,370.996 407.754,370.996 C409.09,370.996 410.385,371.31 411.639,371.937 M412.799,379.328 C412.67,377.957 412.371,376.861 411.902,376.041 C411.035,374.518 409.588,373.756 407.561,373.756 C406.107,373.756 404.889,374.28 403.904,375.329 C402.92,376.378 402.398,377.711 402.34,379.328 L412.799,379.328 M433.357,387.396 C434.025,387.924 434.816,388.188 435.73,388.188 C436.844,388.188 437.922,387.93 438.965,387.414 C440.723,386.559 441.602,385.158 441.602,383.213 L441.602,380.664 C441.215,380.91 440.717,381.115 440.107,381.279 C439.498,381.443 438.9,381.561 438.314,381.631 L436.398,381.877 C435.25,382.029 434.389,382.27 433.814,382.598 C432.842,383.148 432.355,384.027 432.355,385.234 C432.355,386.148 432.689,386.869 433.357,387.396 M440.02,378.836 C440.746,378.742 441.232,378.438 441.479,377.922 C441.619,377.641 441.689,377.236 441.689,376.709 C441.689,375.631 441.306,374.849 440.538,374.362 C439.771,373.876 438.672,373.633 437.242,373.633 C435.59,373.633 434.418,374.078 433.727,374.969 C433.34,375.461 433.088,376.193 432.971,377.166 L430.018,377.166 C430.076,374.846 430.829,373.231 432.276,372.323 C433.724,371.415 435.402,370.961 437.312,370.961 C439.527,370.961 441.326,371.383 442.709,372.227 C444.08,373.07 444.766,374.383 444.766,376.164 L444.766,387.01 C444.766,387.338 444.833,387.602 444.968,387.801 C445.103,388 445.387,388.1 445.82,388.1 C445.961,388.1 446.119,388.091 446.295,388.073 C446.471,388.056 446.658,388.029 446.857,387.994 L446.857,390.332 C446.365,390.473 445.99,390.561 445.732,390.596 C445.475,390.631 445.123,390.648 444.678,390.648 C443.588,390.648 442.797,390.262 442.305,389.488 C442.047,389.078 441.865,388.498 441.76,387.748 C441.115,388.592 440.189,389.324 438.982,389.945 C437.775,390.566 436.445,390.877 434.992,390.877 C433.246,390.877 431.819,390.347 430.712,389.286 C429.604,388.226 429.051,386.898 429.051,385.305 C429.051,383.559 429.596,382.205 430.686,381.244 C431.775,380.283 433.205,379.691 434.975,379.469 L440.02,378.836 M450.033,364.422 L453.197,364.422 L453.197,390.244 L450.033,390.244 L450.033,364.422 M458.018,364.422 L461.182,364.422 L461.182,390.244 L458.018,390.244 L458.018,364.422 M125.622,421.823 C126.401,420.235 126.791,418.469 126.791,416.523 C126.791,414.766 126.51,413.336 125.947,412.234 C125.057,410.5 123.521,409.633 121.342,409.633 C119.408,409.633 118.002,410.371 117.123,411.848 C116.244,413.324 115.805,415.105 115.805,417.191 C115.805,419.195 116.244,420.865 117.123,422.201 C118.002,423.537 119.396,424.205 121.307,424.205 C123.404,424.205 124.843,423.411 125.622,421.823 M127.582,409.299 C129.258,410.916 130.096,413.295 130.096,416.436 C130.096,419.471 129.357,421.979 127.881,423.959 C126.404,425.939 124.113,426.93 121.008,426.93 C118.418,426.93 116.361,426.054 114.838,424.302 C113.314,422.55 112.553,420.197 112.553,417.244 C112.553,414.08 113.355,411.561 114.961,409.686 C116.566,407.811 118.723,406.873 121.43,406.873 C123.855,406.873 125.906,407.682 127.582,409.299 M134.484,402.162 L137.684,402.162 L137.684,407.418 L140.689,407.418 L140.689,410.002 L137.684,410.002 L137.684,422.289 C137.684,422.945 137.906,423.385 138.352,423.607 C138.598,423.736 139.008,423.801 139.582,423.801 C139.734,423.801 139.898,423.798 140.074,423.792 C140.25,423.786 140.455,423.771 140.689,423.748 L140.689,426.244 C140.326,426.35 139.948,426.426 139.556,426.473 C139.163,426.52 138.738,426.543 138.281,426.543 C136.805,426.543 135.803,426.165 135.275,425.409 C134.748,424.653 134.484,423.672 134.484,422.465 L134.484,410.002 L131.936,410.002 L131.936,407.418 L134.484,407.418 L134.484,402.162 M143.852,400.334 L147.016,400.334 L147.016,409.967 C147.766,409.018 148.439,408.35 149.037,407.963 C150.057,407.295 151.328,406.961 152.852,406.961 C155.582,406.961 157.434,407.916 158.406,409.826 C158.934,410.869 159.197,412.316 159.197,414.168 L159.197,426.244 L155.945,426.244 L155.945,414.379 C155.945,412.996 155.77,411.982 155.418,411.338 C154.844,410.307 153.766,409.791 152.184,409.791 C150.871,409.791 149.682,410.242 148.615,411.145 C147.549,412.047 147.016,413.752 147.016,416.26 L147.016,426.244 L143.852,426.244 L143.852,400.334 M175.592,407.937 C176.846,408.563 177.801,409.375 178.457,410.371 C179.09,411.32 179.512,412.428 179.723,413.693 C179.91,414.561 180.004,415.943 180.004,417.842 L166.205,417.842 C166.264,419.752 166.715,421.284 167.559,422.438 C168.402,423.593 169.709,424.17 171.479,424.17 C173.131,424.17 174.449,423.625 175.434,422.535 C175.996,421.902 176.395,421.17 176.629,420.338 L179.74,420.338 C179.658,421.029 179.386,421.8 178.923,422.649 C178.46,423.499 177.941,424.193 177.367,424.732 C176.406,425.67 175.217,426.303 173.799,426.631 C173.037,426.818 172.176,426.912 171.215,426.912 C168.871,426.912 166.885,426.06 165.256,424.354 C163.627,422.649 162.812,420.262 162.812,417.191 C162.812,414.168 163.633,411.713 165.273,409.826 C166.914,407.939 169.059,406.996 171.707,406.996 C173.043,406.996 174.338,407.31 175.592,407.937 M176.752,415.328 C176.623,413.957 176.324,412.861 175.855,412.041 C174.988,410.518 173.541,409.756 171.514,409.756 C170.061,409.756 168.842,410.28 167.857,411.329 C166.873,412.378 166.352,413.711 166.293,415.328 L176.752,415.328 M183.971,407.418 L186.977,407.418 L186.977,410.67 C187.223,410.037 187.826,409.267 188.787,408.358 C189.748,407.45 190.855,406.996 192.109,406.996 C192.168,406.996 192.268,407.002 192.408,407.014 C192.549,407.025 192.789,407.049 193.129,407.084 L193.129,410.424 C192.941,410.389 192.769,410.365 192.61,410.354 C192.452,410.342 192.279,410.336 192.092,410.336 C190.498,410.336 189.273,410.849 188.418,411.874 C187.562,412.899 187.135,414.08 187.135,415.416 L187.135,426.244 L183.971,426.244 L183.971,407.418 M217.592,407.937 C218.846,408.563 219.801,409.375 220.457,410.371 C221.09,411.32 221.512,412.428 221.723,413.693 C221.91,414.561 222.004,415.943 222.004,417.842 L208.205,417.842 C208.264,419.752 208.715,421.284 209.559,422.438 C210.402,423.593 211.709,424.17 213.479,424.17 C215.131,424.17 216.449,423.625 217.434,422.535 C217.996,421.902 218.395,421.17 218.629,420.338 L221.74,420.338 C221.658,421.029 221.386,421.8 220.923,422.649 C220.46,423.499 219.941,424.193 219.367,424.732 C218.406,425.67 217.217,426.303 215.799,426.631 C215.037,426.818 214.176,426.912 213.215,426.912 C210.871,426.912 208.885,426.06 207.256,424.354 C205.627,422.649 204.812,420.262 204.812,417.191 C204.812,414.168 205.633,411.713 207.273,409.826 C208.914,407.939 211.059,406.996 213.707,406.996 C215.043,406.996 216.338,407.31 217.592,407.937 M218.752,415.328 C218.623,413.957 218.324,412.861 217.855,412.041 C216.988,410.518 215.541,409.756 213.514,409.756 C212.061,409.756 210.842,410.28 209.857,411.329 C208.873,412.378 208.352,413.711 208.293,415.328 L218.752,415.328 M229.17,422.113 C230.025,423.473 231.396,424.152 233.283,424.152 C234.748,424.152 235.952,423.522 236.896,422.263 C237.839,421.003 238.311,419.195 238.311,416.84 C238.311,414.461 237.824,412.7 236.852,411.558 C235.879,410.415 234.678,409.844 233.248,409.844 C231.654,409.844 230.362,410.453 229.372,411.672 C228.382,412.891 227.887,414.684 227.887,417.051 C227.887,419.066 228.314,420.754 229.17,422.113 M236.271,407.998 C236.834,408.35 237.473,408.965 238.188,409.844 L238.188,400.334 L241.229,400.334 L241.229,426.244 L238.381,426.244 L238.381,423.625 C237.643,424.785 236.77,425.623 235.762,426.139 C234.754,426.654 233.6,426.912 232.299,426.912 C230.201,426.912 228.385,426.03 226.85,424.267 C225.314,422.503 224.547,420.156 224.547,417.227 C224.547,414.484 225.247,412.108 226.647,410.099 C228.048,408.089 230.049,407.084 232.65,407.084 C234.092,407.084 235.299,407.389 236.271,407.998 M245.898,407.506 L249.115,407.506 L249.115,426.244 L245.898,426.244 L245.898,407.506 M245.898,400.422 L249.115,400.422 L249.115,404.008 L245.898,404.008 L245.898,400.422 M254.516,402.162 L257.715,402.162 L257.715,407.418 L260.721,407.418 L260.721,410.002 L257.715,410.002 L257.715,422.289 C257.715,422.945 257.938,423.385 258.383,423.607 C258.629,423.736 259.039,423.801 259.613,423.801 C259.766,423.801 259.93,423.798 260.105,423.792 C260.281,423.786 260.486,423.771 260.721,423.748 L260.721,426.244 C260.357,426.35 259.979,426.426 259.587,426.473 C259.194,426.52 258.77,426.543 258.312,426.543 C256.836,426.543 255.834,426.165 255.307,425.409 C254.779,424.653 254.516,423.672 254.516,422.465 L254.516,410.002 L251.967,410.002 L251.967,407.418 L254.516,407.418 L254.516,402.162 M275.669,421.823 C276.448,420.235 276.838,418.469 276.838,416.523 C276.838,414.766 276.557,413.336 275.994,412.234 C275.104,410.5 273.568,409.633 271.389,409.633 C269.455,409.633 268.049,410.371 267.17,411.848 C266.291,413.324 265.852,415.105 265.852,417.191 C265.852,419.195 266.291,420.865 267.17,422.201 C268.049,423.537 269.443,424.205 271.354,424.205 C273.451,424.205 274.89,423.411 275.669,421.823 M277.629,409.299 C279.305,410.916 280.143,413.295 280.143,416.436 C280.143,419.471 279.404,421.979 277.928,423.959 C276.451,425.939 274.16,426.93 271.055,426.93 C268.465,426.93 266.408,426.054 264.885,424.302 C263.361,422.55 262.6,420.197 262.6,417.244 C262.6,414.08 263.402,411.561 265.008,409.686 C266.613,407.811 268.77,406.873 271.477,406.873 C273.902,406.873 275.953,407.682 277.629,409.299 M283.986,407.418 L286.992,407.418 L286.992,410.67 C287.238,410.037 287.842,409.267 288.803,408.358 C289.764,407.45 290.871,406.996 292.125,406.996 C292.184,406.996 292.283,407.002 292.424,407.014 C292.564,407.025 292.805,407.049 293.145,407.084 L293.145,410.424 C292.957,410.389 292.784,410.365 292.626,410.354 C292.468,410.342 292.295,410.336 292.107,410.336 C290.514,410.336 289.289,410.849 288.434,411.874 C287.578,412.899 287.15,414.08 287.15,415.416 L287.15,426.244 L283.986,426.244 L283.986,407.418 M307.342,407.418 L310.963,422.254 L314.637,407.418 L318.188,407.418 L321.879,422.166 L325.729,407.418 L328.893,407.418 L323.426,426.244 L320.139,426.244 L316.307,411.672 L312.598,426.244 L309.311,426.244 L303.879,407.418 L307.342,407.418 M331.867,407.506 L335.084,407.506 L335.084,426.244 L331.867,426.244 L331.867,407.506 M331.867,400.422 L335.084,400.422 L335.084,404.008 L331.867,404.008 L331.867,400.422 M339.852,407.418 L342.857,407.418 L342.857,410.09 C343.748,408.988 344.691,408.197 345.688,407.717 C346.684,407.236 347.791,406.996 349.01,406.996 C351.682,406.996 353.486,407.928 354.424,409.791 C354.939,410.811 355.197,412.27 355.197,414.168 L355.197,426.244 L351.98,426.244 L351.98,414.379 C351.98,413.23 351.811,412.305 351.471,411.602 C350.908,410.43 349.889,409.844 348.412,409.844 C347.662,409.844 347.047,409.92 346.566,410.072 C345.699,410.33 344.938,410.846 344.281,411.619 C343.754,412.24 343.411,412.882 343.253,413.544 C343.095,414.206 343.016,415.152 343.016,416.383 L343.016,426.244 L339.852,426.244 L339.852,407.418 M363.154,422.113 C364.01,423.473 365.381,424.152 367.268,424.152 C368.732,424.152 369.937,423.522 370.88,422.263 C371.823,421.003 372.295,419.195 372.295,416.84 C372.295,414.461 371.809,412.7 370.836,411.558 C369.863,410.415 368.662,409.844 367.232,409.844 C365.639,409.844 364.347,410.453 363.356,411.672 C362.366,412.891 361.871,414.684 361.871,417.051 C361.871,419.066 362.299,420.754 363.154,422.113 M370.256,407.998 C370.818,408.35 371.457,408.965 372.172,409.844 L372.172,400.334 L375.213,400.334 L375.213,426.244 L372.365,426.244 L372.365,423.625 C371.627,424.785 370.754,425.623 369.746,426.139 C368.738,426.654 367.584,426.912 366.283,426.912 C364.186,426.912 362.369,426.03 360.834,424.267 C359.299,422.503 358.531,420.156 358.531,417.227 C358.531,414.484 359.231,412.108 360.632,410.099 C362.032,408.089 364.033,407.084 366.635,407.084 C368.076,407.084 369.283,407.389 370.256,407.998 M391.669,421.823 C392.448,420.235 392.838,418.469 392.838,416.523 C392.838,414.766 392.557,413.336 391.994,412.234 C391.104,410.5 389.568,409.633 387.389,409.633 C385.455,409.633 384.049,410.371 383.17,411.848 C382.291,413.324 381.852,415.105 381.852,417.191 C381.852,419.195 382.291,420.865 383.17,422.201 C384.049,423.537 385.443,424.205 387.354,424.205 C389.451,424.205 390.89,423.411 391.669,421.823 M393.629,409.299 C395.305,410.916 396.143,413.295 396.143,416.436 C396.143,419.471 395.404,421.979 393.928,423.959 C392.451,425.939 390.16,426.93 387.055,426.93 C384.465,426.93 382.408,426.054 380.885,424.302 C379.361,422.55 378.6,420.197 378.6,417.244 C378.6,414.08 379.402,411.561 381.008,409.686 C382.613,407.811 384.77,406.873 387.477,406.873 C389.902,406.873 391.953,407.682 393.629,409.299 M401.357,407.418 L404.979,422.254 L408.652,407.418 L412.203,407.418 L415.895,422.166 L419.744,407.418 L422.908,407.418 L417.441,426.244 L414.154,426.244 L410.322,411.672 L406.613,426.244 L403.326,426.244 L397.895,407.418 L401.357,407.418 M427.764,420.338 C427.857,421.393 428.121,422.201 428.555,422.764 C429.352,423.783 430.734,424.293 432.703,424.293 C433.875,424.293 434.906,424.038 435.797,423.528 C436.688,423.019 437.133,422.23 437.133,421.164 C437.133,420.355 436.775,419.74 436.061,419.318 C435.604,419.061 434.701,418.762 433.354,418.422 L430.84,417.789 C429.234,417.391 428.051,416.945 427.289,416.453 C425.93,415.598 425.25,414.414 425.25,412.902 C425.25,411.121 425.892,409.68 427.175,408.578 C428.458,407.477 430.184,406.926 432.352,406.926 C435.188,406.926 437.232,407.758 438.486,409.422 C439.271,410.477 439.652,411.613 439.629,412.832 L436.641,412.832 C436.582,412.117 436.33,411.467 435.885,410.881 C435.158,410.049 433.898,409.633 432.105,409.633 C430.91,409.633 430.005,409.861 429.39,410.318 C428.774,410.775 428.467,411.379 428.467,412.129 C428.467,412.949 428.871,413.605 429.68,414.098 C430.148,414.391 430.84,414.648 431.754,414.871 L433.846,415.381 C436.119,415.932 437.643,416.465 438.416,416.98 C439.646,417.789 440.262,419.061 440.262,420.795 C440.262,422.471 439.626,423.918 438.354,425.137 C437.083,426.355 435.146,426.965 432.545,426.965 C429.744,426.965 427.761,426.329 426.595,425.058 C425.429,423.786 424.805,422.213 424.723,420.338 L427.764,420.338 M444.639,422.412 L448.312,422.412 L448.312,426.244 L444.639,426.244 L444.639,422.412 Z" style="stroke:none;fill-rule:nonzero;fill:#000000;fill-opacity:1;"/>
        </g>
    </g>
</g>
</svg>
