<?xml version="1.0" encoding="UTF-8"?>
<!DOCTYPE svg PUBLIC "-//W3C//DTD SVG 1.1//EN" "http://www.w3.org/Graphics/SVG/1.1/DTD/svg11.dtd">
<svg xmlns="http://www.w3.org/2000/svg" xml:space="preserve" width="1024px" height="1024px" shape-rendering="geometricPrecision" text-rendering="geometricPrecision" image-rendering="optimizeQuality" fill-rule="nonzero" clip-rule="evenodd" viewBox="0 0 10240 10240" xmlns:xlink="http://www.w3.org/1999/xlink">
	<title>hard_drive icon</title>
	<desc>hard_drive icon from the IconExperience.com O-Collection. Copyright by INCORS GmbH (www.incors.com).</desc>
	<path id="curve3" fill="#252525" d="M7177 7063c38,12 97,32 133,50 316,159 444,543 285,859 -158,316 -542,444 -858,286 -56,-28 -86,-59 -134,-92l-1756 -1215c-135,-92 -186,-266 -113,-412 73,-145 243,-208 397,-157l2046 681z"/>
	<path id="curve2" fill="#252525" d="M5120 4480c177,0 320,143 320,320 0,177 -143,320 -320,320 -177,0 -320,-143 -320,-320 0,-177 143,-320 320,-320z"/>
	<path id="curve1" fill="#235DB8" d="M5120 2240c1414,0 2560,1146 2560,2560 0,720 -297,1370 -775,1835l-1673 -556c-304,-101 -640,29 -784,317 -145,289 -47,636 217,819l190 131c-1289,-132 -2295,-1222 -2295,-2546 0,-1414 1146,-2560 2560,-2560zm0 1600c-530,0 -960,430 -960,960 0,530 430,960 960,960 530,0 960,-430 960,-960 0,-530 -430,-960 -960,-960z"/>
	<path id="curve0" fill="#252525" d="M2240 960l5760 0c353,0 640,288 640,640l0 7040c0,352 -288,640 -640,640l-5760 0c-352,0 -640,-287 -640,-640l0 -7040c0,-352 287,-640 640,-640zm5038 5799l-36 -12c471,-512 758,-1196 758,-1947 0,-1591 -1289,-2880 -2880,-2880 -1591,0 -2880,1289 -2880,2880 0,1591 1289,2880 2880,2880 70,0 138,-3 207,-7l1094 756c61,42 102,80 172,115 474,237 1051,45 1288,-429 238,-474 46,-1050 -428,-1288 -55,-28 -117,-48 -175,-68zm402 -5159c-177,0 -320,143 -320,320 0,177 143,320 320,320 177,0 320,-143 320,-320 0,-177 -143,-320 -320,-320zm-5120 6400c-177,0 -320,143 -320,320 0,177 143,320 320,320 177,0 320,-143 320,-320 0,-177 -143,-320 -320,-320zm0 -6400c-177,0 -320,143 -320,320 0,177 143,320 320,320 177,0 320,-143 320,-320 0,-177 -143,-320 -320,-320z"/>
</svg>
