<?xml version="1.0" encoding="UTF-8"?>
<!DOCTYPE svg PUBLIC "-//W3C//DTD SVG 1.1//EN" "http://www.w3.org/Graphics/SVG/1.1/DTD/svg11.dtd">
<svg xmlns="http://www.w3.org/2000/svg" xml:space="preserve" width="1024px" height="1024px" shape-rendering="geometricPrecision" text-rendering="geometricPrecision" image-rendering="optimizeQuality" fill-rule="nonzero" clip-rule="evenodd" viewBox="0 0 10240 10240" xmlns:xlink="http://www.w3.org/1999/xlink">
	<title>element icon</title>
	<desc>element icon from the IconExperience.com O-Collection. Copyright by INCORS GmbH (www.incors.com).</desc>
	<path id="curve0" fill="#252525" d="M3200 3200l3840 0c353,0 640,288 640,640l0 2560c0,352 -288,640 -640,640l-3840 0c-353,0 -640,-287 -640,-640l0 -2560c0,-353 287,-640 640,-640zm0 640l0 2560 3840 0 0 -2560 -3840 0z"/>


<g comp-op="clear">
<g transform="translate(0,2560) scale(0.5,0.5)"  stroke="#252525" stroke-width="512" stroke-linejoin="round">
	<title>plus icon</title>
	<desc>plus icon from the IconExperience.com O-Collection. Copyright by INCORS GmbH (www.incors.com).</desc>
	<path id="curve0" fill="#235DB8" d="M960 3840l2880 0 0 -2880c0,-176 144,-320 320,-320l1920 0c176,0 320,144 320,320l0 2880 2880 0c176,0 320,144 320,320l0 1920c0,176 -144,320 -320,320l-2880 0 0 2880c0,176 -144,320 -320,320l-1920 0c-176,0 -320,-144 -320,-320l0 -2880 -2880 0c-176,0 -320,-144 -320,-320l0 -1920c0,-176 144,-320 320,-320z"/>
</g>
</g>



<g transform="translate(0,2560) scale(0.5,0.5)">
	<title>plus icon</title>
	<desc>plus icon from the IconExperience.com O-Collection. Copyright by INCORS GmbH (www.incors.com).</desc>
	<path id="curve0" fill="#235DB8" d="M960 3840l2880 0 0 -2880c0,-176 144,-320 320,-320l1920 0c176,0 320,144 320,320l0 2880 2880 0c176,0 320,144 320,320l0 1920c0,176 -144,320 -320,320l-2880 0 0 2880c0,176 -144,320 -320,320l-1920 0c-176,0 -320,-144 -320,-320l0 -2880 -2880 0c-176,0 -320,-144 -320,-320l0 -1920c0,-176 144,-320 320,-320z"/>
</g>

</svg>
