<?xml version="1.0" encoding="UTF-8"?>
<!DOCTYPE svg PUBLIC "-//W3C//DTD SVG 1.1//EN" "http://www.w3.org/Graphics/SVG/1.1/DTD/svg11.dtd">
<svg xmlns="http://www.w3.org/2000/svg" xml:space="preserve" width="1024px" height="1024px" shape-rendering="geometricPrecision" text-rendering="geometricPrecision" image-rendering="optimizeQuality" fill-rule="nonzero" clip-rule="evenodd" viewBox="0 0 10240 10240" xmlns:xlink="http://www.w3.org/1999/xlink">
	<title>code_java icon</title>
	<desc>code_java icon from the IconExperience.com O-Collection. Copyright by INCORS GmbH (www.incors.com).</desc>
	<path id="curve2" fill="#235DB8" d="M8640 8320c0,353 -287,640 -640,640 -353,0 -640,-287 -640,-640l-640 0c0,707 573,1280 1280,1280 707,0 1280,-573 1280,-1280l0 -1920 -640 0 0 1920z"/>
	<path id="curve1" fill="#252525" d="M2560 7680l1920 0 0 640 -1920 0 0 -640zm0 -5760l1920 0 0 640 -1920 0 0 -640zm1280 960l2560 0 0 640 -2560 0 0 -640zm1280 960l2560 0 0 640 -2560 0 0 -640zm0 960l1920 0 0 640 -1920 0 0 -640zm-1280 960l1920 0 0 640 -1920 0 0 -640zm0 960l2560 0 0 640 -2560 0 0 -640zm2880 0l960 0 0 640 -960 0 0 -640z"/>
	<path id="curve0" fill="#252525" d="M8960 640l-7680 0 0 8960 5760 0c-220,-165 -395,-385 -507,-640l-4613 0 0 -7680 6400 0 0 5120c0,-176 144,-320 320,-320l320 0 0 -5440z"/>
</svg>
