<?xml version="1.0" encoding="UTF-8"?>
<!DOCTYPE svg PUBLIC "-//W3C//DTD SVG 1.1//EN" "http://www.w3.org/Graphics/SVG/1.1/DTD/svg11.dtd">
<svg xmlns="http://www.w3.org/2000/svg" xml:space="preserve" width="1024px" height="1024px" shape-rendering="geometricPrecision" text-rendering="geometricPrecision" image-rendering="optimizeQuality" fill-rule="nonzero" clip-rule="evenodd" viewBox="0 0 10240 10240" xmlns:xlink="http://www.w3.org/1999/xlink">
	<title>table icon</title>
	<desc>table icon from the IconExperience.com O-Collection. Copyright by INCORS GmbH (www.incors.com).</desc>
	<path id="curve0" fill="#252525" d="M9280 9280c-2773,0 -5547,0 -8320,0 0,-2556 0,-4889 0,-7360 0,-353 287,-640 640,-640l7040 0c353,0 640,287 640,640 0,2471 0,4804 0,7360zm-8000 -6400l0 1280 1280 0 0 -1280 -1280 0zm1600 0l0 1280 1280 0 0 -1280 -1280 0zm1600 0l0 1280 1280 0 0 -1280 -1280 0zm1600 0l0 1280 1280 0 0 -1280 -1280 0zm1600 0l0 1280 1280 0 0 -1280 -1280 0zm-6400 1600l0 1280 1280 0 0 -1280 -1280 0zm1600 0l0 1280 1280 0 0 -1280 -1280 0zm1600 0l0 1280 1280 0 0 -1280 -1280 0zm1600 0l0 1280 1280 0 0 -1280 -1280 0zm1600 0l0 1280 1280 0 0 -1280 -1280 0zm-6400 1600l0 1280 1280 0 0 -1280 -1280 0zm1600 0l0 1280 1280 0 0 -1280 -1280 0zm1600 0l0 1280 1280 0 0 -1280 -1280 0zm1600 0l0 1280 1280 0 0 -1280 -1280 0zm1600 0l0 1280 1280 0 0 -1280 -1280 0zm-6400 1600l0 1280 1280 0 0 -1280 -1280 0zm1600 0l0 1280 1280 0 0 -1280 -1280 0zm1600 0l0 1280 1280 0 0 -1280 -1280 0zm1600 0l0 1280 1280 0 0 -1280 -1280 0zm1600 0l0 1280 1280 0 0 -1280 -1280 0z"/>


<g comp-op="clear">
<g transform="translate(5120,5120) scale(0.5,0.5)"  stroke="#252525" stroke-width="512" stroke-linejoin="round">
	<title>message icon</title>
	<desc>message icon from the IconExperience.com O-Collection. Copyright by INCORS GmbH (www.incors.com).</desc>
        <ellipse fill="#ffffff" cx="5120" cy="4020" rx="4000" ry="3100"/>
        <ellipse fill="#ffffff" cx="6600" cy="7000" rx="1300" ry="1600"/>
	<path id="curve1" fill="#252525" d="M5120 640c2474,0 4480,1576 4480,3520 0,911 -440,1740 -1162,2365 -108,93 -174,203 -206,341 -318,1393 -1486,2414 -3112,2414 213,-213 354,-475 449,-761 66,-198 37,-398 -84,-569 -120,-172 -298,-267 -507,-272 -2409,-59 -4338,-1611 -4338,-3518 0,-1944 2006,-3520 4480,-3520zm1119 7774c681,-300 1186,-886 1370,-1690 62,-271 200,-501 410,-683 556,-481 941,-1132 941,-1881 0,-217 -32,-431 -96,-638 -205,-670 -708,-1206 -1291,-1572 -727,-456 -1599,-670 -2453,-670 -854,0 -1726,214 -2453,670 -583,366 -1086,902 -1291,1572 -64,207 -96,421 -96,638 0,217 33,431 96,638 452,1477 2191,2205 3617,2240 412,11 779,206 1016,544 175,248 253,539 230,832z"/>
	<path id="curve0" fill="#252525" d="M3200 2560l3840 0 0 640 -3840 0 0 -640zm0 2560l3840 0 0 640 -3840 0 0 -640zm0 -1280l3840 0 0 640 -3840 0 0 -640z"/>
</g>
</g>



<g transform="translate(5120,5120) scale(0.5,0.5)">
	<title>message icon</title>
	<desc>message icon from the IconExperience.com O-Collection. Copyright by INCORS GmbH (www.incors.com).</desc>
        <ellipse fill="#ffffff" cx="5120" cy="4020" rx="4000" ry="3100"/>
        <ellipse fill="#ffffff" cx="6600" cy="7000" rx="1300" ry="1600"/>
	<path id="curve1" fill="#252525" d="M5120 640c2474,0 4480,1576 4480,3520 0,911 -440,1740 -1162,2365 -108,93 -174,203 -206,341 -318,1393 -1486,2414 -3112,2414 213,-213 354,-475 449,-761 66,-198 37,-398 -84,-569 -120,-172 -298,-267 -507,-272 -2409,-59 -4338,-1611 -4338,-3518 0,-1944 2006,-3520 4480,-3520zm1119 7774c681,-300 1186,-886 1370,-1690 62,-271 200,-501 410,-683 556,-481 941,-1132 941,-1881 0,-217 -32,-431 -96,-638 -205,-670 -708,-1206 -1291,-1572 -727,-456 -1599,-670 -2453,-670 -854,0 -1726,214 -2453,670 -583,366 -1086,902 -1291,1572 -64,207 -96,421 -96,638 0,217 33,431 96,638 452,1477 2191,2205 3617,2240 412,11 779,206 1016,544 175,248 253,539 230,832z"/>
	<path id="curve0" fill="#252525" d="M3200 2560l3840 0 0 640 -3840 0 0 -640zm0 2560l3840 0 0 640 -3840 0 0 -640zm0 -1280l3840 0 0 640 -3840 0 0 -640z"/>
</g>

</svg>
