<?xml version="1.0" encoding="UTF-8"?>
<!DOCTYPE svg PUBLIC "-//W3C//DTD SVG 1.1//EN" "http://www.w3.org/Graphics/SVG/1.1/DTD/svg11.dtd">
<svg xmlns="http://www.w3.org/2000/svg" xml:space="preserve" width="1024px" height="1024px" shape-rendering="geometricPrecision" text-rendering="geometricPrecision" image-rendering="optimizeQuality" fill-rule="nonzero" clip-rule="evenodd" viewBox="0 0 10240 10240" xmlns:xlink="http://www.w3.org/1999/xlink">
	<title>painters_palette icon</title>
	<desc>painters_palette icon from the IconExperience.com O-Collection. Copyright by INCORS GmbH (www.incors.com).</desc>
	<path id="curve5" fill="#252525" d="M1402 5089c-309,-101 -570,-291 -694,-601 -181,-454 30,-904 232,-1307 607,-1218 1702,-2137 3039,-2435 1154,-258 2413,-40 3389,636 1002,694 1521,1902 1582,3094 69,1352 -441,2686 -1404,3640 -960,951 -2264,1432 -3603,1480 -1156,42 -2522,-171 -3165,-1261 -228,-386 -160,-872 165,-1181 244,-233 530,-413 815,-591 254,-159 802,-451 802,-803 0,-100 -16,-185 -88,-258 -201,-202 -801,-326 -1070,-413zm198 -609c607,197 1600,320 1600,1280 0,960 -1183,1254 -1816,1857 -109,104 -131,264 -55,393 502,851 1685,979 2591,947 1179,-43 2331,-460 3175,-1296 838,-830 1275,-1980 1215,-3152 -50,-988 -469,-2020 -1307,-2601 -829,-574 -1903,-757 -2884,-538 -1153,258 -2081,1057 -2607,2096 -245,505 -397,856 88,1014zm3793 897c495,-504 488,-1314 -16,-1810 -504,-495 -1314,-488 -1810,16 -495,504 -488,1314 16,1810 504,495 1314,488 1810,-16zm-457 -448c-247,252 -652,255 -905,7 -252,-247 -255,-653 -7,-905 247,-252 653,-255 905,-7 252,247 255,653 7,905z"/>
	<path id="curve4" fill="#2CA744" d="M5031 6736c403,-102 510,321 313,496 -94,83 65,101 65,202 0,153 -103,288 -253,327 -558,142 -514,467 -524,494 -52,137 -192,235 -357,235 -208,0 -377,-157 -377,-352 0,-15 1,-31 3,-46 20,-145 -52,-279 -189,-351 -115,-61 -192,-176 -192,-307 0,-188 157,-341 356,-352 234,-13 288,-1 396,-158 170,-247 412,-100 759,-188z"/>
	<path id="curve3" fill="#235DB8" d="M7040 3840c177,0 320,-142 320,-317 0,-37 -6,-72 -18,-105 -13,-36 -13,-70 0,-106 12,-33 18,-69 18,-106 0,-140 -89,-258 -214,-302 -183,-64 -27,-338 -266,-338 -82,0 -147,-19 -178,-106 -44,-125 -162,-214 -302,-214 -177,0 -324,143 -320,320 10,400 -320,314 -320,640 0,176 143,320 320,320 215,0 440,-178 522,-45 95,155 118,359 438,359z"/>
	<path id="curve2" fill="#EDCA36" d="M7363 4359c83,-103 178,-199 317,-199 177,0 320,143 320,320 0,139 -89,258 -214,302 -231,81 -106,490 -106,658 0,177 -143,320 -320,320 -140,0 -258,-89 -302,-214 -50,-141 -220,-106 -338,-106 -177,0 -320,-143 -320,-320 0,-140 89,-258 214,-302 87,-31 106,-96 106,-178 0,-88 72,-160 160,-160 113,0 381,5 483,-121z"/>
	<path id="curve1" fill="#E63736" d="M6886 7148c0,183 -99,250 -287,270 -154,16 -190,262 -402,262 -155,0 -281,-119 -281,-266 0,-127 130,-233 -17,-345 -85,-66 -139,-165 -139,-277 0,-161 112,-296 266,-341 192,-55 115,-371 484,-371 257,0 257,167 397,207 77,22 133,90 133,170 0,84 -47,169 -114,218 -244,177 -40,314 -40,473z"/>
	<path id="curve0" fill="#FFFF2F" d="M4897 1925c183,0 345,119 365,279 5,46 29,84 70,111 66,44 108,114 108,192 0,133 -119,240 -266,240 -50,0 -91,-11 -124,-26 -76,-37 -167,-20 -221,40 -66,73 -165,119 -277,119 -161,0 -296,-96 -341,-227 -18,-53 -60,-91 -118,-107 -147,-40 -253,-162 -253,-306 0,-219 167,-219 207,-338 22,-66 90,-114 170,-114 84,0 132,61 173,123 128,193 348,14 507,14z"/>
</svg>
