<?xml version="1.0" encoding="UTF-8"?>
<!DOCTYPE svg PUBLIC "-//W3C//DTD SVG 1.1//EN" "http://www.w3.org/Graphics/SVG/1.1/DTD/svg11.dtd">
<svg xmlns="http://www.w3.org/2000/svg" xml:space="preserve" width="1024px" height="1024px" shape-rendering="geometricPrecision" text-rendering="geometricPrecision" image-rendering="optimizeQuality" fill-rule="nonzero" clip-rule="evenodd" viewBox="0 0 10240 10240" xmlns:xlink="http://www.w3.org/1999/xlink">
	<title>font_style_italics icon</title>
	<desc>font_style_italics icon from the IconExperience.com O-Collection. Copyright by INCORS GmbH (www.incors.com).</desc>
	<path id="curve0" fill="#252525" d="M7389 2152l-436 871c-55,111 -162,177 -286,177l-968 0c-57,0 -106,-27 -136,-76 -30,-48 -33,-105 -7,-156l436 -871c55,-111 162,-177 286,-177l968 0c57,0 106,27 136,76 30,48 33,104 7,156zm-1120 2240l-2196 4391c-55,111 -162,177 -286,177l-968 0c-57,0 -106,-27 -136,-76 -30,-48 -33,-105 -7,-156l2196 -4391c55,-111 162,-177 286,-177l968 0c57,0 106,27 136,76 30,48 33,105 7,156z"/>
</svg>
