<?xml version="1.0" encoding="UTF-8"?>
<!DOCTYPE svg PUBLIC "-//W3C//DTD SVG 1.1//EN" "http://www.w3.org/Graphics/SVG/1.1/DTD/svg11.dtd">
<svg xmlns="http://www.w3.org/2000/svg" xml:space="preserve" width="1024px" height="1024px" shape-rendering="geometricPrecision" text-rendering="geometricPrecision" image-rendering="optimizeQuality" fill-rule="nonzero" clip-rule="evenodd" viewBox="0 0 10240 10240" xmlns:xlink="http://www.w3.org/1999/xlink">
	<title>text_align_right icon</title>
	<desc>text_align_right icon from the IconExperience.com O-Collection. Copyright by INCORS GmbH (www.incors.com).</desc>
	<path id="curve1" fill="#235DB8" d="M8960,1280 8320,1280 8320,9600 8960,9600z"/>
	<path id="curve0" fill="#252525" d="M8000 1920l-6720 0 0 640 6720 0 0 -640zm0 6400l-4800 0 0 640 4800 0 0 -640zm0 -1280l-6720 0 0 640 6720 0 0 -640zm0 -1280l-5440 0 0 640 5440 0 0 -640zm0 -1280l-3520 0 0 640 3520 0 0 -640zm0 -1280l-6080 0 0 640 6080 0 0 -640z"/>
</svg>
