<?xml version="1.0" encoding="UTF-8" ?>
<!DOCTYPE svg PUBLIC "-//W3C//DTD SVG 1.1//EN" "http://www.w3.org/Graphics/SVG/1.1/DTD/svg11.dtd">
<svg width="256pt" height="256pt" viewBox="0 0 256 256" version="1.1" xmlns="http://www.w3.org/2000/svg">
<title>lowcase icon</title>
<desc>icon from the IconExperience.com V-Collection. Copyright by INCORS GmbH (www.incors.com). Vectorized using Vector Magic.</desc>
<g id="#616161ff">
<path fill="#616161" stroke="#616161" stroke-width="0.09375" opacity="1.00" d=" M 64.00 41.01 C 63.55 36.84 66.60 32.51 70.89 32.13 C 76.60 31.84 82.33 31.99 88.05 32.04 C 92.78 31.86 96.56 36.48 96.00 41.08 C 96.00 86.51 95.99 131.93 96.01 177.36 C 105.58 167.78 115.18 158.22 124.73 148.62 C 126.57 146.83 128.24 144.82 130.40 143.40 C 132.75 142.10 136.07 144.14 135.93 146.85 C 136.10 156.58 135.98 166.32 135.98 176.05 C 136.10 180.56 134.01 184.84 130.76 187.89 C 115.74 202.84 100.81 217.88 85.78 232.82 C 82.79 236.10 77.21 236.11 74.23 232.82 C 59.16 217.85 44.19 202.77 29.14 187.78 C 25.93 184.74 23.89 180.48 24.02 176.01 C 24.02 166.31 23.90 156.60 24.07 146.89 C 23.85 143.54 28.56 141.66 30.73 144.21 C 41.93 155.14 52.88 166.34 63.99 177.36 C 64.01 131.91 64.00 86.46 64.00 41.01 Z" />
</g>
<g id="#235DB8ff">
<path fill="#235DB8" stroke="#4476aa" stroke-width="0.09375" opacity="1.00" d=" M 172.74 52.75 C 174.00 49.99 176.83 48.00 179.91 48.09 C 187.95 48.00 195.99 48.01 204.03 48.08 C 207.11 47.99 209.96 49.93 211.23 52.69 C 216.34 62.86 220.15 73.73 222.23 84.93 C 224.98 99.12 223.68 113.64 223.99 127.99 C 218.66 127.98 213.34 127.98 208.01 127.99 C 208.01 122.66 208.01 117.32 208.01 111.99 C 197.34 111.99 186.66 111.99 175.99 111.99 C 175.99 117.32 175.98 122.66 175.99 127.99 C 170.66 127.99 165.33 127.99 160.01 127.99 C 160.31 113.83 159.05 99.52 161.66 85.51 C 163.72 74.13 167.55 63.08 172.74 52.75 M 184.99 63.99 C 180.47 74.13 177.38 84.94 176.32 96.01 C 186.77 96.01 197.23 96.01 207.69 96.01 C 206.62 84.94 203.53 74.13 199.01 63.99 C 194.34 63.99 189.66 63.99 184.99 63.99 Z" />
<path fill="#235DB8" stroke="#4476aa" stroke-width="0.09375" opacity="1.00" d=" M 185.29 147.75 C 187.73 146.63 190.47 147.06 193.06 146.96 C 195.93 147.07 198.92 146.61 201.67 147.69 C 203.30 147.96 204.94 148.19 206.55 148.58 C 207.51 148.92 208.47 149.27 209.43 149.63 C 210.85 150.53 212.24 151.49 213.73 152.28 C 216.50 154.41 217.86 157.64 219.46 160.63 C 219.82 162.18 220.04 163.76 220.31 165.33 C 221.31 167.80 220.97 170.49 221.02 173.08 C 220.98 188.01 221.00 202.93 221.01 217.86 C 216.25 219.60 210.74 219.61 205.98 217.85 C 205.99 215.81 206.00 213.76 206.00 211.72 C 202.04 214.16 198.91 217.77 194.40 219.34 C 193.45 219.71 192.50 220.08 191.55 220.44 C 187.59 221.31 183.32 221.41 179.39 220.38 C 178.07 220.04 176.76 219.73 175.46 219.34 C 174.46 219.04 173.47 218.73 172.48 218.41 C 170.75 217.15 169.13 215.75 167.35 214.58 C 166.29 212.92 165.18 211.30 164.17 209.62 C 163.63 208.26 163.07 206.90 162.55 205.53 C 161.67 201.59 161.64 197.38 162.57 193.45 C 162.92 192.48 163.27 191.52 163.63 190.56 C 164.83 187.65 166.91 185.28 169.31 183.29 C 170.77 182.47 172.16 181.52 173.57 180.61 C 174.53 180.28 175.49 179.95 176.46 179.64 C 177.76 179.26 179.08 178.95 180.39 178.62 C 182.31 178.05 184.31 177.96 186.30 177.75 C 191.66 176.11 197.45 177.39 202.99 177.00 C 202.96 173.10 203.58 168.96 201.41 165.48 C 200.59 164.36 199.72 163.29 198.83 162.23 C 197.63 161.92 196.45 161.56 195.29 161.13 C 192.10 160.95 188.91 160.94 185.73 161.14 C 184.38 161.66 182.97 162.00 181.58 162.34 C 180.54 162.66 179.51 162.96 178.47 163.24 C 177.96 163.51 176.95 164.05 176.45 164.32 C 175.18 164.80 173.90 165.23 172.65 165.72 C 171.31 166.29 170.03 167.27 168.50 167.00 C 167.76 166.21 167.06 165.39 166.40 164.53 C 165.80 161.53 165.85 158.43 166.37 155.42 C 167.30 154.38 168.32 153.41 169.48 152.62 C 170.87 152.00 172.24 151.33 173.61 150.66 C 174.56 150.32 175.52 150.00 176.49 149.70 C 177.47 149.30 178.46 148.92 179.46 148.55 C 181.37 148.09 183.34 147.96 185.29 147.75 M 190.71 189.15 C 189.02 189.81 187.23 190.12 185.47 190.56 C 183.48 191.87 181.82 193.60 180.40 195.50 C 179.93 197.77 179.75 200.16 180.55 202.38 C 181.15 203.47 181.75 204.58 182.32 205.71 C 182.84 205.98 183.86 206.52 184.38 206.80 C 186.79 208.25 189.61 208.08 192.32 207.92 C 193.36 207.47 194.42 207.06 195.50 206.68 C 196.53 205.99 197.57 205.31 198.65 204.69 C 200.12 203.34 201.55 201.96 203.00 200.59 C 203.00 196.72 203.00 192.86 203.00 189.00 C 198.90 189.03 194.80 188.90 190.71 189.15 Z" />
</g>
</svg>
