<?xml version="1.0" encoding="UTF-8"?>
<!DOCTYPE svg PUBLIC "-//W3C//DTD SVG 1.1//EN" "http://www.w3.org/Graphics/SVG/1.1/DTD/svg11.dtd">
<svg xmlns="http://www.w3.org/2000/svg" xml:space="preserve" width="1024px" height="1024px" shape-rendering="geometricPrecision" text-rendering="geometricPrecision" image-rendering="optimizeQuality" fill-rule="nonzero" clip-rule="evenodd" viewBox="0 0 10240 10240" xmlns:xlink="http://www.w3.org/1999/xlink">
	<title>folder_cubes icon</title>
	<desc>folder_cubes icon from the IconExperience.com O-Collection. Copyright by INCORS GmbH (www.incors.com).</desc>
	<path id="curve1" fill="#235DB8" d="M8081 6472c78,-21 160,-11 234,31l1120 622c105,58 165,161 165,280l0 1223c0,120 -60,222 -165,280l-1120 622c-99,56 -211,56 -310,0l-1120 -622c-105,-58 -165,-160 -165,-280 0,135 -41,240 -165,308l-1120 623c-99,55 -211,55 -310,0l-1120 -623c-105,-58 -165,-160 -165,-279l0 -1224c0,-119 60,-222 165,-280l1120 -622c75,-42 158,-52 237,-30 -60,-59 -94,-138 -94,-227l0 -1224c0,-119 60,-222 165,-279l1120 -623c99,-55 211,-55 311,0l1120 623c104,57 164,160 164,279l0 1224c0,75 -24,143 -67,198zm-2319 -1518l946 526 947 -526 -947 -526 -946 526zm786 802l-960 -534 0 1052 960 533 0 -1051zm-2214 1581l946 525 946 -525 -946 -526c-1,0 -864,480 -946,526zm786 801l-960 -533 0 1052 960 533 0 -1052zm2094 -830l946 526 946 -526 -946 -525 -946 525zm786 802l-960 -533 0 1051 960 534 0 -1052z"/>
	<path id="curve0" fill="#EDCA36" d="M3630 1280c352,0 656,126 905,375l530 530c249,249 553,375 905,375l1710 0c353,0 640,288 640,640l0 320 -640 0 0 -320 -1710 0c-522,0 -988,-193 -1357,-562l-531 -531c-129,-129 -270,-187 -452,-187l-2349 0c-1,0 -1,0 -1,1l0 6079c0,176 144,320 320,320 176,0 320,-144 320,-320 0,-1173 0,-2347 0,-3520 0,-353 287,-640 640,-640l3895 0c-19,8 -39,18 -58,29l-1120 622c-206,114 -329,324 -329,559l0 1213 -1099 611c-206,114 -329,324 -329,559l0 1224c0,109 26,212 75,303l-1995 0c-529,0 -960,-431 -960,-960 0,-2027 0,-4053 0,-6080 0,-353 287,-640 640,-640 783,0 1567,0 2350,0zm3331 2560l1359 0c353,0 640,287 640,640l0 2015 -489 -272c-1,0 -2,-1 -3,-1l0 -1172c0,-235 -123,-445 -329,-559l-1120 -622c-19,-11 -38,-20 -58,-29z"/>
</svg>
