<?xml version="1.0" encoding="UTF-8" ?>
<!DOCTYPE svg PUBLIC "-//W3C//DTD SVG 1.1//EN" "http://www.w3.org/Graphics/SVG/1.1/DTD/svg11.dtd">
<svg width="256pt" height="256pt" viewBox="0 0 256 256" version="1.1" xmlns="http://www.w3.org/2000/svg">
<title>window_split_four_pane icon</title>
<desc>icon from the IconExperience.com V-Collection. Copyright by INCORS GmbH (www.incors.com). Vectorized using Vector Magic.</desc>
<g id="#616161ff">
<path fill="#616161" stroke="#616161" stroke-width="0.09375" opacity="1.00" d=" M 29.18 32.25 C 32.11 31.85 35.07 32.01 38.01 32.00 C 100.04 32.02 162.07 31.97 224.10 32.02 C 232.59 31.83 240.20 39.47 239.98 47.96 C 240.03 101.96 239.98 155.97 240.01 209.97 C 239.98 212.64 240.18 215.33 239.75 217.97 C 238.87 221.83 234.90 224.39 231.02 224.01 C 162.33 224.00 93.63 224.00 24.94 224.01 C 20.40 224.51 15.90 220.75 16.04 216.10 C 15.97 160.05 16.00 103.98 16.02 47.92 C 15.88 40.42 21.79 33.44 29.18 32.25 M 32.00 80.00 C 32.00 90.33 32.00 100.67 32.00 111.00 C 96.00 111.00 160.00 111.00 224.00 111.00 C 224.00 100.67 224.00 90.33 224.00 80.00 C 160.00 80.00 96.00 80.00 32.00 80.00 M 32.00 125.00 C 32.00 136.33 32.00 147.67 32.00 159.00 C 60.33 159.00 88.67 159.00 117.00 159.00 C 117.00 147.67 117.00 136.33 117.00 125.00 C 88.67 125.00 60.33 125.00 32.00 125.00 M 133.00 125.00 C 133.00 136.33 133.00 147.67 133.00 159.00 C 163.33 159.00 193.67 159.00 224.00 159.00 C 224.00 147.67 224.00 136.33 224.00 125.00 C 193.67 125.00 163.33 125.00 133.00 125.00 M 32.00 175.00 C 32.00 186.00 32.00 197.00 32.00 208.00 C 96.00 208.00 160.00 208.00 224.00 208.00 C 224.00 197.00 224.00 186.00 224.00 175.00 C 160.00 175.00 96.00 175.00 32.00 175.00 Z" />
</g>
</svg>
