<?xml version="1.0" encoding="UTF-8" ?>
<!DOCTYPE svg PUBLIC "-//W3C//DTD SVG 1.1//EN" "http://www.w3.org/Graphics/SVG/1.1/DTD/svg11.dtd">
<svg width="256pt" height="256pt" viewBox="0 0 256 256" version="1.1" xmlns="http://www.w3.org/2000/svg">
<title>window_split_three_pane icon</title>
<desc>icon from the IconExperience.com V-Collection. Copyright by INCORS GmbH (www.incors.com). Vectorized using Vector Magic.</desc>
<g id="#616161ff">
<path fill="#616161" stroke="#616161" stroke-width="0.09375" opacity="1.00" d=" M 29.20 32.25 C 32.12 31.85 35.07 32.01 38.01 32.00 C 100.04 32.02 162.08 31.97 224.11 32.02 C 232.59 31.84 240.19 39.47 239.98 47.95 C 240.00 104.00 240.04 160.06 239.96 216.11 C 240.10 220.73 235.62 224.49 231.11 224.01 C 162.40 224.00 93.69 223.99 24.99 224.01 C 21.08 224.39 17.07 221.80 16.24 217.89 C 15.83 215.28 16.02 212.63 15.99 210.00 C 16.02 155.97 15.97 101.94 16.02 47.91 C 15.89 40.41 21.81 33.43 29.20 32.25 M 32.00 80.00 C 32.00 98.67 32.00 117.33 32.00 136.00 C 96.00 136.00 160.00 136.00 224.00 136.00 C 224.00 117.33 224.00 98.67 224.00 80.00 C 160.00 80.00 96.00 80.00 32.00 80.00 M 32.00 152.00 C 32.00 170.67 32.00 189.33 32.00 208.00 C 60.33 208.00 88.67 208.00 117.00 208.00 C 117.00 189.33 117.00 170.67 117.00 152.00 C 88.67 152.00 60.33 152.00 32.00 152.00 M 133.00 152.00 C 133.00 170.67 133.00 189.33 133.00 208.00 C 162.33 208.00 191.67 208.00 221.00 208.00 C 221.00 189.33 221.00 170.67 221.00 152.00 C 191.67 152.00 162.33 152.00 133.00 152.00 Z" />
</g>
</svg>
