<?xml version="1.0" encoding="UTF-8"?>
<!DOCTYPE svg PUBLIC "-//W3C//DTD SVG 1.1//EN" "http://www.w3.org/Graphics/SVG/1.1/DTD/svg11.dtd">
<svg xmlns="http://www.w3.org/2000/svg" xml:space="preserve" width="1024px" height="1024px" shape-rendering="geometricPrecision" text-rendering="geometricPrecision" image-rendering="optimizeQuality" fill-rule="nonzero" clip-rule="evenodd" viewBox="0 0 10240 10240" xmlns:xlink="http://www.w3.org/1999/xlink">
	<title>nav_left icon</title>
	<desc>nav_left icon from the IconExperience.com O-Collection. Copyright by INCORS GmbH (www.incors.com).</desc>
	<path id="curve1" fill="#235DB8" d="M4348 7493l-2147 -2147c-124,-124 -124,-328 0,-452l2147 -2147c124,-124 276,-187 452,-187l1159 0c66,0 122,38 148,99 25,61 12,127 -35,174l-1647 1647 3255 0c176,0 320,144 320,320l0 640c0,176 -144,320 -320,320l-3255 0 1647 1647c47,47 60,113 35,174 -26,61 -82,99 -148,99l-1159 0c-176,0 -328,-63 -452,-187z"/>
	<path id="curve0" fill="#235DB8" d="M5120 640c2474,0 4480,2006 4480,4480 0,2474 -2006,4480 -4480,4480 -2474,0 -4480,-2006 -4480,-4480 0,-2474 2006,-4480 4480,-4480zm3840 4480c0,-2121 -1719,-3840 -3840,-3840 -2121,0 -3840,1719 -3840,3840 0,2121 1719,3840 3840,3840 2121,0 3840,-1719 3840,-3840z"/>
</svg>
