<?xml version="1.0" encoding="UTF-8"?>
<!DOCTYPE svg PUBLIC "-//W3C//DTD SVG 1.1//EN" "http://www.w3.org/Graphics/SVG/1.1/DTD/svg11.dtd">
<svg xmlns="http://www.w3.org/2000/svg" xml:space="preserve" width="1024px" height="1024px" shape-rendering="geometricPrecision" text-rendering="geometricPrecision" image-rendering="optimizeQuality" fill-rule="nonzero" clip-rule="evenodd" viewBox="0 0 10240 10240" xmlns:xlink="http://www.w3.org/1999/xlink">
	<title>sizes icon</title>
	<desc>sizes icon from the IconExperience.com O-Collection. Copyright by INCORS GmbH (www.incors.com).</desc>
	<path id="curve2" fill="#EDCA36" d="M960 640l3200 0c176,0 320,144 320,320l0 640 -2240 0c-353,0 -640,287 -640,640l0 2240 -640 0c-176,0 -320,-144 -320,-320l0 -3200c0,-176 144,-320 320,-320z"/>
	<path id="curve1" fill="#EDCA36" d="M2240 1920l4480 0c176,0 320,144 320,320l0 640 -3520 0c-353,0 -640,287 -640,640l0 3520 -640 0c-176,0 -320,-144 -320,-320l0 -4480c0,-176 144,-320 320,-320z"/>
	<path id="curve0" fill="#EDCA36" d="M3520 3200l5760 0c176,0 320,144 320,320l0 5760c0,176 -144,320 -320,320l-5760 0c-176,0 -320,-144 -320,-320l0 -5760c0,-176 144,-320 320,-320z"/>
</svg>
