<?xml version="1.0" encoding="UTF-8"?>
<!DOCTYPE svg PUBLIC "-//W3C//DTD SVG 1.1//EN" "http://www.w3.org/Graphics/SVG/1.1/DTD/svg11.dtd">
<svg xmlns="http://www.w3.org/2000/svg" xml:space="preserve" width="1024px" height="1024px" shape-rendering="geometricPrecision" text-rendering="geometricPrecision" image-rendering="optimizeQuality" fill-rule="nonzero" clip-rule="evenodd" viewBox="0 0 10240 10240" xmlns:xlink="http://www.w3.org/1999/xlink">
	<title>code_c icon</title>
	<desc>code_c icon from the IconExperience.com O-Collection. Copyright by INCORS GmbH (www.incors.com).</desc>
	<path id="curve2" fill="#235DB8" d="M7680 6400l1280 0c353,0 640,287 640,640l0 160 -640 0c0,-88 -72,-160 -160,-160l-960 0c-88,0 -160,72 -160,160 0,533 0,1067 0,1600 0,88 72,160 160,160l960 0c88,0 160,-72 160,-160l640 0 0 160c0,352 -287,640 -640,640l-1280 0c-352,0 -640,-288 -640,-640l0 -1920c0,-353 288,-640 640,-640z"/>
	<path id="curve1" fill="#252525" d="M2560 7680l1920 0 0 640 -1920 0 0 -640zm0 -5760l1920 0 0 640 -1920 0 0 -640zm1280 960l2560 0 0 640 -2560 0 0 -640zm1280 960l2560 0 0 640 -2560 0 0 -640zm0 960l1920 0 0 640 -1920 0 0 -640zm-1280 960l1920 0 0 640 -1920 0 0 -640zm0 960l2560 0 0 640 -2560 0 0 -640z"/>
	<path id="curve0" fill="#252525" d="M8960 640l-7680 0 0 8960 5685 0c-152,-170 -245,-394 -245,-640l-4800 0 0 -7680 6400 0 0 4800 640 0 0 -5440z"/>
</svg>
