<?xml version="1.0" encoding="UTF-8"?>
<!DOCTYPE svg PUBLIC "-//W3C//DTD SVG 1.1//EN" "http://www.w3.org/Graphics/SVG/1.1/DTD/svg11.dtd">
<svg xmlns="http://www.w3.org/2000/svg" xml:space="preserve" width="1024px" height="1024px" shape-rendering="geometricPrecision" text-rendering="geometricPrecision" image-rendering="optimizeQuality" fill-rule="nonzero" clip-rule="evenodd" viewBox="0 0 10240 10240" xmlns:xlink="http://www.w3.org/1999/xlink">
	<title>element icon</title>
	<desc>element icon from the IconExperience.com O-Collection. Copyright by INCORS GmbH (www.incors.com).</desc>
	<rect fill="#235DB8" x="3000" y="3600" width="4400" height="3000"/>
	<path id="curve0" fill="#252525" d="M3200 3200l3840 0c353,0 640,288 640,640l0 2560c0,352 -288,640 -640,640l-3840 0c-353,0 -640,-287 -640,-640l0 -2560c0,-353 287,-640 640,-640zm0 640l0 2560 3840 0 0 -2560 -3840 0z"/>


<g comp-op="clear">
<g transform="translate(5120,5120) scale(0.5,0.5)"  stroke="#252525" stroke-width="512" stroke-linejoin="round">
	<title>arrow_right icon</title>
	<desc>arrow_right icon from the IconExperience.com O-Collection. Copyright by INCORS GmbH (www.incors.com).</desc>
	<path id="curve0" fill="#2CA744" d="M4422 7716l1647 -1647 -5120 0c-176,0 -320,-144 -320,-320l0 -1280c0,-176 144,-320 320,-320l5120 0 -1647 -1647c-47,-47 -60,-113 -35,-174 26,-61 82,-99 148,-99l2064 0c176,0 328,63 452,187l2467 2467c124,124 124,328 0,452l-2467 2466c-124,125 -276,188 -452,188l-2064 0c-66,0 -122,-38 -148,-99 -25,-61 -12,-128 35,-174z"/>
</g>
</g>



<g transform="translate(5120,5120) scale(0.5,0.5)">
	<title>arrow_right icon</title>
	<desc>arrow_right icon from the IconExperience.com O-Collection. Copyright by INCORS GmbH (www.incors.com).</desc>
	<path id="curve0" fill="#2CA744" d="M4422 7716l1647 -1647 -5120 0c-176,0 -320,-144 -320,-320l0 -1280c0,-176 144,-320 320,-320l5120 0 -1647 -1647c-47,-47 -60,-113 -35,-174 26,-61 82,-99 148,-99l2064 0c176,0 328,63 452,187l2467 2467c124,124 124,328 0,452l-2467 2466c-124,125 -276,188 -452,188l-2064 0c-66,0 -122,-38 -148,-99 -25,-61 -12,-128 35,-174z"/>
</g>

</svg>
