<?xml version="1.0" encoding="UTF-8"?>
<!DOCTYPE svg PUBLIC "-//W3C//DTD SVG 1.1//EN" "http://www.w3.org/Graphics/SVG/1.1/DTD/svg11.dtd">
<svg xmlns="http://www.w3.org/2000/svg" xml:space="preserve" width="1024px" height="1024px" shape-rendering="geometricPrecision" text-rendering="geometricPrecision" image-rendering="optimizeQuality" fill-rule="nonzero" clip-rule="evenodd" viewBox="0 0 10240 10240" xmlns:xlink="http://www.w3.org/1999/xlink">
	<title>object_cube icon</title>
	<desc>object_cube icon from the IconExperience.com O-Collection. Copyright by INCORS GmbH (www.incors.com).</desc>
	<path id="curve0" fill="#252525" d="M1634 3023l3200 -1600c186,-93 386,-93 572,0l3200 1600c222,111 354,324 354,573l0 3688c0,249 -132,462 -354,573l-3200 1600c-186,93 -386,93 -572,0l-3200 -1600c-222,-111 -354,-324 -354,-573l0 -3688c0,-249 132,-462 354,-573zm286 853l0 3408 2880 1440 0 -3408 -2880 -1440zm5968 -496l-2768 -1384 -2768 1384 2768 1384 2768 -1384z"/>


<g comp-op="clear">
<g transform="translate(5120,5120) scale(0.5,0.5)"  stroke="#252525" stroke-width="512" stroke-linejoin="round">
	<title>delete icon</title>
	<desc>delete icon from the IconExperience.com O-Collection. Copyright by INCORS GmbH (www.incors.com).</desc>
	<path id="curve0" fill="#E63736" d="M1273 7156l2037 -2036 -2037 -2036c-124,-125 -124,-328 0,-453l1358 -1358c125,-124 328,-124 453,0l2036 2037 2036 -2037c125,-124 328,-124 453,0l1358 1358c124,125 124,328 0,453l-2037 2036 2037 2036c124,125 124,328 0,453l-1358 1358c-125,124 -328,124 -453,0l-2036 -2037 -2036 2037c-125,124 -328,124 -453,0l-1358 -1358c-124,-125 -124,-328 0,-453z"/>
</g>
</g>



<g transform="translate(5120,5120) scale(0.5,0.5)">
	<title>delete icon</title>
	<desc>delete icon from the IconExperience.com O-Collection. Copyright by INCORS GmbH (www.incors.com).</desc>
	<path id="curve0" fill="#E63736" d="M1273 7156l2037 -2036 -2037 -2036c-124,-125 -124,-328 0,-453l1358 -1358c125,-124 328,-124 453,0l2036 2037 2036 -2037c125,-124 328,-124 453,0l1358 1358c124,125 124,328 0,453l-2037 2036 2037 2036c124,125 124,328 0,453l-1358 1358c-125,124 -328,124 -453,0l-2036 -2037 -2036 2037c-125,124 -328,124 -453,0l-1358 -1358c-124,-125 -124,-328 0,-453z"/>
</g>

</svg>
