<?xml version="1.0" encoding="UTF-8" ?>
<!DOCTYPE svg PUBLIC "-//W3C//DTD SVG 1.1//EN" "http://www.w3.org/Graphics/SVG/1.1/DTD/svg11.dtd">
<svg width="256pt" height="256pt" viewBox="0 0 256 256" version="1.1" xmlns="http://www.w3.org/2000/svg">
<title>window_split_three_pane_left icon</title>
<desc>icon from the IconExperience.com V-Collection. Copyright by INCORS GmbH (www.incors.com). Vectorized using Vector Magic.</desc>
<g id="#616161ff">
<path fill="#616161" stroke="#616161" stroke-width="0.09375" opacity="1.00" d=" M 28.29 32.43 C 29.83 32.08 31.42 32.02 33.00 31.99 C 96.69 32.03 160.39 31.97 224.09 32.02 C 232.58 31.82 240.20 39.47 239.98 47.96 C 240.03 103.67 239.98 159.39 240.00 215.10 C 240.50 219.63 236.71 224.11 232.08 223.96 C 163.03 224.05 93.98 223.97 24.94 224.00 C 20.40 224.52 15.89 220.74 16.04 216.09 C 15.97 160.04 16.00 103.98 16.02 47.92 C 15.90 40.73 21.30 34.01 28.29 32.43 M 32.00 80.00 C 32.00 98.67 32.00 117.33 32.00 136.00 C 60.35 135.97 88.70 136.05 117.06 135.96 C 117.06 117.32 117.06 98.68 117.06 80.04 C 88.70 79.95 60.35 80.02 32.00 80.00 M 132.94 80.04 C 132.92 122.69 133.04 165.35 133.00 208.00 C 163.33 208.00 193.67 208.00 224.00 208.00 C 224.00 165.33 224.00 122.67 224.00 80.00 C 193.65 80.02 163.29 79.95 132.94 80.04 M 32.00 152.00 C 32.00 170.67 32.00 189.33 32.00 208.00 C 60.33 208.00 88.67 208.00 117.00 208.00 C 117.00 189.33 117.02 170.67 116.95 152.00 C 88.64 152.00 60.32 152.00 32.00 152.00 Z" />
</g>
</svg>
