<?xml version="1.0" encoding="UTF-8" ?>
<!DOCTYPE svg PUBLIC "-//W3C//DTD SVG 1.1//EN" "http://www.w3.org/Graphics/SVG/1.1/DTD/svg11.dtd">
<svg width="256pt" height="256pt" viewBox="0 0 256 256" version="1.1" xmlns="http://www.w3.org/2000/svg">
<title>window_split_three_pane_up icon</title>
<desc>icon from the IconExperience.com V-Collection. Copyright by INCORS GmbH (www.incors.com). Vectorized using Vector Magic.</desc>
<g id="#616161ff">
<path fill="#616161" stroke="#616161" stroke-width="0.09375" opacity="1.00" d=" M 28.31 32.43 C 29.85 32.08 31.43 32.03 32.99 31.99 C 96.69 32.03 160.39 31.97 224.09 32.02 C 232.58 31.83 240.20 39.47 239.98 47.96 C 240.00 104.01 240.04 160.07 239.96 216.12 C 240.09 220.74 235.62 224.49 231.11 224.00 C 162.40 224.00 93.70 223.99 24.99 224.01 C 21.08 224.40 17.06 221.79 16.23 217.88 C 15.83 215.27 16.02 212.62 15.99 210.00 C 16.02 155.98 15.97 101.96 16.02 47.93 C 15.89 40.73 21.31 34.00 28.31 32.43 M 32.00 80.00 C 32.00 98.67 32.00 117.33 32.00 136.00 C 60.33 136.00 88.67 136.00 117.00 136.00 C 117.00 117.33 117.00 98.67 117.00 80.00 C 88.67 80.00 60.33 80.00 32.00 80.00 M 133.00 80.00 C 133.00 98.67 133.00 117.33 133.00 136.00 C 163.33 136.00 193.67 136.00 224.00 136.00 C 224.00 117.33 224.00 98.67 224.00 80.00 C 193.67 80.00 163.33 80.00 133.00 80.00 M 32.00 152.00 C 32.00 170.67 32.00 189.33 32.00 208.00 C 95.00 208.00 158.00 208.00 221.00 208.00 C 221.00 189.33 221.00 170.67 221.00 152.00 C 158.00 152.00 95.00 152.00 32.00 152.00 Z" />
</g>
</svg>
