<?xml version="1.0" encoding="UTF-8"?>
<!DOCTYPE svg PUBLIC "-//W3C//DTD SVG 1.1//EN" "http://www.w3.org/Graphics/SVG/1.1/DTD/svg11.dtd">
<svg xmlns="http://www.w3.org/2000/svg" xml:space="preserve" width="1024px" height="1024px" shape-rendering="geometricPrecision" text-rendering="geometricPrecision" image-rendering="optimizeQuality" fill-rule="nonzero" clip-rule="evenodd" viewBox="0 0 10240 10240" xmlns:xlink="http://www.w3.org/1999/xlink">
	<title>printer icon</title>
	<desc>printer icon from the IconExperience.com O-Collection. Copyright by INCORS GmbH (www.incors.com).</desc>
	<path id="curve2" fill="#252525" d="M1920 4480l6400 0c705,0 1280,575 1280,1280l0 1920c0,705 -575,1280 -1280,1280l-6400 0c-705,0 -1280,-575 -1280,-1280l0 -1920c0,-705 575,-1280 1280,-1280zm320 2560c-176,0 -320,144 -320,320l0 640c0,176 144,320 320,320l5760 0c176,0 320,-144 320,-320l0 -640c0,-176 -144,-320 -320,-320l-5760 0zm0 -1920c-176,0 -320,144 -320,320l0 0c0,176 144,320 320,320l640 0c176,0 320,-144 320,-320l0 0c0,-176 -144,-320 -320,-320l-640 0z"/>
	<path id="curve1" fill="#235DB8" d="M3840 3520l2560 0 0 320 -2560 0 0 -320zm0 -1920l2560 0 0 320 -2560 0 0 -320zm0 640l2560 0 0 320 -2560 0 0 -320zm0 640l2560 0 0 320 -2560 0 0 -320z"/>
	<path id="curve0" fill="#252525" d="M2560,640 7680,640 7680,4160 7040,4160 7040,1280 3200,1280 3200,4160 2560,4160z"/>
</svg>
