<?xml version="1.0" encoding="UTF-8"?>
<!DOCTYPE svg PUBLIC "-//W3C//DTD SVG 1.1//EN" "http://www.w3.org/Graphics/SVG/1.1/DTD/svg11.dtd">
<svg xmlns="http://www.w3.org/2000/svg" xml:space="preserve" width="1024px" height="1024px" shape-rendering="geometricPrecision" text-rendering="geometricPrecision" image-rendering="optimizeQuality" fill-rule="nonzero" clip-rule="evenodd" viewBox="0 0 10240 10240" xmlns:xlink="http://www.w3.org/1999/xlink">
	<title>object_cube icon</title>
	<desc>object_cube icon from the IconExperience.com O-Collection. Copyright by INCORS GmbH (www.incors.com).</desc>
	<path id="curve0" fill="#252525" d="M1634 3023l3200 -1600c186,-93 386,-93 572,0l3200 1600c222,111 354,324 354,573l0 3688c0,249 -132,462 -354,573l-3200 1600c-186,93 -386,93 -572,0l-3200 -1600c-222,-111 -354,-324 -354,-573l0 -3688c0,-249 132,-462 354,-573zm286 853l0 3408 2880 1440 0 -3408 -2880 -1440zm5968 -496l-2768 -1384 -2768 1384 2768 1384 2768 -1384z"/>


<g comp-op="clear">
<g transform="translate(5120,0) scale(0.5,0.5)"  stroke="#252525" stroke-width="512" stroke-linejoin="round">
	<title>star icon</title>
	<desc>star icon from the IconExperience.com O-Collection. Copyright by INCORS GmbH (www.incors.com).</desc>
	<path id="curve0" fill="#235DB8" d="M5725 1082l687 2148c43,135 163,223 305,222l2246 -4c279,-1 518,172 604,439 87,267 -3,548 -229,713l-1825 1332c-114,83 -159,223 -116,357l698 2155c87,268 -4,548 -231,713 -228,165 -522,164 -748,-2l-1806 -1330c-115,-84 -265,-84 -380,0l-1806 1330c-226,166 -520,167 -748,2 -227,-165 -318,-445 -231,-713l698 -2155c43,-134 -2,-274 -116,-357l-1824 -1332c-227,-165 -317,-446 -230,-713 86,-267 325,-440 604,-439l2246 4c142,1 262,-87 305,-222l687 -2148c86,-268 324,-442 605,-442 281,0 519,174 605,442z"/>
</g>
</g>



<g transform="translate(5120,0) scale(0.5,0.5)">
	<title>star icon</title>
	<desc>star icon from the IconExperience.com O-Collection. Copyright by INCORS GmbH (www.incors.com).</desc>
	<path id="curve0" fill="#235DB8" d="M5725 1082l687 2148c43,135 163,223 305,222l2246 -4c279,-1 518,172 604,439 87,267 -3,548 -229,713l-1825 1332c-114,83 -159,223 -116,357l698 2155c87,268 -4,548 -231,713 -228,165 -522,164 -748,-2l-1806 -1330c-115,-84 -265,-84 -380,0l-1806 1330c-226,166 -520,167 -748,2 -227,-165 -318,-445 -231,-713l698 -2155c43,-134 -2,-274 -116,-357l-1824 -1332c-227,-165 -317,-446 -230,-713 86,-267 325,-440 604,-439l2246 4c142,1 262,-87 305,-222l687 -2148c86,-268 324,-442 605,-442 281,0 519,174 605,442z"/>
</g>

</svg>
