<?xml version="1.0" encoding="UTF-8"?>
<!DOCTYPE svg PUBLIC "-//W3C//DTD SVG 1.1//EN" "http://www.w3.org/Graphics/SVG/1.1/DTD/svg11.dtd">
<svg xmlns="http://www.w3.org/2000/svg" xml:space="preserve" width="1024px" height="1024px" shape-rendering="geometricPrecision" text-rendering="geometricPrecision" image-rendering="optimizeQuality" fill-rule="nonzero" clip-rule="evenodd" viewBox="0 0 10240 10240" xmlns:xlink="http://www.w3.org/1999/xlink">
	<title>floppy_disks icon</title>
	<desc>floppy_disks icon from the IconExperience.com O-Collection. Copyright by INCORS GmbH (www.incors.com).</desc>
	<path id="curve3" fill="#252525" d="M4160,640 8000,640 8000,1280 4160,1280z"/>
	<path id="curve2" fill="#235DB8" d="M3200 640l640 0 0 1600 -1280 0 0 -960c0,-353 288,-640 640,-640zm5120 0l640 0c353,0 640,288 640,640l0 5760c0,352 -288,640 -640,640l-960 0 0 -3926c191,-111 320,-318 320,-554l0 -2560z"/>
	<path id="curve1" fill="#252525" d="M2240,2560 6080,2560 6080,3200 2240,3200z"/>
	<path id="curve0" fill="#235DB8" d="M1280 2560l640 0 0 2560c0,353 288,640 640,640l3200 0c352,0 640,-288 640,-640l0 -2560 640 0c353,0 640,288 640,640l0 5760c0,352 -288,640 -640,640l-640 0 0 -2240c0,-176 -144,-320 -320,-320l-3200 0c-176,0 -320,144 -320,320l0 2240 -1280 0c-352,0 -640,-287 -640,-640l0 -5760c0,-353 287,-640 640,-640zm3200 4800l1280 0 0 1920 -1280 0 0 -1920z"/>
</svg>
