<?xml version="1.0" encoding="UTF-8"?>
<!DOCTYPE svg PUBLIC "-//W3C//DTD SVG 1.1//EN" "http://www.w3.org/Graphics/SVG/1.1/DTD/svg11.dtd">
<svg xmlns="http://www.w3.org/2000/svg" xml:space="preserve" width="1024px" height="1024px" shape-rendering="geometricPrecision" text-rendering="geometricPrecision" image-rendering="optimizeQuality" fill-rule="nonzero" clip-rule="evenodd" viewBox="0 0 10240 10240" xmlns:xlink="http://www.w3.org/1999/xlink">
	<title>save_as icon</title>
	<desc>save_as icon from the IconExperience.com O-Collection. Copyright by INCORS GmbH (www.incors.com).</desc>
	<path id="curve2" fill="#252525" d="M3200 7040l6400 0 0 2560 -6400 0 0 -2560zm640 640l0 1280 5120 0 0 -1280 -5120 0z"/>
	<path id="curve1" fill="#235DB8" d="M1920 1280l640 0 0 2560c0,353 288,640 640,640l3200 0c352,0 640,-288 640,-640l0 -2560 640 0c352,0 640,288 640,640l0 4800 -1280 0 0 -640c0,-176 -144,-320 -320,-320l-3200 0c-176,0 -320,144 -320,320l0 640c-176,0 -320,144 -320,320l0 1280 -960 0c-352,0 -640,-287 -640,-640l0 -5760c0,-352 287,-640 640,-640zm3200 4800l1280 0 0 640 -1280 0 0 -640z"/>
	<path id="curve0" fill="#252525" d="M2880,1280 6720,1280 6720,1920 2880,1920z"/>
</svg>
