<?xml version="1.0" encoding="UTF-8"?>
<!DOCTYPE svg PUBLIC "-//W3C//DTD SVG 1.1//EN" "http://www.w3.org/Graphics/SVG/1.1/DTD/svg11.dtd">
<svg xmlns="http://www.w3.org/2000/svg" xml:space="preserve" width="1024px" height="1024px" shape-rendering="geometricPrecision" text-rendering="geometricPrecision" image-rendering="optimizeQuality" fill-rule="nonzero" clip-rule="evenodd" viewBox="0 0 10240 10240" xmlns:xlink="http://www.w3.org/1999/xlink">
	<title>gearwheel icon</title>
	<desc>gearwheel icon from the IconExperience.com O-Collection. Copyright by INCORS GmbH (www.incors.com).</desc>
	<path id="curve0" fill="#252525" d="M7140 2420c110,82 214,170 313,265 42,40 97,54 153,39l874 -238c135,-37 272,15 350,131 127,191 234,377 334,584 61,126 35,271 -66,368l-649 631c-42,40 -58,95 -45,151 32,134 55,269 69,406 6,58 40,104 92,128l822 380c127,59 199,186 184,325 -25,228 -64,440 -120,662 -35,136 -148,230 -287,240l-904 66c-58,4 -105,35 -131,87 -62,122 -132,240 -208,354 -32,48 -37,105 -12,157l385 818c60,127 33,271 -69,368 -166,158 -332,296 -518,430 -114,81 -261,81 -374,-1l-734 -531c-47,-33 -104,-40 -157,-17 -125,53 -253,99 -383,136 -56,16 -96,57 -111,113l-230 874c-36,136 -150,230 -290,238 -230,14 -445,13 -675,-5 -139,-10 -252,-105 -286,-240l-221 -879c-14,-56 -53,-97 -109,-114 -128,-39 -254,-86 -377,-141 -53,-23 -110,-17 -157,16l-739 522c-115,81 -262,79 -375,-4 -186,-137 -350,-277 -515,-439 -100,-98 -126,-242 -64,-368l395 -816c25,-52 21,-109 -10,-157 -73,-112 -139,-228 -198,-348 -26,-51 -73,-83 -130,-88l-904 -76c-140,-11 -251,-107 -284,-243 -55,-225 -91,-438 -113,-668 -14,-139 60,-266 187,-323l827 -371c53,-23 87,-69 94,-127 15,-132 39,-264 71,-394 13,-56 -2,-110 -43,-151l-644 -639c-99,-99 -123,-243 -61,-369 102,-207 211,-393 342,-584 79,-116 216,-166 351,-127l871 247c56,16 111,3 154,-37 98,-92 201,-178 309,-258 46,-34 70,-86 65,-143l-83 -904c-13,-139 62,-266 190,-322 210,-93 413,-166 635,-228 135,-38 273,12 352,128l508 750c32,47 83,73 141,70 136,-8 272,-7 407,1 58,4 109,-21 142,-68l517 -745c80,-115 219,-164 353,-125 220,64 422,139 632,233 127,58 201,185 186,325l-92 900c-6,58 17,110 63,145zm-2020 780c-1060,0 -1920,860 -1920,1920 0,1060 860,1920 1920,1920 1060,0 1920,-860 1920,-1920 0,-1060 -860,-1920 -1920,-1920z"/>


<g comp-op="clear">
<g transform="translate(5120,5120) scale(0.5,0.5)"  stroke="#252525" stroke-width="512" stroke-linejoin="round">
	<title>question icon</title>
	<desc>question icon from the IconExperience.com O-Collection. Copyright by INCORS GmbH (www.incors.com).</desc>
	<circle fill="white" cx="5120" cy="5120" r="4000"/>
	<path id="curve1" fill="#235DB8" d="M2888 3986c42,-460 246,-874 555,-1183 348,-347 828,-563 1357,-563l640 0c529,0 1009,216 1357,563 347,348 563,828 563,1357 0,395 -117,765 -329,1078 -210,310 -510,556 -878,703l-393 157 0 142c0,44 -16,82 -47,113 -31,31 -69,47 -113,47l-960 0c-88,0 -160,-72 -160,-160l0 -140c0,-261 79,-508 221,-718 140,-207 340,-371 584,-469l393 -157c128,-51 230,-133 298,-233 67,-99 104,-223 104,-363 0,-176 -72,-336 -188,-452 -116,-116 -276,-188 -452,-188l-640 0c-176,0 -336,72 -452,188 -87,87 -149,199 -175,324 -15,75 -80,128 -157,128l-969 0c-46,0 -86,-18 -118,-52 -31,-34 -45,-76 -41,-122zm1752 2734l960 0c88,0 160,72 160,160l0 960c0,88 -72,160 -160,160l-960 0c-88,0 -160,-72 -160,-160l0 -960c0,-88 72,-160 160,-160z"/>
	<path id="curve0" fill="#235DB8" d="M5120 640c2474,0 4480,2006 4480,4480 0,2474 -2006,4480 -4480,4480 -2474,0 -4480,-2006 -4480,-4480 0,-2474 2006,-4480 4480,-4480zm0 640c-2121,0 -3840,1719 -3840,3840 0,2121 1719,3840 3840,3840 2121,0 3840,-1719 3840,-3840 0,-2121 -1719,-3840 -3840,-3840z"/>
</g>
</g>



<g transform="translate(5120,5120) scale(0.5,0.5)">
	<title>question icon</title>
	<desc>question icon from the IconExperience.com O-Collection. Copyright by INCORS GmbH (www.incors.com).</desc>
	<circle fill="white" cx="5120" cy="5120" r="4000"/>
	<path id="curve1" fill="#235DB8" d="M2888 3986c42,-460 246,-874 555,-1183 348,-347 828,-563 1357,-563l640 0c529,0 1009,216 1357,563 347,348 563,828 563,1357 0,395 -117,765 -329,1078 -210,310 -510,556 -878,703l-393 157 0 142c0,44 -16,82 -47,113 -31,31 -69,47 -113,47l-960 0c-88,0 -160,-72 -160,-160l0 -140c0,-261 79,-508 221,-718 140,-207 340,-371 584,-469l393 -157c128,-51 230,-133 298,-233 67,-99 104,-223 104,-363 0,-176 -72,-336 -188,-452 -116,-116 -276,-188 -452,-188l-640 0c-176,0 -336,72 -452,188 -87,87 -149,199 -175,324 -15,75 -80,128 -157,128l-969 0c-46,0 -86,-18 -118,-52 -31,-34 -45,-76 -41,-122zm1752 2734l960 0c88,0 160,72 160,160l0 960c0,88 -72,160 -160,160l-960 0c-88,0 -160,-72 -160,-160l0 -960c0,-88 72,-160 160,-160z"/>
	<path id="curve0" fill="#235DB8" d="M5120 640c2474,0 4480,2006 4480,4480 0,2474 -2006,4480 -4480,4480 -2474,0 -4480,-2006 -4480,-4480 0,-2474 2006,-4480 4480,-4480zm0 640c-2121,0 -3840,1719 -3840,3840 0,2121 1719,3840 3840,3840 2121,0 3840,-1719 3840,-3840 0,-2121 -1719,-3840 -3840,-3840z"/>
</g>

</svg>
