<?xml version="1.0" encoding="UTF-8"?>
<!DOCTYPE svg PUBLIC "-//W3C//DTD SVG 1.1//EN" "http://www.w3.org/Graphics/SVG/1.1/DTD/svg11.dtd">
<svg xmlns="http://www.w3.org/2000/svg" xml:space="preserve" width="1024px" height="1024px" shape-rendering="geometricPrecision" text-rendering="geometricPrecision" image-rendering="optimizeQuality" fill-rule="nonzero" clip-rule="evenodd" viewBox="0 0 10240 10240" xmlns:xlink="http://www.w3.org/1999/xlink">
	<title>element_selection icon</title>
	<desc>element_selection icon from the IconExperience.com O-Collection. Copyright by INCORS GmbH (www.incors.com).</desc>
	<rect fill="#235DB8" x="3000" y="3600" width="4400" height="3000"/>
	<path id="curve1" fill="#252525" d="M3200 3200l3840 0c353,0 640,288 640,640l0 2560c0,352 -288,640 -640,640l-3840 0c-353,0 -640,-287 -640,-640l0 -2560c0,-353 287,-640 640,-640zm0 640l0 2560 3840 0 0 -2560 -3840 0z"/>
	<path id="curve0" fill="#252525" d="M1280 1280l640 0 0 640 -640 0 0 -640zm7040 0l640 0 0 640 -640 0 0 -640zm0 7040l640 0 0 640 -640 0 0 -640zm-1920 640l1280 0 0 -640 -1280 0 0 640zm-1920 0l1280 0 0 -640 -1280 0 0 640zm-1920 0l1280 0 0 -640 -1280 0 0 640zm-1280 -640l640 0 0 640 -640 0 0 -640zm5120 -6400l1280 0 0 -640 -1280 0 0 640zm-1920 0l1280 0 0 -640 -1280 0 0 640zm3840 2560l640 0 0 1280 -640 0 0 -1280zm0 -1920l640 0 0 1280 -640 0 0 -1280zm0 3840l640 0 0 1280 -640 0 0 -1280zm-7040 -1920l640 0 0 1280 -640 0 0 -1280zm1280 -2560l1280 0 0 -640 -1280 0 0 640zm-1280 640l640 0 0 1280 -640 0 0 -1280zm0 3840l640 0 0 1280 -640 0 0 -1280z"/>
</svg>
