<?xml version="1.0" encoding="UTF-8" ?>
<!DOCTYPE svg PUBLIC "-//W3C//DTD SVG 1.1//EN" "http://www.w3.org/Graphics/SVG/1.1/DTD/svg11.dtd">
<svg width="256pt" height="256pt" viewBox="0 0 256 256" version="1.1" xmlns="http://www.w3.org/2000/svg">
<title>spaces_to_tabs icon</title>
<desc>icon from the IconExperience.com V-Collection. Copyright by INCORS GmbH (www.incors.com). Vectorized using Vector Magic.</desc>
<g id="#616161ff">
<path fill="#252525" stroke="#808080" stroke-width="0.09375" opacity="1.00" d=" M 64.00 40.87 C 63.53 36.39 67.22 31.95 71.81 32.05 C 77.54 31.98 83.28 31.87 89.00 32.11 C 93.30 32.44 96.43 36.74 96.00 40.92 C 96.00 86.40 95.99 131.88 96.01 177.36 C 107.12 166.34 118.08 155.15 129.26 144.20 C 131.45 141.64 136.18 143.57 135.94 146.93 C 136.13 154.94 135.91 162.95 136.01 170.96 C 135.97 174.86 136.35 179.00 134.61 182.64 C 133.22 185.71 130.65 187.97 128.33 190.32 C 114.12 204.45 100.00 218.68 85.79 232.81 C 82.82 236.09 77.24 236.11 74.25 232.85 C 59.20 217.88 44.23 202.82 29.19 187.83 C 25.97 184.80 23.91 180.56 24.02 176.09 C 24.01 166.37 23.91 156.65 24.06 146.93 C 23.88 144.17 27.22 142.10 29.63 143.39 C 31.78 144.84 33.46 146.87 35.31 148.67 C 44.86 158.25 54.43 167.80 63.99 177.36 C 64.01 131.87 64.00 86.37 64.00 40.87 Z" />
</g>
<g id="#060606fe">
<path fill="#252525" stroke="#808080" stroke-width="0.09375" opacity="1.00" d=" M 162.93 67.02 C 165.14 53.31 178.10 42.27 192.02 42.49 C 205.09 42.31 217.39 52.05 220.54 64.67 C 223.16 74.09 220.40 84.69 213.72 91.78 C 208.58 97.26 201.28 101.75 193.48 100.58 C 195.03 100.76 196.57 100.95 198.11 101.16 C 190.33 102.24 181.98 101.03 175.50 96.35 C 166.17 90.04 160.77 78.19 162.93 67.02 M 171.20 66.02 C 170.58 68.99 172.93 72.13 176.06 71.88 C 178.67 72.31 180.18 69.95 181.71 68.30 C 182.01 64.19 178.85 60.81 174.66 61.24 C 173.30 62.64 171.16 63.80 171.20 66.02 Z" />
<path fill="#252525" stroke="#808080" stroke-width="0.09375" opacity="1.00" d=" M 190.22 157.90 C 192.38 155.21 196.03 156.29 199.01 156.04 C 202.30 156.15 206.20 155.48 208.71 158.17 C 213.79 163.15 218.88 168.14 223.78 173.30 C 225.52 174.95 224.95 177.74 223.22 179.17 C 218.38 184.03 213.58 188.94 208.64 193.70 C 206.15 196.35 202.27 195.74 199.00 195.89 C 196.02 195.67 192.37 196.82 190.22 194.09 C 193.23 190.48 196.74 187.32 199.99 183.93 C 182.72 183.92 165.45 183.95 148.18 183.92 C 148.19 178.64 148.19 173.36 148.18 168.08 C 165.44 168.05 182.71 168.09 199.97 168.06 C 196.73 164.66 193.23 161.51 190.22 157.90 Z" />
</g>
<g id="#235DB8ff">
<path fill="#235DB8" stroke="#267bb0" stroke-width="0.09375" opacity="1.00" d=" M 227.86 136.17 C 233.18 136.17 238.50 136.16 243.83 136.18 C 243.79 162.73 243.79 189.27 243.83 215.82 C 238.50 215.84 233.18 215.83 227.86 215.83 C 227.86 189.28 227.86 162.72 227.86 136.17 Z" />
</g>
</svg>
