<?xml version="1.0"?>
<svg version="1.1" xmlns="http://www.w3.org/2000/svg" xmlns:xlink="http://www.w3.org/1999/xlink" width="512" height="512">
    <desc iVinci="yes" version="4.6" gridStep="16" showGrid="yes" snapToGrid="yes" codePlatform="0"/>
    <g id="Layer1" name="Layer 1" opacity="1">
        <g id="Shape1">
            <desc shapeID="1" type="0" basicInfo-basicType="2" basicInfo-roundedRectRadius="24" basicInfo-polygonSides="6" basicInfo-starPoints="5" bounding="rect(-111.5,-174,223,348)" text="" font-familyName="Helvetica" font-pixelSize="20" font-bold="0" font-underline="0" font-alignment="1" strokeStyle="0" markerStart="0" markerEnd="0" shadowEnabled="0" shadowOffsetX="0" shadowOffsetY="2" shadowBlur="4" shadowOpacity="160" blurEnabled="0" blurRadius="4" transform="matrix(1,0,0,0.965517,256,248.5)" pers-center="0,0" pers-size="0,0" pers-start="0,0" pers-end="0,0" locked="0" mesh="" flag=""/>
            <path id="shapePath1" d="M144.5,103.672 C144.5,90.8746 155.245,80.5 168.5,80.5 L343.5,80.5 C356.755,80.5 367.5,90.8746 367.5,103.672 L367.5,393.328 C367.5,406.125 356.755,416.5 343.5,416.5 L168.5,416.5 C155.245,416.5 144.5,406.125 144.5,393.328 L144.5,103.672 Z" style="stroke:#323232;stroke-opacity:1;stroke-width:1;stroke-linejoin:miter;stroke-miterlimit:2;stroke-linecap:round;fill-rule:evenodd;fill:#4d82b8;fill-opacity:1;"/>
        </g>
        <g id="Shape2">
            <desc shapeID="2" type="0" basicInfo-basicType="0" basicInfo-roundedRectRadius="24" basicInfo-polygonSides="6" basicInfo-starPoints="5" bounding="rect(-61.5,-64,123,128)" text="" font-familyName="Helvetica" font-pixelSize="20" font-bold="0" font-underline="0" font-alignment="1" strokeStyle="0" markerStart="0" markerEnd="0" shadowEnabled="0" shadowOffsetX="0" shadowOffsetY="2" shadowBlur="4" shadowOpacity="160" blurEnabled="0" blurRadius="4" transform="matrix(-0.69002,0.72379,0.72379,0.69002,260.386,313.174)" pers-center="0,0" pers-size="0,0" pers-start="0,0" pers-end="0,0" locked="0" mesh="" flag=""/>
            <path id="shapePath2" d="M188.188,296.155 C179.042,305.749 179.405,320.941 188.998,330.087 L246.902,385.288 C256.495,394.434 271.687,394.071 280.833,384.478 L332.585,330.194 C341.731,320.6 341.368,305.408 331.774,296.262 L188.188,296.155 Z" style="stroke:#323232;stroke-opacity:1;stroke-width:1;stroke-linejoin:miter;stroke-miterlimit:2;stroke-linecap:round;fill-rule:evenodd;fill:#252525;fill-opacity:1;"/>
        </g>
        <g id="Shape3">
            <desc shapeID="3" type="0" basicInfo-basicType="0" basicInfo-roundedRectRadius="24" basicInfo-polygonSides="6" basicInfo-starPoints="5" bounding="rect(-61.5,-64,123,128)" text="" font-familyName="Helvetica" font-pixelSize="20" font-bold="0" font-underline="0" font-alignment="1" strokeStyle="0" markerStart="0" markerEnd="0" shadowEnabled="0" shadowOffsetX="0" shadowOffsetY="2" shadowBlur="4" shadowOpacity="160" blurEnabled="0" blurRadius="4" transform="matrix(-0.69002,-0.72379,0.72379,-0.69002,258.267,183.758)" pers-center="0,0" pers-size="0,0" pers-start="0,0" pers-end="0,0" locked="0" mesh="" flag=""/>
            <path id="shapePath3" d="M186.069,200.777 C176.923,191.184 177.286,175.992 186.879,166.846 L244.783,111.644 C254.376,102.498 269.568,102.861 278.714,112.455 L330.466,166.739 C339.612,176.333 339.249,191.524 329.655,200.67 L186.069,200.777 Z" style="stroke:#323232;stroke-opacity:1;stroke-width:1;stroke-linejoin:miter;stroke-miterlimit:2;stroke-linecap:round;fill-rule:evenodd;fill:#252525;fill-opacity:1;"/>
        </g>
    </g>
</svg>
