<?xml version="1.0" encoding="UTF-8" ?>
<!DOCTYPE svg PUBLIC "-//W3C//DTD SVG 1.1//EN" "http://www.w3.org/Graphics/SVG/1.1/DTD/svg11.dtd">
<svg width="256pt" height="256pt" viewBox="0 0 256 256" version="1.1" xmlns="http://www.w3.org/2000/svg">
<title>window_stack_hor icon</title>
<desc>icon from the IconExperience.com V-Collection. Copyright by INCORS GmbH (www.incors.com). Vectorized using Vector Magic.</desc>
<g id="#616161ff">
<path fill="#616161" stroke="#616161" stroke-width="0.09375" opacity="1.00" d=" M 29.16 32.26 C 32.75 31.79 36.38 32.05 39.98 32.00 C 101.01 31.99 162.04 32.01 223.06 31.99 C 232.33 31.27 240.76 39.74 240.01 49.00 C 239.96 104.73 240.06 160.47 239.96 216.20 C 240.05 220.80 235.55 224.51 231.06 224.01 C 162.34 224.00 93.63 224.00 24.91 224.00 C 20.38 224.51 15.88 220.72 16.03 216.08 C 15.97 160.03 16.00 103.98 16.02 47.93 C 15.88 40.43 21.78 33.46 29.16 32.26 M 32.00 80.00 C 32.00 122.67 32.00 165.33 32.00 208.00 C 49.67 208.00 67.33 208.00 85.00 208.00 C 85.00 165.33 85.00 122.67 85.00 80.00 C 67.33 80.00 49.67 80.00 32.00 80.00 M 101.00 80.00 C 101.00 122.67 101.00 165.33 101.00 208.00 C 119.00 208.00 137.00 208.00 155.00 208.00 C 155.00 165.33 155.00 122.67 155.00 80.00 C 137.00 80.00 119.00 80.00 101.00 80.00 M 171.00 80.00 C 171.00 122.67 171.00 165.33 171.00 208.00 C 188.67 208.00 206.33 208.00 224.00 208.00 C 224.00 165.33 224.00 122.67 224.00 80.00 C 206.33 80.00 188.67 80.00 171.00 80.00 Z" />
</g>
</svg>
