<?xml version="1.0" encoding="UTF-8" ?>
<!DOCTYPE svg PUBLIC "-//W3C//DTD SVG 1.1//EN" "http://www.w3.org/Graphics/SVG/1.1/DTD/svg11.dtd">
<svg width="256pt" height="256pt" viewBox="0 0 256 256" version="1.1" xmlns="http://www.w3.org/2000/svg">
<title>window_stack_ver icon</title>
<desc>icon from the IconExperience.com V-Collection. Copyright by INCORS GmbH (www.incors.com). Vectorized using Vector Magic.</desc>
<g id="#616161ff">
<path fill="#616161" stroke="#616161" stroke-width="0.09375" opacity="1.00" d=" M 29.14 32.26 C 32.41 31.82 35.72 32.03 39.01 32.00 C 98.66 32.00 158.30 32.01 217.94 32.00 C 222.19 32.07 226.70 31.51 230.64 33.45 C 236.59 36.07 240.39 42.54 240.01 49.00 C 239.97 104.69 240.05 160.38 239.97 216.07 C 240.09 220.30 236.26 224.11 232.03 223.97 C 163.03 224.05 94.03 223.97 25.02 224.01 C 20.02 224.64 15.40 220.10 16.00 215.07 C 16.02 159.37 15.97 103.66 16.02 47.95 C 15.87 40.45 21.76 33.47 29.14 32.26 M 32.00 80.00 C 32.00 90.33 32.00 100.67 32.00 111.00 C 96.00 111.00 160.00 111.00 224.00 111.00 C 224.00 100.67 224.00 90.33 224.00 80.00 C 160.00 80.00 96.00 80.00 32.00 80.00 M 32.00 125.00 C 32.00 136.33 32.00 147.67 32.00 159.00 C 96.00 159.00 160.00 159.00 224.00 159.00 C 224.00 147.67 224.00 136.33 224.00 125.00 C 160.00 125.00 96.00 125.00 32.00 125.00 M 32.00 175.00 C 32.00 186.00 32.00 197.00 32.00 208.00 C 96.00 208.00 160.00 208.00 224.00 208.00 C 224.00 197.00 224.00 186.00 224.00 175.00 C 160.00 175.00 96.00 175.00 32.00 175.00 Z" />
</g>
</svg>
