<?xml version="1.0" encoding="UTF-8" ?>
<!DOCTYPE svg PUBLIC "-//W3C//DTD SVG 1.1//EN" "http://www.w3.org/Graphics/SVG/1.1/DTD/svg11.dtd">
<svg width="256pt" height="256pt" viewBox="0 0 256 256" version="1.1" xmlns="http://www.w3.org/2000/svg">
<title>tabs_to_spaces icon</title>
<desc>icon from the IconExperience.com V-Collection. Copyright by INCORS GmbH (www.incors.com). Vectorized using Vector Magic.</desc>
<g id="#616161ff">
<path fill="#252525" stroke="#808080" stroke-width="0.09375" opacity="1.00" d=" M 74.23 23.16 C 76.71 20.49 81.07 19.89 84.15 21.86 C 85.90 23.06 87.29 24.69 88.80 26.17 C 102.95 40.34 117.13 54.49 131.28 68.66 C 134.31 71.59 136.07 75.75 135.99 79.97 C 135.99 89.67 136.05 99.37 135.96 109.07 C 136.17 112.43 131.43 114.36 129.23 111.81 C 118.10 100.82 107.12 89.68 96.02 78.66 C 95.98 122.79 96.00 166.92 96.01 211.04 C 95.98 213.34 96.16 215.67 95.76 217.95 C 94.95 221.39 91.62 224.05 88.07 223.97 C 82.70 224.03 77.32 224.03 71.95 223.98 C 67.75 224.09 63.94 220.33 64.03 216.13 C 63.95 170.31 64.04 124.49 63.98 78.67 C 52.88 89.67 41.90 100.81 30.78 111.79 C 28.59 114.36 23.84 112.45 24.04 109.08 C 23.95 99.37 24.01 89.65 24.01 79.94 C 23.93 75.73 25.70 71.60 28.71 68.67 C 43.88 53.50 59.04 38.32 74.23 23.16 Z" />
</g>
<g id="#060606fe">
<path fill="#252525" stroke="#808080" stroke-width="0.09375" opacity="1.00" d=" M 163.09 66.30 C 165.61 52.54 179.03 41.80 193.02 42.50 C 206.57 42.81 218.90 53.66 221.06 67.02 C 222.96 77.00 218.93 87.68 211.22 94.22 C 206.40 98.35 200.15 101.67 193.62 100.55 C 195.07 100.73 196.51 100.93 197.95 101.15 C 189.80 102.36 181.01 100.79 174.46 95.58 C 165.53 89.03 160.66 77.20 163.09 66.30 M 172.05 69.98 C 174.68 73.69 181.45 71.72 181.48 67.11 C 181.90 63.41 178.12 60.80 174.71 61.38 C 171.50 62.88 169.98 66.97 172.05 69.98 Z" />
<path fill="#252525" stroke="#808080" stroke-width="0.09375" opacity="1.00" d=" M 192.19 156.22 C 196.13 155.98 200.09 156.07 204.04 156.11 C 206.91 156.04 208.94 158.32 210.81 160.17 C 215.09 164.58 219.56 168.82 223.80 173.27 C 225.24 174.69 225.19 177.26 223.71 178.64 C 219.45 183.07 215.01 187.33 210.71 191.72 C 208.99 193.38 207.25 195.48 204.69 195.68 C 200.52 195.93 196.32 195.95 192.15 195.79 C 191.72 195.33 190.87 194.43 190.44 193.98 C 193.22 190.26 196.88 187.33 200.00 183.92 C 182.73 183.93 165.45 183.95 148.18 183.91 C 148.19 178.64 148.19 173.36 148.18 168.09 C 165.45 168.05 182.72 168.07 199.99 168.08 C 196.87 164.65 193.21 161.74 190.44 158.02 C 190.88 157.57 191.75 156.67 192.19 156.22 Z" />
</g>
<g id="#235DB8ff">
<path fill="#235DB8" stroke="#267bb0" stroke-width="0.09375" opacity="1.00" d=" M 227.87 136.17 C 233.19 136.17 238.51 136.15 243.83 136.19 C 243.79 162.73 243.79 189.27 243.83 215.81 C 238.51 215.84 233.19 215.83 227.87 215.83 C 227.86 189.27 227.86 162.72 227.87 136.17 Z" />
</g>
</svg>
