<?xml version="1.0" encoding="UTF-8"?>
<!DOCTYPE svg PUBLIC "-//W3C//DTD SVG 1.1//EN" "http://www.w3.org/Graphics/SVG/1.1/DTD/svg11.dtd">
<svg xmlns="http://www.w3.org/2000/svg" xml:space="preserve" width="1024px" height="1024px" shape-rendering="geometricPrecision" text-rendering="geometricPrecision" image-rendering="optimizeQuality" fill-rule="nonzero" clip-rule="evenodd" viewBox="0 0 10240 10240" xmlns:xlink="http://www.w3.org/1999/xlink">
	<title>text icon</title>
	<desc>text icon from the IconExperience.com O-Collection. Copyright by INCORS GmbH (www.incors.com).</desc>
	<path id="curve1" fill="#252525" d="M1280 640l7680 0 0 8960 -7680 0 0 -8960zm640 640l0 7680 6400 0 0 -7680 -6400 0z"/>
	<path id="curve0" fill="#252525" d="M5760 7382l1920 0 0 640 -1920 0 0 -640zm-3200 -5120l5120 0 0 640 -5120 0 0 -640zm0 1280l2560 0 0 640 -2560 0 0 -640zm0 1280l5120 0 0 640 -5120 0 0 -640zm0 1280l1280 0 0 640 -1280 0 0 -640zm0 1280l2560 0 0 640 -2560 0 0 -640zm3200 -3840l1920 0 0 640 -1920 0 0 -640zm-1280 2560l3200 0 0 640 -3200 0 0 -640z"/>
</svg>
