<?xml version="1.0" encoding="UTF-8"?>
<!DOCTYPE svg PUBLIC "-//W3C//DTD SVG 1.1//EN" "http://www.w3.org/Graphics/SVG/1.1/DTD/svg11.dtd">
<svg xmlns="http://www.w3.org/2000/svg" xml:space="preserve" width="1024px" height="1024px" shape-rendering="geometricPrecision" text-rendering="geometricPrecision" image-rendering="optimizeQuality" fill-rule="nonzero" clip-rule="evenodd" viewBox="0 0 10240 10240" xmlns:xlink="http://www.w3.org/1999/xlink">

<g transform="translate(0,-200) scale(0.5,0.4)">
	<title>window icon</title>
	<desc>window icon from the IconExperience.com O-Collection. Copyright by INCORS GmbH (www.incors.com).</desc>
	<path id="curve0" fill="#252525" d="M1280 1280l7680 0c353,0 640,288 640,640l0 6720c0,176 -144,320 -320,320l-8320 0c-176,0 -320,-144 -320,-320l0 -6720c0,-353 288,-640 640,-640zm0 1920l0 5120 7680 0 0 -5120 -7680 0z"/>
</g>

<g transform="translate(0,3100) scale(0.5,0.4)">
	<title>window icon</title>
	<desc>window icon from the IconExperience.com O-Collection. Copyright by INCORS GmbH (www.incors.com).</desc>
	<path id="curve0" fill="#252525" d="M1280 1280l7680 0c353,0 640,288 640,640l0 6720c0,176 -144,320 -320,320l-8320 0c-176,0 -320,-144 -320,-320l0 -6720c0,-353 288,-640 640,-640zm0 1920l0 5120 7680 0 0 -5120 -7680 0z"/>
</g>

<g transform="translate(0,6400) scale(0.5,0.4)">
	<title>window icon</title>
	<desc>window icon from the IconExperience.com O-Collection. Copyright by INCORS GmbH (www.incors.com).</desc>
	<path id="curve0" fill="#252525" d="M1280 1280l7680 0c353,0 640,288 640,640l0 6720c0,176 -144,320 -320,320l-8320 0c-176,0 -320,-144 -320,-320l0 -6720c0,-353 288,-640 640,-640zm0 1920l0 5120 7680 0 0 -5120 -7680 0z"/>
</g>

<g transform="translate(5120,-200) scale(0.5,0.4)">
	<title>window icon</title>
	<desc>window icon from the IconExperience.com O-Collection. Copyright by INCORS GmbH (www.incors.com).</desc>
	<path id="curve0" fill="#252525" d="M1280 1280l7680 0c353,0 640,288 640,640l0 6720c0,176 -144,320 -320,320l-8320 0c-176,0 -320,-144 -320,-320l0 -6720c0,-353 288,-640 640,-640zm0 1920l0 5120 7680 0 0 -5120 -7680 0z"/>
</g>

<g transform="translate(5120,3100) scale(0.5,0.4)">
	<title>window icon</title>
	<desc>window icon from the IconExperience.com O-Collection. Copyright by INCORS GmbH (www.incors.com).</desc>
	<path id="curve0" fill="#252525" d="M1280 1280l7680 0c353,0 640,288 640,640l0 6720c0,176 -144,320 -320,320l-8320 0c-176,0 -320,-144 -320,-320l0 -6720c0,-353 288,-640 640,-640zm0 1920l0 5120 7680 0 0 -5120 -7680 0z"/>
</g>

<g transform="translate(5120,6400) scale(0.5,0.4)">
	<title>window icon</title>
	<desc>window icon from the IconExperience.com O-Collection. Copyright by INCORS GmbH (www.incors.com).</desc>
	<path id="curve0" fill="#252525" d="M1280 1280l7680 0c353,0 640,288 640,640l0 6720c0,176 -144,320 -320,320l-8320 0c-176,0 -320,-144 -320,-320l0 -6720c0,-353 288,-640 640,-640zm0 1920l0 5120 7680 0 0 -5120 -7680 0z"/>
</g>

</svg>
