<?xml version="1.0" encoding="UTF-8"?>
<!DOCTYPE svg PUBLIC "-//W3C//DTD SVG 1.1//EN" "http://www.w3.org/Graphics/SVG/1.1/DTD/svg11.dtd">
<svg xmlns="http://www.w3.org/2000/svg" xml:space="preserve" width="1024px" height="1024px" shape-rendering="geometricPrecision" text-rendering="geometricPrecision" image-rendering="optimizeQuality" fill-rule="nonzero" clip-rule="evenodd" viewBox="0 0 10240 10240" xmlns:xlink="http://www.w3.org/1999/xlink">
	<title>gearwheels icon</title>
	<desc>gearwheels icon from the IconExperience.com O-Collection. Copyright by INCORS GmbH (www.incors.com).</desc>
	<path id="curve1" fill="#252525" d="M8119 3668c-10,19 -14,40 -11,62l73 607c11,94 -37,181 -123,221 -141,66 -277,119 -426,165 -90,28 -184,-4 -239,-80l-357 -497c-15,-20 -35,-34 -57,-40 -121,-5 -244,-25 -360,-58 -21,2 -41,9 -59,22l-488 366c-76,57 -176,59 -253,4 -128,-88 -242,-180 -356,-286 -70,-64 -89,-161 -50,-247l251 -558c10,-23 13,-46 7,-69 -56,-107 -101,-222 -131,-341 -11,-17 -27,-31 -48,-39l-561 -241c-87,-37 -138,-122 -130,-216 13,-156 35,-300 70,-452 21,-92 95,-157 189,-167l608 -61c25,-2 47,-12 63,-28 66,-104 143,-199 230,-283 10,-19 14,-40 11,-62l-73 -607c-11,-94 37,-181 123,-221 141,-66 277,-119 426,-165 90,-28 184,3 239,80l357 497c15,20 35,34 57,40 120,5 244,25 360,58 21,-2 41,-9 59,-22l488 -366c76,-57 176,-59 253,-5 128,89 242,181 356,287 70,64 89,161 50,247l-251 558c-10,23 -13,47 -7,69 56,107 101,222 131,341 11,17 27,31 48,39l561 241c87,37 138,122 130,216 -13,156 -35,300 -70,452 -21,92 -95,157 -189,167l-608 61c-25,2 -47,12 -63,28 -66,104 -143,199 -230,283zm-1079 -1748c-353,0 -640,287 -640,640 0,353 287,640 640,640 353,0 640,-287 640,-640 0,-353 -287,-640 -640,-640z"/>
	<path id="curve0" fill="#252525" d="M5358 4370c83,62 161,129 235,200 32,30 73,41 115,29l657 -179c102,-27 205,11 264,99 95,143 175,283 250,438 46,95 27,204 -49,278l-488 473c-31,30 -43,72 -33,114 23,101 40,203 51,305 5,43 30,78 69,97l618 285c96,44 150,140 138,245 -19,171 -48,330 -90,497 -26,102 -111,173 -216,180l-679 49c-43,4 -79,27 -99,66 -46,92 -98,181 -156,266 -24,36 -27,79 -9,118l290 615c45,95 24,204 -52,276 -125,120 -250,223 -390,324 -85,61 -196,61 -281,-1l-552 -399c-35,-25 -77,-30 -117,-13 -94,40 -190,74 -289,103 -41,12 -71,43 -82,85l-174 657c-27,102 -112,172 -217,178 -173,11 -335,10 -508,-3 -105,-8 -189,-79 -215,-181l-166 -661c-11,-42 -40,-73 -82,-86 -96,-29 -191,-64 -283,-105 -40,-18 -83,-13 -118,12l-556 392c-86,61 -197,59 -281,-3 -140,-103 -264,-209 -388,-330 -75,-73 -94,-182 -48,-277l297 -613c19,-39 16,-81 -7,-118 -55,-84 -105,-171 -149,-261 -20,-39 -55,-63 -98,-67l-679 -56c-105,-9 -189,-81 -214,-183 -41,-169 -68,-329 -85,-502 -10,-105 45,-200 141,-243l622 -279c39,-17 65,-52 70,-95 12,-100 30,-199 53,-296 11,-42 -1,-84 -32,-114l-484 -480c-74,-74 -93,-183 -46,-278 77,-155 159,-295 257,-439 59,-86 163,-124 264,-95l655 186c42,12 84,2 115,-28 74,-69 152,-134 233,-194 35,-25 52,-64 48,-108l-62 -679c-9,-105 47,-200 143,-242 158,-70 311,-125 477,-172 102,-28 206,10 265,97l382 563c24,36 62,55 106,53 102,-6 204,-5 306,1 43,3 81,-16 106,-51l389 -560c60,-87 164,-124 265,-94 166,48 318,104 475,175 96,44 151,139 140,244l-69 677c-5,43 13,82 47,108zm-1518 750c-707,0 -1280,573 -1280,1280 0,707 573,1280 1280,1280 707,0 1280,-573 1280,-1280 0,-707 -573,-1280 -1280,-1280z"/>
</svg>
