<?xml version="1.0" encoding="UTF-8"?>
<!DOCTYPE svg PUBLIC "-//W3C//DTD SVG 1.1//EN" "http://www.w3.org/Graphics/SVG/1.1/DTD/svg11.dtd">
<svg xmlns="http://www.w3.org/2000/svg" xml:space="preserve" width="1024px" height="1024px" shape-rendering="geometricPrecision" text-rendering="geometricPrecision" image-rendering="optimizeQuality" fill-rule="nonzero" clip-rule="evenodd" viewBox="0 0 10240 10240" xmlns:xlink="http://www.w3.org/1999/xlink">
	<title>paperclip icon</title>
	<desc>paperclip icon from the IconExperience.com O-Collection. Copyright by INCORS GmbH (www.incors.com).</desc>
	<path id="curve0" fill="#252525" d="M5440 320c1237,0 2240,1003 2240,2240l0 4960c0,88 -72,160 -160,160l-320 0c-88,0 -160,-72 -160,-160l0 -4960c0,-884 -716,-1600 -1600,-1600 -884,0 -1600,716 -1600,1600l0 5600c0,619 501,1120 1120,1120 619,0 1120,-501 1120,-1120l0 -4320c0,-353 -286,-640 -640,-640 -353,0 -640,287 -640,640l0 3040c0,88 -72,160 -160,160l-320 0c-88,0 -160,-72 -160,-160l0 -3040c0,-707 573,-1280 1280,-1280 707,0 1280,573 1280,1280l0 4320c0,972 -788,1760 -1760,1760 -972,0 -1760,-788 -1760,-1760l0 -5600c0,-1237 1003,-2240 2240,-2240z"/>
</svg>
