<?xml version="1.0" encoding="UTF-8"?>
<!DOCTYPE svg PUBLIC "-//W3C//DTD SVG 1.1//EN" "http://www.w3.org/Graphics/SVG/1.1/DTD/svg11.dtd">
<svg xmlns="http://www.w3.org/2000/svg" xml:space="preserve" width="1024px" height="1024px" shape-rendering="geometricPrecision" text-rendering="geometricPrecision" image-rendering="optimizeQuality" fill-rule="nonzero" clip-rule="evenodd" viewBox="0 0 10240 10240" xmlns:xlink="http://www.w3.org/1999/xlink">
	<title>screwdriver icon</title>
	<desc>screwdriver icon from the IconExperience.com O-Collection. Copyright by INCORS GmbH (www.incors.com).</desc>
	<path id="curve1" fill="#FFFF2F" d="M2877 9173c-250,250 -858,47 -1357,-453 -500,-499 -703,-1107 -453,-1357l2169 -2169c62,-63 138,-94 226,-94 177,0 320,-144 320,-320l0 -133 227 -226c603,604 1206,1207 1810,1810l-226 227 -133 0c-176,0 -320,143 -320,320 0,88 -31,164 -94,226 -629,629 -1520,1520 -2169,2169zm1584 -2489c-124,-125 -328,-125 -452,0l-1584 1584c-125,124 -125,328 0,452 124,125 328,125 452,0l1584 -1584c125,-124 125,-327 0,-452zm-905 -905c-125,-125 -328,-125 -452,0l-1584 1584c-125,124 -125,328 0,452 124,125 328,125 452,0l1584 -1584c125,-124 125,-328 0,-452z"/>
	<path id="curve0" fill="#252525" d="M7063,2045 8157,1329 8911,2083 8195,3177 7554,3441 5517,5477 4763,4723 6799,2686z"/>
</svg>
