<?xml version="1.0" encoding="UTF-8"?>
<!DOCTYPE svg PUBLIC "-//W3C//DTD SVG 1.1//EN" "http://www.w3.org/Graphics/SVG/1.1/DTD/svg11.dtd">
<svg xmlns="http://www.w3.org/2000/svg" xml:space="preserve" width="1024px" height="1024px" shape-rendering="geometricPrecision" text-rendering="geometricPrecision" image-rendering="optimizeQuality" fill-rule="nonzero" clip-rule="evenodd" viewBox="0 0 10240 10240" xmlns:xlink="http://www.w3.org/1999/xlink">
	<title>music icon</title>
	<desc>music icon from the IconExperience.com O-Collection. Copyright by INCORS GmbH (www.incors.com).</desc>
	<path id="curve0" fill="#235DB8" d="M7360 6001c360,-102 693,-101 960,-16l0 -3972 -4480 1039 0 4735c0,707 -716,1483 -1600,1734 -884,251 -1600,-118 -1600,-825 0,-707 716,-1484 1600,-1735 360,-102 693,-101 960,-16l0 -5025 5760 -1336 0 6243c0,707 -716,1483 -1600,1734 -884,251 -1600,-118 -1600,-825 0,-707 716,-1484 1600,-1735z"/>
</svg>
