<?xml version="1.0" encoding="UTF-8"?>
<!DOCTYPE svg PUBLIC "-//W3C//DTD SVG 1.1//EN" "http://www.w3.org/Graphics/SVG/1.1/DTD/svg11.dtd">
<svg xmlns="http://www.w3.org/2000/svg" xml:space="preserve" width="1024px" height="1024px" shape-rendering="geometricPrecision" text-rendering="geometricPrecision" image-rendering="optimizeQuality" fill-rule="nonzero" clip-rule="evenodd" viewBox="0 0 10240 10240" xmlns:xlink="http://www.w3.org/1999/xlink">
	<title>chart_bar icon</title>
	<desc>chart_bar icon from the IconExperience.com O-Collection. Copyright by INCORS GmbH (www.incors.com).</desc>
	<path id="curve2" fill="#252525" d="M1280,8960 9600,8960 9600,9600 1280,9600 640,9600 640,8960 640,1280 1280,1280z"/>
	<path id="curve1" fill="#235DB8" d="M7040 1920l1920 0 0 1600 -7360 0 0 -640 5440 0 0 -960zm-1600 5120l960 0 0 1600 -4800 0 0 -640 3840 0 0 -960zm640 -2560l1600 0 0 1600 -6080 0 0 -640 4480 0 0 -960z"/>
	<path id="curve0" fill="#EDCA36" d="M1600 1280l5120 0 0 1280 -5120 0 0 -1280zm0 5120l3520 0 0 1280 -3520 0 0 -1280zm0 -2560l4160 0 0 1280 -4160 0 0 -1280z"/>
</svg>
