<?xml version="1.0" encoding="UTF-8"?>
<!DOCTYPE svg PUBLIC "-//W3C//DTD SVG 1.1//EN" "http://www.w3.org/Graphics/SVG/1.1/DTD/svg11.dtd">
<svg xmlns="http://www.w3.org/2000/svg" xml:space="preserve" width="1024px" height="1024px" shape-rendering="geometricPrecision" text-rendering="geometricPrecision" image-rendering="optimizeQuality" fill-rule="nonzero" clip-rule="evenodd" viewBox="0 0 10240 10240" xmlns:xlink="http://www.w3.org/1999/xlink">
	<title>power_drill icon</title>
	<desc>power_drill icon from the IconExperience.com O-Collection. Copyright by INCORS GmbH (www.incors.com).</desc>
	<path id="curve3" fill="#235DB8" d="M6568 6400l-168 0c-353,0 -640,-287 -640,-640l0 -902c295,106 521,353 599,677l209 865z"/>
	<path id="curve2" fill="#252525" d="M4800 1920l4160 0c529,0 960,431 960,960l0 1071c0,258 -143,478 -378,584 -91,41 -172,104 -238,189 -126,159 -167,349 -120,546l450 1865c71,296 9,580 -179,819 -188,239 -450,366 -754,366 -554,0 -1107,0 -1661,0 -352,0 -640,-287 -640,-640l0 -84c0,-257 142,-478 377,-583 46,-21 86,-53 119,-95 63,-80 84,-174 60,-273l-286 -1185c-140,-582 -645,-980 -1244,-980l-626 0 0 -2560z"/>
	<path id="curve1" fill="#235DB8" d="M3066 2350c459,-462 878,-471 1414,-430l0 2560c-550,0 -1099,0 -1446,-405 -104,-121 -154,-258 -154,-417l0 -857c0,-175 62,-326 186,-451z"/>
	<path id="curve0" fill="#252525" d="M480 2880l640 0 320 640 -640 0 -320 -640zm0 640l-160 0c-176,0 -320,-144 -320,-320l0 0c0,-125 72,-233 177,-286l303 606zm960 -640l640 0 320 640 -640 0 -320 -640zm960 0l160 0 0 320 -160 -320z"/>
</svg>
