<?xml version="1.0" encoding="UTF-8" ?>
<!DOCTYPE svg PUBLIC "-//W3C//DTD SVG 1.1//EN" "http://www.w3.org/Graphics/SVG/1.1/DTD/svg11.dtd">
<svg width="256pt" height="256pt" viewBox="0 0 256 256" version="1.1" xmlns="http://www.w3.org/2000/svg">
<title>upcase icon</title>
<desc>icon from the IconExperience.com V-Collection. Copyright by INCORS GmbH (www.incors.com). Vectorized using Vector Magic.</desc>
<g id="#616161ff">
<path fill="#616161" stroke="#616161" stroke-width="0.09375" opacity="1.00" d=" M 73.68 23.68 C 75.57 21.68 78.26 20.28 81.08 20.77 C 84.39 21.15 86.55 23.95 88.77 26.12 C 102.91 40.33 117.13 54.47 131.29 68.67 C 134.30 71.62 136.07 75.74 135.98 79.99 C 135.98 89.68 136.09 99.39 135.94 109.09 C 136.11 111.85 132.73 113.93 130.33 112.58 C 128.18 111.14 126.52 109.11 124.68 107.32 C 115.13 97.75 105.58 88.19 96.01 78.65 C 96.01 122.78 95.98 166.91 96.02 211.04 C 95.95 214.62 96.60 218.89 93.69 221.62 C 90.11 225.26 84.57 223.67 80.03 224.00 C 75.51 223.66 70.00 225.26 66.39 221.70 C 63.38 218.97 64.05 214.61 63.98 210.97 C 64.02 166.86 64.00 122.76 63.99 78.65 C 54.42 88.20 44.86 97.76 35.30 107.33 C 33.47 109.11 31.82 111.14 29.68 112.57 C 27.31 113.93 23.92 111.88 24.07 109.12 C 23.91 99.42 24.02 89.71 24.02 80.01 C 23.92 75.77 25.69 71.63 28.71 68.68 C 43.68 53.66 58.71 38.69 73.68 23.68 Z" />
</g>
<g id="#235DB8ff">
<path fill="#235DB8" stroke="#4476aa" stroke-width="0.09375" opacity="1.00" d=" M 172.79 52.65 C 174.05 49.95 176.84 48.03 179.86 48.09 C 187.25 47.95 194.65 48.11 202.05 48.02 C 205.44 47.74 209.26 48.83 210.88 52.09 C 216.20 62.34 220.03 73.38 222.20 84.73 C 224.99 98.99 223.68 113.57 223.99 127.99 C 218.66 127.99 213.33 127.98 208.01 127.99 C 208.02 122.66 208.01 117.32 208.01 111.99 C 197.34 111.99 186.66 111.99 175.99 111.99 C 175.99 117.32 175.98 122.66 175.99 127.99 C 170.66 127.99 165.34 127.98 160.01 127.99 C 160.13 117.66 159.75 107.31 160.25 96.98 C 161.28 81.54 165.86 66.44 172.79 52.65 M 185.00 63.98 C 180.46 74.12 177.39 84.94 176.32 96.01 C 186.77 96.01 197.23 96.01 207.68 96.01 C 206.61 84.94 203.54 74.12 199.00 63.98 C 194.33 63.99 189.67 64.00 185.00 63.98 Z" />
<path fill="#235DB8" stroke="#4476aa" stroke-width="0.09375" opacity="1.00" d=" M 185.35 147.84 C 187.64 146.40 190.45 147.16 192.99 146.98 C 195.86 147.19 198.99 146.35 201.64 147.79 C 203.30 147.98 205.01 147.99 206.58 148.66 C 207.54 148.97 208.51 149.29 209.48 149.62 C 210.83 150.52 212.15 151.49 213.60 152.25 C 215.14 153.40 216.49 154.80 217.35 156.54 C 217.58 157.04 218.03 158.03 218.26 158.53 C 219.65 160.56 220.21 162.92 220.19 165.37 C 220.83 166.50 221.11 167.71 221.03 169.01 C 220.99 185.27 220.98 201.53 221.03 217.79 C 216.31 219.66 210.66 219.66 205.95 217.78 C 205.98 215.76 206.02 213.75 206.13 211.74 C 202.97 212.82 201.37 215.96 198.43 217.29 C 196.22 218.49 193.96 219.59 191.58 220.38 C 187.66 221.37 183.24 221.52 179.37 220.30 C 178.04 220.01 176.71 219.75 175.42 219.35 C 174.46 219.03 173.49 218.72 172.53 218.41 C 170.64 217.38 169.36 215.51 167.34 214.69 C 166.49 213.26 165.57 211.87 164.67 210.47 C 163.87 208.89 163.19 207.26 162.63 205.59 C 161.58 201.69 161.57 197.31 162.64 193.41 C 162.97 192.45 163.31 191.49 163.67 190.54 C 163.92 190.04 164.43 189.04 164.68 188.55 C 165.67 186.32 167.62 184.82 169.40 183.25 C 170.84 182.49 172.16 181.53 173.51 180.62 C 174.48 180.28 175.44 179.96 176.42 179.65 C 177.71 179.25 179.04 178.98 180.37 178.71 C 182.23 177.79 184.34 178.01 186.35 177.84 C 191.58 175.92 197.48 177.50 202.99 177.00 C 202.85 173.86 203.51 170.56 202.40 167.54 C 202.13 167.05 201.58 166.06 201.30 165.56 C 200.68 164.23 199.78 163.06 198.61 162.17 C 197.48 161.95 196.39 161.60 195.34 161.13 C 192.12 160.93 188.88 160.94 185.65 161.12 C 184.42 161.88 182.97 162.00 181.58 162.22 C 180.27 162.73 178.93 163.19 177.64 163.74 C 175.98 164.46 174.28 165.08 172.60 165.74 C 170.52 167.40 167.04 167.66 166.60 164.39 C 165.61 161.60 165.64 158.41 166.59 155.62 C 167.05 154.11 167.98 153.04 169.59 152.76 C 170.91 152.05 172.23 151.34 173.57 150.64 C 174.51 150.31 175.47 150.00 176.43 149.70 C 177.42 149.34 178.41 148.99 179.41 148.65 C 181.29 147.85 183.36 147.99 185.35 147.84 M 190.65 189.12 C 189.03 189.89 187.25 190.15 185.54 190.57 C 183.42 191.71 181.77 193.50 180.52 195.53 C 179.58 198.19 179.71 201.19 181.24 203.61 C 181.50 204.14 182.00 205.21 182.26 205.74 C 183.39 206.24 184.51 206.79 185.61 207.36 C 187.71 208.40 190.11 207.97 192.36 207.88 C 193.39 207.44 194.45 207.04 195.52 206.70 C 196.51 205.98 197.51 205.28 198.60 204.72 C 200.15 203.42 201.55 201.94 203.01 200.54 C 202.98 196.70 203.00 192.85 203.00 189.00 C 198.88 189.04 194.76 188.90 190.65 189.12 Z" />
</g>
</svg>
