<?xml version="1.0" encoding="UTF-8"?>
<!DOCTYPE svg PUBLIC "-//W3C//DTD SVG 1.1//EN" "http://www.w3.org/Graphics/SVG/1.1/DTD/svg11.dtd">
<svg xmlns="http://www.w3.org/2000/svg" xml:space="preserve" width="1024px" height="1024px" shape-rendering="geometricPrecision" text-rendering="geometricPrecision" image-rendering="optimizeQuality" fill-rule="nonzero" clip-rule="evenodd" viewBox="0 0 10240 10240" xmlns:xlink="http://www.w3.org/1999/xlink">
	<title>lock_open icon</title>
	<desc>lock_open icon from the IconExperience.com O-Collection. Copyright by INCORS GmbH (www.incors.com).</desc>
	<path id="curve1" fill="#EDCA36" d="M1920 5120l6400 0c353,0 640,287 640,640l0 3200c0,353 -287,640 -640,640l-6400 0c-353,0 -640,-287 -640,-640l0 -3200c0,-353 287,-640 640,-640zm3200 960c-353,0 -640,287 -640,640 0,201 92,380 237,497l-237 1423 1280 0 -237 -1423c145,-117 237,-296 237,-497 0,-353 -287,-640 -640,-640z"/>
	<path id="curve0" fill="#252525" d="M5120 652c1767,0 3200,1433 3200,3200l0 948 -1280 0 0 -948c0,-1060 -860,-1920 -1920,-1920 -748,0 -1396,428 -1713,1052l-1145 -573c527,-1043 1609,-1759 2858,-1759z"/>
</svg>
