<?xml version="1.0" encoding="UTF-8"?>
<!DOCTYPE svg PUBLIC "-//W3C//DTD SVG 1.1//EN" "http://www.w3.org/Graphics/SVG/1.1/DTD/svg11.dtd">
<svg xmlns="http://www.w3.org/2000/svg" xml:space="preserve" width="1024px" height="1024px" shape-rendering="geometricPrecision" text-rendering="geometricPrecision" image-rendering="optimizeQuality" fill-rule="nonzero" clip-rule="evenodd" viewBox="0 0 10240 10240" xmlns:xlink="http://www.w3.org/1999/xlink">
	<title>shelf_full icon</title>
	<desc>shelf_full icon from the IconExperience.com O-Collection. Copyright by INCORS GmbH (www.incors.com).</desc>
	<path id="curve8" fill="#252525" d="M8960 960l0 8640 -640 0 0 -8320 -6400 0 0 8320 -640 0 0 -8640c0,-176 144,-320 320,-320 2347,0 4693,0 7040,0 176,0 320,144 320,320z"/>
	<path id="curve7" fill="#252525" d="M2240 8320l5760 0 0 640 -5760 0 0 -640zm0 -5120l5760 0 0 640 -5760 0 0 -640zm0 2560l5760 0 0 640 -5760 0 0 -640z"/>
	<path id="curve6" fill="#2CA744" d="M4480,7360 7680,7360 7680,8000 4480,8000z"/>
	<path id="curve5" fill="#2CA744" d="M2560,6720 4160,6720 4160,8000 2560,8000z"/>
	<path id="curve4" fill="#2CA744" d="M7680,4160 5120,4160 5120,5440 7680,5440z"/>
	<path id="curve3" fill="#2CA744" d="M3840,4480 4800,4480 4800,5440 3840,5440z"/>
	<path id="curve2" fill="#2CA744" d="M2560,4480 3520,4480 3520,5440 2560,5440z"/>
	<path id="curve1" fill="#2CA744" d="M5760,1920 7680,1920 7680,2880 5760,2880z"/>
	<path id="curve0" fill="#2CA744" d="M2560,1920 5440,1920 5440,2880 2560,2880z"/>
</svg>
