<?xml version="1.0" encoding="UTF-8"?>
<!DOCTYPE svg PUBLIC "-//W3C//DTD SVG 1.1//EN" "http://www.w3.org/Graphics/SVG/1.1/DTD/svg11.dtd">
<svg xmlns="http://www.w3.org/2000/svg" xml:space="preserve" width="1024px" height="1024px" shape-rendering="geometricPrecision" text-rendering="geometricPrecision" image-rendering="optimizeQuality" fill-rule="nonzero" clip-rule="evenodd" viewBox="0 0 10240 10240" xmlns:xlink="http://www.w3.org/1999/xlink">
	<title>scroll icon</title>
	<desc>scroll icon from the IconExperience.com O-Collection. Copyright by INCORS GmbH (www.incors.com).</desc>
	<path id="curve0" fill="#EDCA36" d="M8320 8000c0,530 -430,960 -960,960l-5760 0c-530,0 -960,-430 -960,-960 0,-530 430,-960 960,-960l5440 0c176,0 320,144 320,320l0 86c0,117 -58,218 -160,277 -96,55 -160,159 -160,277 0,177 143,320 320,320 177,0 320,-143 320,-320l0 -5760c0,-112 19,-220 55,-320l-4855 0c-177,0 -320,143 -320,320l0 4480 -640 0 0 -4480c0,-530 430,-960 960,-960l5760 0c530,0 960,430 960,960 0,530 -430,960 -960,960l0 -640c177,0 320,-143 320,-320 0,-177 -143,-320 -320,-320 -177,0 -320,143 -320,320l0 5760zm-1865 320c-73,-205 -73,-435 0,-640l-4855 0c-177,0 -320,143 -320,320 0,177 143,320 320,320l4855 0z"/>


<g comp-op="clear">
<g transform="translate(5120,5120) scale(0.5,0.5)"  stroke="#252525" stroke-width="512" stroke-linejoin="round">
	<title>clock icon</title>
	<desc>clock icon from the IconExperience.com O-Collection. Copyright by INCORS GmbH (www.incors.com).</desc>
    <circle fill="white" cx="5120" cy="5120" r="3600"/>
	<path id="curve1" fill="#235DB8" d="M3803 2203l1317 2277 0 0c116,0 226,31 320,85l1718 -994c129,170 238,355 321,554l-1719 995 0 0c0,353 -287,640 -640,640 -353,0 -640,-287 -640,-640 0,-116 31,-226 85,-320l-1316 -2276c172,-125 358,-233 554,-321z"/>
	<path id="curve0" fill="#252525" d="M5120 640c2474,0 4480,2006 4480,4480 0,2474 -2006,4480 -4480,4480 -2474,0 -4480,-2006 -4480,-4480 0,-2474 2006,-4480 4480,-4480zm0 960c-1944,0 -3520,1576 -3520,3520 0,1944 1576,3520 3520,3520 1944,0 3520,-1576 3520,-3520 0,-1944 -1576,-3520 -3520,-3520z"/>
</g>
</g>



<g transform="translate(5120,5120) scale(0.5,0.5)">
	<title>clock icon</title>
	<desc>clock icon from the IconExperience.com O-Collection. Copyright by INCORS GmbH (www.incors.com).</desc>
    <circle fill="white" cx="5120" cy="5120" r="3600"/>
	<path id="curve1" fill="#235DB8" d="M3803 2203l1317 2277 0 0c116,0 226,31 320,85l1718 -994c129,170 238,355 321,554l-1719 995 0 0c0,353 -287,640 -640,640 -353,0 -640,-287 -640,-640 0,-116 31,-226 85,-320l-1316 -2276c172,-125 358,-233 554,-321z"/>
	<path id="curve0" fill="#252525" d="M5120 640c2474,0 4480,2006 4480,4480 0,2474 -2006,4480 -4480,4480 -2474,0 -4480,-2006 -4480,-4480 0,-2474 2006,-4480 4480,-4480zm0 960c-1944,0 -3520,1576 -3520,3520 0,1944 1576,3520 3520,3520 1944,0 3520,-1576 3520,-3520 0,-1944 -1576,-3520 -3520,-3520z"/>
</g>

</svg>
