<?xml version="1.0" encoding="UTF-8"?>
<!DOCTYPE svg PUBLIC "-//W3C//DTD SVG 1.1//EN" "http://www.w3.org/Graphics/SVG/1.1/DTD/svg11.dtd">
<svg xmlns="http://www.w3.org/2000/svg" xml:space="preserve" width="1024px" height="1024px" shape-rendering="geometricPrecision" text-rendering="geometricPrecision" image-rendering="optimizeQuality" fill-rule="nonzero" clip-rule="evenodd" viewBox="0 0 10240 10240" xmlns:xlink="http://www.w3.org/1999/xlink">
	<title>scroll_bar_vertical icon</title>
	<desc>scroll_bar_vertical icon from the IconExperience.com O-Collection. Copyright by INCORS GmbH (www.incors.com).</desc>
	<path id="curve0" fill="#235DB8" d="M4160 640l1920 0c176,0 320,144 320,320l0 8320c0,176 -144,320 -320,320l-1920 0c-176,0 -320,-144 -320,-320l0 -8320c0,-176 144,-320 320,-320zm307 7427c-62,0 -115,33 -143,88 -28,56 -22,118 15,168l640 853c31,42 76,64 128,64 52,0 97,-22 128,-64l640 -853c37,-50 43,-112 15,-168 -28,-55 -81,-88 -143,-88l-1280 0zm5 -5882l1281 0c62,0 115,-33 143,-88 27,-56 22,-118 -15,-168l-641 -853c-31,-42 -75,-64 -128,-64 -52,0 -96,22 -127,64l-641 853c-37,50 -42,112 -15,168 28,55 81,88 143,88zm8 695l0 4480 1280 0 0 -4480 -1280 0z"/>
</svg>
