/* XPM */ 
static char * vse16_xpm[] = {
"16 16 90 1",
" 	c None",
"!	c black",
"#	c #228A22",
"$	c #218921",
"%	c #218721",
"&	c #2A942A",
"'	c #339F33",
"(	c #3BAA3B",
")	c #44B544",
"*	c #4DBF4D",
"+	c #55CA55",
",	c #5ED55E",
"-	c #66DF66",
".	c #6FEA6F",
"0	c #77F477",
"1	c #80FF80",
"2	c #329E32",
"3	c #3AA83A",
"4	c #43B443",
"5	c #48B348",
"6	c #48AB48",
"7	c #5CD25C",
"8	c #64DB64",
"9	c #6EE96E",
":	c #4FBD4F",
";	c #000100",
"<	c #448C44",
"=	c #265F26",
">	c #569656",
"?	c #58C758",
"@	c #E5FCE5",
"A	c #F7FFF7",
"B	c #B0F8B0",
"C	c #72EA72",
"D	c #2C762C",
"E	c #153515",
"F	c #327632",
"G	c #173417",
"H	c #E8FCE8",
"I	c #B5FFB5",
"J	c #B4F9B4",
"K	c #A6ECA6",
"L	c #3AA93A",
"M	c #102910",
"N	c #214F21",
"O	c #5FD15F",
"P	c #8AFF8A",
"Q	c #80F480",
"R	c #93EF93",
"S	c #ABEDAB",
"T	c #DBF5DB",
"U	c #56CA56",
"V	c #357E35",
"W	c #112511",
"X	c #499B49",
"Y	c #6ACB6A",
"Z	c #010201",
"[	c #E7FCE7",
"]	c #E4FBE4",
"^	c #E9FAE9",
"_	c #F6FCF6",
"`	c #DBF3DB",
"a	c #54C954",
"b	c #58C958",
"c	c #50B050",
"d	c #275327",
"e	c #3F673F",
"f	c #5DD45D",
"g	c #255225",
"h	c #68DD68",
"i	c #2A552A",
"j	c #1E291E",
"k	c #EBF7EB",
"l	c #C8E9C8",
"m	c #316731",
"n	c #234723",
"o	c #408040",
"p	c #479047",
"q	c #FAFDFA",
"r	c #F0FAF0",
"s	c #F1FAF1",
"t	c #C2E6C2",
"u	c #3EAB3E",
"v	c #7FFE7F",
"w	c #43B343",
"x	c #3BA93B",
"y	c #65DD65",
"z	c #4FBB4F",
"{	c #40A140",
"|	c #218821",
"    ###$%###### ",
"   #&'()*+,-.01#",
"  #&23456789010#",
" #&2()*:;-.010.#",
"#&'(<=>?;.@ABC-#",
"#2(DEFG<;HIJ@K,#",
"#L)MN,O>;PQRSTU#",
"#4*V;WXYZ[]^_`*#",
"#*abcd!e;.-,+*)#",
"#+fgh0ij;K,+kl(#",
"#f-mnonp;qrstu'#",
"#-.0c<>O;+*)('&#",
"#.0v0.-?;*wx'&# ",
"#0109y,z{)L'&#  ",
"#10.-,+*)('&#   ",
" ######$|###    "};
