/* XPM */ 
static char * vse64_xpm[] = {
"64 64 356 2",
"  	c None",
"! 	c black",
"# 	c #279027",
"$ 	c #299329",
"% 	c #2B962B",
"& 	c #2D982D",
"' 	c #2F9B2F",
"( 	c #329E32",
") 	c #34A034",
"* 	c #36A336",
"+ 	c #38A638",
", 	c #3AA83A",
"- 	c #3CAB3C",
". 	c #3FAE3F",
"0 	c #41B041",
"1 	c #43B443",
"2 	c #45B645",
"3 	c #47B947",
"4 	c #4ABC4A",
"5 	c #4CBE4C",
"6 	c #4EC14E",
"7 	c #50C450",
"8 	c #52C652",
"9 	c #54C954",
": 	c #57CC57",
"; 	c #59CE59",
"< 	c #5BD15B",
"= 	c #5DD45D",
"> 	c #5FD65F",
"? 	c #61D961",
"@ 	c #64DC64",
"A 	c #66DF66",
"B 	c #68E168",
"C 	c #6AE46A",
"D 	c #6CE76C",
"E 	c #6EE96E",
"F 	c #71EC71",
"G 	c #73EF73",
"H 	c #75F175",
"I 	c #77F477",
"J 	c #79F779",
"K 	c #7BF97B",
"L 	c #7EFD7E",
"M 	c #80FF80",
"N 	c #41A141",
"O 	c #42A342",
"P 	c #3A8E3A",
"Q 	c #3B8F3B",
"R 	c #3C913C",
"S 	c #3F943F",
"T 	c #409540",
"U 	c #429742",
"V 	c #439943",
"W 	c #449B44",
"X 	c #388E38",
"Y 	c #3A903A",
"Z 	c #469D46",
"[ 	c #76E376",
"] 	c #9CEB9C",
"^ 	c #BCF1BC",
"_ 	c #CFF4CE",
"` 	c #DEF7DE",
"a 	c #E5F7E4",
"b 	c #DEF8DE",
"c 	c #D3F7D2",
"d 	c #C4F8C4",
"e 	c #ADF9AD",
"f 	c #8EFC8E",
"g 	c #3EA83E",
"h 	c #266626",
"i 	c #112D11",
"j 	c #153215",
"k 	c #317331",
"l 	c #55C355",
"m 	c #489F48",
"n 	c #C1EFC0",
"o 	c #F1F8F0",
"p 	c #FBFAFA",
"q 	c #FAF9F9",
"r 	c #F4FAF3",
"s 	c #CBFACA",
"t 	c #8FF88F",
"u 	c #256425",
"v 	c #040A04",
"w 	c #0E240E",
"x 	c #050C05",
"y 	c #419241",
"z 	c #4AA14A",
"{ 	c #D7F6D6",
"| 	c #A3F2A3",
"} 	c #8DF28D",
"~ 	c #8BF48B",
" !	c #99F799",
"!!	c #C2F9C2",
"#!	c #F3F9F2",
"$!	c #F1F9F0",
"%!	c #A1F5A1",
"&!	c #184318",
"'!	c #122E12",
"(!	c #3F9C3F",
")!	c #3B8C3B",
"*!	c #0A190A",
"+!	c #306C30",
",!	c #4BA34B",
"-!	c #B4F2B3",
".!	c #73EE73",
"0!	c #9DFD9D",
"1!	c #EFF9EE",
"2!	c #F7F9F6",
"3!	c #9EF29E",
"4!	c #2D7B2D",
"5!	c #112711",
"6!	c #316D31",
"7!	c #66DE66",
"8!	c #4CA54C",
"9!	c #C1F4C1",
":!	c #A7F9A7",
";!	c #E7F7E6",
"<!	c #7CEA7C",
"=!	c #0C210C",
">!	c #53BB53",
"?!	c #337033",
"@!	c #68E068",
"A!	c #4EA74E",
"B!	c #EFF8EE",
"C!	c #80EF80",
"D!	c #7CF67C",
"E!	c #DFF8DF",
"F!	c #B3F0B3",
"G!	c #40AA40",
"H!	c #1E441E",
"I!	c #010101",
"J!	c #367236",
"K!	c #6AE36A",
"L!	c #50A950",
"M!	c #C6F4C5",
"N!	c #B9F5B9",
"O!	c #E4F5E3",
"P!	c #6FE16F",
"Q!	c #358A35",
"R!	c #47AD47",
"S!	c #3F8B3F",
"T!	c #020202",
"U!	c #397439",
"V!	c #6CE66C",
"W!	c #52AB52",
"X!	c #9EF39E",
"Y!	c #F8F9F7",
"Z!	c #8AE58A",
"[!	c #378C37",
"]!	c #1F4A1F",
"^!	c #54B654",
"_!	c #1C3A1C",
"`!	c #459145",
"a!	c #6EE86E",
"b!	c #57AC57",
"c!	c #8EF48E",
"d!	c #94EF94",
"e!	c #A4E7A3",
"f!	c #3D9A3D",
"g!	c #214C21",
"h!	c #6DE66D",
"i!	c #71EB71",
"j!	c #5FAF5F",
"k!	c #7FF67F",
"l!	c #9AED9A",
"m!	c #ADE8AC",
"n!	c #091709",
"o!	c #2F6A2F",
"p!	c #54BD54",
"q!	c #74E974",
"r!	c #73EB73",
"s!	c #72EE72",
"t!	c #60B060",
"u!	c #B6F8B5",
"v!	c #B0FAAF",
"w!	c #B2FCB1",
"x!	c #B1FAB0",
"y!	c #AFF8AE",
"z!	c #AEF7AD",
"{!	c #ADF5AC",
"|!	c #ACF3AB",
"}!	c #ABF2AA",
"~!	c #A8F0A7",
" #	c #AFF0AE",
"!#	c #E3F6E2",
"##	c #B8EAB8",
"$#	c #2D6F2D",
"%#	c #122912",
"&#	c #3A7E3A",
"'#	c #5CC75C",
"(#	c #79EC79",
")#	c #76EE76",
"*#	c #5EB25E",
"+#	c #A3E4A2",
",#	c #204C20",
"-#	c #285628",
".#	c #62CE62",
"0#	c #79EE79",
"1#	c #76F076",
"2#	c #60B460",
"3#	c #DAFBD9",
"4#	c #D6FAD5",
"5#	c #D5F9D4",
"6#	c #D5F8D4",
"7#	c #D4F7D3",
"8#	c #D3F6D2",
"9#	c #D2F5D1",
":#	c #D1F4D0",
";#	c #D0F3CF",
"<#	c #D0F2CF",
"=#	c #CFF1CE",
">#	c #CFF0CE",
"?#	c #C9EEC8",
"@#	c #ABE6AB",
"A#	c #65D365",
"B#	c #2D682D",
"C#	c #447F44",
"D#	c #78F378",
"E#	c #63B663",
"F#	c #7EFC7E",
"G#	c #7CF87C",
"H#	c #7AF67A",
"I#	c #74EE74",
"J#	c #72EB72",
"K#	c #6FE86F",
"L#	c #6BE36B",
"M#	c #69E069",
"N#	c #68DE68",
"O#	c #66DB66",
"P#	c #63D863",
"Q#	c #61D561",
"R#	c #5DD35D",
"S#	c #245024",
"T#	c #0D0D0D",
"U#	c #315F31",
"V#	c #63B863",
"W#	c #7EF87E",
"X#	c #5FD15F",
"Y#	c #408C40",
"Z#	c #204620",
"[#	c #050505",
"]#	c #56AD56",
"^#	c #61B661",
"_#	c #83F683",
"`#	c #67DA67",
"a#	c #387538",
"b#	c #060E06",
"c#	c #0C0C0C",
"d#	c #1F3F1F",
"e#	c #5EB35E",
"f#	c #8AF48A",
"g#	c #398439",
"h#	c #6DE16D",
"i#	c #152C15",
"j#	c #0E0E0E",
"k#	c #060606",
"l#	c #5AB25A",
"m#	c #97F297",
"n#	c #173417",
"o#	c #51B251",
"p#	c #71E771",
"q#	c #070E07",
"r#	c #5AB95A",
"s#	c #59B059",
"t#	c #B2F3B1",
"u#	c #6ACD6A",
"v#	c #5BC75B",
"w#	c #2C612C",
"x#	c #366E36",
"y#	c #070707",
"z#	c #030303",
"{#	c #59B659",
"|#	c #57AE57",
"}#	c #DBF6DB",
"~#	c #5EC95E",
" $	c #E0F0DF",
"!$	c #D8EED7",
"#$	c #61C561",
"$$	c #060D06",
"%$	c #63D563",
"&$	c #5FBF5F",
"'$	c #56AC56",
"($	c #92EB92",
")$	c #ACE1AC",
"*$	c #E2F1E1",
"+$	c #58C058",
",$	c #326F32",
"-$	c #357335",
".$	c #4E9D4E",
"0$	c #0F1E0F",
"1$	c #55AA55",
"2$	c #DCF5DC",
"3$	c #72E272",
"4$	c #8BD68B",
"5$	c #96D695",
"6$	c #479A47",
"7$	c #54B054",
"8$	c #1E3D1E",
"9$	c #3A783A",
":$	c #52A852",
";$	c #D0F1CF",
"<$	c #72DE72",
"=$	c #92D992",
">$	c #F2F7F1",
"?$	c #CEEACE",
"@$	c #4DBB4D",
"A$	c #4FAA4F",
"B$	c #50A550",
"C$	c #448B44",
"D$	c #69DD69",
"E$	c #50A750",
"F$	c #E2F4E1",
"G$	c #9FE49E",
"H$	c #70D870",
"I$	c #59CD59",
"J$	c #5BCC5B",
"K$	c #5FCC5F",
"L$	c #80D380",
"M$	c #C4E8C3",
"N$	c #F9F9F8",
"O$	c #E5F2E4",
"P$	c #65C465",
"Q$	c #5ECA5E",
"R$	c #0D1C0D",
"S$	c #1D3D1D",
"T$	c #5EBD5E",
"U$	c #4DA44D",
"V$	c #F1F7F0",
"W$	c #DDF1DC",
"X$	c #CDECCC",
"Y$	c #D7EFD7",
"Z$	c #ECF5EB",
"[$	c #6AC66A",
"]$	c #397739",
"^$	c #EDF6EC",
"_$	c #F2F6F1",
"`$	c #B0E0B0",
"a$	c #56BE56",
"b$	c #3D7C3D",
"c$	c #274E27",
"d$	c #1F3E1F",
"e$	c #336A33",
"f$	c #6BE06B",
"g$	c #6DDB6D",
"h$	c #92E192",
"i$	c #B7E9B7",
"j$	c #D2EFD2",
"k$	c #E1F2E0",
"l$	c #EFF6EE",
"m$	c #F0F6EF",
"n$	c #E9F4E8",
"o$	c #BFE5BE",
"p$	c #95D694",
"q$	c #60C360",
"r$	c #3F9E3F",
"                                                                                                                                ",
"                                                                                                                                ",
"                                        # # # # # # # # # # # # # # # # # # # # # # # # # # # # # # # # # # # # # #             ",
"                                      # $ % & & & & & & & & & & & & & & & & & & & & & & & & & & & & & & & & & & & & #           ",
"                                    # $ % & ' ( ) * + , - . 0 1 2 3 4 5 6 7 8 9 : ; < = > ? @ A B C D E F G H I J K & #         ",
"                                  # $ % & ' ( ) * + , - . 0 1 2 3 4 5 6 7 8 9 : ; < = > ? @ A B C D E F G H I J K L M & #       ",
"                                # $ % & ' ( ) * + , - . 0 1 2 3 4 5 6 7 8 9 : ; < = > ? @ A B C D E F G H I J K L M L K & #     ",
"                              # $ % & ' ( ) * + , - . 0 1 2 3 4 5 6 7 8 9 : ; < = > ? @ A B C D E F G H I J K L M L K J & #     ",
"                            # $ % & ' ( ) * + , - . 0 1 2 3 4 5 N O 8 9 : ; < = > ? @ A B C D E F G H I J K L M L K J I & #     ",
"                          # $ % & ' ( ) * + , - . 0 1 2 3 4 5 6 P ! 9 : ; < = > ? @ A B C D E F G H I J K L M L K J I H & #     ",
"                        # $ % & ' ( ) * + , - . 0 1 2 3 4 5 6 7 Q ! : ; < = > ? @ A B C D E F G H I J K L M L K J I H G & #     ",
"                      # $ % & ' ( ) * + , - . 0 1 2 3 4 5 6 7 8 R ! ; < = > ? @ A B C D E F G H I J K L M L K J I H G F & #     ",
"                    # $ % & ' ( ) * + , - . 0 1 2 3 4 5 6 7 8 9 S ! < = > ? @ A B C D E F G H I J K L M L K J I H G F E & #     ",
"                  # $ % & ' ( ) * + , - . 0 1 2 3 4 5 6 7 8 9 : T ! = > ? @ A B C D E F G H I J K L M L K J I H G F E D & #     ",
"                # $ % & ' ( ) * + , - . 0 1 2 3 4 5 6 7 8 9 : ; U ! > ? @ A B C D E F G H I J K L M L K J I H G F E D C & #     ",
"              # $ % & ' ( ) * + , - . 0 1 2 3 4 5 6 7 8 9 : ; < V ! ? @ A B C D E F G H I J K L M L K J I H G F E D C B & #     ",
"            # $ % & ' ( ) * + , - . 0 1 2 3 4 5 6 7 8 9 : ; < = W ! @ A B C D E F G H I J K L M L K J I H G F E D C B A & #     ",
"          # $ % & ' ( ) * + , - . 0 1 2 3 4 X Y 7 8 9 : ; < = > Z ! A [ ] ^ _ ` a b c d e f M L K J I H G F E D C B A @ & #     ",
"        # $ % & ' ( ) * + , - . 0 g h i ! ! ! ! ! ! j k l = > ? m ! n o p p p q q p p p p r s t J I H G F E D C B A @ ? & #     ",
"      # $ % & ' ( ) * + , - . 0 u v ! ! ! ! w ! ! ! ! ! x y ? @ z ! p p p { | } ~  !!!#!p p p $!%!H G F E D C B A @ ? > & #     ",
"    # $ % & ' ( ) * + , - . 0 &!! ! ! '!(!7 8 9 )!*!! ! ! +!@ A ,!! p q -!.!H I J K L 0!1!p p p 2!3!F E D C B A @ ? > = & #     ",
"    # % & ' ( ) * + , - . 0 4!! ! ! '!6 7 8 9 : ; l 5!! ! 6!7!B 8!! p 9!G H I J K L M L :!p p p p ;!<!D C B A @ ? > = < & #     ",
"    # & ' ( ) * + , - . 0 1 =!! ! ! Y 7 8 9 : ; < = >!! ! ?!@!C A!! B!C!H I J K L M L K D!E!p p p p F!C B A @ ? > = < ; & #     ",
"    # & ( ) * + , - . 0 1 G!! ! ! ! 7 8 9 : ; < = > ? H!I!J!K!D L!! M!H I J K L M L K J I N!p p p p O!P!A @ ? > = < ; : & #     ",
"    # & ) * + , - . 0 1 2 Q!! ! ! ! R!9 : ; < = > ? @ S!T!U!V!E W!! X!I J K L M L K J I H 3!p p p p Y!Z!@ ? > = < ; : 9 & #     ",
"    # & * + , - . 0 1 2 3 [!! ! ! ! ]!: ; < = > ? @ A ^!_!`!a!F b!! c!J K L M L K J I H G d!p p p p p e!? > = < ; : 9 8 & #     ",
"    # & + , - . 0 1 2 3 4 f!! ! ! ! ! g!l = > ? @ A B C h!a!i!G j!! k!K L M L K J I H G F l!p p p p p m!> = < ; : 9 8 7 & #     ",
"    # & , - . 0 1 2 3 4 5 6 n!! ! ! ! ! x o!p!@ A B C D q!r!s!H t!! u!v!w!x!y!z!{!|!}!~! #!#p p p p p ##= < ; : 9 8 7 6 & #     ",
"    # & - . 0 1 2 3 4 5 6 7 $#! ! ! ! ! ! ! ! %#&#'#D E (#)#H I *#! p p p p p p p p p p p p p p p p p +#< ; : 9 8 7 6 5 & #     ",
"    # & . 0 1 2 3 4 5 6 7 8 9 ,#! ! ! ! ! ! ! ! ! ! -#.#0#1#I J 2#! 3#4#5#6#7#8#8#9#:#:#;#<#=#>#>#?#@#A#; : 9 8 7 6 5 4 & #     ",
"    # & 0 1 2 3 4 5 6 7 8 9 : ; B#! ! ! ! ! ! ! ! ! ! ! C#D#J K E#! F#G#H#D#1#I#J#K#h!L#M#N#O#P#Q#R#< ; : 9 8 7 6 5 4 3 & #     ",
"    # & 1 2 3 4 5 6 7 8 9 : ; < = >!S#! ! ! ! ! ! ! ! ! T#U#K L V#! W#J I H G F E D C B A @ ? > = < ; : 9 8 7 6 5 4 3 2 & #     ",
"    # & 2 3 4 5 6 7 8 9 : ; < = > ? @ X#Y#Z#! ! ! ! ! ! T#[#]#M ^#! _#I H G F E D C B A @ ? > = < ; : 9 8 7 6 5 4 3 2 1 & #     ",
"    # & 3 4 5 6 7 8 9 : ; < = > ? @ A B C D `#a#b#! ! ! c#[#d#L e#! f#H G F E D C B A @ ? > = < ; : 9 8 7 6 5 4 3 2 1 0 & #     ",
"    # & 4 5 6 7 8 9 : ; < g#o!? @ A B C D E F G h#i#! ! j#k#! K l#! m#G F E D C B A @ ? > = < ; : 9 8 7 6 5 4 3 2 1 0 . & #     ",
"    # & 5 6 7 8 9 : ; < = n#! o#A B C D E F G H I p#q#! T#k#! r#s#! t#F E D C B A @ ? > = < ; : 9 u#v#6 5 4 3 2 1 0 . - & #     ",
"    # & 6 7 8 9 : ; < = > +!! w#B C D E F G H I J K x#! y#z#! {#|#! }#E D C B A @ ? > = < ; : 9 ~# $!$#$4 3 2 1 0 . - , & #     ",
"    # & 7 8 9 : ; < = > ? 6!! $$%$D E F G H I J K L &$! I!T!I!h#'$! p ($C B A @ ? > = < ; : 9 8 )$p *$+$3 2 1 0 . - , + & #     ",
"    # & 8 9 : ; < = > ? @ ,$! ! -$E F G H I J K L M .$! ! I!0$G 1$! p 2$3$A @ ? > = < ; : 9 8 4$Y!p 5$3 2 1 0 . - , + * & #     ",
"    # & 9 : ; < = > ? @ A 6$! ! ! 7$G H I J K L M L 8$! ! ! 9$F :$! p p ;$<$? > = < ; : 9 8 =$>$p ?$@$2 1 0 . - , + * ) & #     ",
"    # & : ; < = > ? @ A B A$! ! ! b#B$I J K L M L C$! ! ! i#D$E E$! p p p F$G$H$X#I$J$K$L$M$N$p O$P$2 1 0 . - , + * ) ( & #     ",
"    # & ; < = > ? @ A B C Q$R$! ! ! ! S$C$T$&$.$8$! ! ! i#D$E D U$! p p p p p V$W$X$Y$Z$Y!p p  $[$2 1 0 . - , + * ) ( ' & #     ",
"    # & < = > ? @ A B C D E D$]$b#! ! ! ! ! ! ! ! ! b#]$D$E D C ,!! ^$p p p p p p p p p p _$`$a$2 1 0 . - , + * ) ( ' & % #     ",
"    # & = > ? @ A B C D E F G H I r#b$c$d#d$8$S$e$B$f$F E D C B z ! g$h$i$j$k$l$m$n$!$o$p$q$3 2 1 0 . - , + * ) ( ' & % $ #     ",
"    # & > ? @ A B C D E F G H I J K L M L K J I H G F E D C B A m ! > = < ; : 9 8 7 6 5 4 3 2 1 0 . - , + * ) ( ' & % $ #       ",
"    # & ? @ A B C D E F G H I J K L M L K J I H G F E D C B A @ Z ! = < ; : 9 8 7 6 5 4 3 2 1 0 . - , + * ) ( ' & % $ #         ",
"    # & @ A B C D E F G H I J K L M L K J I H G F E D C B A @ ? W ! < ; : 9 8 7 6 5 4 3 2 1 0 . - , + * ) ( ' & % $ #           ",
"    # & A B C D E F G H I J K L M L K J I H G F E D C B A @ ? > V ! ; : 9 8 7 6 5 4 3 2 1 0 . - , + * ) ( ' & % $ #             ",
"    # & B C D E F G H I J K L M L K J I H G F E D C B A @ ? > = U ! : 9 8 7 6 5 4 3 2 1 0 . - , + * ) ( ' & % $ #               ",
"    # & C D E F G H I J K L M L K J I H G F E D C B A @ ? > = < T ! 9 8 7 6 5 4 3 2 1 0 . - , + * ) ( ' & % $ #                 ",
"    # & D E F G H I J K L M L K J I H G F E D C B A @ ? > = < ; S ! 8 7 6 5 4 3 2 1 0 . - , + * ) ( ' & % $ #                   ",
"    # & E F G H I J K L M L K J I H G F E D C B A @ ? > = < ; : R ! 7 6 5 4 3 2 1 0 . - , + * ) ( ' & % $ #                     ",
"    # & F G H I J K L M L K J I H G F E D C B A @ ? > = < ; : 9 Q ! 6 5 4 3 2 1 0 . - , + * ) ( ' & % $ #                       ",
"    # & G H I J K L M L K J I H G F E D C B A @ ? > = < ; : 9 8 P ! 5 4 3 2 1 0 . - , + * ) ( ' & % $ #                         ",
"    # & H I J K L M L K J I H G F E D C B A @ ? > = < ; : 9 8 7 N r$4 3 2 1 0 . - , + * ) ( ' & % $ #                           ",
"    # & I J K L M L K J I H G F E D C B A @ ? > = < ; : 9 8 7 6 5 4 3 2 1 0 . - , + * ) ( ' & % $ #                             ",
"    # & J K L M L K J I H G F E D C B A @ ? > = < ; : 9 8 7 6 5 4 3 2 1 0 . - , + * ) ( ' & % $ #                               ",
"    # & K L M L K J I H G F E D C B A @ ? > = < ; : 9 8 7 6 5 4 3 2 1 0 . - , + * ) ( ' & % $ #                                 ",
"      # & M L K J I H G F E D C B A @ ? > = < ; : 9 8 7 6 5 4 3 2 1 0 . - , + * ) ( ' & % $ #                                   ",
"        # & K J I H G F E D C B A @ ? > = < ; : 9 8 7 6 5 4 3 2 1 0 . - , + * ) ( ' & % $ #                                     ",
"          # & & & & & & & & & & & & & & & & & & & & & & & & & & & & & & & & & & & & % $ #                                       ",
"            # # # # # # # # # # # # # # # # # # # # # # # # # # # # # # # # # # # # # #                                         ",
"                                                                                                                                ",
"                                                                                                                                "};
